<?xml version="1.0" standalone="no"?>
<!DOCTYPE svg PUBLIC "-//W3C//DTD SVG 1.1//EN" "http://www.w3.org/Graphics/SVG/1.1/DTD/svg11.dtd" >
<svg xmlns="http://www.w3.org/2000/svg" xmlns:xlink="http://www.w3.org/1999/xlink" version="1.1">
<metadata>
Created by FontForge 20150913 at Wed Apr 27 05:23:22 2016
 By Jimmy Wärting
Copyright (c) 2013 by Mariya Pigoulevskaya. All rights reserved.
</metadata>
<defs>
<font id="UVF-Kizo" horiz-adv-x="247" >
  <font-face 
    font-family="UVF  Kizo"
    font-weight="400"
    font-stretch="condensed"
    units-per-em="1000"
    panose-1="0 0 5 6 0 0 0 0 0 0"
    ascent="750"
    descent="-250"
    x-height="500"
    cap-height="700"
    bbox="-48.25 -275 599 1694"
    underline-thickness="50"
    underline-position="-100"
    unicode-range="U+000D-2265"
  />
<missing-glyph horiz-adv-x="500" 
d="M0 700h500v-700h-500v700zM420 650h-340l170 -255zM450 95v510l-170 -255zM420 50l-170 255l-170 -255h340zM50 95l170 255l-170 255v-510z" />
    <glyph glyph-name=".notdef" horiz-adv-x="500" 
d="M0 700h500v-700h-500v700zM420 650h-340l170 -255zM450 95v510l-170 -255zM420 50l-170 255l-170 -255h340zM50 95l170 255l-170 255v-510z" />
    <glyph glyph-name="NULL" horiz-adv-x="0" 
 />
    <glyph glyph-name="NULL" horiz-adv-x="0" 
 />
    <glyph glyph-name="nonmarkingreturn" unicode="&#xd;" horiz-adv-x="250" 
 />
    <glyph glyph-name="space" unicode=" " horiz-adv-x="250" 
 />
    <glyph glyph-name="Acaron" unicode="&#x1cd;" horiz-adv-x="277" 
d="M121 750l-62 90h37l43 -60l43 60h37l-62 -90h-36zM218 0l-29 245h-98l-29 -245h-40l85 700h66l85 -700h-40zM128 560l-33 -282h92l-33 282l-12 111h-3z" />
    <glyph glyph-name="Acircumflex" unicode="&#xc2;" horiz-adv-x="273" 
d="M196 0l-29 245h-98l-29 -245h-40l85 700h66l85 -700h-40zM106 560l-33 -282h92l-33 282l-13 111h-2zM162 735l-44 60l-42 -60h-37l62 90h34l62 -90h-35z" />
    <glyph glyph-name="Adieresis" unicode="&#xc4;" horiz-adv-x="277" 
d="M62 750v57h43v-57h-43zM171 750v57h43v-57h-43zM217 0l-29 245h-98l-29 -245h-40l85 700h66l85 -700h-40zM127 560l-33 -282h92l-33 282l-12 111h-3z" />
    <glyph glyph-name="Agrave" unicode="&#xc0;" horiz-adv-x="273" 
d="M104 735l-34 90h45l17 -90h-28zM196 0l-29 245h-98l-29 -245h-40l85 700h66l85 -700h-40zM106 560l-33 -282h92l-33 282l-13 111h-2z" />
    <glyph glyph-name="Amacron" unicode="&#x100;" horiz-adv-x="277" 
d="M38 750v33h200v-33h-200zM217 0l-29 245h-98l-29 -245h-40l85 700h66l85 -700h-40zM127 560l-33 -282h92l-33 282l-12 111h-3z" />
    <glyph glyph-name="Aogonek" unicode="&#x104;" horiz-adv-x="304" 
d="M283 -166h-20q-58 0 -77 43q-12 28 -1 55t30 48l16 19h-14l-29 245h-98l-29 -245h-40l85 700h66l85 -700l-19 -23q-17 -23 -26.5 -47t4.5 -46q8 -12 23 -16.5t34 -4.5h10v-28zM153 559l-12 111h-3l-12 -111l-33 -282h92z" />
    <glyph glyph-name="Aring" unicode="&#xc5;" horiz-adv-x="277" 
d="M154 866q53 0 53 -39v-37q0 -39 -53 -39h-34q-52 0 -52 39v37q0 39 52 39h34zM127 838q-16 0 -19.5 -6t-3.5 -21v-9q0 -15 3.5 -21t19.5 -6h20q16 0 19.5 6t3.5 22v9q0 16 -3.5 22t-19.5 6zM216 -2l-29 245h-98l-29 -245h-40l85 700h66l85 -700h-40zM126 558l-33 -282h92
l-33 282l-12 111h-3z" />
    <glyph glyph-name="Atilde" unicode="&#xc3;" horiz-adv-x="273" 
d="M236 0l-85 700h-66l-85 -700h40l29 245h98l29 -245h40zM117 671h2l13 -111l33 -282h-92l33 282zM92 777q5 0 8 -1.5t5 -3.5l27 -17q7 -4 13 -4h2q1 0 3 1q4 2 4 7v18h34v-15q1 -8 -2 -14q-2 -5 -7 -9t-14 -4h-20q-6 0 -13 4l-27 17q-2 2 -5 3.5t-8 1.5h-2q-2 0 -4 -1
q-3 -2 -3 -7v-18h-34v18q-1 7 2 12q2 5 6.5 8.5t14.5 3.5h20z" />
    <glyph glyph-name="AE" unicode="&#xc6;" horiz-adv-x="371" 
d="M335 394v-33h-154v-329h168v-33h-210v245h-50l-29 -245h-40l85 700h245v-33h-168v-270zM136 669l-12 -111l-33 -282h47v393h-2z" />
    <glyph glyph-name="B" unicode="B" horiz-adv-x="258" 
d="M118 700q48 0 73 -19.5t25 -66.5v-158q0 -29 -11.5 -47.5t-36.5 -25.5q29 -7 41 -27.5t12 -49.5v-223q0 -47 -25 -65t-73 -18h-123v700h118zM42 397h78q31 1 42.5 15.5t11.5 54.5v127q0 41 -12.5 55.5t-46.5 14.5h-73v-267zM42 31h78q34 0 46.5 14.5t12.5 55.5v193
q0 41 -12.5 55.5t-46.5 14.5h-78v-333z" />
    <glyph glyph-name="C" unicode="C" horiz-adv-x="258" 
d="M119 700q48 0 74.5 -21t26.5 -67v-84h-42v69q0 41 -12.5 55.5t-46.5 14.5h-20q-34 0 -46 -14.5t-12 -56.5v-492q0 -42 12.5 -56.5t46.5 -14.5h20q34 0 46.5 14.5t12.5 55.5v69h42v-84q0 -46 -26.5 -67t-74.5 -21h-20q-48 0 -74 21t-26 67v522q0 46 26 68t74 22h19z" />
    <glyph glyph-name="Cacute" unicode="&#x106;" horiz-adv-x="279" 
d="M117 750l17 90h45l-34 -90h-28zM157 708q48 0 74.5 -21t26.5 -67v-84h-42v69q0 41 -12.5 55.5t-46.5 14.5h-20q-34 0 -46 -14.5t-12 -56.5v-506q0 -42 12.5 -56.5t46.5 -14.5h20q34 0 46.5 14.5t12.5 55.5v69h42v-84q0 -46 -26.5 -67t-74.5 -21h-20q-48 0 -74 21t-26 67
v536q0 46 26 67t74 21z" />
    <glyph glyph-name="Ccaron" unicode="&#x10c;" horiz-adv-x="279" 
d="M130 750l-62 90h37l43 -60l43 60h37l-62 -90h-36zM159 708q48 0 74.5 -21t26.5 -67v-84h-42v69q0 41 -12.5 55.5t-46.5 14.5h-20q-34 0 -46 -14.5t-12 -56.5v-506q0 -42 12 -56.5t46 -14.5h20q34 0 46.5 14.5t12.5 55.5v69h42v-84q0 -46 -26.5 -67t-74.5 -21h-20
q-48 0 -74 21t-26 67v536q0 46 26 67t74 21z" />
    <glyph glyph-name="Ccedilla" unicode="&#xc7;" horiz-adv-x="279" 
d="M217 606q0 41 -12.5 55.5t-46.5 14.5h-20q-34 0 -46 -14.5t-12 -56.5v-506q0 -42 12.5 -56.5t46.5 -14.5h20q34 0 46.5 14.5t12.5 55.5v69h42v-84q0 -46 -26.5 -67t-74.5 -21h-18v-36h9q25 0 40.5 -12t16.5 -42v-12q0 -30 -16 -43t-42 -13h-57v27h53q11 0 19.5 6.5
t8.5 23.5v8q-1 17 -9 23t-20 6h-31v65q-76 9 -76 86v536q0 46 26 67t74 21h20q48 0 74.5 -21t26.5 -67v-84h-42z" />
    <glyph glyph-name="Cdotaccent" unicode="&#x10a;" horiz-adv-x="279" 
d="M126 750v57h43v-57h-43zM156 708q48 0 74.5 -21t26.5 -67v-84h-42v69q0 41 -12.5 55.5t-46.5 14.5h-20q-34 0 -46 -14.5t-12 -56.5v-506q0 -42 12.5 -56.5t46.5 -14.5h20q34 0 46.5 14.5t12.5 55.5v69h42v-84q0 -46 -26.5 -67t-74.5 -21h-20q-48 0 -74 21t-26 67v536
q0 46 26 67t74 21z" />
    <glyph glyph-name="D" unicode="D" horiz-adv-x="258" 
d="M123 700q48 0 73 -18t25 -65v-534q0 -47 -25 -65t-73 -18h-123v700h123zM179 597q0 41 -12.5 55.5t-46.5 14.5h-78v-634h78q34 0 46.5 13.5t12.5 54.5v496z" />
    <glyph glyph-name="Eth" unicode="&#xd0;" horiz-adv-x="330" 
d="M195 698q48 0 73 -18t25 -65v-532q0 -47 -25 -65t-73 -18h-123v342h-33v33h33v325zM251 596q0 41 -12.5 55.5t-46.5 14.5h-78v-292h78v-33h-78v-310h78q34 0 46.5 14.5t12.5 55.5v495z" />
    <glyph glyph-name="Dcaron" unicode="&#x10e;" horiz-adv-x="297" 
d="M130 750l-62 90h37l43 -60l43 60h37l-62 -90h-36zM164 698q48 0 73 -18t25 -65v-532q0 -47 -25 -65t-73 -18h-123v700zM220 595q0 41 -12.5 55.5t-46.5 14.5h-78v-634h78q34 0 46.5 14.5t12.5 55.5v494z" />
    <glyph glyph-name="Dcroat" unicode="&#x110;" horiz-adv-x="291" 
d="M156 700q48 0 73 -19t25 -66v-532q0 -47 -25 -65t-73 -18h-123v342h-33v33h33v325h123zM212 596q0 41 -12.5 55.5t-46.5 14.5h-78v-291h78v-33h-78v-311h78q34 0 46.5 14.5t12.5 55.5v495z" />
    <glyph glyph-name="E" unicode="E" 
d="M196 395v-33h-154v-329h168v-33h-210v700h210v-33h-168v-272h154z" />
    <glyph glyph-name="Eacute" unicode="&#xc9;" 
d="M196 395v-33h-154v-329h168v-33h-210v700h210v-33h-168v-272h154zM90 735l17 90h45l-34 -90h-28z" />
    <glyph glyph-name="Ecaron" unicode="&#x11a;" horiz-adv-x="273" 
d="M127 750l-62 90h37l43 -60l43 60h37l-62 -90h-36zM86 665v-270h154v-33h-154v-329h168v-33h-210v700h210v-33z" />
    <glyph glyph-name="Ecircumflex" unicode="&#xca;" 
d="M196 395v-33h-154v-329h168v-33h-210v700h210v-33h-168v-272h154zM149 735l-44 60l-42 -60h-37l62 90h34l62 -90h-35z" />
    <glyph glyph-name="Edieresis" unicode="&#xcb;" horiz-adv-x="273" 
d="M71 750v57h43v-57h-43zM180 750v57h43v-57h-43zM85 665v-270h154v-33h-154v-329h168v-33h-210v700h210v-33z" />
    <glyph glyph-name="Edotaccent" unicode="&#x116;" horiz-adv-x="273" 
d="M123 750v57h43v-57h-43zM84 665v-270h154v-33h-154v-329h168v-33h-210v700h210v-33z" />
    <glyph glyph-name="Egrave" unicode="&#xc8;" 
d="M196 395v-33h-154v-329h168v-33h-210v700h210v-33h-168v-272h154zM91 735l-34 90h45l17 -90h-28z" />
    <glyph glyph-name="Emacron" unicode="&#x112;" horiz-adv-x="273" 
d="M45 800v33h200v-33h-200zM84 665v-270h154v-33h-154v-329h168v-33h-210v700h210v-33z" />
    <glyph glyph-name="Eogonek" unicode="&#x118;" horiz-adv-x="296" 
d="M276 -168h-20q-58 0 -77 43q-12 28 -1 55t30 48l16 19h-182v700h210v-33h-168v-270h154v-33h-154v-329h168v-33h-3l-19 -23q-17 -23 -26.5 -47t4.5 -46q8 -12 23 -16.5t34 -4.5h10z" />
    <glyph glyph-name="F" unicode="F" horiz-adv-x="246" 
d="M42 666v-270h153v-33h-153v-363h-42v700h209v-34h-167z" />
    <glyph glyph-name="G" unicode="G" horiz-adv-x="258" 
d="M120 700q48 0 74.5 -21t26.5 -67v-70h-42v55q0 41 -12.5 55.5t-46.5 14.5h-20q-34 0 -46 -14.5t-12 -56.5v-492q0 -42 12 -56.5t46 -14.5h20q34 0 46.5 14.5t12.5 55.5v266h-65v33h107v-314q0 -46 -26.5 -67t-74.5 -21h-20q-48 0 -74 21t-26 67v522q0 46 26 68t74 22h20z
" />
    <glyph glyph-name="Gbreve" unicode="&#x11e;" horiz-adv-x="297" 
d="M226 797q0 -22 -18 -35t-54 -13h-16q-35 0 -52.5 13t-17.5 35v42h36v-19q0 -24 6 -34.5t30 -10.5h13q24 0 30 10.5t6 35.5v19h36zM157 707q48 0 74.5 -21t26.5 -67v-84h-42v69q0 41 -12.5 55.5t-46.5 14.5h-20q-34 0 -46 -14.5t-12 -56.5v-506q0 -42 12.5 -56.5
t46.5 -14.5h20q34 0 46.5 14.5t12.5 55.5v266h-65v33h107v-314q0 -46 -26.5 -67t-74.5 -21h-20q-48 0 -74 21t-26 67v536q0 46 26 67t74 21z" />
    <glyph glyph-name="Gcommaaccent" unicode="&#x122;" horiz-adv-x="297" 
d="M157 708q48 0 74.5 -21t26.5 -67v-84h-42v69q0 41 -12.5 55.5t-46.5 14.5h-20q-34 0 -46 -14.5t-12 -56.5v-506q0 -42 12 -56.5t46 -14.5h20q34 0 46.5 14.5t12.5 55.5v266h-65v33h107v-314q0 -46 -26.5 -67t-74.5 -21h-20q-48 0 -74 21t-26 67v536q0 46 26 67t74 21z
M120 -124l17 90h45l-34 -90h-28z" />
    <glyph glyph-name="Gdotaccent" unicode="&#x120;" horiz-adv-x="297" 
d="M126 750v57h43v-57h-43zM157 708q48 0 74.5 -21t26.5 -67v-84h-42v69q0 41 -12.5 55.5t-46.5 14.5h-20q-34 0 -46 -14.5t-12 -56.5v-506q0 -42 12 -56.5t46 -14.5h20q34 0 46.5 14.5t12.5 55.5v266h-65v33h107v-314q0 -46 -26.5 -67t-74.5 -21h-20q-48 0 -74 21t-26 67
v536q0 46 26 67t74 21z" />
    <glyph glyph-name="H" unicode="H" horiz-adv-x="258" 
d="M179 0v363h-137v-363h-42v700h42v-304h137v304h42v-700h-42z" />
    <glyph glyph-name="Hbar" unicode="&#x126;" horiz-adv-x="361" 
d="M291 500v-500h-42v363h-137v-363h-42v500h-28v33h28v167h42v-167h137v167h42v-167h28v-33h-28zM112 500v-104h137v104h-137z" />
    <glyph glyph-name="I" unicode="I" horiz-adv-x="79" 
d="M0 0v700h42v-700h-42z" />
    <glyph glyph-name="IJ" unicode="&#x132;" horiz-adv-x="408" 
d="M42 0v700h42v-700h-42zM365 81q0 -46 -25.5 -67t-71.5 -21h-19q-46 0 -72 21t-26 67v103h42v-88q0 -42 12 -56t44 -14h19q31 0 43 14.5t12 56.5v570h-99v33h142z" />
    <glyph glyph-name="Iacute" unicode="&#xcd;" horiz-adv-x="106" 
d="M0 0v700h42v-700h-42zM7 735l17 90h45l-34 -90h-28z" />
    <glyph glyph-name="Icaron" unicode="&#x1cf;" horiz-adv-x="245" 
d="M105 750l-62 90h37l43 -60l43 60h37l-62 -90h-36zM103 0v700h42v-700h-42z" />
    <glyph glyph-name="Icircumflex" unicode="&#xce;" horiz-adv-x="245" 
d="M164 750l-43 60l-43 -60h-37l62 90h38l62 -90h-39zM100 0v700h42v-700h-42z" />
    <glyph glyph-name="Idieresis" unicode="&#xcf;" horiz-adv-x="235" 
d="M42 750v57h43v-57h-43zM151 750v57h43v-57h-43zM97 0v700h42v-700h-42z" />
    <glyph glyph-name="Idotaccent" unicode="&#x130;" horiz-adv-x="129" 
d="M42 750v57h43v-57h-43zM42 0v700h42v-700h-42z" />
    <glyph glyph-name="Igrave" unicode="&#xcc;" horiz-adv-x="79" 
d="M0 0v700h42v-700h-42zM7 735l-34 90h45l17 -90h-28z" />
    <glyph glyph-name="Imacron" unicode="&#x12a;" horiz-adv-x="284" 
d="M42 750v33h200v-33h-200zM121 0v700h42v-700h-42z" />
    <glyph glyph-name="Iogonek" unicode="&#x12e;" horiz-adv-x="189" 
d="M148 -166h-20q-58 0 -77 43q-12 28 -1 55t30 48l16 19h-17v700h42v-700l-19 -23q-17 -23 -26.5 -47t4.5 -46q8 -12 23 -16.5t34 -4.5h10z" />
    <glyph glyph-name="J" unicode="J" horiz-adv-x="251" 
d="M214 88q0 -46 -25.5 -67t-71.5 -21h-19q-46 0 -72 21t-26 67v103h42v-88q0 -42 12 -56t44 -14h19q31 0 43 14.5t12 56.5v563h-99v33h141v-612z" />
    <glyph glyph-name="K" unicode="K" horiz-adv-x="258" 
d="M221 0h-39l-90 353h-50v-353h-42v700h42v-314h51l84 314h39l-88 -330z" />
    <glyph glyph-name="Kcommaaccent" unicode="&#x136;" horiz-adv-x="284" 
d="M263 0h-39l-90 353h-50v-353h-42v700h42v-314h51l84 314h39l-88 -330zM113 -127l17 90h45l-34 -90h-28z" />
    <glyph glyph-name="L" unicode="L" horiz-adv-x="242" 
d="M205 33v-33h-205v700h42v-667h163z" />
    <glyph glyph-name="Lacute" unicode="&#x139;" horiz-adv-x="268" 
d="M95 750l17 90h45l-34 -90h-28zM248 33v-33h-205v700h42v-667h163z" />
    <glyph glyph-name="Lcaron" unicode="&#x13d;" horiz-adv-x="269" 
d="M247 33v-33h-205v700h42v-667h163zM167 610l17 90h40l-34 -90h-23z" />
    <glyph glyph-name="Lcommaaccent" unicode="&#x13b;" horiz-adv-x="268" 
d="M247 33v-33h-205v700h42v-667h163zM108 -127l17 90h45l-34 -90h-28z" />
    <glyph glyph-name="Ldot" unicode="&#x13f;" horiz-adv-x="268" 
d="M247 33v-33h-205v700h42v-667h163zM178 286v62h45v-62h-45z" />
    <glyph glyph-name="Lslash" unicode="&#x141;" horiz-adv-x="306" 
d="M162 501v-38l-40 -23v-406h163v-33h-205v414l-38 -22v38l38 22v247h42v-223z" />
    <glyph glyph-name="M" unicode="M" horiz-adv-x="354" 
d="M275 0v609h-1l-96 -609h-41l-94 609h-1v-609h-42v700h57l61 -381l39 -242h3l39 242l61 382h57v-701h-42z" />
    <glyph glyph-name="N" unicode="N" horiz-adv-x="264" 
d="M173 0l-131 606v-606h-42v700h54l131 -606v606h42v-700h-54z" />
    <glyph glyph-name="Nacute" unicode="&#x143;" horiz-adv-x="305" 
d="M119 750l17 90h45l-34 -90h-28zM213 0l-131 606v-606h-42v700h54l131 -606v606h42v-700h-54z" />
    <glyph glyph-name="Ncaron" unicode="&#x147;" horiz-adv-x="305" 
d="M135 750l-62 90h37l43 -60l43 60h37l-62 -90h-36zM214 0l-131 606v-606h-42v700h54l131 -606v606h42v-700h-54z" />
    <glyph glyph-name="Ncommaaccent" unicode="&#x145;" horiz-adv-x="305" 
d="M212 0l-131 606v-606h-42v700h54l131 -606v606h42v-700h-54zM119 -127l17 90h45l-34 -90h-28z" />
    <glyph glyph-name="Eng" unicode="&#x14a;" horiz-adv-x="306" 
d="M267 -74q1 -46 -23 -67t-66 -21h-29v31h19q27 0 40.5 10.5t13.5 40.5v33l-141 653v-606h-42v700h54l131 -606v606h42z" />
    <glyph glyph-name="Ntilde" unicode="&#xd1;" horiz-adv-x="309" 
d="M265 786q0 -18 -7.5 -29t-19.5 -15q-13 -5 -29 -1.5t-31 14.5l-55 38q-29 21 -40 12q-7 -6 -7 -20v-35h-36v38q0 32 23 42q14 6 31.5 3.5t34.5 -14.5l55 -38q11 -8 19.5 -12t14.5 -2q12 3 12 21v35h37zM210 0l-131 606v-606h-42v700h54l131 -606v606h42v-700h-54z" />
    <glyph glyph-name="O" unicode="O" horiz-adv-x="258" 
d="M120 700q48 0 74.5 -21t26.5 -67v-524q0 -46 -26.5 -67t-74.5 -21h-20q-48 0 -74 21t-26 67v524q0 46 26 67t74 21h20zM100 667q-34 0 -46 -14t-12 -55v-494q0 -42 12 -56.5t46 -14.5h20q34 0 46.5 14.5t12.5 55.5v494q0 41 -12.5 55.5t-46.5 14.5h-20z" />
    <glyph glyph-name="Oacute" unicode="&#xd3;" horiz-adv-x="258" 
d="M120 700q48 0 74.5 -21t26.5 -67v-524q0 -46 -26.5 -67t-74.5 -21h-20q-48 0 -74 21t-26 67v524q0 46 26 67t74 21h20zM100 667q-34 0 -46 -14t-12 -55v-494q0 -42 12 -56.5t46 -14.5h20q34 0 46.5 14.5t12.5 55.5v494q0 41 -12.5 55.5t-46.5 14.5h-20zM95 735l17 90h45
l-34 -90h-28z" />
    <glyph glyph-name="Ocaron" unicode="&#x1d1;" horiz-adv-x="295" 
d="M130 750l-62 90h37l43 -60l43 60h37l-62 -90h-36zM159 706q48 0 74.5 -21t26.5 -67v-536q0 -46 -26.5 -67t-74.5 -21h-20q-48 0 -74 21t-26 67v536q0 46 26 67t74 21h20zM138 675q-34 0 -46 -14.5t-12 -56.5v-506q0 -42 12.5 -56.5t46.5 -14.5h20q34 0 46.5 14.5
t12.5 55.5v506q0 41 -12.5 55.5t-46.5 14.5z" />
    <glyph glyph-name="Ocircumflex" unicode="&#xd4;" horiz-adv-x="258" 
d="M120 700q48 0 74.5 -21t26.5 -67v-524q0 -46 -26.5 -67t-74.5 -21h-20q-48 0 -74 21t-26 67v524q0 46 26 67t74 21h20zM100 667q-34 0 -46 -14t-12 -55v-494q0 -42 12 -56.5t46 -14.5h20q34 0 46.5 14.5t12.5 55.5v494q0 41 -12.5 55.5t-46.5 14.5h-20zM154 735l-44 60
l-42 -60h-37l62 90h34l62 -90h-35z" />
    <glyph glyph-name="Odieresis" unicode="&#xd6;" horiz-adv-x="295" 
d="M71 750v57h43v-57h-43zM179 750v57h43v-57h-43zM156 706q48 0 74.5 -21t26.5 -67v-536q0 -46 -26.5 -67t-74.5 -21h-20q-48 0 -74 21t-26 67v536q0 46 26 67t74 21h20zM136 675q-34 0 -46 -14.5t-12 -56.5v-506q0 -42 12 -56.5t46 -14.5h20q34 0 46.5 14.5t12.5 55.5v506
q0 41 -12.5 55.5t-46.5 14.5z" />
    <glyph glyph-name="Ograve" unicode="&#xd2;" horiz-adv-x="258" 
d="M120 700q48 0 74.5 -21t26.5 -67v-524q0 -46 -26.5 -67t-74.5 -21h-20q-48 0 -74 21t-26 67v524q0 46 26 67t74 21h20zM100 667q-34 0 -46 -14t-12 -55v-494q0 -42 12 -56.5t46 -14.5h20q34 0 46.5 14.5t12.5 55.5v494q0 41 -12.5 55.5t-46.5 14.5h-20zM96 735l-34 90h45
l17 -90h-28z" />
    <glyph glyph-name="Ohungarumlaut" unicode="&#x150;" horiz-adv-x="302" 
d="M84 750l17 90h45l-34 -90h-28zM162 750l17 90h45l-34 -90h-28zM159 706q48 0 74.5 -21t26.5 -67v-536q0 -46 -26.5 -67t-74.5 -21h-20q-48 0 -74 21t-26 67v536q0 46 26 67t74 21h20zM139 675q-34 0 -46 -14.5t-12 -56.5v-506q0 -42 12 -56.5t46 -14.5h20q34 0 46.5 14.5
t12.5 55.5v506q0 41 -12.5 55.5t-46.5 14.5z" />
    <glyph glyph-name="Omacron" unicode="&#x14c;" horiz-adv-x="295" 
d="M47 750v33h200v-33h-200zM157 706q48 0 74.5 -21t26.5 -67v-536q0 -46 -26.5 -67t-74.5 -21h-20q-48 0 -74 21t-26 67v536q0 46 26 67t74 21h20zM136 675q-34 0 -46 -14.5t-12 -56.5v-506q0 -42 12.5 -56.5t46.5 -14.5h20q34 0 46.5 14.5t12.5 55.5v506q0 41 -12.5 55.5
t-46.5 14.5z" />
    <glyph glyph-name="Oslash" unicode="&#xd8;" horiz-adv-x="298" 
d="M251 663q9 -18 9 -45v-536q0 -46 -26.5 -67t-74.5 -21h-20q-44 0 -69 18l-3 -11h-29l10 36q-9 18 -9 45v536q0 46 26 67t74 21h20q44 0 70 -18l3 12h29zM215 638q-5 20 -17.5 28t-38.5 8h-20q-34 0 -46 -14.5t-12 -56.5v-448zM84 63q5 -20 17.5 -27.5t37.5 -7.5h20
q34 0 46.5 14.5t12.5 55.5v446z" />
    <glyph glyph-name="Otilde" unicode="&#xd5;" horiz-adv-x="258" 
d="M100 700q-48 0 -74 -21t-26 -67v-524q0 -46 26 -67t74 -21h20q48 0 74.5 21t26.5 67v524q0 46 -26.5 67t-74.5 21h-20zM120 667q34 0 46.5 -14.5t12.5 -55.5v-494q0 -41 -12.5 -55.5t-46.5 -14.5h-20q-34 0 -46 14.5t-12 56.5v494q0 41 12 55t46 14h20zM84 777
q5 0 8 -1.5t5 -3.5l27 -17q7 -4 13 -4h2q1 0 3 1q4 2 4 7v18h34v-15q1 -8 -2 -14q-2 -5 -7 -9t-14 -4h-20q-6 0 -13 4l-27 17q-2 2 -5 3.5t-8 1.5h-2q-2 0 -4 -1q-3 -2 -3 -7v-18h-34v18q-1 7 2 12q2 5 6.5 8.5t14.5 3.5h20z" />
    <glyph glyph-name="OE" unicode="&#x152;" horiz-adv-x="447" 
d="M157 704q47 0 73 -21v15h197v-33h-168v-270h154v-33h-154v-329h168v-33h-197v15q-26 -21 -73 -21h-20q-48 0 -74 21t-26 67v536q0 46 26 67t74 21zM137 673q-34 0 -46 -14.5t-12 -56.5v-506q0 -42 12 -56.5t46 -14.5h20q34 0 46.5 14.5t12.5 55.5v506q0 41 -12.5 55.5
t-46.5 14.5z" />
    <glyph glyph-name="P" unicode="P" horiz-adv-x="258" 
d="M123 700q48 0 73 -17t25 -64v-198q0 -47 -25 -65t-73 -18h-81v-338h-42v700h123zM42 369h78q34 0 46.5 14.5t12.5 55.5v160q0 41 -12.5 55.5t-46.5 14.5h-78v-300z" />
    <glyph glyph-name="Thorn" unicode="&#xde;" horiz-adv-x="278" 
d="M143 630q48 0 73 -18t25 -65v-264q0 -47 -25 -65t-73 -18h-59v-200h-42v700h42v-68zM84 232h56q34 0 46.5 14.5t12.5 55.5v225q0 41 -12.5 55.5t-46.5 14.5h-56v-365z" />
    <glyph glyph-name="Q" unicode="Q" horiz-adv-x="282" 
d="M120 700q48 0 74.5 -21t26.5 -67v-523q0 -20 -6.5 -34.5t-19.5 -22.5h50v-32h-145q-48 0 -74 21t-26 67v524q0 46 26 67t74 21h20zM99 667q-34 0 -46 -14t-12 -55v-494q0 -42 12.5 -56.5t46.5 -14.5h20q34 0 46.5 14.5t12.5 55.5v494q0 41 -12.5 55.5t-46.5 14.5h-21z
" />
    <glyph glyph-name="R" unicode="R" horiz-adv-x="258" 
d="M123 700q48 0 73 -17t25 -64v-175q0 -29 -12 -48t-38 -26q28 -7 39 -27.5t11 -48.5v-294h-42v284q0 39 -11 54t-40 16h-86v-354h-42v700h123zM42 384h86q29 2 40 17t11 54v144q0 41 -12.5 55.5t-46.5 14.5h-78v-285z" />
    <glyph glyph-name="Racute" unicode="&#x154;" horiz-adv-x="284" 
d="M111 750l17 90h45l-34 -90h-28zM165 698q48 0 73 -18t25 -65v-171q0 -29 -12 -48t-38 -26q28 -7 39 -27.5t11 -48.5v-294h-42v284q0 39 -11 54t-40 16h-86v-354h-42v700zM86 384h84q29 2 40 17t11 54v140q0 41 -12.5 55.5t-46.5 14.5h-77z" />
    <glyph glyph-name="Rcaron" unicode="&#x158;" horiz-adv-x="284" 
d="M125 750l-62 90h37l43 -60l43 60h37l-62 -90h-36zM167 698q48 0 73 -18t25 -65v-171q0 -29 -12 -48t-38 -26q28 -7 39 -27.5t11 -48.5v-294h-42v284q0 39 -11 54t-40 16h-86v-354h-42v700zM88 384h84q29 2 40 17t11 54v140q0 41 -12.5 55.5t-46.5 14.5h-77z" />
    <glyph glyph-name="Rcommaaccent" unicode="&#x156;" horiz-adv-x="284" 
d="M165 698q48 0 73 -18t25 -65v-171q0 -29 -12 -48t-38 -26q28 -7 39 -27.5t11 -48.5v-294h-42v284q0 39 -11 54t-40 16h-86v-354h-42v700zM86 384h84q29 2 40 17t11 54v140q0 41 -12.5 55.5t-46.5 14.5h-77zM113 -129l17 90h45l-34 -90h-28z" />
    <glyph glyph-name="S" unicode="S" horiz-adv-x="265" 
d="M121 700q48 0 74.5 -21t26.5 -67v-84h-42v69q0 41 -12.5 55.5t-46.5 14.5h-16q-34 0 -46 -14.5t-12 -56.5v-48q0 -53 31 -93l118 -165q32 -44 32 -97v-105q0 -46 -26 -67t-74 -21h-27q-48 0 -74.5 21t-26.5 67v84h42v-69q0 -41 12.5 -55.5t46.5 -14.5h26q34 0 46 14.5
t12 56.5v82q0 53 -31 93l-118 165q-32 44 -32 97v71q0 46 26 67t74 21h17z" />
    <glyph glyph-name="Sacute" unicode="&#x15a;" horiz-adv-x="299" 
d="M125 750l17 90h45l-34 -90h-28zM157 706q48 0 74.5 -21t26.5 -67v-84h-42v69q0 41 -12.5 55.5t-46.5 14.5h-16q-34 0 -46 -14.5t-12 -56.5v-48q0 -53 31 -93l118 -180q32 -44 32 -97v-105q0 -46 -26 -67t-74 -21h-27q-48 0 -74.5 21t-26.5 67v84h42v-69q0 -41 12.5 -55.5
t46.5 -14.5h26q34 0 46.5 14.5t12.5 56.5v82q0 53 -31 93l-118 180q-32 44 -32 97v71q0 46 26 67t74 21h16z" />
    <glyph glyph-name="Scaron" unicode="&#x160;" horiz-adv-x="299" 
d="M131 750l-62 90h37l43 -60l43 60h37l-62 -90h-36zM160 706q48 0 74.5 -21t26.5 -67v-84h-42v69q0 41 -12.5 55.5t-46.5 14.5h-16q-34 0 -46 -14.5t-12 -56.5v-48q0 -53 31 -93l118 -180q32 -44 32 -97v-105q0 -46 -26 -67t-74 -21h-27q-48 0 -74.5 21t-26.5 67v84h42v-69
q0 -41 12.5 -55.5t46.5 -14.5h26q34 0 46 14.5t12 56.5v82q0 53 -31 93l-118 180q-32 44 -32 97v71q0 46 26 67t74 21h17z" />
    <glyph glyph-name="Scedilla" unicode="&#x15e;" horiz-adv-x="299" 
d="M234 283q32 -44 32 -97v-105q0 -46 -26 -67t-74 -21h-16v-36h9q25 0 40.5 -12t16.5 -42v-12q0 -30 -16 -43t-42 -13h-57v27h53q11 0 19.5 6.5t8.5 23.5v8q-1 17 -9 23t-20 6h-31v64q-42 3 -64 24t-22 63v84h42v-69q0 -41 12.5 -55.5t46.5 -14.5h26q34 0 46 14.5t12 56.5
v82q0 53 -31 93l-118 180q-32 44 -32 97v71q0 46 26 67t74 21h17q48 0 74.5 -21t26.5 -67v-84h-42v69q0 41 -12.5 55.5t-46.5 14.5h-16q-34 0 -46 -14.5t-12 -56.5v-48q0 -53 31 -93z" />
    <glyph glyph-name="Scommaaccent" unicode="&#x218;" horiz-adv-x="299" 
d="M158 706q48 0 74.5 -21t26.5 -67v-84h-42v69q0 41 -12.5 55.5t-46.5 14.5h-16q-34 0 -46 -14.5t-12 -56.5v-48q0 -53 31 -93l118 -180q32 -44 32 -97v-105q0 -46 -26 -67t-74 -21h-27q-48 0 -74.5 21t-26.5 67v84h42v-69q0 -41 12.5 -55.5t46.5 -14.5h26q34 0 46 14.5
t12 56.5v82q0 53 -31 93l-118 180q-32 44 -32 97v71q0 46 26 67t74 21h17zM124 -126l17 90h45l-34 -90h-28z" />
    <glyph glyph-name="T" unicode="T" horiz-adv-x="249" 
d="M127 667v-667h-42v667h-85v33h212v-33h-85z" />
    <glyph glyph-name="Tbar" unicode="&#x166;" horiz-adv-x="254" 
d="M148 453h79v-33h-79v-420h-42v420h-79v33h79v214h-85v33h212v-33h-85v-214z" />
    <glyph glyph-name="Tcaron" unicode="&#x164;" horiz-adv-x="254" 
d="M108 750l-62 90h37l43 -60l43 60h37l-62 -90h-36zM149 667v-667h-42v667h-85v33h212v-33h-85z" />
    <glyph glyph-name="Tcedilla" unicode="&#x162;" horiz-adv-x="254" 
d="M134 1v-42h9q25 0 40.5 -12t16.5 -42v-12q0 -30 -16 -43t-42 -13h-57v27h53q11 0 19.5 6.5t8.5 23.5v8q-1 17 -9 23t-20 6h-31v69v667h-85v33h212v-33h-85v-667z" />
    <glyph glyph-name="uni021A" unicode="&#x21a;" horiz-adv-x="254" 
d="M148 667v-667h-42v667h-85v33h212v-33h-85zM95 -126l17 90h45l-34 -90h-28z" />
    <glyph glyph-name="U" unicode="U" horiz-adv-x="258" 
d="M221 88q0 -46 -26.5 -67t-74.5 -21h-20q-48 0 -74 21t-26 67v612h42v-597q0 -42 12 -56.5t46 -14.5h20q34 0 46.5 14.5t12.5 55.5v598h42v-612z" />
    <glyph glyph-name="Uacute" unicode="&#xda;" horiz-adv-x="258" 
d="M221 88q0 -46 -26.5 -67t-74.5 -21h-20q-48 0 -74 21t-26 67v612h42v-597q0 -42 12 -56.5t46 -14.5h20q34 0 46.5 14.5t12.5 55.5v598h42v-612zM95 735l17 90h45l-34 -90h-28z" />
    <glyph glyph-name="Ucaron" unicode="&#x1d3;" horiz-adv-x="302" 
d="M135 750l-62 90h37l43 -60l43 60h37l-62 -90h-36zM264 83q0 -46 -26.5 -67t-74.5 -21h-20q-48 0 -74 21t-26 67v618h42v-603q0 -42 12.5 -56.5t46.5 -14.5h20q34 0 46.5 14.5t12.5 55.5v603h42z" />
    <glyph glyph-name="Ucircumflex" unicode="&#xdb;" horiz-adv-x="302" 
d="M194 750l-43 60l-43 -60h-37l62 90h38l62 -90h-39zM260 83q0 -46 -26.5 -67t-74.5 -21h-20q-48 0 -74 21t-26 67v618h42v-603q0 -42 12.5 -56.5t46.5 -14.5h20q34 0 46.5 14.5t12.5 55.5v603h42z" />
    <glyph glyph-name="Udieresis" unicode="&#xdc;" horiz-adv-x="302" 
d="M77 750v57h43v-57h-43zM185 750v57h43v-57h-43zM263 83q0 -46 -26.5 -67t-74.5 -21h-20q-48 0 -74 21t-26 67v618h42v-603q0 -42 12 -56.5t46 -14.5h20q34 0 46.5 14.5t12.5 55.5v603h42v-617z" />
    <glyph glyph-name="Udieresisacute" unicode="&#x1d7;" horiz-adv-x="302" 
d="M129 830l17 90h45l-34 -90h-28zM78 750v57h43v-57h-43zM187 750v57h43v-57h-43zM264 83q0 -46 -26.5 -67t-74.5 -21h-20q-48 0 -74 21t-26 67v618h42v-603q0 -42 12 -56.5t46 -14.5h20q34 0 46.5 14.5t12.5 55.5v603h42v-617z" />
    <glyph glyph-name="Udieresiscaron" unicode="&#x1d9;" horiz-adv-x="302" 
d="M136 830l-62 90h37l43 -60l43 60h37l-62 -90h-36zM79 750v57h43v-57h-43zM188 750v57h43v-57h-43zM265 83q0 -46 -26.5 -67t-74.5 -21h-20q-48 0 -74 21t-26 67v618h42v-603q0 -42 12 -56.5t46 -14.5h20q34 0 46.5 14.5t12.5 55.5v603h42v-617z" />
    <glyph glyph-name="Udieresisgrave" unicode="&#x1db;" horiz-adv-x="302" 
d="M149 830l-34 90h45l17 -90h-28zM77 750v57h43v-57h-43zM186 750v57h43v-57h-43zM263 83q0 -46 -26.5 -67t-74.5 -21h-20q-48 0 -74 21t-26 67v618h42v-603q0 -42 12 -56.5t46 -14.5h20q34 0 46.5 14.5t12.5 55.5v603h42v-617z" />
    <glyph glyph-name="Udieresismacron" unicode="&#x1d5;" horiz-adv-x="302" 
d="M53 830v33h200v-33h-200zM77 750v57h43v-57h-43zM186 750v57h43v-57h-43zM263 83q0 -46 -26.5 -67t-74.5 -21h-20q-48 0 -74 21t-26 67v618h42v-603q0 -42 12 -56.5t46 -14.5h20q34 0 46.5 14.5t12.5 55.5v603h42v-617z" />
    <glyph glyph-name="Ugrave" unicode="&#xd9;" horiz-adv-x="258" 
d="M221 88q0 -46 -26.5 -67t-74.5 -21h-20q-48 0 -74 21t-26 67v612h42v-597q0 -42 12 -56.5t46 -14.5h20q34 0 46.5 14.5t12.5 55.5v598h42v-612zM96 735l-34 90h45l17 -90h-28z" />
    <glyph glyph-name="Uhungarumlaut" unicode="&#x170;" horiz-adv-x="307" 
d="M88 750l17 90h45l-34 -90h-28zM166 750l17 90h45l-34 -90h-28zM264 83q0 -46 -26.5 -67t-74.5 -21h-20q-48 0 -74 21t-26 67v618h42v-603q0 -42 12.5 -56.5t46.5 -14.5h20q34 0 46.5 14.5t12.5 55.5v603h42z" />
    <glyph glyph-name="Umacron" unicode="&#x16a;" horiz-adv-x="302" 
d="M52 750v33h200v-33h-200zM263 83q0 -46 -26.5 -67t-74.5 -21h-20q-48 0 -74 21t-26 67v618h42v-603q0 -42 12 -56.5t46 -14.5h20q34 0 46.5 14.5t12.5 55.5v603h42v-617z" />
    <glyph glyph-name="Uogonek" unicode="&#x172;" horiz-adv-x="302" 
d="M264 82q0 -65 -55 -82l-19 -23q-17 -23 -26.5 -47t4.5 -46q8 -12 23 -16.5t34 -4.5h10v-27h-20q-58 0 -77 43q-12 28 -1 55t30 48l11 14l-16 -1h-20q-48 0 -74 21t-26 67v618h42v-603q0 -42 12 -56.5t46 -14.5h20q34 0 46.5 14.5t12.5 55.5v603h42z" />
    <glyph glyph-name="Uring" unicode="&#x16e;" horiz-adv-x="302" 
d="M169 866q53 0 53 -39v-37q0 -39 -53 -39h-34q-52 0 -52 39v37q0 39 52 39h34zM142 838q-16 0 -19.5 -6t-3.5 -21v-9q0 -15 3.5 -21t19.5 -6h20q16 0 19.5 6t3.5 22v9q0 16 -3.5 22t-19.5 6zM262 81q0 -46 -26.5 -67t-74.5 -21h-20q-48 0 -74 21t-26 67v618h42v-603
q0 -42 12.5 -56.5t46.5 -14.5h20q34 0 46.5 14.5t12.5 55.5v603h42z" />
    <glyph glyph-name="V" unicode="V" horiz-adv-x="272" 
d="M85 0l-85 700h41l63 -560l12 -111h3l12 111l63 560h41l-85 -700h-65z" />
    <glyph glyph-name="W" unicode="W" horiz-adv-x="451" 
d="M272 0l-34 317l-29 247h-3l-29 -248l-34 -316h-62l-81 700h41l60 -560l11 -110h3l73 670h38l73 -670h3l11 111l60 559h41l-81 -700h-61z" />
    <glyph glyph-name="Wacute" unicode="&#x1e82;" horiz-adv-x="457" 
d="M203 750l17 90h45l-34 -90h-28zM294 -1l-34 317l-29 247h-3l-29 -248l-34 -316h-62l-81 700h41l60 -560l11 -110h3l73 671h38l73 -671h3l11 111l60 560h41l-81 -700z" />
    <glyph glyph-name="Wcircumflex" unicode="&#x174;" horiz-adv-x="457" 
d="M268 750l-43 60l-43 -60h-37l62 90h38l62 -90h-39zM292 -1l-34 317l-29 247h-3l-29 -248l-34 -316h-62l-81 700h41l60 -560l11 -110h3l73 671h38l73 -671h3l11 111l60 560h41l-81 -700z" />
    <glyph glyph-name="Wdieresis" unicode="&#x1e84;" horiz-adv-x="457" 
d="M150 750v57h43v-57h-43zM258 750v57h43v-57h-43zM293 -1l-34 317l-29 247h-3l-29 -248l-34 -316h-62l-81 700h41l60 -560l11 -110h3l73 671h38l73 -671h3l11 111l60 560h41l-81 -700z" />
    <glyph glyph-name="Wgrave" unicode="&#x1e80;" horiz-adv-x="457" 
d="M220 750l-34 90h45l17 -90h-28zM294 -1l-34 317l-29 247h-3l-29 -248l-34 -316h-62l-81 700h41l60 -560l11 -110h3l73 671h38l73 -671h3l11 111l60 560h41l-81 -700z" />
    <glyph glyph-name="X" unicode="X" horiz-adv-x="263" 
d="M226 0h-41l-72 339l-72 -339h-41l79 355l-74 345h41l66 -331l67 331h41l-74 -346z" />
    <glyph glyph-name="Y" unicode="Y" horiz-adv-x="263" 
d="M134 0h-41v252l-93 448h41l72 -382l72 382h41l-92 -448v-252z" />
    <glyph glyph-name="Yacute" unicode="&#xdd;" horiz-adv-x="263" 
d="M98 735l17 90h45l-34 -90h-28zM132 0h-39v252l-93 448h41l72 -382l72 382h41l-94 -448v-252z" />
    <glyph glyph-name="Ycircumflex" unicode="&#x176;" horiz-adv-x="269" 
d="M177 750l-43 60l-43 -60h-37l62 90h38l62 -90h-39zM157 0h-43v250l-93 450h41l72 -382l72 382h41l-92 -448z" />
    <glyph glyph-name="Ydieresis" unicode="&#x178;" horiz-adv-x="269" 
d="M60 750v57h43v-57h-43zM168 750v57h43v-57h-43zM158 0h-43v250l-93 450h41l72 -382l72 382h41l-92 -448z" />
    <glyph glyph-name="Z" unicode="Z" horiz-adv-x="262" 
d="M42 33h183v-33h-225v33l178 633h-172v33h214v-33z" />
    <glyph glyph-name="Zacute" unicode="&#x179;" horiz-adv-x="267" 
d="M105 750l17 90h45l-34 -90h-28zM64 34h183v-33h-225v33l178 633h-172v33h214v-33z" />
    <glyph glyph-name="Zcaron" unicode="&#x17d;" horiz-adv-x="267" 
d="M117 750l-62 90h37l43 -60l43 60h37l-62 -90h-36zM65 34h183v-33h-225v33l178 633h-172v33h214v-33z" />
    <glyph glyph-name="Zdotaccent" unicode="&#x17b;" horiz-adv-x="267" 
d="M111 750v57h43v-57h-43zM63 34h183v-33h-225v33l178 633h-172v33h214v-33z" />
    <glyph glyph-name="a" unicode="a" 
d="M113 500q46 0 71.5 -21t25.5 -67v-406h-28l-8 29q-19 -35 -70 -35h-15q-42 0 -65.5 21t-23.5 67v142q0 46 23.5 67t65.5 21h15q45 0 64 -26v107q0 42 -11.5 56.5t-42.5 14.5h-17q-32 0 -44 -14t-12 -56v-35h-41v49q0 46 26 66t72 20h15zM97 286q-32 0 -44 -14t-12 -55
v-114q0 -42 12 -56t44 -14h17q29 0 41 13t13 49v129q-1 36 -13 49t-41 13h-17z" />
    <glyph glyph-name="aacute" unicode="&#xe1;" 
d="M90 535l17 90h45l-34 -90h-28zM113 500q46 0 71.5 -21t25.5 -67v-406h-28l-8 29q-19 -35 -70 -35h-15q-42 0 -65.5 21t-23.5 67v142q0 46 23.5 67t65.5 21h15q45 0 64 -26v107q0 42 -11.5 56.5t-42.5 14.5h-17q-32 0 -44 -14t-12 -56v-35h-41v49q0 46 26 66t72 20h15z
M97 286q-32 0 -44 -14t-12 -55v-114q0 -42 12 -56t44 -14h17q29 0 41 13t13 49v129q-1 36 -13 49t-41 13h-17z" />
    <glyph glyph-name="abreve" unicode="&#x103;" 
d="M183 583q0 -22 -17.5 -35t-53.5 -13h-16q-35 0 -52.5 13t-17.5 35v43h36v-20q0 -24 6 -34.5t30 -10.5h13q24 0 30 10.5t6 35.5v19h36v-43zM113 500q46 0 71.5 -21t25.5 -67v-406h-28l-8 29q-19 -35 -70 -35h-15q-42 0 -65.5 21t-23.5 67v142q0 46 23.5 67t65.5 21h15
q45 0 64 -26v107q0 42 -11.5 56.5t-42.5 14.5h-17q-32 0 -44 -14t-12 -56v-35h-41v49q0 46 26 66t72 20h15zM97 287q-32 0 -44 -14t-12 -56v-114q0 -42 12 -56t44 -14h17q29 0 41 13t13 49v129q-1 36 -13 49t-41 13z" />
    <glyph glyph-name="acaron" unicode="&#x1ce;" horiz-adv-x="267" 
d="M115 544l-62 90h37l43 -60l43 60h37l-62 -90h-36zM141 503q46 0 71.5 -21t25.5 -67v-417h-28l-8 29q-19 -35 -70 -35h-15q-42 0 -65.5 21t-23.5 67v142q0 46 23.5 67t65.5 21h15q45 0 64 -26v118q0 42 -11.5 56.5t-42.5 14.5h-17q-32 0 -44 -14t-12 -56v-35h-41v49
q0 46 26 67t72 21zM125 279q-32 0 -44 -14t-12 -56v-114q0 -42 12 -56t44 -14h17q29 0 41 13t13 49v129q-1 36 -13 49t-41 13z" />
    <glyph glyph-name="acircumflex" unicode="&#xe2;" 
d="M149 535l-44 60l-42 -60h-37l62 90h34l62 -90h-35zM113 500q46 0 71.5 -21t25.5 -67v-406h-28l-8 29q-19 -35 -70 -35h-15q-42 0 -65.5 21t-23.5 67v142q0 46 23.5 67t65.5 21h15q45 0 64 -26v107q0 42 -11.5 56.5t-42.5 14.5h-17q-32 0 -44 -14t-12 -56v-35h-41v49
q0 46 26 66t72 20h15zM97 287q-32 0 -44 -14t-12 -56v-114q0 -42 12 -56t44 -14h17q29 0 41 13t13 49v129q-1 36 -13 49.5t-41 13.5h-17z" />
    <glyph glyph-name="adieresis" unicode="&#xe4;" horiz-adv-x="267" 
d="M55 544v57h43v-57h-43zM164 544v57h43v-57h-43zM139 503q46 0 71.5 -21t25.5 -67v-417h-28l-8 29q-19 -35 -70 -35h-15q-42 0 -65.5 21t-23.5 67v142q0 46 23.5 67t65.5 21h15q45 0 64 -26v118q0 42 -11.5 56.5t-42.5 14.5h-17q-32 0 -44 -14t-12 -56v-35h-41v49
q0 46 26 67t72 21zM123 279q-32 0 -44 -14t-12 -56v-114q0 -42 12 -56t44 -14h17q29 0 41 13t13 49v129q-1 36 -13 49t-41 13z" />
    <glyph glyph-name="agrave" unicode="&#xe0;" 
d="M91 535l-34 90h45l17 -90h-28zM113 500q46 0 71.5 -21t25.5 -67v-406h-28l-8 29q-19 -35 -70 -35h-15q-42 0 -65.5 21t-23.5 67v142q0 46 23.5 67t65.5 21h15q45 0 64 -26v107q0 42 -11.5 56.5t-42.5 14.5h-17q-32 0 -44 -14t-12 -56v-35h-41v49q0 46 26 66t72 20h15z
M97 286q-32 0 -44 -14t-12 -55v-114q0 -42 12 -56t44 -14h17q29 0 41 13t13 49v129q-1 36 -13 49t-41 13h-17z" />
    <glyph glyph-name="amacron" unicode="&#x101;" horiz-adv-x="267" 
d="M31 544v33h200v-33h-200zM139 503q46 0 71.5 -21t25.5 -67v-417h-28l-8 29q-19 -35 -70 -35h-15q-42 0 -65.5 21t-23.5 67v142q0 46 23.5 67t65.5 21h15q45 0 64 -26v118q0 42 -11.5 56.5t-42.5 14.5h-17q-32 0 -44 -14t-12 -56v-35h-41v49q0 46 26 67t72 21zM123 279
q-32 0 -44 -14t-12 -56v-114q0 -42 12 -56t44 -14h17q29 0 41 13t13 49v129q-1 36 -13 49t-41 13z" />
    <glyph glyph-name="aogonek" unicode="&#x105;" horiz-adv-x="290" 
d="M139 503q46 0 71.5 -21t25.5 -67v-417h-28l-8 29q-19 -35 -70 -35h-15q-42 0 -65.5 21t-23.5 67v142q0 46 23.5 67t65.5 21h15q45 0 64 -26v118q0 42 -11.5 56.5t-42.5 14.5h-17q-32 0 -44 -14t-12 -56v-35h-41v49q0 46 26 67t72 21zM123 279q-32 0 -44 -14t-12 -56v-114
q0 -42 12 -56t44 -14h17q29 0 41 13t13 49v129q-1 36 -13 49t-41 13zM214 -25q-17 -23 -26.5 -47t4.5 -46q8 -12 23 -16.5t34 -4.5h10v-27h-20q-58 0 -77 43q-12 28 -1 55t30 48l16 19h26z" />
    <glyph glyph-name="aring" unicode="&#xe5;" horiz-adv-x="267" 
d="M149 660q53 0 53 -39v-37q0 -39 -53 -39h-34q-52 0 -52 39v37q0 39 52 39h34zM122 632q-16 0 -19.5 -6t-3.5 -21v-9q0 -15 3.5 -21t19.5 -6h20q16 0 19.5 6t3.5 22v9q0 16 -3.5 22t-19.5 6zM139 501q46 0 71.5 -21t25.5 -67v-417h-28l-8 29q-19 -35 -70 -35h-15
q-42 0 -65.5 21t-23.5 67v142q0 46 23.5 67t65.5 21h15q45 0 64 -26v118q0 42 -11.5 56.5t-42.5 14.5h-17q-32 0 -44 -14t-12 -56v-35h-41v49q0 46 26 67t72 21zM123 277q-32 0 -44 -14t-12 -56v-114q0 -42 12 -56t44 -14h17q29 0 41 13t13 49v129q-1 36 -13 49t-41 13z" />
    <glyph glyph-name="ae" unicode="&#xe6;" horiz-adv-x="431" 
d="M308 506q46 0 72 -21t26 -67v-213h-169v-109q0 -42 11.5 -56.5t42.5 -14.5h17q32 0 44 14t12 56v42h41v-56q0 -46 -26 -67t-72 -21h-15q-32 0 -54 10t-33 32q-13 -25 -30.5 -34t-43.5 -9h-15q-42 0 -65.5 21t-23.5 67v142q0 46 23.5 67t65.5 21h15q45 0 64 -26v118
q0 42 -11.5 56.5t-42.5 14.5h-17q-32 0 -44 -14t-12 -56v-35h-41v49q0 46 26 67t72 21h12q27 0 49 -10t30 -31q8 21 30 31t49 10zM291 476q-31 0 -42.5 -14.5t-11.5 -56.5v-167h128v167q0 42 -12 56t-44 14zM123 283q-32 0 -44 -14t-12 -56v-114q0 -42 12 -56t44 -14h17
q29 0 41 13t13 49v129q-1 36 -13 49t-41 13z" />
    <glyph glyph-name="b" unicode="b" 
d="M43 474q19 26 63 26h15q42 0 65.5 -21t23.5 -67v-324q0 -46 -23.5 -67t-65.5 -21h-15q-51 0 -70 35l-8 -29h-28v694h43v-226zM43 95q1 -36 13 -49t41 -13h17q32 0 44 14t12 56v296q0 42 -12 56t-44 14h-17q-29 0 -41 -13t-13 -49v-312z" />
    <glyph glyph-name="c" unicode="c" 
d="M111 500q46 0 72.5 -21t26.5 -67v-56h-41v42q0 42 -12.5 56t-44.5 14h-17q-31 0 -42.5 -14.5t-11.5 -56.5v-294q0 -42 12 -56.5t43 -14.5h17q32 0 44 14t12 56v42h41v-56q0 -46 -26 -67t-72 -21h-15q-46 0 -71.5 21t-25.5 67v322q0 46 25.5 68t71.5 22h14z" />
    <glyph glyph-name="cacute" unicode="&#x107;" horiz-adv-x="266" 
d="M107 544l17 90h45l-34 -90h-28zM143 507q46 0 72 -21t26 -67v-56h-41v42q0 42 -12 56t-44 14h-17q-31 0 -42.5 -14.5t-11.5 -56.5v-307q0 -42 11.5 -56.5t42.5 -14.5h17q32 0 44 14t12 56v42h41v-56q0 -46 -26 -67t-72 -21h-15q-46 0 -71.5 21t-25.5 67v335q0 46 25.5 67
t71.5 21z" />
    <glyph glyph-name="ccaron" unicode="&#x10d;" horiz-adv-x="266" 
d="M117 544l-62 90h37l43 -60l43 60h37l-62 -90h-36zM143 507q46 0 72 -21t26 -67v-56h-41v42q0 42 -12 56t-44 14h-17q-31 0 -42.5 -14.5t-11.5 -56.5v-307q0 -42 12 -56.5t43 -14.5h17q32 0 44 14t12 56v42h41v-56q0 -46 -26 -67t-72 -21h-15q-46 0 -71.5 21t-25.5 67v335
q0 46 25.5 67t71.5 21z" />
    <glyph glyph-name="ccedilla" unicode="&#xe7;" horiz-adv-x="266" 
d="M199 405q0 42 -12 56t-44 14h-17q-31 0 -42.5 -14.5t-11.5 -56.5v-307q0 -42 12 -56.5t43 -14.5h17q32 0 44 14t12 56v42h41v-56q0 -46 -26 -67t-72 -21h-15h-2v-36h9q25 0 40.5 -12t16.5 -42v-12q0 -30 -16 -43t-42 -13h-57v27h53q11 0 19.5 6.5t8.5 23.5v8q-1 17 -9 23
t-20 6h-31v66q-33 6 -51 27t-18 59v335q0 46 25.5 67t71.5 21h15q46 0 72 -21t26 -67v-56h-41z" />
    <glyph glyph-name="cdotaccent" unicode="&#x10b;" horiz-adv-x="266" 
d="M113 544v57h43v-57h-43zM140 507q46 0 72 -21t26 -67v-56h-41v42q0 42 -12 56t-44 14h-17q-31 0 -42.5 -14.5t-11.5 -56.5v-307q0 -42 12 -56.5t43 -14.5h17q32 0 44 14t12 56v42h41v-56q0 -46 -26 -67t-72 -21h-15q-46 0 -71.5 21t-25.5 67v335q0 46 25.5 67t71.5 21z
" />
    <glyph glyph-name="d" unicode="d" horiz-adv-x="246" 
d="M182 6l-8 29q-19 -35 -70 -35h-15q-42 0 -65.5 21t-23.5 67v324q0 46 23.5 67t65.5 21h15q45 0 64 -26v226h41v-694h-27zM97 469q-32 0 -44 -14t-12 -56v-296q0 -42 12 -56t44 -14h17q29 0 41 13t13 49v312q-1 36 -13 49t-41 13h-17z" />
    <glyph glyph-name="eth" unicode="&#xf0;" horiz-adv-x="296" 
d="M150 700q41 0 64 -19l34 20l14 -24l-32 -19q11 -20 10 -46v-530q0 -46 -25.5 -67t-71.5 -21h-15q-46 0 -72 21t-26 67v335q0 46 23.5 67t65.5 21h15q45 0 64 -26v119q0 42 -11.5 56.5t-42.5 14.5h-83v31h89zM126 472q-32 0 -44 -14t-12 -56v-307q0 -42 12 -56t44 -14h17
q31 0 42.5 14.5t11.5 56.5v307q0 42 -11.5 56.5t-42.5 14.5z" />
    <glyph glyph-name="dcaron" unicode="&#x10f;" horiz-adv-x="355" 
d="M212 0l-8 29q-19 -35 -70 -35h-15q-42 0 -65.5 21t-23.5 67v335q0 46 23.5 67t65.5 21h15q45 0 64 -26v221h41v-700h-27zM259 577l17 123h45l-34 -123h-28zM127 474q-32 0 -44 -14t-12 -56v-307q0 -42 12 -56t44 -14h17q29 0 41 13t13 49v323q-1 36 -13 49t-41 13h-17z
" />
    <glyph glyph-name="dcroat" unicode="&#x111;" horiz-adv-x="270" 
d="M250 643v-33h-40v-610h-28l-8 29q-19 -35 -70 -35h-15q-42 0 -65.5 21t-23.5 67v330q0 46 23.5 67t65.5 21h15q45 0 64 -26v136h-40v33h40v57h42v-57h40zM97 468q-32 0 -44 -14t-12 -56v-302q0 -42 12 -56t44 -14h17q29 0 41 13t13 49v318q-1 36 -13 49t-41 13h-17z" />
    <glyph glyph-name="e" unicode="e" 
d="M112 500q46 0 72 -21t26 -67v-200h-169v-109q0 -42 12 -56.5t43 -14.5h17q32 0 44 14t12 56v42h41v-56q0 -46 -26 -67t-72 -21h-15q-46 0 -71.5 21t-25.5 67v322q0 46 25.5 68t71.5 22h15zM95 469q-31 0 -42.5 -14t-11.5 -56v-154h128v154q0 42 -12 56t-44 14h-18z" />
    <glyph glyph-name="eacute" unicode="&#xe9;" 
d="M112 500q46 0 72 -21t26 -67v-200h-169v-109q0 -42 12 -56.5t43 -14.5h17q32 0 44 14t12 56v42h41v-56q0 -46 -26 -67t-72 -21h-15q-46 0 -71.5 21t-25.5 67v322q0 46 25.5 68t71.5 22h15zM95 469q-31 0 -42.5 -14t-11.5 -56v-154h128v154q0 42 -12 56t-44 14h-18z
M90 535l17 90h45l-34 -90h-28z" />
    <glyph glyph-name="ecaron" unicode="&#x11b;" horiz-adv-x="266" 
d="M118 544l-62 90h37l43 -60l43 60h37l-62 -90h-36zM144 507q46 0 72 -21t26 -67v-213h-169v-109q0 -42 12 -56.5t43 -14.5h17q32 0 44 14t12 56v42h41v-56q0 -46 -26 -67t-72 -21h-15q-46 0 -71.5 21t-25.5 67v335q0 46 25.5 67t71.5 21zM127 477q-31 0 -42.5 -14.5
t-11.5 -56.5v-167h128v167q0 42 -12 56t-44 14z" />
    <glyph glyph-name="ecircumflex" unicode="&#xea;" 
d="M112 500q46 0 72 -21t26 -67v-200h-169v-109q0 -42 12 -56.5t43 -14.5h17q32 0 44 14t12 56v42h41v-56q0 -46 -26 -67t-72 -21h-15q-46 0 -71.5 21t-25.5 67v322q0 46 25.5 68t71.5 22h15zM95 469q-31 0 -42.5 -14t-11.5 -56v-154h128v154q0 42 -12 56t-44 14h-18z
M149 535l-44 60l-42 -60h-37l62 90h34l62 -90h-35z" />
    <glyph glyph-name="edieresis" unicode="&#xeb;" horiz-adv-x="266" 
d="M56 544v57h43v-57h-43zM164 544v57h43v-57h-43zM140 507q46 0 72 -21t26 -67v-213h-169v-109q0 -42 12 -56.5t43 -14.5h17q32 0 44 14t12 56v42h41v-56q0 -46 -26 -67t-72 -21h-15q-46 0 -71.5 21t-25.5 67v335q0 46 25.5 67t71.5 21zM123 477q-31 0 -42.5 -14.5
t-11.5 -56.5v-167h128v167q0 42 -12 56t-44 14z" />
    <glyph glyph-name="edotaccent" unicode="&#x117;" horiz-adv-x="266" 
d="M112 544v57h43v-57h-43zM142 507q46 0 72 -21t26 -67v-213h-169v-109q0 -42 12 -56.5t43 -14.5h17q32 0 44 14t12 56v42h41v-56q0 -46 -26 -67t-72 -21h-15q-46 0 -71.5 21t-25.5 67v335q0 46 25.5 67t71.5 21zM125 477q-31 0 -42.5 -14.5t-11.5 -56.5v-167h128v167
q0 42 -12 56t-44 14z" />
    <glyph glyph-name="egrave" unicode="&#xe8;" 
d="M112 500q46 0 72 -21t26 -67v-200h-169v-109q0 -42 12 -56.5t43 -14.5h17q32 0 44 14t12 56v42h41v-56q0 -46 -26 -67t-72 -21h-15q-46 0 -71.5 21t-25.5 67v322q0 46 25.5 68t71.5 22h15zM95 469q-31 0 -42.5 -14t-11.5 -56v-154h128v154q0 42 -12 56t-44 14h-18z
M91 535l-34 90h45l17 -90h-28z" />
    <glyph glyph-name="emacron" unicode="&#x113;" horiz-adv-x="266" 
d="M34 544v33h200v-33h-200zM143 507q46 0 72 -21t26 -67v-213h-169v-109q0 -42 11.5 -56.5t42.5 -14.5h17q32 0 44 14t12 56v42h41v-56q0 -46 -26 -67t-72 -21h-15q-46 0 -71.5 21t-25.5 67v335q0 46 25.5 67t71.5 21zM126 477q-31 0 -42.5 -14.5t-11.5 -56.5v-167h128v167
q0 42 -12 56t-44 14z" />
    <glyph glyph-name="eogonek" unicode="&#x119;" horiz-adv-x="266" 
d="M241 83q0 -65 -55 -82l-19 -23q-17 -23 -26.5 -47t4.5 -46q8 -12 23 -16.5t34 -4.5h10v-27h-20q-58 0 -77 43q-12 28 -1 55t30 48l11 13h-13h-15q-46 0 -71.5 21t-25.5 67v335q0 46 25.5 67t71.5 21h15q46 0 72 -21t26 -67v-213h-169v-109q0 -42 11.5 -56.5t42.5 -14.5
h17q32 0 44 14t12 56v42h41zM199 238v167q0 42 -12 56t-44 14h-17q-31 0 -42.5 -14.5t-11.5 -56.5v-167z" />
    <glyph glyph-name="f" unicode="f" horiz-adv-x="190" 
d="M131 669q-31 0 -42.5 -14.5t-11.5 -56.5v-98h63v-32h-63v-468h-41v468h-36v32h36v112q0 46 23.5 67t65.5 21h28v-31h-22z" />
    <glyph glyph-name="g" unicode="g" horiz-adv-x="260" 
d="M111 500q21 0 41 -5h71v-33h-29q15 -18 15 -49v-169q0 -46 -26 -67t-72 -21h-15q-9 0 -18 1t-16 3v-18q0 -29 8.5 -40t27.5 -11h41q32 0 51 -18t19 -56v-118q0 -39 -19 -57t-51 -18h-69q-32 0 -51 18t-19 57v121h41v-111q0 -30 8.5 -41t27.5 -11h55q19 0 27.5 11t8.5 41
v98q0 29 -8.5 40t-27.5 11h-32q-32 0 -51 18t-19 56v41q-30 22 -30 70v169q0 46 25.5 67t71.5 21h14zM95 469q-31 0 -42.5 -14t-11.5 -55v-141q0 -42 11.5 -56.5t42.5 -14.5h17q32 0 44 14t12 56v141q0 42 -12 56t-44 14h-17z" />
    <glyph glyph-name="gbreve" unicode="&#x11f;" horiz-adv-x="281" 
d="M215 591q0 -22 -18 -35t-54 -13h-16q-35 0 -52.5 13t-17.5 35v42h36v-19q0 -24 6 -34.5t30 -10.5h13q24 0 30 10.5t6 35.5v19h36zM142 504q21 0 41 -5h71v-33h-29q15 -18 15 -49v-162q0 -46 -26 -67t-72 -21h-15q-9 0 -18 1t-16 3v-18q0 -29 8.5 -40t27.5 -11h41
q32 0 51 -18t19 -56v-118q0 -39 -19 -57t-51 -18h-69q-32 0 -51 18t-19 57v121h41v-111q0 -30 8.5 -41t27.5 -11h55q19 0 27.5 11t8.5 41v98q0 29 -8.5 40t-27.5 11h-32q-32 0 -51 18t-19 56v41q-30 22 -30 70v162q0 46 25.5 67t71.5 21h14zM126 475q-31 0 -42.5 -14.5
t-11.5 -56.5v-134q0 -42 11.5 -56.5t42.5 -14.5h17q32 0 44 14t12 56v134q0 42 -12 56t-44 14z" />
    <glyph glyph-name="gcommaaccent" unicode="&#x123;" horiz-adv-x="281" 
d="M141 505q21 0 41 -5h71v-33h-29q15 -18 15 -49v-162q0 -46 -26 -67t-72 -21h-15q-9 0 -18 1t-16 3v-18q0 -29 8.5 -40t27.5 -11h41q32 0 51 -18t19 -56v-118q0 -39 -19 -57t-51 -18h-69q-32 0 -51 18t-19 57v121h41v-111q0 -30 8.5 -41t27.5 -11h55q19 0 27.5 11t8.5 41
v98q0 29 -8.5 40t-27.5 11h-32q-32 0 -51 18t-19 56v41q-30 22 -30 70v162q0 46 25.5 67t71.5 21h14zM125 476q-31 0 -42.5 -14.5t-11.5 -56.5v-134q0 -42 11.5 -56.5t42.5 -14.5h17q32 0 44 14t12 56v134q0 42 -12 56t-44 14zM101 -267l17 90h45l-34 -90h-28z" />
    <glyph glyph-name="gdotaccent" unicode="&#x121;" horiz-adv-x="281" 
d="M113 544v57h43v-57h-43zM141 505q21 0 41 -5h71v-33h-29q15 -18 15 -49v-162q0 -46 -26 -67t-72 -21h-15q-9 0 -18 1t-16 3v-18q0 -29 8.5 -40t27.5 -11h41q32 0 51 -18t19 -56v-118q0 -39 -19 -57t-51 -18h-69q-32 0 -51 18t-19 57v121h41v-111q0 -30 8.5 -41t27.5 -11
h55q19 0 27.5 11t8.5 41v98q0 29 -8.5 40t-27.5 11h-32q-32 0 -51 18t-19 56v41q-30 22 -30 70v162q0 46 25.5 67t71.5 21h14zM125 476q-31 0 -42.5 -14.5t-11.5 -56.5v-134q0 -42 11.5 -56.5t42.5 -14.5h17q32 0 44 14t12 56v134q0 42 -12 56t-44 14z" />
    <glyph glyph-name="h" unicode="h" horiz-adv-x="246" 
d="M41 474q19 26 64 26h15q42 0 65.5 -21t23.5 -67v-412h-41v398q0 42 -12 56t-44 14h-17q-29 0 -41 -13t-13 -49v-406h-41v700h41v-226z" />
    <glyph glyph-name="hbar" unicode="&#x127;" horiz-adv-x="319" 
d="M159 636v-30h-40v-127q19 26 64 26h15q42 0 65.5 -21t23.5 -67v-417h-41v403q0 42 -12 56t-44 14h-17q-29 0 -41 -13t-13 -49v-411h-41v606h-40v30h40v64h41v-64h40z" />
    <glyph glyph-name="i" unicode="i" horiz-adv-x="82" 
d="M0 535v62h45v-62h-45zM2 0v500h41v-500h-41z" />
    <glyph glyph-name="dotlessi" unicode="&#x131;" horiz-adv-x="113" 
d="M38 0v500h41v-500h-41z" />
    <glyph glyph-name="iacute" unicode="&#xed;" horiz-adv-x="105" 
d="M6 535l17 90h45l-34 -90h-28zM0 0v500h41v-500h-41z" />
    <glyph glyph-name="icaron" unicode="&#x1d0;" horiz-adv-x="233" 
d="M101 544l-62 90h37l43 -60l43 60h37l-62 -90h-36zM99 0v500h41v-500h-41z" />
    <glyph glyph-name="icircumflex" unicode="&#xee;" horiz-adv-x="233" 
d="M160 544l-43 60l-43 -60h-37l62 90h38l62 -90h-39zM96 0v500h41v-500h-41z" />
    <glyph glyph-name="idieresis" unicode="&#xef;" horiz-adv-x="224" 
d="M37 544v57h43v-57h-43zM145 544v57h43v-57h-43zM93 0v500h41v-500h-41z" />
    <glyph glyph-name="igrave" unicode="&#xec;" horiz-adv-x="78" 
d="M7 535l-34 90h45l17 -90h-28zM0 0v500h41v-500h-41z" />
    <glyph glyph-name="ij" unicode="&#x133;" horiz-adv-x="250" 
d="M38 544v62h45v-62h-45zM171 544v62h45v-62h-45zM40 0v500h41v-500h-41zM214 -74q0 -46 -23.5 -67t-65.5 -21h-28v31h21q31 0 43 14.5t12 56.5v560h41v-574z" />
    <glyph glyph-name="imacron" unicode="&#x12b;" horiz-adv-x="272" 
d="M38 544v33h200v-33h-200zM118 0v500h41v-500h-41z" />
    <glyph glyph-name="iogonek" unicode="&#x12f;" horiz-adv-x="175" 
d="M75 544v62h45v-62h-45zM140 -166h-20q-58 0 -77 43q-12 28 -1 55t30 48l16 19h-11v500h41v-500h-4l-19 -23q-17 -23 -26.5 -47t4.5 -46q8 -12 23 -16.5t34 -4.5h10v-28z" />
    <glyph glyph-name="j" unicode="j" horiz-adv-x="156" 
d="M74 552v62h45v-62h-45zM117 -74q0 -46 -23.5 -67t-65.5 -21h-28v31h21q31 0 43 14.5t12 56.5v560h41v-574z" />
    <glyph glyph-name="k" unicode="k" horiz-adv-x="239" 
d="M84 290l72 210h41l-77 -226l82 -274h-40l-77 259h-44v-259h-41v700h41v-410h43z" />
    <glyph glyph-name="kcommaaccent" unicode="&#x137;" horiz-adv-x="258" 
d="M122 290l72 210h41l-77 -226l82 -274h-40l-77 259h-44v-259h-41v700h41v-410h43zM104 -128l17 90h45l-34 -90h-28z" />
    <glyph glyph-name="l" unicode="l" horiz-adv-x="78" 
d="M0 0v700h41v-700h-41z" />
    <glyph glyph-name="lacute" unicode="&#x13a;" horiz-adv-x="133" 
d="M40 750l17 90h45l-34 -90h-28zM45 0v700h41v-700h-41z" />
    <glyph glyph-name="lcaron" unicode="&#x13e;" horiz-adv-x="197" 
d="M38 0v700h41v-700h-41zM104 610l17 90h45l-34 -90h-28z" />
    <glyph glyph-name="lcommaaccent" unicode="&#x13c;" horiz-adv-x="132" 
d="M50 0v700h41v-700h-41zM38 -128l17 90h45l-34 -90h-28z" />
    <glyph glyph-name="ldot" unicode="&#x140;" horiz-adv-x="192" 
d="M38 0v700h41v-700h-41zM116 286v62h45v-62h-45z" />
    <glyph glyph-name="lslash" unicode="&#x142;" horiz-adv-x="189" 
d="M157 500v-38l-40 -23v-439h-41v415l-38 -22v38l38 22v247h41v-223z" />
    <glyph glyph-name="m" unicode="m" horiz-adv-x="414" 
d="M288 500q42 0 65.5 -20.5t23.5 -66.5v-413h-41v399q0 42 -12 56t-44 14h-17q-29 0 -41 -13t-13 -48v-408h-41v399q0 42 -12 56t-44 14h-17q-31 0 -42.5 -14.5t-11.5 -56.5v-399h-41v496h28l8 -29q17 34 69 34h15q29 0 50 -10t31 -32q16 42 73 42h14z" />
    <glyph glyph-name="n" unicode="n" horiz-adv-x="246" 
d="M120 500q42 0 65.5 -21t23.5 -67v-412h-41v398q0 42 -12 56t-44 14h-17q-31 0 -42.5 -14.5t-11.5 -56.5v-397h-41v500h28l8 -35q17 35 69 35h15z" />
    <glyph glyph-name="nacute" unicode="&#x144;" horiz-adv-x="276" 
d="M104 544l17 90h45l-34 -90h-28zM156 506q42 0 65.5 -21t23.5 -67v-417h-41v403q0 42 -12 56t-44 14h-17q-31 0 -42.5 -14.5t-11.5 -56.5v-403h-41v500h28l8 -29q17 34 69 34z" />
    <glyph glyph-name="ncaron" unicode="&#x148;" horiz-adv-x="276" 
d="M117 544l-62 90h37l43 -60l43 60h37l-62 -90h-36zM157 506q42 0 65.5 -21t23.5 -67v-417h-41v403q0 42 -12 56t-44 14h-17q-31 0 -42.5 -14.5t-11.5 -56.5v-403h-41v500h28l8 -29q17 34 69 34z" />
    <glyph glyph-name="ncommaaccent" unicode="&#x146;" horiz-adv-x="276" 
d="M155 506q42 0 65.5 -21t23.5 -67v-417h-41v403q0 42 -12 56t-44 14h-17q-31 0 -42.5 -14.5t-11.5 -56.5v-403h-41v500h28l8 -29q17 34 69 34zM104 -127l17 90h45l-34 -90h-28z" />
    <glyph glyph-name="eng" unicode="&#x14b;" horiz-adv-x="276" 
d="M155 506q42 0 65.5 -21t23.5 -67v-491q0 -46 -23.5 -67t-65.5 -21h-28v31h21q31 0 43 14.5t12 56.5v463q0 42 -12 56t-44 14h-17q-31 0 -42.5 -14.5t-11.5 -56.5v-403h-41v500h28l8 -29q17 34 69 34z" />
    <glyph glyph-name="ntilde" unicode="&#xf1;" horiz-adv-x="291" 
d="M258 581q0 -18 -7.5 -29t-19.5 -15q-13 -5 -29 -1.5t-31 14.5l-55 38q-29 21 -40 12q-7 -6 -7 -20v-35h-36v38q0 32 23 42q14 6 31.5 3.5t34.5 -14.5l55 -38q11 -8 19.5 -12t14.5 -2q12 3 12 21v35h37zM167 507q42 0 65.5 -21t23.5 -67v-417h-41v403q0 42 -12 56t-44 14
h-17q-31 0 -42.5 -14.5t-11.5 -56.5v-403h-41v500h28l8 -29q17 34 69 34z" />
    <glyph glyph-name="o" unicode="o" 
d="M112 500q46 0 72 -21t26 -67v-324q0 -46 -26 -67t-72 -21h-15q-46 0 -71.5 21t-25.5 67v324q0 46 25.5 67t71.5 21h15zM96 469q-31 0 -42.5 -14t-11.5 -55v-296q0 -42 11.5 -56.5t42.5 -14.5h17q32 0 44 14t12 56v296q0 42 -12 56t-44 14h-17z" />
    <glyph glyph-name="oacute" unicode="&#xf3;" 
d="M112 500q46 0 72 -21t26 -67v-324q0 -46 -26 -67t-72 -21h-15q-46 0 -71.5 21t-25.5 67v324q0 46 25.5 67t71.5 21h15zM96 469q-31 0 -42.5 -14t-11.5 -55v-296q0 -42 11.5 -56.5t42.5 -14.5h17q32 0 44 14t12 56v296q0 42 -12 56t-44 14h-17zM90 535l17 90h45l-34 -90
h-28z" />
    <glyph glyph-name="ocaron" unicode="&#x1d2;" horiz-adv-x="269" 
d="M117 544l-62 90h37l43 -60l43 60h37l-62 -90h-36zM144 505q46 0 72 -21t26 -67v-335q0 -46 -26 -67t-72 -21h-15q-46 0 -71.5 21t-25.5 67v335q0 46 25.5 67t71.5 21h15zM128 476q-31 0 -42.5 -14.5t-11.5 -56.5v-307q0 -42 11.5 -56.5t42.5 -14.5h17q32 0 44 14t12 56
v307q0 42 -12 56t-44 14z" />
    <glyph glyph-name="ocircumflex" unicode="&#xf4;" 
d="M112 500q46 0 72 -21t26 -67v-324q0 -46 -26 -67t-72 -21h-15q-46 0 -71.5 21t-25.5 67v324q0 46 25.5 67t71.5 21h15zM96 469q-31 0 -42.5 -14t-11.5 -55v-296q0 -42 11.5 -56.5t42.5 -14.5h17q32 0 44 14t12 56v296q0 42 -12 56t-44 14h-17zM149 535l-44 60l-42 -60
h-37l62 90h34l62 -90h-35z" />
    <glyph glyph-name="odieresis" unicode="&#xf6;" horiz-adv-x="269" 
d="M58 544v57h43v-57h-43zM166 544v57h43v-57h-43zM141 505q46 0 72 -21t26 -67v-335q0 -46 -26 -67t-72 -21h-15q-46 0 -71.5 21t-25.5 67v335q0 46 25.5 67t71.5 21h15zM124 476q-31 0 -42.5 -14.5t-11.5 -56.5v-307q0 -42 12 -56.5t43 -14.5h17q32 0 44 14t12 56v307
q0 42 -12 56t-44 14z" />
    <glyph glyph-name="ograve" unicode="&#xf2;" 
d="M112 500q46 0 72 -21t26 -67v-324q0 -46 -26 -67t-72 -21h-15q-46 0 -71.5 21t-25.5 67v324q0 46 25.5 67t71.5 21h15zM96 469q-31 0 -42.5 -14t-11.5 -55v-296q0 -42 11.5 -56.5t42.5 -14.5h17q32 0 44 14t12 56v296q0 42 -12 56t-44 14h-17zM91 535l-34 90h45l17 -90
h-28z" />
    <glyph glyph-name="ohungarumlaut" unicode="&#x151;" horiz-adv-x="273" 
d="M75 544l17 90h45l-34 -90h-28zM153 544l17 90h45l-34 -90h-28zM143 505q46 0 72 -21t26 -67v-335q0 -46 -26 -67t-72 -21h-15q-46 0 -71.5 21t-25.5 67v335q0 46 25.5 67t71.5 21h15zM127 476q-31 0 -42.5 -14.5t-11.5 -56.5v-307q0 -42 11.5 -56.5t42.5 -14.5h17
q32 0 44 14t12 56v307q0 42 -12 56t-44 14z" />
    <glyph glyph-name="omacron" unicode="&#x14d;" horiz-adv-x="270" 
d="M34 544v33h200v-33h-200zM142 505q46 0 72 -21t26 -67v-335q0 -46 -26 -67t-72 -21h-15q-46 0 -71.5 21t-25.5 67v335q0 46 25.5 67t71.5 21h15zM126 476q-31 0 -42.5 -14.5t-11.5 -56.5v-307q0 -42 11.5 -56.5t42.5 -14.5h17q32 0 44 14t12 56v307q0 42 -12 56t-44 14z
" />
    <glyph glyph-name="oslash" unicode="&#xf8;" horiz-adv-x="335" 
d="M259 469q12 -20 12 -51v-335q0 -46 -26 -67t-72 -21h-15q-41 0 -64 16l-3 -10h-29l12 32q-11 20 -11 49v335q0 46 25.5 67t71.5 21h15q39 0 63 -15l4 10h29zM222 451q-11 23 -48 23h-17q-31 0 -42.5 -14.5t-11.5 -56.5v-288zM173 25q32 0 44 14t12 56v294l-121 -339
q5 -14 16.5 -19.5t31.5 -5.5h17z" />
    <glyph glyph-name="otilde" unicode="&#xf5;" 
d="M97 500q-46 0 -71.5 -21t-25.5 -67v-324q0 -46 25.5 -67t71.5 -21h15q46 0 72 21t26 67v324q0 46 -26 67t-72 21h-15zM113 469q32 0 44 -14t12 -56v-296q0 -42 -12 -56t-44 -14h-17q-31 0 -42.5 14.5t-11.5 56.5v296q0 41 11.5 55t42.5 14h17zM79 577q5 0 8 -1.5t5 -3.5
l27 -17q7 -4 13 -4h2q1 0 3 1q4 2 4 7v18h34v-15q1 -8 -2 -14q-2 -5 -7 -9t-14 -4h-20q-6 0 -13 4l-27 17q-2 2 -5 3.5t-8 1.5h-2q-2 0 -4 -1q-3 -2 -3 -7v-18h-34v18q-1 7 2 12q2 5 6.5 8.5t14.5 3.5h20z" />
    <glyph glyph-name="oe" unicode="&#x153;" horiz-adv-x="434" 
d="M310 507q46 0 72 -21t26 -67v-213h-169v-109q0 -42 12 -56.5t43 -14.5h17q32 0 44 14t12 56v42h41v-56q0 -46 -26 -67t-72 -21h-12q-27 0 -49 10t-30 31q-9 -21 -31 -31t-49 -10h-12q-46 0 -71.5 21t-25.5 67v335q0 46 25.5 67t71.5 21h12q27 0 49 -10t31 -31q8 21 30 31
t49 10zM126 478q-31 0 -42.5 -14.5t-11.5 -56.5v-307q0 -42 11.5 -56.5t42.5 -14.5h17q32 0 44 14t12 56v307q0 42 -12 56t-44 14zM294 479q-31 0 -42.5 -14.5t-11.5 -56.5v-167h128v167q0 42 -12 56t-44 14z" />
    <glyph glyph-name="p" unicode="p" horiz-adv-x="246" 
d="M120 500q42 0 65.5 -21t23.5 -67v-324q0 -46 -23.5 -67t-65.5 -21h-15q-44 0 -63 26v-184h-42v652h28l8 -29q10 19 27.5 27t42.5 8h14zM96 469q-29 0 -41 -13t-13 -49v-312q1 -36 13 -49t41 -13h17q32 0 44 14t12 56v296q0 42 -12 56t-44 14h-17z" />
    <glyph glyph-name="thorn" unicode="&#xfe;" horiz-adv-x="277" 
d="M78 480q19 26 65 26h15q42 0 65.5 -21t23.5 -67v-335q0 -46 -23.5 -67t-65.5 -21h-15q-45 0 -64 26v-211h-41v890h41zM133 475q-29 0 -41 -13t-13 -49v-323q1 -36 13 -49t41 -13h17q32 0 44 14t12 56v307q0 42 -12 56t-44 14h-17z" />
    <glyph glyph-name="q" unicode="q" horiz-adv-x="246" 
d="M103 500q51 0 70 -35l8 29h28v-652h-39v184q-19 -26 -66 -26h-15q-42 0 -65.5 21t-23.5 67v324q0 46 23.5 67t65.5 21h14zM95 469q-32 0 -44 -14t-12 -56v-296q0 -42 12 -56t44 -14h17q29 0 43 13t15 49v312q-1 36 -15 49t-43 13h-17z" />
    <glyph glyph-name="r" unicode="r" horiz-adv-x="168" 
d="M96 469q-26 0 -40.5 -14.5t-14.5 -56.5v-398h-41v495h28l8 -32q11 20 28.5 28.5t40.5 8.5h26v-31h-35z" />
    <glyph glyph-name="racute" unicode="&#x155;" horiz-adv-x="183" 
d="M54 544l17 90h45l-34 -90h-28zM131 473q-26 0 -40.5 -14.5t-14.5 -56.5v-403h-41v500h28l8 -32q11 20 28.5 28.5t40.5 8.5h26v-31h-35z" />
    <glyph glyph-name="rcaron" unicode="&#x159;" horiz-adv-x="215" 
d="M98 544l-62 90h37l43 -60l43 60h37l-62 -90h-36zM165 473q-26 0 -40.5 -14.5t-14.5 -56.5v-403h-41v500h28l8 -32q11 20 28.5 28.5t40.5 8.5h26v-31h-35z" />
    <glyph glyph-name="rcommaaccent" unicode="&#x157;" horiz-adv-x="183" 
d="M131 474q-26 0 -40.5 -14.5t-14.5 -56.5v-403h-41v500h28l8 -32q11 20 28.5 28.5t40.5 8.5h26v-31h-35zM52 -127l17 90h45l-34 -90h-28z" />
    <glyph glyph-name="s" unicode="s" horiz-adv-x="250" 
d="M110 500q46 0 72 -21t26 -67v-56h-41v42q0 42 -12 56t-44 14h-11q-29 0 -42 -12t-13 -44v-22q0 -32 24 -62l119 -149q25 -31 25 -73v-18q0 -46 -25.5 -67t-71.5 -21h-19q-46 0 -71.5 21t-25.5 67v56h41v-42q0 -42 11.5 -56.5t42.5 -14.5h21q29 0 42 12t13 45v22
q0 30 -24 60l-119 149q-25 31 -25 73v19q0 46 25.5 67.5t71.5 21.5h10z" />
    <glyph glyph-name="sacute" unicode="&#x15b;" horiz-adv-x="266" 
d="M103 544l17 90h45l-34 -90h-28zM138 506q46 0 72 -21t26 -67v-56h-41v42q0 42 -12 56t-44 14h-11q-29 0 -42 -12t-13 -44v-22q0 -32 24 -62l119 -161q25 -31 25 -73v-18q0 -46 -25.5 -67t-71.5 -21h-19q-46 0 -71.5 21t-25.5 67v56h41v-42q0 -42 12 -56.5t43 -14.5h21
q29 0 42 12t13 45v22q0 30 -24 60l-119 161q-25 31 -25 73v19q0 46 25.5 67t71.5 21z" />
    <glyph glyph-name="scaron" unicode="&#x161;" horiz-adv-x="266" 
d="M116 544l-62 90h37l43 -60l43 60h37l-62 -90h-36zM140 506q46 0 72 -21t26 -67v-56h-41v42q0 42 -12 56t-44 14h-11q-29 0 -42 -12t-13 -44v-22q0 -32 24 -62l119 -161q25 -31 25 -73v-18q0 -46 -25.5 -67t-71.5 -21h-19q-46 0 -71.5 21t-25.5 67v56h41v-42
q0 -42 12 -56.5t43 -14.5h21q29 0 42 12t13 45v22q0 30 -24 60l-119 161q-25 31 -25 73v19q0 46 25.5 67t71.5 21z" />
    <glyph glyph-name="scedilla" unicode="&#x15f;" horiz-adv-x="266" 
d="M217 175q25 -31 25 -73v-18q0 -46 -25.5 -67t-71.5 -21h-17v-36h9q25 0 40.5 -12t16.5 -42v-12q0 -30 -16 -43t-42 -13h-57v27h53q11 0 19.5 6.5t8.5 23.5v8q-1 17 -9 23t-20 6h-31v65q-35 5 -54 26t-19 60v56h41v-42q0 -42 12 -56.5t43 -14.5h21q29 0 42 12t13 45v22
q0 30 -24 60l-119 161q-25 31 -25 73v19q0 46 25.5 67t71.5 21h9q46 0 72 -21t26 -67v-56h-41v42q0 42 -12 56t-44 14h-11q-29 0 -42 -12t-13 -44v-22q0 -32 24 -62z" />
    <glyph glyph-name="scommaaccent" unicode="&#x219;" horiz-adv-x="266" 
d="M139 512q46 0 72 -21t26 -67v-56h-41v42q0 42 -12 56t-44 14h-11q-29 0 -42 -12t-13 -44v-22q0 -32 24 -62l119 -161q25 -31 25 -73v-18q0 -46 -25.5 -67t-71.5 -21h-19q-46 0 -71.5 21t-25.5 67v56h41v-42q0 -42 11.5 -56.5t42.5 -14.5h21q29 0 42 12t13 45v22
q0 30 -24 60l-119 161q-25 31 -25 73v19q0 46 25.5 67t71.5 21zM104 -121l17 90h45l-34 -90h-28z" />
    <glyph glyph-name="germandbls" unicode="&#xdf;" horiz-adv-x="288" 
d="M162 704q48 0 73.5 -20t26.5 -65v-163q0 -29 -11.5 -47.5t-36.5 -25.5q29 -7 41 -27.5t12 -49.5v-219q0 -45 -25.5 -66t-72.5 -22h-57v33h54q34 0 46 14.5t12 56.5v193q0 41 -12.5 55.5t-46.5 14.5h-29v33h29q31 1 42.5 15.5t11.5 54.5v133q0 42 -12 56.5t-46 14.5h-18
q-34 0 -46.5 -14.5t-12.5 -55.5v-603h-42v618q0 46 26.5 67t74.5 21z" />
    <glyph glyph-name="t" unicode="t" horiz-adv-x="190" 
d="M141 500v-32h-63v-366q0 -42 11.5 -56.5t42.5 -14.5h21v-31h-28q-42 0 -65.5 21t-23.5 67v380h-36v32h36v200h42v-200h63z" />
    <glyph glyph-name="tbar" unicode="&#x167;" horiz-adv-x="188" 
d="M158 500v-32h-63v-118h63v-33h-63v-221q0 -42 11.5 -56.5t42.5 -14.5h21v-31h-28q-42 0 -65.5 21t-23.5 67v235h-36v33h36v118h-36v32h36v131h41v-131h64z" />
    <glyph glyph-name="tcaron" unicode="&#x165;" horiz-adv-x="232" 
d="M153 577l17 123h45l-34 -123h-28zM157 500v-32h-63v-372q0 -42 12 -56.5t43 -14.5h21v-31h-28q-42 0 -65.5 21t-23.5 67v386h-36v32h36v131h41v-131h63z" />
    <glyph glyph-name="tcedilla" unicode="&#x163;" horiz-adv-x="188" 
d="M116 -41q25 0 40.5 -12t16.5 -42v-12q0 -30 -16 -43t-42 -13h-57v27h53q11 0 19.5 6.5t8.5 23.5v8q-1 17 -9 23t-20 6h-31v84q-25 22 -25 67v386h-36v32h36v131h41v-131h63v-32h-63v-372q0 -42 11.5 -56.5t42.5 -14.5h21v-31h-28q-22 0 -38 6v-42z" />
    <glyph glyph-name="uni021B" unicode="&#x21b;" horiz-adv-x="188" 
d="M158 500v-32h-63v-372q0 -42 11.5 -56.5t42.5 -14.5h21v-31h-28q-42 0 -65.5 21t-23.5 67v386h-36v32h36v131h41v-131h64zM71 -128l17 90h45l-34 -90h-28z" />
    <glyph glyph-name="u" unicode="u" 
d="M181 5l-8 29q-17 -34 -69 -34h-15q-42 0 -65.5 21t-23.5 67v412h41v-398q0 -42 12 -56t44 -14h17q31 0 43 14.5t12 56.5v397h41v-495h-29z" />
    <glyph glyph-name="uacute" unicode="&#xfa;" 
d="M181 5l-8 29q-17 -34 -69 -34h-15q-42 0 -65.5 21t-23.5 67v412h41v-398q0 -42 12 -56t44 -14h17q31 0 43 14.5t12 56.5v397h41v-495h-29zM90 535l17 90h45l-34 -90h-28z" />
    <glyph glyph-name="ucaron" unicode="&#x1d4;" horiz-adv-x="273" 
d="M119 544l-62 90h37l43 -60l43 60h37l-62 -90h-36zM214 -1l-8 29q-17 -34 -69 -34h-15q-42 0 -65.5 21t-23.5 67v417h41v-403q0 -42 12 -56t44 -14h17q31 0 43 14.5t12 56.5v403h41v-500z" />
    <glyph glyph-name="ucircumflex" unicode="&#xfb;" horiz-adv-x="273" 
d="M178 544l-43 60l-43 -60h-37l62 90h38l62 -90h-39zM212 -1l-8 29q-17 -34 -69 -34h-15q-42 0 -65.5 21t-23.5 67v417h41v-403q0 -42 12 -56t44 -14h17q31 0 42.5 14.5t11.5 56.5v403h41v-500z" />
    <glyph glyph-name="udieresis" unicode="&#xfc;" horiz-adv-x="273" 
d="M60 544v57h43v-57h-43zM168 544v57h43v-57h-43zM212 -1l-8 29q-17 -34 -69 -34h-15q-42 0 -65.5 21t-23.5 67v417h41v-403q0 -42 12 -56t44 -14h17q31 0 42.5 14.5t11.5 56.5v403h41v-500z" />
    <glyph glyph-name="udieresisacute" unicode="&#x1d8;" horiz-adv-x="273" 
d="M111 629l17 90h45l-34 -90h-28zM61 544v57h43v-57h-43zM170 544v57h43v-57h-43zM213 -1l-8 29q-17 -34 -69 -34h-15q-42 0 -65.5 21t-23.5 67v417h41v-403q0 -42 12 -56t44 -14h17q31 0 43 14.5t12 56.5v403h41v-500z" />
    <glyph glyph-name="udieresiscaron" unicode="&#x1da;" horiz-adv-x="273" 
d="M119 629l-62 90h37l43 -60l43 60h37l-62 -90h-36zM62 544v57h43v-57h-43zM170 544v57h43v-57h-43zM214 -1l-8 29q-17 -34 -69 -34h-15q-42 0 -65.5 21t-23.5 67v417h41v-403q0 -42 12 -56t44 -14h17q31 0 42.5 14.5t11.5 56.5v403h41v-500z" />
    <glyph glyph-name="udieresisgrave" unicode="&#x1dc;" horiz-adv-x="273" 
d="M135 629l-34 90h45l17 -90h-28zM61 544v57h43v-57h-43zM169 544v57h43v-57h-43zM213 -1l-8 29q-17 -34 -69 -34h-15q-42 0 -65.5 21t-23.5 67v417h41v-403q0 -42 12 -56t44 -14h17q31 0 42.5 14.5t11.5 56.5v403h41v-500z" />
    <glyph glyph-name="udieresismacron" unicode="&#x1d6;" horiz-adv-x="273" 
d="M37 629v33h200v-33h-200zM61 544v57h43v-57h-43zM169 544v57h43v-57h-43zM213 -1l-8 29q-17 -34 -69 -34h-15q-42 0 -65.5 21t-23.5 67v417h41v-403q0 -42 12 -56t44 -14h17q31 0 42.5 14.5t11.5 56.5v403h41v-500z" />
    <glyph glyph-name="ugrave" unicode="&#xf9;" 
d="M181 5l-8 29q-17 -34 -69 -34h-15q-42 0 -65.5 21t-23.5 67v412h41v-398q0 -42 12 -56t44 -14h17q31 0 43 14.5t12 56.5v397h41v-495h-29zM91 535l-34 90h45l17 -90h-28z" />
    <glyph glyph-name="uhungarumlaut" unicode="&#x171;" horiz-adv-x="280" 
d="M76 544l17 90h45l-34 -90h-28zM154 544l17 90h45l-34 -90h-28zM214 -1l-8 29q-17 -34 -69 -34h-15q-42 0 -65.5 21t-23.5 67v417h41v-403q0 -42 12 -56t44 -14h17q31 0 43 14.5t12 56.5v403h41v-500z" />
    <glyph glyph-name="umacron" unicode="&#x16b;" horiz-adv-x="273" 
d="M37 544v33h200v-33h-200zM212 -1l-8 29q-17 -34 -69 -34h-15q-42 0 -65.5 21t-23.5 67v417h41v-403q0 -42 12 -56t44 -14h17q31 0 43 14.5t12 56.5v403h41v-500z" />
    <glyph glyph-name="uogonek" unicode="&#x173;" horiz-adv-x="297" 
d="M264 -167h-20q-58 0 -77 43q-12 28 -1 55t30 48l16 19h1l-8 29q-17 -34 -69 -34h-15q-42 0 -65.5 21t-23.5 67v417h41v-403q0 -42 12 -56t44 -14h17q31 0 43 14.5t12 56.5v403h41v-500h-3l-19 -23q-17 -23 -26.5 -47t4.5 -46q8 -12 23 -16.5t34 -4.5h10z" />
    <glyph glyph-name="uring" unicode="&#x16f;" horiz-adv-x="273" 
d="M152 660q53 0 53 -39v-37q0 -39 -53 -39h-34q-52 0 -52 39v37q0 39 52 39h34zM125 632q-16 0 -19.5 -6t-3.5 -21v-9q0 -15 3.5 -21t19.5 -6h20q16 0 19.5 6t3.5 22v9q0 16 -3.5 22t-19.5 6zM214 -3l-8 29q-17 -34 -69 -34h-15q-42 0 -65.5 21t-23.5 67v417h41v-403
q0 -42 12 -56t44 -14h17q31 0 42.5 14.5t11.5 56.5v403h41v-500z" />
    <glyph glyph-name="v" unicode="v" horiz-adv-x="248" 
d="M74 0l-74 500h40l55 -407l9 -71h3l9 71l55 407h40l-74 -500h-63z" />
    <glyph glyph-name="w" unicode="w" horiz-adv-x="408" 
d="M241 0l-51 398l-4 44h-3l-4 -44l-51 -398h-58l-70 500h40l53 -407l8 -70h3l8 70l54 407h40l54 -407l8 -70h3l8 70l52 407h40l-70 -500h-60z" />
    <glyph glyph-name="wacute" unicode="&#x1e83;" horiz-adv-x="405" 
d="M181 544l17 90h45l-34 -90h-28zM258 0l-51 398l-4 44h-3l-4 -44l-51 -398h-58l-70 500h40l53 -407l8 -70h3l8 70l54 407h40l54 -407l8 -70h3l8 70l52 407h40l-70 -500h-60z" />
    <glyph glyph-name="wcircumflex" unicode="&#x175;" horiz-adv-x="405" 
d="M244 544l-43 60l-43 -60h-37l62 90h38l62 -90h-39zM256 0l-51 398l-4 44h-3l-4 -44l-51 -398h-58l-70 500h40l53 -407l8 -70h3l8 70l54 407h40l54 -407l8 -70h3l8 70l52 407h40l-70 -500h-60z" />
    <glyph glyph-name="wdieresis" unicode="&#x1e85;" horiz-adv-x="405" 
d="M126 544v57h43v-57h-43zM235 544v57h43v-57h-43zM257 0l-51 398l-4 44h-3l-4 -44l-51 -398h-58l-70 500h40l53 -407l8 -70h3l8 70l54 407h40l54 -407l8 -70h3l8 70l52 407h40l-70 -500h-60z" />
    <glyph glyph-name="wgrave" unicode="&#x1e81;" horiz-adv-x="405" 
d="M196 544l-34 90h45l17 -90h-28zM258 0l-51 398l-4 44h-3l-4 -44l-51 -398h-58l-70 500h40l53 -407l8 -70h3l8 70l54 407h40l54 -407l8 -70h3l8 70l52 407h40l-70 -500h-60z" />
    <glyph glyph-name="x" unicode="x" horiz-adv-x="240" 
d="M203 0h-39l-62 240l-63 -240h-39l72 257l-66 243h39l57 -228l58 228h39l-67 -244z" />
    <glyph glyph-name="y" unicode="y" horiz-adv-x="240" 
d="M55 -178l27 165l-82 513h39l62 -435l63 435h39l-108 -678h-40z" />
    <glyph glyph-name="yacute" unicode="&#xfd;" horiz-adv-x="240" 
d="M55 -178l27 165l-82 513h39l62 -435l63 435h39l-108 -678h-40zM86 535l17 90h45l-34 -90h-28z" />
    <glyph glyph-name="ycircumflex" unicode="&#x177;" horiz-adv-x="238" 
d="M160 544l-43 60l-43 -60h-37l62 90h38l62 -90h-39zM71 -163l27 165l-82 498h39l62 -420l63 420h39l-108 -663h-40z" />
    <glyph glyph-name="ydieresis" unicode="&#xff;" horiz-adv-x="238" 
d="M42 544v57h43v-57h-43zM151 544v57h43v-57h-43zM73 -163l27 165l-82 498h39l62 -420l63 420h39l-108 -663h-40z" />
    <glyph glyph-name="ygrave" unicode="&#x1ef3;" horiz-adv-x="240" 
d="M55 -178l27 165l-82 513h39l62 -435l63 435h39l-108 -678h-40zM87 535l-34 90h45l17 -90h-28z" />
    <glyph glyph-name="z" unicode="z" horiz-adv-x="243" 
d="M42 32h164v-32h-206v32l159 437h-153v31h194v-31z" />
    <glyph glyph-name="zacute" unicode="&#x17a;" horiz-adv-x="240" 
d="M93 544l17 90h45l-34 -90h-28zM61 31h164v-32h-206v32l159 437h-153v31h194v-31z" />
    <glyph glyph-name="zcaron" unicode="&#x17e;" horiz-adv-x="240" 
d="M103 544l-62 90h37l43 -60l43 60h37l-62 -90h-36zM62 31h164v-32h-206v32l159 437h-153v31h194v-31z" />
    <glyph glyph-name="zdotaccent" unicode="&#x17c;" horiz-adv-x="240" 
d="M98 544v57h43v-57h-43zM60 31h164v-32h-206v32l159 437h-153v31h194v-31z" />
    <glyph glyph-name="a.ss01" horiz-adv-x="274" 
d="M133 506q51 0 70 -35l8 29h28v-500h-31l-6 27q-19 -32 -68 -32h-15q-42 0 -65.5 21t-23.5 67v335q0 46 23.5 67t65.5 21h14zM125 475q-32 0 -44 -14t-12 -56v-307q0 -42 12 -56t44 -14h17q29 0 41 13t13 49v323q-1 36 -13 49t-41 13h-17z" />
    <glyph glyph-name="aacute.ss01" horiz-adv-x="274" 
d="M112 544l17 90h45l-34 -90h-28zM133 506q51 0 70 -35l8 29h28v-500h-31l-6 27q-19 -32 -68 -32h-15q-42 0 -65.5 21t-23.5 67v335q0 46 23.5 67t65.5 21h14zM125 475q-32 0 -44 -14t-12 -56v-307q0 -42 12 -56t44 -14h17q29 0 41 13t13 49v323q-1 36 -13 49t-41 13h-17z
" />
    <glyph glyph-name="abreve.ss01" horiz-adv-x="285" 
d="M218 591q0 -22 -18 -35t-54 -13h-16q-35 0 -52.5 13t-17.5 35v42h36v-19q0 -24 6 -34.5t30 -10.5h13q24 0 30 10.5t6 35.5v19h36zM138 505q51 0 70 -35l8 29h28v-500h-31l-6 27q-19 -32 -68 -32h-15q-42 0 -65.5 21t-23.5 67v335q0 46 23.5 67t65.5 21h14zM130 474
q-32 0 -44 -14t-12 -56v-307q0 -42 12 -56t44 -14h17q29 0 41 13t13 49v323q-1 36 -13 49t-41 13h-17z" />
    <glyph glyph-name="acaron.ss01" horiz-adv-x="285" 
d="M122 544l-62 90h37l43 -60l43 60h37l-62 -90h-36zM138 506q51 0 70 -35l8 29h28v-500h-31l-6 27q-19 -32 -68 -32h-15q-42 0 -65.5 21t-23.5 67v335q0 46 23.5 67t65.5 21h14zM130 475q-32 0 -44 -14t-12 -56v-307q0 -42 12 -56t44 -14h17q29 0 41 13t13 49v323
q-1 36 -13 49t-41 13h-17z" />
    <glyph glyph-name="adieresis.ss01" horiz-adv-x="285" 
d="M62 544v57h43v-57h-43zM171 544v57h43v-57h-43zM137 506q51 0 70 -35l8 29h28v-500h-31l-6 27q-19 -32 -68 -32h-15q-42 0 -65.5 21t-23.5 67v335q0 46 23.5 67t65.5 21h14zM129 475q-32 0 -44 -14t-12 -56v-307q0 -42 12 -56t44 -14h17q29 0 41 13t13 49v323
q-1 36 -13 49t-41 13h-17z" />
    <glyph glyph-name="e.ss01" horiz-adv-x="266" 
d="M141 506q46 0 72 -21t26 -67v-126q0 -46 -23.5 -67t-65.5 -21h-79v-107q0 -42 12 -56.5t43 -14.5h17q32 0 44 14t12 56v42h41v-56q0 -46 -26 -67t-72 -21h-15q-46 0 -71.5 21t-25.5 67v335q0 46 25.5 67t71.5 21zM124 476q-31 0 -42.5 -14.5t-11.5 -56.5v-169h72
q32 0 44 14t12 56v99q0 42 -12 56t-44 14z" />
    <glyph glyph-name="edotaccent.ss01" horiz-adv-x="266" 
d="M113 544v57h43v-57h-43zM142 506q46 0 72 -21t26 -67v-126q0 -46 -23.5 -67t-65.5 -21h-79v-107q0 -42 11.5 -56.5t42.5 -14.5h17q32 0 44 14t12 56v42h41v-56q0 -46 -26 -67t-72 -21h-15q-46 0 -71.5 21t-25.5 67v335q0 46 25.5 67t71.5 21zM125 476q-31 0 -42.5 -14.5
t-11.5 -56.5v-169h72q32 0 44 14t12 56v99q0 42 -12 56t-44 14z" />
    <glyph glyph-name="egrave.ss01" horiz-adv-x="266" 
d="M132 544l-34 90h45l17 -90h-28zM142 506q46 0 72 -21t26 -67v-126q0 -46 -23.5 -67t-65.5 -21h-79v-107q0 -42 11.5 -56.5t42.5 -14.5h17q32 0 44 14t12 56v42h41v-56q0 -46 -26 -67t-72 -21h-15q-46 0 -71.5 21t-25.5 67v335q0 46 25.5 67t71.5 21zM125 476
q-31 0 -42.5 -14.5t-11.5 -56.5v-169h72q32 0 44 14t12 56v99q0 42 -12 56t-44 14z" />
    <glyph glyph-name="emacron.ss01" horiz-adv-x="267" 
d="M34 544v33h200v-33h-200zM142 506q46 0 72 -21t26 -67v-126q0 -46 -23.5 -67t-65.5 -21h-79v-107q0 -42 12 -56.5t43 -14.5h17q32 0 44 14t12 56v42h41v-56q0 -46 -26 -67t-72 -21h-15q-46 0 -71.5 21t-25.5 67v335q0 46 25.5 67t71.5 21zM125 476q-31 0 -42.5 -14.5
t-11.5 -56.5v-169h72q32 0 44 14t12 56v99q0 42 -12 56t-44 14z" />
    <glyph glyph-name="eogonek.ss01" horiz-adv-x="266" 
d="M240 82q0 -34 -14 -54t-40 -28l-19 -23q-17 -23 -26.5 -47t4.5 -46q8 -12 23 -16.5t34 -4.5h10v-27h-20q-58 0 -77 43q-12 28 -1 55t30 48l11 13h-14h-15q-46 0 -71.5 21t-25.5 67v335q0 46 25.5 67t71.5 21h15q46 0 72 -21t26 -67v-126q0 -46 -23.5 -67t-65.5 -21h-79
v-107q0 -42 11.5 -56.5t42.5 -14.5h17q32 0 44 14t12 56v42h41zM142 235q32 0 44 14t12 56v99q0 42 -12 56t-44 14h-17q-31 0 -42.5 -14.5t-11.5 -56.5v-169z" />
    <glyph glyph-name="g.ss01" horiz-adv-x="273" 
d="M133 506q51 0 70 -35l8 29h28v-575q0 -46 -25.5 -67t-71.5 -21h-15q-46 0 -72 21t-26 67v34h41v-20q0 -42 12 -56.5t44 -14.5h17q31 0 43 14.5t12 56.5v82q-19 -26 -64 -26h-15q-42 0 -65.5 21t-23.5 67v335q0 46 23.5 67t65.5 21h14zM125 475q-32 0 -44 -14t-12 -56
v-307q0 -42 12 -56t44 -14h17q29 0 41 13t13 49v323q-1 36 -13 49t-41 13h-17z" />
    <glyph glyph-name="gbreve.ss01" horiz-adv-x="273" 
d="M214 591q0 -22 -18 -35t-54 -13h-16q-35 0 -52.5 13t-17.5 35v42h36v-19q0 -24 6 -34.5t30 -10.5h13q24 0 30 10.5t6 35.5v19h36zM135 505q51 0 70 -35l8 29h28v-575q0 -46 -25.5 -67t-71.5 -21h-15q-46 0 -72 21t-26 67v34h41v-20q0 -42 12 -56.5t44 -14.5h17
q31 0 42.5 14.5t11.5 56.5v82q-19 -26 -64 -26h-15q-42 0 -65.5 21t-23.5 67v335q0 46 23.5 67t65.5 21h15zM127 474q-32 0 -44 -14t-12 -56v-307q0 -42 12 -56t44 -14h17q29 0 41 13t13 49v323q-1 36 -13 49t-41 13h-17z" />
    <glyph glyph-name="gcommaaccent.ss01" horiz-adv-x="273" 
d="M133 506q51 0 70 -35l8 29h28v-575q0 -46 -25.5 -67t-71.5 -21h-15q-46 0 -72 21t-26 67v34h41v-20q0 -42 12 -56.5t44 -14.5h17q31 0 43 14.5t12 56.5v82q-19 -26 -64 -26h-15q-42 0 -65.5 21t-23.5 67v335q0 46 23.5 67t65.5 21h14zM125 475q-32 0 -44 -14t-12 -56
v-307q0 -42 12 -56t44 -14h17q29 0 41 13t13 49v323q-1 36 -13 49t-41 13h-17zM104 -269l17 90h45l-34 -90h-28z" />
    <glyph glyph-name="gdotaccent.ss01" horiz-adv-x="273" 
d="M113 544v57h43v-57h-43zM133 506q51 0 70 -35l8 29h28v-575q0 -46 -25.5 -67t-71.5 -21h-15q-46 0 -72 21t-26 67v34h41v-20q0 -42 12 -56.5t44 -14.5h17q31 0 43 14.5t12 56.5v82q-19 -26 -64 -26h-15q-42 0 -65.5 21t-23.5 67v335q0 46 23.5 67t65.5 21h14zM125 475
q-32 0 -44 -14t-12 -56v-307q0 -42 12 -56t44 -14h17q29 0 41 13t13 49v323q-1 36 -13 49t-41 13h-17z" />
    <glyph glyph-name="y.ss01" horiz-adv-x="274" 
d="M241 -75q0 -46 -25.5 -67t-71.5 -21h-15q-46 0 -72 21t-26 67v34h41v-20q0 -42 12 -56.5t44 -14.5h17q31 0 42.5 14.5t11.5 56.5v82q-19 -26 -64 -26h-15q-42 0 -65.5 21t-23.5 67v417h41v-403q0 -42 12 -56t44 -14h17q29 0 41 13t13 49v411h41z" />
    <glyph glyph-name="yacute.ss01" horiz-adv-x="274" 
d="M106 544l17 90h45l-34 -90h-28zM241 -75q0 -46 -25.5 -67t-71.5 -21h-15q-46 0 -72 21t-26 67v34h41v-20q0 -42 12 -56.5t44 -14.5h17q31 0 43 14.5t12 56.5v82q-19 -26 -64 -26h-15q-42 0 -65.5 21t-23.5 67v417h41v-403q0 -42 12 -56t44 -14h17q29 0 41 13t13 49v411
h41v-575z" />
    <glyph glyph-name="ycircumflex.ss01" horiz-adv-x="274" 
d="M177 544l-43 60l-43 -60h-37l62 90h38l62 -90h-39zM238 -75q0 -46 -25.5 -67t-71.5 -21h-15q-46 0 -72 21t-26 67v34h41v-20q0 -42 12 -56.5t44 -14.5h17q31 0 43 14.5t12 56.5v82q-19 -26 -64 -26h-15q-42 0 -65.5 21t-23.5 67v417h41v-403q0 -42 12 -56t44 -14h17
q29 0 41 13t13 49v411h41v-575z" />
    <glyph glyph-name="ydieresis.ss01" horiz-adv-x="274" 
d="M57 544v57h43v-57h-43zM165 544v57h43v-57h-43zM240 -75q0 -46 -25.5 -67t-71.5 -21h-15q-46 0 -72 21t-26 67v34h41v-20q0 -42 12 -56.5t44 -14.5h17q31 0 42.5 14.5t11.5 56.5v82q-19 -26 -64 -26h-15q-42 0 -65.5 21t-23.5 67v417h41v-403q0 -42 12 -56t44 -14h17
q29 0 41 13t13 49v411h41z" />
    <glyph glyph-name="ygrave.ss01" horiz-adv-x="274" 
d="M126 544l-34 90h45l17 -90h-28zM242 -75q0 -46 -25.5 -67t-71.5 -21h-15q-46 0 -72 21t-26 67v34h41v-20q0 -42 12 -56.5t44 -14.5h17q31 0 42.5 14.5t11.5 56.5v82q-19 -26 -64 -26h-15q-42 0 -65.5 21t-23.5 67v417h41v-403q0 -42 12 -56t44 -14h17q29 0 41 13t13 49
v411h41z" />
    <glyph glyph-name="uni0410" unicode="&#x410;" horiz-adv-x="277" 
d="M216 0l-29 245h-98l-29 -245h-40l85 700h66l85 -700h-40zM126 560l-33 -282h92l-33 282l-12 111h-3z" />
    <glyph glyph-name="uni0411" unicode="&#x411;" horiz-adv-x="284" 
d="M84 665v-265h81q48 0 73 -18t25 -65v-234q0 -47 -25 -65t-73 -18h-123v700h209v-33zM84 32h78q34 0 46.5 14.5t12.5 55.5v196q0 41 -12.5 55.5t-46.5 14.5h-78v-336z" />
    <glyph glyph-name="uni0412" unicode="&#x412;" horiz-adv-x="284" 
d="M160 697q48 0 73 -18t25 -65v-158q0 -29 -11.5 -47.5t-36.5 -25.5q29 -7 41 -27.5t12 -49.5v-223q0 -47 -25 -65t-73 -18h-123v700zM84 397h78q31 1 42.5 15.5t11.5 54.5v127q0 41 -12.5 55.5t-46.5 14.5h-73v-267zM84 31h78q34 0 46.5 14.5t12.5 55.5v193
q0 41 -12.5 55.5t-46.5 14.5h-78v-333z" />
    <glyph glyph-name="uni0413" unicode="&#x413;" horiz-adv-x="272" 
d="M84 667v-667h-42v700h209v-33h-167z" />
    <glyph glyph-name="uni0414" unicode="&#x414;" horiz-adv-x="331" 
d="M311 32v-157h-42v124h-205v-124h-42v154l3 4h16q18 2 24 17.5t8 52.5l24 597h188v-667zM114 96q-1 -17 -5 -36.5t-11 -27.5h146v633h-106z" />
    <glyph glyph-name="uni0415" unicode="&#x415;" horiz-adv-x="273" 
d="M84 665v-270h154v-33h-154v-329h168v-33h-210v700h210v-33z" />
    <glyph glyph-name="uni0401" unicode="&#x401;" horiz-adv-x="273" 
d="M71 750v57h43v-57h-43zM180 750v57h43v-57h-43zM85 665v-270h154v-33h-154v-329h168v-33h-210v700h210v-33z" />
    <glyph glyph-name="uni0416" unicode="&#x416;" horiz-adv-x="414" 
d="M393 0h-39l-83 353h-43v-353h-42v353h-43l-83 -353h-39l86 370l-80 330h39l77 -314h43v314h42v-314h43l77 314h39l-80 -330z" />
    <glyph glyph-name="uni0417" unicode="&#x417;" horiz-adv-x="268" 
d="M144 704q48 0 73.5 -20t26.5 -65v-163q0 -29 -11.5 -47.5t-36.5 -25.5q29 -7 41 -27.5t12 -49.5v-225q0 -45 -25 -66t-73 -22h-29q-48 1 -73.5 22t-25.5 66v69h42v-54q0 -41 12.5 -55.5t46.5 -14.5h23q34 0 46 14.5t12 56.5v199q0 41 -12.5 55.5t-46.5 14.5h-64v33h63
q31 1 42.5 15.5t11.5 54.5v133q0 42 -12 56.5t-46 14.5h-18q-34 0 -46.5 -14.5t-12.5 -55.5v-54h-42v69q0 46 26.5 67t74.5 21z" />
    <glyph glyph-name="uni0418" unicode="&#x418;" horiz-adv-x="305" 
d="M224 0l2 134v472h-3l-130 -606h-54v700h41v-606h2l130 606h54v-700h-42z" />
    <glyph glyph-name="uni0419" unicode="&#x419;" horiz-adv-x="305" 
d="M232 791q0 -22 -18 -35t-54 -13h-16q-35 0 -52.5 13t-17.5 35v42h36v-19q0 -24 6 -34.5t30 -10.5h13q24 0 30 10.5t6 35.5v19h36zM225 -1l2 134v472h-3l-130 -606h-54v700h41v-606h2l130 606h54v-700h-42z" />
    <glyph glyph-name="uni041A" unicode="&#x41a;" horiz-adv-x="284" 
d="M263 0h-39l-90 353h-50v-353h-42v700h42v-314h51l84 314h39l-88 -330z" />
    <glyph glyph-name="uni041B" unicode="&#x41b;" horiz-adv-x="321" 
d="M237 0v667h-106l-24 -599q-2 -38 -19.5 -56t-44.5 -18h-22v33h7q23 0 30 15t9 55l24 603h188v-700h-42z" />
    <glyph glyph-name="uni041C" unicode="&#x41c;" horiz-adv-x="397" 
d="M313 -1v609h-2l-94 -609h-42l-94 609h-1v-609h-42v700h57l61 -381l39 -242h3l39 242l61 382h57v-700z" />
    <glyph glyph-name="uni041D" unicode="&#x41d;" horiz-adv-x="305" 
d="M221 0v363h-137v-363h-42v700h42v-304h137v304h42v-700h-42z" />
    <glyph glyph-name="uni041E" unicode="&#x41e;" horiz-adv-x="295" 
d="M157 706q48 0 74.5 -21t26.5 -67v-536q0 -46 -26.5 -67t-74.5 -21h-20q-48 0 -74 21t-26 67v536q0 46 26 67t74 21h20zM137 675q-34 0 -46 -14.5t-12 -56.5v-506q0 -42 12 -56.5t46 -14.5h20q34 0 46.5 14.5t12.5 55.5v506q0 41 -12.5 55.5t-46.5 14.5z" />
    <glyph glyph-name="uni041F" unicode="&#x41f;" horiz-adv-x="305" 
d="M221 0v667h-137v-667h-42v700h221v-700h-42z" />
    <glyph glyph-name="uni0420" unicode="&#x420;" horiz-adv-x="300" 
d="M165 698q48 0 73 -18t25 -65v-194q0 -47 -25 -65t-73 -18h-81v-338h-42v700zM84 369h78q34 0 46.5 14.5t12.5 55.5v156q0 41 -12.5 55.5t-46.5 14.5h-78v-296z" />
    <glyph glyph-name="uni0421" unicode="&#x421;" horiz-adv-x="279" 
d="M156 708q48 0 74.5 -21t26.5 -67v-84h-42v69q0 41 -12.5 55.5t-46.5 14.5h-20q-34 0 -46 -14.5t-12 -56.5v-506q0 -42 12.5 -56.5t46.5 -14.5h20q34 0 46.5 14.5t12.5 55.5v69h42v-84q0 -46 -26.5 -67t-74.5 -21h-20q-48 0 -74 21t-26 67v536q0 46 26 67t74 21z" />
    <glyph glyph-name="uni0422" unicode="&#x422;" horiz-adv-x="254" 
d="M148 667v-667h-42v667h-85v33h212v-33h-85z" />
    <glyph glyph-name="uni0423" unicode="&#x423;" horiz-adv-x="268" 
d="M84 0l28 163l-91 537h41l72 -453l72 453h41l-120 -700h-43z" />
    <glyph glyph-name="uni0424" unicode="&#x424;" horiz-adv-x="431" 
d="M295 630q48 0 73 -18t25 -65v-396q0 -47 -25 -65t-73 -18h-59v-68h-42v68h-59q-48 0 -73 18t-25 66v396q0 48 25 66t73 18h59v68h42v-68zM236 100h56q34 0 46.5 14.5t12.5 55.5v357q0 41 -12.5 55.5t-46.5 14.5h-56v-497zM138 597q-34 0 -46.5 -14.5t-12.5 -55.5v-357
q0 -41 12.5 -55.5t46.5 -14.5h56v498z" />
    <glyph glyph-name="uni0425" unicode="&#x425;" horiz-adv-x="268" 
d="M248 0h-41l-72 339l-72 -339h-41l79 355l-74 345h41l66 -331l67 331h41l-74 -346z" />
    <glyph glyph-name="uni0427" unicode="&#x427;" horiz-adv-x="301" 
d="M216 0v303q-20 -26 -69 -26h-17q-45 0 -69 21t-24 67v336h42v-322q0 -42 12.5 -56.5t46.5 -14.5h20q34 0 46.5 14.5t12.5 55.5v322h42v-700h-43z" />
    <glyph glyph-name="uni0426" unicode="&#x426;" horiz-adv-x="309" 
d="M288 33v-161h-42v128h-204v700h42v-667h134v667h42v-667h28z" />
    <glyph glyph-name="uni0428" unicode="&#x428;" horiz-adv-x="412" 
d="M42 0v700h42v-667h101v667h42v-667h101v667h42v-700h-328z" />
    <glyph glyph-name="uni0429" unicode="&#x429;" horiz-adv-x="419" 
d="M398 33v-161h-42v128h-314v700h42v-667h101v667h42v-667h101v667h42v-667h28z" />
    <glyph glyph-name="uni042F" unicode="&#x42f;" horiz-adv-x="284" 
d="M201 2v354h-86q-29 -2 -40 -17t-11 -54v-284h-42v294q0 28 11 48.5t39 27.5q-26 7 -38 26t-12 48v171q0 48 25 66t73 18h122v-700zM125 669q-34 0 -46.5 -14.5t-12.5 -55.5v-140q0 -39 11 -54t40 -17h84v281h-76z" />
    <glyph glyph-name="uni042C" unicode="&#x42c;" horiz-adv-x="300" 
d="M165 400q48 0 73 -18t25 -65v-234q0 -47 -25 -65t-73 -18h-123v700h42v-298zM84 31h78q34 0 46.5 14.5t12.5 55.5v196q0 41 -12.5 55.5t-46.5 14.5h-78v-336z" />
    <glyph glyph-name="uni042A" unicode="&#x42a;" horiz-adv-x="328" 
d="M193 400q48 0 73 -18t25 -65v-234q0 -47 -25 -65t-73 -18h-123v667h-49v33h91v-298zM112 31h78q34 0 46.5 14.5t12.5 55.5v196q0 41 -12.5 55.5t-46.5 14.5h-78v-336z" />
    <glyph glyph-name="uni042B" unicode="&#x42b;" horiz-adv-x="399" 
d="M315 0v700h42v-700h-42zM165 400q48 0 73 -18t25 -65v-234q0 -47 -25 -65t-73 -18h-123v700h42v-298zM84 31h78q34 0 46.5 14.5t12.5 55.5v196q0 41 -12.5 55.5t-46.5 14.5h-78v-336z" />
    <glyph glyph-name="uni042D" unicode="&#x42d;" horiz-adv-x="279" 
d="M142 705q48 0 74 -21t26 -67v-536q0 -46 -26 -67t-74 -21h-20q-48 0 -74.5 21t-26.5 67v69h42v-54q0 -41 12.5 -55.5t46.5 -14.5h20q34 0 46 14.5t12 56.5v254h-117v33h117v218q0 42 -12 56.5t-46 14.5h-20q-34 0 -46.5 -14.5t-12.5 -55.5v-54h-42v69q0 46 26.5 67
t74.5 21z" />
    <glyph glyph-name="uni042E" unicode="&#x42e;" horiz-adv-x="401" 
d="M263 705q48 0 74.5 -21t26.5 -67v-536q0 -46 -26.5 -67t-74.5 -21h-20q-48 0 -74 21t-26 67v278h-59v-359h-42v700h42v-307h59v225q0 46 26 67t74 21zM242 674q-34 0 -46 -14.5t-12 -56.5v-506q0 -42 12.5 -56.5t46.5 -14.5h20q34 0 46.5 14.5t12.5 55.5v506
q0 41 -12.5 55.5t-46.5 14.5z" />
    <glyph glyph-name="uni0430" unicode="&#x430;" horiz-adv-x="267" 
d="M139 503q46 0 71.5 -21t25.5 -67v-417h-28l-8 29q-19 -35 -70 -35h-15q-42 0 -65.5 21t-23.5 67v142q0 46 23.5 67t65.5 21h15q45 0 64 -26v118q0 42 -11.5 56.5t-42.5 14.5h-17q-32 0 -44 -14t-12 -56v-35h-41v49q0 46 26 67t72 21zM123 279q-32 0 -44 -14t-12 -56v-114
q0 -42 12 -56t44 -14h17q29 0 41 13t13 49v129q-1 36 -13 49t-41 13z" />
    <glyph glyph-name="uni0431" unicode="&#x431;" horiz-adv-x="274" 
d="M245 657q0 -46 -23.5 -67t-65.5 -21h-25q-31 0 -42.5 -14.5t-11.5 -56.5v-20q19 26 64 26h15q42 0 65.5 -21t23.5 -67v-335q0 -46 -26 -67t-72 -21h-15q-46 0 -71.5 21t-25.5 67v431q-2 46 22.5 67t66.5 21h25q31 0 42.5 14.5t11.5 56.5v29h41zM131 476
q-31 0 -42.5 -14.5t-11.5 -56.5v-307q0 -42 12 -56.5t43 -14.5h17q32 0 44 14t12 56v307q0 42 -12 56t-44 14z" />
    <glyph glyph-name="uni0432" unicode="&#x432;" horiz-adv-x="273" 
d="M145 498q46 0 70.5 -18t24.5 -65v-69q0 -29 -11.5 -47.5t-35.5 -25.5q29 -7 40.5 -28t11.5 -50v-112q0 -47 -24.5 -65t-70.5 -18h-115v500zM77 286h69q30 1 41.5 15.5t11.5 55.5v40q0 42 -12 56t-44 14h-67zM77 31h72q32 0 44 14t12 56v84q0 42 -12 56t-44 14h-72v-224z
" />
    <glyph glyph-name="uni0433" unicode="&#x433;" horiz-adv-x="249" 
d="M75 468v-468h-41v500h197v-32h-156z" />
    <glyph glyph-name="uni0434" unicode="&#x434;" horiz-adv-x="316" 
d="M290 32v-156h-41v124h-191v-124h-41v156h19q18 2 24.5 17.5t8.5 52.5l22 398h174v-468h25zM108 95q-2 -23 -5.5 -39t-11.5 -24h133v435h-94z" />
    <glyph glyph-name="uni0435" unicode="&#x435;" horiz-adv-x="266" 
d="M142 507q46 0 72 -21t26 -67v-213h-169v-109q0 -42 12 -56.5t43 -14.5h17q32 0 44 14t12 56v42h41v-56q0 -46 -26 -67t-72 -21h-15q-46 0 -71.5 21t-25.5 67v335q0 46 25.5 67t71.5 21zM125 477q-31 0 -42.5 -14.5t-11.5 -56.5v-167h128v167q0 42 -12 56t-44 14z" />
    <glyph glyph-name="uni0451" unicode="&#x451;" horiz-adv-x="266" 
d="M59 544v57h43v-57h-43zM167 544v57h43v-57h-43zM142 507q46 0 72 -21t26 -67v-213h-169v-109q0 -42 11.5 -56.5t42.5 -14.5h17q32 0 44 14t12 56v42h41v-56q0 -46 -26 -67t-72 -21h-15q-46 0 -71.5 21t-25.5 67v335q0 46 25.5 67t71.5 21zM125 477q-31 0 -42.5 -14.5
t-11.5 -56.5v-167h128v167q0 42 -12 56t-44 14z" />
    <glyph glyph-name="uni0436" unicode="&#x436;" horiz-adv-x="378" 
d="M361 0h-40l-74 259h-37v-259h-41v259h-37l-74 -259h-40l79 274l-74 226h41l68 -210h37v210h41v-210h37l68 210h41l-74 -226z" />
    <glyph glyph-name="uni0437" unicode="&#x437;" horiz-adv-x="265" 
d="M135 505q46 0 71.5 -21t25.5 -67v-71q0 -29 -11.5 -47.5t-35.5 -25.5q29 -7 40.5 -28t11.5 -50v-114q0 -46 -25.5 -67t-71.5 -21h-15q-46 0 -72 21t-26 67v49h41v-35q0 -42 12 -56t44 -14h17q31 0 42.5 14.5t11.5 56.5v90q0 42 -12 56t-44 14h-42v31h39q30 0 41.5 14.5
t11.5 55.5v46q0 42 -11.5 56.5t-42.5 14.5h-12q-32 0 -44 -14t-12 -56v-35h-41v49q0 46 26 67t72 21z" />
    <glyph glyph-name="uni0438" unicode="&#x438;" horiz-adv-x="281" 
d="M205 0l2 135v295h-3l-114 -430h-53v500h41l-2 -133v-296h3l114 429h53v-500h-41z" />
    <glyph glyph-name="uni0439" unicode="&#x439;" horiz-adv-x="281" 
d="M221 591q0 -22 -18 -35t-54 -13h-16q-35 0 -52.5 13t-17.5 35v42h36v-19q0 -24 6 -34.5t30 -10.5h13q24 0 30 10.5t6 35.5v19h36zM206 -1l2 135v295h-3l-114 -430h-53v500h41l-2 -133v-296h3l114 429h53v-500h-41z" />
    <glyph glyph-name="uni043A" unicode="&#x43a;" horiz-adv-x="257" 
d="M238 0h-40l-77 259h-44v-259h-41v500h41v-210h44l72 210h41l-77 -226z" />
    <glyph glyph-name="uni043B" unicode="&#x43b;" horiz-adv-x="302" 
d="M221 -2v468h-94l-22 -400q-2 -38 -19.5 -55.5t-45.5 -17.5h-20v32h6q23 0 30 15t9 56l22 404h174v-500z" />
    <glyph glyph-name="uni043C" unicode="&#x43c;" horiz-adv-x="365" 
d="M289 434h-2l-86 -434h-39l-86 434v-434h-41v500h57l55 -286l34 -167h3l34 167l55 286h57v-500h-41v235v199z" />
    <glyph glyph-name="uni043D" unicode="&#x43d;" horiz-adv-x="281" 
d="M205 0v256h-128v-256h-41v500h41v-212h128v212h41v-500h-41z" />
    <glyph glyph-name="uni043E" unicode="&#x43e;" horiz-adv-x="269" 
d="M142 505q46 0 72 -21t26 -67v-335q0 -46 -26 -67t-72 -21h-15q-46 0 -71.5 21t-25.5 67v335q0 46 25.5 67t71.5 21h15zM126 476q-31 0 -42.5 -14.5t-11.5 -56.5v-307q0 -42 11.5 -56.5t42.5 -14.5h17q32 0 44 14t12 56v307q0 42 -12 56t-44 14z" />
    <glyph glyph-name="uni043F" unicode="&#x43f;" horiz-adv-x="281" 
d="M205 0v468h-128v-468h-41v500h210v-500h-41z" />
    <glyph glyph-name="uni0440" unicode="&#x440;" horiz-adv-x="276" 
d="M156 505q42 0 65.5 -21t23.5 -67v-335q0 -46 -23.5 -67t-65.5 -21h-15q-45 0 -64 26v-184h-41v663h28l8 -29q19 36 70 36zM132 474q-29 0 -41 -13t-13 -49v-323q1 -36 13 -49t41 -13h17q32 0 44 14t12 56v307q0 42 -12 56t-44 14h-17z" />
    <glyph glyph-name="uni0441" unicode="&#x441;" horiz-adv-x="266" 
d="M141 507q46 0 72 -21t26 -67v-56h-41v42q0 42 -12 56t-44 14h-17q-31 0 -42.5 -14.5t-11.5 -56.5v-307q0 -42 12 -56.5t43 -14.5h17q32 0 44 14t12 56v42h41v-56q0 -46 -26 -67t-72 -21h-15q-46 0 -71.5 21t-25.5 67v335q0 46 25.5 67t71.5 21z" />
    <glyph glyph-name="uni0442" unicode="&#x442;" horiz-adv-x="238" 
d="M139 468v-468h-41v468h-81v32h203v-32h-81z" />
    <glyph glyph-name="uni0443" unicode="&#x443;" horiz-adv-x="238" 
d="M73 -163l27 165l-82 498h39l62 -420l63 420h39l-108 -663h-40z" />
    <glyph glyph-name="uni0444" unicode="&#x444;" horiz-adv-x="437" 
d="M237 479q19 26 65 26h15q42 0 65.5 -21t23.5 -67v-335q0 -46 -23.5 -67t-65.5 -21h-15q-45 0 -64 26v-211h-41v211q-19 -26 -64 -26h-15q-42 0 -65.5 21t-23.5 67v335q0 46 23.5 67t65.5 21h15q46 0 65 -26v221h41zM292 474q-29 0 -41 -13t-13 -49v-323q1 -36 13 -49
t41 -13h17q32 0 44 14t12 56v307q0 42 -12 56t-44 14h-17zM124 472q-32 0 -44 -14t-12 -56v-307q0 -42 12 -56t44 -14h17q31 0 42.5 14.5t11.5 56.5v307q0 42 -11.5 56.5t-42.5 14.5z" />
    <glyph glyph-name="uni0445" unicode="&#x445;" horiz-adv-x="238" 
d="M220 0h-39l-62 240l-63 -240h-39l72 257l-66 243h39l57 -228l58 228h39l-67 -244z" />
    <glyph glyph-name="uni0447" unicode="&#x447;" horiz-adv-x="272" 
d="M197 -1v204q-19 -26 -64 -26h-15q-42 0 -65.5 21t-23.5 67v234h41v-220q0 -42 12 -56t44 -14h17q31 0 42.5 14.5t11.5 56.5v220h41v-500z" />
    <glyph glyph-name="uni0446" unicode="&#x446;" horiz-adv-x="299" 
d="M272 31v-155h-41v124h-197v500h41v-468h128v468h41v-468z" />
    <glyph glyph-name="uni0448" unicode="&#x448;" horiz-adv-x="399" 
d="M37 0v500h41v-468h102v468h41v-468h102v468h41v-500h-327z" />
    <glyph glyph-name="uni0449" unicode="&#x449;" horiz-adv-x="417" 
d="M391 31v-155h-41v124h-315v500h41v-468h102v468h41v-468h102v468h41v-468z" />
    <glyph glyph-name="uni044C" unicode="&#x44c;" horiz-adv-x="275" 
d="M160 293q44 0 65.5 -22t21.5 -62v-126q0 -47 -24.5 -65t-70.5 -18h-115v500h41v-206zM78 32h72q32 0 44 14t12 56v90q0 42 -12 56t-44 14h-72v-230z" />
    <glyph glyph-name="uni044A" unicode="&#x44a;" horiz-adv-x="305" 
d="M189 293q44 0 65.5 -22t21.5 -62v-126q0 -47 -24.5 -65t-70.5 -18h-115v468h-40v32h81v-206zM107 32h72q32 0 44 14t12 56v90q0 42 -12 56t-44 14h-72v-230z" />
    <glyph glyph-name="uni044B" unicode="&#x44b;" horiz-adv-x="369" 
d="M300 0v500h41v-500h-41zM160 293q44 0 65.5 -22t21.5 -62v-126q0 -47 -24.5 -65t-70.5 -18h-115v500h41v-206zM78 32h72q32 0 44 14t12 56v90q0 42 -12 56t-44 14h-72v-230z" />
    <glyph glyph-name="uni044D" unicode="&#x44d;" horiz-adv-x="266" 
d="M27 414q0 46 26 67t72 21h15q46 0 71.5 -21t25.5 -67v-335q0 -46 -25.5 -67t-71.5 -21h-15q-46 0 -72 21t-26 67v49h41v-35q0 -42 12 -56t44 -14h17q31 0 42.5 14.5t11.5 56.5v161h-97v32h97v115q0 42 -11.5 56.5t-42.5 14.5h-17q-32 0 -44 -14t-12 -56v-35h-41v46z" />
    <glyph glyph-name="uni044E" unicode="&#x44e;" horiz-adv-x="394" 
d="M260 505q46 0 72 -21t26 -67v-335q0 -46 -26 -67t-72 -21h-15q-46 0 -71.5 21t-25.5 67v173h-54v-255h-41v500h41v-213h54v130q0 46 25.5 67t71.5 21h15zM244 476q-31 0 -42.5 -14.5t-11.5 -56.5v-307q0 -42 11.5 -56.5t42.5 -14.5h17q32 0 44 14t12 56v307q0 42 -12 56
t-44 14z" />
    <glyph glyph-name="uni044F" unicode="&#x44f;" horiz-adv-x="273" 
d="M197 1v249h-72q-32 0 -44 -14t-12 -56v-179h-41v190q0 29 11.5 48.5t38.5 26.5q-25 7 -37 26t-12 48v76q0 48 24.5 66t70.5 18h114v-500zM127 469q-32 0 -44 -14t-12 -56v-47q0 -41 11.5 -55.5t42.5 -14.5h72v188z" />
    <glyph glyph-name="zero" unicode="0" horiz-adv-x="258" 
d="M120 700q48 0 74.5 -21t26.5 -67v-524q0 -46 -26.5 -67t-74.5 -21h-20q-48 0 -74 21t-26 67v524q0 46 26 67t74 21h20zM100 667q-34 0 -46 -14t-12 -55v-493q0 -42 12 -56.5t46 -14.5h20q34 0 46.5 14.5t12.5 55.5v493q0 41 -12.5 55.5t-46.5 14.5h-20z" />
    <glyph glyph-name="one" unicode="1" horiz-adv-x="115" 
d="M36 0v667h-36v33h78v-700h-42z" />
    <glyph glyph-name="two" unicode="2" horiz-adv-x="265" 
d="M123 700q48 0 74 -21t26 -67v-108q0 -55 -32 -96l-118 -195q-31 -40 -31 -93v-87h186v-33h-228v128q0 55 32 96l118 196q31 40 31 93v86q0 42 -12 56.5t-46 14.5h-16q-34 0 -46.5 -14.5t-12.5 -55.5v-54h-42v69q0 46 26.5 65.5t74.5 19.5h16z" />
    <glyph glyph-name="three" unicode="3" horiz-adv-x="263" 
d="M121 700q48 0 73.5 -20t26.5 -65v-173q0 -29 -11.5 -47.5t-36.5 -25.5q29 -7 41 -27.5t12 -49.5v-204q0 -45 -25 -66t-73 -22h-29q-48 1 -73.5 22t-25.5 66v69h42v-54q0 -42 12.5 -56t47.5 -14h22q34 0 46.5 14.5t12.5 55.5v178q0 41 -12.5 55.5t-46.5 14.5h-36v33h35
q31 1 42.5 15.5t11.5 54.5v143q0 41 -12.5 55.5t-46.5 14.5h-14q-34 0 -46.5 -14.5t-12.5 -55.5v-54h-42v69q0 46 26.5 67t74.5 21h17z" />
    <glyph glyph-name="four" unicode="4" horiz-adv-x="293" 
d="M222 242h34v-33h-34v-209h-41v209h-181v33l158 458h64v-458zM119 476l-81 -234h143v417h-2z" />
    <glyph glyph-name="five" unicode="5" horiz-adv-x="262" 
d="M62 667v-265h63q48 0 74 -21t26 -67v-226q0 -46 -26 -67t-74 -21h-24q-48 0 -74.5 21t-26.5 67v69h42v-54q0 -41 12.5 -55.5t46.5 -14.5h31q29 2 40 17t11 54v195q0 41 -12.5 55.5t-46.5 14.5h-104v331h186v-33h-144z" />
    <glyph glyph-name="six" unicode="6" horiz-adv-x="261" 
d="M223 88q0 -46 -26.5 -67t-74.5 -21h-22q-48 1 -74 22t-25 66v524q0 46 26 67t74 21h22q48 0 74.5 -21t26.5 -67v-69h-42v54q0 41 -12.5 55.5t-46.5 14.5h-20q-34 0 -46 -14.5t-12 -56.5v-184q21 10 55 10h22q48 0 74.5 -21t26.5 -67v-246zM182 103v215v-215zM182 318
q0 41 -12.5 55.5t-46.5 14.5h-20q-34 0 -46 -14.5t-12 -55.5v-107v-39t-0.5 -34t-0.5 -24v-9q0 -42 12.5 -56.5t46.5 -14.5h20q34 0 46.5 14.5t12.5 55.5v214z" />
    <glyph glyph-name="seven" unicode="7" horiz-adv-x="258" 
d="M55 0h-42l167 667h-180v33h221v-33z" />
    <glyph glyph-name="eight" unicode="8" horiz-adv-x="262" 
d="M120 676q48 0 73.5 -20t26.5 -65v-149q0 -29 -11.5 -47.5t-36.5 -25.5q29 -7 41 -27.5t12 -49.5v-204q0 -47 -26 -67t-71 -21h-30q-48 1 -73 22t-25 66v204q0 29 12 49.5t41 27.5q-25 7 -36.5 25.5t-11.5 47.5v149q1 45 26.5 65t72.5 20h16zM108 643q-34 0 -46.5 -14.5
t-12.5 -55.5v-119q0 -40 11.5 -54.5t42.5 -15.5h27q28 2 38.5 17t10.5 53v119q0 41 -12.5 55.5t-46.5 14.5h-12zM96 350q-30 0 -41 -15.5t-11 -54.5v-178q0 -39 11 -54.5t48 -15.5h22q35 0 47.5 14t12.5 56v178q0 41 -12.5 55.5t-46.5 14.5h-30z" />
    <glyph glyph-name="nine" unicode="9" horiz-adv-x="259" 
d="M122 678q48 -1 74 -22t25 -66v-502q0 -46 -26 -67t-74 -21h-20q-48 0 -74.5 21t-26.5 67v69h42v-54q0 -41 12.5 -55.5t46.5 -14.5h20q34 0 46 14.5t12 56.5v179q-18 -27 -67 -27h-19q-44 0 -68 21t-24 67v246q0 46 26.5 67t74.5 21h20zM99 645q-34 0 -46.5 -15t-12.5 -57
v-216q0 -41 12.5 -55.5t46.5 -14.5h20q34 0 47 14.5t13 56.5v216q0 42 -12.5 56.5t-46.5 14.5h-21z" />
    <glyph glyph-name="fraction" unicode="&#x2044;" horiz-adv-x="406" 
d="M41 0l289 700h34l-289 -700h-34z" />
    <glyph glyph-name="onehalf" unicode="&#xbd;" horiz-adv-x="455" 
d="M85 362v310h-20v28h53v-338h-33zM42 0l289 700h34l-289 -700h-34zM359 344q51 0 51 -45v-55q0 -29 -16 -49l-63 -85q-16 -20 -16 -47v-36h98v-28h-132v68q0 29 16 49l64 85q16 20 16 47v40q0 28 -22 28h-14q-22 0 -22 -28v-28h-33v40q0 45 52 45z" />
    <glyph glyph-name="onequarter" unicode="&#xbc;" horiz-adv-x="410" 
d="M41 0l289 700h34l-289 -700h-34zM84 362v310h-20v28h53v-338h-33zM366 106v-28h-17v-78h-34v78h-94v28l75 232h53v-232h17zM305 272l-55 -166h65v207h-1z" />
    <glyph glyph-name="threequarters" unicode="&#xbe;" horiz-adv-x="452" 
d="M81 0l289 700h34l-289 -700h-34zM114 699q50 0 51 -43v-74q0 -30 -24 -37q14 -3 20 -13.5t6 -24.5v-102q0 -44 -49 -44h-29q-49 0 -49 44v40h34v-28q0 -28 22 -28h17q21 0 21 28v83q0 18 -5 25t-16 7h-23v28h23q19 0 19 32v52q0 28 -21 28h-13q-21 0 -21 -28v-28h-34v40
q0 44 50 44zM408 105v-28h-17v-78h-34v78h-94v28l75 232h53v-232h17zM347 271l-55 -166h65v207h-1z" />
    <glyph glyph-name="two.dnom" horiz-adv-x="216" 
d="M120 344q51 0 51 -45v-55q0 -29 -16 -49l-63 -85q-16 -20 -16 -47v-36h98v-28h-132v68q0 29 16 49l64 85q16 20 16 47v40q0 28 -22 28h-14q-22 0 -22 -28v-28h-33v40q0 45 52 45z" />
    <glyph glyph-name="four.dnom" horiz-adv-x="228" 
d="M186 106v-28h-17v-78h-34v78h-94v28l75 232h53v-232h17zM125 272l-55 -166h65v207h-1z" />
    <glyph glyph-name="one.numr" horiz-adv-x="137" 
d="M62 362v310h-20v28h53v-338h-33z" />
    <glyph glyph-name="three.numr" horiz-adv-x="211" 
d="M115 699q50 0 51 -43v-74q0 -30 -24 -37q14 -3 20 -13.5t6 -24.5v-102q0 -44 -49 -44h-29q-49 0 -49 44v40h34v-28q0 -28 22 -28h17q21 0 21 28v83q0 18 -5 25t-16 7h-23v28h23q19 0 19 32v52q0 28 -21 28h-13q-21 0 -21 -28v-28h-34v40q0 44 50 44z" />
    <glyph glyph-name="asterisk" unicode="*" horiz-adv-x="329" 
d="M278 634l14 -40l-115 -35l72 -97l-34 -24l-69 98l-69 -98l-34 24l72 97l-115 35l13 40l114 -38l-2 120h42l-2 -120z" />
    <glyph glyph-name="backslash" unicode="\" horiz-adv-x="360" 
d="M323 0h-34l-289 700h34z" />
    <glyph glyph-name="bullet" unicode="&#x2022;" horiz-adv-x="321" 
d="M160 429q25 0 46.5 -9t37.5 -25t25 -37.5t9 -45.5q0 -25 -9 -46.5t-25 -37.5t-37.5 -25t-46.5 -9t-46.5 9t-37.5 25t-25 37.5t-9 46.5q0 24 9 45.5t25 37.5t37.5 25t46.5 9z" />
    <glyph glyph-name="colon" unicode=":" horiz-adv-x="82" 
d="M0 337v62h45v-62h-45zM0 0v62h45v-62h-45z" />
    <glyph glyph-name="comma" unicode="," horiz-adv-x="99" 
d="M0 -62l17 123h45l-34 -123h-28z" />
    <glyph glyph-name="ellipsis" unicode="&#x2026;" horiz-adv-x="339" 
d="M42 0v62h45v-62h-45zM147 0v62h45v-62h-45zM252 0v62h45v-62h-45z" />
    <glyph glyph-name="exclam" unicode="!" horiz-adv-x="82" 
d="M40 178h-35l-4 322v201h42v-201zM0 0v62h45v-62h-45z" />
    <glyph glyph-name="exclamdown" unicode="&#xa1;" horiz-adv-x="129" 
d="M42 477v62h45v-62h-45zM84 -163h-41v201l4 322h34l4 -321z" />
    <glyph glyph-name="numbersign" unicode="#" horiz-adv-x="364" 
d="M327 444l-7 -33h-69l-30 -144h69l-7 -33h-69l-50 -234h-41l50 234h-63l-50 -234h-41l50 234h-69l7 33h69l30 144h-68l7 33h69l54 255h41l-54 -255h62l55 255h41l-55 -255h69zM117 267h63l30 144h-63z" />
    <glyph glyph-name="period" unicode="." horiz-adv-x="82" 
d="M0 0v62h45v-62h-45z" />
    <glyph glyph-name="periodcentered" unicode="&#xb7;" horiz-adv-x="129" 
d="M42 286v62h45v-62h-45z" />
    <glyph glyph-name="question" unicode="?" horiz-adv-x="256" 
d="M119 700q48 0 74 -21t26 -67v-74q0 -31 -11 -54l-78 -153q-11 -22 -11 -51v-72h-42v77q0 14 2 27t8 26l78 155q6 12 8 24t2 26v54q0 42 -12 56.5t-46 14.5h-16q-34 0 -46.5 -14.5t-12.5 -55.5v-54h-42v69q0 46 26.5 66.5t74.5 20.5h18zM77 0v62h45v-62h-45z" />
    <glyph glyph-name="questiondown" unicode="&#xbf;" horiz-adv-x="301" 
d="M139 480v62h45v-62h-45zM182 256q0 -14 -2 -27t-8 -26l-78 -161q-6 -12 -8 -24t-2 -26v-54q0 -42 12 -56.5t46 -14.5h16q34 0 46.5 14.5t12.5 56.5v54h42v-69q0 -46 -26.5 -67t-74.5 -21h-17q-48 0 -74 21t-26 67v74q0 31 11 54l78 159q11 22 11 51v72h42z" />
    <glyph glyph-name="quotedbl" unicode="&#x22;" horiz-adv-x="169" 
d="M6 560l-6 140h42l-6 -140h-30zM96 560l-6 140h42l-6 -140h-30z" />
    <glyph glyph-name="quotesingle" unicode="'" horiz-adv-x="79" 
d="M6 560l-6 140h42l-6 -140h-30z" />
    <glyph glyph-name="semicolon" unicode=";" horiz-adv-x="99" 
d="M17 337v62h45v-62h-45zM0 -62l17 123h45l-34 -123h-28z" />
    <glyph glyph-name="slash" unicode="/" horiz-adv-x="360" 
d="M0 0l289 700h34l-289 -700h-34z" />
    <glyph glyph-name="underscore" unicode="_" horiz-adv-x="337" 
d="M0 -99v33h300v-33h-300z" />
    <glyph glyph-name="braceleft" unicode="{" horiz-adv-x="212" 
d="M166 716q-32 0 -44 -14.5t-12 -55.5v-264q0 -58 -45 -78q45 -20 45 -78v-263q0 -41 12 -55.5t44 -14.5h9v-33h-17q-43 0 -66.5 21.5t-23.5 66.5v247q0 27 -3 45t-10.5 28.5t-21 15t-33.5 4.5v33q20 0 33.5 4.5t21 15t10.5 28.5t3 45v249q0 45 23.5 66.5t66.5 21.5h17v-33
z" />
    <glyph glyph-name="braceright" unicode="}" horiz-adv-x="212" 
d="M17 752q43 0 66.5 -21.5t23.5 -66.5v-249q0 -27 3 -45t10.5 -28.5t21 -15t33.5 -4.5v-33q-20 0 -33.5 -4.5t-21 -15t-10.5 -28.5t-3 -45v-247q0 -45 -23.5 -66.5t-66.5 -21.5h-17v33h9q32 0 44 14.5t12 55.5v263q0 58 45 78q-45 20 -45 78v264q0 41 -12 55.5t-44 14.5h-9
v33z" />
    <glyph glyph-name="bracketleft" unicode="[" horiz-adv-x="125" 
d="M42 718v-825h46v-33h-88v890h88v-32h-46z" />
    <glyph glyph-name="bracketright" unicode="]" horiz-adv-x="125" 
d="M0 -140v33h46v825h-46v32h88v-890h-88z" />
    <glyph glyph-name="parenleft" unicode="(" horiz-adv-x="145" 
d="M99 716q-33 0 -45 -14.5t-12 -55.5v-683q0 -41 12 -55.5t45 -14.5h8v-33h-16q-43 0 -67 21.5t-24 66.5v714q0 46 24 67t68 21h16v-33z" />
    <glyph glyph-name="parenright" unicode=")" horiz-adv-x="144" 
d="M16 751q43 0 67 -21t24 -67v-714q0 -45 -24 -66.5t-67 -21.5h-16v33h8q33 0 45 14.5t12 55.5v683q0 41 -12 55.5t-45 14.5h-8v33z" />
    <glyph glyph-name="emdash" unicode="&#x2014;" horiz-adv-x="484" 
d="M42 260v33h400v-33h-400z" />
    <glyph glyph-name="endash" unicode="&#x2013;" horiz-adv-x="384" 
d="M42 260v33h300v-33h-300z" />
    <glyph glyph-name="hyphen" unicode="-" horiz-adv-x="237" 
d="M0 260v33h200v-33h-200z" />
    <glyph glyph-name="guillemotleft" unicode="&#xab;" horiz-adv-x="300" 
d="M68 282l73 -69v-55l-99 96v58l99 96v-55zM185 281l73 -69v-55l-99 96v58l99 96v-55z" />
    <glyph glyph-name="guillemotright" unicode="&#xbb;" horiz-adv-x="300" 
d="M141 253l-99 -96v55l73 70l-73 71v55l99 -96v-59zM258 252l-99 -96v55l73 70l-73 71v55l99 -96v-59z" />
    <glyph glyph-name="guilsinglleft" unicode="&#x2039;" horiz-adv-x="183" 
d="M68 282l73 -69v-55l-99 96v58l99 96v-55z" />
    <glyph glyph-name="guilsinglright" unicode="&#x203a;" horiz-adv-x="183" 
d="M141 253l-99 -96v55l73 70l-73 71v55l99 -96v-59z" />
    <glyph glyph-name="quotedblbase" unicode="&#x201e;" horiz-adv-x="218" 
d="M42 -62l17 123h45l-34 -123h-28zM115 -62l17 123h45l-34 -123h-28z" />
    <glyph glyph-name="quotedblleft" unicode="&#x201c;" horiz-adv-x="218" 
d="M41 700h29l34 -123h-45zM112 700h29l34 -123h-45z" />
    <glyph glyph-name="quotedblright" unicode="&#x201d;" horiz-adv-x="218" 
d="M42 577l17 123h45l-34 -123h-28zM115 577l17 123h45l-34 -123h-28z" />
    <glyph glyph-name="quoteleft" unicode="&#x2018;" horiz-adv-x="146" 
d="M103 577h-45l-17 123h29z" />
    <glyph glyph-name="quoteright" unicode="&#x2019;" horiz-adv-x="146" 
d="M42 577l17 123h45l-34 -123h-28z" />
    <glyph glyph-name="quotesinglbase" unicode="&#x201a;" horiz-adv-x="146" 
d="M42 -62l17 123h45l-34 -123h-28z" />
    <glyph glyph-name="Abreve" unicode="&#x102;" horiz-adv-x="273" 
d="M196 783q0 -22 -17.5 -35t-53.5 -13h-16q-35 0 -52.5 13t-17.5 35v43h36v-20q0 -24 6 -34.5t30 -10.5h13q24 0 30 10.5t6 35.5v19h36v-43zM196 0l-29 245h-98l-29 -245h-40l85 700h66l85 -700h-40zM106 560l-33 -282h92l-33 282l-13 111h-2z" />
    <glyph glyph-name="cent" unicode="&#xa2;" horiz-adv-x="293" 
d="M165 506q40 -2 62.5 -23t22.5 -64v-49h-41v35q0 42 -12 56t-44 14h-17q-31 0 -42.5 -14.5t-11.5 -56.5v-307q0 -42 12 -56.5t43 -14.5h17q32 0 44 14t12 56v35h41v-49q0 -43 -22.5 -64t-62.5 -23v-93h-41v93q-39 2 -61 23t-22 64v335q0 43 22 64t61 23v97h41z" />
    <glyph glyph-name="dollar" unicode="$" horiz-adv-x="265" 
d="M180 607q0 41 -12.5 55.5t-46.5 14.5h-16q-34 0 -46 -14.5t-12 -56.5v-48q0 -53 31 -93l118 -180q32 -44 32 -97v-105q0 -44 -24 -64.5t-69 -22.5v-44h-41v44q-45 2 -69.5 22.5t-24.5 65.5v69h42v-54q0 -41 12.5 -55.5t46.5 -14.5h26q34 0 46 14.5t12 56.5v82
q0 53 -31 93l-118 180q-32 44 -32 97v71q0 43 23 64t65 23v45h41v-45q42 -2 65 -23t23 -64v-69h-42z" />
    <glyph glyph-name="Euro" unicode="&#x20ac;" horiz-adv-x="336" 
d="M193 708q48 0 74.5 -21t26.5 -67v-69h-42v54q0 41 -12.5 55.5t-46.5 14.5h-20q-34 0 -46 -14.5t-12 -56.5v-180h136l-19 -33h-117v-56h85l-19 -34h-66v-203q0 -42 12 -56.5t46 -14.5h20q34 0 46.5 14.5t12.5 55.5v54h42v-69q0 -46 -26.5 -67t-74.5 -21h-20q-48 0 -74 21
t-26 67v218h-31v34h31v56h-31v33h31v195q0 46 26 67t74 21z" />
    <glyph glyph-name="sterling" unicode="&#xa3;" horiz-adv-x="336" 
d="M194 707q48 0 74.5 -21t26.5 -67v-69h-42v54q0 41 -12.5 55.5t-46.5 14.5h-20q-34 0 -46 -14.5t-12 -56.5v-236h103v-34h-103v-298h160v-34h-234v34h31v298h-31v34h31v251q0 46 26 67t74 21z" />
    <glyph glyph-name="yen" unicode="&#xa5;" horiz-adv-x="308" 
d="M257 407v-34h-56l-19 -89h75v-34h-80v-250h-43v250h-81v34h75l-19 90h-56v34h50l-60 292h40l72 -382l72 382h40l-60 -292z" />
    <glyph glyph-name="approxequal" unicode="&#x2248;" horiz-adv-x="387" 
d="M40 335q0 25 13 41q9 12 25 15q8 2 18 0.5t19 -4.5l154 -54q17 -7 28 -1q5 2 7.5 9t2.5 15v33h37v-38q0 -27 -14 -43q-7 -10 -22 -12q-17 -2 -35 5l-158 56q-8 3 -15.5 3t-12.5 -6q-8 -10 -8 -24v-33h-37zM38 223q0 25 13 41q9 12 25 15q8 2 18 0.5t19 -4.5l154 -54
q17 -7 28 -1q5 2 7.5 9t2.5 15v33h37v-38q0 -27 -14 -43q-7 -10 -22 -12q-17 -2 -35 5l-158 56q-8 3 -15.5 3t-12.5 -6q-8 -10 -8 -24v-33h-37z" />
    <glyph glyph-name="asciitilde" unicode="~" horiz-adv-x="341" 
d="M0 300q0 25 13 41q9 12 25 15q8 2 18 0.5t19 -4.5l154 -54q17 -7 28 -1q5 2 7.5 9t2.5 15v33h37v-38q0 -27 -14 -43q-7 -10 -22 -12q-17 -2 -35 5l-158 56q-8 3 -15.5 3t-12.5 -6q-8 -10 -8 -24v-33h-37z" />
    <glyph glyph-name="divide" unicode="&#xf7;" horiz-adv-x="434" 
d="M196 383v62h45v-62h-45zM42 240v33h350v-33h-350zM196 67v62h45v-62h-45z" />
    <glyph glyph-name="equal" unicode="=" horiz-adv-x="387" 
d="M0 405v33h350v-33h-350zM0 258v33h350v-33h-350z" />
    <glyph glyph-name="greater" unicode="&#x3e;" horiz-adv-x="287" 
d="M250 329l-250 -190v46l207 156l-207 157v46l250 -190v-25z" />
    <glyph glyph-name="greaterequal" unicode="&#x2265;" horiz-adv-x="334" 
d="M292 329l-250 -190v46l207 156l-207 157v46l250 -190v-25zM42 0v33h250v-33h-250z" />
    <glyph glyph-name="less" unicode="&#x3c;" horiz-adv-x="287" 
d="M43 341l207 -156v-46l-250 190v25l250 190v-46z" />
    <glyph glyph-name="lessequal" unicode="&#x2264;" horiz-adv-x="334" 
d="M85 341l207 -156v-46l-250 190v25l250 190v-46zM42 0v33h250v-33h-250z" />
    <glyph glyph-name="logicalnot" unicode="&#xac;" horiz-adv-x="410" 
d="M326 176v112h-284v33h326v-145h-42z" />
    <glyph glyph-name="minus" unicode="&#x2212;" horiz-adv-x="434" 
d="M42 289v33h350v-33h-350z" />
    <glyph glyph-name="multiply" unicode="&#xd7;" horiz-adv-x="355" 
d="M201 308l112 -112l-23 -23l-112 112l-112 -112l-23 23l112 112l-112 112l23 23l112 -112l112 112l23 -23z" />
    <glyph glyph-name="notequal" unicode="&#x2260;" horiz-adv-x="452" 
d="M398 438v-33h-123l-51 -114h175v-33h-190l-116 -258h-42l116 258h-119v33h133l51 114h-185v33h200l118 262h42l-118 -262h109z" />
    <glyph glyph-name="percent" unicode="%" horiz-adv-x="421" 
d="M73 706q26 0 40.5 -11.5t14.5 -37.5v-207q0 -26 -14.5 -37.5t-40.5 -11.5h-19q-26 0 -40 11.5t-14 37.5v207q0 26 14 37.5t40 11.5h19zM13 0l323 700h34l-323 -700h-34zM58 678q-14 0 -20 -8t-6 -28v-178q0 -20 6 -28t20 -8h9q14 0 20 8t6 28v178q0 20 -6 28t-20 8h-9z
M329 300q26 0 40.5 -11.5t14.5 -37.5v-207q0 -26 -14.5 -37.5t-40.5 -11.5h-19q-26 0 -40 11.5t-14 37.5v207q0 26 14 37.5t40 11.5h19zM315 272q-14 0 -20 -8t-6 -28v-178q0 -20 6 -28t20 -8h9q14 0 20 8t6 28v178q0 20 -6 28t-20 8h-9z" />
    <glyph glyph-name="perthousand" unicode="&#x2030;" horiz-adv-x="642" 
d="M115 706q26 0 40.5 -11.5t14.5 -37.5v-207q0 -26 -14.5 -37.5t-40.5 -11.5h-19q-26 0 -40 11.5t-14 37.5v207q0 26 14 37.5t40 11.5h19zM55 0l323 700h34l-323 -700h-34zM100 678q-14 0 -20 -8t-6 -28v-178q0 -20 6 -28t20 -8h9q14 0 20 8t6 28v178q0 20 -6 28t-20 8h-9z
M371 300q26 0 40.5 -11.5t14.5 -37.5v-207q0 -26 -14.5 -37.5t-40.5 -11.5h-19q-26 0 -40 11.5t-14 37.5v207q0 26 14 37.5t40 11.5h19zM544 300q26 0 40.5 -11.5t14.5 -37.5v-207q0 -26 -14.5 -37.5t-40.5 -11.5h-19q-26 0 -40 11.5t-14 37.5v207q0 26 14 37.5t40 11.5h19z
M357 272q-14 0 -20 -8t-6 -28v-178q0 -20 6 -28t20 -8h9q14 0 20 8t6 28v178q0 20 -6 28t-20 8h-9zM530 272q-14 0 -20 -8t-6 -28v-178q0 -20 6 -28t20 -8h9q14 0 20 8t6 28v178q0 20 -6 28t-20 8h-9z" />
    <glyph glyph-name="plus" unicode="+" horiz-adv-x="387" 
d="M350 329v-33h-154v-159h-42v159h-154v33h154v159h42v-159h154z" />
    <glyph glyph-name="plusminus" unicode="&#xb1;" horiz-adv-x="434" 
d="M392 371v-33h-154v-147h-42v147h-154v33h154v146h42v-146h154zM42 107v33h350v-33h-350z" />
    <glyph glyph-name="ampersand" unicode="&#x26;" horiz-adv-x="286" 
d="M106 671q-34 0 -46 -14.5t-12 -56.5v-129q0 -40 11.5 -54.5t42.5 -15.5h82v174h42v-174h23v-33h-23v-280q0 -45 -25.5 -66t-73.5 -22h-29q-53 1 -75.5 24t-22.5 65v221q0 29 12 49.5t41 27.5q-25 7 -36.5 25.5t-11.5 47.5v158q1 45 26.5 65t73.5 20h47v-33zM102 370
q-34 0 -46.5 -14.5t-12.5 -55.5v-195q0 -31 8.5 -50t41.5 -21h31q34 0 46.5 14.5t12.5 55.5v265z" />
    <glyph glyph-name="asciicircum" unicode="^" horiz-adv-x="339" 
d="M260 375l-109 228l-109 -228h-42l151 308l151 -308h-42z" />
    <glyph glyph-name="at" unicode="@" horiz-adv-x="500" 
d="M371 701q44 0 68 -21t24 -67v-440q0 -38 -19.5 -55.5t-51.5 -17.5h-28q-23 0 -39 9t-24 28q-17 -37 -71 -37h-15q-42 0 -65.5 21t-23.5 67v335q0 46 23.5 67t65.5 21h15q51 0 70 -35l8 29h28v-420q0 -29 8.5 -40t27.5 -11h12q20 0 28.5 11t8.5 41v413q0 41 -12.5 55.5
t-46.5 14.5h-262q-34 0 -46 -14.5t-12 -56.5v-494q0 -42 12 -56.5t46 -14.5h261v-33h-269q-44 0 -68 21t-24 67v524q0 46 24 67t68 21zM223 579q-32 0 -44 -14t-12 -56v-307q0 -42 12 -56t44 -14h17q29 0 41 13t13 49v323q-1 36 -13 49t-41 13h-17z" />
    <glyph glyph-name="bar" unicode="|" horiz-adv-x="79" 
d="M0 -60v760h42v-760h-42z" />
    <glyph glyph-name="brokenbar" unicode="&#xa6;" horiz-adv-x="126" 
d="M42 380v320h42v-320h-42zM42 -60v320h42v-320h-42z" />
    <glyph glyph-name="copyright" unicode="&#xa9;" horiz-adv-x="375" 
d="M246 704q42 0 64.5 -18t22.5 -58v-261q0 -40 -22.5 -58t-64.5 -18h-117q-42 0 -64.5 18.5t-22.5 58.5v261q0 40 22.5 58.5t64.5 18.5zM132 677q-33 0 -45 -14t-12 -55v-221q0 -41 12 -55t45 -14h110q34 0 46 14t12 55v221q0 41 -12 55t-46 14h-110zM196 648
q26 0 41.5 -12.5t15.5 -39.5v-38h-34v25q0 21 -6.5 29t-20.5 8h-9q-14 0 -20 -8t-6 -28v-176q0 -20 6 -28t20 -8h9q14 0 20.5 8t6.5 29v25h34v-38q0 -27 -15.5 -39.5t-41.5 -12.5h-17q-26 0 -41 12.5t-15 39.5v202q0 27 15 39.5t41 12.5z" />
    <glyph glyph-name="dagger" unicode="&#x2020;" horiz-adv-x="314" 
d="M272 499v-33h-94v-526h-42v526h-94v33h94v201h42v-201h94z" />
    <glyph glyph-name="daggerdbl" unicode="&#x2021;" horiz-adv-x="314" 
d="M272 499v-33h-94v-292h94v-33h-94v-201h-42v201h-94v33h94v292h-94v33h94v201h42v-201h94z" />
    <glyph glyph-name="degree" unicode="&#xb0;" horiz-adv-x="321" 
d="M160 706q25 0 46.5 -9.5t37.5 -25.5t25.5 -37.5t9.5 -45.5q0 -25 -9.5 -46.5t-25.5 -37.5t-37.5 -25.5t-46.5 -9.5q-24 0 -45.5 9.5t-37.5 25.5t-25.5 37.5t-9.5 46.5q0 24 9.5 45.5t25.5 37.5t37.5 25.5t45.5 9.5zM159 671q-35 0 -59 -25t-24 -60q0 -17 6.5 -32.5
t18 -27.5t26.5 -19t33 -7t33 7t26.5 19t18 27.5t6.5 33.5q0 35 -24.5 60.5t-59.5 25.5z" />
    <glyph glyph-name="paragraph" unicode="&#xb6;" horiz-adv-x="431" 
d="M353 666v-829h-42v829h-76v-829h-42v471h-58q-42 0 -67 21t-25 67v216q0 46 25 67t67 21h255v-34h-37z" />
    <glyph glyph-name="registered" unicode="&#xae;" horiz-adv-x="375" 
d="M246 704q42 0 64.5 -18t22.5 -58v-261q0 -40 -22.5 -58t-64.5 -18h-117q-42 0 -64.5 18.5t-22.5 58.5v261q0 40 22.5 58.5t64.5 18.5zM132 677q-33 0 -45 -14t-12 -55v-221q0 -41 12 -55t45 -14h110q34 0 46 14t12 55v221q0 41 -12 55t-46 14h-110zM193 649q24 0 36.5 -9
t12.5 -32v-65q0 -31 -23 -36q26 -6 26 -37v-127h-33v122q0 26 -15 28h-32v-149h-34v306zM164 519h29q7 1 11 7.5t4 21.5v49q0 24 -18 24h-26v-102z" />
    <glyph glyph-name="section" unicode="&#xa7;" horiz-adv-x="311" 
d="M160 704q48 0 74.5 -21t26.5 -67v-69h-42v54q0 41 -12.5 55.5t-46.5 14.5h-12q-34 0 -46 -14.5t-12 -56.5v-38q0 -26 8 -49.5t26 -42.5l113 -117q18 -19 26 -43t8 -50v-32q0 -25 -8 -41t-28 -33q20 -23 28 -47.5t8 -51.5v-59q0 -46 -26 -67t-74 -21h-26q-48 0 -74.5 21
t-26.5 67v69h42v-54q0 -42 12.5 -56.5t46.5 -14.5h25q34 0 46 14.5t12 56.5v38q0 26 -8 49.5t-26 42.5l-113 117q-18 19 -26 43t-8 50v32q0 25 8 41t28 33q-20 23 -28 47.5t-8 51.5v60q0 46 26 67t74 21h13zM108 431q-11 -7 -15 -23t-4 -48q0 -24 7.5 -46t24.5 -39l88 -90
q11 7 15 23t4 48q0 24 -7.5 46t-24.5 39z" />
    <glyph glyph-name="trademark" unicode="&#x2122;" horiz-adv-x="452" 
d="M131 671v-377h-33v378h-56v28h145v-28zM377 294v234l2 129h-2l-49 -364h-36l-49 364h-2l2 -130v-234h-33v405h50l26 -192l23 -168h3l23 168l26 192h50v-405z" />
    <glyph glyph-name="acute" unicode="&#xb4;" horiz-adv-x="146" 
d="M42 610l17 90h45l-34 -90h-28z" />
    <glyph glyph-name="breve" unicode="&#x2d8;" horiz-adv-x="241" 
d="M200 657q0 -22 -18 -35t-54 -13h-16q-35 0 -52.5 13t-17.5 35v42h36v-19q0 -24 6 -34.5t30 -10.5h13q24 0 30 10.5t6 35.5v19h36z" />
    <glyph glyph-name="caron" unicode="&#x2c7;" horiz-adv-x="245" 
d="M105 610l-62 90h37l43 -60l43 60h37l-62 -90h-36z" />
    <glyph glyph-name="cedilla" unicode="&#xb8;" horiz-adv-x="198" 
d="M101 -41q25 0 40.5 -12t16.5 -42v-12q0 -30 -16 -43t-42 -13h-57v27h53q11 0 19.5 6.5t8.5 23.5v8q-1 17 -9 23t-20 6h-31v69h26v-42z" />
    <glyph glyph-name="circumflex" unicode="&#x2c6;" horiz-adv-x="245" 
d="M164 610l-43 60l-43 -60h-37l62 90h38l62 -90h-39z" />
    <glyph glyph-name="dieresis" unicode="&#xa8;" horiz-adv-x="235" 
d="M42 610v57h43v-57h-43zM151 610v57h43v-57h-43z" />
    <glyph glyph-name="dotaccent" unicode="&#x2d9;" horiz-adv-x="126" 
d="M42 610v57h43v-57h-43z" />
    <glyph glyph-name="grave" unicode="`" horiz-adv-x="99" 
d="M34 610l-34 90h45l17 -90h-28z" />
    <glyph glyph-name="hungarumlaut" unicode="&#x2dd;" horiz-adv-x="223" 
d="M42 610l17 90h45l-34 -90h-28zM120 610l17 90h45l-34 -90h-28z" />
    <glyph glyph-name="macron" unicode="&#xaf;" horiz-adv-x="284" 
d="M42 610v33h200v-33h-200z" />
    <glyph glyph-name="ogonek" unicode="&#x2db;" horiz-adv-x="186" 
d="M99 -24q-17 -23 -26.5 -47t4.5 -46q8 -12 23 -16.5t34 -4.5h10v-27h-20q-58 0 -77 43q-12 28 -1 55t30 48l16 19h26z" />
    <glyph glyph-name="ring" unicode="&#x2da;" horiz-adv-x="223" 
d="M128 705q53 0 53 -39v-37q0 -39 -53 -39h-34q-52 0 -52 39v37q0 39 52 39h34zM101 677q-16 0 -19.5 -6t-3.5 -21v-9q0 -15 3.5 -21t19.5 -6h20q16 0 19.5 6t3.5 22v9q0 16 -3.5 22t-19.5 6z" />
    <glyph glyph-name="tilde" unicode="&#x2dc;" horiz-adv-x="309" 
d="M265 651q0 -18 -7.5 -29t-19.5 -15q-13 -5 -29 -1.5t-31 14.5l-55 38q-29 21 -40 12q-7 -6 -7 -20v-35h-36v38q0 32 23 42q14 6 31.5 3.5t34.5 -14.5l55 -38q11 -8 19.5 -12t14.5 -2q12 3 12 21v35h37z" />
    <glyph glyph-name="commaaccentcomb" unicode="&#x326;" horiz-adv-x="0" 
d="M42 -180l17 90h45l-34 -90h-28z" />
    <glyph glyph-name="uni1EA3" unicode="&#x1ea3;" 
d="M113 500q46 0 71.5 -21t25.5 -67v-406h-28l-8 29q-19 -35 -70 -35h-15q-42 0 -65.5 21t-23.5 67v142q0 46 23.5 67t65.5 21h15q45 0 64 -26v107q0 42 -11.5 56.5t-42.5 14.5h-17q-32 0 -44 -14t-12 -56v-35h-41v49q0 46 26 66t72 20h15zM97 286q-32 0 -44 -14t-12 -55
v-114q0 -42 12 -56t44 -14h17q29 0 41 13t13 49v129q-1 36 -13 49t-41 13h-17zM98 591h-29v46q0 9 3 13.5t8 6.5q4 2 11 2h12h12q6 0 11 -2q4 -2 7.5 -6.5t3.5 -13.5v-46q0 -4 -3 -8l-15 -21q-2 -2 -2 -9v-18h-29v18q0 7 2 9l15 21q3 4 3 8v47q0 1 -1 3q-3 3 -4 3
q-2 0 -2.5 -1t-1.5 -2q-1 -2 -1 -3v-47z" />
    <glyph glyph-name="atilde" unicode="&#xe3;" 
d="M98 500q-46 0 -72 -20t-26 -66v-49h41v35q0 42 12 56t44 14h17q31 0 42.5 -14.5t11.5 -56.5v-107q-19 26 -64 26h-15q-42 0 -65.5 -21t-23.5 -67v-142q0 -46 23.5 -67t65.5 -21h15q51 0 70 35l8 -29h28v406q0 46 -25.5 67t-71.5 21h-15zM114 286q29 0 41 -13t13 -49v-129
q-1 -36 -13 -49t-41 -13h-17q-32 0 -44 14t-12 56v114q0 41 12 55t44 14h17zM79 577q5 0 8 -1.5t5 -3.5l27 -17q7 -4 13 -4h2q1 0 3 1q4 2 4 7v18h34v-15q1 -8 -2 -14q-2 -5 -7 -9t-14 -4h-20q-6 0 -13 4l-27 17q-2 2 -5 3.5t-8 1.5h-2q-2 0 -4 -1q-3 -2 -3 -7v-18h-34v18
q-1 7 2 12q2 5 6.5 8.5t14.5 3.5h20z" />
    <glyph glyph-name="uni1EA1" unicode="&#x1ea1;" 
d="M113 500q46 0 71.5 -21t25.5 -67v-406h-28l-8 29q-19 -35 -70 -35h-15q-42 0 -65.5 21t-23.5 67v142q0 46 23.5 67t65.5 21h15q45 0 64 -26v107q0 42 -11.5 56.5t-42.5 14.5h-17q-32 0 -44 -14t-12 -56v-35h-41v49q0 46 26 66t72 20h15zM97 286q-32 0 -44 -14t-12 -55
v-114q0 -42 12 -56t44 -14h17q29 0 41 13t13 49v129q-1 36 -13 49t-41 13h-17zM82 -97v62h45v-62h-45z" />
    <glyph glyph-name="uni1EA2" unicode="&#x1ea2;" horiz-adv-x="273" 
d="M196 0l-29 245h-98l-29 -245h-40l85 700h66l85 -700h-40zM106 560l-33 -282h92l-33 282l-13 111h-2zM113 791h-29v46q0 9 3 13.5t8 6.5q4 2 11 2h12h12q6 0 11 -2q4 -2 7.5 -6.5t3.5 -13.5v-46q0 -4 -3 -8l-15 -21q-2 -2 -2 -9v-18h-29v18q0 7 2 9l15 21q3 4 3 8v47
q0 1 -1 3q-3 3 -4 3q-2 0 -2.5 -1t-1.5 -2q-1 -2 -1 -3v-47z" />
    <glyph glyph-name="uni1EA0" unicode="&#x1ea0;" horiz-adv-x="273" 
d="M196 0l-29 245h-98l-29 -245h-40l85 700h66l85 -700h-40zM106 560l-33 -282h92l-33 282l-13 111h-2zM95 -97v62h45v-62h-45z" />
    <glyph glyph-name="uni1EAF" unicode="&#x1eaf;" 
d="M113 500q46 0 71.5 -21t25.5 -67v-406h-28l-8 29q-19 -35 -70 -35h-15q-42 0 -65.5 21t-23.5 67v142q0 46 23.5 67t65.5 21h15q45 0 64 -26v107q0 42 -11.5 56.5t-42.5 14.5h-17q-32 0 -44 -14t-12 -56v-35h-41v49q0 46 26 66t72 20h15zM97 287q-32 0 -44 -14t-12 -56
v-114q0 -42 12 -56t44 -14h17q29 0 41 13t13 49v129q-1 36 -13 49t-41 13zM183 571q0 -22 -17.5 -35t-53.5 -13h-16q-35 0 -52.5 13t-17.5 35v43h36v-20q0 -24 6 -34.5t30 -10.5h13q24 0 30 10.5t6 35.5v19h36v-43zM90 584l17 90h45l-34 -90h-28z" />
    <glyph glyph-name="uni1EB1" unicode="&#x1eb1;" 
d="M183 588q0 -22 -17.5 -35t-53.5 -13h-16q-35 0 -52.5 13t-17.5 35v43h36v-20q0 -24 6 -34.5t30 -10.5h13q24 0 30 10.5t6 35.5v19h36v-43zM113 517q46 0 71.5 -21t25.5 -67v-423h-28l-8 29q-19 -35 -70 -35h-15q-42 0 -65.5 21t-23.5 67v142q0 46 23.5 67t65.5 21h15
q45 0 64 -26v124q0 42 -11.5 56.5t-42.5 14.5h-17q-32 0 -44 -14t-12 -56v-35h-41v49q0 46 26 66t72 20h15zM97 287q-32 0 -44 -14t-12 -56v-114q0 -42 12 -56t44 -14h17q29 0 41 13t13 49v129q-1 36 -13 49t-41 13zM91 601l-34 90h45l17 -90h-28z" />
    <glyph glyph-name="uni1EB3" unicode="&#x1eb3;" 
d="M183 571q0 -22 -17.5 -35t-53.5 -13h-16q-35 0 -52.5 13t-17.5 35v43h36v-20q0 -24 6 -34.5t30 -10.5h13q24 0 30 10.5t6 35.5v19h36v-43zM113 500q46 0 71.5 -21t25.5 -67v-406h-28l-8 29q-19 -35 -70 -35h-15q-42 0 -65.5 21t-23.5 67v142q0 46 23.5 67t65.5 21h15
q45 0 64 -26v107q0 42 -11.5 56.5t-42.5 14.5h-17q-32 0 -44 -14t-12 -56v-35h-41v49q0 46 26 66t72 20h15zM97 287q-32 0 -44 -14t-12 -56v-114q0 -42 12 -56t44 -14h17q29 0 41 13t13 49v129q-1 36 -13 49t-41 13zM100 640h-29v46q0 9 3 13.5t8 6.5q4 2 11 2h12h12
q6 0 11 -2q4 -2 7.5 -6.5t3.5 -13.5v-46q0 -4 -3 -8l-15 -21q-2 -2 -2 -9v-18h-29v18q0 7 2 9l15 21q3 4 3 8v47q0 1 -1 3q-3 3 -4 3q-2 0 -2.5 -1t-1.5 -2q-1 -2 -1 -3v-47z" />
    <glyph glyph-name="uni1EB5" unicode="&#x1eb5;" 
d="M183 613h-36v-18q0 -25 -6 -35.5t-30 -10.5h-13q-24 0 -30 10.5t-6 34.5v19h-36v-42q0 -22 17.5 -35t52.5 -13h16q36 0 53.5 13t17.5 35v42zM98 500q-46 0 -72 -20t-26 -66v-49h41v35q0 42 12 56t44 14h17q31 0 42.5 -14.5t11.5 -56.5v-107q-19 26 -64 26h-15
q-42 0 -65.5 -21t-23.5 -67v-142q0 -46 23.5 -67t65.5 -21h15q51 0 70 35l8 -29h28v406q0 46 -25.5 67t-71.5 21h-15zM114 286q29 0 41 -13t13 -49v-129q-1 -36 -13 -49t-41 -13h-17q-32 0 -44 14t-12 56v114q0 42 12 56t44 14zM79 690q5 0 8 -1.5t5 -3.5l27 -17q7 -4 13 -4
h2q1 0 3 1q4 2 4 7v18h34v-15q1 -8 -2 -14q-2 -5 -7 -9t-14 -4h-20q-6 0 -13 4l-27 17q-2 2 -5 3.5t-8 1.5h-2q-2 0 -4 -1q-3 -2 -3 -7v-18h-34v18q-1 7 2 12q2 5 6.5 8.5t14.5 3.5h20z" />
    <glyph glyph-name="uni1EB7" unicode="&#x1eb7;" 
d="M183 571q0 -22 -17.5 -35t-53.5 -13h-16q-35 0 -52.5 13t-17.5 35v42h36v-19q0 -24 6 -34.5t30 -10.5h13q24 0 30 10.5t6 35.5v18h36v-42zM113 500q46 0 71.5 -21t25.5 -67v-406h-28l-8 29q-19 -35 -70 -35h-15q-42 0 -65.5 21t-23.5 67v142q0 46 23.5 67t65.5 21h15
q45 0 64 -26v107q0 42 -11.5 56.5t-42.5 14.5h-17q-32 0 -44 -14t-12 -56v-35h-41v49q0 46 26 66t72 20h15zM97 287q-32 0 -44 -14t-12 -56v-114q0 -42 12 -56t44 -14h17q29 0 41 13t13 49v129q-1 36 -13 49t-41 13zM82 -97v62h45v-62h-45z" />
    <glyph glyph-name="uni1EAE" unicode="&#x1eae;" horiz-adv-x="273" 
d="M196 0l-29 245h-98l-29 -245h-40l85 700h66l85 -700h-40zM106 560l-33 -282h92l-33 282l-13 111h-2zM196 771q0 -22 -17.5 -35t-53.5 -13h-16q-35 0 -52.5 13t-17.5 35v43h36v-20q0 -24 6 -34.5t30 -10.5h13q24 0 30 10.5t6 35.5v19h36v-43zM103 784l17 90h45l-34 -90
h-28z" />
    <glyph glyph-name="uni1EB0" unicode="&#x1eb0;" horiz-adv-x="273" 
d="M196 0l-29 245h-98l-29 -245h-40l85 700h66l85 -700h-40zM106 560l-33 -282h92l-33 282l-13 111h-2zM196 771q0 -22 -17.5 -35t-53.5 -13h-16q-35 0 -52.5 13t-17.5 35v43h36v-20q0 -24 6 -34.5t30 -10.5h13q24 0 30 10.5t6 35.5v19h36v-43zM104 784l-34 90h45l17 -90
h-28z" />
    <glyph glyph-name="uni1EB2" unicode="&#x1eb2;" horiz-adv-x="273" 
d="M196 0l-29 245h-98l-29 -245h-40l85 700h66l85 -700h-40zM106 560l-33 -282h92l-33 282l-13 111h-2zM197 771q0 -22 -17.5 -35t-53.5 -13h-16q-35 0 -52.5 13t-17.5 35v43h36v-20q0 -24 6 -34.5t30 -10.5h13q24 0 30 10.5t6 35.5v19h36v-43zM114 840h-29v46q0 9 3 13.5
t8 6.5q4 2 11 2h12h12q6 0 11 -2q4 -2 7.5 -6.5t3.5 -13.5v-46q0 -4 -3 -8l-15 -21q-2 -2 -2 -9v-18h-29v18q0 7 2 9l15 21q3 4 3 8v47q0 1 -1 3q-3 3 -4 3q-2 0 -2.5 -1t-1.5 -2q-1 -2 -1 -3v-47z" />
    <glyph glyph-name="uni1EB4" unicode="&#x1eb4;" horiz-adv-x="273" 
d="M236 0l-85 700h-66l-85 -700h40l29 245h98l29 -245h40zM117 671h2l13 -111l33 -282h-92l33 282zM197 814h-36v-19q0 -25 -6 -35.5t-30 -10.5h-13q-24 0 -30 10.5t-6 34.5v20h-36v-43q0 -22 17.5 -35t52.5 -13h16q36 0 53.5 13t17.5 35v43zM92 891q5 0 8 -1.5t5 -3.5
l27 -17q7 -4 13 -4h2q1 0 3 1q4 2 4 7v18h34v-15q1 -8 -2 -14q-2 -5 -7 -9t-14 -4h-20q-6 0 -13 4l-27 17q-2 2 -5 3.5t-8 1.5h-2q-2 0 -4 -1q-3 -2 -3 -7v-18h-34v18q-1 7 2 12q2 5 6.5 8.5t14.5 3.5h20z" />
    <glyph glyph-name="uni1EB6" unicode="&#x1eb6;" horiz-adv-x="273" 
d="M196 0l-29 245h-98l-29 -245h-40l85 700h66l85 -700h-40zM106 560l-33 -282h92l-33 282l-13 111h-2zM197 771q0 -22 -17.5 -35t-53.5 -13h-16q-35 0 -52.5 13t-17.5 35v43h36v-20q0 -24 6 -34.5t30 -10.5h13q24 0 30 10.5t6 35.5v19h36v-43zM94 -97v62h45v-62h-45z" />
    <glyph glyph-name="uni1EA5" unicode="&#x1ea5;" 
d="M149 523l-44 60l-42 -60h-37l62 90h34l62 -90h-35zM113 500q46 0 71.5 -21t25.5 -67v-406h-28l-8 29q-19 -35 -70 -35h-15q-42 0 -65.5 21t-23.5 67v142q0 46 23.5 67t65.5 21h15q45 0 64 -26v107q0 42 -11.5 56.5t-42.5 14.5h-17q-32 0 -44 -14t-12 -56v-35h-41v49
q0 46 26 66t72 20h15zM97 287q-32 0 -44 -14t-12 -56v-114q0 -42 12 -56t44 -14h17q29 0 41 13t13 49v129q-1 36 -13 49.5t-41 13.5h-17zM91 638l17 90h45l-34 -90h-28z" />
    <glyph glyph-name="uni1EA7" unicode="&#x1ea7;" 
d="M149 523l-44 60l-42 -60h-37l62 90h34l62 -90h-35zM113 500q46 0 71.5 -21t25.5 -67v-406h-28l-8 29q-19 -35 -70 -35h-15q-42 0 -65.5 21t-23.5 67v142q0 46 23.5 67t65.5 21h15q45 0 64 -26v107q0 42 -11.5 56.5t-42.5 14.5h-17q-32 0 -44 -14t-12 -56v-35h-41v49
q0 46 26 66t72 20h15zM97 287q-32 0 -44 -14t-12 -56v-114q0 -42 12 -56t44 -14h17q29 0 41 13t13 49v129q-1 36 -13 49.5t-41 13.5h-17zM91 638l-34 90h45l17 -90h-28z" />
    <glyph glyph-name="uni1EA9" unicode="&#x1ea9;" 
d="M149 523l-44 60l-42 -60h-37l62 90h34l62 -90h-35zM113 500q46 0 71.5 -21t25.5 -67v-406h-28l-8 29q-19 -35 -70 -35h-15q-42 0 -65.5 21t-23.5 67v142q0 46 23.5 67t65.5 21h15q45 0 64 -26v107q0 42 -11.5 56.5t-42.5 14.5h-17q-32 0 -44 -14t-12 -56v-35h-41v49
q0 46 26 66t72 20h15zM97 287q-32 0 -44 -14t-12 -56v-114q0 -42 12 -56t44 -14h17q29 0 41 13t13 49v129q-1 36 -13 49.5t-41 13.5h-17zM100 694h-29v46q0 9 3 13.5t8 6.5q4 2 11 2h12h12q6 0 11 -2q4 -2 7.5 -6.5t3.5 -13.5v-46q0 -4 -3 -8l-15 -21q-2 -2 -2 -9v-18h-29
v18q0 7 2 9l15 21q3 4 3 8v47q0 1 -1 3q-3 3 -4 3q-2 0 -2.5 -1t-1.5 -2q-1 -2 -1 -3v-47z" />
    <glyph glyph-name="uni1EAB" unicode="&#x1eab;" 
d="M184 523l-62 90h-34l-62 -90h37l42 60l44 -60h35zM98 500q-46 0 -72 -20t-26 -66v-49h41v35q0 42 12 56t44 14h17q31 0 42.5 -14.5t11.5 -56.5v-107q-19 26 -64 26h-15q-42 0 -65.5 -21t-23.5 -67v-142q0 -46 23.5 -67t65.5 -21h15q51 0 70 35l8 -29h28v406
q0 46 -25.5 67t-71.5 21h-15zM114 287q29 0 41 -13.5t13 -49.5v-129q-1 -36 -13 -49t-41 -13h-17q-32 0 -44 14t-12 56v114q0 42 12 56t44 14h17zM79 680q5 0 8 -1.5t5 -3.5l27 -17q7 -4 13 -4h2q1 0 3 1q4 2 4 7v18h34v-15q1 -8 -2 -14q-2 -5 -7 -9t-14 -4h-20q-6 0 -13 4
l-27 17q-2 2 -5 3.5t-8 1.5h-2q-2 0 -4 -1q-3 -2 -3 -7v-18h-34v18q-1 7 2 12q2 5 6.5 8.5t14.5 3.5h20z" />
    <glyph glyph-name="uni1EAD" unicode="&#x1ead;" 
d="M149 523l-44 60l-42 -60h-37l62 90h34l62 -90h-35zM113 500q46 0 71.5 -21t25.5 -67v-406h-28l-8 29q-19 -35 -70 -35h-15q-42 0 -65.5 21t-23.5 67v142q0 46 23.5 67t65.5 21h15q45 0 64 -26v107q0 42 -11.5 56.5t-42.5 14.5h-17q-32 0 -44 -14t-12 -56v-35h-41v49
q0 46 26 66t72 20h15zM97 287q-32 0 -44 -14t-12 -56v-114q0 -42 12 -56t44 -14h17q29 0 41 13t13 49v129q-1 36 -13 49.5t-41 13.5h-17zM82 -97v62h45v-62h-45z" />
    <glyph glyph-name="uni1EA4" unicode="&#x1ea4;" horiz-adv-x="273" 
d="M196 0l-29 245h-98l-29 -245h-40l85 700h66l85 -700h-40zM106 560l-33 -282h92l-33 282l-13 111h-2zM162 723l-44 60l-42 -60h-37l62 90h34l62 -90h-35zM104 838l17 90h45l-34 -90h-28z" />
    <glyph glyph-name="uni1EA6" unicode="&#x1ea6;" horiz-adv-x="273" 
d="M196 0l-29 245h-98l-29 -245h-40l85 700h66l85 -700h-40zM106 560l-33 -282h92l-33 282l-13 111h-2zM162 723l-44 60l-42 -60h-37l62 90h34l62 -90h-35zM104 838l-34 90h45l17 -90h-28z" />
    <glyph glyph-name="uni1EA8" unicode="&#x1ea8;" horiz-adv-x="273" 
d="M196 0l-29 245h-98l-29 -245h-40l85 700h66l85 -700h-40zM106 560l-33 -282h92l-33 282l-13 111h-2zM162 723l-44 60l-42 -60h-37l62 90h34l62 -90h-35zM113 894h-29v46q0 9 3 13.5t8 6.5q4 2 11 2h12h12q6 0 11 -2q4 -2 7.5 -6.5t3.5 -13.5v-46q0 -4 -3 -8l-15 -21
q-2 -2 -2 -9v-18h-29v18q0 7 2 9l15 21q3 4 3 8v47q0 1 -1 3q-3 3 -4 3q-2 0 -2.5 -1t-1.5 -2q-1 -2 -1 -3v-47z" />
    <glyph glyph-name="uni1EAA" unicode="&#x1eaa;" horiz-adv-x="273" 
d="M236 0l-85 700h-66l-85 -700h40l29 245h98l29 -245h40zM117 671h2l13 -111l33 -282h-92l33 282zM197 723l-62 90h-34l-62 -90h37l42 60l44 -60h35zM92 880q5 0 8 -1.5t5 -3.5l27 -17q7 -4 13 -4h2q1 0 3 1q4 2 4 7v18h34v-15q1 -8 -2 -14q-2 -5 -7 -9t-14 -4h-20
q-6 0 -13 4l-27 17q-2 2 -5 3.5t-8 1.5h-2q-2 0 -4 -1q-3 -2 -3 -7v-18h-34v18q-1 7 2 12q2 5 6.5 8.5t14.5 3.5h20z" />
    <glyph glyph-name="uni1EAC" unicode="&#x1eac;" horiz-adv-x="273" 
d="M196 0l-29 245h-98l-29 -245h-40l85 700h66l85 -700h-40zM106 560l-33 -282h92l-33 282l-13 111h-2zM162 723l-44 60l-42 -60h-37l62 90h34l62 -90h-35zM95 -97v62h45v-62h-45z" />
    <glyph glyph-name="uni1EBB" unicode="&#x1ebb;" 
d="M112 500q46 0 72 -21t26 -67v-200h-169v-109q0 -42 12 -56.5t43 -14.5h17q32 0 44 14t12 56v42h41v-56q0 -46 -26 -67t-72 -21h-15q-46 0 -71.5 21t-25.5 67v322q0 46 25.5 68t71.5 22h15zM95 469q-31 0 -42.5 -14t-11.5 -56v-154h128v154q0 42 -12 56t-44 14h-18z
M100 591h-29v46q0 9 3 13.5t8 6.5q4 2 11 2h12h12q6 0 11 -2q4 -2 7.5 -6.5t3.5 -13.5v-46q0 -4 -3 -8l-15 -21q-2 -2 -2 -9v-18h-29v18q0 7 2 9l15 21q3 4 3 8v47q0 1 -1 3q-3 3 -4 3q-2 0 -2.5 -1t-1.5 -2q-1 -2 -1 -3v-47z" />
    <glyph glyph-name="uni1EBD" unicode="&#x1ebd;" 
d="M97 500q-46 0 -71.5 -22t-25.5 -68v-322q0 -46 25.5 -67t71.5 -21h15q46 0 72 21t26 67v56h-41v-42q0 -42 -12 -56t-44 -14h-17q-31 0 -43 14.5t-12 56.5v109h169v200q0 46 -26 67t-72 21h-15zM113 469q32 0 44 -14t12 -56v-154h-128v154q0 42 11.5 56t42.5 14h18z
M79 577q5 0 8 -1.5t5 -3.5l27 -17q7 -4 13 -4h2q1 0 3 1q4 2 4 7v18h34v-15q1 -8 -2 -14q-2 -5 -7 -9t-14 -4h-20q-6 0 -13 4l-27 17q-2 2 -5 3.5t-8 1.5h-2q-2 0 -4 -1q-3 -2 -3 -7v-18h-34v18q-1 7 2 12q2 5 6.5 8.5t14.5 3.5h20z" />
    <glyph glyph-name="uni1EB9" unicode="&#x1eb9;" 
d="M112 500q46 0 72 -21t26 -67v-200h-169v-109q0 -42 12 -56.5t43 -14.5h17q32 0 44 14t12 56v42h41v-56q0 -46 -26 -67t-72 -21h-15q-46 0 -71.5 21t-25.5 67v322q0 46 25.5 68t71.5 22h15zM95 469q-31 0 -42.5 -14t-11.5 -56v-154h128v154q0 42 -12 56t-44 14h-18z
M82 -97v62h45v-62h-45z" />
    <glyph glyph-name="uni1EBA" unicode="&#x1eba;" 
d="M196 395v-33h-154v-329h168v-33h-210v700h210v-33h-168v-272h154zM100 791h-29v46q0 9 3 13.5t8 6.5q4 2 11 2h12h12q6 0 11 -2q4 -2 7.5 -6.5t3.5 -13.5v-46q0 -4 -3 -8l-15 -21q-2 -2 -2 -9v-18h-29v18q0 7 2 9l15 21q3 4 3 8v47q0 1 -1 3q-3 3 -4 3q-2 0 -2.5 -1
t-1.5 -2q-1 -2 -1 -3v-47z" />
    <glyph glyph-name="uni1EBC" unicode="&#x1ebc;" 
d="M42 395v272h168v33h-210v-700h210v33h-168v329h154v33h-154zM79 777q5 0 8 -1.5t5 -3.5l27 -17q7 -4 13 -4h2q1 0 3 1q4 2 4 7v18h34v-15q1 -8 -2 -14q-2 -5 -7 -9t-14 -4h-20q-6 0 -13 4l-27 17q-2 2 -5 3.5t-8 1.5h-2q-2 0 -4 -1q-3 -2 -3 -7v-18h-34v18q-1 7 2 12
q2 5 6.5 8.5t14.5 3.5h20z" />
    <glyph glyph-name="uni1EB8" unicode="&#x1eb8;" 
d="M196 395v-33h-154v-329h168v-33h-210v700h210v-33h-168v-272h154zM82 -97v62h45v-62h-45z" />
    <glyph glyph-name="uni1EBF" unicode="&#x1ebf;" 
d="M112 500q46 0 72 -21t26 -67v-200h-169v-109q0 -42 12 -56.5t43 -14.5h17q32 0 44 14t12 56v42h41v-56q0 -46 -26 -67t-72 -21h-15q-46 0 -71.5 21t-25.5 67v322q0 46 25.5 68t71.5 22h15zM95 469q-31 0 -42.5 -14t-11.5 -56v-154h128v154q0 42 -12 56t-44 14h-18z
M149 523l-44 60l-42 -60h-37l62 90h34l62 -90h-35zM91 638l17 90h45l-34 -90h-28z" />
    <glyph glyph-name="uni1EC1" unicode="&#x1ec1;" 
d="M112 500q46 0 72 -21t26 -67v-200h-169v-109q0 -42 12 -56.5t43 -14.5h17q32 0 44 14t12 56v42h41v-56q0 -46 -26 -67t-72 -21h-15q-46 0 -71.5 21t-25.5 67v322q0 46 25.5 68t71.5 22h15zM95 469q-31 0 -42.5 -14t-11.5 -56v-154h128v154q0 42 -12 56t-44 14h-18z
M149 523l-44 60l-42 -60h-37l62 90h34l62 -90h-35zM91 638l-34 90h45l17 -90h-28z" />
    <glyph glyph-name="uni1EC3" unicode="&#x1ec3;" 
d="M112 500q46 0 72 -21t26 -67v-200h-169v-109q0 -42 12 -56.5t43 -14.5h17q32 0 44 14t12 56v42h41v-56q0 -46 -26 -67t-72 -21h-15q-46 0 -71.5 21t-25.5 67v322q0 46 25.5 68t71.5 22h15zM95 469q-31 0 -42.5 -14t-11.5 -56v-154h128v154q0 42 -12 56t-44 14h-18z
M149 523l-44 60l-42 -60h-37l62 90h34l62 -90h-35zM100 694h-29v46q0 9 3 13.5t8 6.5q4 2 11 2h12h12q6 0 11 -2q4 -2 7.5 -6.5t3.5 -13.5v-46q0 -4 -3 -8l-15 -21q-2 -2 -2 -9v-18h-29v18q0 7 2 9l15 21q3 4 3 8v47q0 1 -1 3q-3 3 -4 3q-2 0 -2.5 -1t-1.5 -2q-1 -2 -1 -3
v-47z" />
    <glyph glyph-name="uni1EC5" unicode="&#x1ec5;" 
d="M97 500q-46 0 -71.5 -22t-25.5 -68v-322q0 -46 25.5 -67t71.5 -21h15q46 0 72 21t26 67v56h-41v-42q0 -42 -12 -56t-44 -14h-17q-31 0 -43 14.5t-12 56.5v109h169v200q0 46 -26 67t-72 21h-15zM113 469q32 0 44 -14t12 -56v-154h-128v154q0 42 11.5 56t42.5 14h18z
M184 523l-62 90h-34l-62 -90h37l42 60l44 -60h35zM79 680q5 0 8 -1.5t5 -3.5l27 -17q7 -4 13 -4h2q1 0 3 1q4 2 4 7v18h34v-15q1 -8 -2 -14q-2 -5 -7 -9t-14 -4h-20q-6 0 -13 4l-27 17q-2 2 -5 3.5t-8 1.5h-2q-2 0 -4 -1q-3 -2 -3 -7v-18h-34v18q-1 7 2 12q2 5 6.5 8.5
t14.5 3.5h20z" />
    <glyph glyph-name="uni1EC7" unicode="&#x1ec7;" 
d="M112 500q46 0 72 -21t26 -67v-200h-169v-109q0 -42 12 -56.5t43 -14.5h17q32 0 44 14t12 56v42h41v-56q0 -46 -26 -67t-72 -21h-15q-46 0 -71.5 21t-25.5 67v322q0 46 25.5 68t71.5 22h15zM95 469q-31 0 -42.5 -14t-11.5 -56v-154h128v154q0 42 -12 56t-44 14h-18z
M149 523l-44 60l-42 -60h-37l62 90h34l62 -90h-35zM82 -97v62h45v-62h-45z" />
    <glyph glyph-name="uni1EBE" unicode="&#x1ebe;" 
d="M196 395v-33h-154v-329h168v-33h-210v700h210v-33h-168v-272h154zM149 723l-44 60l-42 -60h-37l62 90h34l62 -90h-35zM91 838l17 90h45l-34 -90h-28z" />
    <glyph glyph-name="uni1EC0" unicode="&#x1ec0;" 
d="M196 395v-33h-154v-329h168v-33h-210v700h210v-33h-168v-272h154zM149 723l-44 60l-42 -60h-37l62 90h34l62 -90h-35zM91 838l-34 90h45l17 -90h-28z" />
    <glyph glyph-name="uni1EC2" unicode="&#x1ec2;" 
d="M196 395v-33h-154v-329h168v-33h-210v700h210v-33h-168v-272h154zM149 723l-44 60l-42 -60h-37l62 90h34l62 -90h-35zM100 894h-29v46q0 9 3 13.5t8 6.5q4 2 11 2h12h12q6 0 11 -2q4 -2 7.5 -6.5t3.5 -13.5v-46q0 -4 -3 -8l-15 -21q-2 -2 -2 -9v-18h-29v18q0 7 2 9l15 21
q3 4 3 8v47q0 1 -1 3q-3 3 -4 3q-2 0 -2.5 -1t-1.5 -2q-1 -2 -1 -3v-47z" />
    <glyph glyph-name="uni1EC4" unicode="&#x1ec4;" 
d="M42 395v272h168v33h-210v-700h210v33h-168v329h154v33h-154zM184 723l-62 90h-34l-62 -90h37l42 60l44 -60h35zM79 880q5 0 8 -1.5t5 -3.5l27 -17q7 -4 13 -4h2q1 0 3 1q4 2 4 7v18h34v-15q1 -8 -2 -14q-2 -5 -7 -9t-14 -4h-20q-6 0 -13 4l-27 17q-2 2 -5 3.5t-8 1.5h-2
q-2 0 -4 -1q-3 -2 -3 -7v-18h-34v18q-1 7 2 12q2 5 6.5 8.5t14.5 3.5h20z" />
    <glyph glyph-name="uni1EC6" unicode="&#x1ec6;" 
d="M196 395v-33h-154v-329h168v-33h-210v700h210v-33h-168v-272h154zM149 723l-44 60l-42 -60h-37l62 90h34l62 -90h-35zM82 -97v62h45v-62h-45z" />
    <glyph glyph-name="uni1EF7" unicode="&#x1ef7;" horiz-adv-x="240" 
d="M55 -178l27 165l-82 513h39l62 -435l63 435h39l-108 -678h-40zM96 591h-29v46q0 9 3 13.5t8 6.5q4 2 11 2h12h12q6 0 11 -2q4 -2 7.5 -6.5t3.5 -13.5v-46q0 -4 -3 -8l-15 -21q-2 -2 -2 -9v-18h-29v18q0 7 2 9l15 21q3 4 3 8v47q0 1 -1 3q-3 3 -4 3q-2 0 -2.5 -1t-1.5 -2
q-1 -2 -1 -3v-47z" />
    <glyph glyph-name="uni1EF9" unicode="&#x1ef9;" horiz-adv-x="240" 
d="M95 -178l108 678h-39l-63 -435l-62 435h-39l82 -513l-27 -165h40zM75 577q5 0 8 -1.5t5 -3.5l27 -17q7 -4 13 -4h2q1 0 3 1q4 2 4 7v18h34v-15q1 -8 -2 -14q-2 -5 -7 -9t-14 -4h-20q-6 0 -13 4l-27 17q-2 2 -5 3.5t-8 1.5h-2q-2 0 -4 -1q-3 -2 -3 -7v-18h-34v18
q-1 7 2 12q2 5 6.5 8.5t14.5 3.5h20z" />
    <glyph glyph-name="uni1EF5" unicode="&#x1ef5;" horiz-adv-x="240" 
d="M55 -178l27 165l-82 513h39l62 -435l63 435h39l-108 -678h-40zM52 -275v62h45v-62h-45z" />
    <glyph glyph-name="Ygrave" unicode="&#x1ef2;" horiz-adv-x="263" 
d="M99 735l-34 90h45l17 -90h-28zM132 0h-39v252l-93 448h41l72 -382l72 382h41l-94 -448v-252z" />
    <glyph glyph-name="uni1EF6" unicode="&#x1ef6;" horiz-adv-x="263" 
d="M108 791h-29v46q0 9 3 13.5t8 6.5q4 2 11 2h12h12q6 0 11 -2q4 -2 7.5 -6.5t3.5 -13.5v-46q0 -4 -3 -8l-15 -21q-2 -2 -2 -9v-18h-29v18q0 7 2 9l15 21q3 4 3 8v47q0 1 -1 3q-3 3 -4 3q-2 0 -2.5 -1t-1.5 -2q-1 -2 -1 -3v-47zM132 0h-39v252l-93 448h41l72 -382l72 382
h41l-94 -448v-252z" />
    <glyph glyph-name="uni1EF8" unicode="&#x1ef8;" horiz-adv-x="263" 
d="M87 777q5 0 8 -1.5t5 -3.5l27 -17q7 -4 13 -4h2q1 0 3 1q4 2 4 7v18h34v-15q1 -8 -2 -14q-2 -5 -7 -9t-14 -4h-20q-6 0 -13 4l-27 17q-2 2 -5 3.5t-8 1.5h-2q-2 0 -4 -1q-3 -2 -3 -7v-18h-34v18q-1 7 2 12q2 5 6.5 8.5t14.5 3.5h20zM132 252l94 448h-41l-72 -382l-72 382
h-41l93 -448v-252h39v252z" />
    <glyph glyph-name="uni1EF4" unicode="&#x1ef4;" horiz-adv-x="263" 
d="M132 0h-39v252l-93 448h41l72 -382l72 382h41l-94 -448v-252zM90 -97v62h45v-62h-45z" />
    <glyph glyph-name="uni1EE7" unicode="&#x1ee7;" 
d="M181 5l-8 29q-17 -34 -69 -34h-15q-42 0 -65.5 21t-23.5 67v412h41v-398q0 -42 12 -56t44 -14h17q31 0 43 14.5t12 56.5v397h41v-495h-29zM100 591h-29v46q0 9 3 13.5t8 6.5q4 2 11 2h12h12q6 0 11 -2q4 -2 7.5 -6.5t3.5 -13.5v-46q0 -4 -3 -8l-15 -21q-2 -2 -2 -9v-18
h-29v18q0 7 2 9l15 21q3 4 3 8v47q0 1 -1 3q-3 3 -4 3q-2 0 -2.5 -1t-1.5 -2q-1 -2 -1 -3v-47z" />
    <glyph glyph-name="utilde" unicode="&#x169;" 
d="M210 6v511h-41v-414q0 -42 -12 -56.5t-43 -14.5h-17q-32 0 -44 14t-12 56v415h-41v-429q0 -46 23.5 -67t65.5 -21h15q52 0 69 34l8 -29zM79 577q5 0 8 -1.5t5 -3.5l27 -17q7 -4 13 -4h2q1 0 3 1q4 2 4 7v18h34v-15q1 -8 -2 -14q-2 -5 -7 -9t-14 -4h-20q-6 0 -13 4l-27 17
q-2 2 -5 3.5t-8 1.5h-2q-2 0 -4 -1q-3 -2 -3 -7v-18h-34v18q-1 7 2 12q2 5 6.5 8.5t14.5 3.5h20z" />
    <glyph glyph-name="uni1EE5" unicode="&#x1ee5;" 
d="M181 5l-8 29q-17 -34 -69 -34h-15q-42 0 -65.5 21t-23.5 67v412h41v-398q0 -42 12 -56t44 -14h17q31 0 43 14.5t12 56.5v397h41v-495h-29zM82 -97v62h45v-62h-45z" />
    <glyph glyph-name="uni1EE6" unicode="&#x1ee6;" horiz-adv-x="258" 
d="M221 88q0 -46 -26.5 -67t-74.5 -21h-20q-48 0 -74 21t-26 67v612h42v-597q0 -42 12 -56.5t46 -14.5h20q34 0 46.5 14.5t12.5 55.5v598h42v-612zM105 791h-29v46q0 9 3 13.5t8 6.5q4 2 11 2h12h12q6 0 11 -2q4 -2 7.5 -6.5t3.5 -13.5v-46q0 -4 -3 -8l-15 -21q-2 -2 -2 -9
v-18h-29v18q0 7 2 9l15 21q3 4 3 8v47q0 1 -1 3q-3 3 -4 3q-2 0 -2.5 -1t-1.5 -2q-1 -2 -1 -3v-47z" />
    <glyph glyph-name="Utilde" unicode="&#x168;" horiz-adv-x="258" 
d="M221 700h-42v-598q0 -41 -12.5 -55.5t-46.5 -14.5h-20q-34 0 -46 14.5t-12 56.5v597h-42v-612q0 -46 26 -67t74 -21h20q48 0 74.5 21t26.5 67v612zM84 777q5 0 8 -1.5t5 -3.5l27 -17q7 -4 13 -4h2q1 0 3 1q4 2 4 7v18h34v-15q1 -8 -2 -14q-2 -5 -7 -9t-14 -4h-20
q-6 0 -13 4l-27 17q-2 2 -5 3.5t-8 1.5h-2q-2 0 -4 -1q-3 -2 -3 -7v-18h-34v18q-1 7 2 12q2 5 6.5 8.5t14.5 3.5h20z" />
    <glyph glyph-name="uni1EE4" unicode="&#x1ee4;" horiz-adv-x="258" 
d="M87 -97v62h45v-62h-45zM221 88q0 -46 -26.5 -67t-74.5 -21h-20q-48 0 -74 21t-26 67v612h42v-597q0 -42 12 -56.5t46 -14.5h20q34 0 46.5 14.5t12.5 55.5v598h42v-612z" />
    <glyph glyph-name="uhorn" unicode="&#x1b0;" horiz-adv-x="276" 
d="M210 447h12q2 0 4 3q1 1 1 3v47h29v-46q0 -9 -3.5 -13.5t-7.5 -6.5q-5 -3 -11 -2h-12h-12v-426l-29 -1l-8 29q-17 -34 -69 -34h-15q-42 0 -65.5 21t-23.5 67v412h41v-398q0 -42 12 -56t44 -14h17q31 0 43 14.5t12 56.5v397h41v-53z" />
    <glyph glyph-name="uni1EE8" unicode="&#x1ee8;" horiz-adv-x="287" 
d="M221 88q0 -46 -26.5 -67t-74.5 -21h-20q-48 0 -74 21t-26 67v612h42v-597q0 -42 12 -56.5t46 -14.5h20q34 0 46.5 14.5t12.5 55.5v598h42v-53h12q2 0 4 3q1 1 1 3v47h29v-46q0 -9 -3.5 -13.5t-7.5 -6.5q-5 -3 -11 -2h-12h-12v-544zM95 735l17 90h45l-34 -90h-28z" />
    <glyph glyph-name="uni1EE9" unicode="&#x1ee9;" horiz-adv-x="276" 
d="M210 447h12q2 0 4 3q1 1 1 3v47h29v-46q0 -9 -3.5 -13.5t-7.5 -6.5q-5 -3 -11 -2h-12h-12v-427h-29l-8 29q-17 -34 -69 -34h-15q-42 0 -65.5 21t-23.5 67v412h41v-398q0 -42 12 -56t44 -14h17q31 0 43 14.5t12 56.5v397h41v-53zM95 535l17 90h45l-34 -90h-28z" />
    <glyph glyph-name="uni1EEB" unicode="&#x1eeb;" horiz-adv-x="276" 
d="M210 447h12q2 0 4 3q1 1 1 3v47h29v-46q0 -9 -3.5 -13.5t-7.5 -6.5q-5 -3 -11 -2h-12h-12v-427h-29l-8 29q-17 -34 -69 -34h-15q-42 0 -65.5 21t-23.5 67v412h41v-398q0 -42 12 -56t44 -14h17q31 0 43 14.5t12 56.5v397h41v-53zM96 535l-34 90h45l17 -90h-28z" />
    <glyph glyph-name="uni1EED" unicode="&#x1eed;" horiz-adv-x="276" 
d="M210 447h12q2 0 4 3q1 1 1 3v47h29v-46q0 -9 -3.5 -13.5t-7.5 -6.5q-5 -3 -11 -2h-12h-12v-427h-29l-8 29q-17 -34 -69 -34h-15q-42 0 -65.5 21t-23.5 67v412h41v-398q0 -42 12 -56t44 -14h17q31 0 43 14.5t12 56.5v397h41v-53zM105 591h-29v46q0 9 3 13.5t8 6.5
q4 2 11 2h12h12q6 0 11 -2q4 -2 7.5 -6.5t3.5 -13.5v-46q0 -4 -3 -8l-15 -21q-2 -2 -2 -9v-18h-29v18q0 7 2 9l15 21q3 4 3 8v47q0 1 -1 3q-3 3 -4 3q-2 0 -2.5 -1t-1.5 -2q-1 -2 -1 -3v-47z" />
    <glyph glyph-name="uni1EEF" unicode="&#x1eef;" horiz-adv-x="276" 
d="M210 447h12q2 0 4 3q1 1 1 3v47h29v-46q0 -9 -3.5 -13.5t-7.5 -6.5q-5 -3 -11 -2h-12h-12v-427h-29l-8 29q-17 -34 -69 -34h-15q-42 0 -65.5 21t-23.5 67v412h41v-398q0 -42 12 -56t44 -14h17q31 0 43 14.5t12 56.5v397h41v-53zM84 577q5 0 8 -1.5t5 -3.5l27 -17
q7 -4 13 -4h2q1 0 3 1q4 2 4 7v18h34v-15q1 -8 -2 -14q-2 -5 -7 -9t-14 -4h-20q-6 0 -13 4l-27 17q-2 2 -5 3.5t-8 1.5h-2q-2 0 -4 -1q-3 -2 -3 -7v-18h-34v18q-1 7 2 12q2 5 6.5 8.5t14.5 3.5h20z" />
    <glyph glyph-name="uni1EF1" unicode="&#x1ef1;" horiz-adv-x="276" 
d="M210 447h12q2 0 4 3q1 1 1 3v47h29v-46q0 -9 -3.5 -13.5t-7.5 -6.5q-5 -3 -11 -2h-12h-12v-426l-29 -1l-8 29q-17 -34 -69 -34h-15q-42 0 -65.5 21t-23.5 67v412h41v-398q0 -42 12 -56t44 -14h17q31 0 43 14.5t12 56.5v397h41v-53zM132 -97v62h-45v-62h45z" />
    <glyph glyph-name="Uhorn" unicode="&#x1af;" horiz-adv-x="287" 
d="M221 88q0 -46 -26.5 -67t-74.5 -21h-20q-48 0 -74 21t-26 67v612h42v-597q0 -42 12 -56.5t46 -14.5h20q34 0 46.5 14.5t12.5 55.5v598h42v-53h12q2 0 4 3q1 1 1 3v47h29v-46q0 -9 -3.5 -13.5t-7.5 -6.5q-5 -3 -11 -2h-12h-12v-544z" />
    <glyph glyph-name="uni1EEA" unicode="&#x1eea;" horiz-adv-x="287" 
d="M221 88q0 -46 -26.5 -67t-74.5 -21h-20q-48 0 -74 21t-26 67v612h42v-597q0 -42 12 -56.5t46 -14.5h20q34 0 46.5 14.5t12.5 55.5v598h42v-53h12q2 0 4 3q1 1 1 3v47h29v-46q0 -9 -3.5 -13.5t-7.5 -6.5q-5 -3 -11 -2h-12h-12v-544zM96 735l-34 90h45l17 -90h-28z" />
    <glyph glyph-name="uni1EEC" unicode="&#x1eec;" horiz-adv-x="287" 
d="M221 88q0 -46 -26.5 -67t-74.5 -21h-20q-48 0 -74 21t-26 67v612h42v-597q0 -42 12 -56.5t46 -14.5h20q34 0 46.5 14.5t12.5 55.5v598h42v-53h12q2 0 4 3q1 1 1 3v47h29v-46q0 -9 -3.5 -13.5t-7.5 -6.5q-5 -3 -11 -2h-12h-12v-544zM105 791h-29v46q0 9 3 13.5t8 6.5
q4 2 11 2h12h12q6 0 11 -2q4 -2 7.5 -6.5t3.5 -13.5v-46q0 -4 -3 -8l-15 -21q-2 -2 -2 -9v-18h-29v18q0 7 2 9l15 21q3 4 3 8v47q0 1 -1 3q-3 3 -4 3q-2 0 -2.5 -1t-1.5 -2q-1 -2 -1 -3v-47z" />
    <glyph glyph-name="uni1EEE" unicode="&#x1eee;" horiz-adv-x="287" 
d="M221 632h12h12q6 -1 11 2q4 2 7.5 6.5t3.5 13.5v46h-29v-47q0 -2 -1 -3q-2 -3 -4 -3h-12v53h-42v-598q0 -41 -12.5 -55.5t-46.5 -14.5h-20q-34 0 -46 14.5t-12 56.5v597h-42v-612q0 -46 26 -67t74 -21h20q48 0 74.5 21t26.5 67v544zM84 777q5 0 8 -1.5t5 -3.5l27 -17
q7 -4 13 -4h2q1 0 3 1q4 2 4 7v18h34v-15q1 -8 -2 -14q-2 -5 -7 -9t-14 -4h-20q-6 0 -13 4l-27 17q-2 2 -5 3.5t-8 1.5h-2q-2 0 -4 -1q-3 -2 -3 -7v-18h-34v18q-1 7 2 12q2 5 6.5 8.5t14.5 3.5h20z" />
    <glyph glyph-name="uni1EF0" unicode="&#x1ef0;" horiz-adv-x="287" 
d="M221 88q0 -46 -26.5 -67t-74.5 -21h-20q-48 0 -74 21t-26 67v612h42v-597q0 -42 12 -56.5t46 -14.5h20q34 0 46.5 14.5t12.5 55.5v598h42v-53h12q2 0 4 3q1 1 1 3v47h29v-46q0 -9 -3.5 -13.5t-7.5 -6.5q-5 -3 -11 -2h-12h-12v-544zM87 -97v62h45v-62h-45z" />
    <glyph glyph-name="uni1EC9" unicode="&#x1ec9;" horiz-adv-x="92" 
d="M0 0v500h41v-500h-41zM16 591h-29v46q0 9 3 13.5t8 6.5q4 2 11 2h12h12q6 0 11 -2q4 -2 7.5 -6.5t3.5 -13.5v-46q0 -4 -3 -8l-15 -21q-2 -2 -2 -9v-18h-29v18q0 7 2 9l15 21q3 4 3 8v47q0 1 -1 3q-3 3 -4 3q-2 0 -2.5 -1t-1.5 -2q-1 -2 -1 -3v-47z" />
    <glyph glyph-name="itilde" unicode="&#x129;" horiz-adv-x="78" 
d="M41 0v500h-41v-500h41zM-5 577q5 0 8 -1.5t5 -3.5l27 -17q7 -4 13 -4h2q1 0 3 1q4 2 4 7v18h34v-15q1 -8 -2 -14q-2 -5 -7 -9t-14 -4h-20q-6 0 -13 4l-27 17q-2 2 -5 3.5t-8 1.5h-2q-2 0 -4 -1q-3 -2 -3 -7v-18h-34v18q-1 7 2 12q2 5 6.5 8.5t14.5 3.5h20z" />
    <glyph glyph-name="uni1ECB" unicode="&#x1ecb;" horiz-adv-x="82" 
d="M0 535v62h45v-62h-45zM2 0v500h41v-500h-41zM0 -97v62h45v-62h-45z" />
    <glyph glyph-name="uni1EC8" unicode="&#x1ec8;" horiz-adv-x="93" 
d="M0 0v700h42v-700h-42zM17 791h-29v46q0 9 3 13.5t8 6.5q4 2 11 2h12h12q6 0 11 -2q4 -2 7.5 -6.5t3.5 -13.5v-46q0 -4 -3 -8l-15 -21q-2 -2 -2 -9v-18h-29v18q0 7 2 9l15 21q3 4 3 8v47q0 1 -1 3q-3 3 -4 3q-2 0 -2.5 -1t-1.5 -2q-1 -2 -1 -3v-47z" />
    <glyph glyph-name="Itilde" unicode="&#x128;" horiz-adv-x="129" 
d="M42 0v700h-42v-700h42zM-5 777q5 0 8 -1.5t5 -3.5l27 -17q7 -4 13 -4h2q1 0 3 1q4 2 4 7v18h34v-15q1 -8 -2 -14q-2 -5 -7 -9t-14 -4h-20q-6 0 -13 4l-27 17q-2 2 -5 3.5t-8 1.5h-2q-2 0 -4 -1q-3 -2 -3 -7v-18h-34v18q-1 7 2 12q2 5 6.5 8.5t14.5 3.5h20z" />
    <glyph glyph-name="uni1ECA" unicode="&#x1eca;" horiz-adv-x="82" 
d="M0 0v700h42v-700h-42zM0 -97v62h45v-62h-45z" />
    <glyph glyph-name="uni1ECF" unicode="&#x1ecf;" 
d="M112 500q46 0 72 -21t26 -67v-324q0 -46 -26 -67t-72 -21h-15q-46 0 -71.5 21t-25.5 67v324q0 46 25.5 67t71.5 21h15zM96 469q-31 0 -42.5 -14t-11.5 -55v-296q0 -42 11.5 -56.5t42.5 -14.5h17q32 0 44 14t12 56v296q0 42 -12 56t-44 14h-17zM100 591h-29v46q0 9 3 13.5
t8 6.5q4 2 11 2h12h12q6 0 11 -2q4 -2 7.5 -6.5t3.5 -13.5v-46q0 -4 -3 -8l-15 -21q-2 -2 -2 -9v-18h-29v18q0 7 2 9l15 21q3 4 3 8v47q0 1 -1 3q-3 3 -4 3q-2 0 -2.5 -1t-1.5 -2q-1 -2 -1 -3v-47z" />
    <glyph glyph-name="uni1ECD" unicode="&#x1ecd;" 
d="M112 500q46 0 72 -21t26 -67v-324q0 -46 -26 -67t-72 -21h-15q-46 0 -71.5 21t-25.5 67v324q0 46 25.5 67t71.5 21h15zM96 469q-31 0 -42.5 -14t-11.5 -55v-296q0 -42 11.5 -56.5t42.5 -14.5h17q32 0 44 14t12 56v296q0 42 -12 56t-44 14h-17zM82 -97v62h45v-62h-45z" />
    <glyph glyph-name="uni1ED1" unicode="&#x1ed1;" 
d="M112 500q46 0 72 -21t26 -67v-324q0 -46 -26 -67t-72 -21h-15q-46 0 -71.5 21t-25.5 67v324q0 46 25.5 67t71.5 21h15zM96 469q-31 0 -42.5 -14t-11.5 -55v-296q0 -42 11.5 -56.5t42.5 -14.5h17q32 0 44 14t12 56v296q0 42 -12 56t-44 14h-17zM149 523l-44 60l-42 -60
h-37l62 90h34l62 -90h-35zM90 638l17 90h45l-34 -90h-28z" />
    <glyph glyph-name="uni1EDB" unicode="&#x1edb;" horiz-adv-x="275" 
d="M96 469q-31 0 -42.5 -14t-11.5 -55v-296q0 -42 11.5 -56.5t42.5 -14.5h17q32 0 44 14t12 56v296q0 42 -12 56t-44 14h-17zM209 432q1 -5 1 -10v-10v-324q0 -46 -26 -67t-72 -21h-15q-46 0 -71.5 21t-25.5 67v324q0 46 25.5 67t71.5 21h15q36 0 60 -13t33 -40h16q2 0 4 3
q1 1 1 3v47h29v-46q0 -9 -3.5 -13.5t-7.5 -6.5q-5 -3 -11 -2h-12h-12zM90 535l17 90h45l-34 -90h-28z" />
    <glyph glyph-name="uni1ED3" unicode="&#x1ed3;" 
d="M112 500q46 0 72 -21t26 -67v-324q0 -46 -26 -67t-72 -21h-15q-46 0 -71.5 21t-25.5 67v324q0 46 25.5 67t71.5 21h15zM96 469q-31 0 -42.5 -14t-11.5 -55v-296q0 -42 11.5 -56.5t42.5 -14.5h17q32 0 44 14t12 56v296q0 42 -12 56t-44 14h-17zM149 523l-44 60l-42 -60
h-37l62 90h34l62 -90h-35zM91 638l-34 90h45l17 -90h-28z" />
    <glyph glyph-name="uni1ED5" unicode="&#x1ed5;" 
d="M112 500q46 0 72 -21t26 -67v-324q0 -46 -26 -67t-72 -21h-15q-46 0 -71.5 21t-25.5 67v324q0 46 25.5 67t71.5 21h15zM96 469q-31 0 -42.5 -14t-11.5 -55v-296q0 -42 11.5 -56.5t42.5 -14.5h17q32 0 44 14t12 56v296q0 42 -12 56t-44 14h-17zM149 523l-44 60l-42 -60
h-37l62 90h34l62 -90h-35zM100 694h-29v46q0 9 3 13.5t8 6.5q4 2 11 2h12h12q6 0 11 -2q4 -2 7.5 -6.5t3.5 -13.5v-46q0 -4 -3 -8l-15 -21q-2 -2 -2 -9v-18h-29v18q0 7 2 9l15 21q3 4 3 8v47q0 1 -1 3q-3 3 -4 3q-2 0 -2.5 -1t-1.5 -2q-1 -2 -1 -3v-47z" />
    <glyph glyph-name="uni1ED7" unicode="&#x1ed7;" 
d="M97 500q-46 0 -71.5 -21t-25.5 -67v-324q0 -46 25.5 -67t71.5 -21h15q46 0 72 21t26 67v324q0 46 -26 67t-72 21h-15zM113 469q32 0 44 -14t12 -56v-296q0 -42 -12 -56t-44 -14h-17q-31 0 -42.5 14.5t-11.5 56.5v296q0 41 11.5 55t42.5 14h17zM184 523l-62 90h-34
l-62 -90h37l42 60l44 -60h35zM79 680q5 0 8 -1.5t5 -3.5l27 -17q7 -4 13 -4h2q1 0 3 1q4 2 4 7v18h34v-15q1 -8 -2 -14q-2 -5 -7 -9t-14 -4h-20q-6 0 -13 4l-27 17q-2 2 -5 3.5t-8 1.5h-2q-2 0 -4 -1q-3 -2 -3 -7v-18h-34v18q-1 7 2 12q2 5 6.5 8.5t14.5 3.5h20z" />
    <glyph glyph-name="uni1ED9" unicode="&#x1ed9;" 
d="M112 500q46 0 72 -21t26 -67v-324q0 -46 -26 -67t-72 -21h-15q-46 0 -71.5 21t-25.5 67v324q0 46 25.5 67t71.5 21h15zM96 469q-31 0 -42.5 -14t-11.5 -55v-296q0 -42 11.5 -56.5t42.5 -14.5h17q32 0 44 14t12 56v296q0 42 -12 56t-44 14h-17zM149 523l-44 60l-42 -60
h-37l62 90h34l62 -90h-35zM82 -97v62h45v-62h-45z" />
    <glyph glyph-name="uni1ED0" unicode="&#x1ed0;" horiz-adv-x="258" 
d="M120 700q48 0 74.5 -21t26.5 -67v-524q0 -46 -26.5 -67t-74.5 -21h-20q-48 0 -74 21t-26 67v524q0 46 26 67t74 21h20zM100 667q-34 0 -46 -14t-12 -55v-494q0 -42 12 -56.5t46 -14.5h20q34 0 46.5 14.5t12.5 55.5v494q0 41 -12.5 55.5t-46.5 14.5h-20zM154 723l-44 60
l-42 -60h-37l62 90h34l62 -90h-35zM91 838l17 90h45l-34 -90h-28zM116 1604l17 90h45l-34 -90h-28z" />
    <glyph glyph-name="uni1ED2" unicode="&#x1ed2;" horiz-adv-x="258" 
d="M120 700q48 0 74.5 -21t26.5 -67v-524q0 -46 -26.5 -67t-74.5 -21h-20q-48 0 -74 21t-26 67v524q0 46 26 67t74 21h20zM100 667q-34 0 -46 -14t-12 -55v-494q0 -42 12 -56.5t46 -14.5h20q34 0 46.5 14.5t12.5 55.5v494q0 41 -12.5 55.5t-46.5 14.5h-20zM154 723l-44 60
l-42 -60h-37l62 90h34l62 -90h-35zM91 838l-34 90h45l17 -90h-28z" />
    <glyph glyph-name="uni1EDA" unicode="&#x1eda;" horiz-adv-x="286" 
d="M232 647q2 0 4 3q1 1 1 3v47h29v-46q0 -9 -3.5 -13.5t-7.5 -6.5q-5 -3 -11 -2h-12h-13q1 -5 1.5 -10t0.5 -10v-524q0 -46 -26.5 -67t-74.5 -21h-20q-48 0 -74 21t-26 67v524q0 46 26 67t74 21h20q38 0 62.5 -13t33.5 -40h16zM100 667q-34 0 -46 -14t-12 -55v-494
q0 -42 12 -56.5t46 -14.5h20q34 0 46.5 14.5t12.5 55.5v494q0 41 -12.5 55.5t-46.5 14.5h-20zM95 735l17 90h45l-34 -90h-28z" />
    <glyph glyph-name="uni1ED4" unicode="&#x1ed4;" horiz-adv-x="258" 
d="M120 700q48 0 74.5 -21t26.5 -67v-524q0 -46 -26.5 -67t-74.5 -21h-20q-48 0 -74 21t-26 67v524q0 46 26 67t74 21h20zM100 667q-34 0 -46 -14t-12 -55v-494q0 -42 12 -56.5t46 -14.5h20q34 0 46.5 14.5t12.5 55.5v494q0 41 -12.5 55.5t-46.5 14.5h-20zM154 723l-44 60
l-42 -60h-37l62 90h34l62 -90h-35zM100 894h-29v46q0 9 3 13.5t8 6.5q4 2 11 2h12h12q6 0 11 -2q4 -2 7.5 -6.5t3.5 -13.5v-46q0 -4 -3 -8l-15 -21q-2 -2 -2 -9v-18h-29v18q0 7 2 9l15 21q3 4 3 8v47q0 1 -1 3q-3 3 -4 3q-2 0 -2.5 -1t-1.5 -2q-1 -2 -1 -3v-47z" />
    <glyph glyph-name="uni1ED6" unicode="&#x1ed6;" horiz-adv-x="258" 
d="M120 700q48 0 74.5 -21t26.5 -67v-524q0 -46 -26.5 -67t-74.5 -21h-20q-48 0 -74 21t-26 67v524q0 46 26 67t74 21h20zM100 667q-34 0 -46 -14t-12 -55v-494q0 -42 12 -56.5t46 -14.5h20q34 0 46.5 14.5t12.5 55.5v494q0 41 -12.5 55.5t-46.5 14.5h-20zM154 723l-44 60
l-42 -60h-37l62 90h34l62 -90h-35zM79 880q5 0 8 -1.5t5 -3.5l27 -17q7 -4 13 -4h2q1 0 3 1q4 2 4 7v18h34v-15q1 -8 -2 -14q-2 -5 -7 -9t-14 -4h-20q-6 0 -13 4l-27 17q-2 2 -5 3.5t-8 1.5h-2q-2 0 -4 -1q-3 -2 -3 -7v-18h-34v18q-1 7 2 12q2 5 6.5 8.5t14.5 3.5h20z
M259 1645q0 -18 -7.5 -29t-19.5 -15q-13 -5 -29 -1.5t-31 14.5l-55 38q-29 21 -40 12q-7 -6 -7 -20v-35h-36v38q0 32 23 42q14 6 31.5 3.5t34.5 -14.5l55 -38q11 -8 19.5 -12t14.5 -2q12 3 12 21v35h37z" />
    <glyph glyph-name="uni1ED8" unicode="&#x1ed8;" horiz-adv-x="258" 
d="M120 700q48 0 74.5 -21t26.5 -67v-524q0 -46 -26.5 -67t-74.5 -21h-20q-48 0 -74 21t-26 67v524q0 46 26 67t74 21h20zM100 667q-34 0 -46 -14t-12 -55v-494q0 -42 12 -56.5t46 -14.5h20q34 0 46.5 14.5t12.5 55.5v494q0 41 -12.5 55.5t-46.5 14.5h-20zM154 723l-44 60
l-42 -60h-37l62 90h34l62 -90h-35zM82 -97v62h45v-62h-45z" />
    <glyph glyph-name="ohorn" unicode="&#x1a1;" horiz-adv-x="275" 
d="M96 469q-31 0 -42.5 -14t-11.5 -55v-296q0 -42 11.5 -56.5t42.5 -14.5h17q32 0 44 14t12 56v296q0 42 -12 56t-44 14h-17zM209 432q1 -5 1 -10v-10v-324q0 -46 -26 -67t-72 -21h-15q-46 0 -71.5 21t-25.5 67v324q0 46 25.5 67t71.5 21h15q36 0 60 -13t33 -40h16q2 0 4 3
q1 1 1 3v47h29v-46q0 -9 -3.5 -13.5t-7.5 -6.5q-5 -3 -11 -2h-12h-12z" />
    <glyph glyph-name="uni1EDD" unicode="&#x1edd;" horiz-adv-x="275" 
d="M96 469q-31 0 -42.5 -14t-11.5 -55v-296q0 -42 11.5 -56.5t42.5 -14.5h17q32 0 44 14t12 56v296q0 42 -12 56t-44 14h-17zM209 432q1 -5 1 -10v-10v-324q0 -46 -26 -67t-72 -21h-15q-46 0 -71.5 21t-25.5 67v324q0 46 25.5 67t71.5 21h15q36 0 60 -13t33 -40h16q2 0 4 3
q1 1 1 3v47h29v-46q0 -9 -3.5 -13.5t-7.5 -6.5q-5 -3 -11 -2h-12h-12zM91 535l-34 90h45l17 -90h-28z" />
    <glyph glyph-name="uni1EDF" unicode="&#x1edf;" horiz-adv-x="275" 
d="M96 469q-31 0 -42.5 -14t-11.5 -55v-296q0 -42 11.5 -56.5t42.5 -14.5h17q32 0 44 14t12 56v296q0 42 -12 56t-44 14h-17zM209 432q1 -5 1 -10v-10v-324q0 -46 -26 -67t-72 -21h-15q-46 0 -71.5 21t-25.5 67v324q0 46 25.5 67t71.5 21h15q36 0 60 -13t33 -40h16q2 0 4 3
q1 1 1 3v47h29v-46q0 -9 -3.5 -13.5t-7.5 -6.5q-5 -3 -11 -2h-12h-12zM100 591h-29v46q0 9 3 13.5t8 6.5q4 2 11 2h12h12q6 0 11 -2q4 -2 7.5 -6.5t3.5 -13.5v-46q0 -4 -3 -8l-15 -21q-2 -2 -2 -9v-18h-29v18q0 7 2 9l15 21q3 4 3 8v47q0 1 -1 3q-3 3 -4 3q-2 0 -2.5 -1
t-1.5 -2q-1 -2 -1 -3v-47z" />
    <glyph glyph-name="uni1EE1" unicode="&#x1ee1;" horiz-adv-x="275" 
d="M113 469q32 0 44 -14t12 -56v-296q0 -42 -12 -56t-44 -14h-17q-31 0 -42.5 14.5t-11.5 56.5v296q0 41 11.5 55t42.5 14h17zM209 432h12h12q6 -1 11 2q4 2 7.5 6.5t3.5 13.5v46h-29v-47q0 -2 -1 -3q-2 -3 -4 -3h-16q-9 27 -33 40t-60 13h-15q-46 0 -71.5 -21t-25.5 -67
v-324q0 -46 25.5 -67t71.5 -21h15q46 0 72 21t26 67v324v10t-1 10zM79 577q5 0 8 -1.5t5 -3.5l27 -17q7 -4 13 -4h2q1 0 3 1q4 2 4 7v18h34v-15q1 -8 -2 -14q-2 -5 -7 -9t-14 -4h-20q-6 0 -13 4l-27 17q-2 2 -5 3.5t-8 1.5h-2q-2 0 -4 -1q-3 -2 -3 -7v-18h-34v18q-1 7 2 12
q2 5 6.5 8.5t14.5 3.5h20z" />
    <glyph glyph-name="uni1EE3" unicode="&#x1ee3;" horiz-adv-x="275" 
d="M96 469q-31 0 -42.5 -14t-11.5 -55v-296q0 -42 11.5 -56.5t42.5 -14.5h17q32 0 44 14t12 56v296q0 42 -12 56t-44 14h-17zM209 432q1 -5 1 -10v-10v-324q0 -46 -26 -67t-72 -21h-15q-46 0 -71.5 21t-25.5 67v324q0 46 25.5 67t71.5 21h15q36 0 60 -13t33 -40h16q2 0 4 3
q1 1 1 3v47h29v-46q0 -9 -3.5 -13.5t-7.5 -6.5q-5 -3 -11 -2h-12h-12zM82 -97v62h45v-62h-45z" />
    <glyph glyph-name="Ohorn" unicode="&#x1a0;" horiz-adv-x="286" 
d="M232 647q2 0 4 3q1 1 1 3v47h29v-46q0 -9 -3.5 -13.5t-7.5 -6.5q-5 -3 -11 -2h-12h-13q1 -5 1.5 -10t0.5 -10v-524q0 -46 -26.5 -67t-74.5 -21h-20q-48 0 -74 21t-26 67v524q0 46 26 67t74 21h20q38 0 62.5 -13t33.5 -40h16zM100 667q-34 0 -46 -14t-12 -55v-494
q0 -42 12 -56.5t46 -14.5h20q34 0 46.5 14.5t12.5 55.5v494q0 41 -12.5 55.5t-46.5 14.5h-20z" />
    <glyph glyph-name="uni1EDC" unicode="&#x1edc;" horiz-adv-x="286" 
d="M232 647q2 0 4 3q1 1 1 3v47h29v-46q0 -9 -3.5 -13.5t-7.5 -6.5q-5 -3 -11 -2h-12h-13q1 -5 1.5 -10t0.5 -10v-524q0 -46 -26.5 -67t-74.5 -21h-20q-48 0 -74 21t-26 67v524q0 46 26 67t74 21h20q38 0 62.5 -13t33.5 -40h16zM100 667q-34 0 -46 -14t-12 -55v-494
q0 -42 12 -56.5t46 -14.5h20q34 0 46.5 14.5t12.5 55.5v494q0 41 -12.5 55.5t-46.5 14.5h-20zM96 735l-34 90h45l17 -90h-28z" />
    <glyph glyph-name="uni1EDE" unicode="&#x1ede;" horiz-adv-x="286" 
d="M232 647q2 0 4 3q1 1 1 3v47h29v-46q0 -9 -3.5 -13.5t-7.5 -6.5q-5 -3 -11 -2h-12h-13q1 -5 1.5 -10t0.5 -10v-524q0 -46 -26.5 -67t-74.5 -21h-20q-48 0 -74 21t-26 67v524q0 46 26 67t74 21h20q38 0 62.5 -13t33.5 -40h16zM100 667q-34 0 -46 -14t-12 -55v-494
q0 -42 12 -56.5t46 -14.5h20q34 0 46.5 14.5t12.5 55.5v494q0 41 -12.5 55.5t-46.5 14.5h-20zM105 791h-29v46q0 9 3 13.5t8 6.5q4 2 11 2h12h12q6 0 11 -2q4 -2 7.5 -6.5t3.5 -13.5v-46q0 -4 -3 -8l-15 -21q-2 -2 -2 -9v-18h-29v18q0 7 2 9l15 21q3 4 3 8v47q0 1 -1 3
q-3 3 -4 3q-2 0 -2.5 -1t-1.5 -2q-1 -2 -1 -3v-47z" />
    <glyph glyph-name="uni1EE0" unicode="&#x1ee0;" horiz-adv-x="286" 
d="M216 647q-9 27 -33.5 40t-62.5 13h-20q-48 0 -74 -21t-26 -67v-524q0 -46 26 -67t74 -21h20q48 0 74.5 21t26.5 67v524q0 5 -0.5 10t-1.5 10h13h12q6 -1 11 2q4 2 7.5 6.5t3.5 13.5v46h-29v-47q0 -2 -1 -3q-2 -3 -4 -3h-16zM120 667q34 0 46.5 -14.5t12.5 -55.5v-494
q0 -41 -12.5 -55.5t-46.5 -14.5h-20q-34 0 -46 14.5t-12 56.5v494q0 41 12 55t46 14h20zM84 777q5 0 8 -1.5t5 -3.5l27 -17q7 -4 13 -4h2q1 0 3 1q4 2 4 7v18h34v-15q1 -8 -2 -14q-2 -5 -7 -9t-14 -4h-20q-6 0 -13 4l-27 17q-2 2 -5 3.5t-8 1.5h-2q-2 0 -4 -1q-3 -2 -3 -7
v-18h-34v18q-1 7 2 12q2 5 6.5 8.5t14.5 3.5h20z" />
    <glyph glyph-name="uni1EE2" unicode="&#x1ee2;" horiz-adv-x="286" 
d="M232 647q2 0 4 3q1 1 1 3v47h29v-46q0 -9 -3.5 -13.5t-7.5 -6.5q-5 -3 -11 -2h-12h-13q1 -5 1.5 -10t0.5 -10v-524q0 -46 -26.5 -67t-74.5 -21h-20q-48 0 -74 21t-26 67v524q0 46 26 67t74 21h20q38 0 62.5 -13t33.5 -40h16zM100 667q-34 0 -46 -14t-12 -55v-494
q0 -42 12 -56.5t46 -14.5h20q34 0 46.5 14.5t12.5 55.5v494q0 41 -12.5 55.5t-46.5 14.5h-20zM87 -97v62h45v-62h-45z" />
    <glyph glyph-name="A" unicode="A" horiz-adv-x="273" 
d="M196 0l-29 245h-98l-29 -245h-40l85 700h66l85 -700h-40zM106 560l-33 -282h92l-33 282l-13 111h-2z" />
    <glyph glyph-name="Aacute" unicode="&#xc1;" horiz-adv-x="273" 
d="M103 735l17 90h45l-34 -90h-28zM196 0l-29 245h-98l-29 -245h-40l85 700h66l85 -700h-40zM106 560l-33 -282h92l-33 282l-13 111h-2z" />
    <glyph glyph-name="uni1ECE" unicode="&#x1ece;" horiz-adv-x="258" 
d="M120 700q48 0 74.5 -21t26.5 -67v-524q0 -46 -26.5 -67t-74.5 -21h-20q-48 0 -74 21t-26 67v524q0 46 26 67t74 21h20zM100 667q-34 0 -46 -14t-12 -55v-494q0 -42 12 -56.5t46 -14.5h20q34 0 46.5 14.5t12.5 55.5v494q0 41 -12.5 55.5t-46.5 14.5h-20zM105 791h-29v46
q0 9 3 13.5t8 6.5q4 2 11 2h12h12q6 0 11 -2q4 -2 7.5 -6.5t3.5 -13.5v-46q0 -4 -3 -8l-15 -21q-2 -2 -2 -9v-18h-29v18q0 7 2 9l15 21q3 4 3 8v47q0 1 -1 3q-3 3 -4 3q-2 0 -2.5 -1t-1.5 -2q-1 -2 -1 -3v-47z" />
    <glyph glyph-name="uni1ECC" unicode="&#x1ecc;" horiz-adv-x="258" 
d="M120 700q48 0 74.5 -21t26.5 -67v-524q0 -46 -26.5 -67t-74.5 -21h-20q-48 0 -74 21t-26 67v524q0 46 26 67t74 21h20zM100 667q-34 0 -46 -14t-12 -55v-494q0 -42 12 -56.5t46 -14.5h20q34 0 46.5 14.5t12.5 55.5v494q0 41 -12.5 55.5t-46.5 14.5h-20zM87 -97v62h45v-62
h-45z" />
    </font>
</defs>
</svg>
