<?xml version="1.0" standalone="no"?>
<!DOCTYPE svg PUBLIC "-//W3C//DTD SVG 1.1//EN" "http://www.w3.org/Graphics/SVG/1.1/DTD/svg11.dtd" >
<svg xmlns="http://www.w3.org/2000/svg" xmlns:xlink="http://www.w3.org/1999/xlink" version="1.1">
<metadata>
Created by FontForge 20150913 at Wed Apr 27 06:20:37 2016
 By Jimmy Wärting
Copyright \(c\) 2013 by Jan Tonellato. All rights reserved.
</metadata>
<defs>
<font id="iCielNovecentosans-UltraBold" horiz-adv-x="623" >
  <font-face 
    font-family="iCiel Novecento sans"
    font-weight="800"
    font-stretch="normal"
    units-per-em="1000"
    panose-1="0 0 9 0 0 0 0 0 0 0"
    ascent="821"
    descent="-179"
    x-height="560"
    cap-height="700"
    bbox="-371 -229 1118 1133"
    underline-thickness="165"
    underline-position="-195"
    stemh="158"
    stemv="172"
    unicode-range="U+0020-F8FF"
  />
<missing-glyph horiz-adv-x="600" 
d="M44 85v530c0 26 8 47 24 62s36 23 61 23h341c25 0 45 -8 61 -23s24 -36 24 -62v-530c0 -27 -8 -48 -24 -63c-15 -15 -36 -22 -61 -22h-341c-25 0 -46 7 -61 22c-16 15 -24 36 -24 63zM141 22h317c49 0 74 25 74 76v504c0 51 -28 76 -84 76h-297c-31 0 -53 -6 -66 -17
c-12 -11 -18 -31 -18 -59v-504c0 -51 25 -76 74 -76zM404 348l104 -109l-110 -105l-98 103l-98 -103l-110 105l104 109l-105 109l111 104l98 -102l98 102l111 -104z" />
    <glyph glyph-name=".notdef" horiz-adv-x="600" 
d="M44 85v530c0 26 8 47 24 62s36 23 61 23h341c25 0 45 -8 61 -23s24 -36 24 -62v-530c0 -27 -8 -48 -24 -63c-15 -15 -36 -22 -61 -22h-341c-25 0 -46 7 -61 22c-16 15 -24 36 -24 63zM141 22h317c49 0 74 25 74 76v504c0 51 -28 76 -84 76h-297c-31 0 -53 -6 -66 -17
c-12 -11 -18 -31 -18 -59v-504c0 -51 25 -76 74 -76zM404 348l104 -109l-110 -105l-98 103l-98 -103l-110 105l104 109l-105 109l111 104l98 -102l98 102l111 -104z" />
    <glyph glyph-name="A" unicode="A" horiz-adv-x="680" 
d="M449 101h-222l-27 -101h-190l217 700h226l217 -700h-193zM404 268l-39 140c-18 67 -26 99 -25 98h-4c1 1 -7 -31 -25 -97l-39 -141h132z" />
    <glyph glyph-name="Aacute" unicode="&#xc1;" horiz-adv-x="680" 
d="M419 754h-159l105 185l143 -41zM449 101h-222l-27 -101h-190l217 700h226l217 -700h-193zM404 268l-39 140c-18 67 -26 99 -25 98h-4c1 1 -7 -31 -25 -97l-39 -141h132z" />
    <glyph glyph-name="Abreve" unicode="&#x102;" horiz-adv-x="680" 
d="M339 740c-55 0 -99 14 -130 41c-32 28 -49 68 -51 121h129c1 -32 19 -48 52 -48c36 0 53 16 52 48h129c-2 -52 -19 -92 -51 -121c-32 -27 -75 -41 -130 -41zM449 101h-222l-27 -101h-190l217 700h226l217 -700h-193zM404 268l-39 140c-18 67 -26 99 -25 98h-4
c1 1 -7 -31 -25 -97l-39 -141h132z" />
    <glyph glyph-name="Acircumflex" unicode="&#xc2;" horiz-adv-x="680" 
d="M240 732l-81 96l177 133l178 -133l-81 -96l-97 68zM449 101h-222l-27 -101h-190l217 700h226l217 -700h-193zM404 268l-39 140c-18 67 -26 99 -25 98h-4c1 1 -7 -31 -25 -97l-39 -141h132z" />
    <glyph glyph-name="Adieresis" unicode="&#xc4;" horiz-adv-x="680" 
d="M235 760c-22 0 -40 8 -55 23s-22 34 -22 57c0 22 8 41 23 56s33 23 56 23c21 0 39 -8 54 -23s22 -34 22 -56c0 -23 -7 -42 -22 -57s-34 -23 -56 -23zM445 760c-23 0 -41 8 -55 23c-15 15 -22 34 -22 57c0 22 7 41 22 56s33 23 55 23s40 -8 55 -23s22 -34 22 -56
c0 -23 -7 -42 -22 -57s-33 -23 -55 -23zM449 101h-222l-27 -101h-190l217 700h226l217 -700h-193zM404 268l-39 140c-18 67 -26 99 -25 98h-4c1 1 -7 -31 -25 -97l-39 -141h132z" />
    <glyph glyph-name="Agrave" unicode="&#xc0;" horiz-adv-x="680" 
d="M262 754l-90 144l143 41l106 -185h-159zM449 101h-222l-27 -101h-190l217 700h226l217 -700h-193zM404 268l-39 140c-18 67 -26 99 -25 98h-4c1 1 -7 -31 -25 -97l-39 -141h132z" />
    <glyph glyph-name="Amacron" unicode="&#x100;" horiz-adv-x="680" 
d="M502 756h-324v152h324v-152zM449 101h-222l-27 -101h-190l217 700h226l217 -700h-193zM404 268l-39 140c-18 67 -26 99 -25 98h-4c1 1 -7 -31 -25 -97l-39 -141h132z" />
    <glyph glyph-name="Aogonek" unicode="&#x104;" horiz-adv-x="680" 
d="M591 -57c29 0 57 6 83 17v-121c-28 -12 -64 -18 -109 -18c-47 0 -84 10 -111 31s-40 50 -40 85c0 40 17 74 52 101l-17 63h-222l-27 -101h-190l217 700h226l217 -700h-29c-53 -2 -80 -15 -80 -38c0 -13 10 -19 30 -19zM404 268l-39 140c-18 67 -26 99 -25 98h-4
c1 1 -7 -31 -25 -97l-39 -141h132z" />
    <glyph glyph-name="Aring" unicode="&#xc5;" horiz-adv-x="680" 
d="M340 729c-43 0 -76 11 -101 32c-26 22 -39 53 -39 93s13 71 39 93c25 21 58 32 101 32s76 -11 101 -32c26 -22 39 -53 39 -93s-13 -71 -39 -93c-25 -21 -58 -32 -101 -32zM340 894c-29 0 -43 -13 -43 -40s14 -40 43 -40s44 13 44 40s-15 40 -44 40zM449 101h-222
l-27 -101h-190l217 700h226l217 -700h-193zM404 268l-39 140c-18 67 -26 99 -25 98h-4c1 1 -7 -31 -25 -97l-39 -141h132z" />
    <glyph glyph-name="Atilde" unicode="&#xc3;" horiz-adv-x="680" 
d="M267 789c-40 0 -70 -9 -89 -27l-28 132c16 23 48 34 97 34c20 0 47 -4 82 -13c34 -9 61 -13 82 -13c37 0 66 9 88 27l27 -132c-14 -23 -46 -34 -95 -34c-21 0 -48 4 -82 13c-35 9 -62 13 -82 13zM449 101h-222l-27 -101h-190l217 700h226l217 -700h-193zM404 268l-39 140
c-18 67 -26 99 -25 98h-4c1 1 -7 -31 -25 -97l-39 -141h132z" />
    <glyph glyph-name="AE" unicode="&#xc6;" horiz-adv-x="913" 
d="M877 164v-164h-477v108h-170l-30 -108h-190l218 700h644v-163h-295v-104h221v-156h-221v-113h300zM400 264v273h-50l-76 -273h126z" />
    <glyph glyph-name="B" unicode="B" horiz-adv-x="577" 
d="M444 377v-4c77 -26 115 -83 115 -171c0 -59 -19 -107 -56 -142c-42 -40 -102 -60 -181 -60h-278v700h282c60 0 109 -18 147 -54c37 -35 56 -78 56 -129c0 -36 -10 -67 -29 -94c-15 -23 -34 -38 -56 -46zM227 430h68c37 0 55 19 55 58s-18 59 -55 59h-68v-117zM227 153h81
c41 0 62 23 62 68c0 48 -21 72 -63 72h-80v-140z" />
    <glyph glyph-name="C" unicode="C" horiz-adv-x="666" 
d="M468 252l178 -48c-22 -66 -58 -118 -107 -156c-53 -41 -117 -62 -192 -62c-97 0 -174 31 -232 93c-61 65 -92 156 -92 273c0 115 31 204 92 269c58 62 136 93 234 93c75 0 139 -19 190 -57c49 -36 83 -85 102 -148l-178 -48c-28 53 -69 80 -123 80
c-88 0 -132 -63 -132 -189c0 -129 44 -193 132 -193c62 0 105 31 128 93z" />
    <glyph glyph-name="Cacute" unicode="&#x106;" horiz-adv-x="666" 
d="M423 754h-159l106 185l143 -41zM468 252l178 -48c-22 -66 -58 -118 -107 -156c-53 -41 -117 -62 -192 -62c-97 0 -174 31 -232 93c-61 65 -92 156 -92 273c0 115 31 204 92 269c58 62 136 93 234 93c75 0 139 -19 190 -57c49 -36 83 -85 102 -148l-178 -48
c-28 53 -69 80 -123 80c-88 0 -132 -63 -132 -189c0 -129 44 -193 132 -193c62 0 105 31 128 93z" />
    <glyph glyph-name="Cacute.loclPLK" horiz-adv-x="666" 
d="M415 754h-143l60 199l143 -24zM468 252l178 -48c-22 -66 -58 -118 -107 -156c-53 -41 -117 -62 -192 -62c-97 0 -174 31 -232 93c-61 65 -92 156 -92 273c0 115 31 204 92 269c58 62 136 93 234 93c75 0 139 -19 190 -57c49 -36 83 -85 102 -148l-178 -48
c-28 53 -69 80 -123 80c-88 0 -132 -63 -132 -189c0 -129 44 -193 132 -193c62 0 105 31 128 93z" />
    <glyph glyph-name="Ccaron" unicode="&#x10c;" horiz-adv-x="666" 
d="M167 860l80 94l98 -63l97 63l80 -94l-177 -126zM468 252l178 -48c-22 -66 -58 -118 -107 -156c-53 -41 -117 -62 -192 -62c-97 0 -174 31 -232 93c-61 65 -92 156 -92 273c0 115 31 204 92 269c58 62 136 93 234 93c75 0 139 -19 190 -57c49 -36 83 -85 102 -148
l-178 -48c-28 53 -69 80 -123 80c-88 0 -132 -63 -132 -189c0 -129 44 -193 132 -193c62 0 105 31 128 93z" />
    <glyph glyph-name="Ccedilla" unicode="&#xc7;" horiz-adv-x="666" 
d="M468 252l178 -48c-35 -105 -101 -172 -196 -203c20 -17 30 -41 30 -72c0 -72 -50 -108 -149 -108c-42 0 -72 4 -90 12v111c12 -5 31 -8 57 -8c37 0 55 7 55 21c0 19 -37 28 -111 26v18c-67 20 -120 59 -159 118c-40 61 -60 139 -60 233c0 115 31 204 92 269
c58 62 136 93 234 93c75 0 139 -19 190 -57c49 -36 83 -85 102 -148l-178 -48c-28 53 -69 80 -123 80c-88 0 -132 -63 -132 -189c0 -129 44 -193 132 -193c62 0 105 31 128 93z" />
    <glyph glyph-name="Ccircumflex" unicode="&#x108;" horiz-adv-x="666" 
d="M518 828l-81 -96l-96 68l-97 -68l-81 96l178 133zM468 252l178 -48c-22 -66 -58 -118 -107 -156c-53 -41 -117 -62 -192 -62c-97 0 -174 31 -232 93c-61 65 -92 156 -92 273c0 115 31 204 92 269c58 62 136 93 234 93c75 0 139 -19 190 -57c49 -36 83 -85 102 -148
l-178 -48c-28 53 -69 80 -123 80c-88 0 -132 -63 -132 -189c0 -129 44 -193 132 -193c62 0 105 31 128 93z" />
    <glyph glyph-name="Cdotaccent" unicode="&#x10a;" horiz-adv-x="666" 
d="M344 760c-22 0 -40 8 -55 23s-22 34 -22 57s7 41 22 56s33 23 55 23s40 -8 55 -23s22 -33 22 -56s-7 -42 -22 -57s-33 -23 -55 -23zM468 252l178 -48c-22 -66 -58 -118 -107 -156c-53 -41 -117 -62 -192 -62c-97 0 -174 31 -232 93c-61 65 -92 156 -92 273
c0 115 31 204 92 269c58 62 136 93 234 93c75 0 139 -19 190 -57c49 -36 83 -85 102 -148l-178 -48c-28 53 -69 80 -123 80c-88 0 -132 -63 -132 -189c0 -129 44 -193 132 -193c62 0 105 31 128 93z" />
    <glyph glyph-name="D" unicode="D" horiz-adv-x="680" 
d="M44 700h284c99 0 178 -32 238 -96c61 -65 91 -150 91 -257c0 -106 -30 -190 -90 -253c-59 -63 -139 -94 -238 -94h-285v700zM227 171h86c106 0 159 58 159 175c0 63 -16 111 -48 143c-27 27 -63 40 -108 40h-89v-358z" />
    <glyph glyph-name="Eth" unicode="&#xd0;" horiz-adv-x="682" 
d="M47 700h284c99 0 178 -32 238 -96c60 -65 90 -150 90 -257c0 -105 -30 -190 -90 -253c-59 -63 -138 -94 -237 -94h-285v270h-37v164h37v266zM229 171h87c46 0 83 13 110 38c33 30 49 76 49 137c0 63 -16 111 -48 143c-27 27 -63 40 -108 40h-90v-95h114v-164h-114v-99z
" />
    <glyph glyph-name="Dcaron" unicode="&#x10e;" horiz-adv-x="680" 
d="M147 860l80 94l97 -63l98 63l80 -94l-178 -126zM44 700h284c99 0 178 -32 238 -96c61 -65 91 -150 91 -257c0 -106 -30 -190 -90 -253c-59 -63 -139 -94 -238 -94h-285v700zM227 171h86c106 0 159 58 159 175c0 63 -16 111 -48 143c-27 27 -63 40 -108 40h-89v-358z" />
    <glyph glyph-name="Dcroat" unicode="&#x110;" horiz-adv-x="682" 
d="M47 700h284c99 0 178 -32 238 -96c60 -65 90 -150 90 -257c0 -105 -30 -190 -90 -253c-59 -63 -138 -94 -237 -94h-285v270h-37v164h37v266zM229 171h87c46 0 83 13 110 38c33 30 49 76 49 137c0 63 -16 111 -48 143c-27 27 -63 40 -108 40h-90v-95h114v-164h-114v-99z
" />
    <glyph glyph-name="E" unicode="E" horiz-adv-x="561" 
d="M44 0v700h476v-171h-293v-97h212v-158h-212v-103h298v-171h-481z" />
    <glyph glyph-name="Eacute" unicode="&#xc9;" horiz-adv-x="561" 
d="M372 754h-160l106 185l143 -41zM44 0v700h476v-171h-293v-97h212v-158h-212v-103h298v-171h-481z" />
    <glyph glyph-name="Ecaron" unicode="&#x11a;" horiz-adv-x="561" 
d="M115 860l80 94l98 -63l98 63l80 -94l-178 -126zM44 0v700h476v-171h-293v-97h212v-158h-212v-103h298v-171h-481z" />
    <glyph glyph-name="Ecircumflex" unicode="&#xca;" horiz-adv-x="561" 
d="M467 828l-81 -96l-97 68l-97 -68l-81 96l178 133zM44 0v700h476v-171h-293v-97h212v-158h-212v-103h298v-171h-481z" />
    <glyph glyph-name="Edieresis" unicode="&#xcb;" horiz-adv-x="561" 
d="M188 760c-23 0 -41 8 -55 23c-15 15 -22 34 -22 57c0 22 7 41 22 56s34 23 56 23c21 0 39 -8 54 -23s22 -34 22 -56c0 -23 -7 -42 -22 -57s-33 -23 -55 -23zM398 760c-23 0 -41 8 -56 23s-22 34 -22 57c0 22 7 41 22 56s34 23 56 23c21 0 40 -8 55 -23s22 -34 22 -56
c0 -23 -7 -42 -22 -57s-34 -23 -55 -23zM44 0v700h476v-171h-293v-97h212v-158h-212v-103h298v-171h-481z" />
    <glyph glyph-name="Edotaccent" unicode="&#x116;" horiz-adv-x="561" 
d="M292 760c-22 0 -40 8 -55 23s-22 34 -22 57s7 41 22 56s33 23 55 23s40 -8 55 -23s22 -33 22 -56s-7 -42 -22 -57s-33 -23 -55 -23zM44 0v700h476v-171h-293v-97h212v-158h-212v-103h298v-171h-481z" />
    <glyph glyph-name="Egrave" unicode="&#xc8;" horiz-adv-x="561" 
d="M268 939l106 -185h-160l-89 144zM44 0v700h476v-171h-293v-97h212v-158h-212v-103h298v-171h-481z" />
    <glyph glyph-name="Emacron" unicode="&#x112;" horiz-adv-x="561" 
d="M455 756h-324v152h324v-152zM44 0v700h476v-171h-293v-97h212v-158h-212v-103h298v-171h-481z" />
    <glyph glyph-name="Eogonek" unicode="&#x118;" horiz-adv-x="561" 
d="M525 0h-36c-47 -1 -70 -11 -70 -30c0 -17 15 -26 45 -26c18 0 38 5 61 16v-122c-26 -11 -58 -17 -95 -17c-105 0 -158 34 -158 103c0 32 11 57 34 76h-262v700h476v-171h-293v-97h212v-158h-212v-103h298v-171z" />
    <glyph glyph-name="F" unicode="F" horiz-adv-x="543" 
d="M511 529h-284v-114h218v-171h-218v-244h-183v700h467v-171z" />
    <glyph glyph-name="G" unicode="G" horiz-adv-x="694" 
d="M658 0h-163v42h-3c-36 -36 -88 -54 -155 -54c-89 0 -162 30 -220 90c-63 66 -94 157 -94 273c0 114 30 204 91 270c57 62 133 93 227 93c77 0 142 -19 195 -57c49 -36 83 -85 102 -148l-178 -48c-23 53 -61 80 -115 80c-41 0 -74 -16 -99 -48c-25 -33 -38 -79 -38 -137
c0 -63 13 -112 40 -146s64 -51 113 -51c62 0 105 18 128 55v36h-140v154h309v-404z" />
    <glyph glyph-name="Gbreve" unicode="&#x11e;" horiz-adv-x="694" 
d="M164 902h129c1 -32 19 -48 52 -48c36 0 53 16 52 48h129c-1 -52 -18 -92 -51 -121c-32 -27 -75 -41 -130 -41s-99 14 -130 41c-32 28 -49 68 -51 121zM658 0h-163v42h-3c-36 -36 -88 -54 -155 -54c-89 0 -162 30 -220 90c-63 66 -94 157 -94 273c0 114 30 204 91 270
c57 62 133 93 227 93c77 0 142 -19 195 -57c49 -36 83 -85 102 -148l-178 -48c-23 53 -61 80 -115 80c-41 0 -74 -16 -99 -48c-25 -33 -38 -79 -38 -137c0 -63 13 -112 40 -146s64 -51 113 -51c62 0 105 18 128 55v36h-140v154h309v-404z" />
    <glyph glyph-name="Gcircumflex" unicode="&#x11c;" horiz-adv-x="694" 
d="M520 828l-81 -96l-96 68l-97 -68l-81 96l178 133zM658 0h-163v42h-3c-36 -36 -88 -54 -155 -54c-89 0 -162 30 -220 90c-63 66 -94 157 -94 273c0 114 30 204 91 270c57 62 133 93 227 93c77 0 142 -19 195 -57c49 -36 83 -85 102 -148l-178 -48c-23 53 -61 80 -115 80
c-41 0 -74 -16 -99 -48c-25 -33 -38 -79 -38 -137c0 -63 13 -112 40 -146s64 -51 113 -51c62 0 105 18 128 55v36h-140v154h309v-404z" />
    <glyph glyph-name="uni0122" unicode="&#x122;" horiz-adv-x="694" 
d="M658 0h-163v42h-3c-36 -36 -88 -54 -155 -54c-89 0 -162 30 -220 90c-63 66 -94 157 -94 273c0 114 30 204 91 270c57 62 133 93 227 93c77 0 142 -19 195 -57c49 -36 83 -85 102 -148l-178 -48c-23 53 -61 80 -115 80c-41 0 -74 -16 -99 -48c-25 -33 -38 -79 -38 -137
c0 -63 13 -112 40 -146s64 -51 113 -51c62 0 105 18 128 55v36h-140v154h309v-404zM330 -143c-35 1 -52 20 -52 55c0 43 27 65 81 65c57 0 86 -27 86 -80c0 -61 -37 -103 -112 -126l-55 60c25 5 42 13 52 26z" />
    <glyph glyph-name="Gdotaccent" unicode="&#x120;" horiz-adv-x="694" 
d="M346 760c-22 0 -40 8 -55 23s-22 34 -22 57s7 41 22 56s33 23 55 23s40 -8 55 -23s22 -33 22 -56s-7 -42 -22 -57s-33 -23 -55 -23zM658 0h-163v42h-3c-36 -36 -88 -54 -155 -54c-89 0 -162 30 -220 90c-63 66 -94 157 -94 273c0 114 30 204 91 270c57 62 133 93 227 93
c77 0 142 -19 195 -57c49 -36 83 -85 102 -148l-178 -48c-23 53 -61 80 -115 80c-41 0 -74 -16 -99 -48c-25 -33 -38 -79 -38 -137c0 -63 13 -112 40 -146s64 -51 113 -51c62 0 105 18 128 55v36h-140v154h309v-404z" />
    <glyph glyph-name="H" unicode="H" horiz-adv-x="652" 
d="M425 0v265h-198v-265h-183v700h183v-257h198v257h183v-700h-183z" />
    <glyph glyph-name="Hbar" unicode="&#x126;" horiz-adv-x="714" 
d="M696 455h-57v-455h-183v221h-198v-221h-183v455h-57v149h57v96h183v-96h198v96h183v-96h57v-149zM456 455h-198v-56h198v56z" />
    <glyph glyph-name="Hcircumflex" unicode="&#x124;" horiz-adv-x="652" 
d="M500 828l-81 -96l-97 68l-97 -68l-81 96l178 133zM425 0v265h-198v-265h-183v700h183v-257h198v257h183v-700h-183z" />
    <glyph glyph-name="I" unicode="I" horiz-adv-x="271" 
d="M44 0v700h183v-700h-183z" />
    <glyph glyph-name="I.ss03" horiz-adv-x="510" 
d="M346 168h120v-168h-422v168h120v364h-120v168h422v-168h-120v-364z" />
    <glyph glyph-name="IJ" unicode="&#x132;" horiz-adv-x="761" 
d="M44 0v700h183v-700h-183zM721 700v-405c0 -206 -88 -309 -265 -309c-83 0 -144 25 -185 76l114 132c20 -23 43 -35 69 -35c37 0 62 13 73 39c8 19 12 56 12 113v389h182z" />
    <glyph glyph-name="IJ.ss03" horiz-adv-x="1000" 
d="M346 168h120v-168h-422v168h120v364h-120v168h422v-168h-120v-364zM960 700v-405c0 -206 -88 -309 -265 -309c-83 0 -144 25 -185 76l114 132c20 -23 43 -35 69 -35c37 0 62 13 73 39c8 19 12 56 12 113v389h182z" />
    <glyph glyph-name="IJ.ss03.ss04" horiz-adv-x="1000" 
d="M44 700h422v-168h-120v-364h120v-168h-422v168h120v364h-120v168zM960 700v-405c0 -206 -88 -309 -265 -309c-83 0 -144 25 -185 76l114 132c20 -23 43 -35 69 -35c37 0 62 13 73 39c8 19 12 56 12 113v218h-210v171h392z" />
    <glyph glyph-name="IJ.ss04" horiz-adv-x="761" 
d="M44 700h183v-700h-183v700zM721 700v-405c0 -206 -88 -309 -265 -309c-83 0 -144 25 -185 76l114 132c20 -23 43 -35 69 -35c37 0 62 13 73 39c8 19 12 56 12 113v218h-210v171h392z" />
    <glyph glyph-name="Iacute" unicode="&#xcd;" horiz-adv-x="271" 
d="M214 754h-160l106 185l143 -41zM44 0v700h183v-700h-183z" />
    <glyph glyph-name="Iacute.ss03" horiz-adv-x="510" 
d="M334 754h-159l105 185l143 -41zM346 168h120v-168h-422v168h120v364h-120v168h422v-168h-120v-364z" />
    <glyph glyph-name="Iacute_J.loclNLD" horiz-adv-x="761" 
d="M214 754h-160l106 185l143 -41zM714 754h-160l106 185l143 -41zM44 0v700h183v-700h-183zM721 700v-405c0 -206 -88 -309 -265 -309c-83 0 -144 25 -185 76l114 132c20 -23 43 -35 69 -35c37 0 62 13 73 39c8 19 12 56 12 113v389h182z" />
    <glyph glyph-name="Icircumflex" unicode="&#xce;" horiz-adv-x="271" 
d="M275 836l-85 -91l-55 50l-56 -51l-85 91l141 126zM44 0v700h183v-700h-183z" />
    <glyph glyph-name="Icircumflex.ss03" horiz-adv-x="510" 
d="M429 828l-81 -96l-97 68l-96 -68l-81 96l177 133zM346 168h120v-168h-422v168h120v364h-120v168h422v-168h-120v-364z" />
    <glyph glyph-name="Idieresis" unicode="&#xcf;" horiz-adv-x="271" 
d="M51 760c-22 0 -40 8 -54 23s-21 34 -21 57c0 22 7 41 22 56s33 23 55 23c21 0 39 -8 53 -23c13 -15 20 -34 20 -56c0 -23 -7 -42 -21 -57s-32 -23 -54 -23zM219 760c-22 0 -40 8 -54 23s-21 34 -21 57s7 41 21 56s32 23 54 23c21 0 39 -8 53 -23s21 -34 21 -56
c0 -23 -7 -42 -21 -57s-32 -23 -53 -23zM44 0v700h183v-700h-183z" />
    <glyph glyph-name="Idieresis.ss03" horiz-adv-x="510" 
d="M150 760c-22 0 -40 8 -55 23s-22 34 -22 57c0 22 8 41 23 56s33 23 56 23c21 0 39 -8 54 -23s22 -34 22 -56c0 -23 -7 -42 -22 -57s-34 -23 -56 -23zM360 760c-23 0 -41 8 -55 23c-15 15 -22 34 -22 57c0 22 7 41 22 56s33 23 55 23s40 -8 55 -23s22 -34 22 -56
c0 -23 -7 -42 -22 -57s-33 -23 -55 -23zM346 168h120v-168h-422v168h120v364h-120v168h422v-168h-120v-364z" />
    <glyph glyph-name="Idotaccent" unicode="&#x130;" horiz-adv-x="271" 
d="M134 760c-22 0 -40 8 -55 23s-22 34 -22 57s7 41 22 56s33 23 55 23c23 0 41 -8 56 -23s22 -33 22 -56s-7 -42 -22 -57s-33 -23 -56 -23zM44 0v700h183v-700h-183z" />
    <glyph glyph-name="Idotaccent.ss03" horiz-adv-x="510" 
d="M255 760c-23 0 -41 8 -56 23s-22 34 -22 57s7 41 22 56s33 23 56 23c22 0 40 -8 55 -23s22 -33 22 -56s-7 -42 -22 -57s-33 -23 -55 -23zM346 168h120v-168h-422v168h120v364h-120v168h422v-168h-120v-364z" />
    <glyph glyph-name="Igrave" unicode="&#xcc;" horiz-adv-x="271" 
d="M110 939l106 -185h-160l-89 144zM44 0v700h183v-700h-183z" />
    <glyph glyph-name="Igrave.ss03" horiz-adv-x="510" 
d="M230 939l106 -185h-159l-90 144zM346 168h120v-168h-422v168h120v364h-120v168h422v-168h-120v-364z" />
    <glyph glyph-name="Imacron" unicode="&#x12a;" horiz-adv-x="271" 
d="M264 755h-258v152h258v-152zM44 0v700h183v-700h-183z" />
    <glyph glyph-name="Imacron.ss03" horiz-adv-x="510" 
d="M466 764h-422v144h422v-144zM346 168h120v-168h-422v168h120v364h-120v168h422v-168h-120v-364z" />
    <glyph glyph-name="Iogonek" unicode="&#x12e;" horiz-adv-x="271" 
d="M202 -57c20 0 40 4 59 12v-117c-24 -11 -55 -17 -93 -17c-36 0 -67 8 -92 25c-33 21 -50 54 -50 98c0 26 6 49 18 68v688h183l-1 -700c-42 -2 -63 -13 -63 -32c0 -17 13 -25 39 -25z" />
    <glyph glyph-name="Iogonek.ss03" horiz-adv-x="510" 
d="M417 -56c18 0 38 5 61 16v-122c-26 -11 -58 -17 -95 -17c-106 0 -159 34 -159 103c0 32 11 57 34 76h-214v168h120v364h-120v168h422v-168h-120v-364h120v-168h-24c-47 -1 -71 -11 -71 -30c0 -17 15 -26 46 -26z" />
    <glyph glyph-name="J" unicode="J" horiz-adv-x="490" 
d="M450 700v-405c0 -206 -88 -309 -265 -309c-83 0 -144 25 -185 76l114 132c20 -23 43 -35 69 -35c37 0 62 13 73 39c8 19 12 56 12 113v389h182z" />
    <glyph glyph-name="J.ss04" horiz-adv-x="490" 
d="M450 700v-405c0 -206 -88 -309 -265 -309c-83 0 -144 25 -185 76l114 132c20 -23 43 -35 69 -35c37 0 62 13 73 39c8 19 12 56 12 113v218h-210v171h392z" />
    <glyph glyph-name="Jcircumflex" unicode="&#x134;" horiz-adv-x="490" 
d="M538 828l-81 -96l-97 68l-97 -68l-81 96l178 133zM450 700v-405c0 -206 -88 -309 -265 -309c-83 0 -144 25 -185 76l114 132c20 -23 43 -35 69 -35c37 0 62 13 73 39c8 19 12 56 12 113v389h182z" />
    <glyph glyph-name="Jcircumflex.ss04" horiz-adv-x="490" 
d="M159 732l-81 96l178 133l178 -133l-81 -96l-97 68zM450 700v-405c0 -206 -88 -309 -265 -309c-83 0 -144 25 -185 76l114 132c20 -23 43 -35 69 -35c37 0 62 13 73 39c8 19 12 56 12 113v218h-210v171h392z" />
    <glyph glyph-name="K" unicode="K" horiz-adv-x="659" 
d="M433 0l-143 270l-63 -82v-188h-183v700h183v-279h4c-5 -5 14 23 57 84l137 195h215l-217 -285l222 -415h-212z" />
    <glyph glyph-name="uni0136" unicode="&#x136;" horiz-adv-x="659" 
d="M645 0h-212l-143 270l-63 -82v-188h-183v700h183v-279h4c-5 -5 14 23 57 84l137 195h215l-217 -285zM264 -23c57 0 86 -27 86 -80c0 -61 -37 -103 -112 -126l-55 60c25 5 42 13 52 26c-35 1 -52 20 -52 55c0 43 27 65 81 65z" />
    <glyph glyph-name="L" unicode="L" horiz-adv-x="520" 
d="M44 0v700h183v-529h267v-171h-450z" />
    <glyph glyph-name="Lacute" unicode="&#x139;" horiz-adv-x="520" 
d="M216 754h-160l106 185l143 -41zM44 0v700h183v-529h267v-171h-450z" />
    <glyph glyph-name="Lcaron" unicode="&#x13d;" horiz-adv-x="520" 
d="M44 0v700h183v-529h267v-171h-450zM359 700h143c4 -69 -10 -134 -43 -196h-130c22 49 32 114 30 196z" />
    <glyph glyph-name="uni013B" unicode="&#x13b;" horiz-adv-x="520" 
d="M44 0v700h183v-529h267v-171h-450zM228 -143c-35 1 -52 20 -52 55c0 43 27 65 81 65c57 0 86 -27 86 -80c0 -61 -37 -103 -112 -126l-55 60c25 5 42 13 52 26z" />
    <glyph glyph-name="Ldot" unicode="&#x13f;" horiz-adv-x="520" 
d="M44 0v700h183v-529h267v-171h-450zM392 304c-29 0 -52 8 -68 25c-16 16 -24 37 -24 63s8 47 24 62c16 17 39 25 68 25s52 -8 69 -25c15 -15 23 -36 23 -62s-8 -47 -23 -63c-17 -17 -40 -25 -69 -25z" />
    <glyph glyph-name="Lslash" unicode="&#x141;" horiz-adv-x="520" 
d="M494 171v-171h-450v700h183v-272l205 93v-176l-205 -93v-81h267z" />
    <glyph glyph-name="M" unicode="M" horiz-adv-x="758" 
d="M531 0v146c0 69 0 132 1 188l1 64h-3c1 1 -17 -41 -53 -124l-46 -108h-106l-99 232h-4l1 -64c1 -56 1 -119 1 -188v-146h-180v700h206l133 -278h4l130 278h197v-700h-183z" />
    <glyph glyph-name="N" unicode="N" horiz-adv-x="686" 
d="M457 0l-231 364h-3l1 -55v-309h-180v700h185l230 -365h3l-1 365h180v-700h-184z" />
    <glyph glyph-name="N.ss02" horiz-adv-x="686" 
d="M641 0h-182v216l-228 227h-4v-443h-183v700h181l230 -230h4v230h182v-700z" />
    <glyph glyph-name="Nacute" unicode="&#x143;" horiz-adv-x="686" 
d="M417 754h-159l105 185l143 -41zM457 0l-231 364h-3l1 -55v-309h-180v700h185l230 -365h3l-1 365h180v-700h-184z" />
    <glyph glyph-name="Nacute.loclPLK" horiz-adv-x="686" 
d="M408 754h-143l61 199l142 -24zM457 0l-231 364h-3l1 -55v-309h-180v700h185l230 -365h3l-1 365h180v-700h-184z" />
    <glyph glyph-name="Nacute.loclPLK.ss02" horiz-adv-x="686" 
d="M409 754h-143l60 199l143 -24zM641 0h-182v216l-228 227h-4v-443h-183v700h181l230 -230h4v230h182v-700z" />
    <glyph glyph-name="Nacute.ss02" horiz-adv-x="686" 
d="M418 754h-160l106 185l143 -41zM641 0h-182v216l-228 227h-4v-443h-183v700h181l230 -230h4v230h182v-700z" />
    <glyph glyph-name="Ncaron" unicode="&#x147;" horiz-adv-x="686" 
d="M161 860l80 94l97 -63l98 63l80 -94l-178 -126zM457 0l-231 364h-3l1 -55v-309h-180v700h185l230 -365h3l-1 365h180v-700h-184z" />
    <glyph glyph-name="Ncaron.ss02" horiz-adv-x="686" 
d="M161 860l80 94l98 -63l98 63l80 -94l-178 -126zM641 0h-182v216l-228 227h-4v-443h-183v700h181l230 -230h4v230h182v-700z" />
    <glyph glyph-name="uni0145" unicode="&#x145;" horiz-adv-x="686" 
d="M457 0l-231 364h-3l1 -55v-309h-180v700h185l230 -365h3l-1 365h180v-700h-184zM310 -143c-34 1 -51 20 -51 55c0 43 27 65 81 65c57 0 86 -27 86 -80c0 -61 -38 -103 -113 -126l-55 60c25 5 42 13 52 26z" />
    <glyph glyph-name="Ncommaaccent.ss02" horiz-adv-x="686" 
d="M641 0h-182v216l-228 227h-4v-443h-183v700h181l230 -230h4v230h182v-700zM313 -143c-34 1 -51 20 -51 55c0 43 27 65 81 65c57 0 86 -27 86 -80c0 -61 -38 -103 -113 -126l-54 60c25 5 42 13 51 26z" />
    <glyph glyph-name="Eng" unicode="&#x14a;" horiz-adv-x="686" 
d="M641 700v-700c0 -66 -18 -111 -53 -135c-25 -17 -66 -26 -122 -26h-72v132h51c9 0 15 3 17 9c1 6 0 13 -5 20l-231 364h-3l1 -55v-309h-180v700h185l230 -365h3l-1 365h180z" />
    <glyph glyph-name="Eng.ss02" horiz-adv-x="686" 
d="M641 700v-700c0 -67 -20 -112 -60 -135c-29 -17 -78 -26 -145 -26h-42v132h45c19 0 28 10 28 29v249l-142 128c-50 43 -81 71 -94 84h-4v-461h-183v700h181l133 -121c32 -31 64 -58 97 -82h4v203h182z" />
    <glyph glyph-name="Ntilde" unicode="&#xd1;" horiz-adv-x="686" 
d="M497 929l27 -132c-14 -23 -46 -34 -95 -34c-21 0 -48 4 -82 13c-35 9 -62 13 -82 13c-40 0 -70 -9 -89 -27l-28 132c16 23 48 34 97 34c20 0 47 -4 82 -13c34 -9 61 -13 82 -13c37 0 66 9 88 27zM457 0l-231 364h-3l1 -55v-309h-180v700h185l230 -365h3l-1 365h180v-700
h-184z" />
    <glyph glyph-name="Ntilde.ss02" horiz-adv-x="686" 
d="M498 929l27 -132c-14 -23 -46 -34 -96 -34c-20 0 -47 4 -82 13c-34 9 -61 13 -82 13c-40 0 -70 -9 -89 -27l-27 132c14 23 46 34 97 34c20 0 47 -4 82 -13c34 -9 61 -13 82 -13c35 0 65 9 88 27zM641 0h-182v216l-228 227h-4v-443h-183v700h181l230 -230h4v230h182v-700z
" />
    <glyph glyph-name="O" unicode="O" horiz-adv-x="708" 
d="M23 350c0 115 30 205 91 270c59 63 139 94 240 94s180 -31 239 -94c61 -65 92 -155 92 -270s-30 -204 -91 -269c-59 -63 -139 -95 -240 -95s-180 31 -239 94c-61 65 -92 155 -92 270zM208 351c0 -128 49 -192 146 -192c98 0 147 63 147 190c0 128 -49 192 -147 192
c-97 0 -146 -63 -146 -190z" />
    <glyph glyph-name="Oacute" unicode="&#xd3;" horiz-adv-x="708" 
d="M434 754h-160l106 185l143 -41zM23 350c0 115 30 205 91 270c59 63 139 94 240 94s180 -31 239 -94c61 -65 92 -155 92 -270s-30 -204 -91 -269c-59 -63 -139 -95 -240 -95s-180 31 -239 94c-61 65 -92 155 -92 270zM208 351c0 -128 49 -192 146 -192
c98 0 147 63 147 190c0 128 -49 192 -147 192c-97 0 -146 -63 -146 -190z" />
    <glyph glyph-name="Oacute.loclPLK" horiz-adv-x="708" 
d="M425 754h-143l60 199l143 -24zM23 350c0 115 30 205 91 270c59 63 139 94 240 94s180 -31 239 -94c61 -65 92 -155 92 -270s-30 -204 -91 -269c-59 -63 -139 -95 -240 -95s-180 31 -239 94c-61 65 -92 155 -92 270zM208 351c0 -128 49 -192 146 -192c98 0 147 63 147 190
c0 128 -49 192 -147 192c-97 0 -146 -63 -146 -190z" />
    <glyph glyph-name="Ocircumflex" unicode="&#xd4;" horiz-adv-x="708" 
d="M529 828l-81 -96l-97 68l-97 -68l-81 96l178 133zM23 350c0 115 30 205 91 270c59 63 139 94 240 94s180 -31 239 -94c61 -65 92 -155 92 -270s-30 -204 -91 -269c-59 -63 -139 -95 -240 -95s-180 31 -239 94c-61 65 -92 155 -92 270zM208 351c0 -128 49 -192 146 -192
c98 0 147 63 147 190c0 128 -49 192 -147 192c-97 0 -146 -63 -146 -190z" />
    <glyph glyph-name="Odieresis" unicode="&#xd6;" horiz-adv-x="708" 
d="M250 760c-23 0 -41 8 -55 23c-15 15 -22 34 -22 57c0 22 7 41 22 56s34 23 56 23c21 0 39 -8 54 -23s22 -34 22 -56c0 -23 -7 -42 -22 -57s-33 -23 -55 -23zM460 760c-23 0 -41 8 -56 23s-22 34 -22 57c0 22 7 41 22 56s34 23 56 23c21 0 40 -8 55 -23s22 -34 22 -56
c0 -23 -7 -42 -22 -57s-34 -23 -55 -23zM23 350c0 115 30 205 91 270c59 63 139 94 240 94s180 -31 239 -94c61 -65 92 -155 92 -270s-30 -204 -91 -269c-59 -63 -139 -95 -240 -95s-180 31 -239 94c-61 65 -92 155 -92 270zM208 351c0 -128 49 -192 146 -192
c98 0 147 63 147 190c0 128 -49 192 -147 192c-97 0 -146 -63 -146 -190z" />
    <glyph glyph-name="Ograve" unicode="&#xd2;" horiz-adv-x="708" 
d="M330 939l106 -185h-160l-89 144zM23 350c0 115 30 205 91 270c59 63 139 94 240 94s180 -31 239 -94c61 -65 92 -155 92 -270s-30 -204 -91 -269c-59 -63 -139 -95 -240 -95s-180 31 -239 94c-61 65 -92 155 -92 270zM208 351c0 -128 49 -192 146 -192
c98 0 147 63 147 190c0 128 -49 192 -147 192c-97 0 -146 -63 -146 -190z" />
    <glyph glyph-name="Ohungarumlaut" unicode="&#x150;" horiz-adv-x="708" 
d="M315 754h-160l106 185l143 -41zM534 754h-160l106 185l143 -41zM23 350c0 115 30 205 91 270c59 63 139 94 240 94s180 -31 239 -94c61 -65 92 -155 92 -270s-30 -204 -91 -269c-59 -63 -139 -95 -240 -95s-180 31 -239 94c-61 65 -92 155 -92 270zM208 351
c0 -128 49 -192 146 -192c98 0 147 63 147 190c0 128 -49 192 -147 192c-97 0 -146 -63 -146 -190z" />
    <glyph glyph-name="Omacron" unicode="&#x14c;" horiz-adv-x="708" 
d="M517 756h-324v152h324v-152zM23 350c0 115 30 205 91 270c59 63 139 94 240 94s180 -31 239 -94c61 -65 92 -155 92 -270s-30 -204 -91 -269c-59 -63 -139 -95 -240 -95s-180 31 -239 94c-61 65 -92 155 -92 270zM208 351c0 -128 49 -192 146 -192c98 0 147 63 147 190
c0 128 -49 192 -147 192c-97 0 -146 -63 -146 -190z" />
    <glyph glyph-name="Oslash" unicode="&#xd8;" horiz-adv-x="708" 
d="M684 716l-76 -113c51 -64 77 -148 77 -253c0 -115 -31 -204 -92 -269c-59 -63 -139 -95 -239 -95c-51 0 -97 9 -140 26l-69 -103l-123 83l73 111c-48 63 -72 146 -72 247c0 115 30 205 91 270c59 63 139 94 240 94c48 0 92 -8 133 -23l73 106zM354 541
c-97 0 -146 -63 -146 -190c0 -37 5 -70 14 -98l183 280c-16 5 -33 8 -51 8zM354 159c98 0 147 63 147 190c0 43 -7 81 -21 112l-188 -289c17 -9 38 -13 62 -13z" />
    <glyph glyph-name="Otilde" unicode="&#xd5;" horiz-adv-x="708" 
d="M514 929l26 -132c-12 -23 -44 -34 -95 -34c-20 0 -47 4 -82 13c-34 9 -61 13 -82 13c-40 0 -70 -9 -89 -27l-27 132c14 23 46 34 96 34c21 0 48 -4 82 -13s62 -13 83 -13c35 0 65 9 88 27zM23 350c0 115 30 205 91 270c59 63 139 94 240 94s180 -31 239 -94
c61 -65 92 -155 92 -270s-30 -204 -91 -269c-59 -63 -139 -95 -240 -95s-180 31 -239 94c-61 65 -92 155 -92 270zM208 351c0 -128 49 -192 146 -192c98 0 147 63 147 190c0 128 -49 192 -147 192c-97 0 -146 -63 -146 -190z" />
    <glyph glyph-name="OE" unicode="&#x152;" horiz-adv-x="929" 
d="M893 0h-452c-25 -3 -55 -4 -90 -4c-95 0 -173 29 -232 88c-64 63 -96 152 -96 266c0 113 32 202 96 266c59 59 137 88 232 88c35 0 64 -1 88 -4h449v-171h-296v-94h222v-162h-222v-102h301v-171zM207 350c0 -127 49 -190 147 -190c24 0 45 3 62 8v366c-18 3 -39 5 -62 5
c-98 0 -147 -63 -147 -189z" />
    <glyph glyph-name="P" unicode="P" horiz-adv-x="573" 
d="M44 700h255c80 0 143 -22 188 -65c45 -44 68 -105 68 -183c0 -75 -23 -134 -68 -178c-46 -45 -108 -67 -187 -67h-73v-207h-183v700zM227 368h72c49 0 73 27 73 81c0 55 -24 82 -73 82h-72v-163z" />
    <glyph glyph-name="Thorn" unicode="&#xde;" horiz-adv-x="567" 
d="M227 590h67c80 0 142 -21 187 -64s68 -104 68 -181c0 -76 -23 -135 -68 -176s-107 -61 -187 -61h-67v-108h-183v700h183v-110zM227 272h70c47 0 70 24 70 73s-23 73 -70 73h-70v-146z" />
    <glyph glyph-name="Q" unicode="Q" horiz-adv-x="708" 
d="M685 350c0 -96 -22 -175 -65 -237c-42 -60 -100 -99 -175 -117v-135h-182v135c-75 18 -133 57 -175 117c-43 62 -65 141 -65 237c0 115 30 205 91 270c59 63 139 94 240 94s180 -31 239 -94c61 -65 92 -155 92 -270zM354 159c98 0 147 63 147 190c0 128 -49 192 -147 192
c-97 0 -146 -63 -146 -190c0 -128 49 -192 146 -192z" />
    <glyph glyph-name="Q.ss01" horiz-adv-x="757" 
d="M726 0h-374c-95 0 -173 31 -233 92c-64 65 -96 154 -96 266c0 115 32 204 96 268c59 59 136 89 233 89s175 -30 235 -90c64 -63 96 -151 96 -264c0 -76 -17 -138 -50 -187l3 -5l19 1c14 1 27 1 39 1h32v-171zM207 359c0 -124 49 -186 146 -186s146 61 146 184
s-49 185 -146 185s-146 -61 -146 -183z" />
    <glyph glyph-name="R" unicode="R" horiz-adv-x="600" 
d="M378 0l-107 227h-44v-227h-183v700h262c81 0 145 -22 190 -66c45 -43 67 -101 67 -174c0 -95 -37 -160 -110 -195l137 -265h-212zM227 374h83c45 0 68 26 68 79s-23 79 -68 79h-83v-158z" />
    <glyph glyph-name="Racute" unicode="&#x154;" horiz-adv-x="600" 
d="M363 754h-159l105 185l143 -41zM378 0l-107 227h-44v-227h-183v700h262c81 0 145 -22 190 -66c45 -43 67 -101 67 -174c0 -95 -37 -160 -110 -195l137 -265h-212zM227 374h83c45 0 68 26 68 79s-23 79 -68 79h-83v-158z" />
    <glyph glyph-name="Rcaron" unicode="&#x158;" horiz-adv-x="600" 
d="M107 860l80 94l97 -63l98 63l80 -94l-178 -126zM378 0l-107 227h-44v-227h-183v700h262c81 0 145 -22 190 -66c45 -43 67 -101 67 -174c0 -95 -37 -160 -110 -195l137 -265h-212zM227 374h83c45 0 68 26 68 79s-23 79 -68 79h-83v-158z" />
    <glyph glyph-name="uni0156" unicode="&#x156;" horiz-adv-x="600" 
d="M378 0l-107 227h-44v-227h-183v700h262c81 0 145 -22 190 -66c45 -43 67 -101 67 -174c0 -95 -37 -160 -110 -195l137 -265h-212zM227 374h83c45 0 68 26 68 79s-23 79 -68 79h-83v-158zM292 -143c-34 1 -51 20 -51 55c0 43 27 65 81 65c57 0 86 -27 86 -80
c0 -61 -38 -103 -113 -126l-54 60c25 5 42 13 51 26z" />
    <glyph glyph-name="S" unicode="S" horiz-adv-x="581" 
d="M22 175l175 47c13 -48 47 -72 101 -72c49 0 73 17 73 50c0 21 -14 37 -41 48c-9 3 -23 8 -44 14c-25 7 -43 12 -55 16c-57 19 -100 41 -129 67c-43 39 -65 92 -65 158c0 67 22 120 67 157c44 36 106 54 185 54c149 0 238 -62 268 -187l-175 -47c-12 47 -43 71 -94 71
c-43 0 -64 -15 -64 -46c0 -21 12 -37 37 -49c11 -5 45 -16 104 -33c58 -17 102 -38 131 -65c41 -38 61 -90 61 -156c0 -144 -85 -216 -256 -216c-157 0 -250 63 -279 189z" />
    <glyph glyph-name="Sacute" unicode="&#x15a;" horiz-adv-x="581" 
d="M367 754h-159l106 185l143 -41zM22 175l175 47c13 -48 47 -72 101 -72c49 0 73 17 73 50c0 21 -14 37 -41 48c-9 3 -23 8 -44 14c-25 7 -43 12 -55 16c-57 19 -100 41 -129 67c-43 39 -65 92 -65 158c0 67 22 120 67 157c44 36 106 54 185 54c149 0 238 -62 268 -187
l-175 -47c-12 47 -43 71 -94 71c-43 0 -64 -15 -64 -46c0 -21 12 -37 37 -49c11 -5 45 -16 104 -33c58 -17 102 -38 131 -65c41 -38 61 -90 61 -156c0 -144 -85 -216 -256 -216c-157 0 -250 63 -279 189z" />
    <glyph glyph-name="Sacute.loclPLK" horiz-adv-x="581" 
d="M359 754h-143l60 199l143 -24zM22 175l175 47c13 -48 47 -72 101 -72c49 0 73 17 73 50c0 21 -14 37 -41 48c-9 3 -23 8 -44 14c-25 7 -43 12 -55 16c-57 19 -100 41 -129 67c-43 39 -65 92 -65 158c0 67 22 120 67 157c44 36 106 54 185 54c149 0 238 -62 268 -187
l-175 -47c-12 47 -43 71 -94 71c-43 0 -64 -15 -64 -46c0 -21 12 -37 37 -49c11 -5 45 -16 104 -33c58 -17 102 -38 131 -65c41 -38 61 -90 61 -156c0 -144 -85 -216 -256 -216c-157 0 -250 63 -279 189z" />
    <glyph glyph-name="Scaron" unicode="&#x160;" horiz-adv-x="581" 
d="M111 860l80 94l98 -63l97 63l80 -94l-177 -126zM22 175l175 47c13 -48 47 -72 101 -72c49 0 73 17 73 50c0 21 -14 37 -41 48c-9 3 -23 8 -44 14c-25 7 -43 12 -55 16c-57 19 -100 41 -129 67c-43 39 -65 92 -65 158c0 67 22 120 67 157c44 36 106 54 185 54
c149 0 238 -62 268 -187l-175 -47c-12 47 -43 71 -94 71c-43 0 -64 -15 -64 -46c0 -21 12 -37 37 -49c11 -5 45 -16 104 -33c58 -17 102 -38 131 -65c41 -38 61 -90 61 -156c0 -144 -85 -216 -256 -216c-157 0 -250 63 -279 189z" />
    <glyph glyph-name="Scedilla" unicode="&#x15e;" horiz-adv-x="581" 
d="M557 202c0 -108 -50 -176 -150 -203c18 -18 27 -41 27 -70c0 -72 -50 -108 -150 -108c-41 0 -71 4 -90 12v111c12 -5 31 -7 57 -7c37 0 55 7 55 20c0 19 -37 28 -111 26v16c-93 24 -151 83 -173 176l175 47c13 -48 47 -72 101 -72c49 0 73 17 73 50c0 21 -14 37 -41 48
c-9 3 -23 8 -44 14c-25 7 -43 12 -55 16c-57 19 -100 41 -129 67c-43 39 -65 92 -65 158c0 67 22 120 67 157c44 36 106 54 185 54c149 0 238 -62 268 -187l-175 -47c-12 47 -43 71 -94 71c-43 0 -64 -15 -64 -46c0 -21 12 -37 37 -49c11 -5 45 -16 104 -33
c58 -17 102 -38 131 -65c41 -38 61 -90 61 -156z" />
    <glyph glyph-name="Scircumflex" unicode="&#x15c;" horiz-adv-x="581" 
d="M462 828l-81 -96l-96 68l-97 -68l-81 96l178 133zM22 175l175 47c13 -48 47 -72 101 -72c49 0 73 17 73 50c0 21 -14 37 -41 48c-9 3 -23 8 -44 14c-25 7 -43 12 -55 16c-57 19 -100 41 -129 67c-43 39 -65 92 -65 158c0 67 22 120 67 157c44 36 106 54 185 54
c149 0 238 -62 268 -187l-175 -47c-12 47 -43 71 -94 71c-43 0 -64 -15 -64 -46c0 -21 12 -37 37 -49c11 -5 45 -16 104 -33c58 -17 102 -38 131 -65c41 -38 61 -90 61 -156c0 -144 -85 -216 -256 -216c-157 0 -250 63 -279 189z" />
    <glyph glyph-name="uni0218" unicode="&#x218;" horiz-adv-x="581" 
d="M22 175l175 47c13 -48 47 -72 101 -72c49 0 73 17 73 50c0 21 -14 37 -41 48c-9 3 -23 8 -44 14c-25 7 -43 12 -55 16c-57 19 -100 41 -129 67c-43 39 -65 92 -65 158c0 67 22 120 67 157c44 36 106 54 185 54c149 0 238 -62 268 -187l-175 -47c-12 47 -43 71 -94 71
c-43 0 -64 -15 -64 -46c0 -21 12 -37 37 -49c11 -5 45 -16 104 -33c58 -17 102 -38 131 -65c41 -38 61 -90 61 -156c0 -144 -85 -216 -256 -216c-157 0 -250 63 -279 189zM256 -143c-35 1 -52 20 -52 55c0 43 27 65 81 65c57 0 86 -27 86 -80c0 -61 -37 -103 -112 -126
l-55 60c25 5 42 13 52 26z" />
    <glyph glyph-name="uni1E9E" unicode="&#x1e9e;" horiz-adv-x="654" 
d="M456 432h3c54 0 97 -21 130 -64c32 -41 48 -92 48 -154c0 -65 -17 -117 -50 -157c-39 -47 -98 -71 -175 -71c-68 0 -119 18 -154 55l75 139c16 -18 36 -27 59 -27c41 0 61 21 61 64c0 47 -24 70 -73 70h-94v147l42 91l-3 5h-98v-530h-183v700h537l-128 -265z" />
    <glyph glyph-name="T" unicode="T" horiz-adv-x="594" 
d="M569 529h-181v-529h-182v529h-181v171h544v-171z" />
    <glyph glyph-name="Tbar" unicode="&#x166;" horiz-adv-x="594" 
d="M388 529v-118h97v-171h-97v-240h-182v240h-96v171h96v118h-181v171h544v-171h-181z" />
    <glyph glyph-name="Tcaron" unicode="&#x164;" horiz-adv-x="594" 
d="M120 860l80 94l98 -63l98 63l80 -94l-178 -126zM569 529h-181v-529h-182v529h-181v171h544v-171z" />
    <glyph glyph-name="uni0162" unicode="&#x162;" horiz-adv-x="594" 
d="M388 529v-510c38 -18 57 -48 57 -90c0 -72 -50 -108 -149 -108c-42 0 -72 4 -90 12v111c12 -5 31 -8 56 -8c37 0 55 7 55 21c0 19 -37 28 -110 26l-1 17v529h-181v171h544v-171h-181z" />
    <glyph glyph-name="uni021A" unicode="&#x21a;" horiz-adv-x="594" 
d="M569 529h-181v-529h-182v529h-181v171h544v-171zM267 -143c-34 1 -51 20 -51 55c0 43 27 65 81 65c57 0 86 -27 86 -80c0 -61 -38 -103 -113 -126l-55 60c25 5 42 13 52 26z" />
    <glyph glyph-name="U" unicode="U" horiz-adv-x="643" 
d="M602 700v-408c0 -99 -25 -176 -76 -229c-49 -51 -117 -77 -205 -77s-156 26 -205 77c-51 53 -76 130 -76 229v408h184v-403c0 -92 33 -138 100 -138s101 46 101 138v403h177z" />
    <glyph glyph-name="Uacute" unicode="&#xda;" horiz-adv-x="643" 
d="M408 754h-160l106 185l143 -41zM602 700v-408c0 -99 -25 -176 -76 -229c-49 -51 -117 -77 -205 -77s-156 26 -205 77c-51 53 -76 130 -76 229v408h184v-403c0 -92 33 -138 100 -138s101 46 101 138v403h177z" />
    <glyph glyph-name="Ubreve" unicode="&#x16c;" horiz-adv-x="643" 
d="M147 902h129c1 -32 19 -48 52 -48c35 0 52 16 52 48h129c-2 -52 -19 -92 -51 -121c-32 -27 -75 -41 -130 -41c-56 0 -100 14 -131 41c-32 28 -49 68 -50 121zM602 700v-408c0 -99 -25 -176 -76 -229c-49 -51 -117 -77 -205 -77s-156 26 -205 77c-51 53 -76 130 -76 229
v408h184v-403c0 -92 33 -138 100 -138s101 46 101 138v403h177z" />
    <glyph glyph-name="Ucircumflex" unicode="&#xdb;" horiz-adv-x="643" 
d="M503 828l-81 -96l-97 68l-97 -68l-81 96l178 133zM602 700v-408c0 -99 -25 -176 -76 -229c-49 -51 -117 -77 -205 -77s-156 26 -205 77c-51 53 -76 130 -76 229v408h184v-403c0 -92 33 -138 100 -138s101 46 101 138v403h177z" />
    <glyph glyph-name="Udieresis" unicode="&#xdc;" horiz-adv-x="643" 
d="M224 760c-23 0 -41 8 -55 23c-15 15 -22 34 -22 57c0 22 7 41 22 56s34 23 56 23c21 0 39 -8 54 -23s22 -34 22 -56c0 -23 -7 -42 -22 -57s-33 -23 -55 -23zM434 760c-23 0 -41 8 -56 23s-22 34 -22 57c0 22 7 41 22 56s34 23 56 23c21 0 40 -8 55 -23s22 -34 22 -56
c0 -23 -7 -42 -22 -57s-34 -23 -55 -23zM602 700v-408c0 -99 -25 -176 -76 -229c-49 -51 -117 -77 -205 -77s-156 26 -205 77c-51 53 -76 130 -76 229v408h184v-403c0 -92 33 -138 100 -138s101 46 101 138v403h177z" />
    <glyph glyph-name="Ugrave" unicode="&#xd9;" horiz-adv-x="643" 
d="M304 939l106 -185h-160l-89 144zM602 700v-408c0 -99 -25 -176 -76 -229c-49 -51 -117 -77 -205 -77s-156 26 -205 77c-51 53 -76 130 -76 229v408h184v-403c0 -92 33 -138 100 -138s101 46 101 138v403h177z" />
    <glyph glyph-name="Uhungarumlaut" unicode="&#x170;" horiz-adv-x="643" 
d="M289 754h-160l106 185l143 -41zM508 754h-160l106 185l143 -41zM602 700v-408c0 -99 -25 -176 -76 -229c-49 -51 -117 -77 -205 -77s-156 26 -205 77c-51 53 -76 130 -76 229v408h184v-403c0 -92 33 -138 100 -138s101 46 101 138v403h177z" />
    <glyph glyph-name="Umacron" unicode="&#x16a;" horiz-adv-x="643" 
d="M491 756h-324v152h324v-152zM602 700v-408c0 -99 -25 -176 -76 -229c-49 -51 -117 -77 -205 -77s-156 26 -205 77c-51 53 -76 130 -76 229v408h184v-403c0 -92 33 -138 100 -138s101 46 101 138v403h177z" />
    <glyph glyph-name="Uogonek" unicode="&#x172;" horiz-adv-x="642" 
d="M602 700v-408c0 -171 -69 -270 -206 -299c-14 -5 -21 -14 -21 -27c0 -17 12 -25 36 -25c28 0 51 6 69 18v-121c-26 -11 -57 -17 -93 -17c-46 0 -83 9 -112 27c-33 21 -49 51 -49 90c0 21 5 40 14 57c-133 30 -200 129 -200 297v408h184v-403c0 -92 33 -138 100 -138
s101 46 101 138v403h177z" />
    <glyph glyph-name="Uring" unicode="&#x16e;" horiz-adv-x="643" 
d="M329 729c-43 0 -77 11 -102 32c-26 22 -39 53 -39 93s13 71 39 93c25 21 59 32 102 32s76 -11 101 -32c26 -22 39 -53 39 -93s-13 -71 -39 -93c-25 -21 -58 -32 -101 -32zM329 814c29 0 43 13 43 40s-14 40 -43 40s-44 -13 -44 -40s15 -40 44 -40zM602 700v-408
c0 -99 -25 -176 -76 -229c-49 -51 -117 -77 -205 -77s-156 26 -205 77c-51 53 -76 130 -76 229v408h184v-403c0 -92 33 -138 100 -138s101 46 101 138v403h177z" />
    <glyph glyph-name="V" unicode="V" horiz-adv-x="669" 
d="M459 0h-248l-201 700h206l80 -331c32 -132 46 -193 43 -182h4c0 7 14 66 41 179l80 334h195z" />
    <glyph glyph-name="W" unicode="W" horiz-adv-x="998" 
d="M598 0l-67 288c-21 89 -31 143 -31 161h-4c5 9 -6 -46 -31 -165l-61 -284h-227l-162 700h204l56 -305c22 -119 31 -175 28 -168h4c-3 -5 7 44 29 149l58 281h229l57 -282c18 -92 27 -141 27 -148h4c-2 -5 8 50 29 164l62 309h181l-162 -700h-223z" />
    <glyph glyph-name="Wacute" unicode="&#x1e82;" horiz-adv-x="998" 
d="M597 754h-159l105 185l143 -41zM598 0l-67 288c-21 89 -31 143 -31 161h-4c5 9 -6 -46 -31 -165l-61 -284h-227l-162 700h204l56 -305c22 -119 31 -175 28 -168h4c-3 -5 7 44 29 149l58 281h229l57 -282c18 -92 27 -141 27 -148h4c-2 -5 8 50 29 164l62 309h181
l-162 -700h-223z" />
    <glyph glyph-name="Wcircumflex" unicode="&#x174;" horiz-adv-x="998" 
d="M692 828l-81 -96l-97 68l-96 -68l-81 96l177 133zM598 0l-67 288c-21 89 -31 143 -31 161h-4c5 9 -6 -46 -31 -165l-61 -284h-227l-162 700h204l56 -305c22 -119 31 -175 28 -168h4c-3 -5 7 44 29 149l58 281h229l57 -282c18 -92 27 -141 27 -148h4c-2 -5 8 50 29 164
l62 309h181l-162 -700h-223z" />
    <glyph glyph-name="Wdieresis" unicode="&#x1e84;" horiz-adv-x="998" 
d="M413 760c-22 0 -40 8 -55 23s-22 34 -22 57c0 22 8 41 23 56s33 23 56 23c21 0 39 -8 54 -23s22 -34 22 -56c0 -23 -7 -42 -22 -57s-34 -23 -56 -23zM623 760c-23 0 -41 8 -55 23c-15 15 -22 34 -22 57c0 22 7 41 22 56s33 23 55 23s40 -8 55 -23s22 -34 22 -56
c0 -23 -7 -42 -22 -57s-33 -23 -55 -23zM598 0l-67 288c-21 89 -31 143 -31 161h-4c5 9 -6 -46 -31 -165l-61 -284h-227l-162 700h204l56 -305c22 -119 31 -175 28 -168h4c-3 -5 7 44 29 149l58 281h229l57 -282c18 -92 27 -141 27 -148h4c-2 -5 8 50 29 164l62 309h181
l-162 -700h-223z" />
    <glyph glyph-name="Wgrave" unicode="&#x1e80;" horiz-adv-x="998" 
d="M493 939l106 -185h-159l-90 144zM598 0l-67 288c-21 89 -31 143 -31 161h-4c5 9 -6 -46 -31 -165l-61 -284h-227l-162 700h204l56 -305c22 -119 31 -175 28 -168h4c-3 -5 7 44 29 149l58 281h229l57 -282c18 -92 27 -141 27 -148h4c-2 -5 8 50 29 164l62 309h181
l-162 -700h-223z" />
    <glyph glyph-name="X" unicode="X" horiz-adv-x="696" 
d="M455 0l-60 111c-37 70 -54 105 -52 105h-2c2 0 -15 -35 -51 -105l-57 -111h-215l213 359l-205 341h221l56 -106c37 -70 55 -105 54 -105h2c-1 0 16 35 50 105l51 106h214l-206 -347l211 -353h-224z" />
    <glyph glyph-name="Y" unicode="Y" horiz-adv-x="659" 
d="M421 258v-258h-182v258l-229 442l209 1l80 -181c25 -55 36 -81 35 -80h4c-1 -1 11 25 36 80l83 180h192z" />
    <glyph glyph-name="Y.ss05" horiz-adv-x="659" 
d="M483 377h81v-171h-143v-206h-182v206h-143v171h81l-167 323l209 1l80 -181c25 -55 36 -81 35 -80h4c-1 -1 11 25 36 80l83 180h192z" />
    <glyph glyph-name="Yacute" unicode="&#xdd;" horiz-adv-x="659" 
d="M424 754h-159l106 185l143 -41zM421 258v-258h-182v258l-229 442l209 1l80 -181c25 -55 36 -81 35 -80h4c-1 -1 11 25 36 80l83 180h192z" />
    <glyph glyph-name="Yacute.ss05" horiz-adv-x="659" 
d="M417 754h-160l106 185l143 -41zM483 377h81v-171h-143v-206h-182v206h-143v171h81l-167 323l209 1l80 -181c25 -55 36 -81 35 -80h4c-1 -1 11 25 36 80l83 180h192z" />
    <glyph glyph-name="Ycircumflex" unicode="&#x176;" horiz-adv-x="659" 
d="M519 828l-81 -96l-96 68l-97 -68l-81 96l178 133zM421 258v-258h-182v258l-229 442l209 1l80 -181c25 -55 36 -81 35 -80h4c-1 -1 11 25 36 80l83 180h192z" />
    <glyph glyph-name="Ycircumflex.ss05" horiz-adv-x="659" 
d="M237 732l-81 96l178 133l178 -133l-81 -96l-97 68zM483 377h81v-171h-143v-206h-182v206h-143v171h81l-167 323l209 1l80 -181c25 -55 36 -81 35 -80h4c-1 -1 11 25 36 80l83 180h192z" />
    <glyph glyph-name="Ydieresis" unicode="&#x178;" horiz-adv-x="659" 
d="M241 760c-23 0 -41 8 -56 23s-22 34 -22 57c0 22 8 41 23 56s33 23 56 23c21 0 39 -8 54 -23s22 -34 22 -56c0 -23 -7 -42 -22 -57s-34 -23 -55 -23zM450 760c-22 0 -40 8 -55 23s-22 34 -22 57c0 22 7 41 22 56s33 23 55 23s41 -8 56 -23s22 -34 22 -56
c0 -23 -7 -42 -22 -57s-34 -23 -56 -23zM421 258v-258h-182v258l-229 442l209 1l80 -181c25 -55 36 -81 35 -80h4c-1 -1 11 25 36 80l83 180h192z" />
    <glyph glyph-name="Ydieresis.ss05" horiz-adv-x="659" 
d="M233 760c-22 0 -40 8 -55 23s-22 34 -22 57c0 22 7 41 22 56s34 23 57 23c21 0 39 -8 54 -23c14 -15 21 -34 21 -56c0 -23 -7 -42 -22 -57s-33 -23 -55 -23zM443 760c-23 0 -41 8 -56 23s-22 34 -22 57c0 22 7 41 22 56s34 23 56 23s40 -8 55 -23s22 -34 22 -56
c0 -23 -7 -42 -22 -57s-33 -23 -55 -23zM483 377h81v-171h-143v-206h-182v206h-143v171h81l-167 323l209 1l80 -181c25 -55 36 -81 35 -80h4c-1 -1 11 25 36 80l83 180h192z" />
    <glyph glyph-name="Ygrave" unicode="&#x1ef2;" horiz-adv-x="659" 
d="M321 939l105 -185h-159l-89 144zM421 258v-258h-182v258l-229 442l209 1l80 -181c25 -55 36 -81 35 -80h4c-1 -1 11 25 36 80l83 180h192z" />
    <glyph glyph-name="Ygrave.ss05" horiz-adv-x="659" 
d="M259 754l-89 144l143 41l106 -185h-160zM483 377h81v-171h-143v-206h-182v206h-143v171h81l-167 323l209 1l80 -181c25 -55 36 -81 35 -80h4c-1 -1 11 25 36 80l83 180h192z" />
    <glyph glyph-name="Z" unicode="Z" horiz-adv-x="600" 
d="M566 521l-238 -269c-47 -54 -71 -80 -71 -77l2 -5l29 1h280v-171h-536v172l258 288c39 44 59 66 59 65l-2 5l-305 -1v171h524v-179z" />
    <glyph glyph-name="Zacute" unicode="&#x179;" horiz-adv-x="600" 
d="M389 754h-160l106 185l143 -41zM566 521l-238 -269c-47 -54 -71 -80 -71 -77l2 -5l29 1h280v-171h-536v172l258 288c39 44 59 66 59 65l-2 5l-305 -1v171h524v-179z" />
    <glyph glyph-name="Zacute.loclPLK" horiz-adv-x="600" 
d="M380 754h-143l60 199l143 -24zM566 521l-238 -269c-47 -54 -71 -80 -71 -77l2 -5l29 1h280v-171h-536v172l258 288c39 44 59 66 59 65l-2 5l-305 -1v171h524v-179z" />
    <glyph glyph-name="Zcaron" unicode="&#x17d;" horiz-adv-x="600" 
d="M132 860l80 94l98 -63l98 63l80 -94l-178 -126zM566 521l-238 -269c-47 -54 -71 -80 -71 -77l2 -5l29 1h280v-171h-536v172l258 288c39 44 59 66 59 65l-2 5l-305 -1v171h524v-179z" />
    <glyph glyph-name="Zdotaccent" unicode="&#x17b;" horiz-adv-x="600" 
d="M309 760c-22 0 -40 8 -55 23s-22 34 -22 57s7 41 22 56s33 23 55 23c23 0 41 -8 56 -23s22 -33 22 -56s-7 -42 -22 -57s-33 -23 -56 -23zM566 521l-238 -269c-47 -54 -71 -80 -71 -77l2 -5l29 1h280v-171h-536v172l258 288c39 44 59 66 59 65l-2 5l-305 -1v171h524v-179z
" />
    <glyph glyph-name="a" unicode="a" horiz-adv-x="570" 
d="M364 84h-163l-19 -84h-172l162 560h226l162 -560h-176zM330 230l-16 68c-22 92 -32 135 -30 128h-4l-45 -196h95z" />
    <glyph glyph-name="aacute" unicode="&#xe1;" horiz-adv-x="570" 
d="M366 614h-160l106 185l143 -41zM364 84h-163l-19 -84h-172l162 560h226l162 -560h-176zM330 230l-16 68c-22 92 -32 135 -30 128h-4l-45 -196h95z" />
    <glyph glyph-name="abreve" unicode="&#x103;" horiz-adv-x="570" 
d="M286 600c-55 0 -99 14 -130 41c-32 28 -49 68 -51 121h129c1 -32 19 -48 52 -48c35 0 52 16 52 48h129c-2 -52 -19 -92 -51 -121c-32 -27 -75 -41 -130 -41zM364 84h-163l-19 -84h-172l162 560h226l162 -560h-176zM330 230l-16 68c-22 92 -32 135 -30 128h-4l-45 -196h95
z" />
    <glyph glyph-name="acircumflex" unicode="&#xe2;" horiz-adv-x="570" 
d="M231 604l-85 91l141 126l140 -125l-85 -91l-55 50zM364 84h-163l-19 -84h-172l162 560h226l162 -560h-176zM330 230l-16 68c-22 92 -32 135 -30 128h-4l-45 -196h95z" />
    <glyph glyph-name="adieresis" unicode="&#xe4;" horiz-adv-x="570" 
d="M182 620c-22 0 -40 8 -55 23s-22 34 -22 57c0 22 7 41 22 56s34 23 57 23c21 0 39 -8 54 -23c14 -15 21 -34 21 -56c0 -23 -7 -42 -22 -57s-33 -23 -55 -23zM392 620c-23 0 -41 8 -56 23s-22 34 -22 57c0 22 7 41 22 56s34 23 56 23s40 -8 55 -23s22 -34 22 -56
c0 -23 -7 -42 -22 -57s-33 -23 -55 -23zM364 84h-163l-19 -84h-172l162 560h226l162 -560h-176zM330 230l-16 68c-22 92 -32 135 -30 128h-4l-45 -196h95z" />
    <glyph glyph-name="agrave" unicode="&#xe0;" horiz-adv-x="570" 
d="M208 614l-89 144l143 41l106 -185h-160zM364 84h-163l-19 -84h-172l162 560h226l162 -560h-176zM330 230l-16 68c-22 92 -32 135 -30 128h-4l-45 -196h95z" />
    <glyph glyph-name="amacron" unicode="&#x101;" horiz-adv-x="570" 
d="M449 616h-324v152h324v-152zM364 84h-163l-19 -84h-172l162 560h226l162 -560h-176zM330 230l-16 68c-22 92 -32 135 -30 128h-4l-45 -196h95z" />
    <glyph glyph-name="aogonek" unicode="&#x105;" horiz-adv-x="570" 
d="M487 -57c29 0 57 6 83 17v-121c-28 -12 -64 -18 -109 -18c-47 0 -84 10 -111 31s-40 50 -40 85c0 44 21 80 63 109l-9 38h-163l-19 -84h-172l162 560h226l162 -560h-23c-53 -2 -80 -15 -80 -38c0 -13 10 -19 30 -19zM330 230l-16 68c-22 92 -32 135 -30 128h-4l-45 -196
h95z" />
    <glyph glyph-name="aring" unicode="&#xe5;" horiz-adv-x="570" 
d="M287 589c-43 0 -76 11 -101 32c-26 22 -39 53 -39 93s13 71 39 93c25 21 58 32 101 32s76 -11 101 -32c26 -22 39 -53 39 -93s-13 -71 -39 -93c-25 -21 -58 -32 -101 -32zM287 754c-29 0 -44 -13 -44 -40s15 -40 44 -40s43 13 43 40s-14 40 -43 40zM364 84h-163l-19 -84
h-172l162 560h226l162 -560h-176zM330 230l-16 68c-22 92 -32 135 -30 128h-4l-45 -196h95z" />
    <glyph glyph-name="atilde" unicode="&#xe3;" horiz-adv-x="570" 
d="M223 649c-34 0 -61 -9 -80 -27l-28 132c12 23 41 34 86 34c19 0 43 -4 74 -13s55 -13 73 -13c33 0 60 9 79 27l28 -132c-12 -23 -41 -34 -86 -34c-18 0 -42 4 -73 13s-55 13 -73 13zM364 84h-163l-19 -84h-172l162 560h226l162 -560h-176zM330 230l-16 68
c-22 92 -32 135 -30 128h-4l-45 -196h95z" />
    <glyph glyph-name="ae" unicode="&#xe6;" horiz-adv-x="766" 
d="M731 161v-161h-409v84h-122l-19 -84h-171l165 560h551v-161h-242v-58h161v-118h-161v-62h247zM322 222v182h-47l-43 -182h90z" />
    <glyph glyph-name="b" unicode="b" horiz-adv-x="512" 
d="M401 299v-4c62 -20 93 -64 93 -131c0 -48 -16 -86 -48 -115c-35 -33 -88 -49 -157 -49h-245v560h250c52 0 95 -15 128 -44c32 -29 48 -65 48 -109c0 -27 -8 -51 -23 -72c-13 -17 -29 -29 -46 -36zM215 339h48c26 0 39 13 39 40s-13 41 -39 41h-48v-81zM215 143h61
c28 0 42 15 42 45s-14 45 -43 45h-60v-90z" />
    <glyph glyph-name="c" unicode="c" horiz-adv-x="562" 
d="M379 195l162 -43c-45 -109 -126 -164 -243 -164c-84 0 -150 25 -199 75c-51 52 -76 125 -76 218c0 91 25 163 75 214c49 51 115 76 200 76c129 0 210 -57 244 -171l-160 -43c-19 37 -48 56 -85 56c-66 0 -99 -44 -99 -131c0 -90 33 -135 100 -135c36 0 63 16 81 48z" />
    <glyph glyph-name="cacute" unicode="&#x107;" horiz-adv-x="562" 
d="M371 614h-159l106 185l143 -41zM379 195l162 -43c-45 -109 -126 -164 -243 -164c-84 0 -150 25 -199 75c-51 52 -76 125 -76 218c0 91 25 163 75 214c49 51 115 76 200 76c129 0 210 -57 244 -171l-160 -43c-19 37 -48 56 -85 56c-66 0 -99 -44 -99 -131
c0 -90 33 -135 100 -135c36 0 63 16 81 48z" />
    <glyph glyph-name="cacute.loclPLK" horiz-adv-x="562" 
d="M363 614h-143l60 199l143 -24zM379 195l162 -43c-45 -109 -126 -164 -243 -164c-84 0 -150 25 -199 75c-51 52 -76 125 -76 218c0 91 25 163 75 214c49 51 115 76 200 76c129 0 210 -57 244 -171l-160 -43c-19 37 -48 56 -85 56c-66 0 -99 -44 -99 -131
c0 -90 33 -135 100 -135c36 0 63 16 81 48z" />
    <glyph glyph-name="ccaron" unicode="&#x10d;" horiz-adv-x="562" 
d="M115 720l80 94l98 -63l97 63l80 -94l-177 -126zM379 195l162 -43c-45 -109 -126 -164 -243 -164c-84 0 -150 25 -199 75c-51 52 -76 125 -76 218c0 91 25 163 75 214c49 51 115 76 200 76c129 0 210 -57 244 -171l-160 -43c-19 37 -48 56 -85 56c-66 0 -99 -44 -99 -131
c0 -90 33 -135 100 -135c36 0 63 16 81 48z" />
    <glyph glyph-name="ccedilla" unicode="&#xe7;" horiz-adv-x="562" 
d="M297 146c37 0 64 16 82 49l161 -43c-30 -76 -78 -126 -145 -149c21 -19 31 -43 31 -73c0 -72 -50 -108 -149 -108c-42 0 -72 4 -90 12v111c12 -5 31 -8 57 -8c37 0 55 7 55 21c0 19 -37 28 -111 26v23c-110 40 -165 131 -165 274c0 91 25 163 75 214c49 51 115 76 200 76
c129 0 210 -57 244 -171l-160 -43c-19 37 -48 56 -85 56c-66 0 -99 -44 -99 -131c0 -89 33 -135 99 -136z" />
    <glyph glyph-name="ccircumflex" unicode="&#x109;" horiz-adv-x="562" 
d="M466 688l-81 -96l-96 68l-97 -68l-81 96l178 133zM379 195l162 -43c-45 -109 -126 -164 -243 -164c-84 0 -150 25 -199 75c-51 52 -76 125 -76 218c0 91 25 163 75 214c49 51 115 76 200 76c129 0 210 -57 244 -171l-160 -43c-19 37 -48 56 -85 56
c-66 0 -99 -44 -99 -131c0 -90 33 -135 100 -135c36 0 63 16 81 48z" />
    <glyph glyph-name="cdotaccent" unicode="&#x10b;" horiz-adv-x="562" 
d="M292 620c-22 0 -40 8 -55 23s-22 34 -22 57s7 41 22 56s33 23 55 23s40 -8 55 -23s22 -33 22 -56s-7 -42 -22 -57s-33 -23 -55 -23zM379 195l162 -43c-45 -109 -126 -164 -243 -164c-84 0 -150 25 -199 75c-51 52 -76 125 -76 218c0 91 25 163 75 214
c49 51 115 76 200 76c129 0 210 -57 244 -171l-160 -43c-19 37 -48 56 -85 56c-66 0 -99 -44 -99 -131c0 -90 33 -135 100 -135c36 0 63 16 81 48z" />
    <glyph glyph-name="d" unicode="d" horiz-adv-x="572" 
d="M44 560h221c86 0 154 -25 205 -74c53 -51 79 -120 79 -208s-26 -157 -78 -206c-51 -48 -119 -72 -206 -72h-221v560zM216 161h45c40 0 68 8 85 24c19 17 28 48 28 92c0 46 -9 78 -28 97c-16 17 -43 25 -82 25h-48v-238z" />
    <glyph glyph-name="eth" unicode="&#xf0;" horiz-adv-x="572" 
d="M44 560h221c86 0 154 -25 205 -74c53 -51 79 -120 79 -208s-26 -157 -78 -206c-51 -48 -119 -72 -206 -72h-221v212h-34v130h34v218zM216 161h45c40 0 68 8 85 24c19 17 28 48 28 92c0 46 -9 78 -28 97c-16 17 -43 25 -82 25h-48v-57h100v-130h-100v-51z" />
    <glyph glyph-name="dcaron" unicode="&#x10f;" horiz-adv-x="572" 
d="M83 720l80 94l98 -63l97 63l80 -94l-177 -126zM44 560h221c86 0 154 -25 205 -74c53 -51 79 -120 79 -208s-26 -157 -78 -206c-51 -48 -119 -72 -206 -72h-221v560zM216 161h45c40 0 68 8 85 24c19 17 28 48 28 92c0 46 -9 78 -28 97c-16 17 -43 25 -82 25h-48v-238z" />
    <glyph glyph-name="dslash" unicode="&#x111;" horiz-adv-x="572" 
d="M44 560h221c86 0 154 -25 205 -74c53 -51 79 -120 79 -208s-26 -157 -78 -206c-51 -48 -119 -72 -206 -72h-221v212h-34v130h34v218zM216 161h45c40 0 68 8 85 24c19 17 28 48 28 92c0 46 -9 78 -28 97c-16 17 -43 25 -82 25h-48v-57h100v-130h-100v-51z" />
    <glyph glyph-name="e" unicode="e" horiz-adv-x="499" 
d="M44 0v560h414v-161h-242v-57h161v-121h-161v-60h247v-161h-419z" />
    <glyph glyph-name="eacute" unicode="&#xe9;" horiz-adv-x="499" 
d="M331 614h-159l105 185l143 -41zM44 0v560h414v-161h-242v-57h161v-121h-161v-60h247v-161h-419z" />
    <glyph glyph-name="ecaron" unicode="&#x11b;" horiz-adv-x="499" 
d="M75 720l80 94l97 -63l98 63l80 -94l-178 -126zM44 0v560h414v-161h-242v-57h161v-121h-161v-60h247v-161h-419z" />
    <glyph glyph-name="ecircumflex" unicode="&#xea;" horiz-adv-x="499" 
d="M426 688l-81 -96l-97 68l-96 -68l-81 96l177 133zM44 0v560h414v-161h-242v-57h161v-121h-161v-60h247v-161h-419z" />
    <glyph glyph-name="edieresis" unicode="&#xeb;" horiz-adv-x="499" 
d="M147 620c-22 0 -40 8 -55 23s-22 34 -22 57c0 22 8 41 23 56s33 23 56 23c21 0 39 -8 54 -23s22 -34 22 -56c0 -23 -7 -42 -22 -57s-34 -23 -56 -23zM357 620c-23 0 -41 8 -55 23c-15 15 -22 34 -22 57c0 22 7 41 22 56s33 23 55 23s40 -8 55 -23s22 -34 22 -56
c0 -23 -7 -42 -22 -57s-33 -23 -55 -23zM44 0v560h414v-161h-242v-57h161v-121h-161v-60h247v-161h-419z" />
    <glyph glyph-name="edotaccent" unicode="&#x117;" horiz-adv-x="499" 
d="M252 620c-23 0 -41 8 -56 23s-22 34 -22 57s7 41 22 56s33 23 56 23c22 0 40 -8 55 -23s22 -33 22 -56s-7 -42 -22 -57s-33 -23 -55 -23zM44 0v560h414v-161h-242v-57h161v-121h-161v-60h247v-161h-419z" />
    <glyph glyph-name="egrave" unicode="&#xe8;" horiz-adv-x="499" 
d="M227 799l106 -185h-159l-90 144zM44 0v560h414v-161h-242v-57h161v-121h-161v-60h247v-161h-419z" />
    <glyph glyph-name="emacron" unicode="&#x113;" horiz-adv-x="499" 
d="M414 616h-324v152h324v-152zM44 0v560h414v-161h-242v-57h161v-121h-161v-60h247v-161h-419z" />
    <glyph glyph-name="eogonek" unicode="&#x119;" horiz-adv-x="499" 
d="M405 -56c19 0 39 5 60 16v-122c-26 -11 -58 -17 -95 -17c-105 0 -158 34 -158 103c0 32 11 57 34 76h-202v560h414v-161h-242v-57h161v-121h-161v-60h247v-161h-33c-47 -1 -71 -11 -71 -30c0 -17 15 -26 46 -26z" />
    <glyph glyph-name="f" unicode="f" horiz-adv-x="465" 
d="M434 399h-218v-82h156v-152h-156v-165h-172v560h390v-161z" />
    <glyph glyph-name="g" unicode="g" horiz-adv-x="601" 
d="M564 0h-151l1 35h-4c-29 -30 -76 -45 -141 -45c-70 0 -128 25 -173 74c-49 53 -73 124 -73 215c0 94 26 167 77 218c49 49 115 74 199 74c129 0 211 -57 248 -171l-156 -41c-19 36 -49 54 -90 54c-69 0 -103 -43 -103 -130c0 -97 40 -146 121 -146c43 0 73 10 92 31v29
h-115v124h268v-321z" />
    <glyph glyph-name="gbreve" unicode="&#x11f;" horiz-adv-x="601" 
d="M111 762h129c1 -32 19 -48 52 -48c36 0 53 16 52 48h129c-1 -52 -18 -92 -51 -121c-32 -27 -75 -41 -130 -41s-99 14 -130 41c-32 28 -49 68 -51 121zM564 0h-151l1 35h-4c-29 -30 -76 -45 -141 -45c-70 0 -128 25 -173 74c-49 53 -73 124 -73 215c0 94 26 167 77 218
c49 49 115 74 199 74c129 0 211 -57 248 -171l-156 -41c-19 36 -49 54 -90 54c-69 0 -103 -43 -103 -130c0 -97 40 -146 121 -146c43 0 73 10 92 31v29h-115v124h268v-321z" />
    <glyph glyph-name="gcircumflex" unicode="&#x11d;" horiz-adv-x="601" 
d="M467 688l-81 -96l-96 68l-97 -68l-81 96l178 133zM564 0h-151l1 35h-4c-29 -30 -76 -45 -141 -45c-70 0 -128 25 -173 74c-49 53 -73 124 -73 215c0 94 26 167 77 218c49 49 115 74 199 74c129 0 211 -57 248 -171l-156 -41c-19 36 -49 54 -90 54
c-69 0 -103 -43 -103 -130c0 -97 40 -146 121 -146c43 0 73 10 92 31v29h-115v124h268v-321z" />
    <glyph glyph-name="uni0123" unicode="&#x123;" horiz-adv-x="601" 
d="M564 0h-151l1 35h-4c-29 -30 -76 -45 -141 -45c-70 0 -128 25 -173 74c-49 53 -73 124 -73 215c0 94 26 167 77 218c49 49 115 74 199 74c129 0 211 -57 248 -171l-156 -41c-19 36 -49 54 -90 54c-69 0 -103 -43 -103 -130c0 -97 40 -146 121 -146c43 0 73 10 92 31v29
h-115v124h268v-321zM285 -143c-35 1 -52 20 -52 55c0 43 27 65 81 65c57 0 86 -27 86 -80c0 -61 -37 -103 -112 -126l-55 60c25 5 42 13 52 26z" />
    <glyph glyph-name="gdotaccent" unicode="&#x121;" horiz-adv-x="601" 
d="M293 620c-22 0 -40 8 -55 23s-22 34 -22 57s7 41 22 56s33 23 55 23s40 -8 55 -23s22 -33 22 -56s-7 -42 -22 -57s-33 -23 -55 -23zM564 0h-151l1 35h-4c-29 -30 -76 -45 -141 -45c-70 0 -128 25 -173 74c-49 53 -73 124 -73 215c0 94 26 167 77 218c49 49 115 74 199 74
c129 0 211 -57 248 -171l-156 -41c-19 36 -49 54 -90 54c-69 0 -103 -43 -103 -130c0 -97 40 -146 121 -146c43 0 73 10 92 31v29h-115v124h268v-321z" />
    <glyph glyph-name="h" unicode="h" horiz-adv-x="568" 
d="M524 0h-172v197h-136v-197h-172v560h172v-202h136v202h172v-560z" />
    <glyph glyph-name="hbar" unicode="&#x127;" horiz-adv-x="598" 
d="M588 403h-49v-403h-172v201h-136v-201h-172v403h-49v102h49v55h172v-55h136v55h172v-55h49v-102zM367 403h-136v-47h136v47z" />
    <glyph glyph-name="hcircumflex" unicode="&#x125;" horiz-adv-x="568" 
d="M459 688l-81 -96l-96 68l-97 -68l-81 96l178 133zM524 0h-172v197h-136v-197h-172v560h172v-202h136v202h172v-560z" />
    <glyph glyph-name="i" unicode="i" horiz-adv-x="260" 
d="M44 0v560h172v-560h-172z" />
    <glyph glyph-name="i.ss03" horiz-adv-x="456" 
d="M314 158h98v-158h-368v158h98v244h-98v158h368v-158h-98v-244z" />
    <glyph glyph-name="dotlessi" unicode="&#x131;" horiz-adv-x="260" 
d="M44 0v560h172v-560h-172z" />
    <glyph glyph-name="dotlessi.ss03" horiz-adv-x="456" 
d="M314 158h98v-158h-368v158h98v244h-98v158h368v-158h-98v-244z" />
    <glyph glyph-name="iacute" unicode="&#xed;" horiz-adv-x="260" 
d="M210 614h-159l106 185l143 -41zM44 0v560h172v-560h-172z" />
    <glyph glyph-name="iacute.ss03" horiz-adv-x="456" 
d="M302 614h-160l106 185l143 -41zM314 158h98v-158h-368v158h98v244h-98v158h368v-158h-98v-244z" />
    <glyph glyph-name="iacute_j.loclNLD" horiz-adv-x="697" 
d="M210 614h-159l106 185l143 -41zM653 614h-160l106 185l143 -41zM44 560h172v-560h-172v560zM486 560h171v-314c0 -172 -78 -258 -234 -258c-71 0 -126 21 -163 64l103 117c17 -15 37 -22 58 -22c29 0 48 9 57 28c5 13 8 40 8 82v303z" />
    <glyph glyph-name="icircumflex" unicode="&#xee;" horiz-adv-x="260" 
d="M272 696l-85 -91l-56 50l-55 -51l-85 91l140 126zM44 0v560h172v-560h-172z" />
    <glyph glyph-name="icircumflex.ss03" horiz-adv-x="456" 
d="M397 688l-81 -96l-97 68l-97 -68l-81 96l178 133zM314 158h98v-158h-368v158h98v244h-98v158h368v-158h-98v-244z" />
    <glyph glyph-name="idieresis" unicode="&#xef;" horiz-adv-x="260" 
d="M48 620c-22 0 -40 8 -54 23s-21 34 -21 57c0 22 7 41 21 56c15 15 33 23 55 23c21 0 39 -8 53 -23s21 -34 21 -56c0 -23 -7 -42 -21 -57s-32 -23 -54 -23zM215 620c-22 0 -40 8 -54 23s-21 34 -21 57s7 41 21 56s32 23 54 23s40 -8 54 -23s21 -34 21 -56
c0 -23 -7 -42 -21 -57s-32 -23 -54 -23zM44 0v560h172v-560h-172z" />
    <glyph glyph-name="idieresis.ss03" horiz-adv-x="456" 
d="M118 620c-23 0 -41 8 -55 23c-15 15 -22 34 -22 57c0 22 7 41 22 56s34 23 56 23c21 0 39 -8 54 -23s22 -34 22 -56c0 -23 -7 -42 -22 -57s-33 -23 -55 -23zM328 620c-23 0 -41 8 -56 23s-22 34 -22 57c0 22 7 41 22 56s34 23 56 23c21 0 40 -8 55 -23s22 -34 22 -56
c0 -23 -7 -42 -22 -57s-34 -23 -55 -23zM314 158h98v-158h-368v158h98v244h-98v158h368v-158h-98v-244z" />
    <glyph glyph-name="i.loclTRK" horiz-adv-x="260" 
d="M131 620c-22 0 -40 8 -55 23s-22 34 -22 57s7 41 22 56s33 23 55 23s40 -8 55 -23s22 -33 22 -56s-7 -42 -22 -57s-33 -23 -55 -23zM44 0v560h172v-560h-172z" />
    <glyph glyph-name="i.loclTRK.ss03" horiz-adv-x="456" 
d="M222 620c-22 0 -40 8 -55 23s-22 34 -22 57s7 41 22 56s33 23 55 23s40 -8 55 -23s22 -33 22 -56s-7 -42 -22 -57s-33 -23 -55 -23zM314 158h98v-158h-368v158h98v244h-98v158h368v-158h-98v-244z" />
    <glyph glyph-name="igrave" unicode="&#xec;" horiz-adv-x="260" 
d="M107 799l105 -185h-159l-90 144zM44 0v560h172v-560h-172z" />
    <glyph glyph-name="igrave.ss03" horiz-adv-x="456" 
d="M198 799l106 -185h-160l-89 144zM314 158h98v-158h-368v158h98v244h-98v158h368v-158h-98v-244z" />
    <glyph glyph-name="ij" unicode="&#x133;" horiz-adv-x="697" 
d="M44 0v560h172v-560h-172zM657 560v-314c0 -172 -78 -258 -234 -258c-71 0 -126 21 -163 64l103 117c17 -15 37 -22 58 -22c29 0 48 9 57 28c5 13 8 40 8 82v303h171z" />
    <glyph glyph-name="ij.ss03" horiz-adv-x="893" 
d="M314 158h98v-158h-368v158h98v244h-98v158h368v-158h-98v-244zM853 560v-314c0 -172 -78 -258 -234 -258c-71 0 -126 21 -163 64l103 117c17 -15 37 -22 58 -22c29 0 48 9 57 28c5 13 8 40 8 82v303h171z" />
    <glyph glyph-name="ij.ss03.ss04" horiz-adv-x="893" 
d="M44 560h368v-158h-98v-244h98v-158h-368v158h98v244h-98v158zM853 560v-314c0 -172 -78 -258 -234 -258c-71 0 -126 21 -163 64l103 117c17 -15 37 -22 58 -22c29 0 48 9 57 28c5 13 8 40 8 82v142h-162v161h333z" />
    <glyph glyph-name="ij.ss04" horiz-adv-x="697" 
d="M44 560h172v-560h-172v560zM657 560v-314c0 -172 -78 -258 -234 -258c-71 0 -126 21 -163 64l103 117c17 -15 37 -22 58 -22c29 0 48 9 57 28c5 13 8 40 8 82v142h-162v161h333z" />
    <glyph glyph-name="imacron" unicode="&#x12b;" horiz-adv-x="260" 
d="M260 615h-257v152h257v-152zM44 0v560h172v-560h-172z" />
    <glyph glyph-name="imacron.ss03" horiz-adv-x="456" 
d="M412 616h-368v152h368v-152zM314 158h98v-158h-368v158h98v244h-98v158h368v-158h-98v-244z" />
    <glyph glyph-name="iogonek" unicode="&#x12f;" horiz-adv-x="260" 
d="M177 -57c22 0 42 4 59 12v-117c-24 -11 -55 -17 -93 -17c-36 0 -67 8 -92 25c-33 21 -49 54 -49 98c0 40 14 72 42 97v519h172v-560h-14c-42 -2 -63 -13 -63 -32c0 -17 13 -25 38 -25z" />
    <glyph glyph-name="iogonek.ss03" horiz-adv-x="456" 
d="M314 402v-244h98v-158h-36c-47 -1 -71 -11 -71 -30c0 -17 15 -26 46 -26c19 0 39 5 60 16v-122c-26 -11 -58 -17 -95 -17c-105 0 -158 34 -158 103c0 32 11 57 34 76h-148v158h98v244h-98v158h368v-158h-98z" />
    <glyph glyph-name="j" unicode="j" horiz-adv-x="437" 
d="M397 560v-314c0 -172 -78 -258 -235 -258c-71 0 -125 21 -162 64l103 117c17 -15 36 -22 57 -22c30 0 49 9 57 28c6 13 9 40 9 82v303h171z" />
    <glyph glyph-name="j.ss04" horiz-adv-x="437" 
d="M397 560v-314c0 -172 -78 -258 -235 -258c-71 0 -125 21 -162 64l103 117c17 -15 36 -22 57 -22c30 0 49 9 57 28c6 13 9 40 9 82v142h-163v161h334z" />
    <glyph glyph-name="uni0237" unicode="&#x237;" horiz-adv-x="437" 
d="M397 560v-314c0 -172 -78 -258 -235 -258c-71 0 -125 21 -162 64l103 117c17 -15 36 -22 57 -22c30 0 49 9 57 28c6 13 9 40 9 82v303h171z" />
    <glyph glyph-name="dotlessj.ss04" horiz-adv-x="437" 
d="M397 560v-314c0 -172 -78 -258 -235 -258c-71 0 -125 21 -162 64l103 117c17 -15 36 -22 57 -22c30 0 49 9 57 28c6 13 9 40 9 82v142h-163v161h334z" />
    <glyph glyph-name="jcircumflex" unicode="&#x135;" horiz-adv-x="437" 
d="M487 688l-81 -96l-96 68l-97 -68l-81 96l178 133zM397 560v-314c0 -172 -78 -258 -235 -258c-71 0 -125 21 -162 64l103 117c17 -15 36 -22 57 -22c30 0 49 9 57 28c6 13 9 40 9 82v303h171z" />
    <glyph glyph-name="jcircumflex.ss04" horiz-adv-x="437" 
d="M122 592l-81 96l177 133l178 -133l-81 -96l-97 68zM397 560v-314c0 -172 -78 -258 -235 -258c-71 0 -125 21 -162 64l103 117c17 -15 36 -22 57 -22c30 0 49 9 57 28c6 13 9 40 9 82v142h-163v161h334z" />
    <glyph glyph-name="k" unicode="k" horiz-adv-x="593" 
d="M387 0l-107 211l-64 -80v-131h-172v560h172v-216h4c6 12 19 32 39 59l113 157h205l-175 -220l178 -340h-193z" />
    <glyph glyph-name="uni0137" unicode="&#x137;" horiz-adv-x="593" 
d="M580 0h-193l-107 211l-64 -80v-131h-172v560h172v-216h4c6 12 19 32 39 59l113 157h205l-175 -220zM300 -23c57 0 86 -27 86 -80c0 -61 -38 -103 -113 -126l-55 60c25 5 42 13 52 26c-34 1 -51 20 -51 55c0 43 27 65 81 65z" />
    <glyph glyph-name="l" unicode="l" horiz-adv-x="453" 
d="M44 0v560h172v-399h210v-161h-382z" />
    <glyph glyph-name="lacute" unicode="&#x13a;" horiz-adv-x="453" 
d="M234 614h-160l106 185l143 -41zM44 0v560h172v-399h210v-161h-382z" />
    <glyph glyph-name="lcaron" unicode="&#x13e;" horiz-adv-x="453" 
d="M44 0v560h172v-399h210v-161h-382zM295 560h143c5 -70 -10 -135 -44 -196h-130c23 48 33 113 31 196z" />
    <glyph glyph-name="uni013C" unicode="&#x13c;" horiz-adv-x="453" 
d="M44 0v560h172v-399h210v-161h-382zM207 -143c-34 1 -51 20 -51 55c0 43 27 65 81 65c57 0 86 -27 86 -80c0 -61 -38 -103 -113 -126l-54 60c25 5 42 13 51 26z" />
    <glyph glyph-name="ldot" unicode="&#x140;" horiz-adv-x="453" 
d="M44 0v560h172v-399h210v-161h-382zM349 230c-25 0 -45 8 -60 25c-14 15 -21 35 -21 60s7 46 21 61c14 17 34 25 60 25c54 0 81 -29 81 -86s-27 -85 -81 -85z" />
    <glyph glyph-name="lslash" unicode="&#x142;" horiz-adv-x="453" 
d="M426 161v-161h-382v560h172v-195l147 70v-165l-147 -69v-40h210z" />
    <glyph glyph-name="m" unicode="m" horiz-adv-x="674" 
d="M458 0v302h-4l-66 -172h-107l-69 180h-4v-310h-164v560h209l55 -120c25 -54 37 -81 36 -81h4c1 0 14 27 37 82l53 119h192v-560h-172z" />
    <glyph glyph-name="n" unicode="n" horiz-adv-x="606" 
d="M562 0h-178l-168 277h-4l1 -38v-239h-169v560h178l168 -264h4l-1 264h169v-560z" />
    <glyph glyph-name="n.ss02" horiz-adv-x="606" 
d="M562 0h-172v164l-171 178h-5c1 1 2 -49 2 -150v-192h-172v560h178l163 -166h4c1 0 1 27 1 80v86h172v-560z" />
    <glyph glyph-name="nacute" unicode="&#x144;" horiz-adv-x="606" 
d="M381 614h-160l106 185l143 -41zM562 0h-178l-168 277h-4l1 -38v-239h-169v560h178l168 -264h4l-1 264h169v-560z" />
    <glyph glyph-name="nacute.loclPLK" horiz-adv-x="606" 
d="M372 614h-143l60 199l143 -24zM562 0h-178l-168 277h-4l1 -38v-239h-169v560h178l168 -264h4l-1 264h169v-560z" />
    <glyph glyph-name="nacute.loclPLK.ss02" horiz-adv-x="606" 
d="M371 614h-143l61 199l142 -24zM562 0h-172v164l-171 178h-5c1 1 2 -49 2 -150v-192h-172v560h178l163 -166h4c1 0 1 27 1 80v86h172v-560z" />
    <glyph glyph-name="nacute.ss02" horiz-adv-x="606" 
d="M380 614h-159l105 185l143 -41zM562 0h-172v164l-171 178h-5c1 1 2 -49 2 -150v-192h-172v560h178l163 -166h4c1 0 1 27 1 80v86h172v-560z" />
    <glyph glyph-name="ncaron" unicode="&#x148;" horiz-adv-x="606" 
d="M124 720l80 94l98 -63l98 63l80 -94l-178 -126zM562 0h-178l-168 277h-4l1 -38v-239h-169v560h178l168 -264h4l-1 264h169v-560z" />
    <glyph glyph-name="ncaron.ss02" horiz-adv-x="606" 
d="M124 720l80 94l97 -63l98 63l80 -94l-178 -126zM562 0h-172v164l-171 178h-5c1 1 2 -49 2 -150v-192h-172v560h178l163 -166h4c1 0 1 27 1 80v86h172v-560z" />
    <glyph glyph-name="uni0146" unicode="&#x146;" horiz-adv-x="606" 
d="M562 0h-178l-168 277h-4l1 -38v-239h-169v560h178l168 -264h4l-1 264h169v-560zM270 -143c-34 1 -51 20 -51 55c0 43 27 65 81 65c57 0 86 -27 86 -80c0 -61 -38 -103 -113 -126l-54 60c25 5 42 13 51 26z" />
    <glyph glyph-name="ncommaaccent.ss02" horiz-adv-x="606" 
d="M562 0h-172v164l-171 178h-5c1 1 2 -49 2 -150v-192h-172v560h178l163 -166h4c1 0 1 27 1 80v86h172v-560zM280 -143c-34 1 -51 20 -51 55c0 43 27 65 81 65c57 0 86 -27 86 -80c0 -61 -38 -103 -113 -126l-54 60c25 5 42 13 51 26z" />
    <glyph glyph-name="eng" unicode="&#x14b;" horiz-adv-x="606" 
d="M561 560v-560c0 -61 -17 -105 -52 -130c-28 -21 -72 -31 -131 -31h-63v134h57c7 0 12 3 15 9c2 5 1 11 -3 18l-168 277h-4l1 -38v-239h-169v560h178l168 -264h4l-1 264h168z" />
    <glyph glyph-name="eng.ss02" horiz-adv-x="606" 
d="M562 560v-560c0 -63 -16 -106 -48 -131c-27 -20 -69 -30 -128 -30h-49v126h27c12 0 20 3 23 10c2 4 3 12 3 25v164l-171 178h-5c1 1 2 -49 2 -150v-192h-172v560h178l163 -166h4c1 0 1 27 1 80v86h172z" />
    <glyph glyph-name="ntilde" unicode="&#xf1;" horiz-adv-x="606" 
d="M442 789l28 -132c-12 -23 -41 -34 -86 -34c-18 0 -42 4 -73 13s-55 13 -73 13c-34 0 -61 -9 -80 -27l-28 132c12 23 41 34 86 34c19 0 43 -4 74 -13s55 -13 73 -13c33 0 60 9 79 27zM562 0h-178l-168 277h-4l1 -38v-239h-169v560h178l168 -264h4l-1 264h169v-560z" />
    <glyph glyph-name="ntilde.ss02" horiz-adv-x="606" 
d="M441 789l28 -132c-12 -23 -41 -34 -86 -34c-18 0 -42 4 -73 13s-55 13 -73 13c-34 0 -61 -9 -80 -27l-28 132c14 23 43 34 87 34c18 0 42 -4 73 -13c30 -9 54 -13 73 -13c35 0 61 9 79 27zM562 0h-172v164l-171 178h-5c1 1 2 -49 2 -150v-192h-172v560h178l163 -166h4
c1 0 1 27 1 80v86h172v-560z" />
    <glyph glyph-name="o" unicode="o" horiz-adv-x="595" 
d="M23 281c0 92 25 164 76 215c49 50 115 75 199 75c83 0 150 -25 199 -75c50 -51 75 -123 75 -215s-25 -164 -75 -216c-49 -51 -116 -77 -199 -77c-84 0 -150 26 -199 77c-51 52 -76 124 -76 216zM198 280c0 -89 33 -133 100 -133c66 0 99 44 99 133s-33 133 -99 133
c-67 0 -100 -44 -100 -133z" />
    <glyph glyph-name="oacute" unicode="&#xf3;" horiz-adv-x="595" 
d="M376 614h-160l106 185l143 -41zM23 281c0 92 25 164 76 215c49 50 115 75 199 75c83 0 150 -25 199 -75c50 -51 75 -123 75 -215s-25 -164 -75 -216c-49 -51 -116 -77 -199 -77c-84 0 -150 26 -199 77c-51 52 -76 124 -76 216zM198 280c0 -89 33 -133 100 -133
c66 0 99 44 99 133s-33 133 -99 133c-67 0 -100 -44 -100 -133z" />
    <glyph glyph-name="oacute.loclPLK" horiz-adv-x="595" 
d="M367 614h-143l60 199l143 -24zM23 281c0 92 25 164 76 215c49 50 115 75 199 75c83 0 150 -25 199 -75c50 -51 75 -123 75 -215s-25 -164 -75 -216c-49 -51 -116 -77 -199 -77c-84 0 -150 26 -199 77c-51 52 -76 124 -76 216zM198 280c0 -89 33 -133 100 -133
c66 0 99 44 99 133s-33 133 -99 133c-67 0 -100 -44 -100 -133z" />
    <glyph glyph-name="ocircumflex" unicode="&#xf4;" horiz-adv-x="595" 
d="M471 688l-81 -96l-97 68l-97 -68l-81 96l178 133zM23 281c0 92 25 164 76 215c49 50 115 75 199 75c83 0 150 -25 199 -75c50 -51 75 -123 75 -215s-25 -164 -75 -216c-49 -51 -116 -77 -199 -77c-84 0 -150 26 -199 77c-51 52 -76 124 -76 216zM198 280
c0 -89 33 -133 100 -133c66 0 99 44 99 133s-33 133 -99 133c-67 0 -100 -44 -100 -133z" />
    <glyph glyph-name="odieresis" unicode="&#xf6;" horiz-adv-x="595" 
d="M192 620c-22 0 -40 8 -55 23s-22 34 -22 57c0 22 7 41 22 56s34 23 57 23c21 0 39 -8 54 -23c14 -15 21 -34 21 -56c0 -23 -7 -42 -22 -57s-33 -23 -55 -23zM402 620c-23 0 -41 8 -56 23s-22 34 -22 57c0 22 7 41 22 56s34 23 56 23s40 -8 55 -23s22 -34 22 -56
c0 -23 -7 -42 -22 -57s-33 -23 -55 -23zM23 281c0 92 25 164 76 215c49 50 115 75 199 75c83 0 150 -25 199 -75c50 -51 75 -123 75 -215s-25 -164 -75 -216c-49 -51 -116 -77 -199 -77c-84 0 -150 26 -199 77c-51 52 -76 124 -76 216zM198 280c0 -89 33 -133 100 -133
c66 0 99 44 99 133s-33 133 -99 133c-67 0 -100 -44 -100 -133z" />
    <glyph glyph-name="ograve" unicode="&#xf2;" horiz-adv-x="595" 
d="M272 799l106 -185h-160l-89 144zM23 281c0 92 25 164 76 215c49 50 115 75 199 75c83 0 150 -25 199 -75c50 -51 75 -123 75 -215s-25 -164 -75 -216c-49 -51 -116 -77 -199 -77c-84 0 -150 26 -199 77c-51 52 -76 124 -76 216zM198 280c0 -89 33 -133 100 -133
c66 0 99 44 99 133s-33 133 -99 133c-67 0 -100 -44 -100 -133z" />
    <glyph glyph-name="ohungarumlaut" unicode="&#x151;" horiz-adv-x="595" 
d="M257 614h-159l105 185l143 -41zM476 614h-159l105 185l143 -41zM23 281c0 92 25 164 76 215c49 50 115 75 199 75c83 0 150 -25 199 -75c50 -51 75 -123 75 -215s-25 -164 -75 -216c-49 -51 -116 -77 -199 -77c-84 0 -150 26 -199 77c-51 52 -76 124 -76 216zM198 280
c0 -89 33 -133 100 -133c66 0 99 44 99 133s-33 133 -99 133c-67 0 -100 -44 -100 -133z" />
    <glyph glyph-name="omacron" unicode="&#x14d;" horiz-adv-x="595" 
d="M459 616h-324v152h324v-152zM23 281c0 92 25 164 76 215c49 50 115 75 199 75c83 0 150 -25 199 -75c50 -51 75 -123 75 -215s-25 -164 -75 -216c-49 -51 -116 -77 -199 -77c-84 0 -150 26 -199 77c-51 52 -76 124 -76 216zM198 280c0 -89 33 -133 100 -133
c66 0 99 44 99 133s-33 133 -99 133c-67 0 -100 -44 -100 -133z" />
    <glyph glyph-name="oslash" unicode="&#xf8;" horiz-adv-x="592" 
d="M562 553l-49 -76c39 -50 59 -116 59 -197c0 -91 -25 -163 -75 -216c-49 -51 -116 -76 -199 -76c-31 0 -62 4 -93 13l-45 -67l-125 78l47 72c-39 50 -59 115 -59 196c0 92 25 164 76 216c49 50 115 75 199 75c33 0 63 -4 91 -12l48 71zM298 413c-67 0 -100 -44 -100 -133
c0 -25 3 -49 10 -70l120 199c-12 3 -22 4 -30 4zM298 147c66 0 99 44 99 133c0 29 -4 55 -13 76l-123 -204c12 -4 24 -6 37 -5z" />
    <glyph glyph-name="otilde" unicode="&#xf5;" horiz-adv-x="595" 
d="M437 789l28 -132c-12 -23 -41 -34 -86 -34c-18 0 -42 4 -73 13s-55 13 -73 13c-34 0 -61 -9 -80 -27l-28 132c12 23 41 34 86 34c19 0 43 -4 74 -13s55 -13 73 -13c33 0 60 9 79 27zM23 281c0 92 25 164 76 215c49 50 115 75 199 75c83 0 150 -25 199 -75
c50 -51 75 -123 75 -215s-25 -164 -75 -216c-49 -51 -116 -77 -199 -77c-84 0 -150 26 -199 77c-51 52 -76 124 -76 216zM198 280c0 -89 33 -133 100 -133c66 0 99 44 99 133s-33 133 -99 133c-67 0 -100 -44 -100 -133z" />
    <glyph glyph-name="oe" unicode="&#x153;" horiz-adv-x="786" 
d="M750 0h-388c-22 -2 -45 -3 -68 -3c-81 0 -146 24 -194 72c-51 51 -77 121 -77 212s26 162 77 212c48 47 112 70 193 70c27 0 50 -1 68 -3h384v-161h-242v-58h161v-118h-161v-62h247v-161zM197 280c0 -85 33 -127 100 -127c15 0 30 1 44 3v249l-44 3
c-67 0 -100 -43 -100 -128z" />
    <glyph glyph-name="p" unicode="p" horiz-adv-x="508" 
d="M44 560h226c67 0 121 -19 161 -56c39 -37 59 -86 59 -149s-20 -112 -59 -149c-39 -36 -93 -54 -160 -54h-55v-152h-172v560zM216 293h58c30 0 45 19 45 58c0 37 -15 56 -45 56h-58v-114z" />
    <glyph glyph-name="thorn" unicode="&#xfe;" horiz-adv-x="501" 
d="M216 472h47c67 0 121 -18 160 -53c40 -35 60 -84 60 -147c0 -59 -20 -105 -60 -139c-39 -34 -93 -51 -160 -51h-47v-82h-172v560h172v-88zM216 219h49c31 0 47 17 47 50c0 32 -16 48 -47 48h-49v-98z" />
    <glyph glyph-name="q" unicode="q" horiz-adv-x="592" 
d="M572 280c0 -75 -17 -136 -51 -185c-33 -48 -80 -80 -139 -96v-115h-171v115c-59 16 -104 48 -137 96c-34 49 -51 111 -51 186c0 92 25 164 76 215c49 50 115 75 199 75c83 0 150 -25 199 -75c50 -51 75 -123 75 -216zM298 146c66 0 99 45 99 134s-33 133 -99 133
c-67 0 -100 -44 -100 -133s33 -134 100 -134z" />
    <glyph glyph-name="q.ss01" horiz-adv-x="626" 
d="M603 0h-309c-80 0 -144 24 -193 72c-52 51 -78 123 -78 215c0 93 26 164 78 214c49 47 114 71 196 71c81 0 146 -23 195 -68c51 -49 77 -118 77 -207c0 -57 -13 -103 -40 -136l2 -3c8 2 28 3 59 3h13v-161zM198 286c0 -85 33 -127 100 -127s100 42 100 127
s-33 127 -100 127s-100 -42 -100 -127z" />
    <glyph glyph-name="r" unicode="r" horiz-adv-x="540" 
d="M347 0l-84 170h-48v-170h-171v560h234c71 0 127 -18 166 -55c38 -35 57 -82 57 -142c0 -75 -26 -126 -79 -155l108 -208h-183zM215 302h65c31 0 46 17 46 50c0 34 -15 51 -46 51h-65v-101z" />
    <glyph glyph-name="racute" unicode="&#x155;" horiz-adv-x="540" 
d="M329 614h-160l106 185l143 -41zM347 0l-84 170h-48v-170h-171v560h234c71 0 127 -18 166 -55c38 -35 57 -82 57 -142c0 -75 -26 -126 -79 -155l108 -208h-183zM215 302h65c31 0 46 17 46 50c0 34 -15 51 -46 51h-65v-101z" />
    <glyph glyph-name="rcaron" unicode="&#x159;" horiz-adv-x="540" 
d="M72 720l80 94l98 -63l98 63l80 -94l-178 -126zM347 0l-84 170h-48v-170h-171v560h234c71 0 127 -18 166 -55c38 -35 57 -82 57 -142c0 -75 -26 -126 -79 -155l108 -208h-183zM215 302h65c31 0 46 17 46 50c0 34 -15 51 -46 51h-65v-101z" />
    <glyph glyph-name="uni0157" unicode="&#x157;" horiz-adv-x="540" 
d="M347 0l-84 170h-48v-170h-171v560h234c71 0 127 -18 166 -55c38 -35 57 -82 57 -142c0 -75 -26 -126 -79 -155l108 -208h-183zM215 302h65c31 0 46 17 46 50c0 34 -15 51 -46 51h-65v-101zM256 -143c-34 1 -51 20 -51 55c0 43 27 65 81 65c57 0 86 -27 86 -80
c0 -61 -38 -103 -113 -126l-55 60c25 5 42 13 52 26z" />
    <glyph glyph-name="s" unicode="s" horiz-adv-x="502" 
d="M22 142l155 42c9 -39 35 -58 79 -58c34 0 51 12 51 36c0 15 -11 27 -32 35c7 -3 -27 7 -100 28c-95 27 -143 85 -143 173c0 115 71 173 214 173c129 0 205 -48 228 -143l-149 -40c-7 31 -31 46 -70 46c-33 0 -50 -11 -50 -32c0 -13 9 -24 27 -31c8 -3 38 -12 90 -26
c105 -29 158 -89 158 -180c0 -61 -22 -106 -65 -136c-38 -27 -91 -41 -158 -41c-136 0 -214 51 -235 154z" />
    <glyph glyph-name="sacute" unicode="&#x15b;" horiz-adv-x="502" 
d="M327 614h-159l106 185l143 -41zM22 142l155 42c9 -39 35 -58 79 -58c34 0 51 12 51 36c0 15 -11 27 -32 35c7 -3 -27 7 -100 28c-95 27 -143 85 -143 173c0 115 71 173 214 173c129 0 205 -48 228 -143l-149 -40c-7 31 -31 46 -70 46c-33 0 -50 -11 -50 -32
c0 -13 9 -24 27 -31c8 -3 38 -12 90 -26c105 -29 158 -89 158 -180c0 -61 -22 -106 -65 -136c-38 -27 -91 -41 -158 -41c-136 0 -214 51 -235 154z" />
    <glyph glyph-name="sacute.loclPLK" horiz-adv-x="502" 
d="M319 614h-143l60 199l143 -24zM22 142l155 42c9 -39 35 -58 79 -58c34 0 51 12 51 36c0 15 -11 27 -32 35c7 -3 -27 7 -100 28c-95 27 -143 85 -143 173c0 115 71 173 214 173c129 0 205 -48 228 -143l-149 -40c-7 31 -31 46 -70 46c-33 0 -50 -11 -50 -32
c0 -13 9 -24 27 -31c8 -3 38 -12 90 -26c105 -29 158 -89 158 -180c0 -61 -22 -106 -65 -136c-38 -27 -91 -41 -158 -41c-136 0 -214 51 -235 154z" />
    <glyph glyph-name="scaron" unicode="&#x161;" horiz-adv-x="502" 
d="M71 720l80 94l98 -63l97 63l80 -94l-177 -126zM22 142l155 42c9 -39 35 -58 79 -58c34 0 51 12 51 36c0 15 -11 27 -32 35c7 -3 -27 7 -100 28c-95 27 -143 85 -143 173c0 115 71 173 214 173c129 0 205 -48 228 -143l-149 -40c-7 31 -31 46 -70 46
c-33 0 -50 -11 -50 -32c0 -13 9 -24 27 -31c8 -3 38 -12 90 -26c105 -29 158 -89 158 -180c0 -61 -22 -106 -65 -136c-38 -27 -91 -41 -158 -41c-136 0 -214 51 -235 154z" />
    <glyph glyph-name="scedilla" unicode="&#x15f;" horiz-adv-x="502" 
d="M480 165c0 -81 -37 -134 -110 -160c23 -17 35 -42 35 -76c0 -72 -50 -108 -150 -108c-41 0 -71 4 -90 12v111c12 -5 31 -7 57 -7c37 0 55 7 55 20c0 19 -37 28 -111 26v15c-81 21 -129 69 -144 144l155 42c9 -39 35 -58 79 -58c34 0 51 12 51 36c0 15 -11 27 -32 35
c7 -3 -27 7 -100 28c-95 27 -143 85 -143 173c0 115 71 173 214 173c129 0 205 -48 228 -143l-149 -40c-7 31 -31 46 -70 46c-33 0 -50 -11 -50 -32c0 -13 9 -24 27 -31c8 -3 38 -12 90 -26c105 -29 158 -89 158 -180z" />
    <glyph glyph-name="scircumflex" unicode="&#x15d;" horiz-adv-x="502" 
d="M422 688l-81 -96l-96 68l-97 -68l-81 96l178 133zM22 142l155 42c9 -39 35 -58 79 -58c34 0 51 12 51 36c0 15 -11 27 -32 35c7 -3 -27 7 -100 28c-95 27 -143 85 -143 173c0 115 71 173 214 173c129 0 205 -48 228 -143l-149 -40c-7 31 -31 46 -70 46
c-33 0 -50 -11 -50 -32c0 -13 9 -24 27 -31c8 -3 38 -12 90 -26c105 -29 158 -89 158 -180c0 -61 -22 -106 -65 -136c-38 -27 -91 -41 -158 -41c-136 0 -214 51 -235 154z" />
    <glyph glyph-name="uni0219" unicode="&#x219;" horiz-adv-x="502" 
d="M22 142l155 42c9 -39 35 -58 79 -58c34 0 51 12 51 36c0 15 -11 27 -32 35c7 -3 -27 7 -100 28c-95 27 -143 85 -143 173c0 115 71 173 214 173c129 0 205 -48 228 -143l-149 -40c-7 31 -31 46 -70 46c-33 0 -50 -11 -50 -32c0 -13 9 -24 27 -31c8 -3 38 -12 90 -26
c105 -29 158 -89 158 -180c0 -61 -22 -106 -65 -136c-38 -27 -91 -41 -158 -41c-136 0 -214 51 -235 154zM227 -143c-34 1 -51 20 -51 55c0 43 27 65 81 65c57 0 86 -27 86 -80c0 -61 -38 -103 -113 -126l-55 60c25 5 42 13 52 26z" />
    <glyph glyph-name="germandbls" unicode="&#xdf;" horiz-adv-x="575" 
d="M410 340h2c41 0 76 -16 103 -49c28 -33 42 -75 42 -125c0 -51 -15 -93 -44 -126c-31 -36 -74 -54 -128 -54c-69 0 -115 16 -138 49l68 120c13 -18 28 -27 44 -27c23 0 35 13 35 38c0 31 -17 46 -51 46h-83v116l32 68l-2 3h-74v-399h-172v560h472l-108 -217z" />
    <glyph glyph-name="germandbls.calt" horiz-adv-x="654" 
d="M456 432h3c54 0 97 -21 130 -64c32 -41 48 -92 48 -154c0 -65 -17 -117 -50 -157c-39 -47 -98 -71 -175 -71c-68 0 -119 18 -154 55l75 139c16 -18 36 -27 59 -27c41 0 61 21 61 64c0 47 -24 70 -73 70h-94v147l42 91l-3 5h-98v-530h-183v700h537l-128 -265z" />
    <glyph glyph-name="t" unicode="t" horiz-adv-x="526" 
d="M501 399h-152v-399h-172v399h-152v161h476v-161z" />
    <glyph glyph-name="tbar" unicode="&#x167;" horiz-adv-x="526" 
d="M349 399v-76h74v-130h-74v-193h-172v193h-73v130h73v76h-152v161h476v-161h-152z" />
    <glyph glyph-name="tcaron" unicode="&#x165;" horiz-adv-x="526" 
d="M80 720l80 94l98 -63l98 63l80 -94l-178 -126zM501 399h-152v-399h-172v399h-152v161h476v-161z" />
    <glyph glyph-name="uni0163" unicode="&#x163;" horiz-adv-x="526" 
d="M349 399v-376c45 -16 67 -47 67 -94c0 -72 -50 -108 -150 -108c-41 0 -71 4 -90 12v111c13 -5 32 -8 57 -8c37 0 55 7 55 21c0 19 -37 28 -111 26v416h-152v161h476v-161h-152z" />
    <glyph glyph-name="uni021B" unicode="&#x21b;" horiz-adv-x="526" 
d="M501 399h-152v-399h-172v399h-152v161h476v-161zM238 -143c-35 1 -52 20 -52 55c0 43 27 65 81 65c57 0 86 -27 86 -80c0 -61 -37 -103 -112 -126l-55 60c25 5 42 13 52 26z" />
    <glyph glyph-name="u" unicode="u" horiz-adv-x="577" 
d="M537 560v-305c0 -90 -23 -158 -68 -204c-43 -42 -102 -63 -179 -63c-167 0 -250 89 -250 267v305h174v-319c0 -63 26 -94 77 -94s77 31 77 94v319h169z" />
    <glyph glyph-name="uacute" unicode="&#xfa;" horiz-adv-x="577" 
d="M371 614h-160l106 185l143 -41zM537 560v-305c0 -90 -23 -158 -68 -204c-43 -42 -102 -63 -179 -63c-167 0 -250 89 -250 267v305h174v-319c0 -63 26 -94 77 -94s77 31 77 94v319h169z" />
    <glyph glyph-name="ubreve" unicode="&#x16d;" horiz-adv-x="577" 
d="M110 762h129c1 -32 19 -48 52 -48c35 0 52 16 52 48h129c-2 -52 -19 -92 -51 -121c-32 -27 -75 -41 -130 -41c-56 0 -100 14 -131 41c-32 28 -49 68 -50 121zM537 560v-305c0 -90 -23 -158 -68 -204c-43 -42 -102 -63 -179 -63c-167 0 -250 89 -250 267v305h174v-319
c0 -63 26 -94 77 -94s77 31 77 94v319h169z" />
    <glyph glyph-name="ucircumflex" unicode="&#xfb;" horiz-adv-x="577" 
d="M466 688l-81 -96l-97 68l-97 -68l-81 96l178 133zM537 560v-305c0 -90 -23 -158 -68 -204c-43 -42 -102 -63 -179 -63c-167 0 -250 89 -250 267v305h174v-319c0 -63 26 -94 77 -94s77 31 77 94v319h169z" />
    <glyph glyph-name="udieresis" unicode="&#xfc;" horiz-adv-x="577" 
d="M187 620c-23 0 -41 8 -55 23c-15 15 -22 34 -22 57c0 22 7 41 22 56s34 23 56 23c21 0 39 -8 54 -23s22 -34 22 -56c0 -23 -7 -42 -22 -57s-33 -23 -55 -23zM397 620c-23 0 -41 8 -56 23s-22 34 -22 57c0 22 7 41 22 56s34 23 56 23c21 0 40 -8 55 -23s22 -34 22 -56
c0 -23 -7 -42 -22 -57s-34 -23 -55 -23zM537 560v-305c0 -90 -23 -158 -68 -204c-43 -42 -102 -63 -179 -63c-167 0 -250 89 -250 267v305h174v-319c0 -63 26 -94 77 -94s77 31 77 94v319h169z" />
    <glyph glyph-name="ugrave" unicode="&#xf9;" horiz-adv-x="577" 
d="M267 799l106 -185h-160l-89 144zM537 560v-305c0 -90 -23 -158 -68 -204c-43 -42 -102 -63 -179 -63c-167 0 -250 89 -250 267v305h174v-319c0 -63 26 -94 77 -94s77 31 77 94v319h169z" />
    <glyph glyph-name="uhungarumlaut" unicode="&#x171;" horiz-adv-x="577" 
d="M252 614h-160l106 185l143 -41zM471 614h-160l106 185l143 -41zM537 560v-305c0 -90 -23 -158 -68 -204c-43 -42 -102 -63 -179 -63c-167 0 -250 89 -250 267v305h174v-319c0 -63 26 -94 77 -94s77 31 77 94v319h169z" />
    <glyph glyph-name="umacron" unicode="&#x16b;" horiz-adv-x="577" 
d="M454 616h-324v152h324v-152zM537 560v-305c0 -90 -23 -158 -68 -204c-43 -42 -102 -63 -179 -63c-167 0 -250 89 -250 267v305h174v-319c0 -63 26 -94 77 -94s77 31 77 94v319h169z" />
    <glyph glyph-name="uogonek" unicode="&#x173;" horiz-adv-x="577" 
d="M537 560v-305c0 -151 -61 -238 -183 -261c-12 -5 -18 -12 -18 -22c0 -18 16 -27 47 -27c20 0 45 5 75 15v-122c-29 -11 -63 -17 -102 -17c-48 0 -87 9 -117 27c-35 21 -52 51 -52 90c0 23 6 43 17 61c-109 28 -164 113 -164 256v305h174v-319c0 -63 26 -94 77 -94
s77 31 77 94v319h169z" />
    <glyph glyph-name="uring" unicode="&#x16f;" horiz-adv-x="577" 
d="M292 589c-43 0 -77 11 -102 32c-26 22 -39 53 -39 93s13 71 39 93c25 21 59 32 102 32s76 -11 101 -32c26 -22 39 -53 39 -93s-13 -71 -39 -93c-25 -21 -58 -32 -101 -32zM292 674c29 0 43 13 43 40s-14 40 -43 40s-44 -13 -44 -40s15 -40 44 -40zM537 560v-305
c0 -90 -23 -158 -68 -204c-43 -42 -102 -63 -179 -63c-167 0 -250 89 -250 267v305h174v-319c0 -63 26 -94 77 -94s77 31 77 94v319h169z" />
    <glyph glyph-name="v" unicode="v" horiz-adv-x="588" 
d="M406 0h-223l-173 560h191l56 -217c28 -110 42 -166 42 -169h4c4 13 18 69 43 170l53 216h179z" />
    <glyph glyph-name="w" unicode="w" horiz-adv-x="842" 
d="M498 0l-44 192c-22 97 -33 145 -32 144h-3c1 1 -10 -47 -32 -144l-45 -192h-195l-132 560h182l40 -202c21 -105 30 -156 27 -153h3c-3 -3 6 45 28 144l40 183h196l36 -184c20 -99 28 -147 24 -143h3c-3 -3 7 48 28 153l42 202h163l-131 -560h-198z" />
    <glyph glyph-name="wacute" unicode="&#x1e83;" horiz-adv-x="842" 
d="M508 614h-159l106 185l143 -41zM498 0l-44 192c-22 97 -33 145 -32 144h-3c1 1 -10 -47 -32 -144l-45 -192h-195l-132 560h182l40 -202c21 -105 30 -156 27 -153h3c-3 -3 6 45 28 144l40 183h196l36 -184c20 -99 28 -147 24 -143h3c-3 -3 7 48 28 153l42 202h163
l-131 -560h-198z" />
    <glyph glyph-name="wcircumflex" unicode="&#x175;" horiz-adv-x="842" 
d="M603 688l-81 -96l-96 68l-97 -68l-81 96l178 133zM498 0l-44 192c-22 97 -33 145 -32 144h-3c1 1 -10 -47 -32 -144l-45 -192h-195l-132 560h182l40 -202c21 -105 30 -156 27 -153h3c-3 -3 6 45 28 144l40 183h196l36 -184c20 -99 28 -147 24 -143h3c-3 -3 7 48 28 153
l42 202h163l-131 -560h-198z" />
    <glyph glyph-name="wdieresis" unicode="&#x1e85;" horiz-adv-x="842" 
d="M325 620c-23 0 -41 8 -56 23s-22 34 -22 57c0 22 8 41 23 56s33 23 56 23c21 0 39 -8 54 -23s22 -34 22 -56c0 -23 -7 -42 -22 -57s-34 -23 -55 -23zM534 620c-22 0 -40 8 -55 23s-22 34 -22 57c0 22 7 41 22 56s33 23 55 23s41 -8 56 -23s22 -34 22 -56
c0 -23 -7 -42 -22 -57s-34 -23 -56 -23zM498 0l-44 192c-22 97 -33 145 -32 144h-3c1 1 -10 -47 -32 -144l-45 -192h-195l-132 560h182l40 -202c21 -105 30 -156 27 -153h3c-3 -3 6 45 28 144l40 183h196l36 -184c20 -99 28 -147 24 -143h3c-3 -3 7 48 28 153l42 202h163
l-131 -560h-198z" />
    <glyph glyph-name="wgrave" unicode="&#x1e81;" horiz-adv-x="842" 
d="M405 799l105 -185h-159l-89 144zM498 0l-44 192c-22 97 -33 145 -32 144h-3c1 1 -10 -47 -32 -144l-45 -192h-195l-132 560h182l40 -202c21 -105 30 -156 27 -153h3c-3 -3 6 45 28 144l40 183h196l36 -184c20 -99 28 -147 24 -143h3c-3 -3 7 48 28 153l42 202h163
l-131 -560h-198z" />
    <glyph glyph-name="x" unicode="x" horiz-adv-x="587" 
d="M368 0l-43 80c-29 53 -42 79 -41 79h-1c-1 0 -13 -26 -38 -79l-38 -80h-189l161 283l-151 277h202l74 -161h2c1 0 14 28 38 84l32 77h183l-153 -281l164 -279h-202z" />
    <glyph glyph-name="y" unicode="y" horiz-adv-x="556" 
d="M364 0h-171v181l-183 379h192l45 -109c28 -69 41 -102 40 -101h4c-1 -1 12 33 38 101l44 109h173l-182 -379v-181z" />
    <glyph glyph-name="y.ss05" horiz-adv-x="556" 
d="M417 291h63v-149h-116v-142h-171v142h-110v149h57l-130 269h192l45 -109c28 -69 41 -102 40 -101h4c-1 -1 12 33 38 101l44 109h173z" />
    <glyph glyph-name="yacute" unicode="&#xfd;" horiz-adv-x="556" 
d="M371 614h-160l106 185l143 -41zM364 0h-171v181l-183 379h192l45 -109c28 -69 41 -102 40 -101h4c-1 -1 12 33 38 101l44 109h173l-182 -379v-181z" />
    <glyph glyph-name="yacute.ss05" horiz-adv-x="556" 
d="M373 614h-159l106 185l143 -41zM417 291h63v-149h-116v-142h-171v142h-110v149h57l-130 269h192l45 -109c28 -69 41 -102 40 -101h4c-1 -1 12 33 38 101l44 109h173z" />
    <glyph glyph-name="ycircumflex" unicode="&#x177;" horiz-adv-x="556" 
d="M466 688l-81 -96l-97 68l-97 -68l-81 96l178 133zM364 0h-171v181l-183 379h192l45 -109c28 -69 41 -102 40 -101h4c-1 -1 12 33 38 101l44 109h173l-182 -379v-181z" />
    <glyph glyph-name="ycircumflex.ss05" horiz-adv-x="556" 
d="M194 592l-81 96l178 133l177 -133l-81 -96l-96 68zM417 291h63v-149h-116v-142h-171v142h-110v149h57l-130 269h192l45 -109c28 -69 41 -102 40 -101h4c-1 -1 12 33 38 101l44 109h173z" />
    <glyph glyph-name="ydieresis" unicode="&#xff;" horiz-adv-x="556" 
d="M187 620c-23 0 -41 8 -55 23c-15 15 -22 34 -22 57c0 22 7 41 22 56s34 23 56 23c21 0 39 -8 54 -23s22 -34 22 -56c0 -23 -7 -42 -22 -57s-33 -23 -55 -23zM397 620c-23 0 -41 8 -56 23s-22 34 -22 57c0 22 7 41 22 56s34 23 56 23c21 0 40 -8 55 -23s22 -34 22 -56
c0 -23 -7 -42 -22 -57s-34 -23 -55 -23zM364 0h-171v181l-183 379h192l45 -109c28 -69 41 -102 40 -101h4c-1 -1 12 33 38 101l44 109h173l-182 -379v-181z" />
    <glyph glyph-name="ydieresis.ss05" horiz-adv-x="556" 
d="M190 620c-23 0 -41 8 -56 23s-22 34 -22 57c0 22 8 41 23 56s33 23 56 23c21 0 39 -8 54 -23s22 -34 22 -56c0 -23 -7 -42 -22 -57s-34 -23 -55 -23zM399 620c-22 0 -40 8 -55 23s-22 34 -22 57c0 22 7 41 22 56s33 23 55 23s41 -8 56 -23s22 -34 22 -56
c0 -23 -7 -42 -22 -57s-34 -23 -56 -23zM417 291h63v-149h-116v-142h-171v142h-110v149h57l-130 269h192l45 -109c28 -69 41 -102 40 -101h4c-1 -1 12 33 38 101l44 109h173z" />
    <glyph glyph-name="ygrave" unicode="&#x1ef3;" horiz-adv-x="556" 
d="M267 799l106 -185h-160l-89 144zM364 0h-171v181l-183 379h192l45 -109c28 -69 41 -102 40 -101h4c-1 -1 12 33 38 101l44 109h173l-182 -379v-181z" />
    <glyph glyph-name="ygrave.ss05" horiz-adv-x="556" 
d="M216 614l-89 144l143 41l105 -185h-159zM417 291h63v-149h-116v-142h-171v142h-110v149h57l-130 269h192l45 -109c28 -69 41 -102 40 -101h4c-1 -1 12 33 38 101l44 109h173z" />
    <glyph glyph-name="z" unicode="z" horiz-adv-x="522" 
d="M488 386l-158 -145c-57 -51 -86 -77 -86 -76l2 -5l27 1h217v-161h-458v173l176 159c45 41 67 61 67 62l-2 5h-231v161h446v-174z" />
    <glyph glyph-name="zacute" unicode="&#x17a;" horiz-adv-x="522" 
d="M342 614h-159l105 185l143 -41zM488 386l-158 -145c-57 -51 -86 -77 -86 -76l2 -5l27 1h217v-161h-458v173l176 159c45 41 67 61 67 62l-2 5h-231v161h446v-174z" />
    <glyph glyph-name="zacute.loclPLK" horiz-adv-x="522" 
d="M333 614h-143l61 199l142 -24zM488 386l-158 -145c-57 -51 -86 -77 -86 -76l2 -5l27 1h217v-161h-458v173l176 159c45 41 67 61 67 62l-2 5h-231v161h446v-174z" />
    <glyph glyph-name="zcaron" unicode="&#x17e;" horiz-adv-x="522" 
d="M86 720l80 94l97 -63l98 63l80 -94l-178 -126zM488 386l-158 -145c-57 -51 -86 -77 -86 -76l2 -5l27 1h217v-161h-458v173l176 159c45 41 67 61 67 62l-2 5h-231v161h446v-174z" />
    <glyph glyph-name="zdotaccent" unicode="&#x17c;" horiz-adv-x="522" 
d="M263 620c-23 0 -41 8 -56 23s-22 34 -22 57s7 41 22 56s33 23 56 23c22 0 40 -8 55 -23s22 -33 22 -56s-7 -42 -22 -57s-33 -23 -55 -23zM488 386l-158 -145c-57 -51 -86 -77 -86 -76l2 -5l27 1h217v-161h-458v173l176 159c45 41 67 61 67 62l-2 5h-231v161h446v-174z
" />
    <glyph glyph-name="Iacute.ss03_J.loclNLD" horiz-adv-x="1000" 
d="M334 754h-159l105 185l143 -41zM953 754h-160l106 185l143 -41zM346 168h120v-168h-422v168h120v364h-120v168h422v-168h-120v-364zM960 700v-405c0 -206 -88 -309 -265 -309c-83 0 -144 25 -185 76l114 132c20 -23 43 -35 69 -35c37 0 62 13 73 39c8 19 12 56 12 113
v389h182z" />
    <glyph glyph-name="Iacute.ss03_J.ss04.loclNLD" horiz-adv-x="1000" 
d="M334 754h-159l105 185l143 -41zM849 754h-160l106 185l143 -41zM44 700h422v-168h-120v-364h120v-168h-422v168h120v364h-120v168zM960 700v-405c0 -206 -88 -309 -265 -309c-83 0 -144 25 -185 76l114 132c20 -23 43 -35 69 -35c37 0 62 13 73 39c8 19 12 56 12 113v218
h-210v171h392z" />
    <glyph glyph-name="uni00CD004A.ss04.loclNLD" horiz-adv-x="761" 
d="M214 754h-160l106 185l143 -41zM610 754h-160l106 185l143 -41zM44 700h183v-700h-183v700zM721 700v-405c0 -206 -88 -309 -265 -309c-83 0 -144 25 -185 76l114 132c20 -23 43 -35 69 -35c37 0 62 13 73 39c8 19 12 56 12 113v218h-210v171h392z" />
    <glyph glyph-name="iacute.ss03_j.loclNLD" horiz-adv-x="893" 
d="M302 614h-160l106 185l143 -41zM849 614h-160l106 185l143 -41zM314 158h98v-158h-368v158h98v244h-98v158h368v-158h-98v-244zM853 560v-314c0 -172 -78 -258 -234 -258c-71 0 -126 21 -163 64l103 117c17 -15 37 -22 58 -22c29 0 48 9 57 28c5 13 8 40 8 82v303h171z
" />
    <glyph glyph-name="iacute.ss03_j.ss04.loclNLD" horiz-adv-x="893" 
d="M302 614h-160l106 185l143 -41zM757 614h-159l106 185l143 -41zM44 560h368v-158h-98v-244h98v-158h-368v158h98v244h-98v158zM853 560v-314c0 -172 -78 -258 -234 -258c-71 0 -126 21 -163 64l103 117c17 -15 37 -22 58 -22c29 0 48 9 57 28c5 13 8 40 8 82v142h-162
v161h333z" />
    <glyph glyph-name="uni00ED006A.ss04.loclNLD" horiz-adv-x="697" 
d="M210 614h-159l106 185l143 -41zM561 614h-159l106 185l143 -41zM44 560h172v-560h-172v560zM657 560v-314c0 -172 -78 -258 -234 -258c-71 0 -126 21 -163 64l103 117c17 -15 37 -22 58 -22c29 0 48 9 57 28c5 13 8 40 8 82v142h-162v161h333z" />
    <glyph glyph-name="ordfeminine" unicode="&#xaa;" horiz-adv-x="405" 
d="M141 235h-105l92 325h151l89 -325h-110l-11 46h-95zM202 477h-4c1 0 -5 -22 -16 -67l-11 -48h57l-11 48c-11 45 -16 67 -15 67zM370 174v-111h-335v111h335z" />
    <glyph glyph-name="ordfeminine.case" horiz-adv-x="405" 
d="M141 375h-105l92 325h151l89 -325h-110l-11 46h-95zM202 617h-4c1 0 -5 -22 -16 -67l-11 -48h57l-11 48c-11 45 -16 67 -15 67zM370 314v-111h-335v111h335z" />
    <glyph glyph-name="ordmasculine" unicode="&#xba;" horiz-adv-x="389" 
d="M35 401c0 51 15 93 45 124c29 31 67 46 114 46s86 -15 115 -46c30 -31 45 -73 45 -124s-15 -92 -45 -123c-29 -31 -68 -46 -115 -46s-85 15 -114 46c-30 31 -45 72 -45 123zM142 401c0 -45 17 -68 52 -68s53 23 53 68s-18 68 -53 68s-52 -23 -52 -68zM344 60h-299v112
h299v-112z" />
    <glyph glyph-name="ordmasculine.case" horiz-adv-x="389" 
d="M35 541c0 51 15 93 45 124c29 31 67 46 114 46s86 -15 115 -46c30 -31 45 -73 45 -124s-15 -92 -45 -123c-29 -31 -68 -46 -115 -46s-85 15 -114 46c-30 31 -45 72 -45 123zM142 541c0 -45 17 -68 52 -68s53 23 53 68s-18 68 -53 68s-52 -23 -52 -68zM344 200h-299v112
h299v-112z" />
    <glyph glyph-name="zero" unicode="0" horiz-adv-x="508" 
d="M254 571c150 0 225 -97 225 -291c0 -195 -75 -292 -225 -292c-149 0 -224 97 -224 292c0 194 75 291 224 291zM254 413c-21 0 -34 -9 -41 -27c-7 -19 -11 -54 -11 -106c0 -53 4 -88 11 -106s20 -27 41 -27c20 0 34 9 41 27c8 19 12 55 12 106s-4 87 -12 106
c-7 18 -21 27 -41 27z" />
    <glyph glyph-name="one" unicode="1" horiz-adv-x="390" 
d="M161 0v237c0 30 1 72 4 127h-4l-11 -13c-8 -9 -15 -16 -21 -21l-15 -12l-98 124l151 118h166v-560h-172z" />
    <glyph glyph-name="two" unicode="2" horiz-adv-x="485" 
d="M41 0v193l165 111c49 35 73 63 73 85c0 23 -14 35 -43 35c-25 0 -41 -13 -47 -39l-160 43c23 95 95 143 218 143c137 0 206 -57 206 -171c0 -77 -45 -141 -136 -192l-88 -51l1 -5c26 2 52 3 79 3h146v-155h-414z" />
    <glyph glyph-name="three" unicode="3" horiz-adv-x="492" 
d="M357 291v-4c27 -2 51 -13 71 -33c23 -24 34 -57 34 -98c0 -51 -18 -92 -54 -122c-37 -31 -89 -46 -156 -46c-124 0 -198 52 -222 157l151 43c9 -34 29 -51 62 -51c35 0 53 14 53 43s-17 44 -52 44h-56v124h51c33 0 50 14 50 42c0 26 -16 39 -47 39s-48 -14 -51 -42
l-154 41c23 95 97 143 220 143c133 0 200 -50 200 -149c0 -42 -13 -75 -38 -100c-19 -19 -40 -29 -62 -31z" />
    <glyph glyph-name="four" unicode="4" horiz-adv-x="534" 
d="M433 0h-172v111h-231v152l138 297h265v-301h70v-148h-70v-111zM261 259l1 174h-6l-71 -170l3 -4h73z" />
    <glyph glyph-name="five" unicode="5" horiz-adv-x="481" 
d="M203 341l5 -2c14 9 37 13 70 13c54 0 96 -15 127 -44s46 -71 46 -124c0 -61 -18 -108 -55 -143s-89 -53 -156 -53c-60 0 -109 14 -148 43c-33 25 -54 58 -63 97l148 38c9 -22 27 -33 56 -33c37 0 55 17 55 52c0 36 -19 54 -56 54c-19 0 -35 -7 -48 -20l-142 38l56 303
h322v-155h-203z" />
    <glyph glyph-name="six" unicode="6" horiz-adv-x="489" 
d="M240 345l4 -4c13 10 33 15 59 15c45 0 84 -16 115 -47c32 -33 48 -74 48 -124c0 -62 -21 -111 -62 -146c-39 -34 -92 -51 -159 -51c-65 0 -117 16 -156 48c-43 36 -65 89 -65 159c0 71 32 151 97 239l92 126h179zM248 136c37 0 56 18 56 53c0 37 -19 55 -56 55
s-55 -18 -55 -55c0 -35 18 -53 55 -53z" />
    <glyph glyph-name="seven" unicode="7" horiz-adv-x="482" 
d="M464 427l-222 -427h-175l126 239c56 109 84 161 84 156l-3 4h-245v161h435v-133z" />
    <glyph glyph-name="eight" unicode="8" horiz-adv-x="491" 
d="M30 154c0 73 32 120 96 142v4c-17 5 -33 17 -47 34c-19 23 -28 52 -28 86c0 45 17 81 52 108c35 29 83 43 142 43s107 -14 142 -43c35 -27 52 -63 52 -108c0 -63 -25 -103 -75 -120v-4c65 -24 97 -71 97 -142c0 -49 -17 -88 -52 -117c-38 -33 -92 -49 -162 -49
c-69 0 -123 16 -162 47c-37 30 -55 70 -55 119zM199 409c0 -29 15 -43 46 -43s46 14 46 43s-15 43 -46 43s-46 -14 -46 -43zM193 169c0 -33 17 -50 52 -50s52 17 52 50c0 34 -17 51 -52 51s-52 -17 -52 -51z" />
    <glyph glyph-name="nine" unicode="9" horiz-adv-x="490" 
d="M252 210l-4 3c-13 -7 -33 -10 -58 -10c-49 0 -89 16 -119 49c-30 31 -45 72 -45 123c0 61 21 110 64 145c40 34 92 51 156 51c63 0 115 -16 154 -48c44 -36 66 -88 66 -157c0 -74 -35 -157 -104 -249l-98 -117h-186zM242 424c-36 0 -54 -17 -54 -52c0 -37 18 -55 55 -55
c36 0 54 18 54 54c0 35 -18 53 -55 53z" />
    <glyph glyph-name="zero.slsh.dnom" horiz-adv-x="323" 
d="M162 395c95 0 142 -67 142 -201c0 -133 -47 -200 -142 -200s-143 67 -143 200c0 134 48 201 143 201zM162 284c-10 0 -17 -5 -20 -16s-5 -36 -5 -74v-2l43 82c-4 7 -10 11 -18 10zM162 104c10 0 17 5 20 15c3 11 4 34 4 70l-41 -77c3 -5 9 -8 17 -8z" />
    <glyph glyph-name="zero.lf" horiz-adv-x="594" 
d="M297 714c178 0 267 -121 267 -364s-89 -364 -267 -364s-267 121 -267 364s89 364 267 364zM297 541c-32 0 -54 -14 -66 -43c-11 -27 -17 -77 -17 -148c0 -72 6 -122 17 -149c12 -28 34 -42 66 -42c31 0 53 14 65 42c11 27 17 77 17 149c0 71 -6 121 -17 148
c-12 29 -34 43 -65 43z" />
    <glyph glyph-name="one.lf" horiz-adv-x="475" 
d="M200 0v295c0 128 1 192 4 192h-4c3 0 -9 -10 -36 -30l-28 -23l-102 123l173 143h175v-700h-182z" />
    <glyph glyph-name="two.lf" horiz-adv-x="567" 
d="M45 0v212l186 146c51 40 78 62 83 67c19 19 29 41 29 65c0 43 -24 64 -72 64c-43 0 -66 -25 -71 -75l-167 45c16 127 99 190 249 190c165 0 248 -70 248 -210c0 -59 -17 -111 -52 -155c-25 -31 -67 -67 -126 -107l-101 -70l1 -4c18 2 47 3 88 3h191v-171h-486z" />
    <glyph glyph-name="three.lf" horiz-adv-x="567" 
d="M411 366v-4c36 -4 65 -18 87 -43c27 -29 40 -70 40 -122c0 -67 -21 -118 -64 -155s-104 -56 -183 -56c-147 0 -234 65 -261 196l167 47c11 -49 37 -74 80 -74c50 0 75 22 75 66c0 45 -24 67 -71 67h-61v148h55c47 0 71 22 71 67c0 37 -22 56 -65 56
c-47 0 -73 -27 -78 -80l-167 45c21 127 104 190 248 190c80 0 142 -17 185 -52c41 -33 62 -78 62 -136c0 -49 -15 -90 -45 -121c-25 -25 -50 -38 -75 -39z" />
    <glyph glyph-name="four.lf" horiz-adv-x="596" 
d="M493 0h-183v141h-275v163l176 396h282v-395h80v-164h-80v-141zM310 305l1 242h-6l-103 -238l4 -5z" />
    <glyph glyph-name="five.lf" horiz-adv-x="566" 
d="M230 438l5 -2c21 12 49 18 84 18c64 0 115 -20 153 -61s57 -96 57 -166c0 -73 -22 -131 -65 -174c-44 -45 -105 -67 -183 -67c-68 0 -124 17 -169 51c-41 32 -68 74 -79 126l169 45c9 -37 34 -56 74 -56c49 0 73 27 73 82c0 54 -25 81 -75 81c-30 0 -52 -12 -67 -36
l-158 43l66 378h393v-171h-261z" />
    <glyph glyph-name="six.lf" horiz-adv-x="575" 
d="M275 433l4 -3c19 11 43 17 74 17c55 0 101 -20 138 -59c39 -41 58 -93 58 -156c0 -77 -24 -138 -73 -182c-47 -43 -109 -64 -187 -64c-77 0 -138 20 -183 61c-51 45 -76 110 -76 195c0 88 37 184 111 289l115 169h199zM293 153c50 0 75 27 75 82s-25 83 -75 83
s-75 -28 -75 -83s25 -82 75 -82z" />
    <glyph glyph-name="seven.lf" horiz-adv-x="556" 
d="M543 551l-270 -551h-194l161 337c64 135 96 199 96 190l-3 4l-88 -2h-192v171h490v-149z" />
    <glyph glyph-name="eight.lf" horiz-adv-x="568" 
d="M30 192c0 93 39 153 118 179v4c-22 7 -41 21 -58 43c-23 29 -35 66 -35 109c0 54 20 98 61 133c42 36 98 54 168 54s126 -18 168 -53c40 -35 60 -79 60 -134c0 -43 -11 -80 -34 -109c-17 -22 -37 -36 -58 -43v-4c79 -28 118 -88 118 -179c0 -61 -20 -109 -61 -146
c-45 -41 -109 -61 -191 -61c-81 0 -144 20 -190 59c-44 37 -66 87 -66 148zM220 514c0 -43 21 -65 64 -65s64 22 64 65c0 44 -21 66 -64 66s-64 -22 -64 -66zM211 209c0 -51 24 -77 73 -77s73 26 73 77s-24 76 -73 76s-73 -25 -73 -76z" />
    <glyph glyph-name="nine.lf" horiz-adv-x="573" 
d="M298 262l-4 3c-26 -9 -50 -13 -71 -13c-59 0 -107 20 -143 61c-36 40 -54 92 -54 156c0 76 25 136 75 181c47 43 109 64 184 64s135 -20 181 -60c51 -45 77 -110 77 -195c0 -91 -41 -194 -123 -308l-119 -151h-207zM281 548c-50 0 -75 -27 -75 -81c0 -55 25 -82 75 -82
s75 27 75 82c0 54 -25 81 -75 81z" />
    <glyph glyph-name="zero.slsh.lf" horiz-adv-x="594" 
d="M297 714c178 0 267 -121 267 -364s-89 -364 -267 -364s-267 121 -267 364s89 364 267 364zM297 541c-32 0 -54 -14 -66 -43c-11 -27 -17 -77 -17 -148c0 -19 1 -42 2 -67l126 243c-11 10 -26 15 -45 15zM297 159c31 0 53 14 65 42c11 27 17 77 17 149c0 33 -1 57 -2 70
l-128 -246c12 -10 28 -15 48 -15z" />
    <glyph glyph-name="zero.slsh.numr" horiz-adv-x="323" 
d="M162 708c95 0 142 -67 142 -201c0 -133 -47 -200 -142 -200s-143 67 -143 200c0 134 48 201 143 201zM162 597c-10 0 -17 -5 -20 -16s-5 -36 -5 -74v-2l43 82c-4 7 -10 11 -18 10zM162 417c10 0 17 5 20 15c3 11 4 34 4 70l-41 -77c3 -5 9 -8 17 -8z" />
    <glyph glyph-name="zero.slsh" horiz-adv-x="508" 
d="M254 571c150 0 225 -97 225 -291c0 -195 -75 -292 -225 -292c-149 0 -224 97 -224 292c0 194 75 291 224 291zM254 413c-21 0 -35 -9 -42 -27c-7 -19 -11 -54 -11 -106l1 -24l76 151c-6 4 -14 6 -24 6zM254 147c20 0 34 9 41 27c8 19 12 55 12 106v24l-77 -152
c6 -3 14 -5 24 -5z" />
    <glyph glyph-name="zero.tf.slsh" 
d="M312 714c178 0 267 -121 267 -364s-89 -364 -267 -364s-267 121 -267 364s89 364 267 364zM312 541c-32 0 -54 -14 -66 -43c-11 -27 -17 -77 -17 -148c0 -29 1 -54 3 -75l129 248c-12 12 -28 18 -49 18zM312 159c31 0 53 14 65 42c11 27 17 77 17 149c0 29 0 50 -1 62
l-125 -240c11 -9 25 -13 44 -13z" />
    <glyph glyph-name="zero.sups" horiz-adv-x="323" 
d="M162 469c-95 0 -143 67 -143 200c0 134 48 201 143 201s142 -67 142 -201c0 -133 -47 -200 -142 -200zM162 579c11 0 17 5 20 16c3 10 4 35 4 74s-1 64 -4 75s-9 16 -20 16c-10 0 -17 -5 -20 -16s-5 -36 -5 -75c0 -38 2 -63 5 -74s10 -16 20 -16z" />
    <glyph glyph-name="four.sups" horiz-adv-x="323" 
d="M270 477h-108v72h-151v99l89 214h170v-210h41v-103h-41v-72zM162 652v61c0 33 1 55 2 64h-7l-20 -59c-13 -40 -21 -61 -22 -62l4 -4h43z" />
    <glyph glyph-name="five.sups" horiz-adv-x="323" 
d="M122 705l5 -2c14 10 34 15 61 15c33 0 60 -10 81 -29c22 -21 33 -51 33 -90s-11 -70 -34 -93c-24 -24 -58 -36 -103 -36c-43 0 -78 12 -105 35c-22 18 -35 40 -39 67l99 26c5 -23 18 -34 39 -34c24 0 36 13 36 38c0 24 -12 36 -36 36c-16 0 -26 -5 -31 -16l-101 27
l39 213h215v-102h-144z" />
    <glyph glyph-name="six.sups" horiz-adv-x="323" 
d="M154 700l5 -3c11 11 29 16 54 16s46 -9 64 -26c22 -21 33 -50 33 -87c0 -41 -13 -74 -40 -97c-25 -22 -59 -33 -101 -33c-43 0 -78 11 -104 34c-30 25 -45 62 -45 111c0 48 17 97 51 148l68 99h126zM168 563c25 0 37 13 37 38c0 26 -12 39 -37 39s-37 -13 -37 -39
c0 -25 12 -38 37 -38z" />
    <glyph glyph-name="seven.sups" horiz-adv-x="323" 
d="M300 752l-135 -275h-118l89 186c29 59 45 90 48 93l-3 5c-5 -1 -21 -1 -48 -1h-99v102h266v-110z" />
    <glyph glyph-name="eight.sups" horiz-adv-x="323" 
d="M18 583c0 51 21 83 64 97v4c-32 11 -48 38 -48 81c0 70 43 105 128 105s127 -35 127 -104c0 -42 -16 -69 -48 -82v-4c43 -15 64 -47 64 -97c0 -75 -48 -113 -144 -113c-95 0 -143 38 -143 113zM129 758c0 -20 11 -30 32 -30c22 0 33 10 33 30c0 21 -11 31 -33 31
c-21 0 -32 -10 -32 -31zM125 593c0 -24 12 -36 36 -36c25 0 37 12 37 36s-12 36 -37 36c-24 0 -36 -12 -36 -36z" />
    <glyph glyph-name="nine.sups" horiz-adv-x="323" 
d="M169 633l-4 3c-30 -10 -46 -15 -48 -15c-33 0 -58 11 -76 33c-18 21 -27 48 -27 83c0 43 14 76 42 100c26 22 60 33 103 33c41 0 74 -11 99 -32c29 -25 44 -62 44 -111c0 -54 -22 -112 -66 -173l-57 -76h-125zM153 774c-24 0 -36 -12 -36 -37s12 -37 37 -37
c24 0 36 12 36 36c0 25 -12 38 -37 38z" />
    <glyph glyph-name="zero.slsh.sups" horiz-adv-x="323" 
d="M162 870c95 0 142 -67 142 -201c0 -133 -47 -200 -142 -200s-143 67 -143 200c0 134 48 201 143 201zM162 759c-10 0 -17 -5 -20 -16s-5 -36 -5 -74v-2l43 82c-4 7 -10 11 -18 10zM162 579c10 0 17 5 20 15c3 11 4 34 4 70l-41 -77c3 -5 9 -8 17 -8z" />
    <glyph glyph-name="zero.tf" 
d="M312 714c178 0 267 -121 267 -364s-89 -364 -267 -364s-267 121 -267 364s89 364 267 364zM312 541c-32 0 -54 -14 -66 -43c-11 -27 -17 -77 -17 -148c0 -72 6 -122 17 -149c12 -28 34 -42 66 -42c31 0 53 14 65 42c11 27 17 77 17 149c0 71 -6 121 -17 148
c-12 29 -34 43 -65 43z" />
    <glyph glyph-name="one.tf" 
d="M567 0h-462v171h140v181c0 103 1 154 4 154h-4c4 0 -21 -19 -75 -58l-33 -24l-94 129l190 147h195v-529h139v-171z" />
    <glyph glyph-name="two.tf" 
d="M75 0v212l186 146c51 40 78 62 83 67c19 19 29 41 29 65c0 43 -24 64 -71 64c-42 0 -66 -25 -72 -75l-166 45c16 127 99 190 249 190c165 0 247 -70 247 -210c0 -59 -17 -111 -52 -155c-25 -31 -67 -67 -126 -107l-101 -70l2 -4c18 2 47 3 87 3h191v-171h-486z" />
    <glyph glyph-name="three.tf" 
d="M430 366v-4c85 -9 127 -64 127 -165c0 -67 -21 -118 -64 -155s-104 -56 -183 -56c-147 0 -234 65 -261 196l168 47c10 -49 37 -74 80 -74c50 0 75 22 75 66c0 45 -24 67 -72 67h-61v148h56c47 0 71 22 71 67c0 37 -22 56 -66 56c-47 0 -73 -27 -77 -80l-167 45
c21 127 103 190 247 190c80 0 142 -17 185 -52c42 -33 63 -78 63 -136c0 -49 -15 -90 -45 -121c-25 -25 -50 -38 -76 -39z" />
    <glyph glyph-name="four.tf" 
d="M490 0h-183v141h-275v163l176 396h282v-395h80v-164h-80v-141zM307 305l1 242h-6l-103 -238l3 -5z" />
    <glyph glyph-name="five.tf" 
d="M255 438l5 -2c21 12 49 18 84 18c64 0 115 -20 153 -61s57 -96 57 -166c0 -73 -22 -131 -65 -174c-44 -45 -105 -67 -183 -67c-68 0 -124 17 -169 51c-41 32 -68 74 -79 126l169 45c9 -37 34 -56 74 -56c49 0 73 27 73 82c0 54 -25 81 -75 81c-30 0 -52 -12 -67 -36
l-158 43l66 378h393v-171h-261z" />
    <glyph glyph-name="six.tf" 
d="M291 433l4 -3c20 11 45 17 74 17c55 0 101 -20 138 -59c39 -41 58 -93 58 -156c0 -77 -24 -138 -72 -182c-47 -43 -110 -64 -187 -64s-139 20 -184 61c-51 45 -76 110 -76 195c0 89 37 185 112 289l114 169h200zM309 153c50 0 75 27 75 82s-25 83 -75 83s-75 -28 -75 -83
s25 -82 75 -82z" />
    <glyph glyph-name="seven.tf" 
d="M568 551l-272 -551h-194l163 337c65 135 98 200 98 196l-3 5l-297 -1v163h505v-149z" />
    <glyph glyph-name="eight.tf" 
d="M48 192c0 93 39 153 118 179v4c-22 7 -41 21 -58 43c-23 29 -35 66 -35 109c0 54 20 98 61 133c42 36 98 54 168 54s126 -18 168 -53c40 -35 60 -79 60 -134c0 -43 -11 -80 -34 -109c-17 -22 -37 -36 -58 -43v-4c79 -28 118 -88 118 -179c0 -61 -20 -109 -61 -146
c-45 -41 -109 -61 -191 -61c-81 0 -144 20 -190 59c-44 37 -66 87 -66 148zM238 514c0 -43 21 -65 64 -65s64 22 64 65c0 44 -21 66 -64 66s-64 -22 -64 -66zM229 209c0 -51 24 -77 73 -77s73 26 73 77s-24 76 -73 76s-73 -25 -73 -76z" />
    <glyph glyph-name="nine.tf" 
d="M331 262l-4 3c-26 -9 -50 -13 -71 -13c-59 0 -107 20 -143 61c-36 40 -54 92 -54 156c0 76 25 136 75 181c47 43 109 64 184 64s135 -20 181 -60c51 -45 77 -110 77 -195c0 -91 -41 -194 -123 -308l-119 -151h-207zM314 548c-50 0 -75 -27 -75 -81c0 -55 25 -82 75 -82
s75 27 75 82c0 54 -25 81 -75 81z" />
    <glyph glyph-name="zero.tosf" 
d="M312 571c149 0 224 -97 224 -291c0 -195 -75 -292 -224 -292c-150 0 -225 97 -225 292c0 194 75 291 225 291zM312 413c-21 0 -35 -9 -42 -27c-7 -19 -11 -54 -11 -106s4 -87 11 -106c7 -18 21 -27 42 -27c20 0 34 9 41 27c8 19 12 55 12 106s-4 87 -12 106
c-7 18 -21 27 -41 27z" />
    <glyph glyph-name="one.tosf" 
d="M545 0h-417v161h124v76c0 44 2 91 5 141h-4c2 0 -8 -10 -31 -31l-41 -35l-93 111l170 137h165v-399h122v-161z" />
    <glyph glyph-name="two.tosf" 
d="M124 0v193l164 111c49 35 74 64 74 85c0 23 -14 35 -43 35c-25 0 -41 -13 -47 -39l-160 43c23 95 95 143 218 143c137 0 206 -57 206 -171c0 -77 -45 -141 -136 -192l-89 -51l2 -5c24 2 50 3 79 3h145v-155h-413z" />
    <glyph glyph-name="three.tosf" 
d="M420 291v-4c27 -2 51 -13 71 -33c23 -24 34 -57 34 -98c0 -51 -18 -92 -54 -122c-37 -31 -89 -46 -156 -46c-124 0 -198 52 -222 157l151 43c9 -34 29 -51 61 -51c36 0 54 14 54 43s-17 44 -52 44h-56v124h50c33 0 50 14 50 42c0 26 -15 39 -46 39c-30 0 -47 -14 -52 -42
l-153 41c23 95 96 143 220 143c133 0 200 -50 200 -149c0 -42 -13 -75 -38 -100c-19 -19 -40 -29 -62 -31z" />
    <glyph glyph-name="four.tosf" 
d="M497 0h-171v111h-231v152l138 297h264v-301h71v-148h-71v-111zM326 259v174h-6l-70 -170l3 -4h73z" />
    <glyph glyph-name="five.tosf" 
d="M272 341l5 -2c14 9 37 13 70 13c54 0 96 -15 127 -44s46 -71 46 -124c0 -61 -18 -108 -55 -143s-89 -53 -156 -53c-60 0 -109 14 -148 43c-33 25 -54 58 -63 97l148 38c9 -22 27 -33 56 -33c37 0 55 17 55 52c0 36 -19 54 -56 54c-19 0 -35 -7 -48 -20l-142 38l56 303
h322v-155h-203z" />
    <glyph glyph-name="six.tosf" 
d="M304 345l4 -4c13 10 33 15 59 15c45 0 84 -16 115 -47c32 -33 48 -74 48 -124c0 -62 -21 -111 -62 -146c-39 -34 -92 -51 -159 -51c-65 0 -117 16 -156 48c-43 36 -65 89 -65 159c0 71 32 150 96 239l92 126h179zM312 136c37 0 55 18 55 53c0 37 -18 55 -55 55
s-56 -18 -56 -55c0 -35 19 -53 56 -53z" />
    <glyph glyph-name="seven.tosf" 
d="M534 427l-222 -427h-175l126 239c56 107 84 159 84 156l-3 4h-245v161h435v-133z" />
    <glyph glyph-name="eight.tosf" 
d="M96 154c0 73 32 120 96 142v4c-17 5 -33 17 -47 34c-19 23 -28 52 -28 86c0 45 17 81 52 108c35 29 83 43 142 43s107 -14 142 -43c35 -27 52 -63 52 -108c0 -63 -25 -103 -75 -120v-4c65 -24 97 -71 97 -142c0 -49 -17 -88 -52 -117c-38 -33 -92 -49 -162 -49
c-69 0 -123 16 -162 47c-37 30 -55 70 -55 119zM265 409c0 -29 15 -43 46 -43s46 14 46 43s-15 43 -46 43s-46 -14 -46 -43zM259 169c0 -33 17 -50 52 -50s52 17 52 50c0 34 -17 51 -52 51s-52 -17 -52 -51z" />
    <glyph glyph-name="nine.tosf" 
d="M323 210l-4 3c-15 -7 -35 -10 -58 -10c-49 0 -89 16 -119 49c-30 31 -45 72 -45 123c0 61 21 110 64 145c40 34 92 51 156 51c63 0 114 -16 153 -48c44 -36 66 -88 66 -157c0 -75 -34 -158 -103 -249l-98 -117h-186zM313 424c-36 0 -54 -17 -54 -52c0 -37 18 -55 54 -55
c37 0 55 18 55 54c0 35 -18 53 -55 53z" />
    <glyph glyph-name="zero.slsh.tosf" 
d="M312 571c149 0 224 -97 224 -291c0 -195 -75 -292 -224 -292c-150 0 -225 97 -225 292c0 194 75 291 225 291zM312 413c-21 0 -35 -9 -42 -27c-7 -19 -11 -54 -11 -106v-22l76 149c-7 4 -14 6 -23 6zM312 147c20 0 34 9 41 27c8 19 12 55 12 106l-1 22l-76 -150
c6 -3 14 -5 24 -5z" />
    <glyph glyph-name="fraction" unicode="&#x2044;" horiz-adv-x="169" 
d="M242 700l-209 -700h-106l210 700h105z" />
    <glyph glyph-name="uni215F" unicode="&#x215f;" horiz-adv-x="492" 
d="M302 315h-245v103h65v73c0 35 2 62 7 79h-5l-7 -9c-5 -7 -10 -13 -14 -16l-16 -16l-71 73l108 98h113v-282h65v-103zM564 700l-209 -700h-105l209 700h105z" />
    <glyph glyph-name="onehalf" unicode="&#xbd;" horiz-adv-x="814" 
d="M302 315h-245v103h65v73c0 35 2 62 7 79h-5l-7 -9c-5 -7 -10 -13 -14 -16l-16 -16l-71 73l108 98h113v-282h65v-103zM564 700l-209 -700h-105l209 700h105zM520 1v138l107 65c33 20 49 40 49 59s-10 29 -31 29c-20 0 -32 -12 -37 -35l-95 26c17 74 65 111 144 111
c88 0 132 -40 132 -121c0 -43 -20 -80 -59 -111c-56 -42 -84 -60 -84 -55l2 -5c15 1 29 2 43 2h102v-103h-273z" />
    <glyph glyph-name="uni2189" unicode="&#x2189;" horiz-adv-x="794" 
d="M162 307c-95 0 -143 67 -143 200c0 134 48 201 143 201s142 -67 142 -201c0 -133 -47 -200 -142 -200zM544 700l-209 -700h-105l209 700h105zM162 417c11 0 17 5 20 16c3 10 4 35 4 74s-1 64 -4 75s-9 16 -20 16c-10 0 -17 -5 -20 -16s-5 -36 -5 -75c0 -38 2 -63 5 -74
s10 -16 20 -16zM712 199v-4c15 -2 29 -10 42 -25c14 -17 21 -39 21 -65c0 -31 -12 -57 -35 -78c-25 -23 -57 -34 -97 -34c-85 0 -135 36 -151 109l99 29c4 -25 17 -38 39 -38c23 0 35 11 35 34c0 22 -11 33 -34 33h-23v76h18c23 0 35 11 35 34c0 21 -10 31 -31 31
c-22 0 -35 -15 -39 -44l-94 25c9 75 56 112 140 112c87 0 131 -35 131 -106c0 -25 -6 -47 -18 -64c-11 -15 -23 -23 -38 -25z" />
    <glyph glyph-name="onethird" unicode="&#x2153;" horiz-adv-x="814" 
d="M302 315h-245v103h65v73c0 35 2 62 7 79h-5l-7 -9c-5 -7 -10 -13 -14 -16l-16 -16l-71 73l108 98h113v-282h65v-103zM564 700l-209 -700h-105l209 700h105zM732 199v-4c15 -2 29 -10 42 -25c14 -17 21 -39 21 -65c0 -31 -12 -57 -35 -78c-25 -23 -57 -34 -97 -34
c-85 0 -135 36 -151 109l99 29c4 -25 17 -38 39 -38c23 0 35 11 35 34c0 22 -11 33 -34 33h-23v76h18c23 0 35 11 35 34c0 21 -10 31 -31 31c-22 0 -35 -15 -39 -44l-94 25c9 75 56 112 140 112c87 0 131 -35 131 -106c0 -25 -6 -47 -18 -64c-11 -15 -23 -23 -38 -25z" />
    <glyph glyph-name="twothirds" unicode="&#x2154;" horiz-adv-x="814" 
d="M29 315v138l107 65c33 20 49 40 49 59s-10 29 -31 29c-20 0 -32 -12 -37 -35l-96 26c18 74 66 111 145 111c87 0 131 -40 131 -121c0 -44 -19 -81 -58 -111c-54 -39 -82 -57 -84 -55l2 -5c15 1 29 2 42 2h103v-103h-273zM564 700l-209 -700h-105l209 700h105zM732 199v-4
c15 -2 29 -10 42 -25c14 -17 21 -39 21 -65c0 -31 -12 -57 -35 -78c-25 -23 -57 -34 -97 -34c-85 0 -135 36 -151 109l99 29c4 -25 17 -38 39 -38c23 0 35 11 35 34c0 22 -11 33 -34 33h-23v76h18c23 0 35 11 35 34c0 21 -10 31 -31 31c-22 0 -35 -15 -39 -44l-94 25
c9 75 56 112 140 112c87 0 131 -35 131 -106c0 -25 -6 -47 -18 -64c-11 -15 -23 -23 -38 -25z" />
    <glyph glyph-name="onequarter" unicode="&#xbc;" horiz-adv-x="814" 
d="M302 315h-245v103h65v73c0 35 2 62 7 79h-5l-7 -9c-5 -7 -10 -13 -14 -16l-16 -16l-71 73l108 98h113v-282h65v-103zM564 700l-209 -700h-105l209 700h105zM761 1h-108v72h-151v99l89 214h170v-210h41v-103h-41v-72zM653 176v61c0 33 1 55 2 64h-6c-1 0 -8 -20 -21 -59
l-21 -62l4 -4h42z" />
    <glyph glyph-name="threequarters" unicode="&#xbe;" horiz-adv-x="814" 
d="M240 513v-4c15 -2 29 -10 42 -25c15 -17 22 -39 22 -65c0 -31 -12 -57 -35 -78c-25 -23 -58 -34 -98 -34c-85 0 -135 36 -151 109l99 29c5 -25 18 -38 39 -38c24 0 36 11 36 34c0 22 -12 33 -35 33h-23v76h19c23 0 34 11 34 34c0 21 -10 31 -31 31c-22 0 -35 -15 -38 -44
l-95 25c11 75 58 112 141 112c87 0 130 -35 130 -106c0 -25 -6 -47 -18 -64c-11 -15 -23 -23 -38 -25zM564 700l-209 -700h-105l209 700h105zM761 1h-108v72h-151v99l89 214h170v-210h41v-103h-41v-72zM653 176v61c0 33 1 55 2 64h-6c-1 0 -8 -20 -21 -59l-21 -62l4 -4h42z
" />
    <glyph glyph-name="uni2155" unicode="&#x2155;" horiz-adv-x="814" 
d="M302 315h-245v103h65v73c0 35 2 62 7 79h-5l-7 -9c-5 -7 -10 -13 -14 -16l-16 -16l-71 73l108 98h113v-282h65v-103zM564 700l-209 -700h-105l209 700h105zM614 229l5 -2c14 10 34 15 61 15c33 0 60 -10 80 -29c22 -21 33 -51 33 -90s-11 -71 -34 -94
c-24 -24 -58 -36 -103 -36c-43 0 -78 12 -105 35c-22 19 -35 42 -38 68l98 26c5 -23 18 -34 40 -34c23 0 35 13 35 38c0 24 -12 36 -36 36c-15 0 -25 -5 -31 -16l-101 27l40 213h214v-102h-144z" />
    <glyph glyph-name="uni2156" unicode="&#x2156;" horiz-adv-x="814" 
d="M29 315v138l107 65c33 20 49 40 49 59s-10 29 -31 29c-20 0 -32 -12 -37 -35l-96 26c18 74 66 111 145 111c87 0 131 -40 131 -121c0 -44 -19 -81 -58 -111c-54 -39 -82 -57 -84 -55l2 -5c15 1 29 2 42 2h103v-103h-273zM564 700l-209 -700h-105l209 700h105zM614 229
l5 -2c14 10 34 15 61 15c33 0 60 -10 80 -29c22 -21 33 -51 33 -90s-11 -71 -34 -94c-24 -24 -58 -36 -103 -36c-43 0 -78 12 -105 35c-22 19 -35 42 -38 68l98 26c5 -23 18 -34 40 -34c23 0 35 13 35 38c0 24 -12 36 -36 36c-15 0 -25 -5 -31 -16l-101 27l40 213h214v-102
h-144z" />
    <glyph glyph-name="uni2157" unicode="&#x2157;" horiz-adv-x="814" 
d="M240 513v-4c15 -2 29 -10 42 -25c15 -17 22 -39 22 -65c0 -31 -12 -57 -35 -78c-25 -23 -58 -34 -98 -34c-85 0 -135 36 -151 109l99 29c5 -25 18 -38 39 -38c24 0 36 11 36 34c0 22 -12 33 -35 33h-23v76h19c23 0 34 11 34 34c0 21 -10 31 -31 31c-22 0 -35 -15 -38 -44
l-95 25c11 75 58 112 141 112c87 0 130 -35 130 -106c0 -25 -6 -47 -18 -64c-11 -15 -23 -23 -38 -25zM564 700l-209 -700h-105l209 700h105zM614 229l5 -2c14 10 34 15 61 15c33 0 60 -10 80 -29c22 -21 33 -51 33 -90s-11 -71 -34 -94c-24 -24 -58 -36 -103 -36
c-43 0 -78 12 -105 35c-22 19 -35 42 -38 68l98 26c5 -23 18 -34 40 -34c23 0 35 13 35 38c0 24 -12 36 -36 36c-15 0 -25 -5 -31 -16l-101 27l40 213h214v-102h-144z" />
    <glyph glyph-name="uni2158" unicode="&#x2158;" horiz-adv-x="814" 
d="M270 315h-108v72h-151v99l89 214h170v-210h41v-103h-41v-72zM564 700l-209 -700h-105l209 700h105zM162 490v61c0 33 1 55 2 64h-7l-20 -59c-13 -40 -21 -61 -22 -62l4 -4h43zM614 229l5 -2c14 10 34 15 61 15c33 0 60 -10 80 -29c22 -21 33 -51 33 -90s-11 -71 -34 -94
c-24 -24 -58 -36 -103 -36c-43 0 -78 12 -105 35c-22 19 -35 42 -38 68l98 26c5 -23 18 -34 40 -34c23 0 35 13 35 38c0 24 -12 36 -36 36c-15 0 -25 -5 -31 -16l-101 27l40 213h214v-102h-144z" />
    <glyph glyph-name="uni2159" unicode="&#x2159;" horiz-adv-x="814" 
d="M302 315h-245v103h65v73c0 35 2 62 7 79h-5l-7 -9c-5 -7 -10 -13 -14 -16l-16 -16l-71 73l108 98h113v-282h65v-103zM564 700l-209 -700h-105l209 700h105zM646 224l5 -3c5 11 23 16 54 16c25 0 46 -9 64 -26c22 -21 33 -50 33 -87c0 -41 -13 -74 -40 -97
c-25 -23 -59 -34 -101 -34c-43 0 -78 11 -105 34c-30 25 -45 63 -45 112c0 47 17 96 52 148l68 99h126zM660 87c25 0 37 13 37 38c0 26 -12 39 -37 39s-37 -13 -37 -39c0 -25 12 -38 37 -38z" />
    <glyph glyph-name="uni215A" unicode="&#x215a;" horiz-adv-x="814" 
d="M122 543l5 -2c14 10 34 15 61 15c33 0 60 -10 81 -29c22 -21 33 -51 33 -90s-11 -70 -34 -93c-24 -24 -58 -36 -103 -36c-43 0 -78 12 -105 35c-22 18 -35 40 -39 67l99 26c5 -23 18 -34 39 -34c24 0 36 13 36 38c0 24 -12 36 -36 36c-16 0 -26 -5 -31 -16l-101 27
l39 213h215v-102h-144zM564 700l-209 -700h-105l209 700h105zM646 224l5 -3c5 11 23 16 54 16c25 0 46 -9 64 -26c22 -21 33 -50 33 -87c0 -41 -13 -74 -40 -97c-25 -23 -59 -34 -101 -34c-43 0 -78 11 -105 34c-30 25 -45 63 -45 112c0 47 17 96 52 148l68 99h126zM660 87
c25 0 37 13 37 38c0 26 -12 39 -37 39s-37 -13 -37 -39c0 -25 12 -38 37 -38z" />
    <glyph glyph-name="uni2150" unicode="&#x2150;" horiz-adv-x="814" 
d="M302 315h-245v103h65v73c0 35 2 62 7 79h-5l-7 -9c-5 -7 -10 -13 -14 -16l-16 -16l-71 73l108 98h113v-282h65v-103zM564 700l-209 -700h-105l209 700h105zM792 276l-136 -275h-118l90 186c9 21 20 42 32 64l15 29l-3 5c-4 -1 -20 -1 -47 -1h-100v102h267v-110z" />
    <glyph glyph-name="oneeighth" unicode="&#x215b;" horiz-adv-x="814" 
d="M302 315h-245v103h65v73c0 35 2 62 7 79h-5l-7 -9c-5 -7 -10 -13 -14 -16l-16 -16l-71 73l108 98h113v-282h65v-103zM564 700l-209 -700h-105l209 700h105zM509 107c0 51 22 83 65 97v4c-33 11 -49 38 -49 81c0 33 12 59 35 78c23 18 54 27 93 27s70 -9 93 -27
s35 -44 35 -77c0 -42 -16 -69 -49 -82v-4c43 -14 64 -46 64 -97c0 -76 -48 -114 -143 -114c-96 0 -144 38 -144 114zM620 282c0 -20 11 -30 33 -30c21 0 32 10 32 30c0 21 -11 31 -32 31c-22 0 -33 -10 -33 -31zM616 117c0 -24 12 -36 37 -36s37 12 37 36s-12 36 -37 36
s-37 -12 -37 -36z" />
    <glyph glyph-name="threeeighths" unicode="&#x215c;" horiz-adv-x="814" 
d="M240 513v-4c15 -2 29 -10 42 -25c15 -17 22 -39 22 -65c0 -31 -12 -57 -35 -78c-25 -23 -58 -34 -98 -34c-85 0 -135 36 -151 109l99 29c5 -25 18 -38 39 -38c24 0 36 11 36 34c0 22 -12 33 -35 33h-23v76h19c23 0 34 11 34 34c0 21 -10 31 -31 31c-22 0 -35 -15 -38 -44
l-95 25c11 75 58 112 141 112c87 0 130 -35 130 -106c0 -25 -6 -47 -18 -64c-11 -15 -23 -23 -38 -25zM564 700l-209 -700h-105l209 700h105zM509 107c0 51 22 83 65 97v4c-33 11 -49 38 -49 81c0 33 12 59 35 78c23 18 54 27 93 27s70 -9 93 -27s35 -44 35 -77
c0 -42 -16 -69 -49 -82v-4c43 -14 64 -46 64 -97c0 -76 -48 -114 -143 -114c-96 0 -144 38 -144 114zM620 282c0 -20 11 -30 33 -30c21 0 32 10 32 30c0 21 -11 31 -32 31c-22 0 -33 -10 -33 -31zM616 117c0 -24 12 -36 37 -36s37 12 37 36s-12 36 -37 36s-37 -12 -37 -36z
" />
    <glyph glyph-name="fiveeighths" unicode="&#x215d;" horiz-adv-x="814" 
d="M122 543l5 -2c14 10 34 15 61 15c33 0 60 -10 81 -29c22 -21 33 -51 33 -90s-11 -70 -34 -93c-24 -24 -58 -36 -103 -36c-43 0 -78 12 -105 35c-22 18 -35 40 -39 67l99 26c5 -23 18 -34 39 -34c24 0 36 13 36 38c0 24 -12 36 -36 36c-16 0 -26 -5 -31 -16l-101 27
l39 213h215v-102h-144zM564 700l-209 -700h-105l209 700h105zM509 107c0 51 22 83 65 97v4c-33 11 -49 38 -49 81c0 33 12 59 35 78c23 18 54 27 93 27s70 -9 93 -27s35 -44 35 -77c0 -42 -16 -69 -49 -82v-4c43 -14 64 -46 64 -97c0 -76 -48 -114 -143 -114
c-96 0 -144 38 -144 114zM620 282c0 -20 11 -30 33 -30c21 0 32 10 32 30c0 21 -11 31 -32 31c-22 0 -33 -10 -33 -31zM616 117c0 -24 12 -36 37 -36s37 12 37 36s-12 36 -37 36s-37 -12 -37 -36z" />
    <glyph glyph-name="seveneighths" unicode="&#x215e;" horiz-adv-x="814" 
d="M300 590l-135 -275h-118l89 186c29 59 45 90 48 93l-3 5c-5 -1 -21 -1 -48 -1h-99v102h266v-110zM564 700l-209 -700h-105l209 700h105zM509 107c0 51 22 83 65 97v4c-33 11 -49 38 -49 81c0 33 12 59 35 78c23 18 54 27 93 27s70 -9 93 -27s35 -44 35 -77
c0 -42 -16 -69 -49 -82v-4c43 -14 64 -46 64 -97c0 -76 -48 -114 -143 -114c-96 0 -144 38 -144 114zM620 282c0 -20 11 -30 33 -30c21 0 32 10 32 30c0 21 -11 31 -32 31c-22 0 -33 -10 -33 -31zM616 117c0 -24 12 -36 37 -36s37 12 37 36s-12 36 -37 36s-37 -12 -37 -36z
" />
    <glyph glyph-name="uni2151" unicode="&#x2151;" horiz-adv-x="814" 
d="M302 315h-245v103h65v73c0 35 2 62 7 79h-5l-7 -9c-5 -7 -10 -13 -14 -16l-16 -16l-71 73l108 98h113v-282h65v-103zM564 700l-209 -700h-105l209 700h105zM661 157l-4 3c4 1 0 -1 -13 -8c-9 -5 -21 -7 -36 -7c-32 0 -57 11 -76 33c-18 21 -27 48 -27 83
c0 43 14 76 42 100c26 22 60 33 103 33c41 0 74 -11 99 -32c30 -25 45 -62 45 -111c0 -55 -22 -112 -67 -173l-56 -76h-126zM644 298c-23 0 -35 -12 -35 -37s12 -37 36 -37c25 0 37 12 37 36c0 25 -13 38 -38 38z" />
    <glyph glyph-name="uni2152" unicode="&#x2152;" horiz-adv-x="1137" 
d="M302 315h-245v103h65v73c0 35 2 62 7 79h-5l-7 -9c-5 -7 -10 -13 -14 -16l-16 -16l-71 73l108 98h113v-282h65v-103zM564 700l-209 -700h-105l209 700h105zM976 -7c-95 0 -143 67 -143 200c0 134 48 201 143 201s142 -67 142 -201c0 -133 -47 -200 -142 -200zM794 1h-246
v103h66v73c0 35 2 62 7 79h-5c4 0 -3 -8 -22 -25l-15 -16l-72 73l108 98h113v-282h66v-103zM976 103c11 0 17 5 20 16c3 10 4 35 4 74s-1 64 -4 75s-9 16 -20 16c-10 0 -17 -5 -20 -16s-5 -36 -5 -75c0 -38 2 -63 5 -74s10 -16 20 -16z" />
    <glyph glyph-name="zero.dnom" horiz-adv-x="323" 
d="M162 -7c-95 0 -143 67 -143 200c0 134 48 201 143 201s142 -67 142 -201c0 -133 -47 -200 -142 -200zM162 103c11 0 17 5 20 16c3 10 4 35 4 74s-1 64 -4 75s-9 16 -20 16c-10 0 -17 -5 -20 -16s-5 -36 -5 -75c0 -38 2 -63 5 -74s10 -16 20 -16z" />
    <glyph glyph-name="one.dnom" horiz-adv-x="323" 
d="M302 1h-245v103h65v73c0 35 2 62 7 79h-5l-7 -9c-5 -7 -10 -13 -14 -16l-16 -16l-71 73l108 98h113v-282h65v-103z" />
    <glyph glyph-name="two.dnom" horiz-adv-x="323" 
d="M29 1v138l107 65c33 20 49 40 49 59s-10 29 -31 29c-20 0 -32 -12 -37 -35l-96 26c18 74 66 111 145 111c87 0 131 -40 131 -121c0 -44 -19 -81 -58 -111c-54 -39 -82 -57 -84 -55l2 -5c15 1 29 2 42 2h103v-103h-273z" />
    <glyph glyph-name="three.dnom" horiz-adv-x="323" 
d="M240 199v-4c15 -2 29 -10 42 -25c15 -17 22 -39 22 -65c0 -31 -12 -57 -35 -78c-25 -23 -58 -34 -98 -34c-85 0 -135 36 -151 109l99 29c5 -25 18 -38 39 -38c24 0 36 11 36 34c0 22 -12 33 -35 33h-23v76h19c23 0 34 11 34 34c0 21 -10 31 -31 31c-22 0 -35 -15 -38 -44
l-95 25c11 75 58 112 141 112c87 0 130 -35 130 -106c0 -25 -6 -47 -18 -64c-11 -15 -23 -23 -38 -25z" />
    <glyph glyph-name="four.dnom" horiz-adv-x="323" 
d="M270 1h-108v72h-151v99l89 214h170v-210h41v-103h-41v-72zM162 176v61c0 33 1 55 2 64h-7l-20 -59c-13 -40 -21 -61 -22 -62l4 -4h43z" />
    <glyph glyph-name="five.dnom" horiz-adv-x="323" 
d="M122 229l5 -2c14 10 34 15 61 15c33 0 60 -10 81 -29c22 -21 33 -51 33 -90s-11 -71 -34 -94c-24 -24 -58 -36 -103 -36c-43 0 -78 12 -105 35c-22 19 -35 41 -39 68l99 26c5 -23 18 -34 39 -34c24 0 36 13 36 38c0 24 -12 36 -36 36c-16 0 -26 -5 -31 -16l-101 27
l39 213h215v-102h-144z" />
    <glyph glyph-name="six.dnom" horiz-adv-x="323" 
d="M154 224l5 -3c11 11 29 16 54 16s46 -9 64 -26c22 -21 33 -50 33 -87c0 -41 -13 -74 -40 -97c-25 -23 -59 -34 -101 -34c-43 0 -78 11 -104 34c-30 25 -45 63 -45 112c0 48 17 97 51 148l68 99h126zM168 87c25 0 37 13 37 38c0 26 -12 39 -37 39s-37 -13 -37 -39
c0 -25 12 -38 37 -38z" />
    <glyph glyph-name="seven.dnom" horiz-adv-x="323" 
d="M300 276l-135 -275h-118l89 186c29 59 45 90 48 93l-3 5c-5 -1 -21 -1 -48 -1h-99v102h266v-110z" />
    <glyph glyph-name="eight.dnom" horiz-adv-x="323" 
d="M18 107c0 51 21 83 64 97v4c-32 11 -48 38 -48 81c0 70 43 105 128 105s127 -35 127 -104c0 -42 -16 -69 -48 -82v-4c43 -15 64 -47 64 -97c0 -76 -48 -114 -144 -114c-95 0 -143 38 -143 114zM129 282c0 -20 11 -30 32 -30c22 0 33 10 33 30c0 21 -11 31 -33 31
c-21 0 -32 -10 -32 -31zM125 117c0 -24 12 -36 36 -36c25 0 37 12 37 36s-12 36 -37 36c-24 0 -36 -12 -36 -36z" />
    <glyph glyph-name="nine.dnom" horiz-adv-x="323" 
d="M169 157l-4 3c-30 -10 -46 -15 -48 -15c-33 0 -58 11 -76 33c-18 21 -27 48 -27 83c0 43 14 76 42 100c26 22 60 33 103 33c41 0 74 -11 99 -32c29 -25 44 -62 44 -111c0 -54 -22 -112 -66 -173l-57 -76h-125zM153 298c-24 0 -36 -12 -36 -37s12 -37 37 -37
c24 0 36 12 36 36c0 25 -12 38 -37 38z" />
    <glyph glyph-name="zero.numr" horiz-adv-x="323" 
d="M162 307c-95 0 -143 67 -143 200c0 134 48 201 143 201s142 -67 142 -201c0 -133 -47 -200 -142 -200zM162 417c11 0 17 5 20 16c3 10 4 35 4 74s-1 64 -4 75s-9 16 -20 16c-10 0 -17 -5 -20 -16s-5 -36 -5 -75c0 -38 2 -63 5 -74s10 -16 20 -16z" />
    <glyph glyph-name="one.numr" horiz-adv-x="323" 
d="M302 315h-245v103h65v73c0 35 2 62 7 79h-5l-7 -9c-5 -7 -10 -13 -14 -16l-16 -16l-71 73l108 98h113v-282h65v-103z" />
    <glyph glyph-name="two.numr" horiz-adv-x="323" 
d="M29 315v138l107 65c33 20 49 40 49 59s-10 29 -31 29c-20 0 -32 -12 -37 -35l-96 26c18 74 66 111 145 111c87 0 131 -40 131 -121c0 -44 -19 -81 -58 -111c-54 -39 -82 -57 -84 -55l2 -5c15 1 29 2 42 2h103v-103h-273z" />
    <glyph glyph-name="three.numr" horiz-adv-x="323" 
d="M240 513v-4c15 -2 29 -10 42 -25c15 -17 22 -39 22 -65c0 -31 -12 -57 -35 -78c-25 -23 -58 -34 -98 -34c-85 0 -135 36 -151 109l99 29c5 -25 18 -38 39 -38c24 0 36 11 36 34c0 22 -12 33 -35 33h-23v76h19c23 0 34 11 34 34c0 21 -10 31 -31 31c-22 0 -35 -15 -38 -44
l-95 25c11 75 58 112 141 112c87 0 130 -35 130 -106c0 -25 -6 -47 -18 -64c-11 -15 -23 -23 -38 -25z" />
    <glyph glyph-name="four.numr" horiz-adv-x="323" 
d="M270 315h-108v72h-151v99l89 214h170v-210h41v-103h-41v-72zM162 490v61c0 33 1 55 2 64h-7l-20 -59c-13 -40 -21 -61 -22 -62l4 -4h43z" />
    <glyph glyph-name="five.numr" horiz-adv-x="323" 
d="M122 543l5 -2c14 10 34 15 61 15c33 0 60 -10 81 -29c22 -21 33 -51 33 -90s-11 -70 -34 -93c-24 -24 -58 -36 -103 -36c-43 0 -78 12 -105 35c-22 18 -35 40 -39 67l99 26c5 -23 18 -34 39 -34c24 0 36 13 36 38c0 24 -12 36 -36 36c-16 0 -26 -5 -31 -16l-101 27
l39 213h215v-102h-144z" />
    <glyph glyph-name="six.numr" horiz-adv-x="323" 
d="M154 538l5 -3c11 11 29 16 54 16s46 -9 64 -26c22 -21 33 -50 33 -87c0 -41 -13 -74 -40 -97c-25 -22 -59 -33 -101 -33c-43 0 -78 11 -104 34c-30 25 -45 62 -45 111c0 48 17 97 51 148l68 99h126zM168 401c25 0 37 13 37 38c0 26 -12 39 -37 39s-37 -13 -37 -39
c0 -25 12 -38 37 -38z" />
    <glyph glyph-name="seven.numr" horiz-adv-x="323" 
d="M300 590l-135 -275h-118l89 186c29 59 45 90 48 93l-3 5c-5 -1 -21 -1 -48 -1h-99v102h266v-110z" />
    <glyph glyph-name="eight.numr" horiz-adv-x="323" 
d="M18 421c0 51 21 83 64 97v4c-32 11 -48 38 -48 81c0 70 43 105 128 105s127 -35 127 -104c0 -42 -16 -69 -48 -82v-4c43 -15 64 -47 64 -97c0 -75 -48 -113 -144 -113c-95 0 -143 38 -143 113zM129 596c0 -20 11 -30 32 -30c22 0 33 10 33 30c0 21 -11 31 -33 31
c-21 0 -32 -10 -32 -31zM125 431c0 -24 12 -36 36 -36c25 0 37 12 37 36s-12 36 -37 36c-24 0 -36 -12 -36 -36z" />
    <glyph glyph-name="nine.numr" horiz-adv-x="323" 
d="M169 471l-4 3c-30 -10 -46 -15 -48 -15c-33 0 -58 11 -76 33c-18 21 -27 48 -27 83c0 43 14 76 42 100c26 22 60 33 103 33c41 0 74 -11 99 -32c29 -25 44 -62 44 -111c0 -54 -22 -112 -66 -173l-57 -76h-125zM153 612c-24 0 -36 -12 -36 -37s12 -37 37 -37
c24 0 36 12 36 36c0 25 -12 38 -37 38z" />
    <glyph glyph-name="uni00B9" unicode="&#xb9;" horiz-adv-x="323" 
d="M302 477h-245v103h65v73c0 35 2 62 7 79h-5l-7 -9c-5 -7 -10 -13 -14 -16l-16 -16l-71 73l108 98h113v-282h65v-103z" />
    <glyph glyph-name="uni00B2" unicode="&#xb2;" horiz-adv-x="323" 
d="M29 477v138l107 65c33 20 49 40 49 59s-10 29 -31 29c-20 0 -32 -12 -37 -35l-96 26c18 74 66 111 145 111c87 0 131 -40 131 -121c0 -44 -19 -81 -58 -111c-54 -39 -82 -57 -84 -55l2 -5c15 1 29 2 42 2h103v-103h-273z" />
    <glyph glyph-name="uni00B3" unicode="&#xb3;" horiz-adv-x="323" 
d="M240 675v-4c15 -2 29 -10 42 -25c15 -17 22 -39 22 -65c0 -31 -12 -57 -35 -78c-25 -23 -58 -34 -98 -34c-85 0 -135 36 -151 109l99 29c5 -25 18 -38 39 -38c24 0 36 11 36 34c0 22 -12 33 -35 33h-23v76h19c23 0 34 11 34 34c0 21 -10 31 -31 31c-22 0 -35 -15 -38 -44
l-95 25c11 75 58 112 141 112c87 0 130 -35 130 -106c0 -25 -6 -47 -18 -64c-11 -15 -23 -23 -38 -25z" />
    <glyph glyph-name="braceleft" unicode="{" horiz-adv-x="464" 
d="M287 500v-49c0 -54 -14 -97 -42 -128c-19 -21 -36 -32 -51 -33c14 -1 31 -13 51 -35c28 -33 42 -75 42 -126v-49c0 -54 14 -92 43 -114c21 -15 53 -23 94 -24v-159c-95 1 -170 27 -225 79c-52 49 -78 112 -78 191v69c0 49 -26 79 -77 88v160c51 9 77 39 77 88v69
c0 78 26 141 78 190c55 52 130 78 225 79v-160c-42 -1 -73 -9 -94 -24c-29 -21 -43 -59 -43 -112z" />
    <glyph glyph-name="braceright" unicode="}" horiz-adv-x="464" 
d="M177 80v48c0 54 14 97 43 128c19 21 35 32 50 33c-15 3 -31 15 -50 36c-29 33 -43 74 -43 125v50c0 91 -46 137 -137 138v159c95 -1 170 -27 225 -79c52 -49 78 -113 78 -191v-69c0 -54 26 -83 77 -88v-161c-51 -9 -77 -39 -77 -88v-69c0 -78 -26 -141 -78 -190
c-55 -52 -130 -78 -225 -79v160c42 1 73 9 94 24c29 21 43 59 43 113z" />
    <glyph glyph-name="bracketleft" unicode="[" horiz-adv-x="439" 
d="M402 -50v-163h-311v1007h311v-162h-138v-682h138z" />
    <glyph glyph-name="bracketright" unicode="]" horiz-adv-x="439" 
d="M37 635v163h311v-1007h-311v162h138v682h-138z" />
    <glyph glyph-name="braceleft.case" horiz-adv-x="468" 
d="M293 559v-47c0 -53 -14 -96 -42 -127c-19 -21 -36 -33 -51 -34c14 -1 31 -14 51 -37c28 -33 42 -74 42 -124v-45c0 -55 15 -92 44 -113c20 -15 50 -22 91 -22v-166c-99 0 -176 26 -232 77c-52 47 -78 110 -78 188v73c0 50 -25 79 -74 86v166c49 7 74 36 74 86v73
c0 77 26 140 78 188c56 51 133 77 232 77v-166c-41 0 -71 -7 -91 -22c-29 -21 -44 -58 -44 -111z" />
    <glyph glyph-name="braceright.case" horiz-adv-x="468" 
d="M175 143v46c0 53 14 96 42 127c20 23 37 34 51 34c-15 3 -32 15 -51 38c-28 33 -42 74 -42 123v45c0 55 -14 93 -43 114c-21 15 -51 22 -92 22v166c99 0 176 -26 232 -77c52 -48 78 -111 78 -188v-74c0 -49 25 -78 74 -86v-166c-49 0 -74 -29 -74 -86v-72
c0 -78 -26 -141 -78 -188c-56 -51 -133 -77 -232 -77v166c41 0 71 7 92 22c29 20 43 57 43 111z" />
    <glyph glyph-name="bracketleft.case" horiz-adv-x="439" 
d="M402 18v-172h-311v1007h311v-171h-129v-664h129z" />
    <glyph glyph-name="bracketright.case" horiz-adv-x="439" 
d="M37 682v172h311v-1007h-311v171h129v664h-129z" />
    <glyph glyph-name="parenleft.case" horiz-adv-x="418" 
d="M344 862l47 -176c-107 -32 -160 -143 -160 -332s53 -299 160 -330l-47 -178c-77 26 -138 64 -182 115c-77 89 -115 220 -115 393c0 274 99 443 297 508z" />
    <glyph glyph-name="parenright.case" horiz-adv-x="418" 
d="M74 -147l-47 177c107 31 160 142 160 331c0 190 -53 300 -160 330l47 178c77 -26 138 -64 182 -115c77 -89 115 -220 115 -393c0 -274 -99 -443 -297 -508z" />
    <glyph glyph-name="parenleft" unicode="(" horiz-adv-x="416" 
d="M344 786l45 -167c-111 -31 -166 -142 -166 -335c0 -192 55 -304 166 -336l-45 -167c-79 25 -141 63 -186 116c-74 87 -111 216 -111 387c0 275 99 442 297 502z" />
    <glyph glyph-name="parenright" unicode=")" horiz-adv-x="416" 
d="M72 -218l-45 167c111 32 167 144 167 335c0 193 -56 305 -167 336l45 167c198 -59 297 -227 297 -503c0 -275 -99 -442 -297 -502z" />
    <glyph glyph-name="emdash.case" horiz-adv-x="885" 
d="M832 286h-756v151h756v-151z" />
    <glyph glyph-name="endash.case" 
d="M559 285h-495v151h495v-151z" />
    <glyph glyph-name="hyphen.case" horiz-adv-x="496" 
d="M454 286h-390v150h390v-150z" />
    <glyph glyph-name="softhyphen.case" horiz-adv-x="518" 
d="M454 286h-390v150h390v-150z" />
    <glyph glyph-name="emdash" unicode="&#x2014;" horiz-adv-x="885" 
d="M821 204h-757v151h757v-151z" />
    <glyph glyph-name="endash" unicode="&#x2013;" 
d="M559 204h-495v151h495v-151z" />
    <glyph glyph-name="hyphen" unicode="-" horiz-adv-x="518" 
d="M454 205h-390v149h390v-149z" />
    <glyph glyph-name="uni00AD" unicode="&#xad;" horiz-adv-x="518" 
d="M454 205h-390v149h390v-149z" />
    <glyph glyph-name="guillemotleft.case" horiz-adv-x="728" 
d="M275 585l105 -97l-129 -134v-4l130 -135l-106 -97l-215 234zM563 585l105 -97l-129 -134v-4l129 -135l-106 -97l-214 234z" />
    <glyph glyph-name="guillemotright.case" horiz-adv-x="728" 
d="M166 118l-106 97l130 135v4l-129 134l105 97l215 -233zM454 118l-106 97l129 135v4l-129 134l105 97l215 -233z" />
    <glyph glyph-name="guilsinglleft.case" horiz-adv-x="441" 
d="M275 585l105 -97l-129 -134v-4l130 -135l-106 -97l-215 234z" />
    <glyph glyph-name="guilsinglright.case" horiz-adv-x="441" 
d="M166 118l-106 97l130 135v4l-129 134l105 97l215 -233z" />
    <glyph glyph-name="guillemotleft" unicode="&#xab;" horiz-adv-x="728" 
d="M275 512l105 -96l-129 -135v-4l130 -134l-106 -97l-215 233zM563 512l105 -96l-129 -135v-4l129 -134l-106 -97l-214 233z" />
    <glyph glyph-name="guillemotright" unicode="&#xbb;" horiz-adv-x="728" 
d="M166 46l-106 97l130 134v4l-129 135l105 96l215 -233zM454 46l-106 97l129 134v4l-129 135l105 96l215 -233z" />
    <glyph glyph-name="guilsinglleft" unicode="&#x2039;" horiz-adv-x="441" 
d="M275 512l105 -96l-129 -135v-4l130 -134l-106 -97l-215 233z" />
    <glyph glyph-name="guilsinglright" unicode="&#x203a;" horiz-adv-x="441" 
d="M166 46l-106 97l130 134v4l-129 135l105 96l215 -233z" />
    <glyph glyph-name="quotedblbase" unicode="&#x201e;" horiz-adv-x="529" 
d="M113 17c-40 1 -60 24 -60 69c0 22 8 41 24 56c17 15 37 22 62 22c31 0 55 -10 74 -29c19 -20 29 -47 29 -80c0 -77 -42 -130 -125 -157l-68 75c31 6 52 21 64 44zM351 17c-41 1 -61 24 -61 69c0 22 8 41 24 56c17 15 38 22 63 22c30 0 55 -10 74 -29
c19 -20 29 -47 29 -80c0 -77 -42 -130 -126 -157l-68 75c30 6 52 21 65 44z" />
    <glyph glyph-name="quotedblleft" unicode="&#x201c;" horiz-adv-x="526" 
d="M177 591c41 -1 61 -24 61 -69c0 -22 -8 -40 -24 -55c-17 -15 -38 -23 -63 -23c-30 0 -54 10 -73 29c-19 20 -29 47 -29 80c0 77 42 130 125 157l68 -75c-30 -6 -52 -21 -65 -44zM412 591c41 -2 61 -25 61 -69c0 -22 -8 -41 -24 -56c-17 -15 -38 -23 -63 -23
c-30 0 -55 10 -74 29c-19 20 -29 47 -29 80c0 77 42 129 126 158l68 -75c-30 -7 -52 -21 -65 -44z" />
    <glyph glyph-name="quotedblright" unicode="&#x201d;" horiz-adv-x="526" 
d="M113 565c-40 1 -60 24 -60 69c0 22 8 41 24 56c17 15 37 23 62 23c31 0 55 -10 74 -29c19 -20 29 -47 29 -80c0 -77 -42 -129 -125 -158l-68 75c31 7 53 22 64 44zM348 565c-41 1 -61 24 -61 69c0 22 8 41 24 56c17 15 38 23 63 23c30 0 55 -10 74 -29
c19 -20 29 -47 29 -80c0 -77 -42 -129 -126 -158l-68 75c31 7 52 22 65 44z" />
    <glyph glyph-name="quoteleft" unicode="&#x2018;" horiz-adv-x="292" 
d="M178 591c41 -2 61 -25 61 -69c0 -22 -8 -41 -24 -56c-17 -15 -38 -23 -63 -23c-30 0 -54 10 -73 29c-19 20 -29 47 -29 80c0 77 42 129 125 158l68 -75c-31 -7 -52 -22 -65 -44z" />
    <glyph glyph-name="quoteright" unicode="&#x2019;" horiz-adv-x="292" 
d="M113 564c-40 2 -60 25 -60 70c0 22 8 41 24 56c17 15 37 22 62 22c31 0 55 -10 74 -29c19 -20 29 -47 29 -80c0 -77 -42 -130 -125 -157l-68 75c31 6 52 20 64 43z" />
    <glyph glyph-name="quotesinglbase" unicode="&#x201a;" horiz-adv-x="292" 
d="M113 17c-40 1 -60 24 -60 69c0 22 8 41 24 56c17 15 37 23 62 23c31 0 55 -10 74 -29c19 -20 29 -47 29 -80c0 -78 -42 -131 -125 -158l-68 75c31 6 52 21 64 44z" />
    <glyph glyph-name="asterisk" unicode="*" horiz-adv-x="425" 
d="M299 501l51 -79l-92 -63l-46 78l-46 -78l-93 62l52 80l-81 23l33 108l79 -25v93h111v-93l81 25l32 -108z" />
    <glyph glyph-name="backslash" unicode="\" horiz-adv-x="486" 
d="M476 0h-150l-316 700h145z" />
    <glyph glyph-name="bullet" unicode="&#x2022;" horiz-adv-x="321" 
d="M161 172c-35 0 -63 10 -84 31c-22 21 -33 50 -33 85c0 34 11 61 33 82c21 21 49 31 84 31s63 -10 84 -31s32 -48 32 -82c0 -35 -11 -64 -32 -85s-49 -31 -84 -31z" />
    <glyph glyph-name="bullet.case" horiz-adv-x="348" 
d="M174 225c-39 0 -70 12 -93 35c-25 24 -37 56 -37 95s12 71 37 94c23 23 54 34 93 34s70 -11 94 -34s36 -55 36 -94s-12 -71 -36 -95c-24 -23 -55 -35 -94 -35z" />
    <glyph glyph-name="colon.case" horiz-adv-x="292" 
d="M146 413c-29 0 -52 8 -69 25c-15 16 -23 37 -24 63c0 26 8 47 24 62c17 17 40 25 69 25s51 -8 68 -25c16 -15 24 -36 24 -62s-8 -47 -23 -63c-17 -17 -40 -25 -69 -25zM146 92c-29 0 -52 8 -69 25c-15 16 -23 37 -24 63c0 26 8 47 24 63c17 17 40 25 69 25s51 -8 68 -25
c16 -16 24 -37 24 -63s-8 -47 -23 -63c-17 -17 -40 -25 -69 -25z" />
    <glyph glyph-name="numbersign.case" 
d="M478 285h48l-45 -171h-47l-29 -114h-142l29 114h-79l-29 -114h-142l29 114h-48l44 171h49l31 123h-48l43 171h49l31 121h141l-31 -121h80l31 121h141l-31 -121h48l-45 -171h-47zM283 419l-36 -144h95l36 144h-95z" />
    <glyph glyph-name="periodcentered.case" horiz-adv-x="292" 
d="M146 257c-29 0 -52 8 -69 25c-15 16 -23 37 -24 63c0 26 8 47 24 63c17 17 40 25 69 25s51 -8 68 -25c16 -16 24 -37 24 -63s-8 -47 -23 -63c-17 -17 -40 -25 -69 -25z" />
    <glyph glyph-name="semicolon.case" horiz-adv-x="292" 
d="M146 413c-29 0 -52 8 -69 25c-15 16 -23 37 -24 63c0 26 8 47 24 62c17 17 40 25 69 25s51 -8 68 -25c16 -15 24 -36 24 -62s-8 -47 -23 -63c-17 -17 -40 -25 -69 -25zM113 118c-40 2 -60 25 -60 69c0 23 8 41 24 56c17 15 38 23 63 23c30 0 54 -10 73 -29
c19 -20 29 -47 29 -81c0 -35 -11 -67 -34 -96c-23 -28 -53 -48 -91 -61l-68 75c31 7 52 22 64 44z" />
    <glyph glyph-name="colon" unicode=":" horiz-adv-x="292" 
d="M146 312c-29 0 -52 8 -69 25c-15 16 -23 37 -24 63c0 26 8 47 24 63c17 17 40 25 69 25s51 -8 68 -25c16 -16 24 -37 24 -63s-8 -47 -23 -63c-17 -17 -40 -25 -69 -25zM146 -10c-29 0 -52 8 -69 25c-15 16 -23 37 -24 63c0 26 8 47 24 62c17 17 40 25 69 25s51 -8 68 -24
c16 -16 24 -37 24 -63s-8 -47 -23 -63c-17 -17 -40 -25 -69 -25z" />
    <glyph glyph-name="comma" unicode="," horiz-adv-x="292" 
d="M113 17c-40 1 -60 24 -60 68c0 23 8 42 24 57c17 15 38 23 63 23c30 0 54 -10 73 -29c19 -20 29 -47 29 -81c0 -77 -42 -129 -125 -157l-68 75c31 6 52 21 64 44z" />
    <glyph glyph-name="ellipsis" unicode="&#x2026;" horiz-adv-x="748" 
d="M130 -11c-24 0 -43 7 -56 21c-13 13 -20 30 -20 51c0 48 25 72 76 72c50 0 75 -24 75 -72s-25 -72 -75 -72zM371 -11c-24 0 -43 7 -56 21c-13 13 -20 30 -20 51c0 48 25 72 76 72c50 0 75 -24 75 -72s-25 -72 -75 -72zM618 -11c-24 0 -43 7 -56 21c-13 13 -20 30 -20 51
c0 48 25 72 76 72c50 0 75 -24 75 -72s-25 -72 -75 -72z" />
    <glyph glyph-name="exclam" unicode="!" horiz-adv-x="363" 
d="M273 700v-489h-183v489h183zM181 -10c-29 0 -51 8 -68 25c-16 16 -24 37 -24 63s8 47 24 62c16 17 39 25 68 25c61 0 92 -29 92 -87c0 -26 -8 -47 -23 -63c-17 -17 -40 -25 -69 -25z" />
    <glyph glyph-name="exclamdown" unicode="&#xa1;" horiz-adv-x="363" 
d="M181 710c29 0 52 -8 69 -25c16 -16 24 -37 24 -63s-8 -47 -24 -62c-17 -17 -40 -25 -69 -25s-51 8 -68 25c-15 15 -23 36 -23 62s8 47 23 63c16 17 39 25 68 25zM90 0v489h183v-489h-183z" />
    <glyph glyph-name="numbersign" unicode="#" 
d="M475 226h58l-43 -161h-56l-17 -65h-133l17 65h-89l-16 -65h-133l17 65h-57l42 161h56l27 108h-57l42 161h56l17 65h132l-16 -65h88l17 65h133l-17 -65h58l-43 -161h-56zM275 343l-32 -126h104l33 126h-105z" />
    <glyph glyph-name="period" unicode="." horiz-adv-x="292" 
d="M146 -10c-29 0 -52 8 -69 25c-15 16 -23 37 -24 63c0 26 8 47 24 62c17 17 40 25 69 25s51 -8 68 -24c16 -16 24 -37 24 -63s-8 -47 -23 -63c-17 -17 -40 -25 -69 -25z" />
    <glyph glyph-name="middot" unicode="&#xb7;" horiz-adv-x="292" 
d="M146 197c-29 0 -52 8 -69 25c-15 16 -23 37 -24 63c0 26 8 47 24 63c17 17 40 25 69 25s51 -8 68 -25c16 -16 24 -37 24 -63s-8 -47 -23 -63c-17 -17 -40 -25 -69 -25z" />
    <glyph glyph-name="question" unicode="?" horiz-adv-x="540" 
d="M172 211v166c61 19 104 37 127 54c23 16 34 35 34 57c0 35 -20 53 -59 53c-37 0 -63 -20 -78 -61l-173 47c33 125 119 187 257 187c73 0 132 -20 175 -59c42 -37 63 -86 63 -146c0 -100 -55 -171 -164 -213v-85h-182zM263 -10c-29 0 -52 8 -68 25c-16 16 -24 37 -24 63
s8 47 24 62c16 17 39 25 68 25c61 0 92 -29 92 -87c0 -26 -8 -47 -23 -63c-17 -17 -40 -25 -69 -25z" />
    <glyph glyph-name="questiondown" unicode="&#xbf;" horiz-adv-x="540" 
d="M277 710c29 0 52 -8 69 -25c16 -16 24 -37 24 -63s-8 -47 -24 -62c-17 -17 -40 -25 -69 -25s-51 8 -68 25c-15 15 -23 36 -23 62s8 47 23 63c16 17 39 25 68 25zM369 489v-166c-61 -19 -104 -37 -127 -54c-23 -16 -34 -35 -34 -57c0 -35 20 -53 59 -53c36 0 62 20 77 61
l174 -46c-33 -125 -119 -188 -258 -188c-73 0 -132 20 -175 59c-41 37 -62 86 -62 147c0 101 54 171 163 212v85h183z" />
    <glyph glyph-name="quotedbl" unicode="&#x22;" horiz-adv-x="499" 
d="M220 700l-10 -252h-151l-10 252h171zM450 700l-10 -252h-152l-10 252h172z" />
    <glyph glyph-name="quotesingle" unicode="'" horiz-adv-x="269" 
d="M220 700l-10 -252h-151l-10 252h171z" />
    <glyph glyph-name="semicolon" unicode=";" horiz-adv-x="292" 
d="M146 312c-29 0 -52 8 -69 25c-15 16 -23 37 -24 63c0 26 8 47 24 63c17 17 40 25 69 25s51 -8 68 -25c16 -16 24 -37 24 -63s-8 -47 -23 -63c-17 -17 -40 -25 -69 -25zM113 18c-40 1 -60 24 -60 68c0 23 8 42 24 57c17 15 38 23 63 23c30 0 54 -10 73 -29
c19 -20 29 -47 29 -81c0 -77 -42 -129 -125 -157l-68 75c31 6 52 21 64 44z" />
    <glyph glyph-name="slash" unicode="/" horiz-adv-x="486" 
d="M476 700l-316 -700h-150l321 700h145z" />
    <glyph glyph-name="underscore" unicode="_" horiz-adv-x="698" 
d="M654 -149h-610v149h610v-149z" />
    <glyph glyph-name="space.dnom" horiz-adv-x="116" 
 />
    <glyph glyph-name="uni2003" unicode="&#x2003;" horiz-adv-x="598" 
 />
    <glyph glyph-name="uni2002" unicode="&#x2002;" horiz-adv-x="318" 
 />
    <glyph glyph-name="uni2007" unicode="&#x2007;" 
 />
    <glyph glyph-name="uni200A" unicode="&#x200a;" horiz-adv-x="38" 
 />
    <glyph glyph-name="space.numr" horiz-adv-x="116" 
 />
    <glyph glyph-name="uni2008" unicode="&#x2008;" horiz-adv-x="292" 
 />
    <glyph glyph-name="nonmarkingreturn" unicode=" " horiz-adv-x="228" 
 />
    <glyph glyph-name="space.sups" horiz-adv-x="116" 
 />
    <glyph glyph-name="uni2009" unicode="&#x2009;" horiz-adv-x="114" 
 />
    <glyph glyph-name="uni200B" unicode="&#x200b;" horiz-adv-x="0" 
 />
    <glyph glyph-name="cent" unicode="&#xa2;" horiz-adv-x="523" 
d="M272 161c35 0 59 19 74 57l156 -43c-27 -84 -81 -138 -162 -161v-90h-141v91c-53 15 -94 44 -125 89c-34 48 -51 109 -51 183c0 147 59 234 176 261v103h142v-103c86 -19 140 -73 163 -161l-154 -43c-14 42 -39 63 -76 63c-55 0 -83 -40 -83 -121c0 -83 27 -125 81 -125z
" />
    <glyph glyph-name="currency" unicode="&#xa4;" horiz-adv-x="614" 
d="M591 498l-64 -68c22 -43 33 -92 33 -149c0 -59 -13 -111 -38 -156l62 -65l-89 -86l-60 62c-38 -23 -81 -34 -130 -34c-47 0 -90 11 -127 33l-59 -61l-89 86l61 64c-25 47 -38 99 -38 157c0 56 11 106 34 150l-64 67l89 87l61 -63c39 23 83 35 132 35s94 -12 135 -35
l61 63zM306 399c-60 0 -90 -40 -90 -119s30 -119 90 -119c61 0 91 40 91 119s-30 119 -91 119z" />
    <glyph glyph-name="dollar" unicode="$" horiz-adv-x="472" 
d="M450 165c0 -96 -50 -153 -150 -171v-82h-122v82c-89 16 -141 65 -156 148l155 42c7 -41 28 -61 64 -61c27 0 41 11 41 33c0 17 -10 31 -31 40c8 -4 -17 4 -76 25c-97 33 -145 92 -145 179c0 94 47 149 141 166v81h123v-81c83 -16 133 -62 150 -138l-148 -40
c-5 33 -26 49 -62 49c-29 0 -43 -11 -43 -32c0 -14 7 -25 22 -33c10 -6 33 -15 70 -27c53 -18 91 -37 114 -56c35 -30 53 -71 53 -124z" />
    <glyph glyph-name="Euro" unicode="&#x20ac;" horiz-adv-x="540" 
d="M291 140c31 0 52 16 61 49l167 -44c-28 -105 -103 -157 -226 -157c-127 0 -203 62 -229 185h-41v90h30v34h-30v90h38c23 123 100 184 231 184s207 -59 229 -176l-166 -45c-9 47 -30 70 -64 70c-27 0 -45 -11 -53 -33h61v-90h-72v-34h72v-90h-59c9 -21 26 -32 51 -33z" />
    <glyph glyph-name="cent.lf" horiz-adv-x="523" 
d="M272 223c34 0 59 19 74 57l156 -43c-28 -84 -82 -137 -162 -160v-90h-141v90c-53 15 -94 44 -125 89c-34 49 -51 110 -51 184c0 146 59 233 176 261v102h142v-102c85 -19 140 -73 163 -162l-154 -43c-15 43 -40 64 -76 64c-55 0 -83 -40 -83 -121c0 -84 27 -126 81 -126z
" />
    <glyph glyph-name="currency.lf" horiz-adv-x="614" 
d="M591 556l-64 -68c22 -43 33 -92 33 -149c0 -59 -13 -111 -38 -156l62 -65l-89 -86l-60 62c-38 -23 -81 -34 -130 -34c-47 0 -90 11 -127 33l-59 -61l-89 86l61 64c-25 47 -38 99 -38 157c0 56 11 106 34 150l-64 67l89 87l61 -63c39 23 83 35 132 35s94 -12 135 -35
l61 63zM306 457c-60 0 -90 -40 -90 -119s30 -119 90 -119c61 0 91 40 91 119s-30 119 -91 119z" />
    <glyph glyph-name="dollar.lf" horiz-adv-x="549" 
d="M330 429c64 -25 109 -50 136 -76c38 -37 57 -87 57 -150c0 -117 -55 -187 -166 -210v-83h-148v83c-101 20 -163 80 -187 181l172 47c10 -48 39 -72 87 -72c39 0 58 15 58 46c0 21 -11 38 -34 49c-5 3 -35 13 -88 31c-53 21 -93 45 -118 70c-40 39 -60 92 -60 159
c0 115 57 183 170 204v92h149v-93c93 -19 149 -78 169 -177l-171 -50c-11 47 -37 71 -79 71c-35 0 -53 -15 -53 -44c0 -19 9 -34 27 -45c7 -4 33 -15 79 -33z" />
    <glyph glyph-name="Euro.lf" horiz-adv-x="611" 
d="M334 155c45 0 75 23 88 68l170 -45c-33 -127 -117 -191 -253 -191c-145 0 -235 72 -270 215h-46v129h30v38h-29v128h42c30 144 119 216 267 216c145 0 232 -69 259 -207l-170 -45c-13 62 -44 93 -92 93c-43 0 -70 -19 -81 -57h114v-128h-125v-38h125v-129h-108
c12 -30 38 -46 79 -47z" />
    <glyph glyph-name="uni20BA.lf" horiz-adv-x="603" 
d="M418 283l167 -45c-11 -68 -38 -123 -81 -165c-50 -49 -117 -73 -200 -73h-208v270l-59 -9v128l59 10v33l-59 -9v128l59 10v139h182v-108l93 15v-129l-93 -15v-33l93 15v-129l-93 -15v-137h20c65 0 105 40 120 119z" />
    <glyph glyph-name="uni20B9.lf" horiz-adv-x="543" 
d="M385 571l-2 -4c5 -9 10 -23 15 -41h113v-129h-108c-9 -84 -50 -142 -121 -174l143 -224l-214 1l-140 236v116h77c37 0 63 15 77 45h-181v129h178c-13 30 -39 45 -77 45h-101v129h467v-129h-126z" />
    <glyph glyph-name="sterling.lf" horiz-adv-x="569" 
d="M538 163v-163h-501v163c37 6 55 31 55 76l-1 28h-56v130h41c-7 54 -11 97 -11 130c0 55 18 100 55 134c39 35 94 53 165 53c145 0 228 -70 249 -209l-166 -44c-9 61 -33 91 -72 91c-41 0 -61 -23 -61 -70c0 -18 3 -46 9 -85h168v-130h-148l2 -25c0 -36 -8 -61 -24 -76
l2 -5l31 2c28 1 62 1 103 1z" />
    <glyph glyph-name="yen.lf" horiz-adv-x="596" 
d="M497 497h61v-128h-113l-15 -38h128v-129h-168v-202h-183v202h-162v129h121l-15 38h-106v128h54l-81 203h200l67 -208c13 -45 19 -72 19 -80h4c-1 -1 5 25 20 80l61 208h190z" />
    <glyph glyph-name="uni20BA" unicode="&#x20ba;" horiz-adv-x="559" 
d="M371 238l161 -44c-9 -53 -31 -98 -68 -133c-43 -41 -100 -61 -171 -61h-200v208l-49 -7v90l49 7v34l-49 -7v90l49 7v138h172v-113l69 11v-90l-69 -11v-34l69 11v-90l-69 -11v-72h22c45 0 73 26 84 77z" />
    <glyph glyph-name="uni20B9" unicode="&#x20b9;" horiz-adv-x="483" 
d="M363 470l-1 -3c5 -9 8 -19 10 -31h79v-90h-74c-8 -82 -50 -134 -127 -156l110 -190h-188l-105 191v121h65c33 0 53 11 62 34h-150v90h151c-7 23 -28 34 -62 34h-89v90h407v-90h-88z" />
    <glyph glyph-name="sterling" unicode="&#xa3;" horiz-adv-x="499" 
d="M234 164l2 -4l27 1h204v-161h-433v161c16 3 27 7 32 12c6 6 9 17 9 32v1h-43v110h31c-7 45 -11 78 -11 98c0 105 66 157 197 157c127 0 200 -58 218 -173l-159 -43c-11 43 -29 65 -52 65c-24 0 -36 -14 -36 -43c0 -13 2 -33 7 -61h132v-110h-115v-3c0 -15 -3 -28 -10 -39
z" />
    <glyph glyph-name="cent.tf" 
d="M320 223c34 0 59 19 74 57l156 -43c-28 -84 -82 -137 -162 -160v-90h-141v90c-53 15 -94 44 -125 89c-34 49 -51 110 -51 184c0 146 59 233 176 261v102h142v-102c85 -19 140 -73 163 -162l-154 -43c-15 43 -40 64 -76 64c-55 0 -83 -40 -83 -121c0 -84 27 -126 81 -126z
" />
    <glyph glyph-name="currency.tf" 
d="M596 556l-65 -68c23 -42 34 -92 34 -149c0 -59 -13 -111 -39 -156l62 -65l-88 -86l-60 62c-39 -23 -83 -34 -130 -34c-49 0 -91 11 -127 33l-59 -61l-90 86l61 64c-25 47 -37 100 -37 157s11 107 33 150l-63 67l89 87l61 -63c39 23 83 35 132 35s94 -12 135 -35l61 63z
M311 457c-27 0 -49 -10 -65 -29c-17 -21 -26 -51 -26 -90c0 -79 30 -119 91 -119c60 0 90 40 90 119s-30 119 -90 119z" />
    <glyph glyph-name="dollar.tf" 
d="M361 429c64 -25 109 -50 136 -76c38 -37 57 -87 57 -150c0 -117 -55 -187 -166 -210v-83h-148v83c-101 20 -163 80 -187 181l172 47c10 -48 39 -72 87 -72c39 0 58 15 58 46c0 21 -11 38 -34 49c-5 3 -35 13 -88 31c-53 21 -93 45 -118 70c-40 39 -60 92 -60 159
c0 115 57 183 170 204v92h149v-93c93 -19 149 -78 169 -177l-171 -50c-11 47 -37 71 -79 71c-35 0 -53 -15 -53 -44c0 -19 9 -34 27 -45c7 -4 33 -15 79 -33z" />
    <glyph glyph-name="Euro.tf" 
d="M331 155c45 0 74 23 87 68l170 -45c-33 -127 -117 -191 -253 -191c-145 0 -235 72 -270 215h-46v129h31v38h-30v128h43c29 144 118 216 267 216c145 0 231 -69 259 -207l-170 -45c-15 62 -46 93 -93 93c-42 0 -69 -19 -80 -57h113v-128h-125v-2c0 -17 0 -29 1 -36h124
v-129h-107c12 -30 38 -46 79 -47z" />
    <glyph glyph-name="uni20BA.tf" 
d="M423 283l167 -45c-11 -68 -38 -123 -81 -165c-50 -49 -117 -73 -200 -73h-208v270l-59 -9v128l59 10v33l-59 -9v128l59 10v139h183v-108l92 15v-129l-92 -15v-33l92 15v-129l-92 -15v-137h19c66 0 106 40 120 119z" />
    <glyph glyph-name="uni20B9.tf" 
d="M425 571l-2 -4c7 -12 12 -26 15 -41h113v-129h-108c-9 -84 -49 -142 -121 -174l144 -224l-215 1l-139 236v116h77c38 0 63 15 76 45h-180v129h177c-13 30 -39 45 -77 45h-100v129h466v-129h-126z" />
    <glyph glyph-name="sterling.tf" 
d="M571 163v-163h-501v163c37 6 55 31 55 76l-1 28h-56v130h41c-7 49 -10 92 -10 130c0 56 18 101 55 134c39 35 93 53 164 53c145 0 228 -70 249 -209l-166 -44c-9 61 -33 91 -72 91c-41 0 -61 -23 -61 -70c0 -18 3 -46 9 -85h168v-130h-148l2 -25c0 -36 -8 -61 -24 -76
l2 -5l32 2c28 1 62 1 103 1z" />
    <glyph glyph-name="yen.tf" 
d="M511 497h61v-128h-113l-15 -38h128v-129h-168v-202h-183v202h-162v129h121l-15 38h-106v128h54l-81 203h200l67 -208c13 -45 19 -72 19 -80h4c-1 -1 5 25 20 80l61 208h190z" />
    <glyph glyph-name="cent.tosf" 
d="M320 161c35 0 59 19 74 57l156 -43c-27 -84 -81 -138 -162 -161v-90h-141v91c-53 15 -94 44 -125 89c-34 48 -51 109 -51 183c0 147 59 234 176 261v103h142v-103c86 -19 140 -73 163 -161l-154 -43c-14 42 -39 63 -76 63c-55 0 -83 -40 -83 -121c0 -83 27 -125 81 -125z
" />
    <glyph glyph-name="currency.tosf" 
d="M596 498l-65 -68c23 -42 34 -92 34 -149c0 -59 -13 -111 -39 -156l62 -65l-88 -86l-60 62c-39 -23 -83 -34 -130 -34c-49 0 -91 11 -127 33l-59 -61l-90 86l61 64c-25 47 -37 100 -37 157s11 107 33 150l-63 67l89 87l61 -63c39 23 83 35 132 35s94 -12 135 -35l61 63z
M311 399c-27 0 -49 -10 -65 -29c-17 -21 -26 -51 -26 -90c0 -79 30 -119 91 -119c60 0 90 40 90 119s-30 119 -90 119z" />
    <glyph glyph-name="dollar.tosf" 
d="M525 165c0 -96 -50 -153 -150 -171v-82h-122v82c-89 16 -141 65 -156 148l155 42c7 -41 28 -61 64 -61c27 0 41 11 41 33c0 17 -10 31 -31 40c8 -4 -17 4 -76 25c-97 33 -145 92 -145 179c0 94 47 149 141 166v81h123v-81c83 -16 133 -62 150 -138l-148 -40
c-5 33 -26 49 -62 49c-29 0 -43 -11 -43 -32c0 -14 7 -25 22 -33c10 -6 33 -15 70 -27c53 -18 91 -37 114 -56c35 -30 53 -71 53 -124z" />
    <glyph glyph-name="Euro.tosf" 
d="M330 140c31 0 52 16 61 49l167 -44c-28 -105 -103 -157 -225 -157c-127 0 -204 62 -230 185h-41v90h31l-1 34h-29v90h37c23 123 100 184 231 184s208 -59 229 -176l-166 -45c-9 47 -30 70 -63 70c-27 0 -45 -11 -54 -33h62v-90h-73v-11c0 -11 0 -18 1 -23h72v-90h-59
c9 -21 25 -32 50 -33z" />
    <glyph glyph-name="uni20BA.tosf" 
d="M430 238l161 -44c-9 -53 -31 -98 -68 -133c-44 -41 -101 -61 -171 -61h-200v208l-49 -7v90l49 7v34l-49 -7v90l49 7v138h171v-113l70 11v-90l-70 -11v-34l70 11v-90l-70 -11v-72h22c43 0 72 26 85 77z" />
    <glyph glyph-name="uni20B9.tosf" 
d="M456 470l-2 -3c4 -6 8 -16 11 -31h78v-90h-74c-7 -82 -49 -134 -127 -156l110 -190h-187l-106 191v121h66c32 0 52 11 61 34h-150v90h151c-7 23 -28 34 -62 34h-88v90h406v-90h-87z" />
    <glyph glyph-name="sterling.tosf" 
d="M308 164l2 -4l27 1h204v-161h-433v161c16 3 27 7 32 12c6 6 9 17 9 32v1h-43v110h31c-7 45 -11 78 -11 98c0 105 66 157 197 157c127 0 200 -58 218 -173l-159 -43c-11 43 -29 65 -52 65c-24 0 -36 -14 -36 -43c0 -13 2 -33 7 -61h132v-110h-115v-3c0 -15 -3 -28 -10 -39
z" />
    <glyph glyph-name="yen.tosf" 
d="M479 387h46v-90h-82l-13 -34h95v-90h-128v-173h-171v173h-125v90h92l-14 34h-78v90h42l-69 173h185l37 -141l16 -69h4c-2 0 3 23 16 69l35 141h181z" />
    <glyph glyph-name="yen" unicode="&#xa5;" horiz-adv-x="509" 
d="M423 387h45v-90h-81l-14 -34h95v-90h-127v-173h-172v173h-124v90h91l-13 34h-78v90h42l-69 173h184l37 -141c6 -22 11 -45 16 -69h4c-1 0 5 23 16 69l36 141h181z" />
    <glyph glyph-name="asciitilde" unicode="~" 
d="M502 367l29 -144c-18 -31 -55 -46 -111 -46c-24 0 -56 6 -97 18c-41 11 -74 17 -98 17c-44 0 -78 -12 -103 -37l-30 143c19 30 57 45 113 45c23 0 55 -6 96 -17c41 -12 73 -18 98 -18c40 0 74 13 103 39z" />
    <glyph glyph-name="asciitilde.case" 
d="M502 447l29 -144c-18 -31 -55 -46 -111 -46c-24 0 -56 6 -97 18c-41 11 -74 17 -98 17c-44 0 -78 -12 -103 -37l-30 143c19 30 57 45 113 45c23 0 55 -6 96 -17c41 -12 73 -18 98 -18c40 0 74 13 103 39z" />
    <glyph glyph-name="divide.case" 
d="M313 475c-29 0 -52 8 -69 25c-16 16 -24 37 -24 63s8 47 24 62c17 17 40 25 69 25s51 -8 68 -25c15 -15 23 -36 23 -62s-8 -47 -23 -63c-16 -17 -39 -25 -68 -25zM507 287h-390v150h390v-150zM313 73c-29 0 -52 8 -69 25c-16 16 -24 37 -24 63s8 47 24 63
c17 17 40 25 69 25s51 -8 68 -25c15 -16 23 -37 23 -63s-8 -47 -23 -63c-16 -17 -39 -25 -68 -25z" />
    <glyph glyph-name="equal.case" 
d="M507 405h-390v149h390v-149zM507 165h-390v149h390v-149z" />
    <glyph glyph-name="greater.case" 
d="M331 355v4l-208 83v163l398 -185v-125l-398 -186v163z" />
    <glyph glyph-name="greaterequal.case" 
d="M356 448v4l-248 52v155l408 -119v-180l-408 -119v156zM516 0h-408v150h408v-150z" />
    <glyph glyph-name="less.case" 
d="M501 109l-399 186v125l399 185v-163l-208 -83v-4l208 -83v-163z" />
    <glyph glyph-name="lessequal.case" 
d="M516 241l-409 119v180l409 119v-155l-248 -52v-4l248 -51v-156zM516 150v-150h-409v150h409z" />
    <glyph glyph-name="minus.case" 
d="M507 286h-390v150h390v-150z" />
    <glyph glyph-name="multiply.case" 
d="M416 357l104 -109l-110 -105l-98 103l-98 -103l-110 105l104 109l-105 109l111 104l98 -102l98 102l111 -104z" />
    <glyph glyph-name="notequal.case" 
d="M403 410l-31 -91h135v-149h-185l-28 -87h-150l29 87h-56v149h107l31 91h-138v149h189l29 85h146l-29 -85h55v-149h-104z" />
    <glyph glyph-name="plus.case" 
d="M506 286h-116v-130h-155v130h-118v150h118l-1 129h155v-129h118z" />
    <glyph glyph-name="plusminus.case" 
d="M507 530v-150h-115v-133h-159v133h-116v150h115v133h159v-133h116zM117 151h390v-150h-390v150z" />
    <glyph glyph-name="divide" unicode="&#xf7;" 
d="M313 387c-29 0 -52 8 -69 25c-16 16 -24 37 -24 63s8 47 24 62c17 17 40 25 69 25s51 -8 68 -25c15 -15 23 -36 23 -62s-8 -47 -23 -63c-16 -17 -39 -25 -68 -25zM507 199h-390v150h390v-150zM313 -15c-29 0 -52 8 -69 25c-16 16 -24 37 -24 63s8 47 24 63
c17 17 40 25 69 25s51 -8 68 -25c15 -16 23 -37 23 -63s-8 -47 -23 -63c-16 -17 -39 -25 -68 -25z" />
    <glyph glyph-name="equal" unicode="=" 
d="M507 326h-390v149h390v-149zM507 86h-390v149h390v-149z" />
    <glyph glyph-name="greater" unicode="&#x3e;" 
d="M331 278v4l-208 83v163l398 -186v-125l-398 -185v162z" />
    <glyph glyph-name="greaterequal" unicode="&#x2265;" 
d="M356 373v4l-248 43v159l408 -114v-180l-408 -114v158zM516 0h-408v150h408v-150z" />
    <glyph glyph-name="less" unicode="&#x3c;" 
d="M501 32l-399 185v125l399 186v-163l-208 -83v-4l208 -84v-162z" />
    <glyph glyph-name="lessequal" unicode="&#x2264;" 
d="M516 171l-409 114v180l409 114v-159l-248 -43v-4l248 -44v-158zM516 150v-150h-409v150h409z" />
    <glyph glyph-name="percent.lf" horiz-adv-x="800" 
d="M175 307c-95 0 -143 67 -143 200c0 134 48 201 143 201s142 -67 142 -201c0 -133 -47 -200 -142 -200zM557 700l-209 -700h-105l209 700h105zM175 417c11 0 17 5 20 16c3 10 4 35 4 74s-1 64 -4 75s-9 16 -20 16c-10 0 -17 -5 -20 -16s-5 -36 -5 -75c0 -38 2 -63 5 -74
s10 -16 20 -16zM627 -7c-96 0 -144 67 -144 200c0 134 48 201 144 201c95 0 142 -67 142 -201c0 -133 -47 -200 -142 -200zM627 103c10 0 16 5 19 16c3 10 4 35 4 74s-1 64 -4 75s-9 16 -19 16c-11 0 -17 -5 -20 -16c-4 -12 -6 -37 -6 -75s2 -63 6 -74c3 -11 9 -16 20 -16z
" />
    <glyph glyph-name="perthousand.lf" horiz-adv-x="1130" 
d="M175 307c-95 0 -143 67 -143 200c0 134 48 201 143 201s142 -67 142 -201c0 -133 -47 -200 -142 -200zM557 700l-209 -700h-105l209 700h105zM175 417c11 0 17 5 20 16c3 10 4 35 4 74s-1 64 -4 75s-9 16 -20 16c-10 0 -17 -5 -20 -16s-5 -36 -5 -75c0 -38 2 -63 5 -74
s10 -16 20 -16zM627 -7c-96 0 -144 67 -144 200c0 134 48 201 144 201c95 0 142 -67 142 -201c0 -133 -47 -200 -142 -200zM957 -7c-96 0 -144 67 -144 200c0 134 48 201 144 201c95 0 142 -67 142 -201c0 -133 -47 -200 -142 -200zM627 103c10 0 16 5 19 16c3 10 4 35 4 74
s-1 64 -4 75s-9 16 -19 16c-11 0 -17 -5 -20 -16c-4 -12 -6 -37 -6 -75s2 -63 6 -74c3 -11 9 -16 20 -16zM957 103c10 0 16 5 19 16c3 10 4 35 4 74s-1 64 -4 75s-9 16 -19 16c-11 0 -17 -5 -20 -16c-4 -12 -6 -37 -6 -75s2 -63 6 -74c3 -11 9 -16 20 -16z" />
    <glyph glyph-name="minus" unicode="&#x2212;" 
d="M507 205h-390v149h390v-149z" />
    <glyph glyph-name="multiply" unicode="&#xd7;" 
d="M416 277l104 -109l-110 -105l-98 103l-98 -103l-110 105l104 109l-105 109l111 104l98 -102l98 102l111 -104z" />
    <glyph glyph-name="notequal" unicode="&#x2260;" 
d="M403 326l-31 -91h135v-149h-185l-28 -87h-150l29 87h-56v149h107l31 91h-138v149h189l29 85h146l-29 -85h55v-149h-104z" />
    <glyph glyph-name="percent" unicode="%" horiz-adv-x="716" 
d="M167 228c-90 0 -135 57 -135 171c0 115 45 172 135 172c91 0 136 -57 136 -172c0 -114 -45 -171 -136 -171zM490 560l-178 -560h-86l177 560h87zM167 328c11 0 19 4 23 12c5 10 8 30 8 59s-3 49 -8 60c-4 8 -12 12 -23 12c-20 0 -30 -24 -30 -72c0 -47 10 -71 30 -71z
M549 -6c-91 0 -136 57 -136 172s45 172 136 172s136 -57 136 -172s-45 -172 -136 -172zM549 95c11 0 19 4 23 12c5 9 8 29 8 59c0 29 -3 49 -8 59c-4 8 -12 12 -23 12s-18 -4 -23 -12c-5 -10 -8 -30 -8 -59s3 -49 8 -59c5 -8 12 -12 23 -12z" />
    <glyph glyph-name="perthousand" unicode="&#x2030;" horiz-adv-x="1003" 
d="M167 228c-90 0 -135 57 -135 171c0 115 45 172 135 172c91 0 136 -57 136 -172c0 -114 -45 -171 -136 -171zM490 560l-178 -560h-86l177 560h87zM167 328c11 0 19 4 23 12c5 10 8 30 8 59s-3 49 -8 60c-4 8 -12 12 -23 12c-20 0 -30 -24 -30 -72c0 -47 10 -71 30 -71z
M549 -6c-91 0 -136 57 -136 172s45 172 136 172s136 -57 136 -172s-45 -172 -136 -172zM837 -6c-91 0 -137 57 -137 172s46 172 137 172c90 0 135 -57 135 -172s-45 -172 -135 -172zM549 95c11 0 19 4 23 12c5 9 8 29 8 59c0 29 -3 49 -8 59c-4 8 -12 12 -23 12
s-18 -4 -23 -12c-5 -10 -8 -30 -8 -59s3 -49 8 -59c5 -8 12 -12 23 -12zM837 95c11 0 18 4 23 12c5 10 8 30 8 59c0 47 -10 71 -31 71c-11 0 -19 -4 -23 -12c-6 -10 -9 -30 -9 -59s3 -49 9 -59c4 -8 12 -12 23 -12z" />
    <glyph glyph-name="plus" unicode="+" 
d="M506 205h-116v-130h-155v130h-118v149h118l-1 130h155v-130h118z" />
    <glyph glyph-name="plusminus" unicode="&#xb1;" 
d="M507 477v-150h-117l1 -108h-156l-1 108h-117v150h117v123h156v-123h117zM117 150h390v-149h-390v149z" />
    <glyph glyph-name="percent.tf" 
d="M147 307c-95 0 -142 67 -142 200c0 134 47 201 142 201c93 0 140 -67 140 -201c0 -133 -47 -200 -140 -200zM504 700l-320 -700h-66l320 700h66zM148 417c11 0 19 6 22 19c3 11 4 34 4 71s-1 61 -4 72c-3 13 -11 19 -22 19s-18 -6 -21 -19c-4 -13 -6 -37 -6 -72
s2 -58 6 -71c3 -13 10 -19 21 -19zM478 -7c-95 0 -142 67 -142 200c0 134 47 201 142 201c94 0 141 -67 141 -201c0 -133 -47 -200 -141 -200zM478 103c11 0 19 6 22 19c3 11 4 34 4 71s-1 61 -4 72c-3 13 -11 19 -22 19s-18 -6 -22 -19c-3 -12 -5 -36 -5 -72
c0 -35 2 -59 5 -71c4 -13 11 -19 22 -19z" />
    <glyph glyph-name="percent.tosf" 
d="M145 227c-45 0 -78 15 -98 45c-18 27 -27 70 -27 127s9 100 27 127c20 30 53 45 98 45c83 0 124 -57 124 -172c0 -57 -9 -100 -27 -127c-20 -30 -52 -45 -97 -45zM433 560l-177 -560h-67l177 560h67zM145 324c9 0 16 5 19 15s4 30 4 60s-1 50 -4 60s-10 15 -19 15
s-16 -5 -19 -15s-4 -30 -4 -60s1 -50 4 -60s10 -15 19 -15zM479 -6c-83 0 -124 57 -124 172c0 57 9 100 27 127c20 30 52 45 97 45s78 -15 97 -45c18 -27 27 -69 27 -127s-9 -100 -27 -127c-19 -30 -52 -45 -97 -45zM479 92c10 0 17 5 20 15c3 9 4 29 4 59s-1 50 -4 60
s-10 15 -20 15c-16 0 -24 -25 -24 -75c0 -49 8 -74 24 -74z" />
    <glyph glyph-name="lozenge" unicode="&#x25ca;" horiz-adv-x="711" 
d="M356 714l345 -364l-345 -364l-346 364zM356 199l143 151l-143 151l-144 -151z" />
    <glyph glyph-name="ampersand" unicode="&#x26;" horiz-adv-x="578" 
d="M486 222v-51c0 -59 -19 -104 -58 -135c-40 -33 -98 -49 -173 -49c-74 0 -130 15 -168 46c-36 29 -54 70 -54 122c0 71 26 114 77 130v2c-20 4 -37 16 -51 35c-17 23 -26 54 -26 92c0 105 70 157 209 157c125 0 205 -47 240 -142l-160 -43c-13 27 -34 41 -64 41
c-31 0 -47 -11 -47 -34c0 -30 19 -45 56 -45h291v-126h-72zM316 222h-58c-35 0 -52 -16 -52 -48c0 -29 17 -44 52 -44c39 0 58 19 58 58v34z" />
    <glyph glyph-name="uniF8FF" unicode="&#xf8ff;" horiz-adv-x="707" 
d="M662 127v-45h-44c-134 1 -209 9 -226 24l-40 33l-38 -33c-17 -16 -93 -24 -227 -24h-43v43c0 135 8 210 23 227l34 39l-34 38c-15 19 -23 94 -23 227v44h43c135 -1 212 -8 229 -23l38 -35l37 33c18 17 94 25 227 25h44v-44c-1 -135 -9 -211 -25 -227l-33 -38l36 -42
c14 -19 21 -93 22 -222zM138 480l79 -89l-79 -89c-2 -14 -4 -58 -7 -132c71 1 115 4 132 7l89 79l90 -79c18 -3 62 -6 133 -7c-2 63 -4 106 -7 130l-81 91l81 89c2 14 4 58 7 133c-65 -1 -109 -4 -132 -7l-91 -81l-88 81c-23 3 -68 6 -133 7c3 -75 5 -120 7 -133zM44 2l4 12
c8 -3 13 -4 14 -4c5 0 7 2 7 5c0 2 -3 4 -9 6c-10 3 -15 9 -15 16c0 11 7 17 21 17c7 0 12 -1 15 -3l-3 -12c-5 3 -9 4 -12 4c-5 0 -7 -1 -7 -4c0 -2 4 -4 11 -7c9 -3 14 -9 14 -16c0 -11 -8 -17 -24 -17c-7 0 -12 1 -16 3zM523 13l3 -12c-4 -1 -9 -2 -14 -2
c-19 0 -28 9 -28 26c0 19 10 29 29 29c7 0 11 -1 14 -2l-4 -12c-2 2 -5 3 -9 3c-10 0 -15 -6 -15 -17s5 -16 15 -16c4 0 7 1 9 3zM582 26c0 -18 -9 -27 -27 -27s-27 9 -27 27c0 19 9 28 27 28s27 -9 27 -28zM116 20v-20h-14v20l-17 33h17l7 -23l8 23h16zM151 35l1 -35h-14
v53h18l16 -32v32h13v-53h-15zM217 0h-13v42h-14v11h41v-11h-14v-42zM236 0v53h15v-20h18v20h14v-53h-14v21h-18v-21h-15zM338 53l-17 -53h-16l-17 53h16l9 -39l10 39h15zM343 0v53h15v-53h-15zM381 32h19v-11h-19v-10h21v-11h-36v53h36v-11h-21v-10zM441 35l-7 -35h-15
l-13 53h15l7 -36l6 36h15l6 -36l7 36h14l-13 -53h-16zM645 53l2 -53h-14v40l-11 -39h-10l-11 39l-1 -40h-14l4 53h19l8 -34l9 34h19zM543 26c0 -11 4 -16 12 -16c7 0 11 5 11 16s-4 17 -11 17c-8 0 -12 -6 -12 -17zM477 -1c4 0 6 2 6 6s-2 6 -6 6s-6 -2 -6 -6s2 -6 6 -6z
" />
    <glyph glyph-name="asciicircum" unicode="^" 
d="M311 543l-113 -178l-136 78l175 257h148l176 -257l-136 -78z" />
    <glyph glyph-name="at" unicode="@" horiz-adv-x="758" 
d="M566 447v-196c0 -37 2 -62 5 -73c4 -17 13 -25 28 -25c27 0 40 39 40 117c0 89 -22 157 -65 206c-44 49 -107 73 -190 73c-85 0 -151 -27 -198 -81c-45 -51 -67 -121 -67 -210c0 -186 86 -279 257 -279c51 0 97 11 138 33l86 -48c-66 -48 -142 -72 -228 -72
c-233 0 -349 123 -349 368c0 117 31 209 94 276s151 101 263 101c114 0 202 -34 265 -101c60 -65 90 -154 90 -267c0 -62 -13 -113 -40 -153c-29 -43 -68 -64 -118 -64c-61 0 -102 24 -125 73h-3c-18 -49 -58 -74 -121 -74c-109 0 -163 67 -163 201c0 137 53 206 160 206
c42 0 72 -14 90 -43h3v32h148zM371 180c31 0 47 25 47 74v3c0 48 -16 72 -47 72s-47 -24 -47 -72c0 -51 16 -77 47 -77z" />
    <glyph glyph-name="bar" unicode="|" horiz-adv-x="266" 
d="M60 775h146v-849h-146v849z" />
    <glyph glyph-name="brokenbar" unicode="&#xa6;" horiz-adv-x="266" 
d="M206 490h-146v285h146v-285zM206 -74h-146v285h146v-285z" />
    <glyph glyph-name="ampersand.case" horiz-adv-x="677" 
d="M562 278v-81c0 -65 -22 -116 -67 -153c-47 -39 -115 -58 -204 -58c-85 0 -150 19 -195 56c-43 36 -64 86 -64 149c0 47 12 86 35 117c21 27 47 44 78 51v3c-27 5 -51 20 -70 45c-24 30 -36 69 -36 116c0 63 22 111 66 144c41 31 100 47 176 47c147 0 239 -63 275 -190
l-168 -45c-16 53 -48 80 -97 80c-43 0 -65 -22 -65 -65c0 -40 23 -60 70 -60h355v-156h-89zM386 278h-100c-45 0 -67 -21 -67 -64c0 -45 26 -67 78 -67c59 0 89 28 89 84v47z" />
    <glyph glyph-name="at.case" horiz-adv-x="747" 
d="M566 529v-196c0 -37 2 -62 5 -73c4 -17 13 -25 28 -25c27 0 40 39 40 117c0 89 -22 157 -65 206c-44 49 -107 73 -190 73c-85 0 -151 -27 -198 -81c-45 -51 -67 -121 -67 -210c0 -186 86 -279 257 -279c51 0 97 11 138 33l86 -48c-66 -48 -142 -72 -228 -72
c-233 0 -349 123 -349 368c0 117 31 209 94 276s151 101 263 101c114 0 202 -34 265 -101c60 -65 90 -154 90 -267c0 -62 -13 -113 -40 -153c-29 -43 -68 -64 -118 -64c-61 0 -102 24 -125 73h-3c-18 -49 -58 -74 -121 -74c-109 0 -163 67 -163 201c0 137 53 206 160 206
c42 0 72 -14 90 -43h3v32h148zM371 262c31 0 47 25 47 74v3c0 48 -16 72 -47 72s-47 -24 -47 -72c0 -51 16 -77 47 -77z" />
    <glyph glyph-name="copyright.case" horiz-adv-x="718" 
d="M358 714c99 0 180 -32 241 -95c64 -67 96 -156 96 -269c0 -112 -32 -201 -96 -268c-61 -64 -142 -96 -241 -96s-179 32 -240 96c-63 67 -95 156 -95 268c0 113 32 203 95 269c61 63 141 95 240 95zM358 636c-78 0 -140 -25 -185 -76c-46 -51 -69 -121 -69 -209
s23 -158 69 -209c45 -51 107 -77 185 -77s140 26 187 77c46 51 69 121 69 209s-23 158 -69 209c-47 51 -109 76 -187 76zM408 295l106 -34c-27 -69 -79 -103 -156 -103c-53 0 -95 16 -126 49c-33 34 -49 82 -49 143c0 60 16 107 48 141c31 33 73 49 127 49
c81 0 133 -37 154 -112l-106 -29c-9 21 -24 32 -45 32c-41 0 -62 -27 -62 -81c0 -55 21 -83 63 -83c19 0 35 9 46 28z" />
    <glyph glyph-name="uni2116.case" horiz-adv-x="1074" 
d="M721 541c0 51 15 93 45 124c29 31 67 46 114 46s85 -15 114 -46c30 -31 45 -73 45 -124s-15 -92 -45 -123c-29 -31 -67 -46 -114 -46s-85 15 -114 46c-30 31 -45 72 -45 123zM457 0l-231 364h-3l1 -55v-309h-180v700h185l230 -365h3l-1 365h180v-700h-184zM827 541
c0 -45 18 -68 53 -68s53 23 53 68s-18 68 -53 68s-53 -23 -53 -68zM1029 200h-298v112h298v-112z" />
    <glyph glyph-name="paragraph.case" horiz-adv-x="674" 
d="M450 0v528h-57v-528h-180v334c-127 0 -190 62 -190 186c0 120 63 180 190 180h415l2 -700h-180z" />
    <glyph glyph-name="uni2117.case" horiz-adv-x="718" 
d="M358 714c99 0 180 -32 241 -95c64 -67 96 -156 96 -269c0 -112 -32 -201 -96 -268c-61 -64 -142 -96 -241 -96s-179 32 -240 96c-63 67 -95 156 -95 268c0 113 32 203 95 269c61 63 141 95 240 95zM358 636c-78 0 -140 -25 -185 -76c-46 -51 -69 -121 -69 -209
s23 -158 69 -209c45 -51 107 -77 185 -77s140 26 187 77c46 51 69 121 69 209s-23 158 -69 209c-47 51 -109 76 -187 76zM229 536h158c44 0 79 -13 105 -38s39 -60 39 -104c0 -89 -54 -133 -161 -133h-25v-94h-116v369zM345 354h38c21 0 32 12 32 35s-11 35 -32 35h-38v-70z
" />
    <glyph glyph-name="registered.case" horiz-adv-x="718" 
d="M358 714c99 0 180 -32 241 -95c64 -67 96 -156 96 -269c0 -112 -32 -201 -96 -268c-61 -64 -142 -96 -241 -96s-179 32 -240 96c-63 67 -95 156 -95 268c0 113 32 203 95 269c61 63 141 95 240 95zM358 636c-78 0 -140 -25 -185 -76c-46 -51 -69 -121 -69 -209
s23 -158 69 -209c45 -51 107 -77 185 -77s140 26 187 77c46 51 69 121 69 209s-23 158 -69 209c-47 51 -109 76 -187 76zM402 167l-53 121h-26v-121h-118v369h162c48 0 86 -12 113 -36c26 -23 39 -55 39 -95c0 -44 -19 -75 -56 -94l69 -144h-130zM324 368h44
c19 0 29 11 29 32s-10 32 -29 32h-44v-64z" />
    <glyph glyph-name="copyright" unicode="&#xa9;" horiz-adv-x="718" 
d="M358 633c99 0 180 -32 241 -96c64 -66 96 -155 96 -268c0 -112 -32 -201 -96 -268c-61 -64 -142 -96 -241 -96s-179 32 -240 96c-63 67 -95 156 -95 268c0 113 32 202 95 268c61 64 141 96 240 96zM358 554c-78 0 -140 -25 -185 -76c-46 -51 -69 -120 -69 -208
s23 -158 69 -210c45 -51 107 -77 185 -77s140 26 187 77c46 52 69 122 69 210c0 87 -23 157 -69 208c-47 51 -109 76 -187 76zM408 214l106 -34c-27 -69 -79 -103 -156 -103c-53 0 -95 16 -126 49c-33 34 -49 82 -49 143c0 60 16 107 48 141c31 33 73 49 127 49
c81 0 133 -37 154 -112l-106 -29c-9 21 -24 32 -45 32c-41 0 -62 -27 -62 -82s21 -82 63 -82c20 0 35 9 46 28z" />
    <glyph glyph-name="dagger" unicode="&#x2020;" 
d="M403 547h127v-159h-127v-84c0 -187 -8 -289 -23 -304h-137c-15 15 -23 117 -23 304v84h-126v159h126v153h183v-153z" />
    <glyph glyph-name="daggerdbl" unicode="&#x2021;" 
d="M403 388v-88h127v-159h-133c-3 -36 -6 -70 -11 -103c-4 -28 -6 -41 -6 -38h-137c0 -3 -2 10 -6 38c-5 33 -8 67 -11 103h-132v159h126v88h-126v159h126v153h183v-153h127v-159h-127z" />
    <glyph glyph-name="degree" unicode="&#xb0;" horiz-adv-x="303" 
d="M151 560c-42 0 -76 12 -102 37s-39 59 -39 103s13 78 39 103s60 37 102 37c43 0 77 -12 103 -37s39 -59 39 -103s-13 -78 -39 -103s-60 -37 -103 -37zM151 650c29 0 44 17 44 50c0 34 -15 51 -44 51s-44 -17 -44 -51c0 -33 15 -50 44 -50z" />
    <glyph glyph-name="uni2116" unicode="&#x2116;" horiz-adv-x="995" 
d="M641 401c0 51 15 93 45 124c29 31 67 46 114 46s85 -15 115 -46s45 -73 45 -124s-15 -92 -45 -123s-68 -46 -115 -46s-85 15 -114 46c-30 31 -45 72 -45 123zM562 0h-178l-168 277h-4l1 -38v-239h-169v560h178l168 -264h4l-1 264h169v-560zM748 401c0 -45 17 -68 52 -68
s53 23 53 68s-18 68 -53 68s-52 -23 -52 -68zM949 60h-298v112h298v-112z" />
    <glyph glyph-name="paragraph" unicode="&#xb6;" horiz-adv-x="674" 
d="M450 -140v528h-57v-528h-180v334c-127 0 -190 62 -190 186c0 120 63 180 190 180h415l2 -700h-180z" />
    <glyph glyph-name="uni2117" unicode="&#x2117;" horiz-adv-x="718" 
d="M358 633c99 0 180 -32 241 -96c64 -66 96 -155 96 -268c0 -112 -32 -201 -96 -268c-61 -64 -142 -96 -241 -96s-179 32 -240 96c-63 67 -95 156 -95 268c0 113 32 202 95 268c61 64 141 96 240 96zM358 554c-78 0 -140 -25 -185 -76c-46 -51 -69 -120 -69 -208
s23 -158 69 -210c45 -51 107 -77 185 -77s140 26 187 77c46 52 69 122 69 210c0 87 -23 157 -69 208c-47 51 -109 76 -187 76zM229 455h158c44 0 79 -13 105 -38s39 -60 39 -104c0 -89 -54 -134 -161 -134h-25v-93h-116v369zM345 273h38c21 0 32 12 32 35s-11 35 -32 35h-38
v-70z" />
    <glyph glyph-name="registered" unicode="&#xae;" horiz-adv-x="718" 
d="M358 633c99 0 180 -32 241 -96c64 -66 96 -155 96 -268c0 -112 -32 -201 -96 -268c-61 -64 -142 -96 -241 -96s-179 32 -240 96c-63 67 -95 156 -95 268c0 113 32 202 95 268c61 64 141 96 240 96zM358 554c-78 0 -140 -25 -185 -76c-46 -51 -69 -120 -69 -208
s23 -158 69 -210c45 -51 107 -77 185 -77s140 26 187 77c46 52 69 122 69 210c0 87 -23 157 -69 208c-47 51 -109 76 -187 76zM402 86l-53 120h-26v-120h-118v369h162c48 0 86 -12 113 -36c26 -23 39 -55 39 -95c0 -45 -19 -77 -56 -94l69 -144h-130zM324 286h44
c19 0 29 11 29 33c0 21 -10 32 -29 32h-44v-65z" />
    <glyph glyph-name="section" unicode="&#xa7;" 
d="M491 259c44 -29 66 -69 66 -120c0 -102 -77 -153 -231 -153c-153 0 -240 48 -263 145l164 44c8 -40 37 -60 87 -60c39 0 59 11 59 33c0 13 -12 22 -35 29l-128 28c-93 21 -139 67 -139 137c0 50 22 87 67 111c-39 24 -58 61 -58 110c0 101 73 151 220 151
c137 0 221 -45 252 -135l-148 -40c-18 37 -51 56 -98 56c-30 0 -45 -10 -45 -29c0 -15 10 -26 31 -33l97 -22c55 -13 96 -29 122 -48c32 -23 48 -55 48 -96c0 -50 -23 -86 -68 -108zM231 370c0 -19 15 -34 46 -45c8 -3 40 -10 97 -23c13 7 20 19 20 35c0 21 -13 36 -38 46
c-11 5 -43 14 -94 25l-2 1c-19 -8 -29 -21 -29 -39z" />
    <glyph glyph-name="trademark" unicode="&#x2122;" horiz-adv-x="768" 
d="M322 700v-100h-95v-225h-106v225h-96v100h297zM724 375h-104v179h-1c4 4 -7 -23 -34 -82l-13 -27h-49l-14 27c-7 14 -15 32 -24 55l-13 30h-1v-182h-99v325h120l32 -64c21 -37 30 -54 27 -51h2c-1 -1 7 16 24 51l27 64h120v-325z" />
    <glyph glyph-name="acute" unicode="&#xb4;" horiz-adv-x="545" 
d="M308 618h-160l106 185l143 -41z" />
    <glyph glyph-name="breve" unicode="&#x2d8;" horiz-adv-x="545" 
d="M92 774h129c1 -32 19 -48 52 -48c35 0 52 16 52 48h129c-2 -52 -19 -92 -51 -121c-32 -27 -75 -41 -130 -41c-56 0 -100 14 -131 41c-32 28 -49 68 -50 121z" />
    <glyph glyph-name="tilde.cap" horiz-adv-x="545" 
d="M433 929l26 -132c-12 -23 -44 -34 -95 -34c-20 0 -47 4 -82 13c-34 9 -61 13 -82 13c-40 0 -70 -9 -89 -27l-27 132c14 23 46 34 96 34c21 0 48 -4 82 -13s62 -13 83 -13c35 0 65 9 88 27z" />
    <glyph glyph-name="caron" unicode="&#x2c7;" horiz-adv-x="545" 
d="M95 860l80 94l98 -63l97 63l80 -94l-177 -126z" />
    <glyph glyph-name="cedilla" unicode="&#xb8;" horiz-adv-x="545" 
d="M390 -71c0 -72 -50 -108 -150 -108c-41 0 -71 4 -90 12v111c13 -5 32 -8 57 -8c37 0 55 7 55 21c0 19 -37 28 -111 26v83l126 -2v-31c75 -6 113 -41 113 -104z" />
    <glyph glyph-name="circumflex" unicode="&#x2c6;" horiz-adv-x="545" 
d="M450 689l-81 -96l-96 68l-97 -68l-81 96l178 133z" />
    <glyph glyph-name="dieresis" unicode="&#xa8;" horiz-adv-x="545" 
d="M168 760c-23 0 -41 8 -56 23s-22 34 -22 57c0 22 8 41 23 56s33 23 56 23c21 0 39 -8 54 -23s22 -34 22 -56c0 -23 -7 -42 -22 -57s-34 -23 -55 -23zM377 760c-22 0 -40 8 -55 23s-22 34 -22 57c0 22 7 41 22 56s33 23 55 23s41 -8 56 -23s22 -34 22 -56
c0 -23 -7 -42 -22 -57s-34 -23 -56 -23z" />
    <glyph glyph-name="dotaccent" unicode="&#x2d9;" horiz-adv-x="545" 
d="M273 760c-23 0 -41 8 -56 23s-22 34 -22 57s7 41 22 56s33 23 56 23c22 0 40 -8 55 -23s22 -33 22 -56s-7 -42 -22 -57s-33 -23 -55 -23z" />
    <glyph glyph-name="grave" unicode="`" horiz-adv-x="545" 
d="M291 802l106 -185h-160l-89 144z" />
    <glyph glyph-name="hungarumlaut" unicode="&#x2dd;" horiz-adv-x="545" 
d="M238 754h-160l106 185l143 -41zM457 754h-160l106 185l143 -41z" />
    <glyph glyph-name="caron.l" horiz-adv-x="545" 
d="M208 700h143c5 -70 -10 -135 -44 -196h-130c23 48 33 113 31 196z" />
    <glyph glyph-name="overscore" unicode="&#xaf;" horiz-adv-x="545" 
d="M435 756h-324v152h324v-152z" />
    <glyph glyph-name="ogonek" unicode="&#x2db;" horiz-adv-x="538" 
d="M298 49l37 -49c-47 -1 -71 -11 -71 -30c0 -17 15 -26 46 -26c19 0 39 5 60 16v-122c-26 -11 -58 -17 -95 -17c-105 0 -158 34 -158 103c0 41 19 71 57 91c23 12 65 23 124 34z" />
    <glyph glyph-name="ring" unicode="&#x2da;" horiz-adv-x="545" 
d="M273 729c-43 0 -77 11 -102 32c-26 22 -39 53 -39 93s13 71 39 93c25 21 59 32 102 32s76 -11 101 -32c26 -22 39 -53 39 -93s-13 -71 -39 -93c-25 -21 -58 -32 -101 -32zM273 814c29 0 43 13 43 40s-14 40 -43 40s-44 -13 -44 -40s15 -40 44 -40z" />
    <glyph glyph-name="tilde" unicode="&#x2dc;" horiz-adv-x="545" 
d="M414 794l27 -132c-11 -23 -39 -34 -85 -34c-18 0 -42 4 -73 13s-56 13 -73 13c-34 0 -61 -9 -80 -27l-28 132c12 23 41 34 86 34c18 0 42 -4 73 -13s55 -13 73 -13c34 0 61 9 80 27z" />
    <glyph glyph-name="uni0326" unicode="&#x326;" horiz-adv-x="0" 
d="M243 -143c-34 1 -51 20 -51 55c0 43 27 65 81 65c57 0 86 -27 86 -80c0 -61 -38 -103 -113 -126l-54 60c25 5 42 13 51 26z" />
    <glyph glyph-name="Itilde" unicode="&#x128;" horiz-adv-x="271" 
d="M44 0v700h183v-700h-183zM278 934l27 -132c-11 -23 -39 -34 -85 -34c-18 0 -42 4 -73 13s-56 13 -73 13c-34 0 -61 -9 -80 -27l-28 132c12 23 41 34 86 34c18 0 42 -4 73 -13s55 -13 73 -13c34 0 61 9 80 27z" />
    <glyph glyph-name="Utilde" unicode="&#x168;" horiz-adv-x="643" 
d="M602 700v-408c0 -99 -25 -176 -76 -229c-49 -51 -117 -77 -205 -77s-156 26 -205 77c-51 53 -76 130 -76 229v408h184v-403c0 -92 33 -138 100 -138s101 46 101 138v403h177zM464 934l27 -132c-11 -23 -39 -34 -85 -34c-18 0 -42 4 -73 13s-56 13 -73 13
c-34 0 -61 -9 -80 -27l-28 132c12 23 41 34 86 34c18 0 42 -4 73 -13s55 -13 73 -13c34 0 61 9 80 27z" />
    <glyph glyph-name="utilde" unicode="&#x169;" horiz-adv-x="577" 
d="M537 560v-305c0 -90 -23 -158 -68 -204c-43 -42 -102 -63 -179 -63c-167 0 -250 89 -250 267v305h174v-319c0 -63 26 -94 77 -94s77 31 77 94v319h169zM431 794l27 -132c-11 -23 -39 -34 -85 -34c-18 0 -42 4 -73 13s-56 13 -73 13c-34 0 -61 -9 -80 -27l-28 132
c12 23 41 34 86 34c18 0 42 -4 73 -13s55 -13 73 -13c34 0 61 9 80 27z" />
    <glyph glyph-name="Ohorn" unicode="&#x1a0;" horiz-adv-x="744" 
d="M354 159c98 0 147 63 147 190c0 128 -49 192 -147 192c-97 0 -146 -63 -146 -190c0 -128 49 -192 146 -192zM658 515c18 -47 27 -102 27 -165c0 -115 -30 -204 -91 -269c-59 -63 -139 -95 -240 -95s-180 31 -239 94c-61 65 -92 155 -92 270s30 205 91 270
c59 63 139 94 240 94s180 -31 239 -94c4 -4 8 -8 11 -13c19 10 28 28 28 55v37h98v-39c2 -71 -22 -119 -72 -145z" />
    <glyph glyph-name="ohorn" unicode="&#x1a1;" horiz-adv-x="660" 
d="M298 147c66 0 99 44 99 133s-33 133 -99 133c-67 0 -100 -44 -100 -133s33 -133 100 -133zM563 371c6 -27 9 -57 9 -90c0 -92 -25 -164 -75 -216c-49 -51 -116 -77 -199 -77c-84 0 -150 26 -199 77c-51 52 -76 124 -76 216s25 164 76 215c49 50 115 75 199 75
c83 0 150 -25 199 -75c9 -9 16 -18 23 -28c19 9 29 28 29 55v37h98v-39c2 -77 -26 -127 -84 -150z" />
    <glyph glyph-name="Uhorn" unicode="&#x1af;" horiz-adv-x="742" 
d="M602 498v-206c0 -99 -25 -176 -76 -229c-49 -51 -117 -77 -205 -77s-156 26 -205 77c-51 53 -76 130 -76 229v408h184v-403c0 -92 33 -138 100 -138s101 46 101 138v403h177v-94c20 9 30 28 30 56v37h98v-39c2 -93 -41 -147 -128 -162z" />
    <glyph glyph-name="uhorn" unicode="&#x1b0;" horiz-adv-x="688" 
d="M537 357v-102c0 -90 -23 -158 -68 -204c-43 -42 -102 -63 -179 -63c-167 0 -250 89 -250 267v305h174v-319c0 -63 26 -94 77 -94s77 31 77 94v319h169v-97c29 7 43 27 43 60v37h98v-39c3 -98 -44 -153 -141 -164z" />
    <glyph glyph-name="uni1EA0" unicode="&#x1ea0;" horiz-adv-x="680" 
d="M449 101h-222l-27 -101h-190l217 700h226l217 -700h-193zM404 268l-39 140c-18 67 -26 99 -25 98h-4c1 1 -7 -31 -25 -97l-39 -141h132zM341 -208c-29 0 -52 8 -69 25c-15 16 -23 37 -24 63c0 26 8 47 24 63c17 17 40 25 69 25s51 -8 68 -25c16 -16 24 -37 24 -63
s-8 -47 -23 -63c-17 -17 -40 -25 -69 -25z" />
    <glyph glyph-name="uni1EA1" unicode="&#x1ea1;" horiz-adv-x="570" 
d="M364 84h-163l-19 -84h-172l162 560h226l162 -560h-176zM330 230l-16 68c-22 92 -32 135 -30 128h-4l-45 -196h95zM286 -208c-29 0 -52 8 -69 25c-15 16 -23 37 -24 63c0 26 8 47 24 63c17 17 40 25 69 25s51 -8 68 -25c16 -16 24 -37 24 -63s-8 -47 -23 -63
c-17 -17 -40 -25 -69 -25z" />
    <glyph glyph-name="uni1EA2" unicode="&#x1ea2;" horiz-adv-x="680" 
d="M449 101h-222l-27 -101h-190l217 700h226l217 -700h-193zM404 268l-39 140c-18 67 -26 99 -25 98h-4c1 1 -7 -31 -25 -97l-39 -141h132zM423 900c27 -48 12 -90 -44 -126c-24 -15 -47 -28 -70 -39l-29 80c19 8 36 17 49 26c15 9 21 16 18 20c-3 6 -26 -3 -67 -28l-38 72
l61 35c57 14 97 1 120 -40z" />
    <glyph glyph-name="uni1EA3" unicode="&#x1ea3;" horiz-adv-x="570" 
d="M364 84h-163l-19 -84h-172l162 560h226l162 -560h-176zM330 230l-16 68c-22 92 -32 135 -30 128h-4l-45 -196h95zM367 760c27 -48 12 -90 -44 -126c-24 -15 -47 -28 -70 -39l-29 80c19 8 36 17 49 26c15 9 21 16 18 20c-3 6 -26 -3 -67 -28l-38 72l61 35
c57 14 97 1 120 -40z" />
    <glyph glyph-name="uni1EA4" unicode="&#x1ea4;" horiz-adv-x="680" 
d="M449 101h-222l-27 -101h-190l217 700h226l217 -700h-193zM404 268l-39 140c-18 67 -26 99 -25 98h-4c1 1 -7 -31 -25 -97l-39 -141h132zM517 830l-81 -96l-96 68l-97 -68l-81 96l178 133zM584 927h-160l106 185l143 -41z" />
    <glyph glyph-name="uni1EA5" unicode="&#x1ea5;" horiz-adv-x="570" 
d="M364 84h-163l-19 -84h-172l162 560h226l162 -560h-176zM330 230l-16 68c-22 92 -32 135 -30 128h-4l-45 -196h95zM463 689l-81 -96l-96 68l-97 -68l-81 96l178 133zM545 802h-160l106 185l143 -41z" />
    <glyph glyph-name="uni1EA6" unicode="&#x1ea6;" horiz-adv-x="680" 
d="M449 101h-222l-27 -101h-190l217 700h226l217 -700h-193zM404 268l-39 140c-18 67 -26 99 -25 98h-4c1 1 -7 -31 -25 -97l-39 -141h132zM518 829l-81 -96l-96 68l-97 -68l-81 96l178 133zM510 1111l106 -185h-160l-89 144z" />
    <glyph glyph-name="uni1EA7" unicode="&#x1ea7;" horiz-adv-x="570" 
d="M364 84h-163l-19 -84h-172l162 560h226l162 -560h-176zM330 230l-16 68c-22 92 -32 135 -30 128h-4l-45 -196h95zM463 689l-81 -96l-96 68l-97 -68l-81 96l178 133zM463 972l106 -185h-160l-89 144z" />
    <glyph glyph-name="uni1EA8" unicode="&#x1ea8;" horiz-adv-x="680" 
d="M449 101h-222l-27 -101h-190l217 700h226l217 -700h-193zM404 268l-39 140c-18 67 -26 99 -25 98h-4c1 1 -7 -31 -25 -97l-39 -141h132zM518 827l-81 -96l-96 68l-97 -68l-81 96l178 133zM579 1054c27 -48 12 -90 -44 -126c-24 -15 -47 -28 -70 -39l-29 80
c19 8 36 17 49 26c15 9 21 16 18 20c-3 6 -26 -3 -67 -28l-38 72l61 35c57 14 97 1 120 -40z" />
    <glyph glyph-name="uni1EA9" unicode="&#x1ea9;" horiz-adv-x="570" 
d="M364 84h-163l-19 -84h-172l162 560h226l162 -560h-176zM330 230l-16 68c-22 92 -32 135 -30 128h-4l-45 -196h95zM463 689l-81 -96l-96 68l-97 -68l-81 96l178 133zM514 1005c27 -48 12 -90 -44 -126c-24 -15 -47 -28 -70 -39l-29 80c19 8 36 17 49 26c15 9 21 16 18 20
c-3 6 -26 -3 -67 -28l-38 72l61 35c57 14 97 1 120 -40z" />
    <glyph glyph-name="uni1EAA" unicode="&#x1eaa;" horiz-adv-x="680" 
d="M449 101h-222l-27 -101h-190l217 700h226l217 -700h-193zM404 268l-39 140c-18 67 -26 99 -25 98h-4c1 1 -7 -31 -25 -97l-39 -141h132zM518 829l-81 -96l-96 68l-97 -68l-81 96l178 133zM539 1133l27 -132c-11 -23 -39 -34 -85 -34c-18 0 -42 4 -73 13s-56 13 -73 13
c-34 0 -61 -9 -80 -27l-28 132c12 23 41 34 86 34c18 0 42 -4 73 -13s55 -13 73 -13c34 0 61 9 80 27z" />
    <glyph glyph-name="uni1EAB" unicode="&#x1eab;" horiz-adv-x="570" 
d="M364 84h-163l-19 -84h-172l162 560h226l162 -560h-176zM330 230l-16 68c-22 92 -32 135 -30 128h-4l-45 -196h95zM463 689l-81 -96l-96 68l-97 -68l-81 96l178 133zM441 1002l27 -132c-11 -23 -39 -34 -85 -34c-18 0 -42 4 -73 13s-56 13 -73 13c-34 0 -61 -9 -80 -27
l-28 132c12 23 41 34 86 34c18 0 42 -4 73 -13s55 -13 73 -13c34 0 61 9 80 27z" />
    <glyph glyph-name="uni1EAC" unicode="&#x1eac;" horiz-adv-x="680" 
d="M449 101h-222l-27 -101h-190l217 700h226l217 -700h-193zM404 268l-39 140c-18 67 -26 99 -25 98h-4c1 1 -7 -31 -25 -97l-39 -141h132zM518 829l-81 -96l-96 68l-97 -68l-81 96l178 133zM341 -208c-29 0 -52 8 -69 25c-15 16 -23 37 -24 63c0 26 8 47 24 63
c17 17 40 25 69 25s51 -8 68 -25c16 -16 24 -37 24 -63s-8 -47 -23 -63c-17 -17 -40 -25 -69 -25z" />
    <glyph glyph-name="uni1EAD" unicode="&#x1ead;" horiz-adv-x="570" 
d="M364 84h-163l-19 -84h-172l162 560h226l162 -560h-176zM330 230l-16 68c-22 92 -32 135 -30 128h-4l-45 -196h95zM463 689l-81 -96l-96 68l-97 -68l-81 96l178 133zM286 -208c-29 0 -52 8 -69 25c-15 16 -23 37 -24 63c0 26 8 47 24 63c17 17 40 25 69 25s51 -8 68 -25
c16 -16 24 -37 24 -63s-8 -47 -23 -63c-17 -17 -40 -25 -69 -25z" />
    <glyph glyph-name="uni1EAE" unicode="&#x1eae;" horiz-adv-x="680" 
d="M449 101h-222l-27 -101h-190l217 700h226l217 -700h-193zM404 268l-39 140c-18 67 -26 99 -25 98h-4c1 1 -7 -31 -25 -97l-39 -141h132zM159 895h129c1 -32 19 -48 52 -48c35 0 52 16 52 48h129c-2 -52 -19 -92 -51 -121c-32 -27 -75 -41 -130 -41c-56 0 -100 14 -131 41
c-32 28 -49 68 -50 121zM414 932h-160l106 185l143 -41z" />
    <glyph glyph-name="uni1EAF" unicode="&#x1eaf;" horiz-adv-x="570" 
d="M364 84h-163l-19 -84h-172l162 560h226l162 -560h-176zM330 230l-16 68c-22 92 -32 135 -30 128h-4l-45 -196h95zM104 774h129c1 -32 19 -48 52 -48c35 0 52 16 52 48h129c-2 -52 -19 -92 -51 -121c-32 -27 -75 -41 -130 -41c-56 0 -100 14 -131 41
c-32 28 -49 68 -50 121zM363 812h-160l106 185l143 -41z" />
    <glyph glyph-name="uni1EB0" unicode="&#x1eb0;" horiz-adv-x="680" 
d="M449 101h-222l-27 -101h-190l217 700h226l217 -700h-193zM404 268l-39 140c-18 67 -26 99 -25 98h-4c1 1 -7 -31 -25 -97l-39 -141h132zM159 896h129c1 -32 19 -48 52 -48c35 0 52 16 52 48h129c-2 -52 -19 -92 -51 -121c-32 -27 -75 -41 -130 -41c-56 0 -100 14 -131 41
c-32 28 -49 68 -50 121zM314 1104l106 -185h-160l-89 144z" />
    <glyph glyph-name="uni1EB1" unicode="&#x1eb1;" horiz-adv-x="570" 
d="M364 84h-163l-19 -84h-172l162 560h226l162 -560h-176zM330 230l-16 68c-22 92 -32 135 -30 128h-4l-45 -196h95zM104 774h129c1 -32 19 -48 52 -48c35 0 52 16 52 48h129c-2 -52 -19 -92 -51 -121c-32 -27 -75 -41 -130 -41c-56 0 -100 14 -131 41
c-32 28 -49 68 -50 121zM261 996l106 -185h-160l-89 144z" />
    <glyph glyph-name="uni1EB2" unicode="&#x1eb2;" horiz-adv-x="680" 
d="M449 101h-222l-27 -101h-190l217 700h226l217 -700h-193zM404 268l-39 140c-18 67 -26 99 -25 98h-4c1 1 -7 -31 -25 -97l-39 -141h132zM159 896h129c1 -32 19 -48 52 -48c35 0 52 16 52 48h129c-2 -52 -19 -92 -51 -121c-32 -27 -75 -41 -130 -41c-56 0 -100 14 -131 41
c-32 28 -49 68 -50 121zM439 1036c27 -36 12 -67 -44 -94c-24 -11 -47 -21 -70 -30l-29 60c19 6 36 13 49 20c15 7 21 12 18 15c-3 4 -26 -3 -67 -21l-38 54l61 26c57 11 97 1 120 -30z" />
    <glyph glyph-name="uni1EB3" unicode="&#x1eb3;" horiz-adv-x="570" 
d="M364 84h-163l-19 -84h-172l162 560h226l162 -560h-176zM330 230l-16 68c-22 92 -32 135 -30 128h-4l-45 -196h95zM104 774h129c1 -32 19 -48 52 -48c35 0 52 16 52 48h129c-2 -52 -19 -92 -51 -121c-32 -27 -75 -41 -130 -41c-56 0 -100 14 -131 41
c-32 28 -49 68 -50 121zM387 958c27 -48 12 -90 -44 -126c-24 -15 -47 -28 -70 -39l-29 80c19 8 36 17 49 26c15 9 21 16 18 20c-3 6 -26 -3 -67 -28l-38 72l61 35c57 14 97 1 120 -40z" />
    <glyph glyph-name="uni1EB4" unicode="&#x1eb4;" horiz-adv-x="680" 
d="M449 101h-222l-27 -101h-190l217 700h226l217 -700h-193zM404 268l-39 140c-18 67 -26 99 -25 98h-4c1 1 -7 -31 -25 -97l-39 -141h132zM159 896h129c1 -32 19 -48 52 -48c35 0 52 16 52 48h129c-2 -52 -19 -92 -51 -121c-32 -27 -75 -41 -130 -41c-56 0 -100 14 -131 41
c-32 28 -49 68 -50 121zM471 1096l27 -132c-11 -23 -39 -34 -85 -34c-18 0 -42 4 -73 13s-56 13 -73 13c-34 0 -61 -9 -80 -27l-28 132c12 23 41 34 86 34c18 0 42 -4 73 -13s55 -13 73 -13c34 0 61 9 80 27z" />
    <glyph glyph-name="uni1EB5" unicode="&#x1eb5;" horiz-adv-x="570" 
d="M364 84h-163l-19 -84h-172l162 560h226l162 -560h-176zM330 230l-16 68c-22 92 -32 135 -30 128h-4l-45 -196h95zM104 774h129c1 -32 19 -48 52 -48c35 0 52 16 52 48h129c-2 -52 -19 -92 -51 -121c-32 -27 -75 -41 -130 -41c-56 0 -100 14 -131 41
c-32 28 -49 68 -50 121zM437 970l27 -132c-11 -23 -39 -34 -85 -34c-18 0 -42 4 -73 13s-56 13 -73 13c-34 0 -61 -9 -80 -27l-28 132c12 23 41 34 86 34c18 0 42 -4 73 -13s55 -13 73 -13c34 0 61 9 80 27z" />
    <glyph glyph-name="uni1EB6" unicode="&#x1eb6;" horiz-adv-x="680" 
d="M449 101h-222l-27 -101h-190l217 700h226l217 -700h-193zM404 268l-39 140c-18 67 -26 99 -25 98h-4c1 1 -7 -31 -25 -97l-39 -141h132zM159 914h129c1 -32 19 -48 52 -48c35 0 52 16 52 48h129c-2 -52 -19 -92 -51 -121c-32 -27 -75 -41 -130 -41c-56 0 -100 14 -131 41
c-32 28 -49 68 -50 121zM341 -208c-29 0 -52 8 -69 25c-15 16 -23 37 -24 63c0 26 8 47 24 63c17 17 40 25 69 25s51 -8 68 -25c16 -16 24 -37 24 -63s-8 -47 -23 -63c-17 -17 -40 -25 -69 -25z" />
    <glyph glyph-name="uni1EB7" unicode="&#x1eb7;" horiz-adv-x="570" 
d="M364 84h-163l-19 -84h-172l162 560h226l162 -560h-176zM330 230l-16 68c-22 92 -32 135 -30 128h-4l-45 -196h95zM104 774h129c1 -32 19 -48 52 -48c35 0 52 16 52 48h129c-2 -52 -19 -92 -51 -121c-32 -27 -75 -41 -130 -41c-56 0 -100 14 -131 41
c-32 28 -49 68 -50 121zM286 -208c-29 0 -52 8 -69 25c-15 16 -23 37 -24 63c0 26 8 47 24 63c17 17 40 25 69 25s51 -8 68 -25c16 -16 24 -37 24 -63s-8 -47 -23 -63c-17 -17 -40 -25 -69 -25z" />
    <glyph glyph-name="uni1EB8" unicode="&#x1eb8;" horiz-adv-x="561" 
d="M44 0v700h476v-171h-293v-97h212v-158h-212v-103h298v-171h-481zM285 -208c-29 0 -52 8 -69 25c-15 16 -23 37 -24 63c0 26 8 47 24 63c17 17 40 25 69 25s51 -8 68 -25c16 -16 24 -37 24 -63s-8 -47 -23 -63c-17 -17 -40 -25 -69 -25z" />
    <glyph glyph-name="uni1EB9" unicode="&#x1eb9;" horiz-adv-x="499" 
d="M44 0v560h414v-161h-242v-57h161v-121h-161v-60h247v-161h-419zM254 -208c-29 0 -52 8 -69 25c-15 16 -23 37 -24 63c0 26 8 47 24 63c17 17 40 25 69 25s51 -8 68 -25c16 -16 24 -37 24 -63s-8 -47 -23 -63c-17 -17 -40 -25 -69 -25z" />
    <glyph glyph-name="uni1EBA" unicode="&#x1eba;" horiz-adv-x="561" 
d="M44 0v700h476v-171h-293v-97h212v-158h-212v-103h298v-171h-481zM368 900c27 -48 12 -90 -44 -126c-24 -15 -47 -28 -70 -39l-29 80c19 8 36 17 49 26c15 9 21 16 18 20c-3 6 -26 -3 -67 -28l-38 72l61 35c57 14 97 1 120 -40z" />
    <glyph glyph-name="uni1EBB" unicode="&#x1ebb;" horiz-adv-x="499" 
d="M44 0v560h414v-161h-242v-57h161v-121h-161v-60h247v-161h-419zM337 760c27 -48 12 -90 -44 -126c-24 -15 -47 -28 -70 -39l-29 80c19 8 36 17 49 26c15 9 21 16 18 20c-3 6 -26 -3 -67 -28l-38 72l61 35c57 14 97 1 120 -40z" />
    <glyph glyph-name="uni1EBC" unicode="&#x1ebc;" horiz-adv-x="561" 
d="M44 0v700h476v-171h-293v-97h212v-158h-212v-103h298v-171h-481zM427 934l27 -132c-11 -23 -39 -34 -85 -34c-18 0 -42 4 -73 13s-56 13 -73 13c-34 0 -61 -9 -80 -27l-28 132c12 23 41 34 86 34c18 0 42 -4 73 -13s55 -13 73 -13c34 0 61 9 80 27z" />
    <glyph glyph-name="uni1EBD" unicode="&#x1ebd;" horiz-adv-x="499" 
d="M44 0v560h414v-161h-242v-57h161v-121h-161v-60h247v-161h-419zM396 794l27 -132c-11 -23 -39 -34 -85 -34c-18 0 -42 4 -73 13s-56 13 -73 13c-34 0 -61 -9 -80 -27l-28 132c12 23 41 34 86 34c18 0 42 -4 73 -13s55 -13 73 -13c34 0 61 9 80 27z" />
    <glyph glyph-name="uni1EBE" unicode="&#x1ebe;" horiz-adv-x="561" 
d="M44 0v700h476v-171h-293v-97h212v-158h-212v-103h298v-171h-481zM461 830l-81 -96l-96 68l-97 -68l-81 96l178 133zM528 927h-160l106 185l143 -41z" />
    <glyph glyph-name="uni1EBF" unicode="&#x1ebf;" horiz-adv-x="499" 
d="M44 0v560h414v-161h-242v-57h161v-121h-161v-60h247v-161h-419zM431 689l-81 -96l-96 68l-97 -68l-81 96l178 133zM494 801h-160l106 185l143 -41z" />
    <glyph glyph-name="uni1EC0" unicode="&#x1ec0;" horiz-adv-x="561" 
d="M44 0v700h476v-171h-293v-97h212v-158h-212v-103h298v-171h-481zM462 829l-81 -96l-96 68l-97 -68l-81 96l178 133zM454 1111l106 -185h-160l-89 144z" />
    <glyph glyph-name="uni1EC1" unicode="&#x1ec1;" horiz-adv-x="499" 
d="M44 0v560h414v-161h-242v-57h161v-121h-161v-60h247v-161h-419zM431 689l-81 -96l-96 68l-97 -68l-81 96l178 133zM427 964l106 -185h-160l-89 144z" />
    <glyph glyph-name="uni1EC2" unicode="&#x1ec2;" horiz-adv-x="561" 
d="M44 0v700h476v-171h-293v-97h212v-158h-212v-103h298v-171h-481zM462 827l-81 -96l-96 68l-97 -68l-81 96l178 133zM523 1054c27 -48 12 -90 -44 -126c-24 -15 -47 -28 -70 -39l-29 80c19 8 36 17 49 26c15 9 21 16 18 20c-3 6 -26 -3 -67 -28l-38 72l61 35
c57 14 97 1 120 -40z" />
    <glyph glyph-name="uni1EC3" unicode="&#x1ec3;" horiz-adv-x="499" 
d="M44 0v560h414v-161h-242v-57h161v-121h-161v-60h247v-161h-419zM431 689l-81 -96l-96 68l-97 -68l-81 96l178 133zM494 920c27 -48 12 -90 -44 -126c-24 -15 -47 -28 -70 -39l-29 80c19 8 36 17 49 26c15 9 21 16 18 20c-3 6 -26 -3 -67 -28l-38 72l61 35
c57 14 97 1 120 -40z" />
    <glyph glyph-name="uni1EC4" unicode="&#x1ec4;" horiz-adv-x="561" 
d="M44 0v700h476v-171h-293v-97h212v-158h-212v-103h298v-171h-481zM462 829l-81 -96l-96 68l-97 -68l-81 96l178 133zM483 1133l27 -132c-11 -23 -39 -34 -85 -34c-18 0 -42 4 -73 13s-56 13 -73 13c-34 0 -61 -9 -80 -27l-28 132c12 23 41 34 86 34c18 0 42 -4 73 -13
s55 -13 73 -13c34 0 61 9 80 27z" />
    <glyph glyph-name="uni1EC5" unicode="&#x1ec5;" horiz-adv-x="499" 
d="M44 0v560h414v-161h-242v-57h161v-121h-161v-60h247v-161h-419zM431 689l-81 -96l-96 68l-97 -68l-81 96l178 133zM395 1001l27 -132c-11 -23 -39 -34 -85 -34c-18 0 -42 4 -73 13s-56 13 -73 13c-34 0 -61 -9 -80 -27l-28 132c12 23 41 34 86 34c18 0 42 -4 73 -13
s55 -13 73 -13c34 0 61 9 80 27z" />
    <glyph glyph-name="uni1EC6" unicode="&#x1ec6;" horiz-adv-x="561" 
d="M44 0v700h476v-171h-293v-97h212v-158h-212v-103h298v-171h-481zM462 829l-81 -96l-96 68l-97 -68l-81 96l178 133zM285 -208c-29 0 -52 8 -69 25c-15 16 -23 37 -24 63c0 26 8 47 24 63c17 17 40 25 69 25s51 -8 68 -25c16 -16 24 -37 24 -63s-8 -47 -23 -63
c-17 -17 -40 -25 -69 -25z" />
    <glyph glyph-name="uni1EC7" unicode="&#x1ec7;" horiz-adv-x="499" 
d="M44 0v560h414v-161h-242v-57h161v-121h-161v-60h247v-161h-419zM431 689l-81 -96l-96 68l-97 -68l-81 96l178 133zM254 -208c-29 0 -52 8 -69 25c-15 16 -23 37 -24 63c0 26 8 47 24 63c17 17 40 25 69 25s51 -8 68 -25c16 -16 24 -37 24 -63s-8 -47 -23 -63
c-17 -17 -40 -25 -69 -25z" />
    <glyph glyph-name="uni1EC8" unicode="&#x1ec8;" horiz-adv-x="271" 
d="M44 0v700h183v-700h-183zM219 900c27 -48 12 -90 -44 -126c-24 -15 -47 -28 -70 -39l-29 80c19 8 36 17 49 26c15 9 21 16 18 20c-3 6 -26 -3 -67 -28l-38 72l61 35c57 14 97 1 120 -40z" />
    <glyph glyph-name="uni1EC9" unicode="&#x1ec9;" horiz-adv-x="260" 
d="M44 0v560h172v-560h-172zM213 760c27 -48 12 -90 -44 -126c-24 -15 -47 -28 -70 -39l-29 80c19 8 36 17 49 26c15 9 21 16 18 20c-3 6 -26 -3 -67 -28l-38 72l61 35c57 14 97 1 120 -40z" />
    <glyph glyph-name="uni1ECA" unicode="&#x1eca;" horiz-adv-x="271" 
d="M44 0v700h183v-700h-183zM136 -208c-29 0 -52 8 -69 25c-15 16 -23 37 -24 63c0 26 8 47 24 63c17 17 40 25 69 25s51 -8 68 -25c16 -16 24 -37 24 -63s-8 -47 -23 -63c-17 -17 -40 -25 -69 -25z" />
    <glyph glyph-name="uni1ECB" unicode="&#x1ecb;" horiz-adv-x="260" 
d="M44 0v560h172v-560h-172zM131 -208c-29 0 -52 8 -69 25c-15 16 -23 37 -24 63c0 26 8 47 24 63c17 17 40 25 69 25s51 -8 68 -25c16 -16 24 -37 24 -63s-8 -47 -23 -63c-17 -17 -40 -25 -69 -25z" />
    <glyph glyph-name="uni1ECC" unicode="&#x1ecc;" horiz-adv-x="708" 
d="M23 350c0 115 30 205 91 270c59 63 139 94 240 94s180 -31 239 -94c61 -65 92 -155 92 -270s-30 -204 -91 -269c-59 -63 -139 -95 -240 -95s-180 31 -239 94c-61 65 -92 155 -92 270zM208 351c0 -128 49 -192 146 -192c98 0 147 63 147 190c0 128 -49 192 -147 192
c-97 0 -146 -63 -146 -190zM355 -208c-29 0 -52 8 -69 25c-15 16 -23 37 -24 63c0 26 8 47 24 63c17 17 40 25 69 25s51 -8 68 -25c16 -16 24 -37 24 -63s-8 -47 -23 -63c-17 -17 -40 -25 -69 -25z" />
    <glyph glyph-name="uni1ECD" unicode="&#x1ecd;" horiz-adv-x="595" 
d="M23 281c0 92 25 164 76 215c49 50 115 75 199 75c83 0 150 -25 199 -75c50 -51 75 -123 75 -215s-25 -164 -75 -216c-49 -51 -116 -77 -199 -77c-84 0 -150 26 -199 77c-51 52 -76 124 -76 216zM198 280c0 -89 33 -133 100 -133c66 0 99 44 99 133s-33 133 -99 133
c-67 0 -100 -44 -100 -133zM298 -208c-29 0 -52 8 -69 25c-15 16 -23 37 -24 63c0 26 8 47 24 63c17 17 40 25 69 25s51 -8 68 -25c16 -16 24 -37 24 -63s-8 -47 -23 -63c-17 -17 -40 -25 -69 -25z" />
    <glyph glyph-name="uni1ECE" unicode="&#x1ece;" horiz-adv-x="708" 
d="M23 350c0 115 30 205 91 270c59 63 139 94 240 94s180 -31 239 -94c61 -65 92 -155 92 -270s-30 -204 -91 -269c-59 -63 -139 -95 -240 -95s-180 31 -239 94c-61 65 -92 155 -92 270zM208 351c0 -128 49 -192 146 -192c98 0 147 63 147 190c0 128 -49 192 -147 192
c-97 0 -146 -63 -146 -190zM437 900c27 -48 12 -90 -44 -126c-24 -15 -47 -28 -70 -39l-29 80c19 8 36 17 49 26c15 9 21 16 18 20c-3 6 -26 -3 -67 -28l-38 72l61 35c57 14 97 1 120 -40z" />
    <glyph glyph-name="uni1ECF" unicode="&#x1ecf;" horiz-adv-x="595" 
d="M23 281c0 92 25 164 76 215c49 50 115 75 199 75c83 0 150 -25 199 -75c50 -51 75 -123 75 -215s-25 -164 -75 -216c-49 -51 -116 -77 -199 -77c-84 0 -150 26 -199 77c-51 52 -76 124 -76 216zM198 280c0 -89 33 -133 100 -133c66 0 99 44 99 133s-33 133 -99 133
c-67 0 -100 -44 -100 -133zM381 760c27 -48 12 -90 -44 -126c-24 -15 -47 -28 -70 -39l-29 80c19 8 36 17 49 26c15 9 21 16 18 20c-3 6 -26 -3 -67 -28l-38 72l61 35c57 14 97 1 120 -40z" />
    <glyph glyph-name="uni1ED0" unicode="&#x1ed0;" horiz-adv-x="708" 
d="M23 350c0 115 30 205 91 270c59 63 139 94 240 94s180 -31 239 -94c61 -65 92 -155 92 -270s-30 -204 -91 -269c-59 -63 -139 -95 -240 -95s-180 31 -239 94c-61 65 -92 155 -92 270zM208 351c0 -128 49 -192 146 -192c98 0 147 63 147 190c0 128 -49 192 -147 192
c-97 0 -146 -63 -146 -190zM531 830l-81 -96l-96 68l-97 -68l-81 96l178 133zM598 927h-160l106 185l143 -41z" />
    <glyph glyph-name="uni1ED1" unicode="&#x1ed1;" horiz-adv-x="595" 
d="M23 281c0 92 25 164 76 215c49 50 115 75 199 75c83 0 150 -25 199 -75c50 -51 75 -123 75 -215s-25 -164 -75 -216c-49 -51 -116 -77 -199 -77c-84 0 -150 26 -199 77c-51 52 -76 124 -76 216zM198 280c0 -89 33 -133 100 -133c66 0 99 44 99 133s-33 133 -99 133
c-67 0 -100 -44 -100 -133zM475 689l-81 -96l-96 68l-97 -68l-81 96l178 133zM548 797h-160l106 185l143 -41z" />
    <glyph glyph-name="uni1ED2" unicode="&#x1ed2;" horiz-adv-x="708" 
d="M23 350c0 115 30 205 91 270c59 63 139 94 240 94s180 -31 239 -94c61 -65 92 -155 92 -270s-30 -204 -91 -269c-59 -63 -139 -95 -240 -95s-180 31 -239 94c-61 65 -92 155 -92 270zM208 351c0 -128 49 -192 146 -192c98 0 147 63 147 190c0 128 -49 192 -147 192
c-97 0 -146 -63 -146 -190zM532 829l-81 -96l-96 68l-97 -68l-81 96l178 133zM524 1111l106 -185h-160l-89 144z" />
    <glyph glyph-name="uni1ED3" unicode="&#x1ed3;" horiz-adv-x="595" 
d="M23 281c0 92 25 164 76 215c49 50 115 75 199 75c83 0 150 -25 199 -75c50 -51 75 -123 75 -215s-25 -164 -75 -216c-49 -51 -116 -77 -199 -77c-84 0 -150 26 -199 77c-51 52 -76 124 -76 216zM198 280c0 -89 33 -133 100 -133c66 0 99 44 99 133s-33 133 -99 133
c-67 0 -100 -44 -100 -133zM475 689l-81 -96l-96 68l-97 -68l-81 96l178 133zM490 968l106 -185h-160l-89 144z" />
    <glyph glyph-name="uni1ED4" unicode="&#x1ed4;" horiz-adv-x="708" 
d="M23 350c0 115 30 205 91 270c59 63 139 94 240 94s180 -31 239 -94c61 -65 92 -155 92 -270s-30 -204 -91 -269c-59 -63 -139 -95 -240 -95s-180 31 -239 94c-61 65 -92 155 -92 270zM208 351c0 -128 49 -192 146 -192c98 0 147 63 147 190c0 128 -49 192 -147 192
c-97 0 -146 -63 -146 -190zM532 827l-81 -96l-96 68l-97 -68l-81 96l178 133zM593 1054c27 -48 12 -90 -44 -126c-24 -15 -47 -28 -70 -39l-29 80c19 8 36 17 49 26c15 9 21 16 18 20c-3 6 -26 -3 -67 -28l-38 72l61 35c57 14 97 1 120 -40z" />
    <glyph glyph-name="uni1ED5" unicode="&#x1ed5;" horiz-adv-x="595" 
d="M23 281c0 92 25 164 76 215c49 50 115 75 199 75c83 0 150 -25 199 -75c50 -51 75 -123 75 -215s-25 -164 -75 -216c-49 -51 -116 -77 -199 -77c-84 0 -150 26 -199 77c-51 52 -76 124 -76 216zM198 280c0 -89 33 -133 100 -133c66 0 99 44 99 133s-33 133 -99 133
c-67 0 -100 -44 -100 -133zM475 689l-81 -96l-96 68l-97 -68l-81 96l178 133zM527 943c27 -48 12 -90 -44 -126c-24 -15 -47 -28 -70 -39l-29 80c19 8 36 17 49 26c15 9 21 16 18 20c-3 6 -26 -3 -67 -28l-38 72l61 35c57 14 97 1 120 -40z" />
    <glyph glyph-name="uni1ED6" unicode="&#x1ed6;" horiz-adv-x="708" 
d="M23 350c0 115 30 205 91 270c59 63 139 94 240 94s180 -31 239 -94c61 -65 92 -155 92 -270s-30 -204 -91 -269c-59 -63 -139 -95 -240 -95s-180 31 -239 94c-61 65 -92 155 -92 270zM208 351c0 -128 49 -192 146 -192c98 0 147 63 147 190c0 128 -49 192 -147 192
c-97 0 -146 -63 -146 -190zM532 829l-81 -96l-96 68l-97 -68l-81 96l178 133zM553 1133l27 -132c-11 -23 -39 -34 -85 -34c-18 0 -42 4 -73 13s-56 13 -73 13c-34 0 -61 -9 -80 -27l-28 132c12 23 41 34 86 34c18 0 42 -4 73 -13s55 -13 73 -13c34 0 61 9 80 27z" />
    <glyph glyph-name="uni1ED7" unicode="&#x1ed7;" horiz-adv-x="595" 
d="M23 281c0 92 25 164 76 215c49 50 115 75 199 75c83 0 150 -25 199 -75c50 -51 75 -123 75 -215s-25 -164 -75 -216c-49 -51 -116 -77 -199 -77c-84 0 -150 26 -199 77c-51 52 -76 124 -76 216zM198 280c0 -89 33 -133 100 -133c66 0 99 44 99 133s-33 133 -99 133
c-67 0 -100 -44 -100 -133zM475 689l-81 -96l-96 68l-97 -68l-81 96l178 133zM445 996l27 -132c-11 -23 -39 -34 -85 -34c-18 0 -42 4 -73 13s-56 13 -73 13c-34 0 -61 -9 -80 -27l-28 132c12 23 41 34 86 34c18 0 42 -4 73 -13s55 -13 73 -13c34 0 61 9 80 27z" />
    <glyph glyph-name="uni1ED8" unicode="&#x1ed8;" horiz-adv-x="708" 
d="M23 350c0 115 30 205 91 270c59 63 139 94 240 94s180 -31 239 -94c61 -65 92 -155 92 -270s-30 -204 -91 -269c-59 -63 -139 -95 -240 -95s-180 31 -239 94c-61 65 -92 155 -92 270zM208 351c0 -128 49 -192 146 -192c98 0 147 63 147 190c0 128 -49 192 -147 192
c-97 0 -146 -63 -146 -190zM532 829l-81 -96l-96 68l-97 -68l-81 96l178 133zM355 -208c-29 0 -52 8 -69 25c-15 16 -23 37 -24 63c0 26 8 47 24 63c17 17 40 25 69 25s51 -8 68 -25c16 -16 24 -37 24 -63s-8 -47 -23 -63c-17 -17 -40 -25 -69 -25z" />
    <glyph glyph-name="uni1ED9" unicode="&#x1ed9;" horiz-adv-x="595" 
d="M23 281c0 92 25 164 76 215c49 50 115 75 199 75c83 0 150 -25 199 -75c50 -51 75 -123 75 -215s-25 -164 -75 -216c-49 -51 -116 -77 -199 -77c-84 0 -150 26 -199 77c-51 52 -76 124 -76 216zM198 280c0 -89 33 -133 100 -133c66 0 99 44 99 133s-33 133 -99 133
c-67 0 -100 -44 -100 -133zM475 689l-81 -96l-96 68l-97 -68l-81 96l178 133zM298 -208c-29 0 -52 8 -69 25c-15 16 -23 37 -24 63c0 26 8 47 24 63c17 17 40 25 69 25s51 -8 68 -25c16 -16 24 -37 24 -63s-8 -47 -23 -63c-17 -17 -40 -25 -69 -25z" />
    <glyph glyph-name="uni1EDB" unicode="&#x1edb;" horiz-adv-x="660" 
d="M298 147c66 0 99 44 99 133s-33 133 -99 133c-67 0 -100 -44 -100 -133s33 -133 100 -133zM563 371c6 -27 9 -57 9 -90c0 -92 -25 -164 -75 -216c-49 -51 -116 -77 -199 -77c-84 0 -150 26 -199 77c-51 52 -76 124 -76 216s25 164 76 215c49 50 115 75 199 75
c83 0 150 -25 199 -75c9 -9 16 -18 23 -28c19 9 29 28 29 55v37h98v-39c2 -77 -26 -127 -84 -150zM372 618h-160l106 185l143 -41z" />
    <glyph glyph-name="uni1EDA" unicode="&#x1eda;" horiz-adv-x="744" 
d="M354 159c98 0 147 63 147 190c0 128 -49 192 -147 192c-97 0 -146 -63 -146 -190c0 -128 49 -192 146 -192zM658 515c18 -47 27 -102 27 -165c0 -115 -30 -204 -91 -269c-59 -63 -139 -95 -240 -95s-180 31 -239 94c-61 65 -92 155 -92 270s30 205 91 270
c59 63 139 94 240 94s180 -31 239 -94c4 -4 8 -8 11 -13c19 10 28 28 28 55v37h98v-39c2 -71 -22 -119 -72 -145zM454 758h-160l106 185l143 -41z" />
    <glyph glyph-name="uni1EDC" unicode="&#x1edc;" horiz-adv-x="744" 
d="M354 159c98 0 147 63 147 190c0 128 -49 192 -147 192c-97 0 -146 -63 -146 -190c0 -128 49 -192 146 -192zM658 515c18 -47 27 -102 27 -165c0 -115 -30 -204 -91 -269c-59 -63 -139 -95 -240 -95s-180 31 -239 94c-61 65 -92 155 -92 270s30 205 91 270
c59 63 139 94 240 94s180 -31 239 -94c4 -4 8 -8 11 -13c19 10 28 28 28 55v37h98v-39c2 -71 -22 -119 -72 -145zM354 942l106 -185h-160l-89 144z" />
    <glyph glyph-name="uni1EDE" unicode="&#x1ede;" horiz-adv-x="744" 
d="M354 159c98 0 147 63 147 190c0 128 -49 192 -147 192c-97 0 -146 -63 -146 -190c0 -128 49 -192 146 -192zM658 515c18 -47 27 -102 27 -165c0 -115 -30 -204 -91 -269c-59 -63 -139 -95 -240 -95s-180 31 -239 94c-61 65 -92 155 -92 270s30 205 91 270
c59 63 139 94 240 94s180 -31 239 -94c4 -4 8 -8 11 -13c19 10 28 28 28 55v37h98v-39c2 -71 -22 -119 -72 -145zM460 900c27 -48 12 -90 -44 -126c-24 -15 -47 -28 -70 -39l-29 80c19 8 36 17 49 26c15 9 21 16 18 20c-3 6 -26 -3 -67 -28l-38 72l61 35c57 14 97 1 120 -40
z" />
    <glyph glyph-name="uni1EDF" unicode="&#x1edf;" horiz-adv-x="660" 
d="M298 147c66 0 99 44 99 133s-33 133 -99 133c-67 0 -100 -44 -100 -133s33 -133 100 -133zM563 371c6 -27 9 -57 9 -90c0 -92 -25 -164 -75 -216c-49 -51 -116 -77 -199 -77c-84 0 -150 26 -199 77c-51 52 -76 124 -76 216s25 164 76 215c49 50 115 75 199 75
c83 0 150 -25 199 -75c9 -9 16 -18 23 -28c19 9 29 28 29 55v37h98v-39c2 -77 -26 -127 -84 -150zM401 760c27 -48 12 -90 -44 -126c-24 -15 -47 -28 -70 -39l-29 80c19 8 36 17 49 26c15 9 21 16 18 20c-3 6 -26 -3 -67 -28l-38 72l61 35c57 14 97 1 120 -40z" />
    <glyph glyph-name="uni1EE0" unicode="&#x1ee0;" horiz-adv-x="744" 
d="M354 159c98 0 147 63 147 190c0 128 -49 192 -147 192c-97 0 -146 -63 -146 -190c0 -128 49 -192 146 -192zM658 515c18 -47 27 -102 27 -165c0 -115 -30 -204 -91 -269c-59 -63 -139 -95 -240 -95s-180 31 -239 94c-61 65 -92 155 -92 270s30 205 91 270
c59 63 139 94 240 94s180 -31 239 -94c4 -4 8 -8 11 -13c19 10 28 28 28 55v37h98v-39c2 -71 -22 -119 -72 -145zM519 934l27 -132c-11 -23 -39 -34 -85 -34c-18 0 -42 4 -73 13s-56 13 -73 13c-34 0 -61 -9 -80 -27l-28 132c12 23 41 34 86 34c18 0 42 -4 73 -13
s55 -13 73 -13c34 0 61 9 80 27z" />
    <glyph glyph-name="uni1EE1" unicode="&#x1ee1;" horiz-adv-x="660" 
d="M298 147c66 0 99 44 99 133s-33 133 -99 133c-67 0 -100 -44 -100 -133s33 -133 100 -133zM563 371c6 -27 9 -57 9 -90c0 -92 -25 -164 -75 -216c-49 -51 -116 -77 -199 -77c-84 0 -150 26 -199 77c-51 52 -76 124 -76 216s25 164 76 215c49 50 115 75 199 75
c83 0 150 -25 199 -75c9 -9 16 -18 23 -28c19 9 29 28 29 55v37h98v-39c2 -77 -26 -127 -84 -150zM441 794l27 -132c-11 -23 -39 -34 -85 -34c-18 0 -42 4 -73 13s-56 13 -73 13c-34 0 -61 -9 -80 -27l-28 132c12 23 41 34 86 34c18 0 42 -4 73 -13s55 -13 73 -13
c34 0 61 9 80 27z" />
    </font>
</defs>
</svg>
