<?xml version="1.0" standalone="no"?>
<!DOCTYPE svg PUBLIC "-//W3C//DTD SVG 1.1//EN" "http://www.w3.org/Graphics/SVG/1.1/DTD/svg11.dtd" >
<svg xmlns="http://www.w3.org/2000/svg" xmlns:xlink="http://www.w3.org/1999/xlink" version="1.1">
<metadata>
Created by FontForge 20150913 at Wed Apr 27 06:16:02 2016
 By Jimmy Wärting
Copyright \(c\) 2013 by Jan Tonellato. All rights reserved.
</metadata>
<defs>
<font id="iCielNovecentosans-Light" horiz-adv-x="623" >
  <font-face 
    font-family="iCiel Novecento sans"
    font-weight="300"
    font-stretch="normal"
    units-per-em="1000"
    panose-1="0 0 4 0 0 0 0 0 0 0"
    ascent="821"
    descent="-179"
    x-height="560"
    cap-height="700"
    bbox="-371 -211 1048 1015"
    underline-thickness="34"
    underline-position="-129"
    stemh="31"
    stemv="33"
    unicode-range="U+0020-F8FF"
  />
<missing-glyph horiz-adv-x="614" 
d="M80 85v530c0 26 8 47 24 62s36 23 61 23h284c25 0 45 -8 61 -23s24 -36 24 -62v-530c0 -27 -8 -48 -24 -63c-15 -15 -36 -22 -61 -22h-284c-25 0 -46 7 -61 22c-16 15 -24 36 -24 63zM177 22h260c49 0 74 25 74 76v504c0 51 -28 76 -84 76h-240c-31 0 -53 -6 -66 -17
c-12 -11 -18 -31 -18 -59v-504c0 -51 25 -76 74 -76zM330 356l120 -129l-25 -23l-118 127l-119 -126l-24 22l120 129l-120 129l24 22l119 -126l118 126l25 -23z" />
    <glyph glyph-name=".notdef" horiz-adv-x="614" 
d="M80 85v530c0 26 8 47 24 62s36 23 61 23h284c25 0 45 -8 61 -23s24 -36 24 -62v-530c0 -27 -8 -48 -24 -63c-15 -15 -36 -22 -61 -22h-284c-25 0 -46 7 -61 22c-16 15 -24 36 -24 63zM177 22h260c49 0 74 25 74 76v504c0 51 -28 76 -84 76h-240c-31 0 -53 -6 -66 -17
c-12 -11 -18 -31 -18 -59v-504c0 -51 25 -76 74 -76zM330 356l120 -129l-25 -23l-118 127l-119 -126l-24 22l120 129l-120 129l24 22l119 -126l118 126l25 -23z" />
    <glyph glyph-name="A" unicode="A" horiz-adv-x="632" 
d="M484 216h-336l-83 -216h-40l271 700h41l270 -700h-40zM470 251l-81 212c-52 134 -76 199 -72 195h-2c1 1 -23 -64 -72 -194l-82 -213h309z" />
    <glyph glyph-name="Aacute" unicode="&#xc1;" horiz-adv-x="632" 
d="M318 754h-38l91 149l35 -11zM484 216h-336l-83 -216h-40l271 700h41l270 -700h-40zM470 251l-81 212c-52 134 -76 199 -72 195h-2c1 1 -23 -64 -72 -194l-82 -213h309z" />
    <glyph glyph-name="Abreve" unicode="&#x102;" horiz-adv-x="632" 
d="M317 745c-37 0 -67 11 -91 34c-23 21 -35 48 -36 81h32c4 -56 36 -84 95 -84c29 0 53 9 70 27c15 15 23 34 24 57h33c-1 -32 -13 -59 -36 -80c-24 -23 -54 -35 -91 -35zM484 216h-336l-83 -216h-40l271 700h41l270 -700h-40zM470 251l-81 212c-52 134 -76 199 -72 195h-2
c1 1 -23 -64 -72 -194l-82 -213h309z" />
    <glyph glyph-name="Acircumflex" unicode="&#xc2;" horiz-adv-x="632" 
d="M221 723l-22 22l117 110l116 -110l-22 -23l-94 90zM484 216h-336l-83 -216h-40l271 700h41l270 -700h-40zM470 251l-81 212c-52 134 -76 199 -72 195h-2c1 1 -23 -64 -72 -194l-82 -213h309z" />
    <glyph glyph-name="Adieresis" unicode="&#xc4;" horiz-adv-x="632" 
d="M236 782c-20 0 -30 11 -30 33c0 21 10 32 30 32c21 0 31 -11 31 -32c0 -22 -10 -33 -31 -33zM396 782c-21 0 -31 11 -31 33c0 21 10 32 31 32c20 0 30 -11 30 -32c0 -22 -10 -33 -30 -33zM484 216h-336l-83 -216h-40l271 700h41l270 -700h-40zM470 251l-81 212
c-52 134 -76 199 -72 195h-2c1 1 -23 -64 -72 -194l-82 -213h309z" />
    <glyph glyph-name="Agrave" unicode="&#xc0;" horiz-adv-x="632" 
d="M308 754l-87 138l35 11l90 -149h-38zM484 216h-336l-83 -216h-40l271 700h41l270 -700h-40zM470 251l-81 212c-52 134 -76 199 -72 195h-2c1 1 -23 -64 -72 -194l-82 -213h309z" />
    <glyph glyph-name="Amacron" unicode="&#x100;" horiz-adv-x="632" 
d="M441 785h-251v34h251v-34zM484 216h-336l-83 -216h-40l271 700h41l270 -700h-40zM470 251l-81 212c-52 134 -76 199 -72 195h-2c1 1 -23 -64 -72 -194l-82 -213h309z" />
    <glyph glyph-name="Aogonek" unicode="&#x104;" horiz-adv-x="632" 
d="M538 -136c31 0 57 6 77 18v-35c-21 -11 -47 -17 -80 -17c-31 0 -56 8 -75 24c-20 17 -30 39 -30 68c0 65 42 101 125 108l-71 186h-336l-83 -216h-40l271 700h41l270 -700h-21c-81 0 -121 -26 -121 -77c0 -39 24 -59 73 -59zM470 251l-81 212c-52 134 -76 199 -72 195h-2
c1 1 -23 -64 -72 -194l-82 -213h309z" />
    <glyph glyph-name="Aring" unicode="&#xc5;" horiz-adv-x="632" 
d="M316 743c-24 0 -43 8 -58 23s-22 34 -22 57s7 42 22 57s34 23 58 23c23 0 43 -8 58 -23s22 -34 22 -57s-7 -42 -22 -57s-34 -23 -58 -23zM316 875c-33 0 -50 -17 -50 -52s17 -52 50 -52s50 17 50 52s-17 52 -50 52zM484 216h-336l-83 -216h-40l271 700h41l270 -700h-40z
M470 251l-81 212c-52 134 -76 199 -72 195h-2c1 1 -23 -64 -72 -194l-82 -213h309z" />
    <glyph glyph-name="Atilde" unicode="&#xc3;" horiz-adv-x="632" 
d="M255 819c-25 0 -43 -8 -56 -24l-12 28c17 21 39 31 66 31c17 0 37 -6 61 -17c24 -12 44 -18 61 -18c23 0 41 8 55 23l13 -28c-15 -19 -38 -29 -67 -29c-17 0 -38 6 -62 17s-44 17 -59 17zM484 216h-336l-83 -216h-40l271 700h41l270 -700h-40zM470 251l-81 212
c-52 134 -76 199 -72 195h-2c1 1 -23 -64 -72 -194l-82 -213h309z" />
    <glyph glyph-name="AE" unicode="&#xc6;" horiz-adv-x="862" 
d="M814 36v-36h-402v221h-262l-85 -221h-40l271 700h517v-36h-364v-276h292v-35h-292v-317h365zM412 255v409h-93l-156 -409h249z" />
    <glyph glyph-name="B" unicode="B" horiz-adv-x="561" 
d="M359 376v-3c38 -3 72 -18 102 -43c41 -34 61 -81 61 -141s-19 -107 -58 -140c-38 -33 -92 -49 -161 -49h-223v700h194c63 0 112 -15 148 -46c35 -30 52 -71 52 -122c0 -47 -13 -85 -39 -113c-20 -23 -45 -37 -76 -43zM118 387h163c46 0 83 12 111 35c30 25 45 61 45 107
c0 43 -15 76 -45 100c-29 24 -70 36 -123 36h-151v-278zM118 35h186c55 0 99 13 131 39c33 27 49 65 49 114c0 51 -18 92 -55 123c-35 29 -78 43 -130 43h-181v-319z" />
    <glyph glyph-name="C" unicode="C" horiz-adv-x="683" 
d="M600 199l36 -9c-48 -134 -143 -201 -284 -201c-93 0 -168 32 -225 96c-58 66 -87 155 -87 267c0 113 29 203 87 268c57 62 132 93 225 93c71 0 131 -19 182 -56c44 -33 75 -75 94 -128l-36 -11c-11 39 -34 72 -68 101c-45 38 -102 57 -171 57c-84 0 -150 -28 -199 -84
c-50 -58 -75 -138 -75 -240c0 -103 26 -184 77 -243c49 -56 114 -84 195 -84c122 0 205 58 249 174z" />
    <glyph glyph-name="Cacute" unicode="&#x106;" horiz-adv-x="683" 
d="M354 754h-38l91 149l35 -11zM600 199l36 -9c-48 -134 -143 -201 -284 -201c-93 0 -168 32 -225 96c-58 66 -87 155 -87 267c0 113 29 203 87 268c57 62 132 93 225 93c71 0 131 -19 182 -56c44 -33 75 -75 94 -128l-36 -11c-11 39 -34 72 -68 101c-45 38 -102 57 -171 57
c-84 0 -150 -28 -199 -84c-50 -58 -75 -138 -75 -240c0 -103 26 -184 77 -243c49 -56 114 -84 195 -84c122 0 205 58 249 174z" />
    <glyph glyph-name="Cacute.loclPLK" horiz-adv-x="683" 
d="M362 754h-36l50 162l34 -10zM600 199l36 -9c-48 -134 -143 -201 -284 -201c-93 0 -168 32 -225 96c-58 66 -87 155 -87 267c0 113 29 203 87 268c57 62 132 93 225 93c71 0 131 -19 182 -56c44 -33 75 -75 94 -128l-36 -11c-11 39 -34 72 -68 101c-45 38 -102 57 -171 57
c-84 0 -150 -28 -199 -84c-50 -58 -75 -138 -75 -240c0 -103 26 -184 77 -243c49 -56 114 -84 195 -84c122 0 205 58 249 174z" />
    <glyph glyph-name="Ccaron" unicode="&#x10c;" horiz-adv-x="683" 
d="M236 873l22 23l95 -91l95 91l22 -23l-117 -110zM600 199l36 -9c-48 -134 -143 -201 -284 -201c-93 0 -168 32 -225 96c-58 66 -87 155 -87 267c0 113 29 203 87 268c57 62 132 93 225 93c71 0 131 -19 182 -56c44 -33 75 -75 94 -128l-36 -11c-11 39 -34 72 -68 101
c-45 38 -102 57 -171 57c-84 0 -150 -28 -199 -84c-50 -58 -75 -138 -75 -240c0 -103 26 -184 77 -243c49 -56 114 -84 195 -84c122 0 205 58 249 174z" />
    <glyph glyph-name="Ccedilla" unicode="&#xc7;" horiz-adv-x="683" 
d="M600 199l36 -9c-47 -130 -138 -197 -273 -201v-8c63 -7 95 -32 95 -76c0 -50 -32 -75 -96 -75c-29 0 -53 5 -70 16v33c15 -11 37 -16 66 -16c44 0 66 15 66 45c0 31 -32 48 -95 50v31c-87 5 -156 40 -209 104c-53 65 -80 152 -80 259c0 113 29 203 87 268
c57 62 132 93 225 93c71 0 131 -19 182 -56c44 -33 75 -75 94 -128l-36 -11c-11 39 -34 72 -68 101c-45 38 -102 57 -171 57c-84 0 -150 -28 -199 -84c-50 -58 -75 -138 -75 -240c0 -103 26 -184 77 -243c49 -56 114 -84 195 -84c122 0 205 58 249 174z" />
    <glyph glyph-name="Ccircumflex" unicode="&#x108;" horiz-adv-x="683" 
d="M468 787l-22 -23l-94 90l-95 -89l-22 22l117 110zM600 199l36 -9c-48 -134 -143 -201 -284 -201c-93 0 -168 32 -225 96c-58 66 -87 155 -87 267c0 113 29 203 87 268c57 62 132 93 225 93c71 0 131 -19 182 -56c44 -33 75 -75 94 -128l-36 -11c-11 39 -34 72 -68 101
c-45 38 -102 57 -171 57c-84 0 -150 -28 -199 -84c-50 -58 -75 -138 -75 -240c0 -103 26 -184 77 -243c49 -56 114 -84 195 -84c122 0 205 58 249 174z" />
    <glyph glyph-name="Cdotaccent" unicode="&#x10a;" horiz-adv-x="683" 
d="M352 782c-21 0 -31 11 -31 33c0 21 10 32 31 32c20 0 30 -11 30 -32c0 -22 -10 -33 -30 -33zM600 199l36 -9c-48 -134 -143 -201 -284 -201c-93 0 -168 32 -225 96c-58 66 -87 155 -87 267c0 113 29 203 87 268c57 62 132 93 225 93c71 0 131 -19 182 -56
c44 -33 75 -75 94 -128l-36 -11c-11 39 -34 72 -68 101c-45 38 -102 57 -171 57c-84 0 -150 -28 -199 -84c-50 -58 -75 -138 -75 -240c0 -103 26 -184 77 -243c49 -56 114 -84 195 -84c122 0 205 58 249 174z" />
    <glyph glyph-name="D" unicode="D" horiz-adv-x="640" 
d="M80 700h188c103 0 184 -31 243 -94s89 -149 89 -260c0 -109 -29 -195 -88 -256c-57 -60 -136 -90 -235 -90h-197v700zM118 36h158c87 0 156 26 207 79c52 55 78 131 78 229c0 103 -27 183 -80 239c-51 54 -123 81 -214 81h-149v-628z" />
    <glyph glyph-name="Eth" unicode="&#xd0;" horiz-adv-x="640" 
d="M80 700h188c103 0 185 -31 244 -94s88 -149 88 -260c0 -109 -29 -195 -88 -256c-57 -60 -136 -90 -235 -90h-197v352h-68v36h68v312zM118 36h158c87 0 156 26 207 79c52 55 78 131 78 229c0 103 -27 183 -80 239c-51 54 -123 81 -214 81h-149v-276h170v-36h-170v-316z
" />
    <glyph glyph-name="Dcaron" unicode="&#x10e;" horiz-adv-x="640" 
d="M193 873l22 23l95 -91l95 91l22 -23l-117 -110zM80 700h188c103 0 184 -31 243 -94s89 -149 89 -260c0 -109 -29 -195 -88 -256c-57 -60 -136 -90 -235 -90h-197v700zM118 36h158c87 0 156 26 207 79c52 55 78 131 78 229c0 103 -27 183 -80 239c-51 54 -123 81 -214 81
h-149v-628z" />
    <glyph glyph-name="Dcroat" unicode="&#x110;" horiz-adv-x="640" 
d="M80 700h188c103 0 185 -31 244 -94s88 -149 88 -260c0 -109 -29 -195 -88 -256c-57 -60 -136 -90 -235 -90h-197v352h-68v36h68v312zM118 36h158c87 0 156 26 207 79c52 55 78 131 78 229c0 103 -27 183 -80 239c-51 54 -123 81 -214 81h-149v-276h170v-36h-170v-316z
" />
    <glyph glyph-name="E" unicode="E" horiz-adv-x="531" 
d="M80 0v700h403v-36h-365v-276h292v-36h-292v-316h365v-36h-403z" />
    <glyph glyph-name="Eacute" unicode="&#xc9;" horiz-adv-x="531" 
d="M286 754h-38l91 149l35 -11zM80 0v700h403v-36h-365v-276h292v-36h-292v-316h365v-36h-403z" />
    <glyph glyph-name="Ecaron" unicode="&#x11a;" horiz-adv-x="531" 
d="M168 873l22 23l95 -91l95 91l22 -23l-117 -110zM80 0v700h403v-36h-365v-276h292v-36h-292v-316h365v-36h-403z" />
    <glyph glyph-name="Ecircumflex" unicode="&#xca;" horiz-adv-x="531" 
d="M400 787l-22 -23l-94 90l-95 -89l-22 22l117 110zM80 0v700h403v-36h-365v-276h292v-36h-292v-316h365v-36h-403z" />
    <glyph glyph-name="Edieresis" unicode="&#xcb;" horiz-adv-x="531" 
d="M204 782c-20 0 -30 11 -30 33c0 21 10 32 30 32c21 0 31 -11 31 -32c0 -22 -10 -33 -31 -33zM364 782c-21 0 -31 11 -31 33c0 21 10 32 31 32s31 -11 31 -32c0 -22 -10 -33 -31 -33zM80 0v700h403v-36h-365v-276h292v-36h-292v-316h365v-36h-403z" />
    <glyph glyph-name="Edotaccent" unicode="&#x116;" horiz-adv-x="531" 
d="M284 782c-21 0 -31 11 -31 33c0 21 10 32 31 32c20 0 30 -11 30 -32c0 -22 -10 -33 -30 -33zM80 0v700h403v-36h-365v-276h292v-36h-292v-316h365v-36h-403z" />
    <glyph glyph-name="Egrave" unicode="&#xc8;" horiz-adv-x="531" 
d="M224 903l90 -149h-38l-87 138zM80 0v700h403v-36h-365v-276h292v-36h-292v-316h365v-36h-403z" />
    <glyph glyph-name="Emacron" unicode="&#x112;" horiz-adv-x="531" 
d="M409 785h-251v34h251v-34zM80 0v700h403v-36h-365v-276h292v-36h-292v-316h365v-36h-403z" />
    <glyph glyph-name="Eogonek" unicode="&#x118;" horiz-adv-x="531" 
d="M429 -136c29 0 51 6 67 17v-35c-18 -11 -41 -16 -69 -16c-31 0 -55 9 -73 26c-17 17 -25 38 -25 65c0 35 15 62 44 79h-293v700h403v-36h-365v-276h292v-36h-292v-316h365v-36h-28c-61 -6 -92 -31 -92 -76c0 -40 22 -60 66 -60z" />
    <glyph glyph-name="F" unicode="F" horiz-adv-x="516" 
d="M482 664h-364v-286h290v-36h-290v-342h-38v700h402v-36z" />
    <glyph glyph-name="G" unicode="G" horiz-adv-x="699" 
d="M637 0h-36c0 37 0 67 1 89l1 27h-2c-55 -85 -139 -127 -250 -127c-92 0 -166 32 -223 96c-59 66 -88 155 -88 266c0 114 29 203 88 268c57 63 132 94 226 94c71 0 131 -19 181 -56c45 -33 76 -75 94 -128l-36 -11c-11 39 -33 72 -67 101c-45 38 -102 57 -171 57
c-85 0 -152 -28 -201 -84c-51 -58 -76 -138 -75 -240c0 -103 26 -184 77 -243c49 -56 115 -84 197 -84c61 0 116 17 165 51c41 28 68 60 83 96v140h-199v36h235v-348z" />
    <glyph glyph-name="Gbreve" unicode="&#x11e;" horiz-adv-x="699" 
d="M226 860h33c1 -24 10 -43 25 -58c17 -17 40 -26 69 -26s53 9 70 27c15 15 23 34 25 57h32c-1 -32 -13 -59 -35 -80c-24 -23 -55 -35 -92 -35s-67 11 -90 34c-23 21 -36 48 -37 81zM637 0h-36c0 37 0 67 1 89l1 27h-2c-55 -85 -139 -127 -250 -127c-92 0 -166 32 -223 96
c-59 66 -88 155 -88 266c0 114 29 203 88 268c57 63 132 94 226 94c71 0 131 -19 181 -56c45 -33 76 -75 94 -128l-36 -11c-11 39 -33 72 -67 101c-45 38 -102 57 -171 57c-85 0 -152 -28 -201 -84c-51 -58 -76 -138 -75 -240c0 -103 26 -184 77 -243
c49 -56 115 -84 197 -84c61 0 116 17 165 51c41 28 68 60 83 96v140h-199v36h235v-348z" />
    <glyph glyph-name="Gcircumflex" unicode="&#x11c;" horiz-adv-x="699" 
d="M468 787l-22 -23l-94 90l-95 -89l-22 22l117 110zM637 0h-36c0 37 0 67 1 89l1 27h-2c-55 -85 -139 -127 -250 -127c-92 0 -166 32 -223 96c-59 66 -88 155 -88 266c0 114 29 203 88 268c57 63 132 94 226 94c71 0 131 -19 181 -56c45 -33 76 -75 94 -128l-36 -11
c-11 39 -33 72 -67 101c-45 38 -102 57 -171 57c-85 0 -152 -28 -201 -84c-51 -58 -76 -138 -75 -240c0 -103 26 -184 77 -243c49 -56 115 -84 197 -84c61 0 116 17 165 51c41 28 68 60 83 96v140h-199v36h235v-348z" />
    <glyph glyph-name="uni0122" unicode="&#x122;" horiz-adv-x="699" 
d="M637 0h-36c0 37 0 67 1 89l1 27h-2c-55 -85 -139 -127 -250 -127c-92 0 -166 32 -223 96c-59 66 -88 155 -88 266c0 114 29 203 88 268c57 63 132 94 226 94c71 0 131 -19 181 -56c45 -33 76 -75 94 -128l-36 -11c-11 39 -33 72 -67 101c-45 38 -102 57 -171 57
c-85 0 -152 -28 -201 -84c-51 -58 -76 -138 -75 -240c0 -103 26 -184 77 -243c49 -56 115 -84 197 -84c61 0 116 17 165 51c41 28 68 60 83 96v140h-199v36h235v-348zM365 -91c-11 -3 -20 -2 -28 4c-9 5 -13 13 -13 23c0 21 12 32 35 32s35 -14 35 -43
c0 -47 -22 -79 -65 -98l-14 18c29 12 46 33 50 64z" />
    <glyph glyph-name="Gdotaccent" unicode="&#x120;" horiz-adv-x="699" 
d="M352 782c-20 0 -30 11 -30 33c0 21 10 32 30 32c21 0 31 -11 31 -32c0 -22 -10 -33 -31 -33zM637 0h-36c0 37 0 67 1 89l1 27h-2c-55 -85 -139 -127 -250 -127c-92 0 -166 32 -223 96c-59 66 -88 155 -88 266c0 114 29 203 88 268c57 63 132 94 226 94
c71 0 131 -19 181 -56c45 -33 76 -75 94 -128l-36 -11c-11 39 -33 72 -67 101c-45 38 -102 57 -171 57c-85 0 -152 -28 -201 -84c-51 -58 -76 -138 -75 -240c0 -103 26 -184 77 -243c49 -56 115 -84 197 -84c61 0 116 17 165 51c41 28 68 60 83 96v140h-199v36h235v-348z
" />
    <glyph glyph-name="H" unicode="H" horiz-adv-x="624" 
d="M507 0v352h-389v-352h-38v700h38v-311h389v311h37v-700h-37z" />
    <glyph glyph-name="Hbar" unicode="&#x126;" horiz-adv-x="643" 
d="M624 524h-70v-524h-38v349h-389v-349h-38v524h-70v34h70v142h38v-142h389v142h38v-142h70v-34zM516 524h-389v-138h389v138z" />
    <glyph glyph-name="Hcircumflex" unicode="&#x124;" horiz-adv-x="624" 
d="M430 787l-22 -23l-95 90l-95 -89l-21 22l116 110zM507 0v352h-389v-352h-38v700h38v-311h389v311h37v-700h-37z" />
    <glyph glyph-name="I" unicode="I" horiz-adv-x="198" 
d="M80 0v700h38v-700h-38z" />
    <glyph glyph-name="I.ss03" horiz-adv-x="406" 
d="M222 36h119v-36h-277v36h120v628h-120v36h277v-36h-119v-628z" />
    <glyph glyph-name="IJ" unicode="&#x132;" horiz-adv-x="647" 
d="M80 0v700h38v-700h-38zM574 700v-461c0 -167 -67 -250 -200 -250c-65 0 -117 26 -156 78l23 30c33 -48 78 -72 134 -72c107 0 161 71 161 212v463h38z" />
    <glyph glyph-name="IJ.ss03" horiz-adv-x="841" 
d="M222 36h119v-36h-277v36h120v628h-120v36h277v-36h-119v-628zM769 700v-461c0 -167 -67 -250 -201 -250c-65 0 -117 26 -155 78l22 30c33 -48 78 -72 134 -72c107 0 161 71 161 212v463h39z" />
    <glyph glyph-name="IJ.ss03.ss04" horiz-adv-x="841" 
d="M64 700h277v-36h-119v-628h119v-36h-277v36h120v628h-120v36zM769 700v-461c0 -167 -67 -250 -201 -250c-65 0 -117 26 -155 78l22 30c33 -48 78 -72 134 -72c107 0 161 71 161 212v427h-269v36h308z" />
    <glyph glyph-name="IJ.ss04" horiz-adv-x="633" 
d="M80 700h38v-700h-38v700zM560 700v-461c0 -167 -67 -250 -200 -250c-65 0 -117 26 -156 78l23 30c32 -48 76 -72 133 -72c108 0 162 71 162 212v427h-269v36h307z" />
    <glyph glyph-name="Iacute" unicode="&#xcd;" horiz-adv-x="198" 
d="M101 754h-38l91 149l35 -11zM80 0v700h38v-700h-38z" />
    <glyph glyph-name="Iacute.ss03" horiz-adv-x="406" 
d="M206 754h-38l90 149l35 -11zM222 36h119v-36h-277v36h120v628h-120v36h277v-36h-119v-628z" />
    <glyph glyph-name="Iacute_J.loclNLD" horiz-adv-x="647" 
d="M558 754h-38l91 149l35 -11zM101 754h-38l91 149l35 -11zM80 0v700h38v-700h-38zM574 700v-461c0 -167 -67 -250 -200 -250c-65 0 -117 26 -156 78l23 30c33 -48 78 -72 134 -72c107 0 161 71 161 212v463h38z" />
    <glyph glyph-name="Icircumflex" unicode="&#xce;" horiz-adv-x="198" 
d="M196 787l-22 -22l-75 86l-74 -85l-22 22l96 109zM80 0v700h38v-700h-38z" />
    <glyph glyph-name="Icircumflex.ss03" horiz-adv-x="406" 
d="M319 787l-22 -23l-94 90l-95 -89l-22 22l117 110zM222 36h119v-36h-277v36h120v628h-120v36h277v-36h-119v-628z" />
    <glyph glyph-name="Idieresis" unicode="&#xcf;" horiz-adv-x="198" 
d="M53 782c-20 0 -30 11 -30 33c0 21 10 32 30 32s30 -11 30 -32c0 -22 -10 -33 -30 -33zM145 782c-20 0 -30 11 -30 33c0 21 10 32 30 32c21 0 31 -11 31 -32c0 -22 -10 -33 -31 -33zM80 0v700h38v-700h-38z" />
    <glyph glyph-name="Idieresis.ss03" horiz-adv-x="406" 
d="M124 782c-21 0 -31 11 -31 33c0 21 10 32 31 32c20 0 30 -11 30 -32c0 -22 -10 -33 -30 -33zM283 782c-21 0 -31 11 -31 33c0 21 10 32 31 32s31 -11 31 -32c0 -22 -10 -33 -31 -33zM222 36h119v-36h-277v36h120v628h-120v36h277v-36h-119v-628z" />
    <glyph glyph-name="Idotaccent" unicode="&#x130;" horiz-adv-x="198" 
d="M99 782c-21 0 -31 11 -31 33c0 21 10 32 31 32s31 -11 31 -32c0 -22 -10 -33 -31 -33zM80 0v700h38v-700h-38z" />
    <glyph glyph-name="Idotaccent.ss03" horiz-adv-x="406" 
d="M203 782c-21 0 -31 11 -31 33c0 21 10 32 31 32s31 -11 31 -32c0 -22 -10 -33 -31 -33zM222 36h119v-36h-277v36h120v628h-120v36h277v-36h-119v-628z" />
    <glyph glyph-name="Igrave" unicode="&#xcc;" horiz-adv-x="198" 
d="M39 903l91 -149h-38l-88 138zM80 0v700h38v-700h-38z" />
    <glyph glyph-name="Igrave.ss03" horiz-adv-x="406" 
d="M143 903l91 -149h-38l-88 138zM222 36h119v-36h-277v36h120v628h-120v36h277v-36h-119v-628z" />
    <glyph glyph-name="Imacron" unicode="&#x12a;" horiz-adv-x="198" 
d="M189 785h-179v34h179v-34zM80 0v700h38v-700h-38z" />
    <glyph glyph-name="Imacron.ss03" horiz-adv-x="437" 
d="M357 785h-277v34h277v-34zM237 36h120v-36h-277v36h119v628h-119v36h277v-36h-120v-628z" />
    <glyph glyph-name="Iogonek" unicode="&#x12e;" horiz-adv-x="198" 
d="M95 -136c25 0 44 6 58 17v-35c-15 -11 -35 -16 -61 -16c-27 0 -48 9 -64 26c-15 17 -23 38 -23 65c0 55 25 89 75 103v676h38l-1 -700c-53 -4 -79 -30 -79 -77c0 -39 19 -59 57 -59z" />
    <glyph glyph-name="Iogonek.ss03" horiz-adv-x="406" 
d="M222 664v-628h119v-36h-41c-61 -6 -92 -31 -92 -76c0 -40 22 -60 65 -60c29 0 51 6 68 17v-35c-18 -11 -41 -16 -69 -16c-31 0 -55 9 -73 26c-17 17 -26 38 -26 65c0 35 15 62 45 79h-154v36h120v628h-120v36h277v-36h-119z" />
    <glyph glyph-name="J" unicode="J" horiz-adv-x="435" 
d="M363 700v-461c0 -167 -67 -250 -201 -250c-65 0 -117 26 -155 78l23 30c32 -48 76 -72 133 -72c107 0 161 71 161 212v463h39z" />
    <glyph glyph-name="J.ss04" horiz-adv-x="435" 
d="M363 700v-461c0 -167 -67 -250 -201 -250c-64 0 -116 26 -155 78l23 30c32 -48 76 -72 133 -72c107 0 161 71 161 212v427h-269v36h308z" />
    <glyph glyph-name="Jcircumflex" unicode="&#x134;" horiz-adv-x="435" 
d="M460 787l-22 -23l-94 90l-95 -89l-22 22l117 110zM363 700v-461c0 -167 -67 -250 -201 -250c-65 0 -117 26 -155 78l23 30c32 -48 76 -72 133 -72c107 0 161 71 161 212v463h39z" />
    <glyph glyph-name="Jcircumflex.ss04" horiz-adv-x="435" 
d="M114 765l-22 22l117 110l116 -110l-22 -23l-94 90zM363 700v-461c0 -167 -67 -250 -201 -250c-64 0 -116 26 -155 78l23 30c32 -48 76 -72 133 -72c107 0 161 71 161 212v427h-269v36h308z" />
    <glyph glyph-name="K" unicode="K" horiz-adv-x="565" 
d="M502 0l-251 393l-133 -154v-239h-38v700h38v-361l-1 -49h1c4 7 45 55 122 142l236 268h46l-244 -278l268 -423z" />
    <glyph glyph-name="uni0136" unicode="&#x136;" horiz-adv-x="565" 
d="M546 -1l-44 1l-251 393l-133 -154v-239h-38v700h38v-361l-1 -49h1c4 7 45 55 122 142l236 268h46l-244 -278zM292 -32c23 0 35 -14 35 -43c0 -47 -21 -80 -64 -98l-15 18c31 13 47 34 50 64c-11 -3 -20 -2 -28 4c-9 5 -13 13 -13 23c0 21 12 32 35 32z" />
    <glyph glyph-name="L" unicode="L" horiz-adv-x="503" 
d="M80 0v700h38v-664h351v-36h-389z" />
    <glyph glyph-name="Lacute" unicode="&#x139;" horiz-adv-x="503" 
d="M98 754h-38l91 149l35 -11zM80 0v700h38v-664h351v-36h-389z" />
    <glyph glyph-name="Lcaron" unicode="&#x13d;" horiz-adv-x="503" 
d="M80 0v700h38v-664h351v-36h-389zM322 700h34c1 -66 -12 -131 -38 -196h-31c23 59 35 125 35 196z" />
    <glyph glyph-name="uni013B" unicode="&#x13b;" horiz-adv-x="503" 
d="M80 0v700h38v-664h351v-36h-389zM271 -91c-11 -3 -20 -2 -28 4c-9 5 -13 13 -13 23c0 21 12 32 35 32s35 -14 35 -43c0 -47 -22 -79 -65 -98l-14 18c29 12 46 33 50 64z" />
    <glyph glyph-name="Ldot" unicode="&#x13f;" horiz-adv-x="503" 
d="M80 0v700h38v-664h351v-36h-389zM335 338c-24 0 -36 12 -36 37c0 23 12 35 36 35c23 0 35 -12 35 -35c0 -25 -12 -37 -35 -37z" />
    <glyph glyph-name="Lslash" unicode="&#x141;" horiz-adv-x="503" 
d="M469 36v-36h-389v700h38v-361l257 133v-40l-257 -133v-263h351z" />
    <glyph glyph-name="M" unicode="M" horiz-adv-x="722" 
d="M604 0v366c0 51 1 112 2 185l1 94h-2c4 0 -26 -63 -90 -190l-139 -279h-30l-138 275c-64 129 -95 194 -92 194h-1l1 -94c1 -73 1 -134 1 -185v-366h-37v700h44l237 -476h1l236 476h44v-700h-38z" />
    <glyph glyph-name="N" unicode="N" horiz-adv-x="644" 
d="M522 0l-406 646h-1l1 -51c1 -41 1 -80 1 -115v-480h-37v700h42l406 -643h1l-1 51c-1 41 -1 79 -1 114v478h38v-700h-43z" />
    <glyph glyph-name="N.ss02" horiz-adv-x="644" 
d="M565 0h-38v303l-410 353l1 -53v-603h-38v700h43l402 -346h2v346h38v-700z" />
    <glyph glyph-name="Nacute" unicode="&#x143;" horiz-adv-x="644" 
d="M331 754h-38l90 149l35 -11zM522 0l-406 646h-1l1 -51c1 -41 1 -80 1 -115v-480h-37v700h42l406 -643h1l-1 51c-1 41 -1 79 -1 114v478h38v-700h-43z" />
    <glyph glyph-name="Nacute.loclPLK" horiz-adv-x="644" 
d="M338 754h-35l50 162l33 -10zM522 0l-406 646h-1l1 -51c1 -41 1 -80 1 -115v-480h-37v700h42l406 -643h1l-1 51c-1 41 -1 79 -1 114v478h38v-700h-43z" />
    <glyph glyph-name="Nacute.loclPLK.ss02" horiz-adv-x="644" 
d="M337 754h-35l50 162l33 -10zM565 0h-38v303l-410 353l1 -53v-603h-38v700h43l402 -346h2v346h38v-700z" />
    <glyph glyph-name="Nacute.ss02" horiz-adv-x="644" 
d="M330 754h-38l90 149l35 -11zM565 0h-38v303l-410 353l1 -53v-603h-38v700h43l402 -346h2v346h38v-700z" />
    <glyph glyph-name="Ncaron" unicode="&#x147;" horiz-adv-x="644" 
d="M213 873l21 23l95 -91l96 91l21 -23l-117 -110zM522 0l-406 646h-1l1 -51c1 -41 1 -80 1 -115v-480h-37v700h42l406 -643h1l-1 51c-1 41 -1 79 -1 114v478h38v-700h-43z" />
    <glyph glyph-name="Ncaron.ss02" horiz-adv-x="644" 
d="M211 873l22 23l95 -91l95 91l22 -23l-117 -110zM565 0h-38v303l-410 353l1 -53v-603h-38v700h43l402 -346h2v346h38v-700z" />
    <glyph glyph-name="uni0145" unicode="&#x145;" horiz-adv-x="644" 
d="M522 0l-406 646h-1l1 -51c1 -41 1 -80 1 -115v-480h-37v700h42l406 -643h1l-1 51c-1 41 -1 79 -1 114v478h38v-700h-43zM320 -91c-11 -3 -20 -1 -28 4s-12 13 -12 23c0 21 11 32 34 32c24 0 36 -14 36 -43c0 -47 -22 -79 -65 -98l-15 18c31 13 47 34 50 64z" />
    <glyph glyph-name="Ncommaaccent.ss02" horiz-adv-x="644" 
d="M565 0h-38v303l-410 353l1 -53v-603h-38v700h43l402 -346h2v346h38v-700zM319 -91c-11 -3 -20 -1 -28 4s-12 13 -12 23c0 21 11 32 34 32c24 0 36 -14 36 -43c0 -47 -22 -79 -65 -98l-15 18c31 13 47 34 50 64z" />
    <glyph glyph-name="Eng" unicode="&#x14a;" horiz-adv-x="644" 
d="M565 700v-700c-1 -107 -44 -161 -129 -161h-15v33h14c65 0 94 43 87 128l-406 646h-1l1 -51c1 -41 1 -80 1 -115v-480h-37v700h42l406 -643h1l-1 51c-1 41 -1 79 -1 114v478h38z" />
    <glyph glyph-name="Eng.ss02" horiz-adv-x="644" 
d="M565 700v-700c0 -107 -44 -161 -131 -161h-13v33h13c33 0 56 10 71 30c15 19 22 52 22 98v306l-188 158l-222 193l1 -59v-598h-38v700h43l260 -226c95 -79 143 -118 142 -118h2v344h38z" />
    <glyph glyph-name="Ntilde" unicode="&#xd1;" horiz-adv-x="644" 
d="M443 842l12 -28c-15 -19 -38 -29 -67 -29c-17 0 -37 6 -61 17s-44 17 -59 17c-25 0 -43 -8 -56 -24l-13 28c19 21 41 31 66 31c17 0 38 -6 62 -17c24 -12 44 -18 61 -18c23 0 41 8 55 23zM522 0l-406 646h-1l1 -51c1 -41 1 -80 1 -115v-480h-37v700h42l406 -643h1l-1 51
c-1 41 -1 79 -1 114v478h38v-700h-43z" />
    <glyph glyph-name="Ntilde.ss02" horiz-adv-x="644" 
d="M442 842l12 -28c-15 -19 -38 -29 -67 -29c-17 0 -37 6 -61 17s-44 17 -59 17c-25 0 -43 -8 -56 -24l-13 28c19 21 41 31 66 31c17 0 37 -6 62 -17c24 -12 44 -18 61 -18c21 0 40 8 55 23zM565 0h-38v303l-410 353l1 -53v-603h-38v700h43l402 -346h2v346h38v-700z" />
    <glyph glyph-name="O" unicode="O" horiz-adv-x="708" 
d="M40 351c0 112 30 201 89 267c57 63 132 95 225 95s168 -32 225 -95c59 -66 89 -155 89 -267s-30 -201 -89 -267c-57 -63 -132 -95 -225 -95s-168 32 -225 95c-59 66 -89 155 -89 267zM79 351c0 -103 26 -183 78 -242c49 -56 115 -84 197 -84s148 28 198 84
c52 58 78 139 78 242s-26 184 -78 242c-50 55 -116 83 -198 83s-148 -28 -197 -83c-52 -59 -78 -139 -78 -242z" />
    <glyph glyph-name="Oacute" unicode="&#xd3;" horiz-adv-x="708" 
d="M357 754h-38l91 149l35 -11zM40 351c0 112 30 201 89 267c57 63 132 95 225 95s168 -32 225 -95c59 -66 89 -155 89 -267s-30 -201 -89 -267c-57 -63 -132 -95 -225 -95s-168 32 -225 95c-59 66 -89 155 -89 267zM79 351c0 -103 26 -183 78 -242c49 -56 115 -84 197 -84
s148 28 198 84c52 58 78 139 78 242s-26 184 -78 242c-50 55 -116 83 -198 83s-148 -28 -197 -83c-52 -59 -78 -139 -78 -242z" />
    <glyph glyph-name="Oacute.loclPLK" horiz-adv-x="708" 
d="M365 754h-36l50 162l34 -10zM40 351c0 112 30 201 89 267c57 63 132 95 225 95s168 -32 225 -95c59 -66 89 -155 89 -267s-30 -201 -89 -267c-57 -63 -132 -95 -225 -95s-168 32 -225 95c-59 66 -89 155 -89 267zM79 351c0 -103 26 -183 78 -242c49 -56 115 -84 197 -84
s148 28 198 84c52 58 78 139 78 242s-26 184 -78 242c-50 55 -116 83 -198 83s-148 -28 -197 -83c-52 -59 -78 -139 -78 -242z" />
    <glyph glyph-name="Ocircumflex" unicode="&#xd4;" horiz-adv-x="708" 
d="M471 787l-22 -23l-95 90l-94 -89l-22 22l116 110zM40 351c0 112 30 201 89 267c57 63 132 95 225 95s168 -32 225 -95c59 -66 89 -155 89 -267s-30 -201 -89 -267c-57 -63 -132 -95 -225 -95s-168 32 -225 95c-59 66 -89 155 -89 267zM79 351c0 -103 26 -183 78 -242
c49 -56 115 -84 197 -84s148 28 198 84c52 58 78 139 78 242s-26 184 -78 242c-50 55 -116 83 -198 83s-148 -28 -197 -83c-52 -59 -78 -139 -78 -242z" />
    <glyph glyph-name="Odieresis" unicode="&#xd6;" horiz-adv-x="708" 
d="M275 782c-20 0 -30 11 -30 33c0 21 10 32 30 32c21 0 31 -11 31 -32c0 -22 -10 -33 -31 -33zM435 782c-21 0 -31 11 -31 33c0 21 10 32 31 32c20 0 30 -11 30 -32c0 -22 -10 -33 -30 -33zM40 351c0 112 30 201 89 267c57 63 132 95 225 95s168 -32 225 -95
c59 -66 89 -155 89 -267s-30 -201 -89 -267c-57 -63 -132 -95 -225 -95s-168 32 -225 95c-59 66 -89 155 -89 267zM79 351c0 -103 26 -183 78 -242c49 -56 115 -84 197 -84s148 28 198 84c52 58 78 139 78 242s-26 184 -78 242c-50 55 -116 83 -198 83s-148 -28 -197 -83
c-52 -59 -78 -139 -78 -242z" />
    <glyph glyph-name="Ograve" unicode="&#xd2;" horiz-adv-x="708" 
d="M295 903l90 -149h-38l-87 138zM40 351c0 112 30 201 89 267c57 63 132 95 225 95s168 -32 225 -95c59 -66 89 -155 89 -267s-30 -201 -89 -267c-57 -63 -132 -95 -225 -95s-168 32 -225 95c-59 66 -89 155 -89 267zM79 351c0 -103 26 -183 78 -242
c49 -56 115 -84 197 -84s148 28 198 84c52 58 78 139 78 242s-26 184 -78 242c-50 55 -116 83 -198 83s-148 -28 -197 -83c-52 -59 -78 -139 -78 -242z" />
    <glyph glyph-name="Ohungarumlaut" unicode="&#x150;" horiz-adv-x="708" 
d="M288 754h-38l91 149l35 -11zM430 754h-38l91 149l35 -11zM40 351c0 112 30 201 89 267c57 63 132 95 225 95s168 -32 225 -95c59 -66 89 -155 89 -267s-30 -201 -89 -267c-57 -63 -132 -95 -225 -95s-168 32 -225 95c-59 66 -89 155 -89 267zM79 351
c0 -103 26 -183 78 -242c49 -56 115 -84 197 -84s148 28 198 84c52 58 78 139 78 242s-26 184 -78 242c-50 55 -116 83 -198 83s-148 -28 -197 -83c-52 -59 -78 -139 -78 -242z" />
    <glyph glyph-name="Omacron" unicode="&#x14c;" horiz-adv-x="708" 
d="M480 785h-251v34h251v-34zM40 351c0 112 30 201 89 267c57 63 132 95 225 95s168 -32 225 -95c59 -66 89 -155 89 -267s-30 -201 -89 -267c-57 -63 -132 -95 -225 -95s-168 32 -225 95c-59 66 -89 155 -89 267zM79 351c0 -103 26 -183 78 -242c49 -56 115 -84 197 -84
s148 28 198 84c52 58 78 139 78 242s-26 184 -78 242c-50 55 -116 83 -198 83s-148 -28 -197 -83c-52 -59 -78 -139 -78 -242z" />
    <glyph glyph-name="Oslash" unicode="&#xd8;" horiz-adv-x="708" 
d="M627 726l-62 -94c69 -67 103 -160 103 -281c0 -112 -30 -201 -89 -267c-57 -63 -132 -95 -225 -95c-70 0 -130 18 -181 55l-62 -93l-28 20l64 95c-71 66 -107 161 -107 285c0 112 30 201 89 267c57 63 132 95 225 95c71 0 132 -20 185 -59l60 91zM79 351
c0 -111 29 -195 88 -254l352 527c-46 35 -101 52 -165 52c-82 0 -148 -28 -197 -83c-52 -59 -78 -139 -78 -242zM354 25c82 0 148 28 198 84c52 58 78 139 78 242c0 108 -29 191 -86 250l-351 -526c45 -33 99 -50 161 -50z" />
    <glyph glyph-name="Otilde" unicode="&#xd5;" horiz-adv-x="708" 
d="M469 842l13 -28c-15 -19 -38 -29 -67 -29c-17 0 -38 6 -62 17s-44 17 -59 17c-25 0 -43 -8 -56 -24l-13 28c19 21 41 31 67 31c17 0 37 -6 61 -17c24 -12 44 -18 61 -18c23 0 41 8 55 23zM40 351c0 112 30 201 89 267c57 63 132 95 225 95s168 -32 225 -95
c59 -66 89 -155 89 -267s-30 -201 -89 -267c-57 -63 -132 -95 -225 -95s-168 32 -225 95c-59 66 -89 155 -89 267zM79 351c0 -103 26 -183 78 -242c49 -56 115 -84 197 -84s148 28 198 84c52 58 78 139 78 242s-26 184 -78 242c-50 55 -116 83 -198 83s-148 -28 -197 -83
c-52 -59 -78 -139 -78 -242z" />
    <glyph glyph-name="OE" unicode="&#x152;" horiz-adv-x="875" 
d="M823 0h-401c-17 -3 -37 -4 -60 -4c-99 0 -177 31 -234 93c-59 63 -88 150 -88 261c0 113 30 200 89 263c57 61 134 91 233 91c23 0 42 -1 59 -4h402v-36h-364v-275h292v-36h-292v-317h364v-36zM79 351c0 -104 26 -184 77 -239c49 -53 118 -80 206 -80c23 0 42 2 59 7v623
c-18 4 -38 6 -59 6c-89 0 -158 -27 -207 -80c-51 -55 -76 -134 -76 -237z" />
    <glyph glyph-name="P" unicode="P" horiz-adv-x="506" 
d="M80 700h163c157 0 236 -68 236 -204c0 -67 -21 -117 -63 -152c-41 -34 -99 -51 -174 -51h-124v-293h-38v700zM118 328h125c132 0 198 56 199 168c0 112 -66 168 -199 168h-125v-336z" />
    <glyph glyph-name="Thorn" unicode="&#xde;" horiz-adv-x="489" 
d="M118 550h115c152 0 229 -65 230 -194c0 -128 -77 -192 -230 -192h-115v-164h-38v700h38v-150zM118 199h115c128 0 192 52 192 157s-64 158 -192 158h-115v-315z" />
    <glyph glyph-name="Q" unicode="Q" horiz-adv-x="708" 
d="M668 351c0 -108 -28 -195 -83 -260c-53 -63 -124 -97 -212 -102v-121h-39v121c-88 5 -158 39 -211 102c-55 65 -83 152 -83 260c0 112 30 201 89 267c57 63 132 95 225 95s168 -32 225 -95c59 -66 89 -155 89 -267zM354 25c82 0 148 28 198 84c52 58 78 139 78 242
s-26 184 -78 242c-50 55 -116 83 -198 83s-148 -28 -197 -83c-52 -59 -78 -139 -78 -242s26 -183 78 -242c49 -56 115 -84 197 -84z" />
    <glyph glyph-name="Q.ss01" horiz-adv-x="733" 
d="M684 0h-331c-92 0 -167 32 -224 97c-59 66 -89 153 -89 260c0 109 30 196 90 261c57 63 132 95 224 95s167 -32 224 -96c59 -66 89 -153 89 -260c0 -81 -17 -150 -52 -208c-34 -56 -80 -95 -138 -118l2 -1c-6 0 4 1 31 3s56 3 87 3h87v-36zM79 357c0 -99 26 -177 78 -235
c50 -57 116 -85 197 -85s147 29 198 86c51 59 77 137 77 234c0 99 -26 178 -78 236c-50 55 -116 83 -197 83c-82 0 -148 -28 -198 -85c-51 -58 -77 -136 -77 -234z" />
    <glyph glyph-name="R" unicode="R" horiz-adv-x="529" 
d="M439 0l-160 301c-10 -1 -32 -1 -67 -1h-94v-300h-38v700h166c74 0 132 -18 173 -54c41 -37 61 -87 61 -151c0 -109 -54 -171 -161 -188l165 -307h-45zM118 334h136c125 0 188 54 188 161c0 113 -66 169 -199 169h-125v-330z" />
    <glyph glyph-name="Racute" unicode="&#x154;" horiz-adv-x="529" 
d="M250 754h-38l91 149l35 -11zM439 0l-160 301c-10 -1 -32 -1 -67 -1h-94v-300h-38v700h166c74 0 132 -18 173 -54c41 -37 61 -87 61 -151c0 -109 -54 -171 -161 -188l165 -307h-45zM118 334h136c125 0 188 54 188 161c0 113 -66 169 -199 169h-125v-330z" />
    <glyph glyph-name="Rcaron" unicode="&#x158;" horiz-adv-x="529" 
d="M132 873l22 23l95 -91l95 91l22 -23l-117 -110zM439 0l-160 301c-10 -1 -32 -1 -67 -1h-94v-300h-38v700h166c74 0 132 -18 173 -54c41 -37 61 -87 61 -151c0 -109 -54 -171 -161 -188l165 -307h-45zM118 334h136c125 0 188 54 188 161c0 113 -66 169 -199 169h-125v-330
z" />
    <glyph glyph-name="uni0156" unicode="&#x156;" horiz-adv-x="529" 
d="M439 0l-160 301c-10 -1 -32 -1 -67 -1h-94v-300h-38v700h166c74 0 132 -18 173 -54c41 -37 61 -87 61 -151c0 -109 -54 -171 -161 -188l165 -307h-45zM118 334h136c125 0 188 54 188 161c0 113 -66 169 -199 169h-125v-330zM292 -91c-11 -3 -20 -2 -28 4
c-9 5 -13 13 -13 23c0 21 12 32 35 32s35 -14 35 -43c0 -47 -22 -79 -65 -98l-14 18c29 12 46 33 50 64z" />
    <glyph glyph-name="S" unicode="S" horiz-adv-x="521" 
d="M35 179l37 10c3 -54 23 -95 60 -124c35 -27 83 -41 142 -41c116 0 174 49 174 147c0 56 -22 98 -67 126c-13 8 -55 24 -128 49c-64 21 -109 41 -134 60c-43 32 -65 77 -65 134c0 55 18 97 53 127c35 31 85 46 149 46c126 0 199 -55 220 -165l-36 -9
c-19 92 -80 138 -183 138c-110 0 -165 -45 -165 -134c0 -47 18 -83 55 -110c23 -17 64 -35 125 -54c69 -21 118 -41 145 -61c46 -34 69 -83 69 -146c0 -122 -71 -183 -214 -183c-147 0 -226 63 -237 190z" />
    <glyph glyph-name="Sacute" unicode="&#x15a;" horiz-adv-x="521" 
d="M263 754h-38l91 149l35 -11zM35 179l37 10c3 -54 23 -95 60 -124c35 -27 83 -41 142 -41c116 0 174 49 174 147c0 56 -22 98 -67 126c-13 8 -55 24 -128 49c-64 21 -109 41 -134 60c-43 32 -65 77 -65 134c0 55 18 97 53 127c35 31 85 46 149 46c126 0 199 -55 220 -165
l-36 -9c-19 92 -80 138 -183 138c-110 0 -165 -45 -165 -134c0 -47 18 -83 55 -110c23 -17 64 -35 125 -54c69 -21 118 -41 145 -61c46 -34 69 -83 69 -146c0 -122 -71 -183 -214 -183c-147 0 -226 63 -237 190z" />
    <glyph glyph-name="Sacute.loclPLK" horiz-adv-x="521" 
d="M271 754h-36l50 162l34 -10zM35 179l37 10c3 -54 23 -95 60 -124c35 -27 83 -41 142 -41c116 0 174 49 174 147c0 56 -22 98 -67 126c-13 8 -55 24 -128 49c-64 21 -109 41 -134 60c-43 32 -65 77 -65 134c0 55 18 97 53 127c35 31 85 46 149 46c126 0 199 -55 220 -165
l-36 -9c-19 92 -80 138 -183 138c-110 0 -165 -45 -165 -134c0 -47 18 -83 55 -110c23 -17 64 -35 125 -54c69 -21 118 -41 145 -61c46 -34 69 -83 69 -146c0 -122 -71 -183 -214 -183c-147 0 -226 63 -237 190z" />
    <glyph glyph-name="Scaron" unicode="&#x160;" horiz-adv-x="521" 
d="M145 873l22 23l95 -91l95 91l22 -23l-117 -110zM35 179l37 10c3 -54 23 -95 60 -124c35 -27 83 -41 142 -41c116 0 174 49 174 147c0 56 -22 98 -67 126c-13 8 -55 24 -128 49c-64 21 -109 41 -134 60c-43 32 -65 77 -65 134c0 55 18 97 53 127c35 31 85 46 149 46
c126 0 199 -55 220 -165l-36 -9c-19 92 -80 138 -183 138c-110 0 -165 -45 -165 -134c0 -47 18 -83 55 -110c23 -17 64 -35 125 -54c69 -21 118 -41 145 -61c46 -34 69 -83 69 -146c0 -122 -71 -183 -214 -183c-147 0 -226 63 -237 190z" />
    <glyph glyph-name="Scedilla" unicode="&#x15e;" horiz-adv-x="521" 
d="M486 172c0 -121 -70 -182 -209 -183v-8c63 -7 95 -32 95 -76c0 -50 -32 -75 -96 -75c-29 0 -53 5 -70 16v33c15 -11 37 -16 66 -16c44 0 66 15 66 45c0 31 -32 48 -95 50v32c-129 9 -198 72 -208 189l37 10c3 -54 23 -95 60 -124c35 -27 83 -41 142 -41
c116 0 174 49 174 147c0 56 -22 98 -67 126c-13 8 -55 24 -128 49c-64 21 -109 41 -134 60c-43 32 -65 77 -65 134c0 55 18 97 53 127c35 31 85 46 149 46c125 0 199 -55 221 -165l-37 -9c-19 92 -80 138 -183 138c-110 0 -165 -45 -165 -134c0 -47 18 -83 55 -110
c23 -17 64 -35 125 -54c69 -21 118 -41 145 -61c46 -34 69 -83 69 -146z" />
    <glyph glyph-name="Scircumflex" unicode="&#x15c;" horiz-adv-x="521" 
d="M377 787l-22 -23l-94 90l-95 -89l-22 22l117 110zM35 179l37 10c3 -54 23 -95 60 -124c35 -27 83 -41 142 -41c116 0 174 49 174 147c0 56 -22 98 -67 126c-13 8 -55 24 -128 49c-64 21 -109 41 -134 60c-43 32 -65 77 -65 134c0 55 18 97 53 127c35 31 85 46 149 46
c126 0 199 -55 220 -165l-36 -9c-19 92 -80 138 -183 138c-110 0 -165 -45 -165 -134c0 -47 18 -83 55 -110c23 -17 64 -35 125 -54c69 -21 118 -41 145 -61c46 -34 69 -83 69 -146c0 -122 -71 -183 -214 -183c-147 0 -226 63 -237 190z" />
    <glyph glyph-name="uni0218" unicode="&#x218;" horiz-adv-x="521" 
d="M35 179l37 10c3 -54 23 -95 60 -124c35 -27 83 -41 142 -41c116 0 174 49 174 147c0 56 -22 98 -67 126c-13 8 -55 24 -128 49c-64 21 -109 41 -134 60c-43 32 -65 77 -65 134c0 55 18 97 53 127c35 31 85 46 149 46c126 0 199 -55 220 -165l-36 -9
c-19 92 -80 138 -183 138c-110 0 -165 -45 -165 -134c0 -47 18 -83 55 -110c23 -17 64 -35 125 -54c69 -21 118 -41 145 -61c46 -34 69 -83 69 -146c0 -122 -71 -183 -214 -183c-147 0 -226 63 -237 190zM269 -91c-11 -3 -20 -1 -28 4s-12 13 -12 23c0 21 11 32 34 32
c24 0 36 -14 36 -43c0 -47 -22 -79 -65 -98l-15 18c31 13 47 34 50 64z" />
    <glyph glyph-name="uni1E9E" unicode="&#x1e9e;" horiz-adv-x="599" 
d="M351 413h7c61 0 111 -17 148 -51c41 -37 61 -90 61 -157c0 -64 -18 -116 -55 -156s-87 -60 -150 -60c-61 0 -111 19 -151 58l19 29c37 -34 80 -51 129 -51c51 0 93 16 124 48c31 33 46 76 46 129c0 55 -16 99 -47 130s-72 46 -125 46h-48v39l134 246l-1 2l-324 -1v-664
h-38v700h426l-156 -285z" />
    <glyph glyph-name="T" unicode="T" horiz-adv-x="559" 
d="M524 664h-226v-664h-38v664h-226v36h490v-36z" />
    <glyph glyph-name="Tbar" unicode="&#x166;" horiz-adv-x="559" 
d="M298 388h124v-36h-124v-352h-38v352h-123v36h123v276h-226v36h490v-36h-226v-276z" />
    <glyph glyph-name="Tcaron" unicode="&#x164;" horiz-adv-x="559" 
d="M164 873l22 23l95 -91l95 91l22 -23l-117 -110zM524 664h-226v-664h-38v664h-226v36h490v-36z" />
    <glyph glyph-name="uni0162" unicode="&#x162;" horiz-adv-x="559" 
d="M294 0v-19c63 -7 95 -32 95 -76c0 -50 -32 -75 -96 -75c-29 0 -53 5 -70 16v33c15 -11 37 -16 66 -16c44 0 66 15 66 45c0 31 -32 48 -95 50v706h-226v36h490v-36h-226v-664h-4z" />
    <glyph glyph-name="uni021A" unicode="&#x21a;" horiz-adv-x="559" 
d="M524 664h-226v-664h-38v664h-226v36h490v-36zM286 -91c-11 -3 -20 -1 -28 4s-12 13 -12 23c0 21 11 32 34 32c24 0 36 -14 36 -43c0 -47 -22 -79 -65 -98l-15 18c31 13 47 34 50 64z" />
    <glyph glyph-name="U" unicode="U" horiz-adv-x="616" 
d="M547 700v-447c0 -176 -80 -264 -239 -264s-239 88 -239 264v447h38v-450c0 -150 67 -225 201 -225s201 75 201 225v450h38z" />
    <glyph glyph-name="Uacute" unicode="&#xda;" horiz-adv-x="616" 
d="M310 754h-38l91 149l35 -11zM547 700v-447c0 -176 -80 -264 -239 -264s-239 88 -239 264v447h38v-450c0 -150 67 -225 201 -225s201 75 201 225v450h38z" />
    <glyph glyph-name="Ubreve" unicode="&#x16c;" horiz-adv-x="616" 
d="M182 860h32c4 -56 36 -84 95 -84c29 0 53 9 70 27c15 15 23 34 24 57h33c-1 -32 -13 -59 -36 -80c-24 -23 -54 -35 -91 -35s-67 11 -91 34c-23 21 -35 48 -36 81zM547 700v-447c0 -176 -80 -264 -239 -264s-239 88 -239 264v447h38v-450c0 -150 67 -225 201 -225
s201 75 201 225v450h38z" />
    <glyph glyph-name="Ucircumflex" unicode="&#xdb;" horiz-adv-x="616" 
d="M424 787l-22 -23l-94 90l-95 -89l-22 22l117 110zM547 700v-447c0 -176 -80 -264 -239 -264s-239 88 -239 264v447h38v-450c0 -150 67 -225 201 -225s201 75 201 225v450h38z" />
    <glyph glyph-name="Udieresis" unicode="&#xdc;" horiz-adv-x="616" 
d="M228 782c-20 0 -30 11 -30 33c0 21 10 32 30 32c21 0 31 -11 31 -32c0 -22 -10 -33 -31 -33zM388 782c-21 0 -31 11 -31 33c0 21 10 32 31 32c20 0 30 -11 30 -32c0 -22 -10 -33 -30 -33zM547 700v-447c0 -176 -80 -264 -239 -264s-239 88 -239 264v447h38v-450
c0 -150 67 -225 201 -225s201 75 201 225v450h38z" />
    <glyph glyph-name="Ugrave" unicode="&#xd9;" horiz-adv-x="616" 
d="M248 903l90 -149h-38l-87 138zM547 700v-447c0 -176 -80 -264 -239 -264s-239 88 -239 264v447h38v-450c0 -150 67 -225 201 -225s201 75 201 225v450h38z" />
    <glyph glyph-name="Uhungarumlaut" unicode="&#x170;" horiz-adv-x="616" 
d="M241 754h-38l91 149l35 -11zM383 754h-38l91 149l35 -11zM547 700v-447c0 -176 -80 -264 -239 -264s-239 88 -239 264v447h38v-450c0 -150 67 -225 201 -225s201 75 201 225v450h38z" />
    <glyph glyph-name="Umacron" unicode="&#x16a;" horiz-adv-x="616" 
d="M433 785h-251v34h251v-34zM547 700v-447c0 -176 -80 -264 -239 -264s-239 88 -239 264v447h38v-450c0 -150 67 -225 201 -225s201 75 201 225v450h38z" />
    <glyph glyph-name="Uogonek" unicode="&#x172;" horiz-adv-x="609" 
d="M349 -9c-47 -13 -71 -36 -71 -68c0 -39 24 -59 72 -59c31 0 55 6 72 17v-35c-19 -11 -44 -16 -74 -16c-33 0 -59 9 -78 26c-18 17 -27 38 -27 64c0 31 12 54 36 70c-140 10 -210 98 -210 263v447h38v-450c0 -150 67 -225 201 -225s201 75 201 225v450h38v-447
c0 -159 -66 -247 -198 -262z" />
    <glyph glyph-name="Uring" unicode="&#x16e;" horiz-adv-x="616" 
d="M308 743c-24 0 -43 8 -58 23s-22 34 -22 57s7 42 22 57s34 23 58 23c23 0 43 -8 58 -23s22 -34 22 -57s-7 -42 -22 -57s-34 -23 -58 -23zM308 771c33 0 50 17 50 52s-17 52 -50 52s-50 -17 -50 -52s17 -52 50 -52zM547 700v-447c0 -176 -80 -264 -239 -264
s-239 88 -239 264v447h38v-450c0 -150 67 -225 201 -225s201 75 201 225v450h38z" />
    <glyph glyph-name="V" unicode="V" horiz-adv-x="601" 
d="M322 0h-43l-257 700h40l143 -389c69 -188 100 -277 95 -267h2l26 75c22 63 44 125 67 187l145 394h39z" />
    <glyph glyph-name="W" unicode="W" horiz-adv-x="848" 
d="M577 0l-94 327c-44 151 -63 223 -58 218h-2c5 5 -15 -70 -60 -225l-92 -320h-41l-206 700h40l103 -350c59 -205 87 -305 84 -298h2l27 100c19 75 34 129 44 163l80 278h42l80 -278c49 -180 73 -268 71 -263h1l29 104c22 79 40 142 53 188l106 356h38l-206 -700h-41z" />
    <glyph glyph-name="Wacute" unicode="&#x1e82;" horiz-adv-x="848" 
d="M428 754h-38l91 149l35 -11zM577 0l-94 327c-44 151 -63 223 -58 218h-2c5 5 -15 -70 -60 -225l-92 -320h-41l-206 700h40l103 -350c59 -205 87 -305 84 -298h2l27 100c19 75 34 129 44 163l80 278h42l80 -278c49 -180 73 -268 71 -263h1l29 104c22 79 40 142 53 188
l106 356h38l-206 -700h-41z" />
    <glyph glyph-name="Wcircumflex" unicode="&#x174;" horiz-adv-x="848" 
d="M542 787l-22 -23l-94 90l-95 -89l-22 22l117 110zM577 0l-94 327c-44 151 -63 223 -58 218h-2c5 5 -15 -70 -60 -225l-92 -320h-41l-206 700h40l103 -350c59 -205 87 -305 84 -298h2l27 100c19 75 34 129 44 163l80 278h42l80 -278c49 -180 73 -268 71 -263h1l29 104
c22 79 40 142 53 188l106 356h38l-206 -700h-41z" />
    <glyph glyph-name="Wdieresis" unicode="&#x1e84;" horiz-adv-x="848" 
d="M346 782c-20 0 -30 11 -30 33c0 21 10 32 30 32c21 0 31 -11 31 -32c0 -22 -10 -33 -31 -33zM506 782c-21 0 -31 11 -31 33c0 21 10 32 31 32s31 -11 31 -32c0 -22 -10 -33 -31 -33zM577 0l-94 327c-44 151 -63 223 -58 218h-2c5 5 -15 -70 -60 -225l-92 -320h-41
l-206 700h40l103 -350c59 -205 87 -305 84 -298h2l27 100c19 75 34 129 44 163l80 278h42l80 -278c49 -180 73 -268 71 -263h1l29 104c22 79 40 142 53 188l106 356h38l-206 -700h-41z" />
    <glyph glyph-name="Wgrave" unicode="&#x1e80;" horiz-adv-x="848" 
d="M366 903l91 -149h-38l-88 138zM577 0l-94 327c-44 151 -63 223 -58 218h-2c5 5 -15 -70 -60 -225l-92 -320h-41l-206 700h40l103 -350c59 -205 87 -305 84 -298h2l27 100c19 75 34 129 44 163l80 278h42l80 -278c49 -180 73 -268 71 -263h1l29 104c22 79 40 142 53 188
l106 356h38l-206 -700h-41z" />
    <glyph glyph-name="X" unicode="X" horiz-adv-x="574" 
d="M508 0l-132 200c-60 93 -90 139 -89 139h-1c-1 0 -31 -47 -92 -140l-129 -199h-45l243 367l-219 333h44l202 -305h1c-1 0 24 38 73 115l123 190h43l-218 -333l242 -367h-46z" />
    <glyph glyph-name="Y" unicode="Y" horiz-adv-x="572" 
d="M305 316v-316h-38v316l-245 384h43l159 -247c45 -69 65 -102 62 -99h2c-4 -4 16 28 59 96l161 250h43z" />
    <glyph glyph-name="Y.ss05" horiz-adv-x="572" 
d="M319 338h122v-34h-136v-304h-38v304h-135v34h121l-231 362h43l159 -247c45 -69 65 -102 62 -99h2c-4 -4 16 28 59 96l161 250h43z" />
    <glyph glyph-name="Yacute" unicode="&#xdd;" horiz-adv-x="572" 
d="M291 754h-38l91 149l35 -11zM305 316v-316h-38v316l-245 384h43l159 -247c45 -69 65 -102 62 -99h2c-4 -4 16 28 59 96l161 250h43z" />
    <glyph glyph-name="Yacute.ss05" horiz-adv-x="572" 
d="M293 754h-38l91 149l35 -11zM319 338h122v-34h-136v-304h-38v304h-135v34h121l-231 362h43l159 -247c45 -69 65 -102 62 -99h2c-4 -4 16 28 59 96l161 250h43z" />
    <glyph glyph-name="Ycircumflex" unicode="&#x176;" horiz-adv-x="572" 
d="M405 787l-22 -23l-94 90l-95 -89l-22 22l117 110zM305 316v-316h-38v316l-245 384h43l159 -247c45 -69 65 -102 62 -99h2c-4 -4 16 28 59 96l161 250h43z" />
    <glyph glyph-name="Ycircumflex.ss05" horiz-adv-x="572" 
d="M196 765l-22 22l117 110l116 -110l-22 -23l-94 90zM319 338h122v-34h-136v-304h-38v304h-135v34h121l-231 362h43l159 -247c45 -69 65 -102 62 -99h2c-4 -4 16 28 59 96l161 250h43z" />
    <glyph glyph-name="Ydieresis" unicode="&#x178;" horiz-adv-x="572" 
d="M209 782c-20 0 -30 11 -30 33c0 21 10 32 30 32c21 0 31 -11 31 -32c0 -22 -10 -33 -31 -33zM369 782c-21 0 -31 11 -31 33c0 21 10 32 31 32s31 -11 31 -32c0 -22 -10 -33 -31 -33zM305 316v-316h-38v316l-245 384h43l159 -247c45 -69 65 -102 62 -99h2
c-4 -4 16 28 59 96l161 250h43z" />
    <glyph glyph-name="Ydieresis.ss05" horiz-adv-x="572" 
d="M211 782c-20 0 -30 11 -30 33c0 21 10 32 30 32c21 0 31 -11 31 -32c0 -22 -10 -33 -31 -33zM371 782c-21 0 -31 11 -31 33c0 21 10 32 31 32c20 0 30 -11 30 -32c0 -22 -10 -33 -30 -33zM319 338h122v-34h-136v-304h-38v304h-135v34h121l-231 362h43l159 -247
c45 -69 65 -102 62 -99h2c-4 -4 16 28 59 96l161 250h43z" />
    <glyph glyph-name="Ygrave" unicode="&#x1ef2;" horiz-adv-x="572" 
d="M229 903l91 -149h-39l-87 138zM305 316v-316h-38v316l-245 384h43l159 -247c45 -69 65 -102 62 -99h2c-4 -4 16 28 59 96l161 250h43z" />
    <glyph glyph-name="Ygrave.ss05" horiz-adv-x="572" 
d="M283 754l-87 138l35 11l90 -149h-38zM319 338h122v-34h-136v-304h-38v304h-135v34h121l-231 362h43l159 -247c45 -69 65 -102 62 -99h2c-4 -4 16 28 59 96l161 250h43z" />
    <glyph glyph-name="Z" unicode="Z" horiz-adv-x="570" 
d="M529 665l-370 -528c-49 -69 -73 -103 -73 -102l1 -1l21 1c17 1 34 1 52 1h369v-36h-488v34l373 532c48 68 72 101 72 98l-2 1l-75 -1h-359v36h479v-35z" />
    <glyph glyph-name="Zacute" unicode="&#x179;" horiz-adv-x="570" 
d="M289 754h-38l91 149l35 -11zM529 665l-370 -528c-49 -69 -73 -103 -73 -102l1 -1l21 1c17 1 34 1 52 1h369v-36h-488v34l373 532c48 68 72 101 72 98l-2 1l-75 -1h-359v36h479v-35z" />
    <glyph glyph-name="Zacute.loclPLK" horiz-adv-x="570" 
d="M297 754h-36l50 162l34 -10zM529 665l-370 -528c-49 -69 -73 -103 -73 -102l1 -1l21 1c17 1 34 1 52 1h369v-36h-488v34l373 532c48 68 72 101 72 98l-2 1l-75 -1h-359v36h479v-35z" />
    <glyph glyph-name="Zcaron" unicode="&#x17d;" horiz-adv-x="570" 
d="M171 873l21 23l96 -91l95 91l21 -23l-116 -110zM529 665l-370 -528c-49 -69 -73 -103 -73 -102l1 -1l21 1c17 1 34 1 52 1h369v-36h-488v34l373 532c48 68 72 101 72 98l-2 1l-75 -1h-359v36h479v-35z" />
    <glyph glyph-name="Zdotaccent" unicode="&#x17b;" horiz-adv-x="570" 
d="M286 782c-20 0 -30 11 -30 33c0 21 10 32 30 32c21 0 31 -11 31 -32c0 -22 -10 -33 -31 -33zM529 665l-370 -528c-49 -69 -73 -103 -73 -102l1 -1l21 1c17 1 34 1 52 1h369v-36h-488v34l373 532c48 68 72 101 72 98l-2 1l-75 -1h-359v36h479v-35z" />
    <glyph glyph-name="a" unicode="a" horiz-adv-x="518" 
d="M389 171h-261l-64 -171h-39l213 560h42l213 -560h-39zM376 205l-56 150c-40 103 -60 160 -60 169h-2c0 -5 -21 -64 -63 -175l-54 -144h235z" />
    <glyph glyph-name="aacute" unicode="&#xe1;" horiz-adv-x="518" 
d="M262 614h-39l91 149l35 -11zM389 171h-261l-64 -171h-39l213 560h42l213 -560h-39zM376 205l-56 150c-40 103 -60 160 -60 169h-2c0 -5 -21 -64 -63 -175l-54 -144h235z" />
    <glyph glyph-name="abreve" unicode="&#x103;" horiz-adv-x="518" 
d="M260 605c-37 0 -67 11 -90 34c-23 21 -36 48 -37 81h33c1 -24 10 -43 25 -58c17 -17 40 -26 69 -26s53 9 70 27c15 15 23 34 24 57h33c-1 -32 -13 -59 -35 -80c-24 -23 -55 -35 -92 -35zM389 171h-261l-64 -171h-39l213 560h42l213 -560h-39zM376 205l-56 150
c-40 103 -60 160 -60 169h-2c0 -5 -21 -64 -63 -175l-54 -144h235z" />
    <glyph glyph-name="acircumflex" unicode="&#xe2;" horiz-adv-x="518" 
d="M185 626l-22 22l96 109l97 -110l-22 -22l-75 86zM389 171h-261l-64 -171h-39l213 560h42l213 -560h-39zM376 205l-56 150c-40 103 -60 160 -60 169h-2c0 -5 -21 -64 -63 -175l-54 -144h235z" />
    <glyph glyph-name="adieresis" unicode="&#xe4;" horiz-adv-x="518" 
d="M179 642c-20 0 -30 11 -30 33c0 21 10 32 31 32c20 0 30 -11 30 -32c0 -22 -10 -33 -31 -33zM339 642c-21 0 -31 11 -31 33c0 21 10 32 31 32s31 -11 31 -32c0 -22 -10 -33 -31 -33zM389 171h-261l-64 -171h-39l213 560h42l213 -560h-39zM376 205l-56 150
c-40 103 -60 160 -60 169h-2c0 -5 -21 -64 -63 -175l-54 -144h235z" />
    <glyph glyph-name="agrave" unicode="&#xe0;" horiz-adv-x="518" 
d="M252 614l-88 138l35 11l91 -149h-38zM389 171h-261l-64 -171h-39l213 560h42l213 -560h-39zM376 205l-56 150c-40 103 -60 160 -60 169h-2c0 -5 -21 -64 -63 -175l-54 -144h235z" />
    <glyph glyph-name="amacron" unicode="&#x101;" horiz-adv-x="518" 
d="M385 645h-251v34h251v-34zM389 171h-261l-64 -171h-39l213 560h42l213 -560h-39zM376 205l-56 150c-40 103 -60 160 -60 169h-2c0 -5 -21 -64 -63 -175l-54 -144h235z" />
    <glyph glyph-name="aogonek" unicode="&#x105;" horiz-adv-x="518" 
d="M431 -136c31 0 57 6 78 18v-35c-21 -11 -48 -17 -81 -17c-31 0 -56 8 -75 24c-20 17 -30 39 -30 68c0 63 40 99 119 108l-53 141h-261l-64 -171h-39l213 560h42l213 -560h-13c-81 0 -122 -26 -122 -77c0 -39 24 -59 73 -59zM376 205l-56 150c-40 103 -60 160 -60 169h-2
c0 -5 -21 -64 -63 -175l-54 -144h235z" />
    <glyph glyph-name="aring" unicode="&#xe5;" horiz-adv-x="518" 
d="M259 603c-24 0 -43 8 -57 23c-15 15 -22 34 -22 57s7 42 22 57s34 23 57 23c24 0 43 -8 58 -23s22 -34 22 -57s-7 -42 -22 -57s-34 -23 -58 -23zM259 735c-33 0 -50 -17 -50 -52s17 -52 50 -52c34 0 51 17 51 52s-17 52 -51 52zM389 171h-261l-64 -171h-39l213 560h42
l213 -560h-39zM376 205l-56 150c-40 103 -60 160 -60 169h-2c0 -5 -21 -64 -63 -175l-54 -144h235z" />
    <glyph glyph-name="atilde" unicode="&#xe3;" horiz-adv-x="518" 
d="M201 679c-21 0 -36 -8 -47 -24l-12 29c16 20 35 30 58 30c15 0 34 -6 56 -17c23 -12 41 -18 56 -18c18 0 34 8 47 23l11 -30c-13 -18 -33 -27 -58 -27c-16 0 -35 6 -57 17s-40 17 -54 17zM389 171h-261l-64 -171h-39l213 560h42l213 -560h-39zM376 205l-56 150
c-40 103 -60 160 -60 169h-2c0 -5 -21 -64 -63 -175l-54 -144h235z" />
    <glyph glyph-name="ae" unicode="&#xe6;" horiz-adv-x="720" 
d="M673 35v-35h-338v175h-206l-65 -175h-39l213 560h430v-35h-297v-215h234v-35h-234v-240h302zM335 209v316h-76l-117 -316h193z" />
    <glyph glyph-name="b" unicode="b" horiz-adv-x="486" 
d="M313 298v-3c33 -3 61 -14 85 -34c32 -26 48 -62 48 -109s-15 -84 -46 -111s-75 -41 -130 -41h-190v560h172c47 0 86 -13 115 -39c29 -25 43 -58 43 -97c0 -70 -32 -112 -97 -126zM117 310h131c33 0 62 9 85 26c27 21 40 49 40 85c0 31 -11 57 -34 76s-53 29 -91 29h-131
v-216zM117 34h154c42 0 75 10 100 31s38 50 38 87c0 39 -14 70 -42 93c-27 21 -61 32 -103 32h-147v-243z" />
    <glyph glyph-name="c" unicode="c" horiz-adv-x="575" 
d="M493 159l35 -9c-43 -107 -120 -161 -232 -161c-76 0 -138 26 -185 79s-71 124 -71 212c0 89 24 160 72 213c47 51 108 77 183 77c116 0 192 -54 228 -161l-35 -9c-34 90 -98 135 -191 135c-67 0 -120 -23 -159 -68c-40 -45 -60 -107 -60 -186c0 -81 20 -144 61 -190
c39 -45 92 -67 157 -67c93 0 159 45 197 135z" />
    <glyph glyph-name="cacute" unicode="&#x107;" horiz-adv-x="575" 
d="M297 614h-38l90 149l35 -11zM493 159l35 -9c-43 -107 -120 -161 -232 -161c-76 0 -138 26 -185 79s-71 124 -71 212c0 89 24 160 72 213c47 51 108 77 183 77c116 0 192 -54 228 -161l-35 -9c-34 90 -98 135 -191 135c-67 0 -120 -23 -159 -68c-40 -45 -60 -107 -60 -186
c0 -81 20 -144 61 -190c39 -45 92 -67 157 -67c93 0 159 45 197 135z" />
    <glyph glyph-name="cacute.loclPLK" horiz-adv-x="575" 
d="M305 614h-36l50 162l34 -10zM493 159l35 -9c-43 -107 -120 -161 -232 -161c-76 0 -138 26 -185 79s-71 124 -71 212c0 89 24 160 72 213c47 51 108 77 183 77c116 0 192 -54 228 -161l-35 -9c-34 90 -98 135 -191 135c-67 0 -120 -23 -159 -68c-40 -45 -60 -107 -60 -186
c0 -81 20 -144 61 -190c39 -45 92 -67 157 -67c93 0 159 45 197 135z" />
    <glyph glyph-name="ccaron" unicode="&#x10d;" horiz-adv-x="575" 
d="M179 733l21 23l96 -91l95 91l21 -23l-116 -110zM493 159l35 -9c-43 -107 -120 -161 -232 -161c-76 0 -138 26 -185 79s-71 124 -71 212c0 89 24 160 72 213c47 51 108 77 183 77c116 0 192 -54 228 -161l-35 -9c-34 90 -98 135 -191 135c-67 0 -120 -23 -159 -68
c-40 -45 -60 -107 -60 -186c0 -81 20 -144 61 -190c39 -45 92 -67 157 -67c93 0 159 45 197 135z" />
    <glyph glyph-name="ccedilla" unicode="&#xe7;" horiz-adv-x="575" 
d="M493 159l35 -9c-40 -101 -112 -155 -216 -161v-10c63 -7 94 -32 94 -76c0 -50 -32 -75 -96 -75c-29 0 -53 5 -70 16v33c16 -11 38 -16 67 -16c43 0 65 15 65 45c0 31 -31 48 -94 50v33c-71 5 -129 33 -172 85c-44 53 -66 122 -66 206c0 89 24 160 72 213
c47 51 108 77 183 77c116 0 192 -54 228 -161l-35 -9c-34 90 -98 135 -191 135c-67 0 -120 -23 -159 -68c-40 -45 -60 -107 -60 -186c0 -81 20 -144 61 -190c39 -45 92 -67 157 -67c93 0 159 45 197 135z" />
    <glyph glyph-name="ccircumflex" unicode="&#x109;" horiz-adv-x="575" 
d="M410 647l-21 -23l-95 90l-95 -89l-22 22l117 110zM493 159l35 -9c-43 -107 -120 -161 -232 -161c-76 0 -138 26 -185 79s-71 124 -71 212c0 89 24 160 72 213c47 51 108 77 183 77c116 0 192 -54 228 -161l-35 -9c-34 90 -98 135 -191 135c-67 0 -120 -23 -159 -68
c-40 -45 -60 -107 -60 -186c0 -81 20 -144 61 -190c39 -45 92 -67 157 -67c93 0 159 45 197 135z" />
    <glyph glyph-name="cdotaccent" unicode="&#x10b;" horiz-adv-x="575" 
d="M294 642c-20 0 -30 11 -30 33c0 21 10 32 30 32c21 0 31 -11 31 -32c0 -22 -10 -33 -31 -33zM493 159l35 -9c-43 -107 -120 -161 -232 -161c-76 0 -138 26 -185 79s-71 124 -71 212c0 89 24 160 72 213c47 51 108 77 183 77c116 0 192 -54 228 -161l-35 -9
c-34 90 -98 135 -191 135c-67 0 -120 -23 -159 -68c-40 -45 -60 -107 -60 -186c0 -81 20 -144 61 -190c39 -45 92 -67 157 -67c93 0 159 45 197 135z" />
    <glyph glyph-name="d" unicode="d" horiz-adv-x="549" 
d="M80 560h153c86 0 153 -25 202 -75c49 -51 73 -120 73 -208c0 -87 -24 -155 -72 -204c-47 -49 -112 -73 -195 -73h-161v560zM117 35h123c71 0 127 21 168 62c42 43 63 102 63 179c0 80 -21 142 -64 185c-41 42 -99 63 -174 63h-116v-489z" />
    <glyph glyph-name="eth" unicode="&#xf0;" horiz-adv-x="549" 
d="M80 560h153c86 0 153 -25 202 -75c49 -51 73 -120 73 -208c0 -87 -24 -155 -72 -204c-47 -49 -112 -73 -195 -73h-161v275h-68v35h68v250zM117 35h123c71 0 127 21 168 62c42 43 63 102 63 179c0 80 -21 142 -64 185c-41 42 -99 63 -174 63h-116v-214h167v-35h-167v-240z
" />
    <glyph glyph-name="dcaron" unicode="&#x10f;" horiz-adv-x="549" 
d="M150 733l22 23l95 -91l95 91l22 -23l-117 -110zM80 560h153c86 0 153 -25 202 -75c49 -51 73 -120 73 -208c0 -87 -24 -155 -72 -204c-47 -49 -112 -73 -195 -73h-161v560zM117 35h123c71 0 127 21 168 62c42 43 63 102 63 179c0 80 -21 142 -64 185
c-41 42 -99 63 -174 63h-116v-489z" />
    <glyph glyph-name="dslash" unicode="&#x111;" horiz-adv-x="549" 
d="M80 560h153c86 0 153 -25 202 -75c49 -51 73 -120 73 -208c0 -87 -24 -155 -72 -204c-47 -49 -112 -73 -195 -73h-161v275h-68v35h68v250zM117 35h123c71 0 127 21 168 62c42 43 63 102 63 179c0 80 -21 142 -64 185c-41 42 -99 63 -174 63h-116v-214h167v-35h-167v-240z
" />
    <glyph glyph-name="e" unicode="e" horiz-adv-x="464" 
d="M80 0v560h332v-35h-295v-215h234v-35h-234v-240h299v-35h-336z" />
    <glyph glyph-name="eacute" unicode="&#xe9;" horiz-adv-x="464" 
d="M248 614h-38l91 149l35 -11zM80 0v560h332v-35h-295v-215h234v-35h-234v-240h299v-35h-336z" />
    <glyph glyph-name="ecaron" unicode="&#x11b;" horiz-adv-x="464" 
d="M130 733l22 23l95 -91l95 91l22 -23l-117 -110zM80 0v560h332v-35h-295v-215h234v-35h-234v-240h299v-35h-336z" />
    <glyph glyph-name="ecircumflex" unicode="&#xea;" horiz-adv-x="464" 
d="M362 647l-22 -23l-94 90l-95 -89l-22 22l117 110zM80 0v560h332v-35h-295v-215h234v-35h-234v-240h299v-35h-336z" />
    <glyph glyph-name="edieresis" unicode="&#xeb;" horiz-adv-x="464" 
d="M166 642c-20 0 -30 11 -30 33c0 21 10 32 30 32c21 0 31 -11 31 -32c0 -22 -10 -33 -31 -33zM326 642c-21 0 -31 11 -31 33c0 21 10 32 31 32s31 -11 31 -32c0 -22 -10 -33 -31 -33zM80 0v560h332v-35h-295v-215h234v-35h-234v-240h299v-35h-336z" />
    <glyph glyph-name="edotaccent" unicode="&#x117;" horiz-adv-x="464" 
d="M246 642c-21 0 -31 11 -31 33c0 21 10 32 31 32c20 0 30 -11 30 -32c0 -22 -10 -33 -30 -33zM80 0v560h332v-35h-295v-215h234v-35h-234v-240h299v-35h-336z" />
    <glyph glyph-name="egrave" unicode="&#xe8;" horiz-adv-x="464" 
d="M186 763l90 -149h-38l-87 138zM80 0v560h332v-35h-295v-215h234v-35h-234v-240h299v-35h-336z" />
    <glyph glyph-name="emacron" unicode="&#x113;" horiz-adv-x="464" 
d="M371 645h-251v34h251v-34zM80 0v560h332v-35h-295v-215h234v-35h-234v-240h299v-35h-336z" />
    <glyph glyph-name="eogonek" unicode="&#x119;" horiz-adv-x="464" 
d="M416 0h-41c-61 -6 -92 -31 -92 -76c0 -40 22 -60 65 -60c29 0 51 6 68 17v-35c-18 -11 -41 -16 -69 -16c-31 0 -55 9 -73 26c-17 17 -26 38 -26 65c0 35 15 62 45 79h-213v560h332v-35h-295v-215h234v-35h-234v-240h299v-35z" />
    <glyph glyph-name="f" unicode="f" horiz-adv-x="446" 
d="M412 525h-295v-223h222v-36h-222v-266h-37v560h332v-35z" />
    <glyph glyph-name="g" unicode="g" horiz-adv-x="596" 
d="M534 0h-35l1 90h-1c-47 -67 -115 -101 -202 -101c-77 0 -139 27 -186 80s-71 124 -71 212s24 159 72 212c47 51 107 77 182 77c117 0 193 -54 230 -161l-35 -9c-34 90 -98 135 -193 135c-66 0 -119 -22 -158 -67c-40 -46 -60 -108 -60 -186c0 -80 20 -143 61 -190
c39 -45 92 -68 159 -68c49 0 93 13 132 38c33 22 56 48 69 77v95h-161v35h196v-269z" />
    <glyph glyph-name="gbreve" unicode="&#x11f;" horiz-adv-x="596" 
d="M165 720h33c1 -24 10 -43 25 -58c17 -17 40 -26 69 -26s53 9 70 27c15 15 23 34 24 57h33c-1 -32 -13 -59 -36 -80c-23 -23 -54 -35 -91 -35s-67 11 -91 34c-23 21 -35 48 -36 81zM534 0h-35l1 90h-1c-47 -67 -115 -101 -202 -101c-77 0 -139 27 -186 80s-71 124 -71 212
s24 159 72 212c47 51 107 77 182 77c117 0 193 -54 230 -161l-35 -9c-34 90 -98 135 -193 135c-66 0 -119 -22 -158 -67c-40 -46 -60 -108 -60 -186c0 -80 20 -143 61 -190c39 -45 92 -68 159 -68c49 0 93 13 132 38c33 22 56 48 69 77v95h-161v35h196v-269z" />
    <glyph glyph-name="gcircumflex" unicode="&#x11d;" horiz-adv-x="596" 
d="M407 647l-22 -23l-94 90l-95 -89l-22 22l117 110zM534 0h-35l1 90h-1c-47 -67 -115 -101 -202 -101c-77 0 -139 27 -186 80s-71 124 -71 212s24 159 72 212c47 51 107 77 182 77c117 0 193 -54 230 -161l-35 -9c-34 90 -98 135 -193 135c-66 0 -119 -22 -158 -67
c-40 -46 -60 -108 -60 -186c0 -80 20 -143 61 -190c39 -45 92 -68 159 -68c49 0 93 13 132 38c33 22 56 48 69 77v95h-161v35h196v-269z" />
    <glyph glyph-name="uni0123" unicode="&#x123;" horiz-adv-x="596" 
d="M534 0h-35l1 90h-1c-47 -67 -115 -101 -202 -101c-77 0 -139 27 -186 80s-71 124 -71 212s24 159 72 212c47 51 107 77 182 77c117 0 193 -54 230 -161l-35 -9c-34 90 -98 135 -193 135c-66 0 -119 -22 -158 -67c-40 -46 -60 -108 -60 -186c0 -80 20 -143 61 -190
c39 -45 92 -68 159 -68c49 0 93 13 132 38c33 22 56 48 69 77v95h-161v35h196v-269zM310 -91c-11 -3 -20 -1 -28 4s-12 13 -12 23c0 21 11 32 34 32c24 0 36 -14 36 -43c0 -47 -22 -79 -65 -98l-15 18c31 13 47 34 50 64z" />
    <glyph glyph-name="gdotaccent" unicode="&#x121;" horiz-adv-x="596" 
d="M291 642c-21 0 -31 11 -31 33c0 21 10 32 31 32s31 -11 31 -32c0 -22 -10 -33 -31 -33zM534 0h-35l1 90h-1c-47 -67 -115 -101 -202 -101c-77 0 -139 27 -186 80s-71 124 -71 212s24 159 72 212c47 51 107 77 182 77c117 0 193 -54 230 -161l-35 -9
c-34 90 -98 135 -193 135c-66 0 -119 -22 -158 -67c-40 -46 -60 -108 -60 -186c0 -80 20 -143 61 -190c39 -45 92 -68 159 -68c49 0 93 13 132 38c33 22 56 48 69 77v95h-161v35h196v-269z" />
    <glyph glyph-name="h" unicode="h" horiz-adv-x="554" 
d="M474 0h-37v274h-320v-274h-37v560h37v-250h320v250h37v-560z" />
    <glyph glyph-name="hbar" unicode="&#x127;" horiz-adv-x="570" 
d="M541 413h-59v-413h-37v275h-320v-275h-37v413h-59v32h59v115h37v-115h320v115h37v-115h59v-32zM445 413h-320v-103h320v103z" />
    <glyph glyph-name="hcircumflex" unicode="&#x125;" horiz-adv-x="554" 
d="M393 647l-22 -23l-94 90l-95 -89l-22 22l117 110zM474 0h-37v274h-320v-274h-37v560h37v-250h320v250h37v-560z" />
    <glyph glyph-name="i" unicode="i" horiz-adv-x="197" 
d="M80 0v560h37v-560h-37z" />
    <glyph glyph-name="i.ss03" horiz-adv-x="364" 
d="M201 35h98v-35h-235v35h99v490h-99v35h235v-35h-98v-490z" />
    <glyph glyph-name="dotlessi" unicode="&#x131;" horiz-adv-x="197" 
d="M80 0v560h37v-560h-37z" />
    <glyph glyph-name="dotlessi.ss03" horiz-adv-x="364" 
d="M201 35h98v-35h-235v35h99v490h-99v35h235v-35h-98v-490z" />
    <glyph glyph-name="iacute" unicode="&#xed;" horiz-adv-x="197" 
d="M101 614h-38l91 149l35 -11zM80 0v560h37v-560h-37z" />
    <glyph glyph-name="iacute.ss03" horiz-adv-x="364" 
d="M184 614h-38l90 149l35 -11zM201 35h98v-35h-235v35h99v490h-99v35h235v-35h-98v-490z" />
    <glyph glyph-name="iacute_j.loclNLD" horiz-adv-x="579" 
d="M154 763l35 -11l-88 -138h-38zM490 614h-38l90 149l36 -11zM80 560h37v-560h-37v560zM470 560h37v-369c0 -135 -55 -202 -166 -202c-56 0 -99 20 -130 61l22 26c27 -35 63 -52 108 -52c86 0 129 55 129 165v371z" />
    <glyph glyph-name="icircumflex" unicode="&#xee;" horiz-adv-x="197" 
d="M195 647l-22 -22l-74 86l-74 -85l-23 22l97 109zM80 0v560h37v-560h-37z" />
    <glyph glyph-name="icircumflex.ss03" horiz-adv-x="364" 
d="M297 647l-21 -23l-95 90l-95 -89l-22 22l117 110zM201 35h98v-35h-235v35h99v490h-99v35h235v-35h-98v-490z" />
    <glyph glyph-name="idieresis" unicode="&#xef;" horiz-adv-x="197" 
d="M53 642c-20 0 -30 11 -30 33c0 21 10 32 30 32s30 -11 30 -32c0 -22 -10 -33 -30 -33zM145 642c-20 0 -30 11 -30 33c0 21 10 32 30 32c21 0 31 -11 31 -32c0 -22 -10 -33 -31 -33zM80 0v560h37v-560h-37z" />
    <glyph glyph-name="idieresis.ss03" horiz-adv-x="364" 
d="M102 642c-20 0 -30 11 -30 33c0 21 10 32 30 32s30 -11 30 -32c0 -22 -10 -33 -30 -33zM261 642c-20 0 -30 11 -30 33c0 21 10 32 30 32c21 0 31 -11 31 -32c0 -22 -10 -33 -31 -33zM201 35h98v-35h-235v35h99v490h-99v35h235v-35h-98v-490z" />
    <glyph glyph-name="i.loclTRK" horiz-adv-x="197" 
d="M99 642c-21 0 -31 11 -31 33c0 21 10 32 31 32c20 0 30 -11 30 -32c0 -22 -10 -33 -30 -33zM80 0v560h37v-560h-37z" />
    <glyph glyph-name="i.loclTRK.ss03" horiz-adv-x="364" 
d="M181 642c-20 0 -30 11 -30 33c0 21 10 32 30 32c21 0 31 -11 31 -32c0 -22 -10 -33 -31 -33zM201 35h98v-35h-235v35h99v490h-99v35h235v-35h-98v-490z" />
    <glyph glyph-name="igrave" unicode="&#xec;" horiz-adv-x="197" 
d="M39 763l90 -149h-38l-87 138zM80 0v560h37v-560h-37z" />
    <glyph glyph-name="igrave.ss03" horiz-adv-x="364" 
d="M121 763l91 -149h-38l-88 138zM201 35h98v-35h-235v35h99v490h-99v35h235v-35h-98v-490z" />
    <glyph glyph-name="ij" unicode="&#x133;" horiz-adv-x="579" 
d="M80 0v560h37v-560h-37zM507 560v-369c0 -135 -55 -202 -166 -202c-56 0 -99 20 -130 61l22 26c27 -35 63 -52 108 -52c86 0 129 55 129 165v371h37z" />
    <glyph glyph-name="ij.ss03" horiz-adv-x="732" 
d="M201 35h98v-35h-235v35h99v490h-99v35h235v-35h-98v-490zM660 560v-369c0 -135 -55 -202 -166 -202c-56 0 -99 20 -130 61l22 26c27 -35 62 -52 107 -52c87 0 130 55 130 165v371h37z" />
    <glyph glyph-name="ij.ss03.ss04" horiz-adv-x="739" 
d="M64 560h235v-35h-98v-490h98v-35h-235v35h99v490h-99v35zM667 560v-369c0 -135 -55 -202 -166 -202c-56 0 -99 20 -130 61l22 26c27 -35 62 -52 107 -52c87 0 130 55 130 165v336h-212v35h249z" />
    <glyph glyph-name="ij.ss04" horiz-adv-x="572" 
d="M80 560h37v-560h-37v560zM500 560v-369c0 -135 -55 -202 -166 -202c-56 0 -99 20 -130 61l22 26c27 -35 63 -52 108 -52c86 0 129 55 129 165v336h-212v35h249z" />
    <glyph glyph-name="imacron" unicode="&#x12b;" horiz-adv-x="197" 
d="M189 645h-180v34h180v-34zM80 0v560h37v-560h-37z" />
    <glyph glyph-name="imacron.ss03" horiz-adv-x="394" 
d="M315 645h-235v34h235v-34zM216 35h99v-35h-235v35h99v490h-99v35h235v-35h-99v-490z" />
    <glyph glyph-name="iogonek" unicode="&#x12f;" horiz-adv-x="197" 
d="M91 -136c25 0 45 6 59 17v-35c-16 -11 -36 -16 -61 -16c-27 0 -48 9 -65 26c-15 17 -23 38 -23 65c0 56 26 91 79 104v535h37v-560h-3c-53 -4 -79 -30 -79 -77c0 -39 19 -59 56 -59z" />
    <glyph glyph-name="iogonek.ss03" horiz-adv-x="364" 
d="M234 -136c29 0 51 6 67 17v-35c-18 -11 -41 -16 -69 -16c-31 0 -55 9 -73 26c-17 17 -25 38 -25 65c0 35 15 62 44 79h-114v35h99v490h-99v35h235v-35h-98v-490h98v-35h-39c-61 -6 -92 -31 -92 -76c0 -40 22 -60 66 -60z" />
    <glyph glyph-name="j" unicode="j" horiz-adv-x="376" 
d="M303 560v-369c0 -135 -55 -202 -166 -202c-56 0 -99 20 -130 61l22 26c27 -35 63 -52 108 -52c86 0 129 55 129 165v371h37z" />
    <glyph glyph-name="j.ss04" horiz-adv-x="376" 
d="M303 560v-369c0 -135 -55 -202 -166 -202c-56 0 -99 20 -130 61l22 26c27 -35 63 -52 108 -52c86 0 129 55 129 165v336h-211v35h248z" />
    <glyph glyph-name="uni0237" unicode="&#x237;" horiz-adv-x="376" 
d="M303 560v-369c0 -135 -55 -202 -166 -202c-56 0 -99 20 -130 61l22 26c27 -35 63 -52 108 -52c86 0 129 55 129 165v371h37z" />
    <glyph glyph-name="dotlessj.ss04" horiz-adv-x="376" 
d="M303 560v-369c0 -135 -55 -202 -166 -202c-56 0 -99 20 -130 61l22 26c27 -35 63 -52 108 -52c86 0 129 55 129 165v336h-211v35h248z" />
    <glyph glyph-name="jcircumflex" unicode="&#x135;" horiz-adv-x="376" 
d="M400 647l-22 -23l-94 90l-95 -89l-22 22l117 110zM303 560v-369c0 -135 -55 -202 -166 -202c-56 0 -99 20 -130 61l22 26c27 -35 63 -52 108 -52c86 0 129 55 129 165v371h37z" />
    <glyph glyph-name="jcircumflex.ss04" horiz-adv-x="376" 
d="M87 625l-22 22l117 110l116 -110l-22 -23l-94 90zM303 560v-369c0 -135 -55 -202 -166 -202c-56 0 -99 20 -130 61l22 26c27 -35 63 -52 108 -52c86 0 129 55 129 165v336h-211v35h248z" />
    <glyph glyph-name="k" unicode="k" horiz-adv-x="489" 
d="M224 308l-108 -120l1 -188h-37v560h37v-280l-1 -44l291 324h46l-203 -225l221 -335h-43z" />
    <glyph glyph-name="uni0137" unicode="&#x137;" horiz-adv-x="489" 
d="M471 0h-43l-204 308l-108 -120l1 -188h-37v560h37v-280l-1 -44l291 324h46l-203 -225zM260 -32c23 0 35 -14 35 -43c0 -47 -21 -80 -64 -98l-15 18c31 13 47 34 50 64c-11 -3 -20 -2 -28 4c-9 5 -13 13 -13 23c0 21 12 32 35 32z" />
    <glyph glyph-name="l" unicode="l" horiz-adv-x="431" 
d="M80 0v560h37v-525h279v-35h-316z" />
    <glyph glyph-name="lacute" unicode="&#x13a;" horiz-adv-x="431" 
d="M110 614h-38l91 149l35 -11zM80 0v560h37v-525h279v-35h-316z" />
    <glyph glyph-name="lcaron" unicode="&#x13e;" horiz-adv-x="431" 
d="M80 0v560h37v-525h279v-35h-316zM260 559h34c0 -71 -13 -136 -39 -196h-31c24 61 36 126 36 196z" />
    <glyph glyph-name="uni013C" unicode="&#x13c;" horiz-adv-x="431" 
d="M80 0v560h37v-525h279v-35h-316zM240 -91c-11 -3 -20 -2 -28 4c-9 5 -13 13 -13 23c0 21 12 32 35 32s35 -14 35 -43c0 -47 -22 -79 -65 -98l-14 18c29 12 46 33 50 64z" />
    <glyph glyph-name="ldot" unicode="&#x140;" horiz-adv-x="431" 
d="M80 0v560h37v-525h279v-35h-316zM314 250c-24 0 -36 12 -36 36s12 36 36 36s36 -12 36 -36s-12 -36 -36 -36z" />
    <glyph glyph-name="lslash" unicode="&#x142;" horiz-adv-x="431" 
d="M396 35v-35h-316v560h37v-293l193 101v-39l-193 -101v-193h279z" />
    <glyph glyph-name="m" unicode="m" horiz-adv-x="624" 
d="M507 0l1 509h-1l-181 -369h-32l-178 371h-2l2 -219v-292h-36v560h49l121 -249c41 -86 62 -129 61 -129h2c-1 0 19 43 62 130l121 248h48v-560h-37z" />
    <glyph glyph-name="n" unicode="n" horiz-adv-x="557" 
d="M477 0h-40l-321 506h-1c1 -43 1 -87 1 -133v-373h-36v560h41l320 -502h1l-1 41c-1 32 -1 62 -1 90v371h37v-560z" />
    <glyph glyph-name="n.ss02" horiz-adv-x="557" 
d="M477 0h-37v243l-322 274h-2l1 -43v-474h-37v560h41l318 -271h2l-1 271h37v-560z" />
    <glyph glyph-name="nacute" unicode="&#x144;" horiz-adv-x="557" 
d="M278 614h-38l91 149l35 -11zM477 0h-40l-321 506h-1c1 -43 1 -87 1 -133v-373h-36v560h41l320 -502h1l-1 41c-1 32 -1 62 -1 90v371h37v-560z" />
    <glyph glyph-name="nacute.loclPLK" horiz-adv-x="557" 
d="M286 614h-36l50 162l34 -10zM477 0h-40l-321 506h-1c1 -43 1 -87 1 -133v-373h-36v560h41l320 -502h1l-1 41c-1 32 -1 62 -1 90v371h37v-560z" />
    <glyph glyph-name="nacute.loclPLK.ss02" horiz-adv-x="557" 
d="M286 614h-36l50 162l34 -10zM477 0h-37v243l-322 274h-2l1 -43v-474h-37v560h41l318 -271h2l-1 271h37v-560z" />
    <glyph glyph-name="nacute.ss02" horiz-adv-x="557" 
d="M278 614h-38l90 149l36 -11zM477 0h-37v243l-322 274h-2l1 -43v-474h-37v560h41l318 -271h2l-1 271h37v-560z" />
    <glyph glyph-name="ncaron" unicode="&#x148;" horiz-adv-x="557" 
d="M160 733l22 23l95 -91l95 91l22 -23l-117 -110zM477 0h-40l-321 506h-1c1 -43 1 -87 1 -133v-373h-36v560h41l320 -502h1l-1 41c-1 32 -1 62 -1 90v371h37v-560z" />
    <glyph glyph-name="ncaron.ss02" horiz-adv-x="557" 
d="M160 733l21 23l96 -91l95 91l21 -23l-116 -110zM477 0h-37v243l-322 274h-2l1 -43v-474h-37v560h41l318 -271h2l-1 271h37v-560z" />
    <glyph glyph-name="uni0146" unicode="&#x146;" horiz-adv-x="557" 
d="M477 0h-40l-321 506h-1c1 -43 1 -87 1 -133v-373h-36v560h41l320 -502h1l-1 41c-1 32 -1 62 -1 90v371h37v-560zM279 -91c-11 -3 -20 -2 -28 4c-9 5 -13 13 -13 23c0 21 12 32 35 32s35 -14 35 -43c0 -47 -22 -79 -65 -98l-14 18c29 12 46 33 50 64z" />
    <glyph glyph-name="ncommaaccent.ss02" horiz-adv-x="557" 
d="M477 0h-37v243l-322 274h-2l1 -43v-474h-37v560h41l318 -271h2l-1 271h37v-560zM280 -91c-11 -3 -20 -1 -28 4s-12 13 -12 23c0 21 11 32 34 32c24 0 36 -14 36 -43c0 -47 -22 -79 -65 -98l-15 18c31 13 47 34 50 64z" />
    <glyph glyph-name="eng" unicode="&#x14b;" horiz-adv-x="557" 
d="M477 560v-560c0 -107 -43 -161 -129 -161h-14v34h14c64 0 94 42 89 127l-321 506h-1c1 -43 1 -87 1 -133v-373h-36v560h41l320 -502h1l-1 41c-1 32 -1 62 -1 90v371h37z" />
    <glyph glyph-name="eng.ss02" horiz-adv-x="557" 
d="M477 0h-37v243l-322 274h-2l1 -43v-474h-37v560h41l318 -271h2l-1 271h37v-560zM440 0h37c0 -107 -43 -161 -128 -161h-14v33h12c62 0 93 43 93 128z" />
    <glyph glyph-name="ntilde" unicode="&#xf1;" horiz-adv-x="557" 
d="M375 702l12 -30c-13 -18 -33 -27 -58 -27c-16 0 -35 6 -57 17s-40 17 -54 17c-21 0 -36 -8 -47 -24l-12 29c14 20 33 30 58 30c15 0 34 -6 56 -17c22 -12 40 -18 55 -18c18 0 34 8 47 23zM477 0h-40l-321 506h-1c1 -43 1 -87 1 -133v-373h-36v560h41l320 -502h1l-1 41
c-1 32 -1 62 -1 90v371h37v-560z" />
    <glyph glyph-name="ntilde.ss02" horiz-adv-x="557" 
d="M375 702l12 -30c-13 -18 -33 -27 -58 -27c-16 0 -35 6 -57 17c-23 11 -41 17 -55 17c-19 0 -34 -8 -47 -24l-11 29c14 20 33 30 58 30c15 0 34 -6 56 -17c22 -12 40 -18 55 -18c18 0 34 8 47 23zM477 0h-37v243l-322 274h-2l1 -43v-474h-37v560h41l318 -271h2l-1 271h37
v-560z" />
    <glyph glyph-name="o" unicode="o" horiz-adv-x="588" 
d="M40 280c0 89 24 160 72 213c47 51 107 77 182 77s135 -26 182 -77c48 -53 72 -124 72 -213s-24 -160 -72 -213c-47 -52 -107 -78 -182 -78s-135 26 -182 78c-48 53 -72 124 -72 213zM78 280c0 -79 20 -142 61 -189c39 -45 91 -67 155 -67s116 22 155 67
c41 47 61 110 61 189s-20 142 -61 188c-39 45 -91 67 -155 67c-65 0 -116 -22 -155 -67c-41 -46 -61 -109 -61 -188z" />
    <glyph glyph-name="oacute" unicode="&#xf3;" horiz-adv-x="588" 
d="M297 614h-38l91 149l35 -11zM40 280c0 89 24 160 72 213c47 51 107 77 182 77s135 -26 182 -77c48 -53 72 -124 72 -213s-24 -160 -72 -213c-47 -52 -107 -78 -182 -78s-135 26 -182 78c-48 53 -72 124 -72 213zM78 280c0 -79 20 -142 61 -189c39 -45 91 -67 155 -67
s116 22 155 67c41 47 61 110 61 189s-20 142 -61 188c-39 45 -91 67 -155 67c-65 0 -116 -22 -155 -67c-41 -46 -61 -109 -61 -188z" />
    <glyph glyph-name="oacute.loclPLK" horiz-adv-x="588" 
d="M305 614h-36l50 162l34 -10zM40 280c0 89 24 160 72 213c47 51 107 77 182 77s135 -26 182 -77c48 -53 72 -124 72 -213s-24 -160 -72 -213c-47 -52 -107 -78 -182 -78s-135 26 -182 78c-48 53 -72 124 -72 213zM78 280c0 -79 20 -142 61 -189c39 -45 91 -67 155 -67
s116 22 155 67c41 47 61 110 61 189s-20 142 -61 188c-39 45 -91 67 -155 67c-65 0 -116 -22 -155 -67c-41 -46 -61 -109 -61 -188z" />
    <glyph glyph-name="ocircumflex" unicode="&#xf4;" horiz-adv-x="588" 
d="M411 647l-22 -23l-94 90l-95 -89l-22 22l117 110zM40 280c0 89 24 160 72 213c47 51 107 77 182 77s135 -26 182 -77c48 -53 72 -124 72 -213s-24 -160 -72 -213c-47 -52 -107 -78 -182 -78s-135 26 -182 78c-48 53 -72 124 -72 213zM78 280c0 -79 20 -142 61 -189
c39 -45 91 -67 155 -67s116 22 155 67c41 47 61 110 61 189s-20 142 -61 188c-39 45 -91 67 -155 67c-65 0 -116 -22 -155 -67c-41 -46 -61 -109 -61 -188z" />
    <glyph glyph-name="odieresis" unicode="&#xf6;" horiz-adv-x="588" 
d="M215 642c-20 0 -30 11 -30 33c0 21 10 32 30 32c21 0 31 -11 31 -32c0 -22 -10 -33 -31 -33zM375 642c-21 0 -31 11 -31 33c0 21 10 32 31 32s31 -11 31 -32c0 -22 -10 -33 -31 -33zM40 280c0 89 24 160 72 213c47 51 107 77 182 77s135 -26 182 -77
c48 -53 72 -124 72 -213s-24 -160 -72 -213c-47 -52 -107 -78 -182 -78s-135 26 -182 78c-48 53 -72 124 -72 213zM78 280c0 -79 20 -142 61 -189c39 -45 91 -67 155 -67s116 22 155 67c41 47 61 110 61 189s-20 142 -61 188c-39 45 -91 67 -155 67c-65 0 -116 -22 -155 -67
c-41 -46 -61 -109 -61 -188z" />
    <glyph glyph-name="ograve" unicode="&#xf2;" horiz-adv-x="588" 
d="M235 763l91 -149h-38l-88 138zM40 280c0 89 24 160 72 213c47 51 107 77 182 77s135 -26 182 -77c48 -53 72 -124 72 -213s-24 -160 -72 -213c-47 -52 -107 -78 -182 -78s-135 26 -182 78c-48 53 -72 124 -72 213zM78 280c0 -79 20 -142 61 -189c39 -45 91 -67 155 -67
s116 22 155 67c41 47 61 110 61 189s-20 142 -61 188c-39 45 -91 67 -155 67c-65 0 -116 -22 -155 -67c-41 -46 -61 -109 -61 -188z" />
    <glyph glyph-name="ohungarumlaut" unicode="&#x151;" horiz-adv-x="588" 
d="M229 614h-38l90 149l35 -11zM371 614h-38l90 149l35 -11zM40 280c0 89 24 160 72 213c47 51 107 77 182 77s135 -26 182 -77c48 -53 72 -124 72 -213s-24 -160 -72 -213c-47 -52 -107 -78 -182 -78s-135 26 -182 78c-48 53 -72 124 -72 213zM78 280
c0 -79 20 -142 61 -189c39 -45 91 -67 155 -67s116 22 155 67c41 47 61 110 61 189s-20 142 -61 188c-39 45 -91 67 -155 67c-65 0 -116 -22 -155 -67c-41 -46 -61 -109 -61 -188z" />
    <glyph glyph-name="omacron" unicode="&#x14d;" horiz-adv-x="588" 
d="M421 645h-251v34h251v-34zM40 280c0 89 24 160 72 213c47 51 107 77 182 77s135 -26 182 -77c48 -53 72 -124 72 -213s-24 -160 -72 -213c-47 -52 -107 -78 -182 -78s-135 26 -182 78c-48 53 -72 124 -72 213zM78 280c0 -79 20 -142 61 -189c39 -45 91 -67 155 -67
s116 22 155 67c41 47 61 110 61 189s-20 142 -61 188c-39 45 -91 67 -155 67c-65 0 -116 -22 -155 -67c-41 -46 -61 -109 -61 -188z" />
    <glyph glyph-name="oslash" unicode="&#xf8;" horiz-adv-x="588" 
d="M517 584l-53 -79c56 -54 84 -129 84 -225c0 -89 -24 -160 -72 -213c-47 -52 -107 -78 -182 -78c-57 0 -107 16 -148 47l-53 -78l-27 19l55 81c-54 53 -81 127 -81 222c0 89 24 160 72 213c47 51 107 77 182 77c55 0 103 -15 144 -44l52 76zM78 280c0 -82 21 -146 63 -192
l277 408c-35 26 -76 39 -124 39c-65 0 -116 -22 -155 -67c-41 -46 -61 -109 -61 -188zM294 24c64 0 116 22 155 67c41 47 61 110 61 189c0 83 -22 148 -67 194l-277 -409c35 -27 78 -41 128 -41z" />
    <glyph glyph-name="otilde" unicode="&#xf5;" horiz-adv-x="588" 
d="M394 702l12 -30c-13 -18 -33 -27 -58 -27c-16 0 -35 6 -57 17s-40 17 -54 17c-21 0 -36 -8 -47 -24l-12 29c16 20 35 30 58 30c15 0 34 -6 56 -17c22 -12 40 -18 55 -18c18 0 34 8 47 23zM40 280c0 89 24 160 72 213c47 51 107 77 182 77s135 -26 182 -77
c48 -53 72 -124 72 -213s-24 -160 -72 -213c-47 -52 -107 -78 -182 -78s-135 26 -182 78c-48 53 -72 124 -72 213zM78 280c0 -79 20 -142 61 -189c39 -45 91 -67 155 -67s116 22 155 67c41 47 61 110 61 189s-20 142 -61 188c-39 45 -91 67 -155 67c-65 0 -116 -22 -155 -67
c-41 -46 -61 -109 -61 -188z" />
    <glyph glyph-name="oe" unicode="&#x153;" horiz-adv-x="743" 
d="M692 35v-35h-338c-12 -2 -31 -3 -56 -3c-79 0 -141 25 -187 76c-47 51 -71 120 -71 207c0 88 24 157 71 208c47 50 109 75 187 75c25 0 44 -1 56 -3h333v-35h-297v-215h234v-35h-234v-240h302zM298 32c22 0 41 1 56 4v488c-16 3 -35 4 -56 4c-68 0 -122 -22 -161 -65
c-39 -44 -59 -105 -59 -182c0 -79 20 -141 60 -184c39 -43 92 -65 160 -65z" />
    <glyph glyph-name="p" unicode="p" horiz-adv-x="440" 
d="M80 560h137c63 0 112 -14 146 -43c33 -28 50 -68 50 -120c0 -51 -17 -91 -50 -119c-34 -29 -83 -43 -146 -43h-100v-235h-37v560zM117 269h101c105 0 158 43 158 128s-53 128 -158 128h-101v-256z" />
    <glyph glyph-name="thorn" unicode="&#xfe;" horiz-adv-x="410" 
d="M117 431h76c127 0 190 -49 190 -146c0 -95 -63 -143 -190 -143h-76v-142h-37v560h37v-129zM117 176h76c53 0 91 8 114 24c26 17 39 45 39 85s-13 69 -39 87c-24 16 -62 24 -114 24h-76v-220z" />
    <glyph glyph-name="q" unicode="q" horiz-adv-x="588" 
d="M548 280c0 -85 -22 -154 -67 -207c-43 -51 -99 -79 -169 -83v-106h-37v106c-70 5 -126 33 -169 84c-44 53 -66 121 -66 206c0 89 24 160 72 213c47 51 107 77 182 77s135 -26 182 -77c48 -53 72 -124 72 -213zM294 24c64 0 116 22 155 67c41 47 61 110 61 189
s-20 142 -61 188c-39 45 -91 67 -155 67c-65 0 -116 -22 -155 -67c-41 -46 -61 -109 -61 -188s20 -142 61 -189c39 -45 91 -67 155 -67z" />
    <glyph glyph-name="q.ss01" horiz-adv-x="604" 
d="M563 0h-270c-74 0 -134 26 -181 77c-48 53 -72 122 -72 208c0 87 24 156 72 208c47 50 107 75 182 75c74 0 134 -25 181 -76s71 -120 71 -206c0 -130 -50 -215 -151 -255l2 -1c-5 0 4 1 27 3c23 1 46 2 71 2h68v-35zM78 285c0 -77 20 -138 61 -183c39 -45 91 -67 155 -67
c63 0 115 22 154 67c41 46 61 107 61 183c0 77 -20 138 -61 183c-39 43 -91 65 -154 65c-65 0 -117 -22 -156 -66c-40 -45 -60 -105 -60 -182z" />
    <glyph glyph-name="r" unicode="r" horiz-adv-x="467" 
d="M381 0l-134 245c-17 -1 -36 -1 -59 -1h-71v-244h-37v560h140c62 0 110 -13 143 -40c34 -27 51 -66 51 -117c0 -85 -43 -136 -130 -152l138 -251h-41zM117 277h104c104 0 156 41 156 124s-53 124 -158 124h-102v-248z" />
    <glyph glyph-name="racute" unicode="&#x155;" horiz-adv-x="467" 
d="M234 614h-38l91 149l35 -11zM381 0l-134 245c-17 -1 -36 -1 -59 -1h-71v-244h-37v560h140c62 0 110 -13 143 -40c34 -27 51 -66 51 -117c0 -85 -43 -136 -130 -152l138 -251h-41zM117 277h104c104 0 156 41 156 124s-53 124 -158 124h-102v-248z" />
    <glyph glyph-name="rcaron" unicode="&#x159;" horiz-adv-x="467" 
d="M116 733l22 23l95 -91l95 91l22 -23l-117 -110zM381 0l-134 245c-17 -1 -36 -1 -59 -1h-71v-244h-37v560h140c62 0 110 -13 143 -40c34 -27 51 -66 51 -117c0 -85 -43 -136 -130 -152l138 -251h-41zM117 277h104c104 0 156 41 156 124s-53 124 -158 124h-102v-248z" />
    <glyph glyph-name="uni0157" unicode="&#x157;" horiz-adv-x="467" 
d="M381 0l-134 245c-17 -1 -36 -1 -59 -1h-71v-244h-37v560h140c62 0 110 -13 143 -40c34 -27 51 -66 51 -117c0 -85 -43 -136 -130 -152l138 -251h-41zM117 277h104c104 0 156 41 156 124s-53 124 -158 124h-102v-248zM246 -91c-11 -3 -20 -1 -28 4s-12 13 -12 23
c0 21 11 32 34 32c24 0 36 -14 36 -43c0 -47 -22 -79 -65 -98l-15 18c31 13 47 34 50 64z" />
    <glyph glyph-name="s" unicode="s" horiz-adv-x="436" 
d="M35 133l34 10c8 -80 60 -120 156 -120c92 0 138 38 138 115c0 43 -18 75 -53 97c-17 11 -55 25 -114 42c-46 15 -79 29 -98 44c-33 25 -50 61 -50 108c0 45 15 80 45 105c29 24 71 36 124 36c103 0 163 -44 180 -133l-35 -10c-14 73 -61 110 -142 110
c-90 0 -135 -36 -135 -107c0 -37 14 -65 43 -85c19 -13 52 -26 101 -40c53 -16 91 -32 112 -47c40 -28 60 -68 60 -120c0 -48 -16 -85 -47 -111c-31 -25 -74 -38 -129 -38c-113 0 -177 48 -190 144z" />
    <glyph glyph-name="sacute" unicode="&#x15b;" horiz-adv-x="436" 
d="M224 614h-38l91 149l35 -11zM35 133l34 10c8 -80 60 -120 156 -120c92 0 138 38 138 115c0 43 -18 75 -53 97c-17 11 -55 25 -114 42c-46 15 -79 29 -98 44c-33 25 -50 61 -50 108c0 45 15 80 45 105c29 24 71 36 124 36c103 0 163 -44 180 -133l-35 -10
c-14 73 -61 110 -142 110c-90 0 -135 -36 -135 -107c0 -37 14 -65 43 -85c19 -13 52 -26 101 -40c53 -16 91 -32 112 -47c40 -28 60 -68 60 -120c0 -48 -16 -85 -47 -111c-31 -25 -74 -38 -129 -38c-113 0 -177 48 -190 144z" />
    <glyph glyph-name="sacute.loclPLK" horiz-adv-x="436" 
d="M232 614h-36l50 162l34 -10zM35 133l34 10c8 -80 60 -120 156 -120c92 0 138 38 138 115c0 43 -18 75 -53 97c-17 11 -55 25 -114 42c-46 15 -79 29 -98 44c-33 25 -50 61 -50 108c0 45 15 80 45 105c29 24 71 36 124 36c103 0 163 -44 180 -133l-35 -10
c-14 73 -61 110 -142 110c-90 0 -135 -36 -135 -107c0 -37 14 -65 43 -85c19 -13 52 -26 101 -40c53 -16 91 -32 112 -47c40 -28 60 -68 60 -120c0 -48 -16 -85 -47 -111c-31 -25 -74 -38 -129 -38c-113 0 -177 48 -190 144z" />
    <glyph glyph-name="scaron" unicode="&#x161;" horiz-adv-x="436" 
d="M106 733l22 23l95 -91l95 91l22 -23l-117 -110zM35 133l34 10c8 -80 60 -120 156 -120c92 0 138 38 138 115c0 43 -18 75 -53 97c-17 11 -55 25 -114 42c-46 15 -79 29 -98 44c-33 25 -50 61 -50 108c0 45 15 80 45 105c29 24 71 36 124 36c103 0 163 -44 180 -133
l-35 -10c-14 73 -61 110 -142 110c-90 0 -135 -36 -135 -107c0 -37 14 -65 43 -85c19 -13 52 -26 101 -40c53 -16 91 -32 112 -47c40 -28 60 -68 60 -120c0 -48 -16 -85 -47 -111c-31 -25 -74 -38 -129 -38c-113 0 -177 48 -190 144z" />
    <glyph glyph-name="scedilla" unicode="&#x15f;" horiz-adv-x="436" 
d="M401 138c0 -47 -15 -83 -45 -109c-30 -25 -71 -39 -123 -40v-8c63 -7 94 -32 94 -76c0 -50 -32 -75 -95 -75c-30 0 -54 5 -71 16v33c16 -11 38 -16 67 -16c44 0 66 15 66 45c0 31 -32 48 -95 50v32c-97 8 -152 56 -164 143l34 10c8 -80 60 -120 156 -120
c92 0 138 38 138 115c0 43 -18 75 -53 97c-17 11 -55 25 -114 42c-46 15 -79 29 -98 44c-33 25 -50 61 -50 108c0 45 15 80 45 105c29 24 71 36 124 36c103 0 163 -44 180 -133l-35 -10c-14 73 -61 110 -142 110c-90 0 -135 -36 -135 -107c0 -37 14 -65 43 -85
c19 -13 52 -26 101 -40c53 -16 91 -32 112 -47c40 -28 60 -68 60 -120z" />
    <glyph glyph-name="scircumflex" unicode="&#x15d;" horiz-adv-x="436" 
d="M338 647l-22 -23l-94 90l-95 -89l-22 22l117 110zM35 133l34 10c8 -80 60 -120 156 -120c92 0 138 38 138 115c0 43 -18 75 -53 97c-17 11 -55 25 -114 42c-46 15 -79 29 -98 44c-33 25 -50 61 -50 108c0 45 15 80 45 105c29 24 71 36 124 36c103 0 163 -44 180 -133
l-35 -10c-14 73 -61 110 -142 110c-90 0 -135 -36 -135 -107c0 -37 14 -65 43 -85c19 -13 52 -26 101 -40c53 -16 91 -32 112 -47c40 -28 60 -68 60 -120c0 -48 -16 -85 -47 -111c-31 -25 -74 -38 -129 -38c-113 0 -177 48 -190 144z" />
    <glyph glyph-name="uni0219" unicode="&#x219;" horiz-adv-x="436" 
d="M35 133l34 10c8 -80 60 -120 156 -120c92 0 138 38 138 115c0 43 -18 75 -53 97c-17 11 -55 25 -114 42c-46 15 -79 29 -98 44c-33 25 -50 61 -50 108c0 45 15 80 45 105c29 24 71 36 124 36c103 0 163 -44 180 -133l-35 -10c-14 73 -61 110 -142 110
c-90 0 -135 -36 -135 -107c0 -37 14 -65 43 -85c19 -13 52 -26 101 -40c53 -16 91 -32 112 -47c40 -28 60 -68 60 -120c0 -48 -16 -85 -47 -111c-31 -25 -74 -38 -129 -38c-113 0 -177 48 -190 144zM224 -91c-11 -3 -20 -1 -28 4s-12 13 -12 23c0 21 12 32 35 32
s35 -14 35 -43c0 -47 -22 -79 -65 -98l-14 18c30 13 46 34 49 64z" />
    <glyph glyph-name="germandbls" unicode="&#xdf;" horiz-adv-x="517" 
d="M309 332h6c49 0 89 -14 120 -43c34 -31 51 -74 51 -127c0 -51 -15 -93 -46 -125s-72 -48 -123 -48c-53 0 -94 15 -125 46l19 28c26 -27 61 -41 104 -41c41 0 73 13 97 38c25 25 37 59 37 100c0 43 -12 77 -37 102s-58 37 -100 37h-43v36l106 188l-1 2h-257v-525h-37v560
h356l-128 -226z" />
    <glyph glyph-name="germandbls.calt" horiz-adv-x="599" 
d="M351 413h7c61 0 111 -17 148 -51c41 -37 61 -90 61 -157c0 -64 -18 -116 -55 -156s-87 -60 -150 -60c-61 0 -111 19 -151 58l19 29c37 -34 80 -51 129 -51c51 0 93 16 124 48c31 33 46 76 46 129c0 55 -16 99 -47 130s-72 46 -125 46h-48v39l134 246l-1 2l-324 -1v-664
h-38v700h426l-156 -285z" />
    <glyph glyph-name="t" unicode="t" horiz-adv-x="474" 
d="M440 525h-184v-525h-37v525h-185v35h406v-35z" />
    <glyph glyph-name="tbar" unicode="&#x167;" horiz-adv-x="474" 
d="M256 525v-213h105v-32h-105v-280h-37v280h-106v32h106v213h-185v35h406v-35h-184z" />
    <glyph glyph-name="tcaron" unicode="&#x165;" horiz-adv-x="474" 
d="M121 733l22 23l95 -91l95 91l22 -23l-117 -110zM440 525h-184v-525h-37v525h-185v35h406v-35z" />
    <glyph glyph-name="uni0163" unicode="&#x163;" horiz-adv-x="474" 
d="M253 0v-19c63 -7 94 -32 94 -76c0 -50 -32 -75 -96 -75c-29 0 -53 5 -70 16v33c16 -11 38 -16 67 -16c43 0 65 15 65 45c0 31 -31 48 -94 50v567h-185v35h406v-35h-184v-525h-3z" />
    <glyph glyph-name="uni021B" unicode="&#x21b;" horiz-adv-x="474" 
d="M440 525h-184v-525h-37v525h-185v35h406v-35zM244 -91c-11 -3 -20 -1 -28 4s-12 13 -12 23c0 21 11 32 34 32c24 0 36 -14 36 -43c0 -47 -22 -79 -65 -98l-14 18c30 13 46 34 49 64z" />
    <glyph glyph-name="u" unicode="u" horiz-adv-x="537" 
d="M467 560v-357c0 -143 -67 -214 -200 -214c-132 0 -198 71 -198 214v357h37v-360c0 -117 54 -176 162 -176c109 0 163 59 163 176v360h36z" />
    <glyph glyph-name="uacute" unicode="&#xfa;" horiz-adv-x="537" 
d="M272 614h-38l91 149l35 -11zM467 560v-357c0 -143 -67 -214 -200 -214c-132 0 -198 71 -198 214v357h37v-360c0 -117 54 -176 162 -176c109 0 163 59 163 176v360h36z" />
    <glyph glyph-name="ubreve" unicode="&#x16d;" horiz-adv-x="537" 
d="M144 720h33c1 -24 10 -43 25 -58c17 -17 40 -26 69 -26s53 9 70 27c15 15 23 34 24 57h33c-1 -32 -13 -59 -36 -80c-23 -23 -54 -35 -91 -35s-67 11 -91 34c-23 21 -35 48 -36 81zM467 560v-357c0 -143 -67 -214 -200 -214c-132 0 -198 71 -198 214v357h37v-360
c0 -117 54 -176 162 -176c109 0 163 59 163 176v360h36z" />
    <glyph glyph-name="ucircumflex" unicode="&#xfb;" horiz-adv-x="537" 
d="M386 647l-22 -23l-94 90l-95 -89l-22 22l117 110zM467 560v-357c0 -143 -67 -214 -200 -214c-132 0 -198 71 -198 214v357h37v-360c0 -117 54 -176 162 -176c109 0 163 59 163 176v360h36z" />
    <glyph glyph-name="udieresis" unicode="&#xfc;" horiz-adv-x="537" 
d="M190 642c-20 0 -30 11 -30 33c0 21 10 32 30 32c21 0 31 -11 31 -32c0 -22 -10 -33 -31 -33zM350 642c-21 0 -31 11 -31 33c0 21 10 32 31 32s31 -11 31 -32c0 -22 -10 -33 -31 -33zM467 560v-357c0 -143 -67 -214 -200 -214c-132 0 -198 71 -198 214v357h37v-360
c0 -117 54 -176 162 -176c109 0 163 59 163 176v360h36z" />
    <glyph glyph-name="ugrave" unicode="&#xf9;" horiz-adv-x="537" 
d="M210 763l91 -149h-38l-88 138zM467 560v-357c0 -143 -67 -214 -200 -214c-132 0 -198 71 -198 214v357h37v-360c0 -117 54 -176 162 -176c109 0 163 59 163 176v360h36z" />
    <glyph glyph-name="uhungarumlaut" unicode="&#x171;" horiz-adv-x="537" 
d="M204 614h-38l90 149l35 -11zM346 614h-38l90 149l35 -11zM467 560v-357c0 -143 -67 -214 -200 -214c-132 0 -198 71 -198 214v357h37v-360c0 -117 54 -176 162 -176c109 0 163 59 163 176v360h36z" />
    <glyph glyph-name="umacron" unicode="&#x16b;" horiz-adv-x="537" 
d="M396 645h-251v34h251v-34zM467 560v-357c0 -143 -67 -214 -200 -214c-132 0 -198 71 -198 214v357h37v-360c0 -117 54 -176 162 -176c109 0 163 59 163 176v360h36z" />
    <glyph glyph-name="uogonek" unicode="&#x173;" horiz-adv-x="530" 
d="M303 -9c-48 -13 -72 -35 -72 -68c0 -39 24 -59 72 -59c32 0 57 6 74 17v-35c-20 -11 -45 -16 -75 -16c-33 0 -59 9 -78 26s-28 38 -28 64c0 30 13 54 39 71c-111 11 -166 81 -166 212v357h37v-360c0 -117 54 -176 162 -176c109 0 163 59 163 176v360h36v-357
c0 -129 -55 -200 -164 -212z" />
    <glyph glyph-name="uring" unicode="&#x16f;" horiz-adv-x="537" 
d="M270 603c-24 0 -43 8 -58 23s-22 34 -22 57s7 42 22 57s35 23 58 23c24 0 43 -8 58 -23s22 -34 22 -57s-7 -42 -22 -57s-34 -23 -58 -23zM270 631c34 0 51 17 51 52s-17 52 -51 52c-33 0 -50 -17 -50 -52s17 -52 50 -52zM467 560v-357c0 -143 -67 -214 -200 -214
c-132 0 -198 71 -198 214v357h37v-360c0 -117 54 -176 162 -176c109 0 163 59 163 176v360h36z" />
    <glyph glyph-name="v" unicode="v" horiz-adv-x="527" 
d="M284 0h-41l-221 560h39l120 -303c59 -151 86 -222 82 -214h2c-5 -11 22 59 81 212l121 305h38z" />
    <glyph glyph-name="w" unicode="w" horiz-adv-x="713" 
d="M480 0l-69 239c-38 129 -56 192 -54 190h-1c1 1 -18 -63 -55 -191l-69 -238h-38l-170 560h39l84 -277c50 -164 72 -243 67 -238h1c-4 -4 15 66 58 210l65 222h38l65 -222c43 -144 62 -214 58 -210h1c-5 -5 17 74 68 238l83 277h38l-170 -560h-39z" />
    <glyph glyph-name="wacute" unicode="&#x1e83;" horiz-adv-x="713" 
d="M363 614h-38l90 149l35 -11zM480 0l-69 239c-38 129 -56 192 -54 190h-1c1 1 -18 -63 -55 -191l-69 -238h-38l-170 560h39l84 -277c50 -164 72 -243 67 -238h1c-4 -4 15 66 58 210l65 222h38l65 -222c43 -144 62 -214 58 -210h1c-5 -5 17 74 68 238l83 277h38l-170 -560
h-39z" />
    <glyph glyph-name="wcircumflex" unicode="&#x175;" horiz-adv-x="713" 
d="M476 647l-22 -23l-94 90l-95 -89l-22 22l117 110zM480 0l-69 239c-38 129 -56 192 -54 190h-1c1 1 -18 -63 -55 -191l-69 -238h-38l-170 560h39l84 -277c50 -164 72 -243 67 -238h1c-4 -4 15 66 58 210l65 222h38l65 -222c43 -144 62 -214 58 -210h1c-5 -5 17 74 68 238
l83 277h38l-170 -560h-39z" />
    <glyph glyph-name="wdieresis" unicode="&#x1e85;" horiz-adv-x="713" 
d="M281 642c-20 0 -30 11 -30 33c0 21 10 32 30 32s30 -11 30 -32c0 -22 -10 -33 -30 -33zM440 642c-20 0 -30 11 -30 33c0 21 10 32 30 32c21 0 31 -11 31 -32c0 -22 -10 -33 -31 -33zM480 0l-69 239c-38 129 -56 192 -54 190h-1c1 1 -18 -63 -55 -191l-69 -238h-38
l-170 560h39l84 -277c50 -164 72 -243 67 -238h1c-4 -4 15 66 58 210l65 222h38l65 -222c43 -144 62 -214 58 -210h1c-5 -5 17 74 68 238l83 277h38l-170 -560h-39z" />
    <glyph glyph-name="wgrave" unicode="&#x1e81;" horiz-adv-x="713" 
d="M300 763l91 -149h-38l-88 138zM480 0l-69 239c-38 129 -56 192 -54 190h-1c1 1 -18 -63 -55 -191l-69 -238h-38l-170 560h39l84 -277c50 -164 72 -243 67 -238h1c-4 -4 15 66 58 210l65 222h38l65 -222c43 -144 62 -214 58 -210h1c-5 -5 17 74 68 238l83 277h38
l-170 -560h-39z" />
    <glyph glyph-name="x" unicode="x" horiz-adv-x="494" 
d="M431 0l-186 266h-1l-182 -266h-42l202 293l-184 267h43l167 -241h1c1 0 29 41 84 122l81 119h42l-186 -269l204 -291h-43z" />
    <glyph glyph-name="y" unicode="y" horiz-adv-x="478" 
d="M258 0h-38v244l-198 316h42l92 -144c63 -97 90 -142 83 -135h2c-5 -5 23 40 84 136l91 143h40l-198 -316v-244z" />
    <glyph glyph-name="y.ss05" horiz-adv-x="478" 
d="M269 261h124v-34h-135v-227h-38v227h-131v34h120l-187 299h42l92 -144c63 -97 90 -142 83 -135h2c-5 -5 23 40 84 136l91 143h40z" />
    <glyph glyph-name="yacute" unicode="&#xfd;" horiz-adv-x="478" 
d="M244 614h-38l91 149l35 -11zM258 0h-38v244l-198 316h42l92 -144c63 -97 90 -142 83 -135h2c-5 -5 23 40 84 136l91 143h40l-198 -316v-244z" />
    <glyph glyph-name="yacute.ss05" horiz-adv-x="478" 
d="M244 614h-38l91 149l35 -11zM269 261h124v-34h-135v-227h-38v227h-131v34h120l-187 299h42l92 -144c63 -97 90 -142 83 -135h2c-5 -5 23 40 84 136l91 143h40z" />
    <glyph glyph-name="ycircumflex" unicode="&#x177;" horiz-adv-x="478" 
d="M358 647l-22 -23l-94 90l-95 -89l-22 22l117 110zM258 0h-38v244l-198 316h42l92 -144c63 -97 90 -142 83 -135h2c-5 -5 23 40 84 136l91 143h40l-198 -316v-244z" />
    <glyph glyph-name="ycircumflex.ss05" horiz-adv-x="478" 
d="M147 625l-22 22l117 110l116 -110l-22 -23l-94 90zM269 261h124v-34h-135v-227h-38v227h-131v34h120l-187 299h42l92 -144c63 -97 90 -142 83 -135h2c-5 -5 23 40 84 136l91 143h40z" />
    <glyph glyph-name="ydieresis" unicode="&#xff;" horiz-adv-x="478" 
d="M162 642c-20 0 -30 11 -30 33c0 21 10 32 30 32c21 0 31 -11 31 -32c0 -22 -10 -33 -31 -33zM322 642c-21 0 -31 11 -31 33c0 21 10 32 31 32s31 -11 31 -32c0 -22 -10 -33 -31 -33zM258 0h-38v244l-198 316h42l92 -144c63 -97 90 -142 83 -135h2c-5 -5 23 40 84 136
l91 143h40l-198 -316v-244z" />
    <glyph glyph-name="ydieresis.ss05" horiz-adv-x="478" 
d="M162 642c-20 0 -30 11 -30 33c0 21 10 32 30 32c21 0 31 -11 31 -32c0 -22 -10 -33 -31 -33zM322 642c-21 0 -31 11 -31 33c0 21 10 32 31 32s31 -11 31 -32c0 -22 -10 -33 -31 -33zM269 261h124v-34h-135v-227h-38v227h-131v34h120l-187 299h42l92 -144
c63 -97 90 -142 83 -135h2c-5 -5 23 40 84 136l91 143h40z" />
    <glyph glyph-name="ygrave" unicode="&#x1ef3;" horiz-adv-x="478" 
d="M182 763l91 -149h-39l-87 138zM258 0h-38v244l-198 316h42l92 -144c63 -97 90 -142 83 -135h2c-5 -5 23 40 84 136l91 143h40l-198 -316v-244z" />
    <glyph glyph-name="ygrave.ss05" horiz-adv-x="478" 
d="M235 614l-88 138l35 11l91 -149h-38zM269 261h124v-34h-135v-227h-38v227h-131v34h120l-187 299h42l92 -144c63 -97 90 -142 83 -135h2c-5 -5 23 40 84 136l91 143h40z" />
    <glyph glyph-name="z" unicode="z" horiz-adv-x="488" 
d="M448 525l-266 -362c-55 -75 -87 -117 -96 -127l1 -2c15 1 36 1 62 1h299v-35h-407v35l274 371c59 81 89 120 89 118l-1 1h-355v35h400v-35z" />
    <glyph glyph-name="zacute" unicode="&#x17a;" horiz-adv-x="488" 
d="M247 614h-38l91 149l35 -11zM448 525l-266 -362c-55 -75 -87 -117 -96 -127l1 -2c15 1 36 1 62 1h299v-35h-407v35l274 371c59 81 89 120 89 118l-1 1h-355v35h400v-35z" />
    <glyph glyph-name="zacute.loclPLK" horiz-adv-x="488" 
d="M255 614h-36l50 162l34 -10zM448 525l-266 -362c-55 -75 -87 -117 -96 -127l1 -2c15 1 36 1 62 1h299v-35h-407v35l274 371c59 81 89 120 89 118l-1 1h-355v35h400v-35z" />
    <glyph glyph-name="zcaron" unicode="&#x17e;" horiz-adv-x="488" 
d="M129 733l22 23l95 -91l95 91l22 -23l-117 -110zM448 525l-266 -362c-55 -75 -87 -117 -96 -127l1 -2c15 1 36 1 62 1h299v-35h-407v35l274 371c59 81 89 120 89 118l-1 1h-355v35h400v-35z" />
    <glyph glyph-name="zdotaccent" unicode="&#x17c;" horiz-adv-x="488" 
d="M245 642c-21 0 -31 11 -31 33c0 21 10 32 31 32c20 0 30 -11 30 -32c0 -22 -10 -33 -30 -33zM448 525l-266 -362c-55 -75 -87 -117 -96 -127l1 -2c15 1 36 1 62 1h299v-35h-407v35l274 371c59 81 89 120 89 118l-1 1h-355v35h400v-35z" />
    <glyph glyph-name="Iacute.ss03_J.loclNLD" horiz-adv-x="841" 
d="M206 754h-38l90 149l35 -11zM752 754h-38l91 149l35 -11zM222 36h119v-36h-277v36h120v628h-120v36h277v-36h-119v-628zM769 700v-461c0 -167 -67 -250 -201 -250c-65 0 -117 26 -155 78l22 30c33 -48 78 -72 134 -72c107 0 161 71 161 212v463h39z" />
    <glyph glyph-name="Iacute.ss03_J.ss04.loclNLD" horiz-adv-x="841" 
d="M206 754h-38l90 149l35 -11zM618 754h-39l91 149l35 -11zM64 700h277v-36h-119v-628h119v-36h-277v36h120v628h-120v36zM769 700v-461c0 -167 -67 -250 -201 -250c-65 0 -117 26 -155 78l22 30c33 -48 78 -72 134 -72c107 0 161 71 161 212v427h-269v36h308z" />
    <glyph glyph-name="uni00CD004A.ss04.loclNLD" horiz-adv-x="633" 
d="M154 903l35 -11l-88 -138h-38zM409 754h-38l91 149l35 -11zM80 700h38v-700h-38v700zM560 700v-461c0 -167 -67 -250 -200 -250c-65 0 -117 26 -156 78l23 30c32 -48 76 -72 133 -72c108 0 162 71 162 212v427h-269v36h307z" />
    <glyph glyph-name="iacute.ss03_j.loclNLD" horiz-adv-x="732" 
d="M184 614h-38l90 149l35 -11zM643 614h-38l90 149l36 -11zM201 35h98v-35h-235v35h99v490h-99v35h235v-35h-98v-490zM660 560v-369c0 -135 -55 -202 -166 -202c-56 0 -99 20 -130 61l22 26c27 -35 62 -52 107 -52c87 0 130 55 130 165v371h37z" />
    <glyph glyph-name="iacute.ss03_j.ss04.loclNLD" horiz-adv-x="739" 
d="M184 614h-38l90 149l35 -11zM548 614h-38l90 149l36 -11zM64 560h235v-35h-98v-490h98v-35h-235v35h99v490h-99v35zM667 560v-369c0 -135 -55 -202 -166 -202c-56 0 -99 20 -130 61l22 26c27 -35 62 -52 107 -52c87 0 130 55 130 165v336h-212v35h249z" />
    <glyph glyph-name="uni00ED006A.ss04.loclNLD" horiz-adv-x="572" 
d="M154 763l35 -11l-88 -138h-38zM381 614h-38l91 149l35 -11zM80 560h37v-560h-37v560zM500 560v-369c0 -135 -55 -202 -166 -202c-56 0 -99 20 -130 61l22 26c27 -35 63 -52 108 -52c86 0 129 55 129 165v336h-212v35h249z" />
    <glyph glyph-name="ordfeminine" unicode="&#xaa;" horiz-adv-x="352" 
d="M67 235h-32l126 325h30l126 -325h-32l-34 88h-150zM177 519h-2c1 0 -10 -31 -34 -93l-29 -75h128l-28 75c-25 62 -37 93 -35 93zM317 165v-32h-282v32h282z" />
    <glyph glyph-name="ordfeminine.case" horiz-adv-x="352" 
d="M67 375h-32l126 325h30l126 -325h-32l-34 88h-150zM177 659h-2c1 0 -10 -31 -34 -93l-29 -75h128l-28 75c-25 62 -37 93 -35 93zM317 305v-32h-282v32h282z" />
    <glyph glyph-name="ordmasculine" unicode="&#xba;" horiz-adv-x="381" 
d="M35 396c0 52 15 94 44 127c29 31 66 47 111 47s83 -16 112 -48s44 -74 44 -126s-15 -94 -45 -126c-29 -31 -66 -47 -111 -47s-82 16 -111 48s-44 74 -44 125zM67 396c0 -43 11 -78 34 -104c23 -25 52 -38 89 -38s67 13 90 39s34 60 34 103s-12 78 -35 105
c-23 25 -52 38 -89 38s-66 -13 -89 -39c-23 -27 -34 -61 -34 -104zM337 133h-292v32h292v-32z" />
    <glyph glyph-name="ordmasculine.case" horiz-adv-x="381" 
d="M35 536c0 52 15 94 44 127c29 31 66 47 111 47s83 -16 112 -48s44 -74 44 -126s-15 -94 -45 -126c-29 -31 -66 -47 -111 -47s-82 16 -111 48s-44 74 -44 125zM67 536c0 -43 11 -78 34 -104c23 -25 52 -38 89 -38s67 13 90 39s34 60 34 103s-12 78 -35 105
c-23 25 -52 38 -89 38s-66 -13 -89 -39c-23 -27 -34 -61 -34 -104zM337 273h-292v32h292v-32z" />
    <glyph glyph-name="zero" unicode="0" horiz-adv-x="468" 
d="M234 570c129 0 194 -97 194 -290c0 -194 -65 -291 -194 -291s-194 97 -194 291c0 193 65 290 194 290zM234 535c-105 0 -157 -85 -157 -255c0 -171 52 -256 157 -256c104 0 156 85 156 256c0 170 -52 255 -156 255z" />
    <glyph glyph-name="one" unicode="1" horiz-adv-x="293" 
d="M174 0v425c0 35 1 66 4 93h-2c3 0 -11 -15 -40 -44l-72 -74l-23 25l134 135h37v-560h-38z" />
    <glyph glyph-name="two" unicode="2" horiz-adv-x="442" 
d="M48 0v42l187 172c81 73 121 138 121 194c0 38 -12 68 -35 91c-25 25 -59 37 -104 37s-80 -13 -104 -38c-19 -21 -30 -49 -32 -83l-35 9c4 49 23 87 58 112c30 23 69 34 116 34c54 0 96 -15 127 -44s46 -69 46 -120c0 -63 -44 -134 -133 -215l-168 -155l1 -1h302v-35h-347
z" />
    <glyph glyph-name="three" unicode="3" horiz-adv-x="441" 
d="M290 294v-3c32 -4 58 -17 78 -40c22 -25 33 -59 33 -100c0 -49 -16 -88 -49 -118c-33 -29 -75 -44 -127 -44c-51 0 -94 15 -128 44c-33 28 -52 65 -57 110l33 9c5 -40 22 -71 49 -94s62 -35 104 -35c45 0 79 13 104 39c23 23 34 54 34 93c0 81 -48 121 -144 121h-45v33
h44c93 0 139 38 139 114c0 75 -44 113 -133 113c-85 0 -132 -40 -140 -121l-34 9c11 97 70 146 177 146c55 0 97 -14 126 -41c27 -25 41 -58 41 -101c0 -37 -11 -68 -32 -93c-19 -22 -43 -36 -73 -41z" />
    <glyph glyph-name="four" unicode="4" horiz-adv-x="463" 
d="M339 0h-37v160h-269v37l255 363h51v-366h77v-34h-77v-160zM302 194l1 330h-1l-232 -328l1 -2h231z" />
    <glyph glyph-name="five" unicode="5" horiz-adv-x="458" 
d="M97 300l2 -1c25 41 70 61 136 61c53 0 95 -17 127 -50c33 -33 49 -78 49 -135s-17 -102 -50 -136c-33 -33 -77 -50 -131 -50c-49 0 -89 14 -122 42s-53 67 -62 117l33 8c7 -41 24 -74 51 -98c27 -23 60 -35 100 -35c43 0 78 14 105 41c27 28 40 65 40 112s-13 85 -40 112
s-63 40 -108 40c-67 0 -112 -26 -135 -79l-31 8l46 303h273v-35h-246l-19 -124c-3 -23 -7 -47 -12 -71z" />
    <glyph glyph-name="six" unicode="6" horiz-adv-x="453" 
d="M105 308l2 -2c29 37 71 55 126 55c53 0 97 -17 130 -52c33 -33 49 -77 49 -130c0 -57 -17 -102 -52 -137s-80 -53 -135 -53s-100 17 -133 52c-34 35 -51 82 -51 141c0 63 21 124 63 183l144 195h42zM226 23c45 0 81 14 108 42c27 29 41 67 41 114c1 46 -12 83 -39 110
s-64 41 -110 41s-82 -14 -109 -41c-26 -27 -39 -64 -39 -111s13 -85 40 -113s63 -42 108 -42z" />
    <glyph glyph-name="seven" unicode="7" horiz-adv-x="415" 
d="M393 528l-273 -528h-40l239 463c23 45 35 66 35 61l-1 2c-23 -1 -47 -1 -72 -1h-251v35h363v-32z" />
    <glyph glyph-name="eight" unicode="8" horiz-adv-x="459" 
d="M40 148c0 43 14 79 42 106c24 23 53 36 86 39v2c-22 3 -43 15 -64 35c-27 26 -40 58 -40 95c0 41 14 75 43 102c31 29 72 43 123 43s91 -14 122 -43c29 -27 44 -60 44 -101c0 -38 -13 -70 -40 -96c-21 -20 -42 -32 -64 -35v-2c33 -3 61 -16 85 -39c29 -27 43 -63 43 -106
c0 -47 -17 -86 -52 -115s-81 -44 -138 -44s-103 15 -138 44s-52 68 -52 115zM98 423c0 -34 13 -62 38 -83c24 -21 55 -31 94 -30s71 12 96 33c23 21 35 48 35 81s-11 60 -34 81c-24 22 -56 33 -97 33c-42 0 -75 -11 -98 -33c-23 -21 -34 -48 -34 -82zM76 150
c0 -39 14 -71 41 -94c28 -23 66 -34 113 -34s85 11 112 34s41 55 41 94s-14 69 -41 92c-27 22 -65 33 -112 33s-85 -11 -113 -33c-27 -23 -41 -53 -41 -92z" />
    <glyph glyph-name="nine" unicode="9" horiz-adv-x="460" 
d="M353 250l-2 1c-33 -38 -76 -57 -130 -57c-55 0 -99 17 -132 52c-32 35 -48 80 -48 135c0 57 17 102 52 137s80 52 136 52s101 -17 135 -50c35 -35 53 -82 53 -141c0 -67 -34 -146 -102 -235l-110 -144h-42zM229 536c-44 0 -80 -13 -107 -38c-29 -28 -44 -67 -44 -118
s15 -91 45 -118c27 -25 62 -37 106 -37c45 0 81 13 108 39c29 28 43 67 43 117c0 51 -15 90 -45 118c-27 25 -62 37 -106 37z" />
    <glyph glyph-name="zero.slsh.dnom" horiz-adv-x="322" 
d="M161 401c89 0 134 -68 134 -204c0 -137 -45 -205 -134 -205s-133 68 -133 205c0 136 44 204 133 204zM161 369c-67 0 -100 -57 -100 -172c0 -46 6 -83 17 -111l149 252c-16 21 -38 31 -66 31zM161 24c67 0 100 58 100 173c0 46 -6 83 -17 111l-149 -253
c16 -21 38 -31 66 -31z" />
    <glyph glyph-name="zero.lf" horiz-adv-x="565" 
d="M282 713c162 0 243 -121 243 -363s-81 -363 -243 -363c-161 0 -242 121 -242 363s81 363 242 363zM282 676c-136 0 -204 -109 -204 -326s68 -326 204 -326c137 0 205 109 205 326s-68 326 -205 326z" />
    <glyph glyph-name="one.lf" horiz-adv-x="333" 
d="M210 0v538c0 79 1 118 3 118h-1c5 0 -13 -18 -52 -55l-93 -97l-25 25l168 171h38v-700h-38z" />
    <glyph glyph-name="two.lf" horiz-adv-x="527" 
d="M48 0v43l241 226c55 53 92 94 112 123c25 38 38 77 38 118c0 49 -15 89 -44 119c-31 32 -75 48 -131 48c-59 0 -106 -18 -139 -55c-25 -27 -39 -59 -44 -96l-35 9c19 119 92 178 219 178c66 0 118 -19 156 -56c37 -37 56 -86 56 -148c0 -45 -12 -86 -35 -123
s-66 -84 -129 -143l-219 -206l1 -1h385v-36h-432z" />
    <glyph glyph-name="three.lf" horiz-adv-x="543" 
d="M355 372v-3c41 -6 74 -23 99 -52c28 -32 42 -75 42 -128c0 -60 -20 -108 -61 -145s-93 -55 -158 -55c-64 0 -117 18 -158 53s-65 80 -72 137l35 10c5 -49 25 -88 60 -118c36 -31 82 -46 138 -46c57 0 101 17 134 50c29 31 44 69 44 116c0 53 -17 93 -50 121
c-33 27 -79 41 -138 41h-55v35h56c55 0 99 12 130 37c32 25 48 61 48 108c0 45 -15 81 -44 106c-30 26 -72 39 -125 39c-105 0 -167 -51 -185 -152l-36 10c19 118 92 177 221 177c68 0 121 -18 158 -53c33 -31 50 -73 50 -125c0 -45 -13 -82 -39 -112
c-24 -27 -55 -44 -94 -51z" />
    <glyph glyph-name="four.lf" horiz-adv-x="555" 
d="M412 0h-38v203h-340v38l324 459h54v-461h97v-36h-97v-203zM374 239l1 423h-2l-300 -422l1 -2z" />
    <glyph glyph-name="five.lf" horiz-adv-x="536" 
d="M103 375l2 -1c33 52 89 78 167 78c64 0 116 -21 156 -63c41 -43 61 -98 61 -167c0 -68 -20 -124 -61 -167c-41 -44 -94 -66 -159 -66c-59 0 -108 18 -148 53s-65 83 -75 144l36 10c8 -53 29 -94 62 -125s75 -46 124 -46c55 0 99 19 133 56c33 36 50 83 50 142
s-17 106 -50 142c-34 36 -80 54 -137 54c-85 0 -140 -34 -166 -103l-34 8l57 376h341v-36h-312l-24 -159c-5 -32 -10 -63 -16 -93z" />
    <glyph glyph-name="six.lf" horiz-adv-x="544" 
d="M113 385l2 -1c38 47 92 71 162 71c68 0 123 -22 164 -65s61 -98 61 -165c0 -69 -21 -126 -64 -170s-99 -66 -168 -66s-124 22 -166 66s-63 102 -63 175c0 76 27 151 80 226l178 244h44zM271 25c58 0 105 18 140 55s53 85 53 145c1 59 -16 107 -50 142
c-35 36 -82 54 -141 54s-107 -18 -142 -54s-52 -84 -52 -143c0 -60 18 -108 53 -144c35 -37 81 -55 139 -55z" />
    <glyph glyph-name="seven.lf" horiz-adv-x="500" 
d="M477 665l-307 -665h-43l272 591c25 52 37 76 37 72l-1 2l-403 -1v36h445v-35z" />
    <glyph glyph-name="eight.lf" horiz-adv-x="566" 
d="M47 187c0 54 18 98 53 133c31 30 66 47 107 50v2c-27 4 -54 18 -79 43c-34 32 -51 72 -51 119c0 52 18 94 54 127c37 35 88 52 152 52s115 -17 153 -52c35 -33 53 -76 53 -127c0 -47 -17 -87 -51 -119c-25 -24 -51 -38 -78 -43v-2c40 -3 75 -20 106 -49
c35 -35 53 -79 53 -134c0 -59 -21 -106 -64 -143s-101 -55 -172 -55s-128 18 -171 55s-65 84 -65 143zM114 532c0 -43 16 -78 48 -105c31 -27 72 -40 121 -39c51 0 92 14 123 42c31 27 46 61 46 104s-15 78 -44 104c-31 27 -72 41 -125 41s-94 -14 -125 -41
c-29 -27 -44 -62 -44 -106zM84 188c0 -50 18 -90 54 -120s84 -45 145 -45s109 15 145 45s54 70 54 120c0 51 -18 91 -53 120c-36 29 -85 44 -146 44s-110 -15 -146 -44c-35 -29 -53 -69 -53 -120z" />
    <glyph glyph-name="nine.lf" horiz-adv-x="556" 
d="M437 316l-3 1c-42 -48 -98 -72 -167 -72s-124 22 -165 65s-61 98 -61 167c0 71 22 129 65 172s99 64 169 64c69 0 125 -21 168 -63c44 -43 66 -102 66 -175c0 -82 -43 -179 -130 -292l-139 -183h-43zM275 677c-57 0 -103 -16 -138 -49c-39 -36 -58 -87 -58 -152
s19 -115 58 -150c35 -32 81 -48 137 -48c58 0 105 17 140 51c38 36 57 86 57 149c0 65 -20 116 -59 151c-35 32 -81 48 -137 48z" />
    <glyph glyph-name="zero.slsh.lf" horiz-adv-x="565" 
d="M282 713c162 0 243 -121 243 -363s-81 -363 -243 -363c-161 0 -242 121 -242 363s81 363 242 363zM282 676c-136 0 -204 -109 -204 -326c0 -107 16 -187 48 -241l298 504c-35 42 -82 63 -142 63zM282 24c137 0 205 109 205 326c0 101 -14 178 -43 232l-297 -502
c33 -37 78 -56 135 -56z" />
    <glyph glyph-name="zero.slsh.numr" horiz-adv-x="322" 
d="M161 708c89 0 134 -68 134 -204s-45 -204 -134 -204s-133 68 -133 204s44 204 133 204zM161 676c-67 0 -100 -57 -100 -172c0 -45 6 -82 17 -111l149 252c-16 21 -38 31 -66 31zM161 331c67 0 100 58 100 173c0 46 -6 83 -17 112l-149 -253c16 -21 38 -32 66 -32z" />
    <glyph glyph-name="zero.slsh" horiz-adv-x="468" 
d="M234 570c129 0 194 -97 194 -290c0 -194 -65 -291 -194 -291s-194 97 -194 291c0 193 65 290 194 290zM234 535c-105 0 -157 -85 -157 -255c0 -81 12 -143 35 -185l230 390c-25 33 -61 50 -108 50zM234 24c104 0 156 85 156 256c0 75 -9 132 -28 171l-229 -386
c25 -27 59 -41 101 -41z" />
    <glyph glyph-name="zero.tf.slsh" 
d="M312 714c87 0 151 -36 192 -108c35 -62 53 -147 53 -256c0 -243 -82 -364 -245 -364s-245 121 -245 364s82 364 245 364zM312 678c-138 0 -207 -109 -207 -328c0 -102 15 -180 44 -234l301 503c-34 39 -80 59 -138 59zM312 22c137 0 206 109 206 328
c0 107 -16 187 -48 240l-301 -503c34 -43 82 -65 143 -65z" />
    <glyph glyph-name="zero.sups" horiz-adv-x="322" 
d="M161 462c-89 0 -133 68 -133 204s44 204 133 204s134 -68 134 -204s-45 -204 -134 -204zM161 493c67 0 100 58 100 173s-33 172 -100 172s-100 -57 -100 -172s33 -173 100 -173z" />
    <glyph glyph-name="four.sups" horiz-adv-x="322" 
d="M234 470h-32v106h-181v34l173 252h40v-254h69v-32h-69v-106zM202 608v97c0 29 1 58 2 86s2 39 2 34h-2c-1 0 -25 -36 -74 -108c-49 -71 -74 -107 -74 -108l1 -2l19 1h126z" />
    <glyph glyph-name="five.sups" horiz-adv-x="322" 
d="M73 687l2 -1c19 28 49 42 89 42c38 0 69 -12 92 -37s34 -57 34 -96c0 -40 -12 -72 -35 -96c-24 -25 -55 -37 -93 -37c-76 0 -119 40 -128 119l31 8c6 -65 39 -97 98 -97c29 0 51 9 68 28s26 44 26 75s-8 56 -25 75s-41 28 -70 28c-44 0 -74 -17 -89 -51l-29 6l30 209h200
v-31h-173l-13 -79c-3 -17 -6 -33 -10 -48z" />
    <glyph glyph-name="six.sups" horiz-adv-x="322" 
d="M70 681l2 -2c31 34 62 51 95 51c38 0 69 -12 93 -37s36 -57 36 -96c0 -40 -12 -72 -37 -97s-57 -38 -96 -38c-40 0 -72 12 -97 37s-37 59 -37 102s13 84 40 122l104 139h37zM163 492c30 0 54 10 72 29s28 45 29 76c1 32 -8 57 -27 76s-43 28 -74 28s-55 -9 -73 -28
c-19 -19 -28 -45 -28 -76s9 -57 28 -76c18 -19 42 -29 73 -29z" />
    <glyph glyph-name="seven.sups" horiz-adv-x="322" 
d="M290 830l-173 -360h-35l147 302c19 41 29 61 29 58l-1 2c-4 -1 -25 -1 -62 -1h-161v31h256v-32z" />
    <glyph glyph-name="eight.sups" horiz-adv-x="322" 
d="M27 574c0 29 10 54 31 73c17 15 35 25 56 28v2c-15 3 -30 12 -44 26c-19 19 -28 41 -28 67c0 29 11 53 33 72c23 19 51 28 86 28c36 0 65 -9 87 -28s33 -43 33 -72c0 -26 -9 -48 -28 -67c-13 -14 -28 -23 -43 -26v-2c21 -3 39 -13 56 -28c20 -20 30 -44 30 -73
c0 -33 -12 -59 -37 -80s-58 -32 -98 -32s-72 11 -97 32s-37 47 -37 80zM74 767c0 -22 8 -40 23 -53c16 -14 37 -21 64 -21s48 7 65 21c16 13 24 31 24 53s-8 40 -24 53c-17 13 -38 20 -65 20c-58 0 -87 -24 -87 -73zM60 575c0 -25 9 -45 28 -60c18 -15 42 -23 73 -23
s56 8 75 23s28 35 28 60s-9 45 -28 60c-19 16 -44 24 -75 24s-55 -8 -74 -23c-18 -15 -27 -36 -27 -61z" />
    <glyph glyph-name="nine.sups" horiz-adv-x="322" 
d="M247 644l-2 2c-23 -30 -53 -45 -88 -45c-39 0 -70 12 -94 37c-25 25 -37 58 -37 97c0 40 12 73 37 98s58 37 97 37s71 -13 96 -38s37 -58 37 -99c0 -49 -18 -98 -54 -145l-93 -118h-38zM161 839c-30 0 -54 -10 -73 -29s-29 -45 -29 -76c-1 -31 8 -56 27 -75
c18 -19 43 -28 74 -28s55 9 73 28s27 44 27 75s-9 57 -27 76c-19 19 -43 29 -72 29z" />
    <glyph glyph-name="zero.slsh.sups" horiz-adv-x="322" 
d="M161 870c89 0 134 -68 134 -204s-45 -204 -134 -204s-133 68 -133 204s44 204 133 204zM161 838c-67 0 -100 -57 -100 -172c0 -45 6 -82 17 -111l149 252c-16 21 -38 31 -66 31zM161 493c67 0 100 58 100 173c0 46 -6 83 -17 112l-149 -253c16 -21 38 -32 66 -32z" />
    <glyph glyph-name="zero.tf" 
d="M312 714c87 0 151 -36 192 -108c35 -62 53 -147 53 -256c0 -243 -82 -364 -245 -364s-245 121 -245 364s82 364 245 364zM312 678c-138 0 -207 -109 -207 -328s69 -328 207 -328c137 0 206 109 206 328s-69 328 -206 328z" />
    <glyph glyph-name="one.tf" 
d="M535 0h-403v36h183v502c0 79 1 118 3 118h-2c2 0 -16 -19 -53 -56l-122 -122l-24 25l197 197h38v-664h183v-36z" />
    <glyph glyph-name="two.tf" 
d="M102 0v43l240 226c55 53 93 94 112 123c26 38 39 77 39 118c0 49 -15 89 -45 119c-31 32 -75 48 -131 48c-59 0 -106 -18 -139 -55c-25 -27 -39 -59 -44 -96l-34 9c19 119 91 178 218 178c67 0 119 -19 157 -56c37 -37 56 -86 56 -148c0 -45 -12 -86 -35 -123
s-66 -84 -129 -143l-220 -206l1 -1h385v-36h-431z" />
    <glyph glyph-name="three.tf" 
d="M398 372v-3c41 -6 73 -23 98 -52c29 -32 43 -75 43 -128c0 -60 -20 -108 -61 -145s-93 -55 -158 -55c-64 0 -117 18 -159 53c-41 35 -65 80 -72 137l35 10c6 -49 26 -88 61 -118c36 -31 82 -46 138 -46s100 17 133 50c29 31 44 69 44 116c0 53 -17 93 -50 121
c-33 27 -78 41 -137 41h-56v35h56c56 0 100 12 131 37c32 25 48 61 48 108c0 45 -15 81 -44 106c-30 26 -72 39 -125 39c-107 0 -169 -51 -185 -152l-36 10c19 118 92 177 221 177c68 0 121 -18 158 -53c33 -31 50 -73 50 -125c0 -45 -13 -82 -39 -112
c-24 -27 -55 -44 -94 -51z" />
    <glyph glyph-name="four.tf" 
d="M444 0h-38v203h-340v38l325 459h53v-461h98v-36h-98v-203zM406 239l1 423h-1l-301 -422l1 -2z" />
    <glyph glyph-name="five.tf" 
d="M153 375l2 -1c33 52 89 78 167 78c64 0 116 -21 156 -63c41 -43 61 -98 61 -167c0 -68 -20 -124 -61 -167c-41 -44 -94 -66 -159 -66c-59 0 -108 18 -148 53s-65 83 -75 144l36 10c8 -53 29 -94 62 -125s75 -46 124 -46c55 0 99 19 133 56c33 36 50 83 50 142
s-17 106 -50 142c-34 36 -80 54 -137 54c-85 0 -140 -34 -166 -103l-34 8l57 376h341v-36h-312l-23 -159c-5 -32 -10 -63 -16 -93z" />
    <glyph glyph-name="six.tf" 
d="M152 385l2 -1c38 47 92 71 162 71c68 0 123 -22 164 -65s61 -98 61 -165c0 -69 -21 -126 -64 -170s-99 -66 -168 -66s-124 22 -166 66s-63 102 -63 175c0 76 27 151 81 226l177 244h44zM310 25c58 0 105 18 140 55s53 85 54 145c0 59 -17 107 -51 142
c-35 36 -82 54 -141 54s-107 -18 -142 -54s-52 -84 -52 -143c0 -60 18 -108 53 -144c35 -37 81 -55 139 -55z" />
    <glyph glyph-name="seven.tf" 
d="M533 665l-312 -665h-42l276 591c25 53 38 77 38 72l-2 2l-409 -1v36h451v-35z" />
    <glyph glyph-name="eight.tf" 
d="M78 187c0 54 18 98 54 133c31 30 66 47 107 50v2c-27 4 -54 18 -80 43c-33 32 -50 72 -50 119c0 52 18 94 54 127c37 35 88 52 152 52s115 -17 153 -52c35 -33 53 -76 53 -127c0 -47 -17 -87 -51 -119c-26 -24 -52 -38 -79 -43v-2c41 -3 76 -20 107 -49
c35 -35 53 -79 53 -134c0 -59 -22 -106 -65 -143s-100 -55 -171 -55s-128 18 -172 55c-43 37 -65 84 -65 143zM145 532c0 -43 16 -78 48 -105s73 -40 122 -39c51 0 92 14 123 42c31 27 46 61 46 104s-15 78 -44 104c-31 27 -72 41 -125 41s-95 -14 -126 -41
c-29 -27 -44 -62 -44 -106zM116 188c0 -50 18 -90 54 -120s84 -45 145 -45s109 15 145 45c35 30 53 70 53 120c0 51 -18 91 -53 120s-84 44 -145 44s-110 -15 -146 -44c-35 -29 -53 -69 -53 -120z" />
    <glyph glyph-name="nine.tf" 
d="M482 316l-2 1c-43 -48 -98 -72 -167 -72s-125 22 -166 65c-40 42 -60 98 -60 167c0 71 21 129 64 172s99 64 170 64c69 0 125 -21 168 -63c43 -43 65 -101 65 -175c0 -83 -43 -181 -130 -292l-139 -183h-43zM320 677c-57 0 -103 -16 -138 -49c-39 -36 -58 -87 -58 -152
s19 -115 58 -150c35 -32 81 -48 137 -48c58 0 105 17 140 51c38 36 57 86 57 149c0 65 -19 116 -58 151c-35 32 -81 48 -138 48z" />
    <glyph glyph-name="zero.tosf" 
d="M308 570c129 0 194 -97 194 -290c0 -194 -65 -291 -194 -291s-194 97 -194 291c0 193 65 290 194 290zM308 535c-104 0 -156 -85 -156 -255c0 -171 52 -256 156 -256c105 0 157 85 157 256c0 170 -52 255 -157 255z" />
    <glyph glyph-name="one.tosf" 
d="M468 0h-306v34h137v387c0 37 1 68 3 94h-2c5 0 -9 -14 -40 -43l-90 -94l-23 24l152 155h37v-523h132v-34z" />
    <glyph glyph-name="two.tosf" 
d="M144 0v42l188 172c80 73 120 138 120 194c0 38 -12 68 -35 91c-25 25 -59 37 -104 37s-79 -13 -103 -38c-20 -21 -31 -49 -33 -83l-35 9c5 49 24 87 58 112c31 23 69 34 116 34c54 0 96 -15 127 -44s46 -69 46 -120c0 -62 -44 -134 -132 -215l-169 -155l1 -1h302v-35
h-347z" />
    <glyph glyph-name="three.tosf" 
d="M374 294v-3c32 -4 58 -17 78 -40c22 -25 33 -59 33 -100c0 -49 -16 -88 -49 -118c-32 -29 -74 -44 -127 -44c-51 0 -94 15 -128 44c-33 28 -52 65 -57 110l33 9c5 -40 22 -71 49 -94s62 -35 104 -35c45 0 79 13 104 39c23 23 34 54 34 93c0 81 -48 121 -144 121h-45v33
h45c92 0 138 38 138 114c0 75 -44 113 -133 113c-85 0 -132 -40 -140 -121l-34 9c11 97 70 146 178 146c55 0 96 -14 125 -41c27 -25 41 -58 41 -101c0 -37 -11 -68 -32 -93c-19 -22 -43 -36 -73 -41z" />
    <glyph glyph-name="four.tosf" 
d="M400 0h-37v160h-269v37l254 363h52v-366h77v-34h-77v-160zM363 194l1 330h-2l-232 -328l2 -2h231z" />
    <glyph glyph-name="five.tosf" 
d="M191 300l2 -1c26 41 71 61 136 61c53 0 95 -17 128 -50s49 -78 49 -135s-17 -102 -50 -136c-33 -33 -77 -50 -131 -50c-49 0 -89 14 -122 42s-54 67 -63 117l34 8c7 -41 23 -74 50 -98c27 -23 60 -35 100 -35c43 0 78 14 105 41c27 28 40 65 40 112s-13 85 -40 112
c-26 27 -62 40 -108 40c-68 0 -113 -26 -134 -79l-32 8l46 303h273v-35h-245l-19 -124c-10 -65 -16 -98 -19 -101z" />
    <glyph glyph-name="six.tosf" 
d="M188 308l2 -2c29 37 71 55 126 55c53 0 97 -17 130 -52c33 -33 49 -77 49 -130c0 -57 -17 -102 -52 -137s-80 -53 -135 -53s-100 17 -133 52c-34 35 -51 82 -51 141c0 63 21 124 63 183l144 195h42zM309 23c45 0 81 14 108 42c27 29 41 67 41 114c1 46 -12 83 -39 110
s-64 41 -110 41s-82 -14 -109 -41c-26 -27 -39 -64 -39 -111s13 -85 40 -113s63 -42 108 -42z" />
    <glyph glyph-name="seven.tosf" 
d="M497 528l-274 -528h-39l239 463c23 47 34 67 34 61l-1 2c-23 -1 -47 -1 -72 -1h-251v35h364v-32z" />
    <glyph glyph-name="eight.tosf" 
d="M119 148c0 43 14 79 42 106c24 23 53 36 86 39v2c-22 3 -43 15 -64 35c-27 26 -40 58 -40 95c0 41 14 75 43 102c30 29 71 43 122 43s92 -14 123 -43c29 -27 43 -60 43 -101c0 -38 -13 -70 -40 -96c-21 -20 -42 -32 -64 -35v-2c33 -3 62 -16 86 -39
c28 -27 42 -63 42 -106c0 -48 -17 -86 -51 -115c-35 -29 -81 -44 -138 -44s-103 15 -138 44s-52 68 -52 115zM177 423c0 -34 12 -62 37 -83s56 -31 94 -30c40 1 72 12 96 33s36 48 36 81s-11 60 -34 81c-25 22 -57 33 -98 33s-74 -11 -97 -33c-23 -21 -34 -48 -34 -82z
M155 150c0 -39 14 -71 41 -94s65 -34 112 -34s85 11 112 34c28 23 42 55 42 94s-14 69 -41 92c-28 22 -66 33 -113 33s-85 -11 -112 -33c-27 -23 -41 -53 -41 -92z" />
    <glyph glyph-name="nine.tosf" 
d="M443 250l-2 1c-33 -38 -76 -57 -130 -57c-55 0 -99 17 -132 52c-32 35 -48 80 -48 135c0 57 17 102 52 137s80 52 136 52s101 -17 135 -50c35 -35 53 -82 53 -141c0 -67 -34 -146 -102 -235l-110 -144h-42zM319 536c-44 0 -80 -13 -107 -38c-29 -28 -44 -67 -44 -118
s15 -91 45 -118c27 -25 62 -37 106 -37c45 0 81 13 108 39c29 28 44 67 44 117c0 51 -15 90 -45 118c-27 25 -63 37 -107 37z" />
    <glyph glyph-name="zero.slsh.tosf" 
d="M301 570c129 0 194 -97 194 -290c0 -194 -65 -291 -194 -291s-194 97 -194 291c0 193 65 290 194 290zM301 535c-104 0 -156 -85 -156 -255c0 -81 12 -143 35 -185l230 390c-25 33 -62 50 -109 50zM301 24c105 0 157 85 157 256c0 73 -9 130 -28 171l-229 -386
c25 -27 59 -41 100 -41z" />
    <glyph glyph-name="fraction" unicode="&#x2044;" horiz-adv-x="107" 
d="M175 700l-209 -700h-35l209 700h35z" />
    <glyph glyph-name="uni215F" unicode="&#x215f;" horiz-adv-x="429" 
d="M279 308h-218v31h92v229c0 11 1 29 2 56l1 37h-2l-79 -78l-22 22l101 95h33v-361h92v-31zM498 700l-210 -700h-34l209 700h35z" />
    <glyph glyph-name="onehalf" unicode="&#xbd;" horiz-adv-x="752" 
d="M279 308h-218v31h92v229c0 11 1 29 2 56l1 37h-2l-79 -78l-22 22l101 95h33v-361h92v-31zM498 700l-210 -700h-34l209 700h35zM465 0v34l160 143c39 36 58 73 58 112c0 53 -30 80 -90 80c-51 0 -83 -26 -94 -79l-29 8c12 69 54 103 125 103c37 0 67 -10 88 -31
s32 -48 32 -82c0 -43 -24 -88 -72 -133c-16 -15 -63 -56 -140 -123l1 -3c12 1 39 2 81 2h133v-31h-253z" />
    <glyph glyph-name="uni2189" unicode="&#x2189;" horiz-adv-x="742" 
d="M161 300c-89 0 -133 68 -133 204s44 204 133 204s134 -68 134 -204s-45 -204 -134 -204zM488 700l-210 -700h-34l209 700h35zM161 331c67 0 100 58 100 173s-33 172 -100 172s-100 -57 -100 -172s33 -173 100 -173zM623 206v-3c25 -3 46 -12 62 -29c17 -18 26 -41 26 -70
c0 -33 -12 -60 -35 -81s-53 -31 -89 -31c-38 0 -70 11 -95 34c-24 22 -38 49 -41 82l33 8c1 -28 11 -50 29 -67c19 -17 43 -26 74 -26c29 0 52 8 68 24c15 15 23 35 23 59c0 25 -9 46 -27 61s-42 23 -71 23h-31v28h31c28 0 51 7 68 22c17 14 26 33 26 57c0 49 -31 73 -92 73
c-52 0 -82 -27 -91 -80l-29 8c9 69 50 103 122 103c40 0 71 -10 93 -29c20 -18 30 -42 30 -72c0 -28 -9 -51 -27 -68c-16 -16 -35 -25 -57 -26z" />
    <glyph glyph-name="onethird" unicode="&#x2153;" horiz-adv-x="752" 
d="M279 308h-218v31h92v229c0 11 1 29 2 56l1 37h-2l-79 -78l-22 22l101 95h33v-361h92v-31zM498 700l-210 -700h-34l209 700h35zM633 206v-3c25 -3 46 -12 62 -29c17 -18 26 -41 26 -70c0 -33 -12 -60 -35 -81s-53 -31 -89 -31c-38 0 -70 11 -95 34c-24 22 -38 49 -41 82
l33 8c1 -28 11 -50 29 -67c19 -17 43 -26 74 -26c29 0 52 8 68 24c15 15 23 35 23 59c0 25 -9 46 -27 61s-42 23 -71 23h-31v28h31c28 0 51 7 68 22c17 14 26 33 26 57c0 49 -31 73 -92 73c-52 0 -82 -27 -91 -80l-29 8c9 69 50 103 122 103c40 0 71 -10 93 -29
c20 -18 30 -42 30 -72c0 -28 -9 -51 -27 -68c-16 -16 -35 -25 -57 -26z" />
    <glyph glyph-name="twothirds" unicode="&#x2154;" horiz-adv-x="752" 
d="M35 308v33l161 144c38 35 57 72 57 111c0 54 -30 81 -89 81c-51 0 -83 -26 -94 -79l-29 8c12 68 53 102 124 102c37 0 67 -10 89 -30c21 -21 32 -48 32 -82c0 -44 -24 -89 -73 -134c-26 -26 -56 -54 -91 -83l-48 -40l1 -3c18 2 45 3 80 3h134v-31h-254zM498 700
l-210 -700h-34l209 700h35zM633 206v-3c25 -3 46 -12 62 -29c17 -18 26 -41 26 -70c0 -33 -12 -60 -35 -81s-53 -31 -89 -31c-38 0 -70 11 -95 34c-24 22 -38 49 -41 82l33 8c1 -28 11 -50 29 -67c19 -17 43 -26 74 -26c29 0 52 8 68 24c15 15 23 35 23 59
c0 25 -9 46 -27 61s-42 23 -71 23h-31v28h31c28 0 51 7 68 22c17 14 26 33 26 57c0 49 -31 73 -92 73c-52 0 -82 -27 -91 -80l-29 8c9 69 50 103 122 103c40 0 71 -10 93 -29c20 -18 30 -42 30 -72c0 -28 -9 -51 -27 -68c-16 -16 -35 -25 -57 -26z" />
    <glyph glyph-name="onequarter" unicode="&#xbc;" horiz-adv-x="752" 
d="M279 308h-218v31h92v229c0 11 1 29 2 56l1 37h-2l-79 -78l-22 22l101 95h33v-361h92v-31zM498 700l-210 -700h-34l209 700h35zM664 0h-33v107h-181v34l174 252h40v-255h68v-31h-68v-107zM631 138v98c0 29 1 58 3 85c1 28 2 39 2 34h-3c-1 0 -25 -36 -74 -107
c-49 -72 -74 -108 -74 -109l1 -2l19 1h126z" />
    <glyph glyph-name="threequarters" unicode="&#xbe;" horiz-adv-x="752" 
d="M204 513v-2c25 -3 46 -12 62 -29c17 -18 25 -41 25 -70c0 -34 -12 -61 -35 -82c-23 -20 -52 -30 -88 -30c-38 0 -70 11 -95 34c-25 22 -38 49 -41 82l32 8c1 -28 11 -50 30 -67s43 -26 74 -26c29 0 51 8 68 24c15 15 23 35 23 58c0 26 -9 47 -27 62s-42 23 -71 23h-32v27
h32c28 0 51 7 68 22s26 34 26 58c0 48 -31 72 -93 72c-51 0 -81 -26 -90 -79l-30 8c11 68 52 102 123 102c40 0 71 -10 92 -29c20 -18 30 -42 30 -71s-9 -52 -26 -69c-16 -16 -35 -25 -57 -26zM498 700l-210 -700h-34l209 700h35zM664 0h-33v107h-181v34l174 252h40v-255h68
v-31h-68v-107zM631 138v98c0 29 1 58 3 85c1 28 2 39 2 34h-3c-1 0 -25 -36 -74 -107c-49 -72 -74 -108 -74 -109l1 -2l19 1h126z" />
    <glyph glyph-name="uni2155" unicode="&#x2155;" horiz-adv-x="752" 
d="M279 308h-218v31h92v229c0 11 1 29 2 56l1 37h-2l-79 -78l-22 22l101 95h33v-361h92v-31zM498 700l-210 -700h-34l209 700h35zM502 218l3 -1c20 27 50 41 89 41c37 0 68 -12 91 -37s34 -57 34 -96c0 -40 -12 -72 -35 -96c-24 -25 -55 -37 -92 -37c-75 0 -118 40 -129 119
l32 9c6 -65 38 -97 97 -97c29 0 51 9 68 28s26 44 26 75s-8 56 -25 74c-17 19 -40 28 -69 28c-45 0 -75 -17 -90 -51l-28 6l30 210h199v-32h-173l-13 -79c-3 -17 -6 -32 -10 -47c-3 -13 -5 -18 -5 -17z" />
    <glyph glyph-name="uni2156" unicode="&#x2156;" horiz-adv-x="752" 
d="M35 308v33l161 144c38 35 57 72 57 111c0 54 -30 81 -89 81c-51 0 -83 -26 -94 -79l-29 8c12 68 53 102 124 102c37 0 67 -10 89 -30c21 -21 32 -48 32 -82c0 -44 -24 -89 -73 -134c-26 -26 -56 -54 -91 -83l-48 -40l1 -3c18 2 45 3 80 3h134v-31h-254zM498 700
l-210 -700h-34l209 700h35zM502 218l3 -1c20 27 50 41 89 41c37 0 68 -12 91 -37s34 -57 34 -96c0 -40 -12 -72 -35 -96c-24 -25 -55 -37 -92 -37c-75 0 -118 40 -129 119l32 9c6 -65 38 -97 97 -97c29 0 51 9 68 28s26 44 26 75s-8 56 -25 74c-17 19 -40 28 -69 28
c-45 0 -75 -17 -90 -51l-28 6l30 210h199v-32h-173l-13 -79c-3 -17 -6 -32 -10 -47c-3 -13 -5 -18 -5 -17z" />
    <glyph glyph-name="uni2157" unicode="&#x2157;" horiz-adv-x="752" 
d="M204 513v-2c25 -3 46 -12 62 -29c17 -18 25 -41 25 -70c0 -34 -12 -61 -35 -82c-23 -20 -52 -30 -88 -30c-38 0 -70 11 -95 34c-25 22 -38 49 -41 82l32 8c1 -28 11 -50 30 -67s43 -26 74 -26c29 0 51 8 68 24c15 15 23 35 23 58c0 26 -9 47 -27 62s-42 23 -71 23h-32v27
h32c28 0 51 7 68 22s26 34 26 58c0 48 -31 72 -93 72c-51 0 -81 -26 -90 -79l-30 8c11 68 52 102 123 102c40 0 71 -10 92 -29c20 -18 30 -42 30 -71s-9 -52 -26 -69c-16 -16 -35 -25 -57 -26zM498 700l-210 -700h-34l209 700h35zM502 218l3 -1c20 27 50 41 89 41
c37 0 68 -12 91 -37s34 -57 34 -96c0 -40 -12 -72 -35 -96c-24 -25 -55 -37 -92 -37c-75 0 -118 40 -129 119l32 9c6 -65 38 -97 97 -97c29 0 51 9 68 28s26 44 26 75s-8 56 -25 74c-17 19 -40 28 -69 28c-45 0 -75 -17 -90 -51l-28 6l30 210h199v-32h-173l-13 -79
c-3 -17 -6 -32 -10 -47c-3 -13 -5 -18 -5 -17z" />
    <glyph glyph-name="uni2158" unicode="&#x2158;" horiz-adv-x="752" 
d="M234 308h-32v106h-181v34l173 252h40v-254h69v-32h-69v-106zM498 700l-210 -700h-34l209 700h35zM202 446v97c0 29 1 58 2 86s2 39 2 34h-2c-1 0 -25 -36 -74 -108c-49 -71 -74 -107 -74 -108l1 -2l19 1h126zM502 218l3 -1c20 27 50 41 89 41c37 0 68 -12 91 -37
s34 -57 34 -96c0 -40 -12 -72 -35 -96c-24 -25 -55 -37 -92 -37c-75 0 -118 40 -129 119l32 9c6 -65 38 -97 97 -97c29 0 51 9 68 28s26 44 26 75s-8 56 -25 74c-17 19 -40 28 -69 28c-45 0 -75 -17 -90 -51l-28 6l30 210h199v-32h-173l-13 -79c-3 -17 -6 -32 -10 -47
c-3 -13 -5 -18 -5 -17z" />
    <glyph glyph-name="uni2159" unicode="&#x2159;" horiz-adv-x="752" 
d="M279 308h-218v31h92v229c0 11 1 29 2 56l1 37h-2l-79 -78l-22 22l101 95h33v-361h92v-31zM498 700l-210 -700h-34l209 700h35zM499 211l3 -2c29 34 60 51 94 51c38 0 69 -12 94 -36c24 -25 36 -57 36 -97s-12 -72 -37 -97s-57 -38 -97 -38c-39 0 -71 13 -96 38
s-38 59 -38 102c0 44 13 84 40 121l104 140h38zM592 23c30 0 54 10 73 29c18 19 27 45 28 76s-8 56 -27 75c-18 19 -43 28 -74 28s-55 -9 -73 -28c-19 -19 -28 -44 -28 -75c0 -32 9 -57 28 -76c18 -19 42 -29 73 -29z" />
    <glyph glyph-name="uni215A" unicode="&#x215a;" horiz-adv-x="752" 
d="M73 525l2 -1c19 28 49 42 89 42c38 0 69 -12 92 -37s34 -57 34 -96c0 -40 -12 -72 -35 -96c-24 -25 -55 -37 -93 -37c-76 0 -119 40 -128 119l31 8c6 -65 39 -97 98 -97c29 0 51 9 68 28s26 44 26 75s-8 56 -25 75s-41 28 -70 28c-44 0 -74 -17 -89 -51l-29 6l30 209h200
v-31h-173l-13 -79c-3 -17 -6 -33 -10 -48zM498 700l-210 -700h-34l209 700h35zM499 211l3 -2c29 34 60 51 94 51c38 0 69 -12 94 -36c24 -25 36 -57 36 -97s-12 -72 -37 -97s-57 -38 -97 -38c-39 0 -71 13 -96 38s-38 59 -38 102c0 44 13 84 40 121l104 140h38zM592 23
c30 0 54 10 73 29c18 19 27 45 28 76s-8 56 -27 75c-18 19 -43 28 -74 28s-55 -9 -73 -28c-19 -19 -28 -44 -28 -75c0 -32 9 -57 28 -76c18 -19 42 -29 73 -29z" />
    <glyph glyph-name="uni2150" unicode="&#x2150;" horiz-adv-x="752" 
d="M279 308h-218v31h92v229c0 11 1 29 2 56l1 37h-2l-79 -78l-22 22l101 95h33v-361h92v-31zM498 700l-210 -700h-34l209 700h35zM719 361l-173 -361h-34l146 303c17 36 27 55 30 58l-2 1l-223 -1v32h256v-32z" />
    <glyph glyph-name="oneeighth" unicode="&#x215b;" horiz-adv-x="752" 
d="M279 308h-218v31h92v229c0 11 1 29 2 56l1 37h-2l-79 -78l-22 22l101 95h33v-361h92v-31zM498 700l-210 -700h-34l209 700h35zM456 104c0 30 10 55 31 74c17 15 36 25 57 28v2c-15 3 -30 11 -45 26c-18 19 -27 41 -27 67c0 29 11 53 33 72s51 28 86 28s64 -9 87 -28
c22 -19 33 -44 33 -73c0 -26 -9 -48 -28 -67c-15 -14 -29 -22 -44 -25v-2c21 -3 39 -13 56 -28c21 -20 31 -44 31 -73c0 -33 -12 -60 -37 -81s-58 -32 -98 -32s-72 11 -97 32s-38 47 -38 80zM503 298c0 -22 8 -40 24 -54c16 -13 37 -20 64 -21c27 0 48 7 64 21s24 32 24 54
s-8 40 -24 53s-37 20 -64 20s-48 -7 -64 -20s-24 -31 -24 -53zM489 106c0 -25 9 -45 28 -60s43 -23 74 -24c31 1 55 9 74 24s28 35 28 60s-9 45 -28 60c-19 16 -43 24 -74 24s-55 -8 -74 -24c-19 -15 -28 -35 -28 -60z" />
    <glyph glyph-name="threeeighths" unicode="&#x215c;" horiz-adv-x="752" 
d="M204 513v-2c25 -3 46 -12 62 -29c17 -18 25 -41 25 -70c0 -34 -12 -61 -35 -82c-23 -20 -52 -30 -88 -30c-38 0 -70 11 -95 34c-25 22 -38 49 -41 82l32 8c1 -28 11 -50 30 -67s43 -26 74 -26c29 0 51 8 68 24c15 15 23 35 23 58c0 26 -9 47 -27 62s-42 23 -71 23h-32v27
h32c28 0 51 7 68 22s26 34 26 58c0 48 -31 72 -93 72c-51 0 -81 -26 -90 -79l-30 8c11 68 52 102 123 102c40 0 71 -10 92 -29c20 -18 30 -42 30 -71s-9 -52 -26 -69c-16 -16 -35 -25 -57 -26zM498 700l-210 -700h-34l209 700h35zM456 104c0 30 10 55 31 74
c17 15 36 25 57 28v2c-15 3 -30 11 -45 26c-18 19 -27 41 -27 67c0 29 11 53 33 72s51 28 86 28s64 -9 87 -28c22 -19 33 -44 33 -73c0 -26 -9 -48 -28 -67c-15 -14 -29 -22 -44 -25v-2c21 -3 39 -13 56 -28c21 -20 31 -44 31 -73c0 -33 -12 -60 -37 -81s-58 -32 -98 -32
s-72 11 -97 32s-38 47 -38 80zM503 298c0 -22 8 -40 24 -54c16 -13 37 -20 64 -21c27 0 48 7 64 21s24 32 24 54s-8 40 -24 53s-37 20 -64 20s-48 -7 -64 -20s-24 -31 -24 -53zM489 106c0 -25 9 -45 28 -60s43 -23 74 -24c31 1 55 9 74 24s28 35 28 60s-9 45 -28 60
c-19 16 -43 24 -74 24s-55 -8 -74 -24c-19 -15 -28 -35 -28 -60z" />
    <glyph glyph-name="fiveeighths" unicode="&#x215d;" horiz-adv-x="752" 
d="M73 525l2 -1c19 28 49 42 89 42c38 0 69 -12 92 -37s34 -57 34 -96c0 -40 -12 -72 -35 -96c-24 -25 -55 -37 -93 -37c-76 0 -119 40 -128 119l31 8c6 -65 39 -97 98 -97c29 0 51 9 68 28s26 44 26 75s-8 56 -25 75s-41 28 -70 28c-44 0 -74 -17 -89 -51l-29 6l30 209h200
v-31h-173l-13 -79c-3 -17 -6 -33 -10 -48zM498 700l-210 -700h-34l209 700h35zM456 104c0 30 10 55 31 74c17 15 36 25 57 28v2c-15 3 -30 11 -45 26c-18 19 -27 41 -27 67c0 29 11 53 33 72s51 28 86 28s64 -9 87 -28c22 -19 33 -44 33 -73c0 -26 -9 -48 -28 -67
c-15 -14 -29 -22 -44 -25v-2c21 -3 39 -13 56 -28c21 -20 31 -44 31 -73c0 -33 -12 -60 -37 -81s-58 -32 -98 -32s-72 11 -97 32s-38 47 -38 80zM503 298c0 -22 8 -40 24 -54c16 -13 37 -20 64 -21c27 0 48 7 64 21s24 32 24 54s-8 40 -24 53s-37 20 -64 20s-48 -7 -64 -20
s-24 -31 -24 -53zM489 106c0 -25 9 -45 28 -60s43 -23 74 -24c31 1 55 9 74 24s28 35 28 60s-9 45 -28 60c-19 16 -43 24 -74 24s-55 -8 -74 -24c-19 -15 -28 -35 -28 -60z" />
    <glyph glyph-name="seveneighths" unicode="&#x215e;" horiz-adv-x="752" 
d="M290 668l-173 -360h-35l147 302c19 41 29 61 29 58l-1 2c-4 -1 -25 -1 -62 -1h-161v31h256v-32zM498 700l-210 -700h-34l209 700h35zM456 104c0 30 10 55 31 74c17 15 36 25 57 28v2c-15 3 -30 11 -45 26c-18 19 -27 41 -27 67c0 29 11 53 33 72s51 28 86 28
s64 -9 87 -28c22 -19 33 -44 33 -73c0 -26 -9 -48 -28 -67c-15 -14 -29 -22 -44 -25v-2c21 -3 39 -13 56 -28c21 -20 31 -44 31 -73c0 -33 -12 -60 -37 -81s-58 -32 -98 -32s-72 11 -97 32s-38 47 -38 80zM503 298c0 -22 8 -40 24 -54c16 -13 37 -20 64 -21c27 0 48 7 64 21
s24 32 24 54s-8 40 -24 53s-37 20 -64 20s-48 -7 -64 -20s-24 -31 -24 -53zM489 106c0 -25 9 -45 28 -60s43 -23 74 -24c31 1 55 9 74 24s28 35 28 60s-9 45 -28 60c-19 16 -43 24 -74 24s-55 -8 -74 -24c-19 -15 -28 -35 -28 -60z" />
    <glyph glyph-name="uni2151" unicode="&#x2151;" horiz-adv-x="752" 
d="M279 308h-218v31h92v229c0 11 1 29 2 56l1 37h-2l-79 -78l-22 22l101 95h33v-361h92v-31zM498 700l-210 -700h-34l209 700h35zM677 174l-3 2c-23 -29 -52 -44 -88 -44c-39 0 -70 12 -94 37s-36 57 -36 96c0 40 12 73 37 98s57 38 96 38s72 -13 97 -38
c25 -26 37 -59 37 -100c0 -48 -18 -96 -55 -145l-92 -118h-39zM590 370c-30 0 -54 -10 -73 -29s-28 -45 -29 -76s8 -56 27 -75s43 -28 74 -28s55 9 73 28c19 19 28 44 28 75s-9 57 -28 76s-43 29 -72 29z" />
    <glyph glyph-name="uni2152" unicode="&#x2152;" horiz-adv-x="1074" 
d="M279 308h-218v31h92v229c0 11 1 29 2 56l1 37h-2l-79 -78l-22 22l101 95h33v-361h92v-31zM498 700l-210 -700h-34l209 700h35zM913 -8c-89 0 -133 68 -133 204c0 137 44 205 133 205s134 -68 134 -205c0 -136 -45 -204 -134 -204zM709 0h-219v31h93v230c0 58 1 89 3 93
h-3c2 0 -7 -9 -27 -28l-52 -50l-21 22l100 95h33v-362h93v-31zM913 24c67 0 100 57 100 172s-33 173 -100 173s-100 -58 -100 -173s33 -172 100 -172z" />
    <glyph glyph-name="zero.dnom" horiz-adv-x="322" 
d="M161 -8c-89 0 -133 68 -133 204c0 137 44 205 133 205s134 -68 134 -205c0 -136 -45 -204 -134 -204zM161 24c67 0 100 57 100 172s-33 173 -100 173s-100 -58 -100 -173s33 -172 100 -172z" />
    <glyph glyph-name="one.dnom" horiz-adv-x="322" 
d="M279 0h-218v31h92v230l3 93h-2c1 0 -8 -9 -27 -28l-52 -50l-22 22l101 95h33v-362h92v-31z" />
    <glyph glyph-name="two.dnom" horiz-adv-x="322" 
d="M35 0v34l161 143c38 37 57 74 57 112c0 53 -30 80 -89 80c-51 0 -83 -26 -94 -79l-29 8c12 69 53 103 124 103c37 0 67 -10 89 -31c21 -21 32 -48 32 -82c0 -43 -24 -88 -73 -133c-26 -26 -56 -54 -91 -83s-51 -43 -48 -40l1 -3c12 1 39 2 80 2h134v-31h-254z" />
    <glyph glyph-name="three.dnom" horiz-adv-x="322" 
d="M204 206v-3c25 -3 46 -12 62 -29c17 -18 25 -41 25 -70c0 -33 -12 -60 -35 -81s-53 -31 -88 -31c-38 0 -70 11 -95 34c-25 22 -38 49 -41 82l32 8c1 -28 11 -50 30 -67s43 -26 74 -26c29 0 51 8 68 24c15 15 23 35 23 59c0 25 -9 46 -27 61s-42 23 -71 23h-32v28h32
c28 0 51 7 68 22c17 14 26 33 26 57c0 49 -31 73 -93 73c-51 0 -81 -27 -90 -80l-30 8c11 69 52 103 123 103c40 0 71 -10 92 -29c20 -18 30 -42 30 -72c0 -28 -9 -51 -26 -68c-16 -16 -35 -25 -57 -26z" />
    <glyph glyph-name="four.dnom" horiz-adv-x="322" 
d="M234 0h-32v107h-181v34l173 252h40v-255h69v-31h-69v-107zM202 138v98c0 29 1 58 2 85c1 28 2 39 2 34h-2c-1 0 -25 -36 -74 -107c-49 -72 -74 -108 -74 -109l1 -2l19 1h126z" />
    <glyph glyph-name="five.dnom" horiz-adv-x="322" 
d="M73 218l2 -1c20 27 50 41 89 41c38 0 69 -12 92 -37s34 -57 34 -96c0 -40 -12 -72 -35 -96c-24 -25 -55 -37 -93 -37c-76 0 -119 40 -128 119l31 9c6 -65 39 -97 98 -97c29 0 51 9 68 28s26 44 26 75s-8 56 -25 74c-17 19 -41 28 -70 28c-44 0 -74 -17 -89 -51l-29 6
l30 210h200v-32h-173l-13 -79c-3 -17 -6 -32 -10 -47z" />
    <glyph glyph-name="six.dnom" horiz-adv-x="322" 
d="M70 211l2 -2c29 34 60 51 95 51c38 0 69 -12 93 -36c24 -25 36 -57 36 -97s-12 -72 -37 -97s-57 -38 -96 -38c-40 0 -72 13 -97 38s-37 59 -37 102c0 44 13 84 40 121l104 140h37zM163 23c30 0 54 10 72 29s28 44 29 76c1 31 -8 56 -27 75s-43 28 -74 28s-55 -9 -73 -28
c-19 -19 -28 -44 -28 -75c0 -32 9 -57 28 -76c18 -19 42 -29 73 -29z" />
    <glyph glyph-name="seven.dnom" horiz-adv-x="322" 
d="M290 361l-173 -361h-35l147 303c19 40 29 59 29 58l-1 1l-223 -1v32h256v-32z" />
    <glyph glyph-name="eight.dnom" horiz-adv-x="322" 
d="M27 104c0 30 10 55 31 74c17 15 35 25 56 28v2c-15 3 -30 11 -44 26c-19 19 -28 41 -28 67c0 29 11 53 33 72c23 19 51 28 86 28c36 0 65 -9 87 -28s33 -43 33 -73c0 -26 -9 -48 -28 -67c-14 -14 -28 -22 -43 -25v-2c21 -3 39 -13 56 -28c20 -20 30 -44 30 -73
c0 -33 -12 -60 -37 -81s-58 -32 -98 -32s-72 11 -97 32s-37 47 -37 80zM74 298c0 -22 8 -40 23 -54c16 -13 37 -20 64 -21c27 0 48 7 65 21c16 14 24 32 24 54s-8 40 -24 53c-17 13 -38 20 -65 20s-48 -7 -63 -20c-16 -13 -24 -31 -24 -53zM60 106c0 -25 9 -45 28 -60
c18 -15 42 -23 73 -24c31 1 56 9 75 24s28 35 28 60s-9 45 -28 60c-19 16 -44 24 -75 24s-55 -8 -74 -24c-18 -15 -27 -35 -27 -60z" />
    <glyph glyph-name="nine.dnom" horiz-adv-x="322" 
d="M247 174l-2 2c-24 -29 -53 -44 -88 -44c-39 0 -70 12 -94 37c-25 25 -37 57 -37 96c0 40 12 73 37 98s58 38 97 38s71 -13 96 -38c25 -26 37 -59 37 -100c0 -49 -18 -98 -54 -145l-93 -118h-38zM161 370c-30 0 -54 -10 -73 -29c-19 -20 -29 -45 -29 -76
c-1 -31 8 -56 27 -75c18 -19 43 -28 74 -28s55 9 73 28s27 44 27 75s-9 57 -27 76c-19 19 -43 29 -72 29z" />
    <glyph glyph-name="zero.numr" horiz-adv-x="322" 
d="M161 300c-89 0 -133 68 -133 204s44 204 133 204s134 -68 134 -204s-45 -204 -134 -204zM161 331c67 0 100 58 100 173s-33 172 -100 172s-100 -57 -100 -172s33 -173 100 -173z" />
    <glyph glyph-name="one.numr" horiz-adv-x="322" 
d="M279 308h-218v31h92v229c0 11 1 29 2 56l1 37h-2l-79 -78l-22 22l101 95h33v-361h92v-31z" />
    <glyph glyph-name="two.numr" horiz-adv-x="322" 
d="M35 308v33l161 144c38 35 57 72 57 111c0 54 -30 81 -89 81c-51 0 -83 -26 -94 -79l-29 8c12 68 53 102 124 102c37 0 67 -10 89 -30c21 -21 32 -48 32 -82c0 -44 -24 -89 -73 -134c-26 -26 -56 -54 -91 -83l-48 -40l1 -3c18 2 45 3 80 3h134v-31h-254z" />
    <glyph glyph-name="three.numr" horiz-adv-x="322" 
d="M204 513v-2c25 -3 46 -12 62 -29c17 -18 25 -41 25 -70c0 -34 -12 -61 -35 -82c-23 -20 -52 -30 -88 -30c-38 0 -70 11 -95 34c-25 22 -38 49 -41 82l32 8c1 -28 11 -50 30 -67s43 -26 74 -26c29 0 51 8 68 24c15 15 23 35 23 58c0 26 -9 47 -27 62s-42 23 -71 23h-32v27
h32c28 0 51 7 68 22s26 34 26 58c0 48 -31 72 -93 72c-51 0 -81 -26 -90 -79l-30 8c11 68 52 102 123 102c40 0 71 -10 92 -29c20 -18 30 -42 30 -71s-9 -52 -26 -69c-16 -16 -35 -25 -57 -26z" />
    <glyph glyph-name="four.numr" horiz-adv-x="322" 
d="M234 308h-32v106h-181v34l173 252h40v-254h69v-32h-69v-106zM202 446v97c0 29 1 58 2 86s2 39 2 34h-2c-1 0 -25 -36 -74 -108c-49 -71 -74 -107 -74 -108l1 -2l19 1h126z" />
    <glyph glyph-name="five.numr" horiz-adv-x="322" 
d="M73 525l2 -1c19 28 49 42 89 42c38 0 69 -12 92 -37s34 -57 34 -96c0 -40 -12 -72 -35 -96c-24 -25 -55 -37 -93 -37c-76 0 -119 40 -128 119l31 8c6 -65 39 -97 98 -97c29 0 51 9 68 28s26 44 26 75s-8 56 -25 75s-41 28 -70 28c-44 0 -74 -17 -89 -51l-29 6l30 209h200
v-31h-173l-13 -79c-3 -17 -6 -33 -10 -48z" />
    <glyph glyph-name="six.numr" horiz-adv-x="322" 
d="M70 519l2 -2c31 34 62 51 95 51c38 0 69 -12 93 -37s36 -57 36 -96c0 -40 -12 -72 -37 -97s-57 -38 -96 -38c-40 0 -72 12 -97 37s-37 59 -37 102s13 84 40 122l104 139h37zM163 330c30 0 54 10 72 29s28 45 29 76c1 32 -8 57 -27 76s-43 28 -74 28s-55 -9 -73 -28
c-19 -19 -28 -45 -28 -76s9 -57 28 -76c18 -19 42 -29 73 -29z" />
    <glyph glyph-name="seven.numr" horiz-adv-x="322" 
d="M290 668l-173 -360h-35l147 302c19 41 29 61 29 58l-1 2c-4 -1 -25 -1 -62 -1h-161v31h256v-32z" />
    <glyph glyph-name="eight.numr" horiz-adv-x="322" 
d="M27 412c0 29 10 54 31 73c17 15 35 25 56 28v2c-15 3 -30 12 -44 26c-19 19 -28 41 -28 67c0 29 11 53 33 72c23 19 51 28 86 28c36 0 65 -9 87 -28s33 -43 33 -72c0 -26 -9 -48 -28 -67c-13 -14 -28 -23 -43 -26v-2c21 -3 39 -13 56 -28c20 -20 30 -44 30 -73
c0 -33 -12 -59 -37 -80s-58 -32 -98 -32s-72 11 -97 32s-37 47 -37 80zM74 605c0 -22 8 -40 23 -53c16 -14 37 -21 64 -21s48 7 65 21c16 13 24 31 24 53s-8 40 -24 53c-17 13 -38 20 -65 20c-58 0 -87 -24 -87 -73zM60 413c0 -25 9 -45 28 -60c18 -15 42 -23 73 -23
s56 8 75 23s28 35 28 60s-9 45 -28 60c-19 16 -44 24 -75 24s-55 -8 -74 -23c-18 -15 -27 -36 -27 -61z" />
    <glyph glyph-name="nine.numr" horiz-adv-x="322" 
d="M247 482l-2 2c-23 -30 -53 -45 -88 -45c-39 0 -70 12 -94 37c-25 25 -37 58 -37 97c0 40 12 73 37 98s58 37 97 37s71 -13 96 -38s37 -58 37 -99c0 -49 -18 -98 -54 -145l-93 -118h-38zM161 677c-30 0 -54 -10 -73 -29s-29 -45 -29 -76c-1 -31 8 -56 27 -75
c18 -19 43 -28 74 -28s55 9 73 28s27 44 27 75s-9 57 -27 76c-19 19 -43 29 -72 29z" />
    <glyph glyph-name="uni00B9" unicode="&#xb9;" horiz-adv-x="322" 
d="M279 470h-218v31h92v229c0 11 1 29 2 56l1 37h-2l-79 -78l-22 22l101 95h33v-361h92v-31z" />
    <glyph glyph-name="uni00B2" unicode="&#xb2;" horiz-adv-x="322" 
d="M35 470v33l161 144c38 35 57 72 57 111c0 54 -30 81 -89 81c-51 0 -83 -26 -94 -79l-29 8c12 68 53 102 124 102c37 0 67 -10 89 -30c21 -21 32 -48 32 -82c0 -44 -24 -89 -73 -134c-26 -26 -56 -54 -91 -83l-48 -40l1 -3c18 2 45 3 80 3h134v-31h-254z" />
    <glyph glyph-name="uni00B3" unicode="&#xb3;" horiz-adv-x="322" 
d="M204 675v-2c25 -3 46 -12 62 -29c17 -18 25 -41 25 -70c0 -34 -12 -61 -35 -82c-23 -20 -52 -30 -88 -30c-38 0 -70 11 -95 34c-25 22 -38 49 -41 82l32 8c1 -28 11 -50 30 -67s43 -26 74 -26c29 0 51 8 68 24c15 15 23 35 23 58c0 26 -9 47 -27 62s-42 23 -71 23h-32v27
h32c28 0 51 7 68 22s26 34 26 58c0 48 -31 72 -93 72c-51 0 -81 -26 -90 -79l-30 8c11 68 52 102 123 102c40 0 71 -10 92 -29c20 -18 30 -42 30 -71s-9 -52 -26 -69c-16 -16 -35 -25 -57 -26z" />
    <glyph glyph-name="braceleft" unicode="{" horiz-adv-x="346" 
d="M183 597v-146c0 -87 -22 -140 -67 -160c45 -16 67 -69 67 -160v-145c0 -108 40 -162 120 -162v-35c-105 0 -157 69 -157 207v140c1 83 -21 129 -66 138v35c44 9 66 54 66 137v141c0 138 52 207 157 207v-36c-80 0 -120 -54 -120 -161z" />
    <glyph glyph-name="braceright" unicode="}" horiz-adv-x="346" 
d="M164 -14v146c0 90 22 143 66 159c-44 16 -66 70 -66 161v145c0 107 -40 161 -121 161v36c105 0 157 -69 157 -207v-141c-1 -83 21 -128 66 -137v-35c-44 -9 -66 -55 -66 -138v-140c0 -138 -52 -207 -157 -207v35c81 0 121 54 121 162z" />
    <glyph glyph-name="bracketleft" unicode="[" horiz-adv-x="309" 
d="M269 -175v-36h-174v1005h174v-36h-135v-933h135z" />
    <glyph glyph-name="bracketright" unicode="]" horiz-adv-x="309" 
d="M41 758v36h174v-1004h-174v35h134v933h-134z" />
    <glyph glyph-name="braceleft.case" horiz-adv-x="346" 
d="M183 664v-146c0 -87 -22 -140 -66 -160c44 -16 66 -69 66 -160v-145c0 -107 40 -161 121 -161v-36c-105 0 -158 69 -158 206v141c0 83 -22 129 -66 138v35c44 9 66 54 66 137v141c0 138 53 207 158 207v-36c-81 0 -121 -54 -121 -161z" />
    <glyph glyph-name="braceright.case" horiz-adv-x="346" 
d="M163 53v146c0 86 22 139 67 159c-45 16 -67 69 -67 160v145c0 108 -40 162 -120 162v35c105 0 158 -69 158 -206v-141c-1 -84 21 -130 66 -137v-36c-44 -7 -66 -53 -66 -137v-141c0 -137 -53 -206 -158 -206v35c80 0 120 54 120 162z" />
    <glyph glyph-name="bracketleft.case" horiz-adv-x="309" 
d="M269 -108v-36h-174v1004h174v-36h-134v-932h134z" />
    <glyph glyph-name="bracketright.case" horiz-adv-x="309" 
d="M41 824v36h174v-1004h-174v36h134v932h-134z" />
    <glyph glyph-name="parenleft.case" horiz-adv-x="314" 
d="M286 861l15 -34c-136 -50 -204 -206 -204 -468c0 -263 68 -419 204 -468l-15 -35c-151 57 -227 225 -227 503s76 445 227 502z" />
    <glyph glyph-name="parenright.case" horiz-adv-x="314" 
d="M28 -144l-15 35c136 49 204 205 204 468c0 262 -68 418 -204 468l15 34c151 -57 227 -224 227 -502s-76 -446 -227 -503z" />
    <glyph glyph-name="parenleft" unicode="(" horiz-adv-x="314" 
d="M286 793l15 -34c-137 -49 -205 -205 -205 -468s68 -419 205 -468l-15 -34c-151 56 -227 223 -227 502c0 277 76 445 227 502z" />
    <glyph glyph-name="parenright" unicode=")" horiz-adv-x="314" 
d="M28 -211l-15 34c136 49 204 205 204 468s-68 419 -204 468l15 34c151 -57 227 -225 227 -502s-76 -445 -227 -502z" />
    <glyph glyph-name="emdash.case" horiz-adv-x="932" 
d="M830 337h-728v35h728v-35z" />
    <glyph glyph-name="endash.case" 
d="M521 337h-420v35h420v-35z" />
    <glyph glyph-name="hyphen.case" horiz-adv-x="543" 
d="M443 336h-342v35h342v-35z" />
    <glyph glyph-name="softhyphen.case" horiz-adv-x="545" 
d="M435 336h-341v35h341v-35z" />
    <glyph glyph-name="emdash" unicode="&#x2014;" horiz-adv-x="932" 
d="M830 276h-729v34h729v-34z" />
    <glyph glyph-name="endash" unicode="&#x2013;" 
d="M521 276h-420v34h420v-34z" />
    <glyph glyph-name="hyphen" unicode="-" horiz-adv-x="545" 
d="M443 276h-342v34h342v-34z" />
    <glyph glyph-name="uni00AD" unicode="&#xad;" horiz-adv-x="545" 
d="M443 276h-342v34h342v-34z" />
    <glyph glyph-name="guillemotleft.case" horiz-adv-x="557" 
d="M271 583l25 -22l-191 -210v-2l191 -210l-25 -22l-211 233zM471 583l26 -22l-191 -210v-2l191 -210l-26 -22l-210 233z" />
    <glyph glyph-name="guillemotright.case" horiz-adv-x="557" 
d="M286 117l-25 22l191 210v2l-191 210l25 22l211 -233zM86 117l-26 22l191 210v2l-191 210l26 22l210 -233z" />
    <glyph glyph-name="guilsinglleft.case" horiz-adv-x="356" 
d="M271 583l25 -22l-191 -210v-2l191 -210l-25 -22l-211 233z" />
    <glyph glyph-name="guilsinglright.case" horiz-adv-x="356" 
d="M86 117l-26 22l191 210v2l-191 210l26 22l210 -233z" />
    <glyph glyph-name="guillemotleft" unicode="&#xab;" horiz-adv-x="557" 
d="M271 511l25 -22l-191 -210v-2l191 -210l-25 -22l-211 233zM471 511l26 -22l-191 -210v-2l191 -210l-26 -22l-210 233z" />
    <glyph glyph-name="guillemotright" unicode="&#xbb;" horiz-adv-x="557" 
d="M286 45l-25 22l191 210v2l-191 210l25 22l211 -233zM86 45l-26 22l191 210v2l-191 210l26 22l210 -233z" />
    <glyph glyph-name="guilsinglleft" unicode="&#x2039;" horiz-adv-x="356" 
d="M271 511l25 -22l-191 -210v-2l191 -210l-25 -22l-211 233z" />
    <glyph glyph-name="guilsinglright" unicode="&#x203a;" horiz-adv-x="356" 
d="M86 45l-26 22l191 210v2l-191 210l26 22l210 -233z" />
    <glyph glyph-name="quotedblbase" unicode="&#x201e;" horiz-adv-x="323" 
d="M101 -10c-11 -3 -20 -1 -27 5s-11 14 -11 25c0 23 12 34 36 34c25 0 38 -16 38 -47c0 -21 -6 -43 -18 -64c-14 -25 -32 -42 -54 -51l-18 21c36 16 54 42 54 77zM237 -10c-11 -3 -21 -1 -28 5s-11 14 -11 25c0 23 12 34 36 34c26 0 39 -16 39 -47c0 -21 -6 -42 -18 -64
c-15 -25 -33 -42 -55 -51l-18 21c37 17 55 42 55 77z" />
    <glyph glyph-name="quotedblleft" unicode="&#x201c;" horiz-adv-x="333" 
d="M228 614c11 3 21 1 28 -5s11 -14 11 -25c0 -23 -12 -34 -36 -34c-26 0 -39 16 -39 47c0 21 6 43 19 65c14 25 32 42 54 51l18 -22c-35 -15 -54 -40 -55 -77zM83 614c11 3 20 1 27 -5s11 -14 11 -25c0 -23 -12 -34 -36 -34c-25 0 -38 16 -38 47c0 21 6 43 18 65
c14 25 32 42 54 51l18 -22c-36 -16 -54 -42 -54 -77z" />
    <glyph glyph-name="quotedblright" unicode="&#x201d;" horiz-adv-x="333" 
d="M101 648c-11 -3 -20 -1 -27 5s-11 14 -11 25c0 23 12 34 36 34c25 0 38 -16 38 -47c0 -21 -6 -43 -18 -65c-14 -25 -32 -42 -54 -51l-18 22c36 16 54 42 54 77zM247 648c-11 -3 -21 -1 -28 5s-11 14 -11 25c0 23 12 34 36 34c26 0 39 -16 39 -47c0 -21 -6 -42 -18 -65
c-14 -25 -32 -42 -54 -51l-19 22c37 17 55 42 55 77z" />
    <glyph glyph-name="quoteleft" unicode="&#x2018;" horiz-adv-x="187" 
d="M86 614c11 3 21 1 28 -5s11 -14 11 -25c0 -23 -12 -34 -36 -34c-26 0 -39 16 -39 47c0 21 6 42 18 65c14 25 32 42 54 51l19 -22c-37 -17 -55 -42 -55 -77z" />
    <glyph glyph-name="quoteright" unicode="&#x2019;" horiz-adv-x="187" 
d="M101 648c-11 -3 -20 -1 -27 5s-11 14 -11 25c0 23 12 34 36 34c25 0 38 -16 38 -47c0 -21 -6 -43 -18 -65c-14 -25 -32 -42 -54 -51l-18 22c36 16 54 42 54 77z" />
    <glyph glyph-name="quotesinglbase" unicode="&#x201a;" horiz-adv-x="187" 
d="M101 -10c-11 -3 -20 -1 -27 5s-11 15 -11 26c0 22 12 33 36 33c25 0 38 -15 38 -46c0 -21 -6 -43 -18 -65c-14 -25 -32 -42 -54 -51l-18 22c15 6 28 17 39 34c10 15 15 29 15 42z" />
    <glyph glyph-name="asterisk" unicode="*" horiz-adv-x="464" 
d="M258 533l77 -120l-26 -17l-77 116l-77 -116l-26 17l77 120l-126 39l9 28l127 -37v137h32v-137l127 37l9 -28z" />
    <glyph glyph-name="backslash" unicode="\" horiz-adv-x="409" 
d="M384 0h-40l-319 700h40z" />
    <glyph glyph-name="bullet" unicode="&#x2022;" horiz-adv-x="284" 
d="M142 218c-18 0 -33 6 -44 19c-12 12 -18 28 -18 48c0 19 6 35 18 48c11 12 26 18 44 18s33 -6 45 -18c11 -13 17 -29 17 -48c0 -20 -6 -36 -17 -48c-12 -13 -27 -19 -45 -19z" />
    <glyph glyph-name="bullet.case" horiz-adv-x="294" 
d="M147 283c-19 0 -35 7 -48 20c-13 14 -19 31 -19 52s6 38 19 51s29 20 48 20s36 -7 49 -20s19 -30 19 -51s-6 -39 -19 -52s-29 -20 -49 -20z" />
    <glyph glyph-name="colon.case" horiz-adv-x="187" 
d="M94 484c-24 0 -36 12 -36 37c0 24 12 36 36 36s36 -12 36 -36c0 -25 -12 -37 -36 -37zM94 141c-24 0 -36 12 -36 37c0 24 12 36 36 36s36 -12 36 -36c0 -25 -12 -37 -36 -37z" />
    <glyph glyph-name="numbersign.case" horiz-adv-x="616" 
d="M406 212h91l-9 -33h-90l-46 -179h-34l45 179h-198l-46 -179h-35l46 179h-90l9 33h90l71 275h-90l8 34h90l46 179h35l-46 -179h198l46 179h35l-46 -179h90l-9 -34h-90zM244 487l-71 -275h199l71 275h-199z" />
    <glyph glyph-name="periodcentered.case" horiz-adv-x="187" 
d="M94 318c-24 0 -36 12 -36 37c0 24 12 36 36 36s36 -12 36 -36c0 -25 -12 -37 -36 -37z" />
    <glyph glyph-name="semicolon.case" horiz-adv-x="187" 
d="M94 484c-24 0 -36 12 -36 37c0 24 12 36 36 36s36 -12 36 -36c0 -25 -12 -37 -36 -37zM102 137c-11 -3 -21 -1 -28 5s-11 15 -11 26c0 24 12 36 36 36c25 0 38 -16 38 -47c0 -21 -6 -43 -18 -64c-14 -25 -32 -41 -54 -50l-18 17c35 13 54 39 55 77z" />
    <glyph glyph-name="colon" unicode=":" horiz-adv-x="187" 
d="M94 342c-24 0 -36 12 -36 36s12 36 36 36s36 -12 36 -36s-12 -36 -36 -36zM94 -9c-24 0 -36 12 -36 37c0 24 12 36 36 36s36 -12 36 -36c0 -25 -12 -37 -36 -37z" />
    <glyph glyph-name="comma" unicode="," horiz-adv-x="187" 
d="M102 -6c-11 -3 -21 -1 -28 5s-11 15 -11 26c0 24 12 36 36 36c25 0 38 -16 38 -47c0 -21 -6 -43 -18 -64c-14 -25 -32 -41 -54 -50l-18 17c35 13 54 39 55 77z" />
    <glyph glyph-name="ellipsis" unicode="&#x2026;" horiz-adv-x="596" 
d="M87 -10c-20 0 -30 10 -30 30s10 30 30 30s30 -10 30 -30s-10 -30 -30 -30zM294 -10c-19 0 -29 10 -29 30s10 30 29 30c20 0 30 -10 30 -30s-10 -30 -30 -30zM509 -10c-20 0 -30 10 -30 30s10 30 30 30s30 -10 30 -30s-10 -30 -30 -30z" />
    <glyph glyph-name="exclam" unicode="!" horiz-adv-x="218" 
d="M128 700v-556h-38v556h38zM109 -9c-24 0 -36 12 -36 37c0 24 12 36 36 36s36 -12 36 -36c0 -25 -12 -37 -36 -37z" />
    <glyph glyph-name="exclamdown" unicode="&#xa1;" horiz-adv-x="218" 
d="M109 709c24 0 36 -12 36 -37c0 -24 -12 -36 -36 -36s-36 12 -36 36c0 25 12 37 36 37zM90 0v556h38v-556h-38z" />
    <glyph glyph-name="numbersign" unicode="#" horiz-adv-x="616" 
d="M402 159h102l-8 -32h-103l-32 -127h-34l32 127h-182l-32 -127h-34l32 127h-103l9 32h103l62 244h-102l8 32h102l32 125h33l-32 -125h183l32 125h33l-32 -125h105l-8 -32h-105zM247 403l-61 -244h182l62 244h-183z" />
    <glyph glyph-name="period" unicode="." horiz-adv-x="187" 
d="M94 -9c-24 0 -36 12 -36 37c0 24 12 36 36 36s36 -12 36 -36c0 -25 -12 -37 -36 -37z" />
    <glyph glyph-name="middot" unicode="&#xb7;" horiz-adv-x="187" 
d="M94 245c-24 0 -36 12 -36 37c0 24 12 36 36 36s36 -12 36 -36c0 -25 -12 -37 -36 -37z" />
    <glyph glyph-name="question" unicode="?" horiz-adv-x="513" 
d="M222 142v181c76 29 130 59 163 91c32 31 48 69 48 112s-12 77 -37 103c-29 31 -74 47 -134 47c-101 0 -163 -49 -186 -146l-36 10c26 115 101 173 226 173c69 0 121 -19 158 -57c33 -33 49 -76 49 -127c0 -98 -71 -174 -212 -227v-160h-39zM240 -9c-24 0 -36 12 -36 37
c0 24 12 36 36 36s36 -12 36 -36c0 -25 -12 -37 -36 -37z" />
    <glyph glyph-name="questiondown" unicode="&#xbf;" horiz-adv-x="513" 
d="M273 709c24 0 36 -12 36 -37c0 -24 -12 -36 -36 -36s-36 12 -36 36c0 25 12 37 36 37zM292 558v-181c-77 -29 -131 -59 -164 -91c-32 -31 -48 -69 -48 -112s12 -77 37 -103c29 -31 74 -47 134 -47c101 0 163 49 187 146l35 -10c-26 -115 -101 -173 -226 -173
c-69 0 -121 19 -158 57c-33 33 -49 76 -49 127c0 99 71 174 213 227v160h39z" />
    <glyph glyph-name="quotedbl" unicode="&#x22;" horiz-adv-x="230" 
d="M84 700l-3 -219h-32l-2 219h37zM180 700l-2 -219h-32l-3 219h37z" />
    <glyph glyph-name="quotesingle" unicode="'" horiz-adv-x="134" 
d="M84 700l-3 -219h-32l-2 219h37z" />
    <glyph glyph-name="semicolon" unicode=";" horiz-adv-x="187" 
d="M94 342c-24 0 -36 12 -36 36s12 36 36 36s36 -12 36 -36s-12 -36 -36 -36zM102 -6c-11 -3 -21 -1 -28 5s-11 15 -11 26c0 24 12 36 36 36c25 0 38 -16 38 -47c0 -21 -6 -43 -18 -64c-14 -25 -32 -41 -54 -50l-18 17c35 13 54 39 55 77z" />
    <glyph glyph-name="slash" unicode="/" horiz-adv-x="409" 
d="M384 700l-319 -700h-40l320 700h39z" />
    <glyph glyph-name="underscore" unicode="_" horiz-adv-x="671" 
d="M591 -31h-511v31h511v-31z" />
    <glyph glyph-name="space.dnom" horiz-adv-x="103" 
 />
    <glyph glyph-name="uni2003" unicode="&#x2003;" horiz-adv-x="563" 
 />
    <glyph glyph-name="uni2002" unicode="&#x2002;" horiz-adv-x="317" 
 />
    <glyph glyph-name="uni2007" unicode="&#x2007;" 
 />
    <glyph glyph-name="uni200A" unicode="&#x200a;" horiz-adv-x="37" 
 />
    <glyph glyph-name="space.numr" horiz-adv-x="103" 
 />
    <glyph glyph-name="uni2008" unicode="&#x2008;" horiz-adv-x="187" 
 />
    <glyph glyph-name="nonmarkingreturn" unicode=" " horiz-adv-x="227" 
 />
    <glyph glyph-name="space.sups" horiz-adv-x="103" 
 />
    <glyph glyph-name="uni2009" unicode="&#x2009;" horiz-adv-x="114" 
 />
    <glyph glyph-name="uni200B" unicode="&#x200b;" horiz-adv-x="0" 
 />
    <glyph glyph-name="cent" unicode="&#xa2;" horiz-adv-x="521" 
d="M266 55c83 0 140 40 170 121l34 -10c-33 -90 -95 -138 -187 -145v-107h-33v107c-63 3 -114 28 -152 74c-39 47 -58 108 -58 185s19 138 57 185c37 45 88 69 152 73v104h34v-104c99 -6 163 -58 190 -155l-33 -10c-25 87 -81 131 -170 131c-60 0 -107 -20 -141 -59
c-35 -40 -52 -95 -52 -165c0 -71 18 -126 53 -166c34 -39 79 -59 136 -59z" />
    <glyph glyph-name="currency" unicode="&#xa4;" horiz-adv-x="572" 
d="M520 536l-68 -71c41 -47 62 -108 62 -185c0 -71 -18 -130 -54 -177l71 -75l-23 -23l-70 74c-44 -39 -95 -59 -152 -59s-107 20 -152 59l-71 -74l-22 23l72 76c-36 45 -54 104 -54 176c0 77 20 138 61 185l-68 71l23 23l69 -71c42 34 89 51 142 51c55 0 103 -17 142 -50
l69 70zM286 504c-56 0 -102 -20 -137 -61c-36 -42 -54 -96 -54 -163c0 -68 18 -122 54 -163c35 -41 81 -61 137 -61s102 20 137 61c36 41 54 95 54 163c0 67 -18 121 -54 163c-35 41 -81 61 -137 61z" />
    <glyph glyph-name="dollar" unicode="$" horiz-adv-x="420" 
d="M385 138c0 -44 -14 -79 -41 -106c-28 -26 -66 -40 -114 -43v-79h-33v80c-96 5 -150 53 -162 143l34 10c8 -80 57 -120 148 -120c41 0 73 10 96 30s35 48 35 85c0 42 -17 74 -51 96c-17 11 -52 26 -107 43c-45 15 -76 29 -94 44c-33 25 -49 61 -49 108c0 41 13 74 38 99
c26 25 61 39 106 42v80h33v-80c90 -5 142 -50 157 -133l-35 -10c-13 73 -58 110 -135 110c-40 0 -71 -10 -94 -29c-22 -19 -33 -45 -33 -78c0 -37 14 -65 41 -85c17 -13 49 -26 95 -40c51 -16 87 -32 109 -49c37 -28 56 -67 56 -118z" />
    <glyph glyph-name="Euro" unicode="&#x20ac;" horiz-adv-x="554" 
d="M472 144l35 -10c-31 -97 -97 -145 -198 -145c-129 0 -202 76 -219 228h-50v33h47l-1 33l1 25h-47v33h49c15 153 86 229 215 229c115 0 181 -51 198 -152l-34 -10c-18 85 -72 127 -162 127c-107 0 -166 -65 -179 -194h193v-33h-195l-1 -24l1 -34h195v-33h-192
c14 -128 75 -192 183 -192c82 0 136 40 161 119z" />
    <glyph glyph-name="cent.lf" horiz-adv-x="521" 
d="M266 127c83 0 140 40 170 121l34 -10c-33 -89 -95 -137 -187 -145v-107h-33v107c-63 4 -114 29 -152 74c-39 47 -58 108 -58 185s19 139 57 185c37 45 88 70 152 73v104h34v-103c99 -7 163 -59 190 -156l-33 -9c-25 87 -81 131 -170 131c-60 0 -107 -20 -141 -59
c-35 -40 -52 -95 -52 -165c0 -71 18 -126 53 -167c33 -39 79 -59 136 -59z" />
    <glyph glyph-name="currency.lf" horiz-adv-x="572" 
d="M520 601l-68 -72c41 -47 62 -108 62 -185c0 -71 -18 -130 -54 -177l71 -75l-23 -22l-70 73c-43 -39 -93 -58 -152 -58c-57 0 -108 19 -152 58l-71 -73l-22 22l72 76c-36 45 -54 104 -54 176c0 77 20 139 61 185l-68 72l23 22l69 -71c41 34 88 51 142 51
c55 0 103 -17 142 -50l69 70zM286 568c-56 0 -102 -20 -137 -61c-36 -42 -54 -96 -54 -163s18 -122 54 -163c35 -41 81 -61 137 -61s102 20 137 61c36 41 54 96 54 163s-18 121 -54 163c-35 41 -81 61 -137 61z" />
    <glyph glyph-name="dollar.lf" horiz-adv-x="498" 
d="M463 175c0 -58 -17 -103 -52 -136c-35 -32 -82 -49 -143 -50v-79h-33v80c-123 8 -190 71 -200 189l37 9c2 -53 21 -95 58 -124c33 -27 76 -40 129 -40c51 0 92 13 121 38c30 26 45 63 45 110c0 55 -21 96 -64 125c-19 13 -62 31 -129 54c-56 20 -96 40 -119 59
c-41 33 -61 77 -61 132c0 52 16 93 49 123c32 29 77 45 134 47v79h33v-79c112 -9 176 -67 192 -176l-37 -10c-15 101 -74 151 -177 151c-49 0 -87 -11 -114 -34c-28 -23 -42 -56 -42 -99c0 -45 17 -81 52 -107c23 -18 64 -37 122 -56c63 -21 109 -43 136 -64
c42 -35 63 -82 63 -142z" />
    <glyph glyph-name="Euro.lf" horiz-adv-x="617" 
d="M536 178l35 -11c-38 -119 -113 -178 -226 -178c-151 0 -236 94 -253 281h-52v36h49c-1 10 -1 25 -1 46l1 40h-49v36h51c16 189 99 283 248 283c129 0 205 -61 226 -183l-37 -10c-20 105 -82 157 -187 157c-127 0 -197 -82 -212 -247h261v-36h-263l-1 -38l1 -48h263v-36
h-260c16 -163 88 -244 215 -244c95 0 159 51 191 152z" />
    <glyph glyph-name="uni20BA.lf" horiz-adv-x="575" 
d="M495 233l35 -11c-31 -148 -128 -222 -291 -222h-86v277l-73 -28v37l73 27v89l-73 -27v37l73 27v261h37v-247l170 64v-37l-170 -63v-89l170 63v-37l-170 -63v-255h50c143 0 228 66 255 197z" />
    <glyph glyph-name="uni20B9.lf" horiz-adv-x="505" 
d="M480 543h-84c3 -19 4 -34 4 -47c0 -64 -20 -113 -60 -148c-40 -34 -96 -51 -167 -51h-17l210 -297h-46l-209 299v31h60c61 0 109 15 142 44s50 70 50 123c0 15 -2 31 -5 46h-278v35h268c-25 58 -75 87 -151 87h-117v35h400v-35h-168l-1 -2c35 -17 60 -46 75 -85h94v-35z
" />
    <glyph glyph-name="sterling.lf" horiz-adv-x="528" 
d="M488 36v-36h-448v36c53 12 80 61 80 146c0 29 -3 81 -10 156h-71v34h67c-6 63 -9 110 -9 140c0 134 61 201 182 201c115 0 180 -62 194 -185l-35 -10c-14 106 -67 159 -158 159c-97 0 -146 -55 -146 -164c0 -22 3 -69 10 -141h232v-34h-229c7 -61 10 -112 10 -153
c0 -84 -20 -134 -60 -150l1 -1l69 1c53 1 102 1 146 1h175z" />
    <glyph glyph-name="yen.lf" horiz-adv-x="507" 
d="M331 428h135v-36h-154l-39 -69v-17h193v-35h-193v-271h-38v271h-185v35h185v17l-39 69h-146v36h126l-154 272h42l190 -342h1c-1 -1 16 30 52 94l137 248h41z" />
    <glyph glyph-name="uni20BA" unicode="&#x20ba;" horiz-adv-x="494" 
d="M425 188l34 -9c-26 -119 -109 -179 -250 -179h-77v220l-63 -23v33l63 24v58l-63 -24v34l63 24v214h37v-200l143 53v-33l-143 -54v-58l143 53v-33l-143 -54v-199h41c120 0 192 51 215 153z" />
    <glyph glyph-name="uni20B9" unicode="&#x20b9;" horiz-adv-x="445" 
d="M420 434h-94c2 -12 3 -25 3 -39c0 -51 -18 -92 -54 -121c-33 -27 -74 -40 -124 -40h-9l147 -234h-44l-144 236v33h49c42 0 76 10 101 31c28 23 42 55 42 96c0 9 -1 22 -4 38h-209v33h198c-21 40 -59 60 -116 60h-82v33h340v-33h-151l-1 -2c22 -14 38 -33 49 -58h103v-33z
" />
    <glyph glyph-name="sterling" unicode="&#xa3;" horiz-adv-x="461" 
d="M421 35v-35h-386v35c45 9 67 47 67 114c0 21 -3 60 -8 116h-60v34h56c-5 48 -7 84 -7 109c0 108 53 162 158 162c100 0 156 -50 168 -149l-35 -10c-11 83 -55 124 -132 124c-82 0 -123 -43 -123 -130c0 -17 3 -53 8 -106h198v-34h-194c5 -55 8 -93 8 -114
c0 -65 -16 -104 -49 -116l1 -1l58 1h272z" />
    <glyph glyph-name="cent.tf" 
d="M320 127c83 0 140 40 170 121l34 -10c-33 -89 -95 -137 -186 -145v-107h-33v107c-64 4 -115 29 -152 74c-39 47 -58 108 -58 185s19 139 57 185c37 45 88 70 152 73v104h34v-103c100 -7 163 -59 190 -156l-34 -9c-25 87 -81 131 -170 131c-59 0 -106 -20 -140 -59
c-35 -40 -52 -95 -52 -165c0 -71 17 -126 52 -167c34 -39 79 -59 136 -59z" />
    <glyph glyph-name="currency.tf" 
d="M545 601l-68 -72c41 -47 62 -108 62 -185c0 -73 -18 -132 -54 -177l72 -75l-24 -22l-70 73c-43 -39 -93 -58 -152 -58c-58 0 -108 19 -151 58l-71 -73l-23 22l73 76c-37 45 -55 104 -55 176c0 77 21 138 62 185l-69 72l23 22l70 -71c41 34 88 51 141 51
c55 0 102 -17 143 -50l69 70zM311 568c-55 0 -101 -20 -136 -61c-36 -42 -54 -96 -54 -163s18 -122 54 -163c35 -41 81 -61 136 -61c57 0 103 20 138 61c36 41 54 96 54 163s-18 121 -54 163c-35 41 -81 61 -138 61z" />
    <glyph glyph-name="dollar.tf" 
d="M525 175c0 -58 -17 -103 -52 -136c-34 -32 -81 -49 -142 -50v-79h-34v80c-123 8 -190 71 -199 189l36 9c2 -53 21 -95 58 -124c33 -27 76 -40 129 -40c51 0 92 13 121 38c30 26 45 63 45 110c0 55 -21 96 -64 125c-18 13 -61 31 -128 54c-56 21 -96 40 -119 59
c-41 33 -62 77 -62 132c0 52 17 93 50 123c32 29 76 45 133 47v79h34v-79c111 -9 175 -67 191 -176l-36 -10c-16 101 -75 151 -178 151c-49 0 -87 -11 -114 -34c-28 -23 -42 -56 -42 -99c0 -45 18 -80 53 -107c23 -18 63 -37 122 -56c63 -21 108 -43 135 -64
c42 -35 63 -82 63 -142z" />
    <glyph glyph-name="Euro.tf" 
d="M535 178l35 -11c-38 -119 -113 -178 -226 -178c-151 0 -236 94 -253 281h-52v36h49c-1 10 -1 25 -1 46l1 40h-48v36h50c16 189 99 283 248 283c129 0 205 -61 226 -183l-37 -10c-20 105 -82 157 -187 157c-127 0 -197 -82 -212 -247h261v-36h-263l-1 -38l1 -48h263v-36
h-260c16 -163 88 -244 215 -244c95 0 159 51 191 152z" />
    <glyph glyph-name="uni20BA.tf" 
d="M523 233l35 -11c-31 -148 -128 -222 -291 -222h-86v277l-73 -28v37l73 27v89l-73 -27v37l73 27v261h37v-247l170 64v-37l-170 -63v-89l170 63v-37l-170 -63v-255h50c143 0 228 66 255 197z" />
    <glyph glyph-name="uni20B9.tf" 
d="M547 543h-84c3 -13 4 -28 4 -47c0 -64 -20 -113 -60 -148c-40 -34 -96 -51 -167 -51h-16l210 -297h-47l-209 299v31h61c61 0 109 15 142 44s49 70 49 123c0 18 -1 33 -4 46h-279v35h268c-25 58 -75 87 -151 87h-117v35h400v-35h-168l-1 -2c36 -17 61 -46 76 -85h93v-35z
" />
    <glyph glyph-name="sterling.tf" 
d="M535 36v-36h-448v36c54 12 81 61 81 146c0 35 -4 87 -11 156h-70v34h67c-7 71 -10 117 -10 140c0 134 61 201 182 201c115 0 180 -62 195 -185l-35 -10c-14 106 -67 159 -158 159c-98 0 -147 -55 -147 -164c0 -22 3 -69 10 -141h232v-34h-228c7 -73 10 -124 10 -153
c0 -83 -20 -133 -61 -150l1 -1l69 1c53 1 102 1 147 1h174z" />
    <glyph glyph-name="yen.tf" 
d="M390 428h134v-36h-154l-39 -69v-17h193v-35h-193v-271h-38v271h-185v35h185v17l-39 69h-146v36h126l-154 272h42l190 -342h1c-1 -1 16 30 52 94l137 248h41z" />
    <glyph glyph-name="cent.tosf" 
d="M320 55c83 0 140 40 170 121l34 -10c-33 -90 -95 -138 -186 -145v-107h-33v107c-64 3 -115 28 -152 74c-39 46 -58 108 -58 185s19 138 57 185c37 45 88 69 152 73v104h34v-104c99 -6 163 -58 190 -155l-34 -10c-25 87 -81 131 -170 131c-59 0 -106 -20 -140 -59
c-35 -40 -52 -95 -52 -165c0 -71 17 -126 52 -166c34 -39 79 -59 136 -59z" />
    <glyph glyph-name="currency.tosf" 
d="M545 536l-68 -71c41 -47 62 -108 62 -185c0 -73 -18 -132 -54 -177l72 -75l-24 -23l-70 74c-44 -39 -95 -59 -152 -59s-107 20 -151 59l-71 -74l-23 23l73 76c-37 45 -55 104 -55 176c0 75 21 137 62 185l-69 71l23 23l70 -71c42 34 89 51 141 51c55 0 102 -17 143 -50
l69 70zM311 504c-55 0 -101 -20 -136 -61c-36 -42 -54 -96 -54 -163s18 -122 54 -163c35 -41 80 -61 136 -61c57 0 103 20 138 61c36 41 54 95 54 163c0 67 -18 121 -54 163c-35 41 -81 61 -138 61z" />
    <glyph glyph-name="dollar.tosf" 
d="M486 138c0 -44 -14 -79 -41 -106c-27 -26 -65 -40 -113 -43v-79h-33v80c-97 5 -151 53 -162 143l34 10c7 -80 56 -120 147 -120c41 0 73 10 96 30s35 48 35 85c0 42 -17 74 -50 96c-17 11 -53 26 -108 43c-45 15 -76 29 -94 44c-33 25 -49 61 -49 108c0 41 13 74 39 99
c25 25 61 39 106 42v80h33v-80c89 -5 141 -50 156 -133l-34 -10c-14 73 -59 110 -135 110c-40 0 -71 -10 -94 -29s-34 -45 -34 -78c0 -37 14 -65 41 -85c17 -13 49 -26 95 -40c51 -16 87 -32 109 -49c37 -28 56 -67 56 -118z" />
    <glyph glyph-name="Euro.tosf" 
d="M493 144l34 -10c-29 -97 -95 -145 -197 -145c-130 0 -203 76 -220 228h-49v33h47l-1 33c0 11 0 20 1 25h-47v33h49c15 153 86 229 215 229c114 0 180 -51 198 -152l-35 -10c-17 85 -70 127 -161 127c-107 0 -166 -65 -179 -194h193v-33h-195l-1 -24c0 -15 0 -27 1 -34
h195v-33h-192c14 -128 75 -192 183 -192c81 0 134 40 161 119z" />
    <glyph glyph-name="uni20BA.tosf" 
d="M506 188l34 -9c-26 -119 -109 -179 -250 -179h-78v220l-62 -23v33l62 24v58l-62 -24v34l62 24v214h37v-200l143 53v-33l-143 -54v-58l143 53v-33l-143 -54v-199h42c120 0 192 51 215 153z" />
    <glyph glyph-name="uni20B9.tosf" 
d="M511 434h-94c2 -12 3 -25 3 -39c0 -51 -18 -92 -54 -121c-33 -27 -74 -40 -124 -40h-8l147 -234h-44l-145 236v33h50c41 0 75 10 100 31c28 23 42 55 42 96c0 9 -1 22 -4 38h-209v33h198c-21 40 -59 60 -116 60h-82v33h340v-33h-151l-1 -2c22 -14 38 -33 49 -58h103v-33z
" />
    <glyph glyph-name="sterling.tosf" 
d="M506 35v-35h-386v35c45 10 68 48 68 114c0 27 -3 65 -9 116h-59v34h56c-5 55 -8 91 -8 109c0 108 53 162 159 162c99 0 155 -50 167 -149l-34 -10c-13 83 -57 124 -133 124c-81 0 -122 -43 -122 -130c0 -17 3 -53 8 -106h197v-34h-194c6 -49 9 -87 9 -114
c0 -65 -17 -103 -50 -116l1 -1l58 1h272z" />
    <glyph glyph-name="yen.tosf" 
d="M385 341h93v-33h-112l-33 -58h145v-33h-148v-217h-38v217h-147v33h144l-33 58h-111v33h92l-123 219h42l155 -280h1l156 280h40z" />
    <glyph glyph-name="yen" unicode="&#xa5;" horiz-adv-x="434" 
d="M291 341h93v-33h-112l-33 -58h145v-33h-148v-217h-38v217h-147v33h144l-33 58h-111v33h92l-123 219h41l156 -280h1l156 280h40z" />
    <glyph glyph-name="asciitilde" unicode="~" 
d="M495 336l7 -35c-20 -28 -54 -42 -102 -42c-22 0 -51 7 -88 21s-67 21 -89 21c-34 0 -65 -15 -94 -45l-8 34c28 31 62 46 103 46c23 0 52 -7 89 -21s66 -21 88 -21c37 0 69 14 94 42z" />
    <glyph glyph-name="asciitilde.case" 
d="M495 397l7 -35c-21 -28 -55 -42 -102 -42c-22 0 -51 7 -88 21s-67 21 -89 21c-34 0 -65 -15 -94 -45l-8 34c27 31 61 47 103 47c23 0 52 -7 89 -21s66 -21 88 -21c38 0 69 14 94 41z" />
    <glyph glyph-name="divide.case" 
d="M312 486c-24 0 -36 12 -36 36s12 36 36 36s36 -12 36 -36s-12 -36 -36 -36zM482 337h-341v35h341v-35zM312 155c-24 0 -36 12 -36 36s12 36 36 36s36 -12 36 -36s-12 -36 -36 -36z" />
    <glyph glyph-name="equal.case" 
d="M482 414h-341v35h341v-35zM482 260h-341v35h341v-35z" />
    <glyph glyph-name="greater.case" 
d="M492 354v2l-362 207v40l398 -229v-38l-398 -229v40z" />
    <glyph glyph-name="greaterequal.case" 
d="M482 372v2l-374 187v38l408 -205v-42l-408 -206v39zM516 0h-408v35h408v-35z" />
    <glyph glyph-name="less.case" 
d="M494 112l-399 228v39l399 229v-41l-362 -206v-3l362 -206v-40z" />
    <glyph glyph-name="lessequal.case" 
d="M516 146l-409 206v42l409 205v-38l-375 -187v-2l375 -187v-39zM516 35v-35h-409v35h409z" />
    <glyph glyph-name="minus.case" 
d="M482 337h-341v35h341v-35z" />
    <glyph glyph-name="multiply.case" 
d="M335 354l120 -129l-25 -23l-118 127l-119 -126l-24 22l120 129l-120 129l24 22l119 -126l118 125l24 -22z" />
    <glyph glyph-name="notequal.case" 
d="M354 415l-50 -120h178v-34h-192l-56 -135h-37l57 135h-113v34h127l50 120h-177v34h192l57 138h36l-57 -138h113v-34h-128z" />
    <glyph glyph-name="plus.case" 
d="M482 337h-152v-162h-37v162h-152v35h152v161h37v-161h152v-35z" />
    <glyph glyph-name="plusminus.case" 
d="M482 378v-34h-152v-172h-37v172h-152v34h152v171h37v-171h152zM141 35h341v-35h-341v35z" />
    <glyph glyph-name="divide" unicode="&#xf7;" 
d="M312 424c-24 0 -36 12 -36 36s12 36 36 36s36 -12 36 -36s-12 -36 -36 -36zM482 275h-341v35h341v-35zM312 93c-24 0 -36 12 -36 37c0 23 12 35 36 35s36 -12 36 -35c0 -25 -12 -37 -36 -37z" />
    <glyph glyph-name="equal" unicode="=" 
d="M482 353h-341v35h341v-35zM482 199h-341v35h341v-35z" />
    <glyph glyph-name="greater" unicode="&#x3e;" 
d="M492 293v2l-362 206v41l398 -229v-39l-398 -228v40z" />
    <glyph glyph-name="greaterequal" unicode="&#x2265;" 
d="M482 311v2l-374 186v39l408 -205v-42l-408 -206v39zM516 0h-408v35h408v-35z" />
    <glyph glyph-name="less" unicode="&#x3c;" 
d="M494 46l-399 228v39l399 229v-41l-362 -206v-2l362 -207v-40z" />
    <glyph glyph-name="lessequal" unicode="&#x2264;" 
d="M516 85l-409 206v42l409 205v-39l-375 -186v-2l375 -187v-39zM516 35v-35h-409v35h409z" />
    <glyph glyph-name="percent.lf" horiz-adv-x="746" 
d="M169 300c-89 0 -133 68 -133 204s44 204 133 204s134 -68 134 -204s-45 -204 -134 -204zM495 700l-210 -700h-34l209 700h35zM169 331c67 0 100 58 100 173s-33 172 -100 172s-100 -57 -100 -172s33 -173 100 -173zM577 -8c-89 0 -133 68 -133 204c0 137 44 205 133 205
s134 -68 134 -205c0 -136 -45 -204 -134 -204zM577 24c67 0 100 57 100 172s-33 173 -100 173s-100 -58 -100 -173s33 -172 100 -172z" />
    <glyph glyph-name="perthousand.lf" horiz-adv-x="1083" 
d="M169 300c-89 0 -133 68 -133 204s44 204 133 204s134 -68 134 -204s-45 -204 -134 -204zM495 700l-210 -700h-34l209 700h35zM169 331c67 0 100 58 100 173s-33 172 -100 172s-100 -57 -100 -172s33 -173 100 -173zM577 -8c-89 0 -133 68 -133 204c0 137 44 205 133 205
s134 -68 134 -205c0 -136 -45 -204 -134 -204zM914 -8c-89 0 -133 68 -133 204c0 137 44 205 133 205s134 -68 134 -205c0 -136 -45 -204 -134 -204zM577 24c67 0 100 57 100 172s-33 173 -100 173s-100 -58 -100 -173s33 -172 100 -172zM914 24c67 0 100 57 100 172
s-33 173 -100 173s-100 -58 -100 -173s33 -172 100 -172z" />
    <glyph glyph-name="minus" unicode="&#x2212;" 
d="M482 276h-341v34h341v-34z" />
    <glyph glyph-name="multiply" unicode="&#xd7;" 
d="M335 294l120 -128l-25 -23l-118 126l-119 -126l-24 23l120 128l-120 129l24 23l119 -127l118 126l24 -22z" />
    <glyph glyph-name="notequal" unicode="&#x2260;" 
d="M354 353l-50 -119h178v-35h-192l-56 -134h-37l57 134h-113v35h127l50 119h-177v35h192l57 137h36l-57 -137h113v-35h-128z" />
    <glyph glyph-name="percent" unicode="%" horiz-adv-x="647" 
d="M147 215c-74 0 -111 59 -111 178c0 118 37 177 111 177s111 -59 111 -177c0 -119 -37 -178 -111 -178zM429 560l-179 -560h-34l179 560h34zM147 246c54 0 81 49 81 147s-27 147 -81 147s-81 -49 -81 -147s27 -147 81 -147zM500 -7c-74 0 -111 59 -111 178s37 178 111 178
s111 -59 111 -178s-37 -178 -111 -178zM500 24c54 0 81 49 81 147s-27 147 -81 147s-81 -49 -81 -147s27 -147 81 -147z" />
    <glyph glyph-name="perthousand" unicode="&#x2030;" horiz-adv-x="918" 
d="M147 215c-74 0 -111 59 -111 178c0 118 37 177 111 177s111 -59 111 -177c0 -119 -37 -178 -111 -178zM429 560l-179 -560h-34l179 560h34zM147 246c54 0 81 49 81 147s-27 147 -81 147s-81 -49 -81 -147s27 -147 81 -147zM500 -7c-74 0 -111 59 -111 178s37 178 111 178
s111 -59 111 -178s-37 -178 -111 -178zM771 -7c-74 0 -111 59 -111 178s37 178 111 178s111 -59 111 -178s-37 -178 -111 -178zM500 24c54 0 81 49 81 147s-27 147 -81 147s-81 -49 -81 -147s27 -147 81 -147zM771 24c54 0 81 49 81 147s-27 147 -81 147
c-53 0 -80 -49 -80 -147s27 -147 80 -147z" />
    <glyph glyph-name="plus" unicode="+" 
d="M482 276h-152v-163h-37v163h-152v34h152v161h37v-161h152v-34z" />
    <glyph glyph-name="plusminus" unicode="&#xb1;" 
d="M482 332v-35h-152v-161h-37v161h-152v35h152v160h37v-160h152zM141 35h341v-35h-341v35z" />
    <glyph glyph-name="percent.tf" 
d="M156 300c-79 0 -118 68 -118 204s39 204 118 204c78 0 117 -68 117 -204c0 -69 -9 -120 -26 -152c-19 -35 -49 -52 -91 -52zM487 700l-318 -700h-33l318 700h33zM156 333c31 0 53 14 66 43c12 27 18 69 18 128s-6 101 -18 128c-13 29 -35 43 -66 43s-53 -14 -66 -43
c-12 -27 -18 -69 -18 -128s6 -101 18 -128c13 -29 35 -43 66 -43zM467 -8c-78 0 -117 68 -117 204c0 137 39 205 117 205s117 -68 117 -205c0 -136 -39 -204 -117 -204zM467 25c31 0 53 14 66 43c12 27 18 69 18 128s-6 102 -18 129c-13 28 -35 42 -66 42s-53 -14 -66 -42
c-13 -27 -19 -70 -19 -129c0 -114 28 -171 85 -171z" />
    <glyph glyph-name="percent.tosf" 
d="M159 215c-68 0 -102 59 -102 178c0 118 34 177 102 177s102 -59 102 -177c0 -119 -34 -178 -102 -178zM416 560l-179 -560h-33l179 560h33zM159 245c48 0 72 49 72 148c0 51 -5 88 -16 111c-11 24 -30 36 -56 36c-48 0 -72 -49 -72 -147c0 -99 24 -148 72 -148zM465 -7
c-68 0 -102 59 -102 178s34 178 102 178s102 -59 102 -178s-34 -178 -102 -178zM465 24c48 0 72 49 72 147s-24 147 -72 147c-26 0 -45 -12 -56 -36c-11 -23 -16 -60 -16 -111c0 -98 24 -147 72 -147z" />
    <glyph glyph-name="lozenge" unicode="&#x25ca;" horiz-adv-x="709" 
d="M355 714l329 -363l-329 -363l-330 363zM355 38l284 313l-284 314l-285 -314z" />
    <glyph glyph-name="ampersand" unicode="&#x26;" horiz-adv-x="560" 
d="M444 274v-95c0 -127 -65 -190 -196 -190c-62 0 -110 15 -143 45c-32 28 -48 66 -48 114c0 41 12 75 36 101c21 24 49 38 82 43v2c-29 6 -54 19 -74 39c-25 25 -37 58 -37 97c0 43 14 77 43 102c31 25 74 38 130 38c117 0 186 -49 205 -146l-35 -9
c-17 81 -73 121 -168 121c-91 0 -137 -35 -137 -106c0 -37 12 -66 37 -87c26 -22 62 -33 109 -33h283v-35zM407 275h-159c-47 0 -84 -10 -111 -31c-29 -23 -43 -54 -43 -95c0 -84 51 -126 154 -126c106 0 159 52 159 156v96z" />
    <glyph glyph-name="uniF8FF" unicode="&#xf8ff;" horiz-adv-x="778" 
d="M698 127v-45h-44c-134 1 -209 9 -226 24l-40 33l-38 -33c-17 -16 -93 -24 -227 -24h-43v43c0 135 8 210 23 227l34 39l-34 38c-15 19 -23 94 -23 227v44h43c135 -1 212 -8 229 -23l38 -35l37 33c18 17 94 25 227 25h44v-44c-1 -135 -9 -211 -25 -227l-33 -38l36 -42
c14 -19 21 -93 22 -222zM174 480l79 -89l-79 -89c-2 -14 -4 -58 -7 -132c71 1 115 4 132 7l89 79l90 -79c18 -3 62 -6 133 -7c-2 63 -4 106 -7 130l-81 91l81 89c2 14 4 58 7 133c-65 -1 -109 -4 -132 -7l-91 -81l-88 81c-23 3 -68 6 -133 7c3 -75 5 -120 7 -133zM80 2l4 12
c8 -3 13 -4 14 -4c5 0 7 2 7 5c0 2 -3 4 -9 6c-10 3 -15 9 -15 16c0 11 7 17 21 17c7 0 12 -1 15 -3l-3 -12c-5 3 -9 4 -12 4c-5 0 -7 -1 -7 -4c0 -2 4 -4 11 -7c9 -3 14 -9 14 -16c0 -11 -8 -17 -24 -17c-7 0 -12 1 -16 3zM559 13l3 -12c-4 -1 -9 -2 -14 -2
c-19 0 -28 9 -28 26c0 19 10 29 29 29c7 0 11 -1 14 -2l-4 -12c-2 2 -5 3 -9 3c-10 0 -15 -6 -15 -17s5 -16 15 -16c4 0 7 1 9 3zM618 26c0 -18 -9 -27 -27 -27s-27 9 -27 27c0 19 9 28 27 28s27 -9 27 -28zM152 20v-20h-14v20l-17 33h17l7 -23l8 23h16zM187 35l1 -35h-14
v53h18l16 -32v32h13v-53h-15zM253 0h-13v42h-14v11h41v-11h-14v-42zM272 0v53h15v-20h18v20h14v-53h-14v21h-18v-21h-15zM374 53l-17 -53h-16l-17 53h16l9 -39l10 39h15zM379 0v53h15v-53h-15zM417 32h19v-11h-19v-10h21v-11h-36v53h36v-11h-21v-10zM477 35l-7 -35h-15
l-13 53h15l7 -36l6 36h15l6 -36l7 36h14l-13 -53h-16zM681 53l2 -53h-14v40l-11 -39h-10l-11 39l-1 -40h-14l4 53h19l8 -34l9 34h19zM579 26c0 -11 4 -16 12 -16c7 0 11 5 11 16s-4 17 -11 17c-8 0 -12 -6 -12 -17zM513 -1c4 0 6 2 6 6s-2 6 -6 6s-6 -2 -6 -6s2 -6 6 -6z
" />
    <glyph glyph-name="asciicircum" unicode="^" 
d="M313 673l-212 -308l-30 18l222 323h40l220 -323l-31 -18z" />
    <glyph glyph-name="at" unicode="@" horiz-adv-x="708" 
d="M459 158h-2c-19 -54 -59 -81 -120 -81c-41 0 -75 15 -101 46c-28 33 -42 77 -42 132c0 56 12 100 37 133c26 33 61 50 106 50c60 0 98 -23 115 -69h2v54h35v-231c0 -56 20 -84 61 -84c56 0 84 53 84 160c0 101 -26 180 -77 239c-50 57 -118 86 -203 86s-152 -29 -203 -87
c-51 -59 -77 -139 -77 -242c0 -102 24 -182 73 -240c48 -57 114 -86 197 -86c91 0 158 24 202 72l26 -19c-53 -57 -129 -85 -227 -85c-94 0 -168 32 -223 96c-55 65 -82 152 -82 263c0 109 29 197 87 263c57 65 133 97 227 97c95 0 171 -32 228 -97s86 -152 86 -260
c0 -127 -40 -191 -120 -191c-23 0 -42 7 -59 22s-27 35 -30 59zM454 236v39c0 40 -10 72 -31 95s-48 34 -83 34c-73 0 -110 -49 -110 -148c0 -46 10 -82 30 -108c19 -25 46 -38 80 -38c35 0 62 12 82 37c19 22 29 52 32 89z" />
    <glyph glyph-name="bar" unicode="|" horiz-adv-x="155" 
d="M60 775h35v-849h-35v849z" />
    <glyph glyph-name="brokenbar" unicode="&#xa6;" horiz-adv-x="155" 
d="M95 490h-35v285h35v-285zM95 -74h-35v285h35v-285z" />
    <glyph glyph-name="ampersand.case" horiz-adv-x="647" 
d="M513 353v-140c0 -149 -76 -224 -227 -224c-75 0 -132 18 -172 54c-38 33 -57 80 -57 140c0 53 15 97 44 132c26 31 59 49 100 54v3c-36 6 -66 22 -90 49c-29 31 -43 70 -43 119c0 52 17 93 50 124c37 33 90 49 159 49c131 0 208 -59 230 -176l-35 -10
c-17 101 -82 151 -195 151c-114 0 -171 -46 -171 -139c0 -47 15 -83 46 -109c32 -28 78 -42 138 -42h341v-35h-118zM476 353h-186c-61 0 -109 -14 -142 -42c-35 -29 -53 -71 -53 -125c0 -108 64 -162 192 -162c126 0 189 63 189 188v141z" />
    <glyph glyph-name="at.case" horiz-adv-x="708" 
d="M459 243h-2c-19 -55 -59 -82 -120 -82c-41 0 -75 15 -101 46c-28 33 -42 77 -42 132c0 56 12 100 37 133c26 33 61 50 106 50c60 0 98 -23 115 -69h2v54h35v-231c0 -55 20 -83 61 -83c56 0 84 53 84 159c0 101 -26 180 -77 239c-50 57 -118 86 -203 86s-152 -29 -203 -87
c-51 -59 -77 -139 -77 -242c0 -102 24 -182 73 -240c48 -57 114 -86 197 -86c91 0 158 24 202 72l26 -19c-53 -57 -129 -85 -227 -85c-94 0 -168 32 -223 96c-55 65 -82 152 -82 263c0 109 29 197 87 263c57 65 133 97 227 97c95 0 171 -32 228 -97s86 -152 86 -260
c0 -60 -10 -107 -31 -140c-21 -34 -50 -51 -89 -51c-23 0 -43 7 -59 22c-17 15 -27 35 -30 60zM454 320v39c0 40 -10 72 -31 95s-48 34 -83 34c-73 0 -110 -49 -110 -148c0 -46 10 -82 30 -107c19 -25 46 -38 80 -38c35 0 62 12 82 36c19 23 29 52 32 89z" />
    <glyph glyph-name="copyright.case" horiz-adv-x="730" 
d="M365 714c95 0 172 -33 232 -98c61 -67 92 -155 92 -266s-31 -200 -92 -267c-60 -65 -137 -97 -232 -97s-173 32 -233 97c-61 67 -92 156 -92 267s31 199 92 266c60 65 138 98 233 98zM365 683c-88 0 -158 -29 -211 -86c-55 -60 -82 -142 -82 -247s27 -187 82 -247
c53 -58 123 -87 211 -87c87 0 158 29 211 87c55 60 82 142 82 247s-27 187 -82 247c-53 57 -124 86 -211 86zM484 274l31 -10c-29 -70 -81 -105 -157 -105c-51 0 -91 17 -122 51c-31 35 -46 81 -46 140c0 60 16 107 48 142c31 33 71 50 122 50c83 0 134 -38 153 -113l-30 -9
c-4 20 -14 39 -30 56c-23 23 -54 35 -91 35c-42 0 -76 -14 -101 -42s-38 -67 -38 -117c0 -51 12 -90 37 -119c25 -28 58 -42 100 -42c60 0 101 28 124 83z" />
    <glyph glyph-name="uni2116.case" horiz-adv-x="1025" 
d="M679 536c0 53 15 95 44 127c29 31 67 47 112 47s82 -16 111 -48s44 -74 44 -126s-15 -94 -44 -126c-29 -31 -66 -47 -111 -47c-46 0 -83 16 -112 48s-44 74 -44 125zM522 0l-406 646h-1l1 -51c1 -41 1 -80 1 -115v-480h-37v700h42l406 -643h1l-1 51c-1 41 -1 79 -1 114
v478h38v-700h-43zM711 536c0 -43 12 -78 35 -104c23 -25 52 -38 89 -38s66 13 89 39s34 60 34 103s-11 78 -34 105c-23 25 -52 38 -89 38s-67 -13 -90 -39c-23 -27 -34 -61 -34 -104zM982 273h-292v32h292v-32z" />
    <glyph glyph-name="paragraph.case" horiz-adv-x="488" 
d="M371 0v664h-92v-664h-38v362c-67 0 -118 16 -153 47c-32 29 -48 70 -48 122s16 93 48 122c35 31 86 47 153 47h167l1 -700h-38z" />
    <glyph glyph-name="uni2117.case" horiz-adv-x="730" 
d="M365 714c95 0 172 -33 232 -98c61 -67 92 -155 92 -266s-31 -200 -92 -267c-60 -65 -137 -97 -232 -97s-173 32 -233 97c-61 67 -92 156 -92 267s31 199 92 266c60 65 138 98 233 98zM365 683c-88 0 -158 -29 -211 -86c-55 -60 -82 -142 -82 -247s27 -187 82 -247
c53 -58 123 -87 211 -87c87 0 158 29 211 87c55 60 82 142 82 247s-27 187 -82 247c-53 57 -124 86 -211 86zM278 536h96c86 0 129 -37 129 -111c0 -72 -44 -108 -131 -108h-61v-150h-33v369zM311 348h63c64 0 96 26 96 77c0 53 -32 79 -96 79h-63v-156z" />
    <glyph glyph-name="registered.case" horiz-adv-x="730" 
d="M365 714c95 0 172 -33 232 -98c61 -67 92 -155 92 -266s-31 -200 -92 -267c-60 -65 -137 -97 -232 -97s-173 32 -233 97c-61 67 -92 156 -92 267s31 199 92 266c60 65 138 98 233 98zM365 683c-88 0 -158 -29 -211 -86c-55 -60 -82 -142 -82 -247s27 -187 82 -247
c53 -58 123 -87 211 -87c87 0 158 29 211 87c55 60 82 142 82 247s-27 187 -82 247c-53 57 -124 86 -211 86zM457 167l-84 158c-10 -1 -22 -1 -36 -1h-42v-157h-33v369h97c86 0 129 -35 129 -106c0 -55 -27 -89 -82 -100l87 -163h-36zM295 354h65c63 0 94 25 94 75
s-32 75 -95 75h-64v-150z" />
    <glyph glyph-name="copyright" unicode="&#xa9;" horiz-adv-x="730" 
d="M365 630c95 0 172 -33 232 -98c61 -67 92 -155 92 -266s-31 -199 -92 -266c-60 -65 -137 -98 -232 -98s-173 33 -233 98c-61 67 -92 155 -92 266s31 199 92 266c60 65 138 98 233 98zM365 600c-88 0 -158 -29 -211 -87c-55 -59 -82 -141 -82 -246s27 -187 82 -248
c53 -58 123 -87 211 -87c87 0 158 29 211 87c55 61 82 143 82 248s-27 187 -82 247c-53 57 -124 86 -211 86zM484 190l31 -9c-29 -70 -81 -105 -157 -105c-51 0 -91 17 -122 51c-31 35 -46 81 -46 140s16 106 48 141c31 33 72 50 122 50c83 0 134 -38 153 -113l-30 -8
c-4 20 -14 38 -30 55c-23 23 -54 35 -91 35c-42 0 -76 -14 -101 -42s-38 -67 -38 -117c0 -51 12 -90 37 -119c25 -28 58 -42 100 -42c59 0 101 28 124 83z" />
    <glyph glyph-name="dagger" unicode="&#x2020;" 
d="M331 503h179v-35h-179v-162c0 -201 -2 -303 -5 -306h-28c-3 3 -5 105 -5 306v162h-179v35h179v197h38v-197z" />
    <glyph glyph-name="daggerdbl" unicode="&#x2021;" 
d="M331 468v-168h179v-35h-179l-5 -265h-28c-2 2 -4 90 -5 265h-179v35h179v168h-179v35h179v197h38v-197h179v-35h-179z" />
    <glyph glyph-name="degree" unicode="&#xb0;" horiz-adv-x="229" 
d="M115 601c-27 0 -50 9 -67 28c-17 18 -26 42 -26 73c0 30 9 54 26 73s40 28 67 28s50 -9 67 -28s26 -43 26 -73c0 -31 -9 -55 -26 -73c-17 -19 -40 -28 -67 -28zM115 631c42 0 63 24 63 71s-21 71 -63 71c-43 0 -64 -24 -64 -71s21 -71 64 -71z" />
    <glyph glyph-name="uni2116" unicode="&#x2116;" horiz-adv-x="938" 
d="M592 396c0 52 15 94 44 127c29 31 66 47 111 47s83 -16 112 -48s44 -74 44 -126s-15 -94 -45 -126c-29 -31 -66 -47 -111 -47s-82 16 -111 48s-44 74 -44 125zM477 0h-40l-321 506h-1c1 -43 1 -87 1 -133v-373h-36v560h41l320 -502h1l-1 41c-1 32 -1 62 -1 90v371h37
v-560zM624 396c0 -43 11 -78 34 -104c23 -25 52 -38 89 -38s66 13 89 39s34 60 34 103s-11 78 -34 105c-23 25 -52 38 -89 38s-66 -13 -89 -39c-23 -27 -34 -61 -34 -104zM894 133h-292v32h292v-32z" />
    <glyph glyph-name="paragraph" unicode="&#xb6;" horiz-adv-x="488" 
d="M371 -140v664h-92v-664h-38v362c-67 0 -118 16 -153 47c-32 29 -48 70 -48 122s16 93 48 122c35 31 86 47 153 47h167l1 -700h-38z" />
    <glyph glyph-name="uni2117" unicode="&#x2117;" horiz-adv-x="730" 
d="M365 630c95 0 172 -33 232 -98c61 -67 92 -155 92 -266s-31 -199 -92 -266c-60 -65 -137 -98 -232 -98s-173 33 -233 98c-61 67 -92 155 -92 266s31 199 92 266c60 65 138 98 233 98zM365 600c-88 0 -158 -29 -211 -87c-55 -59 -82 -141 -82 -246s27 -187 82 -248
c53 -58 123 -87 211 -87c87 0 158 29 211 87c55 61 82 143 82 248s-27 187 -82 247c-53 57 -124 86 -211 86zM278 452h96c86 0 129 -37 129 -110s-44 -109 -131 -109h-61v-150h-33v369zM311 264h63c64 0 96 26 96 78s-32 78 -96 78h-63v-156z" />
    <glyph glyph-name="registered" unicode="&#xae;" horiz-adv-x="730" 
d="M365 630c95 0 172 -33 232 -98c61 -67 92 -155 92 -266s-31 -199 -92 -266c-60 -65 -137 -98 -232 -98s-173 33 -233 98c-61 67 -92 155 -92 266s31 199 92 266c60 65 138 98 233 98zM365 600c-88 0 -158 -29 -211 -87c-55 -59 -82 -141 -82 -246s27 -187 82 -248
c53 -58 123 -87 211 -87c87 0 158 29 211 87c55 61 82 143 82 248s-27 187 -82 247c-53 57 -124 86 -211 86zM457 83l-84 159c-10 -1 -22 -2 -36 -2h-42v-157h-33v369h97c86 0 129 -35 129 -105c0 -55 -27 -89 -82 -100l87 -164h-36zM295 270h65c63 0 94 25 94 75
c0 51 -32 76 -95 76h-64v-151z" />
    <glyph glyph-name="section" unicode="&#xa7;" 
d="M424 249c69 -23 103 -63 103 -121c0 -93 -69 -139 -208 -139c-61 0 -111 11 -152 32c-47 25 -72 60 -77 107l36 10c5 -77 69 -116 192 -116c114 0 171 36 171 107c0 37 -18 64 -54 81c-23 11 -75 23 -155 38c-55 10 -95 22 -121 35c-43 23 -65 54 -65 95
c0 59 38 97 114 113c-68 21 -102 58 -102 109c0 76 63 114 189 114c128 0 199 -46 214 -139l-34 -10c-14 77 -75 116 -182 116c-100 0 -150 -27 -150 -81c0 -29 16 -51 49 -66c22 -11 66 -22 132 -35c74 -15 124 -29 149 -42c38 -21 57 -52 57 -94c0 -60 -35 -98 -106 -114z
M131 380c0 -33 19 -57 56 -74c24 -11 68 -22 133 -33l48 -10c83 10 125 42 125 96c0 35 -20 62 -61 79c-19 7 -62 17 -129 30l-39 8c-89 -11 -133 -43 -133 -96z" />
    <glyph glyph-name="trademark" unicode="&#x2122;" horiz-adv-x="695" 
d="M271 700v-30h-103v-295h-32v295h-102v30h237zM615 375h-32l2 291h-2l-10 -25c-7 -19 -14 -35 -20 -47l-65 -144h-29l-66 144c-23 50 -34 74 -32 72h-1l1 -49v-242h-31v325h47l74 -168c17 -35 24 -51 22 -49h1c1 1 8 17 22 49l74 168h45v-325z" />
    <glyph glyph-name="acute" unicode="&#xb4;" horiz-adv-x="457" 
d="M204 613h-39l91 149l35 -11z" />
    <glyph glyph-name="breve" unicode="&#x2d8;" horiz-adv-x="457" 
d="M98 719h33c1 -24 10 -43 25 -58c17 -17 40 -26 69 -26s53 9 70 27c15 15 23 34 24 57h33c-1 -32 -13 -59 -36 -80c-24 -23 -54 -35 -91 -35s-67 11 -91 34c-23 21 -35 48 -36 81z" />
    <glyph glyph-name="tilde.cap" horiz-adv-x="457" 
d="M344 842l12 -28c-15 -19 -38 -29 -67 -29c-17 0 -37 6 -61 17s-44 17 -59 17c-25 0 -43 -8 -56 -24l-13 28c19 21 41 31 66 31c17 0 37 -6 62 -17c24 -12 44 -18 61 -18c21 0 40 8 55 23z" />
    <glyph glyph-name="caron" unicode="&#x2c7;" horiz-adv-x="457" 
d="M111 873l22 23l95 -91l96 91l21 -23l-117 -110z" />
    <glyph glyph-name="cedilla" unicode="&#xb8;" horiz-adv-x="457" 
d="M324 -95c0 -50 -32 -75 -95 -75c-29 0 -52 5 -71 16v33c16 -11 38 -16 67 -16c44 0 66 15 66 45c0 31 -32 48 -95 50v47l34 -1v-23c63 -7 94 -32 94 -76z" />
    <glyph glyph-name="circumflex" unicode="&#x2c6;" horiz-adv-x="457" 
d="M344 607l-21 -23l-95 90l-95 -89l-22 22l117 110z" />
    <glyph glyph-name="dieresis" unicode="&#xa8;" horiz-adv-x="457" 
d="M148 782c-20 0 -30 11 -30 33c0 21 10 32 30 32s30 -11 30 -32c0 -22 -10 -33 -30 -33zM307 782c-20 0 -30 11 -30 33c0 21 10 32 30 32c21 0 31 -11 31 -32c0 -22 -10 -33 -31 -33z" />
    <glyph glyph-name="dotaccent" unicode="&#x2d9;" horiz-adv-x="457" 
d="M228 782c-20 0 -30 11 -30 33c0 21 10 32 30 32c21 0 31 -11 31 -32c0 -22 -10 -33 -31 -33z" />
    <glyph glyph-name="grave" unicode="`" horiz-adv-x="457" 
d="M201 744l90 -149h-38l-88 138z" />
    <glyph glyph-name="hungarumlaut" unicode="&#x2dd;" horiz-adv-x="457" 
d="M171 754h-39l91 149l35 -11zM313 754h-39l91 149l35 -11z" />
    <glyph glyph-name="caron.l" horiz-adv-x="457" 
d="M228 700h34c0 -68 -13 -133 -38 -196h-32c24 61 36 126 36 196z" />
    <glyph glyph-name="overscore" unicode="&#xaf;" horiz-adv-x="457" 
d="M354 785h-251v34h251v-34z" />
    <glyph glyph-name="ogonek" unicode="&#x2db;" horiz-adv-x="457" 
d="M253 18l18 -18c-61 -6 -92 -31 -92 -76c0 -40 22 -60 66 -60c29 0 51 6 67 17v-35c-18 -11 -41 -16 -69 -16c-31 0 -55 9 -73 26c-17 17 -25 38 -25 65c0 58 36 90 108 97z" />
    <glyph glyph-name="ring" unicode="&#x2da;" horiz-adv-x="457" 
d="M228 744c-23 0 -43 8 -58 23s-22 34 -22 57s7 42 22 57s34 23 58 23s43 -8 58 -23s22 -34 22 -57s-7 -42 -22 -57s-34 -23 -58 -23zM228 772c34 0 51 17 51 52s-17 52 -51 52c-33 0 -50 -17 -50 -52s17 -52 50 -52z" />
    <glyph glyph-name="tilde" unicode="&#x2dc;" horiz-adv-x="457" 
d="M330 680l11 -30c-13 -18 -32 -27 -57 -27c-16 0 -35 6 -57 17c-23 11 -41 17 -55 17c-21 0 -36 -8 -47 -24l-12 29c16 20 35 30 58 30c16 0 35 -6 57 -17c22 -12 40 -18 55 -18c18 0 34 8 47 23z" />
    <glyph glyph-name="uni0326" unicode="&#x326;" horiz-adv-x="0" 
d="M236 -91c-10 -3 -19 -2 -27 4c-9 5 -13 13 -13 23c0 21 12 32 35 32s35 -14 35 -43c0 -47 -22 -79 -65 -98l-14 18c30 12 46 33 49 64z" />
    <glyph glyph-name="Itilde" unicode="&#x128;" horiz-adv-x="198" 
d="M80 0v700h38v-700h-38zM202 820l11 -30c-13 -18 -32 -27 -57 -27c-16 0 -35 6 -57 17c-23 11 -41 17 -55 17c-21 0 -36 -8 -47 -24l-12 29c16 20 35 30 58 30c16 0 35 -6 57 -17c22 -12 40 -18 55 -18c18 0 34 8 47 23z" />
    <glyph glyph-name="Utilde" unicode="&#x168;" horiz-adv-x="616" 
d="M547 700v-447c0 -176 -80 -264 -239 -264s-239 88 -239 264v447h38v-450c0 -150 67 -225 201 -225s201 75 201 225v450h38zM411 820l11 -30c-13 -18 -32 -27 -57 -27c-16 0 -35 6 -57 17c-23 11 -41 17 -55 17c-21 0 -36 -8 -47 -24l-12 29c16 20 35 30 58 30
c16 0 35 -6 57 -17c22 -12 40 -18 55 -18c18 0 34 8 47 23z" />
    <glyph glyph-name="utilde" unicode="&#x169;" horiz-adv-x="537" 
d="M467 560v-357c0 -143 -67 -214 -200 -214c-132 0 -198 71 -198 214v357h37v-360c0 -117 54 -176 162 -176c109 0 163 59 163 176v360h36zM371 680l11 -30c-13 -18 -32 -27 -57 -27c-16 0 -35 6 -57 17c-23 11 -41 17 -55 17c-21 0 -36 -8 -47 -24l-12 29
c16 20 35 30 58 30c16 0 35 -6 57 -17c22 -12 40 -18 55 -18c18 0 34 8 47 23z" />
    <glyph glyph-name="Ohorn" unicode="&#x1a0;" horiz-adv-x="708" 
d="M157 109c49 -56 115 -84 197 -84s148 28 198 84c52 58 78 139 78 242s-26 184 -78 242c-50 55 -116 83 -198 83s-148 -28 -197 -83c-52 -59 -78 -139 -78 -242s26 -183 78 -242zM617 566c34 -59 51 -130 51 -215c0 -112 -30 -201 -89 -267c-57 -63 -132 -95 -225 -95
s-168 32 -225 95c-59 66 -89 155 -89 267s30 201 89 267c57 63 132 95 225 95s168 -32 225 -95c6 -7 12 -15 18 -22c43 3 64 37 64 103h33c0 -79 -26 -123 -77 -133z" />
    <glyph glyph-name="ohorn" unicode="&#x1a1;" horiz-adv-x="588" 
d="M139 91c39 -45 91 -67 155 -67s116 22 155 67c41 47 61 110 61 189s-20 142 -61 188c-39 45 -91 67 -155 67c-65 0 -116 -22 -155 -67c-41 -46 -61 -109 -61 -188s20 -142 61 -189zM519 427c19 -42 29 -91 29 -147c0 -89 -24 -160 -72 -213c-47 -52 -107 -78 -182 -78
s-135 26 -182 78c-48 53 -72 124 -72 213s24 160 72 213c47 51 107 77 182 77s135 -26 182 -77c9 -9 16 -19 23 -30c27 13 40 45 40 97h33c0 -72 -18 -116 -53 -133z" />
    <glyph glyph-name="Uhorn" unicode="&#x1af;" horiz-adv-x="616" 
d="M547 565v-312c0 -176 -80 -264 -239 -264s-239 88 -239 264v447h38v-450c0 -150 67 -225 201 -225s201 75 201 225v450h38v-101c33 9 49 42 49 100h33c0 -81 -27 -125 -82 -134z" />
    <glyph glyph-name="uhorn" unicode="&#x1b0;" horiz-adv-x="537" 
d="M467 426v-223c0 -143 -67 -214 -200 -214c-132 0 -198 71 -198 214v357h37v-360c0 -117 54 -176 162 -176c109 0 163 59 163 176v360h36v-101c33 9 50 42 50 101h33c0 -81 -28 -126 -83 -134z" />
    <glyph glyph-name="uni1EA0" unicode="&#x1ea0;" horiz-adv-x="632" 
d="M484 216h-336l-83 -216h-40l271 700h41l270 -700h-40zM470 251l-81 212c-52 134 -76 199 -72 195h-2c1 1 -23 -64 -72 -194l-82 -213h309zM316 -156c-24 0 -36 12 -36 37c0 24 12 36 36 36s36 -12 36 -36c0 -25 -12 -37 -36 -37z" />
    <glyph glyph-name="uni1EA1" unicode="&#x1ea1;" horiz-adv-x="518" 
d="M389 171h-261l-64 -171h-39l213 560h42l213 -560h-39zM376 205l-56 150c-40 103 -60 160 -60 169h-2c0 -5 -21 -64 -63 -175l-54 -144h235zM259 -156c-24 0 -36 12 -36 37c0 24 12 36 36 36s36 -12 36 -36c0 -25 -12 -37 -36 -37z" />
    <glyph glyph-name="uni1EA2" unicode="&#x1ea2;" horiz-adv-x="632" 
d="M484 216h-336l-83 -216h-40l271 700h41l270 -700h-40zM470 251l-81 212c-52 134 -76 199 -72 195h-2c1 1 -23 -64 -72 -194l-82 -213h309zM368 875c26 -31 20 -62 -18 -94c-18 -15 -36 -24 -55 -26l-14 27c16 1 32 9 48 22c22 19 27 36 14 51c-13 16 -39 8 -78 -24
l-18 27c53 45 93 50 121 17z" />
    <glyph glyph-name="uni1EA3" unicode="&#x1ea3;" horiz-adv-x="518" 
d="M389 171h-261l-64 -171h-39l213 560h42l213 -560h-39zM376 205l-56 150c-40 103 -60 160 -60 169h-2c0 -5 -21 -64 -63 -175l-54 -144h235zM311 735c26 -31 20 -62 -18 -94c-18 -15 -36 -24 -55 -26l-14 27c16 1 32 9 48 22c22 19 27 36 14 51c-13 16 -39 8 -78 -24
l-18 27c53 45 93 50 121 17z" />
    <glyph glyph-name="uni1EA4" unicode="&#x1ea4;" horiz-adv-x="632" 
d="M484 216h-336l-83 -216h-40l271 700h41l270 -700h-40zM470 251l-81 212c-52 134 -76 199 -72 195h-2c1 1 -23 -64 -72 -194l-82 -213h309zM433 745l-21 -23l-95 90l-95 -89l-22 22l117 110zM411 828h-39l91 149l35 -11z" />
    <glyph glyph-name="uni1EA5" unicode="&#x1ea5;" horiz-adv-x="518" 
d="M389 171h-261l-64 -171h-39l213 560h42l213 -560h-39zM376 205l-56 150c-40 103 -60 160 -60 169h-2c0 -5 -21 -64 -63 -175l-54 -144h235zM376 607l-21 -23l-95 90l-95 -89l-22 22l117 110zM374 686h-39l91 149l35 -11z" />
    <glyph glyph-name="uni1EA6" unicode="&#x1ea6;" horiz-adv-x="632" 
d="M484 216h-336l-83 -216h-40l271 700h41l270 -700h-40zM470 251l-81 212c-52 134 -76 199 -72 195h-2c1 1 -23 -64 -72 -194l-82 -213h309zM433 745l-21 -23l-95 90l-95 -89l-22 22l117 110zM359 982l90 -149h-38l-88 138z" />
    <glyph glyph-name="uni1EA7" unicode="&#x1ea7;" horiz-adv-x="518" 
d="M389 171h-261l-64 -171h-39l213 560h42l213 -560h-39zM376 205l-56 150c-40 103 -60 160 -60 169h-2c0 -5 -21 -64 -63 -175l-54 -144h235zM376 607l-21 -23l-95 90l-95 -89l-22 22l117 110zM306 859l90 -149h-38l-88 138z" />
    <glyph glyph-name="uni1EA8" unicode="&#x1ea8;" horiz-adv-x="632" 
d="M484 216h-336l-83 -216h-40l271 700h41l270 -700h-40zM470 251l-81 212c-52 134 -76 199 -72 195h-2c1 1 -23 -64 -72 -194l-82 -213h309zM433 745l-21 -23l-95 90l-95 -89l-22 22l117 110zM478 936c26 -31 20 -62 -18 -94c-18 -15 -36 -24 -55 -26l-14 27
c16 1 32 9 48 22c22 19 27 36 14 51c-13 16 -39 8 -78 -24l-18 27c53 45 93 50 121 17z" />
    <glyph glyph-name="uni1EA9" unicode="&#x1ea9;" horiz-adv-x="518" 
d="M389 171h-261l-64 -171h-39l213 560h42l213 -560h-39zM376 205l-56 150c-40 103 -60 160 -60 169h-2c0 -5 -21 -64 -63 -175l-54 -144h235zM376 607l-21 -23l-95 90l-95 -89l-22 22l117 110zM429 809c26 -31 20 -62 -18 -94c-18 -15 -36 -24 -55 -26l-14 27
c16 1 32 9 48 22c22 19 27 36 14 51c-13 16 -39 8 -78 -24l-18 27c53 45 93 50 121 17z" />
    <glyph glyph-name="uni1EAA" unicode="&#x1eaa;" horiz-adv-x="632" 
d="M484 216h-336l-83 -216h-40l271 700h41l270 -700h-40zM470 251l-81 212c-52 134 -76 199 -72 195h-2c1 1 -23 -64 -72 -194l-82 -213h309zM433 747l-21 -23l-95 90l-95 -89l-22 22l117 110zM439 921l11 -30c-13 -18 -32 -27 -57 -27c-16 0 -35 6 -57 17
c-23 11 -41 17 -55 17c-21 0 -36 -8 -47 -24l-12 29c16 20 35 30 58 30c16 0 35 -6 57 -17c22 -12 40 -18 55 -18c18 0 34 8 47 23z" />
    <glyph glyph-name="uni1EAB" unicode="&#x1eab;" horiz-adv-x="518" 
d="M389 171h-261l-64 -171h-39l213 560h42l213 -560h-39zM376 205l-56 150c-40 103 -60 160 -60 169h-2c0 -5 -21 -64 -63 -175l-54 -144h235zM376 607l-21 -23l-95 90l-95 -89l-22 22l117 110zM362 791l11 -30c-13 -18 -32 -27 -57 -27c-16 0 -35 6 -57 17
c-23 11 -41 17 -55 17c-21 0 -36 -8 -47 -24l-12 29c16 20 35 30 58 30c16 0 35 -6 57 -17c22 -12 40 -18 55 -18c18 0 34 8 47 23z" />
    <glyph glyph-name="uni1EAC" unicode="&#x1eac;" horiz-adv-x="632" 
d="M484 216h-336l-83 -216h-40l271 700h41l270 -700h-40zM470 251l-81 212c-52 134 -76 199 -72 195h-2c1 1 -23 -64 -72 -194l-82 -213h309zM433 747l-21 -23l-95 90l-95 -89l-22 22l117 110zM316 -156c-24 0 -36 12 -36 37c0 24 12 36 36 36s36 -12 36 -36
c0 -25 -12 -37 -36 -37z" />
    <glyph glyph-name="uni1EAD" unicode="&#x1ead;" horiz-adv-x="518" 
d="M389 171h-261l-64 -171h-39l213 560h42l213 -560h-39zM376 205l-56 150c-40 103 -60 160 -60 169h-2c0 -5 -21 -64 -63 -175l-54 -144h235zM376 607l-21 -23l-95 90l-95 -89l-22 22l117 110zM259 -156c-24 0 -36 12 -36 37c0 24 12 36 36 36s36 -12 36 -36
c0 -25 -12 -37 -36 -37z" />
    <glyph glyph-name="uni1EAE" unicode="&#x1eae;" horiz-adv-x="632" 
d="M484 216h-336l-83 -216h-40l271 700h41l270 -700h-40zM470 251l-81 212c-52 134 -76 199 -72 195h-2c1 1 -23 -64 -72 -194l-82 -213h309zM189 861h33c1 -24 10 -43 25 -58c17 -17 40 -26 69 -26s53 9 70 27c15 15 23 34 24 57h33c-1 -32 -13 -59 -36 -80
c-24 -23 -54 -35 -91 -35s-67 11 -91 34c-23 21 -35 48 -36 81zM329 866h-39l91 149l35 -11z" />
    <glyph glyph-name="uni1EAF" unicode="&#x1eaf;" horiz-adv-x="518" 
d="M389 171h-261l-64 -171h-39l213 560h42l213 -560h-39zM376 205l-56 150c-40 103 -60 160 -60 169h-2c0 -5 -21 -64 -63 -175l-54 -144h235zM132 719h33c1 -24 10 -43 25 -58c17 -17 40 -26 69 -26s53 9 70 27c15 15 23 34 24 57h33c-1 -32 -13 -59 -36 -80
c-24 -23 -54 -35 -91 -35s-67 11 -91 34c-23 21 -35 48 -36 81zM256 756h-39l91 149l35 -11z" />
    <glyph glyph-name="uni1EB0" unicode="&#x1eb0;" horiz-adv-x="632" 
d="M484 216h-336l-83 -216h-40l271 700h41l270 -700h-40zM470 251l-81 212c-52 134 -76 199 -72 195h-2c1 1 -23 -64 -72 -194l-82 -213h309zM189 861h33c1 -24 10 -43 25 -58c17 -17 40 -26 69 -26s53 9 70 27c15 15 23 34 24 57h33c-1 -32 -13 -59 -36 -80
c-24 -23 -54 -35 -91 -35s-67 11 -91 34c-23 21 -35 48 -36 81zM257 1014l90 -149h-38l-88 138z" />
    <glyph glyph-name="uni1EB1" unicode="&#x1eb1;" horiz-adv-x="518" 
d="M389 171h-261l-64 -171h-39l213 560h42l213 -560h-39zM376 205l-56 150c-40 103 -60 160 -60 169h-2c0 -5 -21 -64 -63 -175l-54 -144h235zM132 719h33c1 -24 10 -43 25 -58c17 -17 40 -26 69 -26s53 9 70 27c15 15 23 34 24 57h33c-1 -32 -13 -59 -36 -80
c-24 -23 -54 -35 -91 -35s-67 11 -91 34c-23 21 -35 48 -36 81zM211 905l90 -149h-38l-88 138z" />
    <glyph glyph-name="uni1EB2" unicode="&#x1eb2;" horiz-adv-x="632" 
d="M484 216h-336l-83 -216h-40l271 700h41l270 -700h-40zM470 251l-81 212c-52 134 -76 199 -72 195h-2c1 1 -23 -64 -72 -194l-82 -213h309zM188 857h33c1 -24 10 -43 25 -58c17 -17 40 -26 69 -26s53 9 70 27c15 15 23 34 24 57h33c-1 -32 -13 -59 -36 -80
c-24 -23 -54 -35 -91 -35s-67 11 -91 34c-23 21 -35 48 -36 81zM375 951c26 -23 20 -46 -18 -70c-18 -12 -36 -18 -55 -20l-14 21c16 1 32 6 48 16c22 14 27 27 14 38c-13 12 -39 6 -78 -18l-18 21c53 33 93 37 121 12z" />
    <glyph glyph-name="uni1EB3" unicode="&#x1eb3;" horiz-adv-x="518" 
d="M389 171h-261l-64 -171h-39l213 560h42l213 -560h-39zM376 205l-56 150c-40 103 -60 160 -60 169h-2c0 -5 -21 -64 -63 -175l-54 -144h235zM132 719h33c1 -24 10 -43 25 -58c17 -17 40 -26 69 -26s53 9 70 27c15 15 23 34 24 57h33c-1 -32 -13 -59 -36 -80
c-24 -23 -54 -35 -91 -35s-67 11 -91 34c-23 21 -35 48 -36 81zM311 875c26 -31 20 -62 -18 -94c-18 -15 -36 -24 -55 -26l-14 27c16 1 32 9 48 22c22 19 27 36 14 51c-13 16 -39 8 -78 -24l-18 27c53 45 93 50 121 17z" />
    <glyph glyph-name="uni1EB4" unicode="&#x1eb4;" horiz-adv-x="632" 
d="M484 216h-336l-83 -216h-40l271 700h41l270 -700h-40zM470 251l-81 212c-52 134 -76 199 -72 195h-2c1 1 -23 -64 -72 -194l-82 -213h309zM189 861h33c1 -24 10 -43 25 -58c17 -17 40 -26 69 -26s53 9 70 27c15 15 23 34 24 57h33c-1 -32 -13 -59 -36 -80
c-24 -23 -54 -35 -91 -35s-67 11 -91 34c-23 21 -35 48 -36 81zM415 950l11 -30c-13 -18 -32 -27 -57 -27c-16 0 -35 6 -57 17c-23 11 -41 17 -55 17c-21 0 -36 -8 -47 -24l-12 29c16 20 35 30 58 30c16 0 35 -6 57 -17c22 -12 40 -18 55 -18c18 0 34 8 47 23z" />
    <glyph glyph-name="uni1EB5" unicode="&#x1eb5;" horiz-adv-x="518" 
d="M389 171h-261l-64 -171h-39l213 560h42l213 -560h-39zM376 205l-56 150c-40 103 -60 160 -60 169h-2c0 -5 -21 -64 -63 -175l-54 -144h235zM132 719h33c1 -24 10 -43 25 -58c17 -17 40 -26 69 -26s53 9 70 27c15 15 23 34 24 57h33c-1 -32 -13 -59 -36 -80
c-24 -23 -54 -35 -91 -35s-67 11 -91 34c-23 21 -35 48 -36 81zM362 793l11 -30c-13 -18 -32 -27 -57 -27c-16 0 -35 6 -57 17c-23 11 -41 17 -55 17c-21 0 -36 -8 -47 -24l-12 29c16 20 35 30 58 30c16 0 35 -6 57 -17c22 -12 40 -18 55 -18c18 0 34 8 47 23z" />
    <glyph glyph-name="uni1EB6" unicode="&#x1eb6;" horiz-adv-x="632" 
d="M484 216h-336l-83 -216h-40l271 700h41l270 -700h-40zM470 251l-81 212c-52 134 -76 199 -72 195h-2c1 1 -23 -64 -72 -194l-82 -213h309zM189 859h33c1 -24 10 -43 25 -58c17 -17 40 -26 69 -26s53 9 70 27c15 15 23 34 24 57h33c-1 -32 -13 -59 -36 -80
c-24 -23 -54 -35 -91 -35s-67 11 -91 34c-23 21 -35 48 -36 81zM316 -156c-24 0 -36 12 -36 37c0 24 12 36 36 36s36 -12 36 -36c0 -25 -12 -37 -36 -37z" />
    <glyph glyph-name="uni1EB7" unicode="&#x1eb7;" horiz-adv-x="518" 
d="M389 171h-261l-64 -171h-39l213 560h42l213 -560h-39zM376 205l-56 150c-40 103 -60 160 -60 169h-2c0 -5 -21 -64 -63 -175l-54 -144h235zM132 719h33c1 -24 10 -43 25 -58c17 -17 40 -26 69 -26s53 9 70 27c15 15 23 34 24 57h33c-1 -32 -13 -59 -36 -80
c-24 -23 -54 -35 -91 -35s-67 11 -91 34c-23 21 -35 48 -36 81zM259 -156c-24 0 -36 12 -36 37c0 24 12 36 36 36s36 -12 36 -36c0 -25 -12 -37 -36 -37z" />
    <glyph glyph-name="uni1EB8" unicode="&#x1eb8;" horiz-adv-x="531" 
d="M80 0v700h403v-36h-365v-276h292v-36h-292v-316h365v-36h-403zM282 -156c-24 0 -36 12 -36 37c0 24 12 36 36 36s36 -12 36 -36c0 -25 -12 -37 -36 -37z" />
    <glyph glyph-name="uni1EB9" unicode="&#x1eb9;" horiz-adv-x="464" 
d="M80 0v560h332v-35h-295v-215h234v-35h-234v-240h299v-35h-336zM248 -156c-24 0 -36 12 -36 37c0 24 12 36 36 36s36 -12 36 -36c0 -25 -12 -37 -36 -37z" />
    <glyph glyph-name="uni1EBA" unicode="&#x1eba;" horiz-adv-x="531" 
d="M80 0v700h403v-36h-365v-276h292v-36h-292v-316h365v-36h-403zM334 875c26 -31 20 -62 -18 -94c-18 -15 -36 -24 -55 -26l-14 27c16 1 32 9 48 22c22 19 27 36 14 51c-13 16 -39 8 -78 -24l-18 27c53 45 93 50 121 17z" />
    <glyph glyph-name="uni1EBB" unicode="&#x1ebb;" horiz-adv-x="464" 
d="M80 0v560h332v-35h-295v-215h234v-35h-234v-240h299v-35h-336zM300 735c26 -31 20 -62 -18 -94c-18 -15 -36 -24 -55 -26l-14 27c16 1 32 9 48 22c22 19 27 36 14 51c-13 16 -39 8 -78 -24l-18 27c53 45 93 50 121 17z" />
    <glyph glyph-name="uni1EBC" unicode="&#x1ebc;" horiz-adv-x="531" 
d="M80 0v700h403v-36h-365v-276h292v-36h-292v-316h365v-36h-403zM385 820l11 -30c-13 -18 -32 -27 -57 -27c-16 0 -35 6 -57 17c-23 11 -41 17 -55 17c-21 0 -36 -8 -47 -24l-12 29c16 20 35 30 58 30c16 0 35 -6 57 -17c22 -12 40 -18 55 -18c18 0 34 8 47 23z" />
    <glyph glyph-name="uni1EBD" unicode="&#x1ebd;" horiz-adv-x="464" 
d="M80 0v560h332v-35h-295v-215h234v-35h-234v-240h299v-35h-336zM351 680l11 -30c-13 -18 -32 -27 -57 -27c-16 0 -35 6 -57 17c-23 11 -41 17 -55 17c-21 0 -36 -8 -47 -24l-12 29c16 20 35 30 58 30c16 0 35 -6 57 -17c22 -12 40 -18 55 -18c18 0 34 8 47 23z" />
    <glyph glyph-name="uni1EBE" unicode="&#x1ebe;" horiz-adv-x="531" 
d="M80 0v700h403v-36h-365v-276h292v-36h-292v-316h365v-36h-403zM398 745l-21 -23l-95 90l-95 -89l-22 22l117 110zM376 828h-39l91 149l35 -11z" />
    <glyph glyph-name="uni1EBF" unicode="&#x1ebf;" horiz-adv-x="464" 
d="M80 0v560h332v-35h-295v-215h234v-35h-234v-240h299v-35h-336zM365 607l-21 -23l-95 90l-95 -89l-22 22l117 110zM369 695h-39l91 149l35 -11z" />
    <glyph glyph-name="uni1EC0" unicode="&#x1ec0;" horiz-adv-x="531" 
d="M80 0v700h403v-36h-365v-276h292v-36h-292v-316h365v-36h-403zM398 745l-21 -23l-95 90l-95 -89l-22 22l117 110zM324 982l90 -149h-38l-88 138z" />
    <glyph glyph-name="uni1EC1" unicode="&#x1ec1;" horiz-adv-x="464" 
d="M80 0v560h332v-35h-295v-215h234v-35h-234v-240h299v-35h-336zM365 607l-21 -23l-95 90l-95 -89l-22 22l117 110zM290 854l90 -149h-38l-88 138z" />
    <glyph glyph-name="uni1EC2" unicode="&#x1ec2;" horiz-adv-x="531" 
d="M80 0v700h403v-36h-365v-276h292v-36h-292v-316h365v-36h-403zM398 745l-21 -23l-95 90l-95 -89l-22 22l117 110zM443 936c26 -31 20 -62 -18 -94c-18 -15 -36 -24 -55 -26l-14 27c16 1 32 9 48 22c22 19 27 36 14 51c-13 16 -39 8 -78 -24l-18 27c53 45 93 50 121 17z
" />
    <glyph glyph-name="uni1EC3" unicode="&#x1ec3;" horiz-adv-x="464" 
d="M80 0v560h332v-35h-295v-215h234v-35h-234v-240h299v-35h-336zM365 607l-21 -23l-95 90l-95 -89l-22 22l117 110zM409 812c26 -31 20 -62 -18 -94c-18 -15 -36 -24 -55 -26l-14 27c16 1 32 9 48 22c22 19 27 36 14 51c-13 16 -39 8 -78 -24l-18 27c53 45 93 50 121 17z
" />
    <glyph glyph-name="uni1EC4" unicode="&#x1ec4;" horiz-adv-x="531" 
d="M80 0v700h403v-36h-365v-276h292v-36h-292v-316h365v-36h-403zM398 747l-21 -23l-95 90l-95 -89l-22 22l117 110zM404 921l11 -30c-13 -18 -32 -27 -57 -27c-16 0 -35 6 -57 17c-23 11 -41 17 -55 17c-21 0 -36 -8 -47 -24l-12 29c16 20 35 30 58 30c16 0 35 -6 57 -17
c22 -12 40 -18 55 -18c18 0 34 8 47 23z" />
    <glyph glyph-name="uni1EC5" unicode="&#x1ec5;" horiz-adv-x="464" 
d="M80 0v560h332v-35h-295v-215h234v-35h-234v-240h299v-35h-336zM365 607l-21 -23l-95 90l-95 -89l-22 22l117 110zM351 791l11 -30c-13 -18 -32 -27 -57 -27c-16 0 -35 6 -57 17c-23 11 -41 17 -55 17c-21 0 -36 -8 -47 -24l-12 29c16 20 35 30 58 30c16 0 35 -6 57 -17
c22 -12 40 -18 55 -18c18 0 34 8 47 23z" />
    <glyph glyph-name="uni1EC6" unicode="&#x1ec6;" horiz-adv-x="531" 
d="M80 0v700h403v-36h-365v-276h292v-36h-292v-316h365v-36h-403zM398 747l-21 -23l-95 90l-95 -89l-22 22l117 110zM282 -156c-24 0 -36 12 -36 37c0 24 12 36 36 36s36 -12 36 -36c0 -25 -12 -37 -36 -37z" />
    <glyph glyph-name="uni1EC7" unicode="&#x1ec7;" horiz-adv-x="464" 
d="M80 0v560h332v-35h-295v-215h234v-35h-234v-240h299v-35h-336zM365 607l-21 -23l-95 90l-95 -89l-22 22l117 110zM248 -156c-24 0 -36 12 -36 37c0 24 12 36 36 36s36 -12 36 -36c0 -25 -12 -37 -36 -37z" />
    <glyph glyph-name="uni1EC8" unicode="&#x1ec8;" horiz-adv-x="198" 
d="M80 0v700h38v-700h-38zM151 875c26 -31 20 -62 -18 -94c-18 -15 -36 -24 -55 -26l-14 27c16 1 32 9 48 22c22 19 27 36 14 51c-13 16 -39 8 -78 -24l-18 27c53 45 93 50 121 17z" />
    <glyph glyph-name="uni1EC9" unicode="&#x1ec9;" horiz-adv-x="197" 
d="M80 0v560h37v-560h-37zM151 735c26 -31 20 -62 -18 -94c-18 -15 -36 -24 -55 -26l-14 27c16 1 32 9 48 22c22 19 27 36 14 51c-13 16 -39 8 -78 -24l-18 27c53 45 93 50 121 17z" />
    <glyph glyph-name="uni1ECA" unicode="&#x1eca;" horiz-adv-x="198" 
d="M80 0v700h38v-700h-38zM99 -156c-24 0 -36 12 -36 37c0 24 12 36 36 36s36 -12 36 -36c0 -25 -12 -37 -36 -37z" />
    <glyph glyph-name="uni1ECB" unicode="&#x1ecb;" horiz-adv-x="197" 
d="M80 0v560h37v-560h-37zM99 -156c-24 0 -36 12 -36 37c0 24 12 36 36 36s36 -12 36 -36c0 -25 -12 -37 -36 -37z" />
    <glyph glyph-name="uni1ECC" unicode="&#x1ecc;" horiz-adv-x="708" 
d="M40 351c0 112 30 201 89 267c57 63 132 95 225 95s168 -32 225 -95c59 -66 89 -155 89 -267s-30 -201 -89 -267c-57 -63 -132 -95 -225 -95s-168 32 -225 95c-59 66 -89 155 -89 267zM79 351c0 -103 26 -183 78 -242c49 -56 115 -84 197 -84s148 28 198 84
c52 58 78 139 78 242s-26 184 -78 242c-50 55 -116 83 -198 83s-148 -28 -197 -83c-52 -59 -78 -139 -78 -242zM354 -156c-24 0 -36 12 -36 37c0 24 12 36 36 36s36 -12 36 -36c0 -25 -12 -37 -36 -37z" />
    <glyph glyph-name="uni1ECD" unicode="&#x1ecd;" horiz-adv-x="588" 
d="M40 280c0 89 24 160 72 213c47 51 107 77 182 77s135 -26 182 -77c48 -53 72 -124 72 -213s-24 -160 -72 -213c-47 -52 -107 -78 -182 -78s-135 26 -182 78c-48 53 -72 124 -72 213zM78 280c0 -79 20 -142 61 -189c39 -45 91 -67 155 -67s116 22 155 67
c41 47 61 110 61 189s-20 142 -61 188c-39 45 -91 67 -155 67c-65 0 -116 -22 -155 -67c-41 -46 -61 -109 -61 -188zM294 -156c-24 0 -36 12 -36 37c0 24 12 36 36 36s36 -12 36 -36c0 -25 -12 -37 -36 -37z" />
    <glyph glyph-name="uni1ECE" unicode="&#x1ece;" horiz-adv-x="708" 
d="M40 351c0 112 30 201 89 267c57 63 132 95 225 95s168 -32 225 -95c59 -66 89 -155 89 -267s-30 -201 -89 -267c-57 -63 -132 -95 -225 -95s-168 32 -225 95c-59 66 -89 155 -89 267zM79 351c0 -103 26 -183 78 -242c49 -56 115 -84 197 -84s148 28 198 84
c52 58 78 139 78 242s-26 184 -78 242c-50 55 -116 83 -198 83s-148 -28 -197 -83c-52 -59 -78 -139 -78 -242zM406 875c26 -31 20 -62 -18 -94c-18 -15 -36 -24 -55 -26l-14 27c16 1 32 9 48 22c22 19 27 36 14 51c-13 16 -39 8 -78 -24l-18 27c53 45 93 50 121 17z" />
    <glyph glyph-name="uni1ECF" unicode="&#x1ecf;" horiz-adv-x="588" 
d="M40 280c0 89 24 160 72 213c47 51 107 77 182 77s135 -26 182 -77c48 -53 72 -124 72 -213s-24 -160 -72 -213c-47 -52 -107 -78 -182 -78s-135 26 -182 78c-48 53 -72 124 -72 213zM78 280c0 -79 20 -142 61 -189c39 -45 91 -67 155 -67s116 22 155 67
c41 47 61 110 61 189s-20 142 -61 188c-39 45 -91 67 -155 67c-65 0 -116 -22 -155 -67c-41 -46 -61 -109 -61 -188zM346 735c26 -31 20 -62 -18 -94c-18 -15 -36 -24 -55 -26l-14 27c16 1 32 9 48 22c22 19 27 36 14 51c-13 16 -39 8 -78 -24l-18 27c53 45 93 50 121 17z
" />
    <glyph glyph-name="uni1ED0" unicode="&#x1ed0;" horiz-adv-x="708" 
d="M40 351c0 112 30 201 89 267c57 63 132 95 225 95s168 -32 225 -95c59 -66 89 -155 89 -267s-30 -201 -89 -267c-57 -63 -132 -95 -225 -95s-168 32 -225 95c-59 66 -89 155 -89 267zM79 351c0 -103 26 -183 78 -242c49 -56 115 -84 197 -84s148 28 198 84
c52 58 78 139 78 242s-26 184 -78 242c-50 55 -116 83 -198 83s-148 -28 -197 -83c-52 -59 -78 -139 -78 -242zM471 745l-21 -23l-95 90l-95 -89l-22 22l117 110zM449 828h-39l91 149l35 -11z" />
    <glyph glyph-name="uni1ED1" unicode="&#x1ed1;" horiz-adv-x="588" 
d="M40 280c0 89 24 160 72 213c47 51 107 77 182 77s135 -26 182 -77c48 -53 72 -124 72 -213s-24 -160 -72 -213c-47 -52 -107 -78 -182 -78s-135 26 -182 78c-48 53 -72 124 -72 213zM78 280c0 -79 20 -142 61 -189c39 -45 91 -67 155 -67s116 22 155 67
c41 47 61 110 61 189s-20 142 -61 188c-39 45 -91 67 -155 67c-65 0 -116 -22 -155 -67c-41 -46 -61 -109 -61 -188zM411 607l-21 -23l-95 90l-95 -89l-22 22l117 110zM405 707h-39l91 149l35 -11z" />
    <glyph glyph-name="uni1ED2" unicode="&#x1ed2;" horiz-adv-x="708" 
d="M40 351c0 112 30 201 89 267c57 63 132 95 225 95s168 -32 225 -95c59 -66 89 -155 89 -267s-30 -201 -89 -267c-57 -63 -132 -95 -225 -95s-168 32 -225 95c-59 66 -89 155 -89 267zM79 351c0 -103 26 -183 78 -242c49 -56 115 -84 197 -84s148 28 198 84
c52 58 78 139 78 242s-26 184 -78 242c-50 55 -116 83 -198 83s-148 -28 -197 -83c-52 -59 -78 -139 -78 -242zM471 745l-21 -23l-95 90l-95 -89l-22 22l117 110zM397 982l90 -149h-38l-88 138z" />
    <glyph glyph-name="uni1ED3" unicode="&#x1ed3;" horiz-adv-x="588" 
d="M40 280c0 89 24 160 72 213c47 51 107 77 182 77s135 -26 182 -77c48 -53 72 -124 72 -213s-24 -160 -72 -213c-47 -52 -107 -78 -182 -78s-135 26 -182 78c-48 53 -72 124 -72 213zM78 280c0 -79 20 -142 61 -189c39 -45 91 -67 155 -67s116 22 155 67
c41 47 61 110 61 189s-20 142 -61 188c-39 45 -91 67 -155 67c-65 0 -116 -22 -155 -67c-41 -46 -61 -109 -61 -188zM411 607l-21 -23l-95 90l-95 -89l-22 22l117 110zM333 851l90 -149h-38l-88 138z" />
    <glyph glyph-name="uni1ED4" unicode="&#x1ed4;" horiz-adv-x="708" 
d="M40 351c0 112 30 201 89 267c57 63 132 95 225 95s168 -32 225 -95c59 -66 89 -155 89 -267s-30 -201 -89 -267c-57 -63 -132 -95 -225 -95s-168 32 -225 95c-59 66 -89 155 -89 267zM79 351c0 -103 26 -183 78 -242c49 -56 115 -84 197 -84s148 28 198 84
c52 58 78 139 78 242s-26 184 -78 242c-50 55 -116 83 -198 83s-148 -28 -197 -83c-52 -59 -78 -139 -78 -242zM471 745l-21 -23l-95 90l-95 -89l-22 22l117 110zM516 936c26 -31 20 -62 -18 -94c-18 -15 -36 -24 -55 -26l-14 27c16 1 32 9 48 22c22 19 27 36 14 51
c-13 16 -39 8 -78 -24l-18 27c53 45 93 50 121 17z" />
    <glyph glyph-name="uni1ED5" unicode="&#x1ed5;" horiz-adv-x="588" 
d="M40 280c0 89 24 160 72 213c47 51 107 77 182 77s135 -26 182 -77c48 -53 72 -124 72 -213s-24 -160 -72 -213c-47 -52 -107 -78 -182 -78s-135 26 -182 78c-48 53 -72 124 -72 213zM78 280c0 -79 20 -142 61 -189c39 -45 91 -67 155 -67s116 22 155 67
c41 47 61 110 61 189s-20 142 -61 188c-39 45 -91 67 -155 67c-65 0 -116 -22 -155 -67c-41 -46 -61 -109 -61 -188zM411 607l-21 -23l-95 90l-95 -89l-22 22l117 110zM451 812c26 -31 20 -62 -18 -94c-18 -15 -36 -24 -55 -26l-14 27c16 1 32 9 48 22c22 19 27 36 14 51
c-13 16 -39 8 -78 -24l-18 27c53 45 93 50 121 17z" />
    <glyph glyph-name="uni1ED6" unicode="&#x1ed6;" horiz-adv-x="708" 
d="M40 351c0 112 30 201 89 267c57 63 132 95 225 95s168 -32 225 -95c59 -66 89 -155 89 -267s-30 -201 -89 -267c-57 -63 -132 -95 -225 -95s-168 32 -225 95c-59 66 -89 155 -89 267zM79 351c0 -103 26 -183 78 -242c49 -56 115 -84 197 -84s148 28 198 84
c52 58 78 139 78 242s-26 184 -78 242c-50 55 -116 83 -198 83s-148 -28 -197 -83c-52 -59 -78 -139 -78 -242zM471 747l-21 -23l-95 90l-95 -89l-22 22l117 110zM477 921l11 -30c-13 -18 -32 -27 -57 -27c-16 0 -35 6 -57 17c-23 11 -41 17 -55 17c-21 0 -36 -8 -47 -24
l-12 29c16 20 35 30 58 30c16 0 35 -6 57 -17c22 -12 40 -18 55 -18c18 0 34 8 47 23z" />
    </font>
</defs>
</svg>
