<?xml version="1.0" standalone="no"?>
<!DOCTYPE svg PUBLIC "-//W3C//DTD SVG 1.1//EN" "http://www.w3.org/Graphics/SVG/1.1/DTD/svg11.dtd" >
<svg xmlns="http://www.w3.org/2000/svg" xmlns:xlink="http://www.w3.org/1999/xlink" version="1.1">
<metadata>
Created by FontForge 20150913 at Wed Apr 27 05:30:47 2016
 By Jimmy Wärting
Copyright (c) 2010 by Christian Knutsson. All rights reserved.
</metadata>
<defs>
<font id="UVFLHLine1SansThin" horiz-adv-x="577" >
  <font-face 
    font-family="UVF LH Line1 Sans Thin"
    font-weight="250"
    font-stretch="normal"
    units-per-em="1000"
    panose-1="2 0 5 3 3 0 0 2 0 4"
    ascent="800"
    descent="-200"
    x-height="555"
    cap-height="810"
    bbox="-145 -366 915.531 1191"
    underline-thickness="20"
    underline-position="-143"
    unicode-range="U+000D-FB02"
  />
<missing-glyph horiz-adv-x="610" 
d="M63 0v800h375v-800h-375zM125 63h250v675h-250v-675z" />
    <glyph glyph-name=".notdef" horiz-adv-x="610" 
d="M63 0v800h375v-800h-375zM125 63h250v675h-250v-675z" />
    <glyph glyph-name="NULL" horiz-adv-x="306" 
 />
    <glyph glyph-name="NULL" horiz-adv-x="306" 
 />
    <glyph glyph-name="nonmarkingreturn" unicode="&#xd;" horiz-adv-x="306" 
 />
    <glyph glyph-name="space" unicode=" " horiz-adv-x="306" 
 />
    <glyph glyph-name="numbersign" unicode="#" horiz-adv-x="758" 
d="M581 313q29 0 29 -29q0 -30 -29 -30h-132v-192q0 -29 -30 -29q-29 0 -29 29v192h-178v-192q0 -29 -29 -29q-30 0 -30 29v192h-164q-29 0 -29 30q0 29 29 29h164v178h-164q-29 0 -29 29q0 30 29 30h164v190q0 30 30 30q29 0 29 -30v-190h178v190q0 30 29 30q30 0 30 -30
v-190h132q29 0 29 -30q0 -29 -29 -29h-132v-178h132zM390 313v178h-178v-178h178z" />
    <glyph glyph-name="dollar" unicode="$" horiz-adv-x="516" 
d="M374 256q0 -61 -50 -108q-46 -43 -108 -49v-3v-85q0 -25 -25 -25q-26 0 -26 25v85q0 3 1 4q-51 4 -93 33t-63 75q-11 23 12 34t34 -12q17 -37 51 -58.5t74 -21.5h21q42 0 82 32q39 31 39 74q0 57 -39 87q-29 23 -106 48q-38 13 -65 24.5t-42 22.5q-52 37 -52 104
q0 31 10.5 57.5t30 45.5t46 30t59.5 13v72q0 26 26 26q25 0 25 -26v-73q89 -8 127 -80q12 -23 -11 -35t-35 10q-30 55 -104 55h-21q-46 0 -74 -25t-28 -70q0 -40 34 -64q11 -8 33.5 -17.5t56.5 -20.5q87 -29 120 -55q60 -47 60 -129z" />
    <glyph glyph-name="percent" unicode="%" horiz-adv-x="957" 
d="M615 795q28 0 28 -27q0 -9 -4 -14l-418 -743q-8 -14 -25 -14q-28 0 -28 28q0 8 4 13l419 743q8 14 24 14zM319 627q0 -66 -47 -113t-113 -47q-67 0 -114 47q-46 46 -46 113t46 113q47 47 114 47q66 0 113 -47t47 -113zM159 523q21 0 40 8t33.5 22.5t22.5 33.5t8 40t-8 40
t-22.5 33.5t-33.5 22.5t-40 8t-40 -8t-33.5 -22.5t-22.5 -33.5t-8 -40t8 -40t22.5 -33.5t33.5 -22.5t40 -8zM665 331q66 0 113 -47t47 -112q0 -67 -47 -114q-46 -46 -113 -46t-113 46q-47 47 -47 114q0 65 47 112t113 47zM665 68q45 0 74.5 29.5t29.5 74.5q0 21 -8 40
t-22 33t-33 22t-41 8q-21 0 -40 -8t-33.5 -22t-22.5 -33t-8 -40q0 -22 8 -41t22.5 -33t33.5 -22t40 -8z" />
    <glyph glyph-name="ampersand" unicode="&#x26;" horiz-adv-x="789" 
d="M635 46q28 0 28 -28q0 -27 -28 -27q-134 0 -188 100q-52 -97 -202 -97h-16q-96 0 -163 66q-65 65 -67 161q-2 122 71 184q11 10 24.5 17.5t28.5 14.5q-78 52 -78 161q0 82 60 138q61 55 151 55h13q69 0 125 -41q11 -8 11 -22q0 -27 -27 -27q-9 0 -17 5q-40 31 -92 31h-13
q-68 0 -112 -40q-45 -41 -45 -99q0 -66 37 -102q34 -34 91 -41q9 0 16.5 -0.5t13.5 -1.5q24 -5 23 -28q-1 -24 -26 -26q-6 0 -13.5 0.5t-16.5 1.5q-76 -1 -119 -38q-53 -46 -52 -141q0 -66 48 -119q49 -55 128 -55h16q99 0 140 47q16 17 26 44t10 63v3v229h-16q-28 0 -28 28
q0 27 28 27h16v91q0 27 27 27t27 -27v-91h107q27 0 27 -27q0 -28 -27 -28h-107v-229q0 -94 62 -133q41 -26 98 -26z" />
    <glyph glyph-name="quoteright" unicode="&#x2019;" horiz-adv-x="227" 
d="M35 825q30 0 30 -30v-114q0 -30 -30 -30t-30 30v114q0 30 30 30z" />
    <glyph glyph-name="parenleft" unicode="(" horiz-adv-x="342" 
d="M58 362q0 -162 64 -309q32 -75 65 -117q15 -19 -4 -35q-8 -5 -16 -5q-12 0 -19 10q-37 46 -72 128q-68 157 -68 328q0 174 68 317q34 73 73 115q16 19 35 2t2 -35q-33 -37 -65 -105q-63 -135 -63 -294z" />
    <glyph glyph-name="parenright" unicode=")" horiz-adv-x="351" 
d="M48 786q36 -39 73 -116q68 -145 68 -317q0 -170 -68 -327q-35 -81 -72 -129q-8 -9 -19 -9q-8 0 -16 5q-19 15 -4 35q33 42 65 117q64 147 64 308q0 158 -63 295q-32 68 -65 105q-17 18 2 35q18 17 35 -2z" />
    <glyph glyph-name="asterisk" unicode="*" horiz-adv-x="541" 
d="M377 515q15 -9 15 -26q0 -29 -29 -29q-8 0 -15 4l-117 67v-135q0 -30 -30 -30t-30 30v135l-116 -67q-7 -4 -15 -4q-30 0 -30 29q0 17 15 26l117 67l-117 68q-15 9 -15 26q0 29 30 29q8 0 15 -4l116 -67v135q0 30 30 30t30 -30v-135l117 67q7 4 15 4q29 0 29 -29
q0 -17 -15 -26l-116 -68l116 -67v0z" />
    <glyph glyph-name="plus" unicode="+" horiz-adv-x="604" 
d="M448 402q30 0 30 -30t-30 -30h-181v-182q0 -29 -30 -29t-30 29v182h-181q-30 0 -30 30t30 30h181v181q0 30 30 30t30 -30v-181h181v0z" />
    <glyph glyph-name="comma" unicode="," horiz-adv-x="224" 
d="M34 97q30 0 30 -30v-134q0 -29 -30 -29t-30 29v134q0 30 30 30z" />
    <glyph glyph-name="hyphen" unicode="&#xad;" horiz-adv-x="511" 
d="M312 412q30 0 30 -30t-30 -30h-283q-30 0 -30 30t30 30h283v0z" />
    <glyph glyph-name="period" unicode="." horiz-adv-x="222" 
d="M30 69q30 0 30 -30v-15q0 -30 -30 -30t-30 30v15q0 30 30 30z" />
    <glyph glyph-name="slash" unicode="/" horiz-adv-x="460" 
d="M18 -35q-13 0 -20.5 10.5t-2.5 22.5l281 753q9 23 32 14q23 -8 14 -31l-281 -753q-6 -16 -23 -16z" />
    <glyph glyph-name="zero" unicode="0" horiz-adv-x="794" 
d="M595 733q57 -63 57 -155v-345q0 -101 -73 -171q-73 -71 -174 -71h-17q-111 0 -186 82q-61 67 -61 160v345q0 99 72 170q74 71 175 71h17q115 0 190 -86zM194 233q0 -51 24 -94l324 573q-56 56 -137 56h-17q-79 0 -137 -56q-57 -56 -57 -134v-345zM599 578q0 47 -22 88
l-322 -570q55 -54 133 -54h17q81 0 137 56q57 56 57 135v345z" />
    <glyph glyph-name="one" unicode="1" horiz-adv-x="552" 
d="M302 -1q-11 0 -18.5 7.5t-7.5 18.5v701l-87 -77q-8 -7 -18.5 -6t-18.5 9t-7 19t9 18l131 115q14 12 28 4q16 -6 16 -24v-759q0 -11 -8 -18.5t-19 -7.5z" />
    <glyph glyph-name="two" unicode="2" horiz-adv-x="794" 
d="M624 53q26 0 26 -27q0 -26 -26 -26h-453q-23 0 -26 23q-3 33 7 77q19 86 85 164q13 16 31 32t41 33q14 11 35.5 25.5t50.5 34.5q51 32 85 58t54 46q53 53 53 109q0 39 -26 86q-54 75 -149 75h-33q-95 0 -150 -78q-16 -21 -37 -6q-22 16 -6 37q69 98 193 98h33
q122 0 193 -99q34 -59 34 -114q0 -77 -69 -147q-42 -42 -146 -109q-113 -74 -148 -115q-37 -43 -56 -87t-23 -90h427v0z" />
    <glyph glyph-name="three" unicode="3" horiz-adv-x="794" 
d="M581 371q60 -57 60 -157q0 -93 -68 -156t-172 -63h-15q-81 0 -146 50q-64 49 -85 126q-8 26 18 32q25 7 32 -18q8 -30 25 -55.5t41 -44t53 -29t62 -10.5h15q82 0 135 48t53 120q0 75 -44 119q-39 39 -105 46q-15 2 -26 2h-18q-24 1 -24 25q2 26 25 26h17q63 0 107 42
q51 48 50 145q0 60 -48 102t-122 42h-15q-66 0 -115 -40q-51 -42 -67 -101q-4 -25 -31 -19q-25 7 -19 32q19 78 84 129q64 51 148 51h15q97 0 159 -56q62 -55 64 -140q1 -118 -68 -183q-17 -17 -36 -27q35 -14 61 -38z" />
    <glyph glyph-name="four" unicode="4" horiz-adv-x="794" 
d="M630 263q25 0 25 -27q0 -25 -25 -25h-104v-184q0 -26 -25 -26q-27 0 -27 26v184h-308q-16 0 -23 12q-7 13 0 26l306 551q11 21 34 9q22 -12 10 -35l-283 -511h264v272q0 26 27 26q25 0 25 -26v-272h104v0z" />
    <glyph glyph-name="five" unicode="5" horiz-adv-x="794" 
d="M397 528q96 0 166 -73q70 -75 70 -175v-31q0 -103 -70 -179t-166 -76h-15q-36 0 -69 10.5t-61.5 29.5t-51 46t-35.5 60q-11 24 14 35q23 10 34 -14q23 -54 68.5 -84t100.5 -30h15q74 0 129 61t55 141v31q0 81 -54 138t-130 57h-15q-65 0 -115 -35q-27 -18 -41 -39
q-12 -16 -29 -10q-19 6 -19 25v370q0 25 26 25h370q27 0 27 -25q0 -26 -27 -26h-343v-283q67 51 151 51h15v0z" />
    <glyph glyph-name="six" unicode="6" horiz-adv-x="794" 
d="M405 529q98 0 169 -71q72 -71 72 -169v-55q0 -100 -72 -170q-70 -70 -169 -70h-17q-94 0 -167 69t-73 163v345q0 101 70 171q71 71 170 71h17q34 0 66.5 -9.5t60.5 -27t50.5 -42t37.5 -54.5q12 -23 -11 -35q-22 -10 -34 12q-26 48 -71 76t-99 28h-17q-78 0 -134 -56
q-55 -55 -55 -134v-134q74 92 189 92h17zM595 289q0 74 -57 133q-57 57 -133 57h-17q-79 0 -134 -57q-55 -55 -55 -133v-55q0 -78 55 -133q56 -56 134 -56h17q77 0 133 56q57 55 57 133v55z" />
    <glyph glyph-name="seven" unicode="7" horiz-adv-x="794" 
d="M616 810q14 0 22 -12t2 -26l-326 -756q-7 -16 -24 -16q-14 0 -22.5 11.5t-2.5 25.5l310 720h-398q-26 0 -26 27q0 26 26 26h439v0z" />
    <glyph glyph-name="eight" unicode="8" horiz-adv-x="794" 
d="M522 429q54 -28 86.5 -79.5t32.5 -114.5v-22q0 -89 -65 -154q-64 -64 -153 -64h-53q-90 0 -154 64t-64 154v22q0 63 32 114.5t86 79.5q-96 57 -96 169v19q0 81 58 139q59 58 139 58h51q81 0 139 -58q58 -57 58 -139v-19q0 -112 -97 -169zM227 598q0 -60 42 -103
q42 -42 102 -42h51q61 0 102 42q42 42 42 103v19q0 61 -42 103t-102 42h-51q-60 0 -102 -42t-42 -103v-19zM589 235q0 68 -49 117q-48 49 -117 49h-53q-68 0 -117 -49t-49 -117v-22q0 -68 49 -117t117 -49h53q69 0 117 49q49 49 49 117v22z" />
    <glyph glyph-name="nine" unicode="9" horiz-adv-x="794" 
d="M647 602q2 -6 2 -18v-311q0 -158 -89 -229q-60 -48 -155 -48h-17q-69 0 -127.5 36t-90.5 100q-11 25 11 35q24 12 35 -12q26 -49 71.5 -78t100.5 -29h17q192 0 192 225v105q-73 -94 -192 -94h-17q-101 0 -173 72q-71 74 -71 173v40q0 102 71 173q72 72 173 72h17
q91 0 161 -62q69 -62 81 -150zM405 336q82 0 136 56q56 56 56 137v40q0 80 -56 136q-56 57 -136 57h-17q-79 0 -136 -57q-56 -56 -56 -136v-40q0 -79 56 -137q56 -56 136 -56h17z" />
    <glyph glyph-name="colon" unicode=":" horiz-adv-x="219" 
d="M30 438q30 0 30 -30v-25q0 -30 -30 -30t-30 30v25q0 30 30 30zM30 84q30 0 30 -30v-25q0 -30 -30 -30t-30 30v25q0 30 30 30z" />
    <glyph glyph-name="semicolon" unicode=";" horiz-adv-x="223" 
d="M30 87q30 0 30 -30v-122q0 -30 -30 -30t-30 30v122q0 30 30 30zM30 441q30 0 30 -30v-25q0 -30 -30 -30t-30 30v25q0 30 30 30z" />
    <glyph glyph-name="less" unicode="&#x3c;" horiz-adv-x="908" 
d="M815 385q11 0 19 -7.5t8 -20.5q0 -11 -8 -19t-19 -8h-717l304 -299q6 -8 6 -19.5t-6 -19.5q-11 -9 -21 -9q-5 0 -11 2t-10 7l-348 346q-9 8 -9 20t9 21l350 355q9 8 21 8t21 -8q6 -9 6 -20.5t-6 -18.5l-306 -310h717v0z" />
    <glyph glyph-name="equal" unicode="=" horiz-adv-x="664" 
d="M31 467q-26 0 -26 26q0 27 26 27h478q26 0 26 -27q0 -26 -26 -26h-478zM509 300q26 0 26 -27q0 -26 -26 -26h-478q-26 0 -26 26q0 27 26 27h478z" />
    <glyph glyph-name="greater" unicode="&#x3e;" horiz-adv-x="977" 
d="M744 385l-306 310q-6 7 -6 18.5t6 20.5q9 8 21 8t21 -8l350 -355q9 -9 9 -21t-9 -20l-348 -346q-8 -9 -21 -9q-11 0 -21 9q-6 8 -6 19.5t6 19.5l304 299h-717q-11 0 -19 8t-8 19q0 13 8 20.5t19 7.5h717z" />
    <glyph glyph-name="question" unicode="?" horiz-adv-x="601" 
d="M239 815q97 0 162 -59t65 -148q0 -109 -55 -173q-34 -40 -112 -82q-58 -31 -77 -52q-30 -35 -30 -86q0 -28 -30 -28q-29 0 -29 28q0 74 46 123q13 14 36 30t55 34q35 20 58.5 38t36.5 32q22 26 33.5 59t11.5 77q0 31 -11.5 56t-33.5 47q-24 23 -55 35t-71 12h-32
q-103 0 -159 -65q-7 -10 -22 -10q-28 0 -28 28q0 11 7 18q71 86 202 86h32zM162 101q34 0 34 -32v-39q0 -32 -34 -32q-33 0 -33 32v39q0 32 33 32z" />
    <glyph glyph-name="at" unicode="@" horiz-adv-x="879" 
d="M424 647q120 0 204 -85q85 -84 85 -203v-338q0 -55 -39 -86q-32 -25 -75 -25q-44 0 -79 23q-46 30 -46 88v45q-49 -41 -108 -41h-17q-70 0 -118 48t-48 117v117q0 68 48 116q49 49 118 49h17q67 0 116 -49t49 -116v-286q0 -32 32 -46q15 -7 36 -7q57 1 57 53v338
q0 95 -68 163t-164 68h-132q-96 0 -164 -68q-67 -67 -67 -163v-223q0 -96 67 -163q68 -68 164 -68q29 0 29 -29t-29 -29q-119 0 -204 85q-85 84 -85 204v223q0 119 85 203q85 85 204 85h132zM366 83q22 0 42 8.5t34.5 22.5t23 33.5t8.5 42.5v117q0 43 -32 75t-76 32h-17
q-45 0 -77 -32q-31 -31 -31 -75v-117q0 -23 8.5 -42.5t23 -33.5t34 -22.5t42.5 -8.5h17z" />
    <glyph glyph-name="A" unicode="A" horiz-adv-x="754" 
d="M617 37q2 -6 2 -11q0 -26 -26 -26q-19 0 -25 17l-74 197h-370l-72 -197q-6 -17 -26 -17q-26 0 -26 26q0 4 2 10l282 758q6 19 25 17q18 0 24 -17zM473 267l-164 443l-165 -443h329z" />
    <glyph glyph-name="B" unicode="B" horiz-adv-x="660" 
d="M393 428q60 -28 96 -78.5t36 -111.5v-25q0 -88 -72 -151q-71 -62 -172 -62h-255q-26 0 -26 25v759q0 26 26 26h240q113 0 175 -61q55 -52 55 -135v-21q0 -113 -103 -165zM443 614q0 33 -12.5 59.5t-36 45.5t-56 29t-72.5 10h-213v-306h213q39 0 72 10t56 29t36 44.5
t13 57.5v21zM472 238q0 67 -56 114t-135 47h-228v-347h228q79 0 135 47q56 48 56 114v25z" />
    <glyph glyph-name="C" unicode="C" horiz-adv-x="688" 
d="M528 265q27 -2 24 -30q-9 -100 -85 -168q-73 -67 -176 -67h-29q-110 0 -186 76t-76 185v303q0 109 76 185q77 77 186 77h29q103 0 177 -70q75 -69 84 -170q2 -28 -25 -29q-25 -1 -28 25q-6 79 -67 135q-59 55 -141 55h-29q-87 0 -148 -61q-60 -62 -60 -147v-303
q0 -86 60 -147q61 -61 148 -61h29q81 0 140 53q60 55 67 135q3 27 30 24z" />
    <glyph glyph-name="D" unicode="D" horiz-adv-x="673" 
d="M280 812q106 0 182 -76t76 -182v-297q0 -107 -76 -182q-75 -75 -182 -75h-254q-26 0 -26 26v760q0 26 26 26h254zM485 554q0 86 -60 145q-60 60 -145 60h-227v-706h227q85 0 145 60t60 144v297z" />
    <glyph glyph-name="E" unicode="E" horiz-adv-x="642" 
d="M481 53q26 0 26 -27q0 -26 -26 -26h-455q-26 0 -26 26v759q0 27 26 27h455q26 0 26 -27q0 -26 -26 -26h-427v-322h339q25 0 25 -27q0 -25 -25 -25h-339v-332h427v0z" />
    <glyph glyph-name="F" unicode="F" horiz-adv-x="641" 
d="M480 811q26 0 26 -27q0 -26 -26 -26h-427v-303h338q27 0 27 -26t-27 -26h-338v-378q0 -25 -27 -25q-26 0 -26 25v759q0 27 26 27h454v0z" />
    <glyph glyph-name="G" unicode="G" horiz-adv-x="686" 
d="M261 0q-108 0 -184 76q-77 77 -77 186v301q0 108 77 185q76 76 184 76h31q76 0 161 -50q43 -35 65.5 -71t23.5 -73q1 -28 -27 -28q-19 0 -25 21q-20 66 -75 106q-56 42 -123 42h-31q-86 0 -147 -61t-61 -147v-301q0 -87 61 -148q61 -60 147 -60h31q85 0 144 58
q62 60 62 144v71h-147q-28 0 -28 26q0 28 28 28h173q27 0 27 -28v-99q0 -54 -20.5 -99t-58.5 -82q-74 -73 -180 -73h-31z" />
    <glyph glyph-name="H" unicode="H" horiz-adv-x="673" 
d="M511 809q27 0 27 -26v-757q0 -26 -27 -26t-27 26v352h-431v-352q0 -26 -27 -26q-26 0 -26 26v757q0 26 26 26q27 0 27 -26v-352h431v352q0 26 27 26z" />
    <glyph glyph-name="I" unicode="I" horiz-adv-x="188" 
d="M26 0q-26 0 -26 26v758q0 26 26 26q27 0 27 -26v-758q0 -26 -27 -26z" />
    <glyph glyph-name="J" unicode="J" horiz-adv-x="448" 
d="M27 0q-27 0 -27 27q0 25 27 25h28q85 0 144 60q60 61 60 146v527q0 27 27 27t27 -27v-527q0 -107 -76 -183q-75 -75 -182 -75h-28z" />
    <glyph glyph-name="K" unicode="K" horiz-adv-x="623" 
d="M483 41q7 -10 4 -20.5t-12 -16.5q-8 -4 -14 -4q-16 0 -23 12l-246 367h-139v-352q0 -11 -7.5 -19t-18.5 -8t-19 8t-8 19v757q0 11 8 19t19 8t18.5 -8t7.5 -19v-352h139l246 367q6 9 16.5 11.5t20.5 -3.5q9 -6 12 -16.5t-4 -20.5l-245 -365z" />
    <glyph glyph-name="L" unicode="L" horiz-adv-x="640" 
d="M478 53q27 0 27 -27q0 -26 -27 -26h-452q-26 0 -26 26v759q0 26 26 26q27 0 27 -26v-732h425v0z" />
    <glyph glyph-name="M" unicode="M" horiz-adv-x="770" 
d="M617 808q18 -5 18 -23v-761q0 -24 -25 -24q-26 0 -26 24v681l-244 -346q-8 -11 -20 -11q-13 0 -21 11l-248 347v-682q0 -24 -26 -24q-25 0 -25 24v761q0 18 17 23q18 7 29 -9l274 -382l268 382q11 17 29 9z" />
    <glyph glyph-name="N" unicode="N" horiz-adv-x="691" 
d="M531 809q25 0 25 -25v-759q0 -25 -25 -25q-14 0 -22 11l-458 689v-673q0 -27 -26 -27q-25 0 -25 27v757q0 19 18 24q19 4 29 -10l459 -689v675q0 25 25 25z" />
    <glyph glyph-name="O" unicode="O" horiz-adv-x="684" 
d="M290 822q108 0 183 -77q76 -76 76 -184v-300q0 -109 -76 -185q-75 -76 -183 -76h-29q-109 0 -185 76t-76 185v300q0 108 76 184q77 77 185 77h29zM495 561q0 84 -60 146q-60 61 -145 61h-29q-86 0 -147 -61q-60 -60 -60 -146v-300q0 -87 60 -147t147 -60h29q86 0 145 60
q60 61 60 147v300z" />
    <glyph glyph-name="P" unicode="P" horiz-adv-x="640" 
d="M270 812q100 0 168 -63q67 -61 67 -158v-24q0 -92 -67 -156q-68 -63 -168 -63h-218v-322q0 -26 -26 -26t-26 26v759q0 27 26 27h244zM453 591q0 73 -52 121q-53 48 -131 48h-218v-361h218q79 0 131 47q52 48 52 121v24z" />
    <glyph glyph-name="Q" unicode="Q" horiz-adv-x="785" 
d="M623 53q27 0 27 -27q0 -26 -27 -26h-362q-109 0 -185 76t-76 184v302q0 108 76 184q77 77 185 77h29q108 0 185 -77q76 -76 76 -184v-302q0 -127 -104 -207h176zM290 53q86 0 146 60q61 61 61 147v302q0 85 -61 146t-146 61h-29q-87 0 -147 -61q-60 -60 -60 -146v-302
q0 -86 60 -147q60 -60 147 -60h29z" />
    <glyph glyph-name="R" unicode="R" horiz-adv-x="654" 
d="M516 37q5 -12 -1.5 -24.5t-22.5 -12.5q-17 0 -24 16l-155 336q-9 -1 -18 -1h-18h-224v-324q0 -27 -26 -27q-27 0 -27 27v757q0 27 27 27h250q103 0 167 -61q64 -60 64 -157v-25q0 -72 -38 -126t-104 -76zM277 404q80 0 127 46q49 46 49 118v25q0 37 -12.5 68t-36 52.5
t-56 33.5t-71.5 12h-224v-355h224z" />
    <glyph glyph-name="S" unicode="S" horiz-adv-x="638" 
d="M254 466q116 -37 166 -75q83 -65 83 -178q0 -88 -74 -151q-74 -62 -161 -62h-30q-38 0 -73.5 10.5t-66 30t-55 47t-40.5 61.5q-6 13 1.5 25t21.5 12q16 0 24 -14q26 -55 77 -87.5t111 -32.5h30q66 0 122 47q61 49 61 114q0 89 -67 138q-20 14 -56 31t-90 34
q-54 18 -91 34t-59 32q-71 51 -71 141q0 87 58 142q59 56 150 56h31q143 0 203 -112q12 -23 -10 -35q-24 -14 -37 10q-45 84 -156 84h-31q-35 0 -63.5 -10.5t-48.5 -30t-31.5 -46t-11.5 -58.5q0 -64 49 -100q17 -13 50.5 -26.5t84.5 -30.5z" />
    <glyph glyph-name="T" unicode="T" horiz-adv-x="727" 
d="M565 811q27 0 27 -26q0 -27 -27 -27h-243v-732q0 -26 -26 -26t-26 26v732h-244q-26 0 -26 27q0 26 26 26h539v0z" />
    <glyph glyph-name="U" unicode="U" horiz-adv-x="685" 
d="M524 818q26 0 26 -27v-530q0 -108 -77 -185q-76 -76 -184 -76h-28q-108 0 -184 76q-77 77 -77 185v530q0 27 27 27q28 0 28 -27v-530q0 -87 60 -147t146 -60h28q86 0 146 60q61 61 61 147v530q0 27 28 27z" />
    <glyph glyph-name="V" unicode="V" horiz-adv-x="682" 
d="M521 811q26 0 26 -26q0 -2 -2 -8l-244 -759q-6 -18 -24 -18q-20 0 -26 18l-250 759q-1 3 -1 8q0 26 26 26q20 0 26 -18l224 -681l219 681q6 18 26 18z" />
    <glyph glyph-name="W" unicode="W" horiz-adv-x="1051" 
d="M896 808q25 -7 18 -32l-213 -757q-6 -19 -25 -19t-25 19l-193 668l-188 -668q-6 -19 -25 -19t-25 19l-219 757q-1 3 -1 7q0 26 26 26q19 0 25 -19l193 -668l188 668q3 8 11 15q5 4 14 4q14 0 22 -11l4 -8l193 -668l187 668q7 25 33 18z" />
    <glyph glyph-name="X" unicode="X" horiz-adv-x="645" 
d="M504 39q8 -14 1 -26q-7 -13 -23 -13q-17 0 -24 13l-203 341l-203 -341q-7 -13 -24 -13q-15 0 -22 13t0 26l219 367l-219 365q-14 22 9 36q24 13 37 -9l203 -341l203 341q14 23 37 9q22 -14 9 -36l-219 -365z" />
    <glyph glyph-name="Y" unicode="Y" horiz-adv-x="640" 
d="M489 806q23 -12 12 -35l-215 -426v-319q0 -26 -25 -26q-28 0 -28 26v319l-228 425q-12 23 11 35q23 14 36 -10l208 -386l192 385q13 25 37 12z" />
    <glyph glyph-name="Z" unicode="Z" horiz-adv-x="669" 
d="M507 53q26 0 26 -27q0 -26 -26 -26h-480q-15 0 -23 14t1 27l454 718h-414q-27 0 -27 27q0 26 27 26h462q15 0 23 -14t-1 -27l-454 -718h432v0z" />
    <glyph glyph-name="bracketleft" unicode="[" horiz-adv-x="229" 
d="M153 -18q29 0 29 -29t-29 -29h-125q-28 0 -28 29v900q0 28 28 28h125q29 0 29 -28q0 -29 -29 -29h-96v-842h96v0z" />
    <glyph glyph-name="backslash" unicode="\" horiz-adv-x="468" 
d="M304 -32q-17 0 -23 16l-281 753q-9 23 14 31q23 9 32 -14l281 -753q5 -12 -2.5 -22.5t-20.5 -10.5z" />
    <glyph glyph-name="bracketright" unicode="]" horiz-adv-x="358" 
d="M158 881q28 0 28 -28v-899q0 -29 -28 -29h-125q-29 0 -29 29t29 29h96v841h-96q-29 0 -29 29q0 28 29 28h125v0z" />
    <glyph glyph-name="asciicircum" unicode="^" horiz-adv-x="477" 
d="M293 639q-11 0 -18 7l-62 62l-62 -62q-18 -18 -37 0q-7 7 -7 19t7 19l80 80q19 19 38 0l80 -80q7 -7 7 -19q0 -26 -26 -26z" />
    <glyph glyph-name="underscore" unicode="_" horiz-adv-x="573" 
d="M584 -81q30 0 30 -30t-30 -30h-587q-30 0 -30 30t30 30h587v0z" />
    <glyph glyph-name="quoteleft" unicode="&#x2018;" horiz-adv-x="227" 
d="M35 825q30 0 30 -30v-114q0 -30 -30 -30t-30 30v114q0 30 30 30z" />
    <glyph glyph-name="a" unicode="a" horiz-adv-x="576" 
d="M440 323q1 -1 1 -2v-292q0 -25 -27 -25t-27 25v55q-69 -84 -167 -84h-23q-197 0 -197 170q0 65 41 103q43 42 123 42h223v49q0 64 -46 109q-45 45 -109 45h-23q-95 0 -138 -82q-12 -23 -36 -11q-23 13 -11 36q29 51 77 81t108 30h23q86 0 147 -61q31 -31 45.5 -67.5
t15.5 -79.5l1 -41h-1zM387 263h-224h-3q-55 0 -83 -28q-24 -23 -24 -65q0 -118 144 -118h23q69 0 121 61q46 52 46 95v55z" />
    <glyph glyph-name="b" unicode="b" horiz-adv-x="576" 
d="M233 571q87 0 147 -62q61 -61 61 -146v-156q0 -85 -61 -146q-60 -61 -147 -61h-22q-96 0 -159 74v-42q0 -27 -26 -27t-26 27v758q0 25 26 25t26 -25v-293q63 74 159 74h22zM389 363q0 64 -46 109q-47 45 -110 45h-22q-64 0 -109 -45t-45 -109v-156q0 -63 45 -109
q45 -45 109 -45h22q63 0 110 45q46 46 46 109v156z" />
    <glyph glyph-name="c" unicode="c" horiz-adv-x="568" 
d="M407 180q13 0 19.5 -9t5.5 -17q-3 -23 -19.5 -53.5t-52.5 -55.5q-65 -45 -128 -45h-23q-86 0 -147 61q-62 62 -62 147v156q0 85 62 147q61 61 147 61h23q64 0 116 -34t77 -94q2 -6 2 -10q0 -25 -26 -25q-18 0 -25 16q-19 43 -57.5 68.5t-86.5 25.5h-23q-65 0 -110 -45
t-45 -110v-156q0 -65 45 -110t110 -45h23q51 0 93 30t57 79q6 18 25 18z" />
    <glyph glyph-name="d" unicode="d" horiz-adv-x="579" 
d="M417 816q27 0 27 -27v-755q0 -27 -27 -27q-26 0 -26 27v39q-61 -73 -160 -73h-22q-89 0 -149 60t-60 147v157q0 86 60 148q61 61 149 61h22q98 0 160 -75v291q0 27 26 27zM387 364q0 64 -45 109q-45 46 -111 46h-22q-65 0 -111 -46q-45 -45 -45 -109v-157q0 -65 45 -110
t111 -45h22q66 0 111 45q45 46 45 110v157z" />
    <glyph glyph-name="e" unicode="e" 
d="M234 575q85 0 147 -62q61 -61 61 -147v-62q0 -26 -26 -26h-362v-68q0 -66 45 -111t111 -45h24q51 0 90.5 28.5t55.5 76.5q6 18 26 18q27 0 27 -28q0 -5 -1 -8q-12 -32 -32 -57.5t-46 -44.5t-56.5 -29t-63.5 -10h-24q-87 0 -148 61q-62 62 -62 149v156q0 85 62 147t148 62
h24zM388 366q0 65 -45 110t-109 45h-24q-66 0 -111 -45t-45 -110v-35h334v35z" />
    <glyph glyph-name="f" unicode="f" horiz-adv-x="385" 
d="M225 751q-60 0 -95.5 -41.5t-35.5 -110.5v-44h110q26 0 26 -26t-26 -26h-110v-477q0 -26 -26 -26t-26 26v477h-16q-26 0 -26 26t26 26h16v44q0 90 51 147t132 57q25 0 25 -26t-25 -26z" />
    <glyph glyph-name="g" unicode="g" horiz-adv-x="570" 
d="M409 565q26 0 26 -27v-555q0 -84 -60 -145t-146 -61q-24 0 -24 26q0 27 24 27q62 0 109 45q46 45 46 108v87q-61 -70 -155 -70h-21q-86 0 -147 61t-61 145v155q0 85 61 146t147 61h21q94 0 155 -70v40q0 27 25 27zM229 53q64 0 109 45q46 46 46 108v155q0 64 -46 109
q-45 45 -109 45h-21q-64 0 -110 -45q-45 -45 -45 -109v-155q0 -63 45 -108t110 -45h21z" />
    <glyph glyph-name="h" unicode="h" horiz-adv-x="581" 
d="M235 565q86 0 148 -62q63 -62 63 -150v-326q0 -27 -27 -27t-27 27v326q0 66 -46 111q-46 46 -111 46h-24q-65 0 -111 -46q-46 -45 -46 -111v-326q0 -27 -27 -27t-27 27v756q0 27 27 27t27 -27v-289q63 71 157 71h24v0z" />
    <glyph glyph-name="i" unicode="i" horiz-adv-x="188" 
d="M26 561q27 0 27 -27v-508q0 -26 -27 -26q-26 0 -26 26v508q0 27 26 27zM26 809q27 0 27 -26v-43q0 -27 -27 -27q-26 0 -26 27v43q0 26 26 26z" />
    <glyph glyph-name="j" unicode="j" horiz-adv-x="359" 
d="M198 764q26 0 26 -25v-541q0 -81 -59 -140q-58 -58 -140 -58q-25 0 -25 25t25 25q60 0 104 44t44 104v541q0 25 25 25zM196 909q-25 0 -25 25v55q0 25 25 25t25 -25v-55q0 -25 -25 -25z" />
    <glyph glyph-name="k" unicode="k" horiz-adv-x="512" 
d="M371 41q6 -9 4 -19.5t-11 -17.5q-8 -4 -15 -4q-14 0 -22 11l-172 249h-102v-234q0 -11 -8 -18.5t-19 -7.5t-18.5 7.5t-7.5 18.5v757q0 11 7.5 19t18.5 8t19 -8t8 -19v-470h103l173 237q6 8 17 10t20 -4q8 -7 10 -17.5t-5 -20.5l-170 -232z" />
    <glyph glyph-name="l" unicode="l" horiz-adv-x="275" 
d="M113 0q-51 0 -85 64q-28 52 -28 106v623q0 26 26 26q27 0 27 -26v-623q0 -65 31 -97q16 -16 35 -21q25 -6 19 -32q-5 -20 -25 -20z" />
    <glyph glyph-name="m" unicode="m" horiz-adv-x="965" 
d="M614 567q89 0 152 -63q64 -63 64 -151v-326q0 -27 -28 -27q-27 0 -27 27v326q0 65 -48 112q-47 47 -113 47h-24q-48 0 -87.5 -26t-59.5 -68v-1q11 -33 11 -64v-326q0 -27 -28 -27q-27 0 -27 27v326q0 65 -48 112q-47 47 -112 47h-24q-66 0 -113 -47t-47 -112v-326
q0 -27 -28 -27q-27 0 -27 27v511q0 27 27 27q28 0 28 -27v-42q65 71 160 71h24q111 0 175 -91q64 91 176 91h24v0z" />
    <glyph glyph-name="n" unicode="n" 
d="M232 565q87 0 148 -61q62 -62 62 -147v-330q0 -27 -28 -27q-26 0 -26 27v330q0 63 -46 108q-46 46 -110 46h-23q-64 0 -110 -46q-45 -45 -45 -108v-330q0 -27 -28 -27q-26 0 -26 27v507q0 26 26 26q28 0 28 -26v-39q61 70 155 70h23v0z" />
    <glyph glyph-name="o" unicode="o" 
d="M232 574q86 0 148 -62t62 -147v-156q0 -86 -62 -148q-61 -61 -148 -61h-22q-87 0 -148 61q-62 62 -62 148v156q0 85 62 147t148 62h22zM388 365q0 64 -46 110t-110 46h-22q-65 0 -111 -46q-45 -45 -45 -110v-156q0 -66 45 -111t111 -45h22q65 0 110 45q46 46 46 111v156z
" />
    <glyph glyph-name="p" unicode="p" horiz-adv-x="578" 
d="M234 571q87 0 148 -61t61 -147v-156q0 -85 -61 -146t-148 -61h-22q-96 0 -159 73v-303q0 -27 -27 -27q-26 0 -26 27v774q0 26 26 26q27 0 27 -26v-46q63 73 159 73h22zM390 363q0 64 -46 110q-45 46 -110 46h-22q-64 0 -110 -46t-46 -110v-156q0 -64 46 -110
q46 -45 110 -45h22q65 0 110 45q46 46 46 110v156z" />
    <glyph glyph-name="q" unicode="q" 
d="M416 570q26 0 26 -26v-774q0 -27 -26 -27q-27 0 -27 27v302q-63 -72 -158 -72h-22q-87 0 -148 61t-61 147v156q0 86 61 147t148 61h22q95 0 158 -72v44q0 26 27 26zM386 364q0 63 -46 109t-109 46h-22q-65 0 -111 -46q-45 -45 -45 -109v-156q0 -65 45 -110
q46 -45 111 -45h22q64 0 109 45q46 45 46 110v156z" />
    <glyph glyph-name="r" unicode="r" horiz-adv-x="395" 
d="M234 562q26 0 26 -28q0 -26 -26 -26h-24q-65 0 -111 -46q-45 -47 -45 -109v-327q0 -26 -28 -26q-26 0 -26 26v508q0 28 26 28q28 0 28 -28v-43q63 71 156 71h24v0z" />
    <glyph glyph-name="s" unicode="s" horiz-adv-x="531" 
d="M202 331q90 -27 129 -53q65 -45 65 -125q0 -63 -60 -109q-56 -44 -124 -44h-24q-60 0 -108.5 28.5t-74.5 76.5q-12 23 11 35q24 13 36 -11q18 -34 55.5 -55t80.5 -21h24q47 0 88 30q42 30 42 70q0 52 -41 81q-30 21 -114 45q-83 24 -117 47q-56 36 -56 101q0 32 12 58.5
t34 45t52 29t66 10.5h24q112 0 159 -78q15 -24 -9 -37q-23 -14 -36 9q-31 52 -114 52h-24q-49 0 -80 -24.5t-31 -64.5q0 -38 36 -60q25 -15 99 -36z" />
    <glyph glyph-name="t" unicode="t" horiz-adv-x="399" 
d="M237 53q11 0 19 -8t8 -19t-8 -18.5t-19 -7.5q-30 0 -60.5 11t-54.5 35.5t-39 64t-15 96.5v301h-42q-11 0 -18.5 7.5t-7.5 18.5t7.5 18.5t18.5 7.5h42v89q0 11 7.5 19t18.5 8t19 -8t8 -19v-89h98q11 0 18.5 -7.5t7.5 -18.5t-7.5 -18.5t-18.5 -7.5h-98v-301
q0 -75 30 -114.5t86 -39.5z" />
    <glyph glyph-name="u" unicode="u" horiz-adv-x="573" 
d="M412 568q26 0 26 -26v-510q0 -27 -26 -27q-27 0 -27 27v37q-62 -69 -154 -69h-24q-85 0 -146 60q-61 61 -61 146v336q0 26 27 26q26 0 26 -26v-336q0 -64 45 -109t109 -45h24q64 0 109 45t45 109v336q0 26 27 26z" />
    <glyph glyph-name="v" unicode="v" horiz-adv-x="572" 
d="M410 561q27 0 27 -26q0 -3 -2 -9l-188 -510q-6 -16 -26 -16q-18 0 -24 16l-195 509q-2 6 -2 10q0 26 26 26q19 0 25 -17l170 -443l165 443q6 17 24 17z" />
    <glyph glyph-name="w" unicode="w" horiz-adv-x="888" 
d="M186 0q-17 0 -24 18l-160 505q-3 11 1.5 20.5t14.5 13.5q11 3 21 -2t13 -16l136 -431l162 433q3 8 9.5 13t14.5 5h5q18 0 25 -19l148 -432l150 432q3 10 13 15t21 2q10 -5 14.5 -14.5t0.5 -19.5l-176 -506q-5 -17 -25 -17q-17 0 -24 18l-151 440l-163 -441
q-7 -17 -25 -17h-1z" />
    <glyph glyph-name="x" unicode="x" horiz-adv-x="547" 
d="M406 41q10 -13 1 -27t-25 -14q-15 0 -24 12l-151 219l-152 -219q-9 -12 -24 -12q-17 0 -25 14q-9 13 0 27l167 240l-167 239q-15 20 9 35q24 14 40 -8l152 -219l151 219q16 22 39 8q24 -15 9 -35l-167 -239z" />
    <glyph glyph-name="y" unicode="y" horiz-adv-x="580" 
d="M417 559q13 0 21 -7t6 -20q-1 -5 -3 -11q-79 -222 -131.5 -369t-78.5 -223q-34 -98 -103 -143q-44 -27 -90 -27q-11 0 -15 1q-14 2 -18.5 12t-3.5 18q1 14 9.5 19t20.5 5q13 0 27 2t30 10q31 15 53 45.5t39 75.5l20 54l-3 6l-189 515q-3 7 -3 14q1 20 27 23q8 1 14.5 -3
t11.5 -16l169 -462l162 459l2 5q7 17 26 17z" />
    <glyph glyph-name="z" unicode="z" horiz-adv-x="582" 
d="M418 53q28 0 28 -26q0 -27 -28 -27h-389q-17 0 -25 14q-7 16 3 29l357 464h-325q-26 0 -26 27q0 28 26 28h379q18 0 25 -16q7 -15 -3 -28l-357 -465h335v0z" />
    <glyph glyph-name="braceleft" unicode="{" horiz-adv-x="302" 
d="M192 -67q-57 0 -91 31q-38 35 -38 97v228q0 72 -64 91q-25 3 -25 27t24 29q65 20 65 91v221q0 31 10.5 56.5t29.5 42.5t45 24.5t56 4.5q27 -3 24 -31q-3 -29 -30 -24q-79 5 -79 -73v-221q0 -75 -57 -120q57 -44 57 -118v-228q0 -77 79 -72q27 2 30 -25t-24 -30
q-3 -1 -12 -1z" />
    <glyph glyph-name="bar" unicode="|" horiz-adv-x="309" 
d="M111 800q26 0 26 -26v-948q0 -26 -26 -26t-26 26v948q0 26 26 26z" />
    <glyph glyph-name="braceright" unicode="}" horiz-adv-x="429" 
d="M62 883q57 0 91 -31q38 -35 38 -97v-228q0 -72 64 -91q25 -3 25 -27q0 -25 -24 -29q-65 -20 -65 -91v-221q0 -32 -10.5 -57t-29.5 -42t-45 -24.5t-56 -4.5q-27 3 -24 31t30 24q79 -5 79 73v221q0 75 57 120q-57 43 -57 118v228q0 77 -79 72q-27 -2 -30 25t24 30q3 1 12 1
z" />
    <glyph glyph-name="asciitilde" unicode="~" horiz-adv-x="585" 
d="M47 501q-5 -5 -14 -3q-17 3 -19 24q1 15 13 22q48 36 107 36q57 0 98 -37q32 -29 72 -29q47 0 88 30q13 5 25 1q10 -4 10 -22q-3 -14 -14 -22q-50 -36 -109 -36q-50 0 -96 38q-31 31 -75 31q-49 0 -86 -33z" />
    <glyph glyph-name="exclamdown" unicode="&#xa1;" horiz-adv-x="223" 
d="M26 -250q-26 0 -26 26v563q0 26 26 26t26 -26v-563q0 -26 -26 -26zM26 463q-26 0 -26 26v35q0 26 26 26t26 -26v-35q0 -26 -26 -26z" />
    <glyph glyph-name="cent" unicode="&#xa2;" horiz-adv-x="607" 
d="M246 791q26 0 26 -26v-93q56 -3 102 -34q51 -34 77 -93q2 -6 2 -10q0 -25 -26 -25q-18 0 -25 16q-19 43 -58 68q-32 22 -72 25v-448q43 4 78 30q43 31 58 79q6 18 25 18q25 0 25 -26q0 -60 -72 -109q-59 -41 -114 -45v-72q0 -26 -26 -26t-26 26v72q-75 4 -132 61
q-62 62 -62 147v139q0 85 62 147q55 55 132 60v93q0 26 26 26zM125 216q39 -40 95 -45v448q-56 -5 -95 -44q-45 -45 -45 -110v-139q0 -65 45 -110z" />
    <glyph glyph-name="sterling" unicode="&#xa3;" horiz-adv-x="656" 
d="M543 659q2 -8 2 -12q0 -32 -31 -32q-22 0 -29 19q-22 54 -65.5 85.5t-95.5 31.5h-26q-74 0 -127 -62q-52 -61 -52 -147v-130h201q32 0 32 -31q0 -32 -32 -32h-201v-70q0 -121 -40 -217h398q31 0 31 -31q0 -32 -31 -32h-449q-21 0 -28 16q-9 17 1 33q29 48 42 105t13 126
v70h-28q-32 0 -32 32q0 31 32 31h28v130q0 112 71 192t171 80h26q35 0 68 -11t61.5 -31.5t51.5 -49t38 -63.5z" />
    <glyph glyph-name="fraction" unicode="&#x2044;" horiz-adv-x="521" 
d="M31 4q-13 0 -20.5 11t-3.5 24l335 756q10 24 34 15t14 -33l-334 -756q-8 -17 -25 -17z" />
    <glyph glyph-name="yen" unicode="&#xa5;" horiz-adv-x="640" 
d="M77 327q-26 0 -26 26q0 27 26 27h136l-209 390q-12 23 11 35q23 14 36 -10l208 -386l192 385q13 25 37 12q23 -12 12 -35l-198 -391h134q26 0 26 -27q0 -26 -26 -26h-151v-77h151q26 0 26 -27q0 -26 -26 -26h-151v-171q0 -26 -25 -26q-28 0 -28 26v171h-155q-26 0 -26 26
q0 27 26 27h155v77h-155v0z" />
    <glyph glyph-name="section" unicode="&#xa7;" horiz-adv-x="587" 
d="M359 174q49 -40 49 -106q0 -35 -13 -64.5t-36 -50.5t-56 -33t-72 -12h-23q-121 0 -171 89q-4 7 -4 16q0 31 32 31q18 0 27 -16q31 -57 116 -57h23q52 0 82.5 27t30.5 70t-35 66q-24 16 -102 40q-49 15 -83.5 30.5t-54.5 29.5q-68 50 -68 141q0 80 73 132q-46 40 -46 106
q0 35 12.5 64.5t36 50.5t56 33t71.5 12h23q121 0 171 -89q5 -8 5 -15q0 -31 -33 -31q-17 0 -28 14q-30 58 -115 58h-23q-52 0 -82.5 -27t-30.5 -70q0 -42 36 -66q13 -8 38 -18t63 -22q49 -15 83 -30.5t54 -29.5q69 -50 69 -140q0 -81 -75 -133zM64 375q0 -60 43 -91
q30 -22 117 -49q25 -8 43.5 -14.5t31.5 -11.5l47 41q24 21 24 57q0 57 -41 90q-31 24 -119 49q-25 8 -43 14.5t-31 11.5q-11 -10 -23 -19t-25 -19q-24 -23 -24 -59z" />
    <glyph glyph-name="quotesingle" unicode="'" horiz-adv-x="225" 
d="M30 794q30 0 30 -30v-98q0 -29 -30 -29t-30 29v98q0 30 30 30z" />
    <glyph glyph-name="quotedblleft" unicode="&#x201c;" horiz-adv-x="349" 
d="M30 825q30 0 30 -30v-114q0 -30 -30 -30t-30 30v114q0 30 30 30zM157 825q30 0 30 -30v-114q0 -30 -30 -30t-30 30v114q0 30 30 30z" />
    <glyph glyph-name="guillemotleft" unicode="&#xab;" horiz-adv-x="459" 
d="M146 401q0 -13 -9 -20l-68 -69l68 -69q20 -21 0 -41q-8 -8 -20 -8q-13 0 -21 8l-90 89q-21 21 0 42l90 89q8 8 21 8q29 0 29 -29zM300 401q0 -13 -9 -20l-68 -69l68 -69q20 -21 0 -41q-8 -8 -20 -8q-13 0 -21 8l-90 89q-21 21 0 42l90 89q8 8 21 8q29 0 29 -29z" />
    <glyph glyph-name="guilsinglleft" unicode="&#x2039;" horiz-adv-x="293" 
d="M133 392q0 -10 -8 -18l-61 -62l61 -62q18 -19 0 -37q-7 -7 -18 -7q-12 0 -19 7l-80 80q-19 19 0 38l80 80q7 7 19 7q26 0 26 -26z" />
    <glyph glyph-name="guilsinglright" unicode="&#x203a;" horiz-adv-x="290" 
d="M1 232q0 10 8 18l62 62l-62 62q-19 18 0 37q7 7 19 7q11 0 18 -7l80 -80q19 -19 0 -38l-80 -80q-18 -18 -37 0q-8 8 -8 19z" />
    <glyph glyph-name="fi" unicode="&#xfb01;" horiz-adv-x="441" 
d="M254 548q26 0 26 -26v-500q0 -26 -26 -26t-26 26v474h-155v-474q0 -26 -26 -26t-26 26v474h-16q-26 0 -26 26t26 26h16v44q0 90 51 147t131 57h44q26 0 26 -26t-26 -26h-44q-58 0 -94 -41.5t-36 -110.5v-44h181v0z" />
    <glyph glyph-name="fl" unicode="&#xfb02;" horiz-adv-x="553" 
d="M380 45q24 -6 20 -31q-5 -20 -25 -20q-50 0 -83 62q-28 52 -28 105v587l-65 -1q-58 -1 -94 -41.5t-36 -109.5v-44h88q26 0 26 -26t-26 -26h-88v-473q0 -25 -26 -25t-26 25v473h-15q-26 0 -26 26t26 26h15v44q0 89 50 145q51 56 132 58l91 1q26 0 26 -26v-613
q0 -63 31 -95q16 -17 33 -21z" />
    <glyph glyph-name="endash" unicode="&#x2013;" horiz-adv-x="537" 
d="M343 371q30 0 30 -30t-30 -30h-312q-30 0 -30 30t30 30h312v0z" />
    <glyph glyph-name="dagger" unicode="&#x2020;" horiz-adv-x="553" 
d="M250 797q26 0 26 -26v-945q0 -26 -26 -26t-26 26v945q0 26 26 26zM386 408q28 0 28 -28t-28 -28h-275q-28 0 -28 28t28 28h275z" />
    <glyph glyph-name="periodcentered" unicode="&#xb7;" horiz-adv-x="229" 
d="M30 338q30 0 30 -30v-15q0 -30 -30 -30t-30 30v15q0 30 30 30z" />
    <glyph glyph-name="paragraph" unicode="&#xb6;" horiz-adv-x="958" 
d="M803 250q4 -8 2 -9.5t-7 -2.5q-3 -1 -12.5 5.5t-20 11.5t-19.5 4.5t-13 -15.5q-5 -35 -16 -68t-22 -59q-13 -31 -29 -57h-174q10 25 6 44q-3 17 -20 31t-60 14t-60.5 -14t-22.5 -31q-5 -19 2 -44h-176q3 14 4 26q1 11 0.5 21.5t-5.5 16.5q-11 2 -23 -5.5t-23 -17.5
q-12 -11 -24 -27q-3 1 -10.5 5t-15.5 10t-14.5 13.5t-8.5 15.5q22 12 35.5 31t20.5 38.5t7.5 37t-3.5 27.5q-15 39 -28 77t-13 82q0 68 25.5 129t72 106.5t111.5 72.5t144 27q72 0 138 -24.5t113.5 -73.5t71.5 -122.5t13 -171.5q-3 -31 4 -50t17.5 -30t20.5 -16t12 -8z
M190 276q6 0 10.5 4t4.5 11q0 8 -4.5 11.5t-10.5 3.5q-8 0 -13 -3.5t-5 -11.5q0 -7 5 -11t13 -4zM461 308q38 41 43.5 81.5t-3.5 72.5t-23 52.5t-15 20.5q-23 30 -51.5 45t-60.5 17q-27 1 -50 -6t-40 -16t-27.5 -17.5t-11.5 -9.5q-2 -5 -3 -9t3 -6q3 -3 7.5 -4t7.5 4
q15 12 33 22q15 8 36 15t44 5q28 -2 51.5 -15t47.5 -40q1 -1 8 -9t14.5 -22t13 -32.5t5 -40t-11 -45.5t-34.5 -48l-1 -1q0 -1 -6.5 -8t-21.5 -17t-40 -22t-64 -23q-10 -2 -8 -12t10 -10q2 0 3 1q39 10 66 22t44 23.5t25 20t10 11.5z" />
    <glyph glyph-name="bullet" unicode="&#x2022;" horiz-adv-x="340" 
d="M87 303q-36 0 -64 28t-28 66q0 19 7.5 36t20.5 29.5t29.5 19.5t34.5 7q36 0 65 -27t29 -65q0 -37 -29 -66q-28 -28 -65 -28z" />
    <glyph glyph-name="quotesinglbase" unicode="&#x201a;" horiz-adv-x="231" 
d="M35 159q30 0 30 -30v-114q0 -30 -30 -30t-30 30v114q0 30 30 30z" />
    <glyph glyph-name="quotedblbase" unicode="&#x201e;" horiz-adv-x="358" 
d="M35 160q30 0 30 -30v-114q0 -30 -30 -30t-30 30v114q0 30 30 30zM162 160q30 0 30 -30v-114q0 -30 -30 -30t-30 30v114q0 30 30 30z" />
    <glyph glyph-name="quotedblright" unicode="&#x201d;" horiz-adv-x="349" 
d="M30 825q30 0 30 -30v-114q0 -30 -30 -30t-30 30v114q0 30 30 30zM157 825q30 0 30 -30v-114q0 -30 -30 -30t-30 30v114q0 30 30 30z" />
    <glyph glyph-name="guillemotright" unicode="&#xbb;" horiz-adv-x="456" 
d="M152 223q0 12 9 20l68 69l-68 69q-20 21 0 41q8 8 20 8q13 0 21 -8l90 -89q21 -21 0 -42l-90 -89q-8 -8 -21 -8q-29 0 -29 29zM-2 223q0 12 9 20l68 69l-68 69q-20 21 0 41q8 8 20 8q13 0 21 -8l90 -89q21 -21 0 -42l-90 -89q-8 -8 -21 -8q-29 0 -29 29z" />
    <glyph glyph-name="ellipsis" unicode="&#x2026;" horiz-adv-x="568" 
d="M30 69q30 0 30 -30v-15q0 -30 -30 -30t-30 30v15q0 30 30 30zM203 69q30 0 30 -30v-15q0 -30 -30 -30t-30 30v15q0 30 30 30zM376 69q30 0 30 -30v-15q0 -30 -30 -30t-30 30v15q0 30 30 30z" />
    <glyph glyph-name="perthousand" unicode="&#x2030;" horiz-adv-x="521" 
d="M31 4q-13 0 -20.5 11t-3.5 24l335 756q10 24 34 15t14 -33l-334 -756q-8 -17 -25 -17z" />
    <glyph glyph-name="questiondown" unicode="&#xbf;" horiz-adv-x="471" 
d="M225 -258q-97 0 -162 59t-65 148q0 109 55 173q34 40 112 82q58 31 77 52q30 34 30 86q0 28 30 28q29 0 29 -28q0 -74 -46 -123q-13 -14 -36 -30t-55 -34q-35 -20 -58.5 -38t-36.5 -32q-22 -26 -33.5 -59t-11.5 -77q0 -31 11.5 -56t33.5 -47q24 -23 55 -35t71 -12h32
q103 0 159 65q7 10 22 10q28 0 28 -28q0 -11 -7 -18q-71 -86 -202 -86h-32zM302 456q-34 0 -34 32v39q0 32 34 32q33 0 33 -32v-39q0 -32 -33 -32z" />
    <glyph glyph-name="grave" unicode="`" horiz-adv-x="305" 
d="M8 792q8 10 20 11.5t22 -6.5l82 -63q11 -8 12 -20t-7 -22q-8 -11 -20 -12.5t-22 6.5l-82 64q-10 8 -11.5 19.5t6.5 22.5z" />
    <glyph glyph-name="acute" unicode="&#xb4;" horiz-adv-x="287" 
d="M120 801q9 -10 8 -21.5t-10 -20.5l-3 -3l-68 -61l-6 -5q-11 -8 -22.5 -8t-19.5 10q-9 10 -8.5 22t10.5 20l3 2l75 68q9 8 21 7.5t20 -10.5z" />
    <glyph glyph-name="circumflex" unicode="&#x2c6;" horiz-adv-x="417" 
d="M233 639q-11 0 -18 7l-62 62l-62 -62q-18 -18 -37 0q-7 7 -7 19t7 19l80 80q19 19 38 0l80 -80q7 -7 7 -19q0 -26 -26 -26z" />
    <glyph glyph-name="tilde" unicode="&#x2dc;" horiz-adv-x="585" 
d="M47 501q-5 -5 -14 -3q-17 3 -19 24q1 15 13 22q48 36 107 36q57 0 98 -37q32 -29 72 -29q47 0 88 30q13 5 25 1q10 -4 10 -22q-3 -14 -14 -22q-50 -36 -109 -36q-50 0 -96 38q-31 31 -75 31q-49 0 -86 -33z" />
    <glyph glyph-name="dieresis" unicode="&#xa8;" horiz-adv-x="537" 
d="M100 665q-21 0 -37 15t-16 37q0 21 16 36t37 15t36 -15t15 -36q0 -22 -15 -37t-36 -15zM327 665q-21 0 -36 15t-15 37q0 21 15 36t36 15t36.5 -15t15.5 -36q0 -22 -15.5 -37t-36.5 -15z" />
    <glyph glyph-name="cedilla" unicode="&#xb8;" horiz-adv-x="240" 
d="M251 -58q8 -12 5.5 -23.5t-13.5 -18.5l-82 -54l-4 -3q-10 -8 -22 -5.5t-19 13.5q-8 11 -5.5 22t13.5 19l87 59q9 6 21 4t19 -13z" />
    <glyph glyph-name="hungarumlaut" unicode="&#x2dd;" horiz-adv-x="499" 
d="M1 734q11 10 23 8t19.5 -10.5t8 -20.5t-10.5 -21q-11 -8 -22.5 -8t-19.5 10q-9 10 -8.5 22t10.5 20zM120 801q9 -10 8 -22t-10 -20q-11 -10 -22.5 -8t-19 10.5t-8 20.5t10.5 22q8 8 20.5 7.5t20.5 -10.5zM79 804l39 -45l-77 -69l-40 44zM213 734q11 10 23 8t19.5 -10.5
t8 -20.5t-10.5 -21q-11 -8 -22.5 -8t-19.5 10q-9 10 -8.5 22t10.5 20zM332 801q9 -10 8 -22t-10 -20q-11 -10 -22.5 -8t-19 10.5t-8 20.5t10.5 22q8 8 20.5 7.5t20.5 -10.5zM291 804l39 -45l-77 -69l-40 44z" />
    <glyph glyph-name="emdash" unicode="&#x2014;" horiz-adv-x="700" 
d="M506 371q30 0 30 -30t-30 -30h-475q-30 0 -30 30t30 30h475v0z" />
    <glyph glyph-name="AE" unicode="&#xc6;" horiz-adv-x="866" 
d="M730 50q26 0 26 -27q0 -26 -26 -26l-359 2q-26 0 -26 26v188h-206l-93 -197q-6 -17 -26 -17q-26 0 -26 26q0 4 2 10l348 758q1 5 6 10q6 8 21 8l359 -2q26 0 26 -27q0 -26 -26 -26l-331 2v-322l243 -2q25 0 25 -27q0 -25 -25 -25l-243 2v-332zM345 266v392l-186 -392h186
z" />
    <glyph glyph-name="ordfeminine" unicode="&#xaa;" horiz-adv-x="602" 
d="M432 318q1 -1 1 -2v-292q0 -25 -27 -25t-27 25v55q-69 -84 -167 -84h-23q-197 0 -197 170q0 65 41 103q43 42 123 42h223v49q0 64 -46 109q-45 45 -109 45h-23q-95 0 -138 -82q-12 -23 -36 -11q-23 13 -11 36q29 51 77 81t108 30h23q86 0 147 -61t61 -147v-41zM379 258
h-224h-3q-55 0 -83 -28q-24 -23 -24 -65q0 -118 144 -118h23q69 0 121 61q46 52 46 95v55z" />
    <glyph glyph-name="Oslash" unicode="&#xd8;" horiz-adv-x="706" 
d="M528 820q22 -14 9 -36l-42 -70q54 -69 54 -160v-300q0 -109 -76 -185q-75 -76 -183 -76h-29q-95 0 -166 59l-32 -52q-13 -22 -35 -10q-23 14 -10 36l39 64q-57 70 -57 164v300q0 108 76 184q77 77 185 77h29q97 0 168 -62l35 58q13 22 35 9zM54 254q0 -65 33 -114
l342 566q-58 55 -139 55h-29q-86 0 -147 -61q-60 -60 -60 -146v-300zM495 554q0 61 -31 110l-341 -565q58 -52 138 -52h29q86 0 145 60q60 61 60 147v300z" />
    <glyph glyph-name="OE" unicode="&#x152;" horiz-adv-x="842" 
d="M710 53q26 0 26 -27q0 -26 -26 -26h-387h-2h-63q-108 0 -183 75t-75 183v295q0 107 75 182q76 76 183 76h65h2h385q26 0 26 -27q0 -26 -26 -26h-355v-322h267q24 0 24 -27q0 -24 -24 -24h-267v-332h355zM114 107q60 -60 147 -60h38v714h-38q-86 0 -147 -61
q-60 -60 -60 -146v-300q0 -87 60 -147z" />
    <glyph glyph-name="ordmasculine" unicode="&#xba;" horiz-adv-x="597" 
d="M232 567q86 0 148 -62t62 -147v-156q0 -86 -62 -148q-61 -61 -148 -61h-22q-87 0 -148 61q-62 62 -62 148v156q0 85 62 147t148 62h22zM388 358q0 64 -46 110t-110 46h-22q-65 0 -111 -46q-45 -45 -45 -110v-156q0 -66 45 -111t111 -45h22q65 0 110 45q46 46 46 111v156z
" />
    <glyph glyph-name="ae" unicode="&#xe6;" horiz-adv-x="966" 
d="M432 318q1 -1 1 -2v-194q-12 -1 -54 -43q-69 -84 -167 -84h-23q-197 0 -197 170q0 65 41 103q43 42 123 42h223v49q0 64 -46 109q-45 45 -109 45h-23q-95 0 -138 -82q-12 -23 -36 -11q-23 13 -11 36q29 51 77 81t108 30h23q86 0 147 -61t61 -147v-41zM379 258h-224h-3
q-55 0 -83 -28q-24 -23 -24 -65q0 -118 144 -118h23q69 0 121 61q46 52 46 95v55zM615 567q85 0 147 -62q61 -61 61 -147v-62q0 -26 -26 -26h-362v-68q0 -66 45 -111t111 -45h24q51 0 90.5 28.5t55.5 76.5q6 18 26 18q27 0 27 -28q0 -5 -1 -8q-12 -32 -32 -57.5t-46 -44.5
t-56.5 -29t-63.5 -10h-24q-87 0 -148 61q-62 62 -62 149v156q0 85 62 147t148 62h24zM769 358q0 65 -45 110t-109 45h-24q-66 0 -111 -45t-45 -110v-35h334v35z" />
    <glyph glyph-name="oslash" unicode="&#xf8;" horiz-adv-x="618" 
d="M407 562q18 25 42 7t7 -43l-44 -60q30 -48 30 -108v-156q0 -86 -62 -148q-61 -61 -148 -61h-22q-68 0 -121 38l-23 -31q-18 -23 -42 -5q-23 17 -7 41l27 37q-44 56 -44 129v156q0 85 62 147t148 62h22q80 0 139 -53zM54 202q0 -46 23 -84l262 353q-43 43 -107 43h-22
q-65 0 -111 -46q-45 -45 -45 -110v-156zM388 358q0 33 -12 60l-256 -345q39 -27 90 -27h22q65 0 110 45q46 46 46 111v156z" />
    <glyph glyph-name="oe" unicode="&#x153;" horiz-adv-x="970" 
d="M619 567q85 0 147 -62q61 -61 61 -147v-62q0 -26 -26 -26h-359v-68q0 -6 -0.5 -12t-1.5 -12q8 -51 44 -87q45 -45 111 -45h24q51 0 90.5 28.5t55.5 76.5q6 18 26 18q27 0 27 -28q0 -5 -1 -8q-12 -32 -32 -57.5t-46 -44.5t-56.5 -29t-63.5 -10h-24q-87 0 -148 61
q-10 10 -18.5 20.5t-15.5 21.5q-14 -22 -33 -41q-61 -61 -148 -61h-22q-87 0 -148 61q-62 62 -62 148v156q0 85 62 147t148 62h22q86 0 148 -62q10 -10 18 -20t15 -21q7 11 15.5 21t18.5 20q62 62 148 62h24zM342 91q36 36 44 87q-1 6 -1 12v12v156v12t1 11q-8 51 -44 87
q-45 46 -110 46h-22q-65 0 -111 -46q-45 -45 -45 -110v-156q0 -66 45 -111t111 -45h22q65 0 110 45zM773 358q0 65 -45 110t-109 45h-24q-66 0 -111 -45q-36 -36 -44 -87q1 -5 1.5 -11t0.5 -12v-35h331v35z" />
    <glyph glyph-name="germandbls" unicode="&#xdf;" horiz-adv-x="556" 
d="M296 413q49 -24 77 -70.5t28 -108.5v-43q0 -42 -16 -78.5t-43 -63.5t-63.5 -42.5t-77.5 -15.5h-15q-10 0 -16.5 6.5t-6.5 16.5t6.5 17t16.5 7h15q31 0 59 12t49 32.5t33 48.5t12 60v43q0 28 -9 55.5t-28 49.5t-48 35t-68 13h-6q-10 0 -16.5 6.5t-6.5 16.5t6.5 17t16.5 7
h12q25 0 47.5 9.5t39.5 26t26.5 39t9.5 47.5v13q0 23 -7.5 45t-22.5 39t-38 27.5t-55 10.5h-24q-28 0 -52 -13.5t-42 -37t-28.5 -56t-10.5 -71.5v-583q0 -10 -7 -17t-17 -7t-17 7t-7 17v583q0 49 12.5 90.5t35.5 71.5t57 46.5t76 16.5h24q84 0 127 -47t43 -122v-13
q0 -46 -22.5 -83.5t-58.5 -59.5z" />
    <glyph glyph-name="mu" unicode="&#xb5;" horiz-adv-x="568" 
d="M25 449q26 0 26 -24v-240q0 -60 42 -103q42 -42 102 -42h17q60 0 102 42q42 43 42 103v240q0 24 25 24t25 -24v-240q0 -80 -57 -137q-58 -56 -137 -56h-17q-86 0 -144 64v-275q0 -25 -26 -25q-24 0 -24 25v644q0 24 24 24z" />
    <glyph glyph-name="trademark" unicode="&#x2122;" horiz-adv-x="838" 
d="M653 807q15 -5 15 -20v-359q0 -21 -21 -21t-21 21v293l-99 -140q-6 -9 -17 -9t-17 9l-101 141v-294q0 -21 -21 -21t-21 21v359q0 15 14 20q16 5 24 -8l122 -170l120 170q7 13 23 8zM278 808q21 0 21 -21t-21 -21h-107v-341q0 -21 -21 -21t-21 21v341h-108q-21 0 -21 21
t21 21h257z" />
    <glyph glyph-name="Eth" unicode="&#xd0;" horiz-adv-x="706" 
d="M281 812q106 0 182 -76t76 -182v-297q0 -107 -76 -182q-75 -75 -182 -75h-254q-26 0 -26 26v349h-47q-30 0 -30 30t30 30h47v351q0 26 26 26h254zM237 435q30 0 30 -30t-30 -30h-183v-322h227q85 0 145 60t60 144v297q0 86 -60 145q-60 60 -145 60h-227v-324h183z" />
    <glyph glyph-name="plusminus" unicode="&#xb1;" horiz-adv-x="576" 
d="M416 398q30 0 30 -30t-30 -30h-161v-155q0 -29 -30 -29t-30 29v155h-161q-30 0 -30 30t30 30h161v154q0 30 30 30t30 -30v-154h161zM29 53q-26 0 -26 26q0 27 26 27h392q26 0 26 -27q0 -26 -26 -26h-392z" />
    <glyph glyph-name="Thorn" unicode="&#xde;" horiz-adv-x="601" 
d="M37 3q-27 0 -27 27v755q0 27 27 27q26 0 26 -27v-147q61 73 160 73h22q87 0 148 -61t61 -146v-157q0 -87 -61 -148q-60 -61 -148 -61h-22q-99 0 -160 75v-183q0 -27 -26 -27zM67 347q0 -64 45 -110q45 -45 111 -45h22q65 0 110 45q46 46 46 110v157q0 63 -46 109t-110 46
h-22q-66 0 -111 -46q-45 -45 -45 -109v-157z" />
    <glyph glyph-name="divide" unicode="&#xf7;" horiz-adv-x="557" 
d="M406 371q30 0 30 -30t-30 -30h-375q-30 0 -30 30t30 30h375zM222 559q30 0 30 -30v-25q0 -30 -30 -30t-30 30v25q0 30 30 30zM222 205q30 0 30 -30v-25q0 -30 -30 -30t-30 30v25q0 30 30 30z" />
    <glyph glyph-name="brokenbar" unicode="&#xa6;" horiz-adv-x="223" 
d="M26 -46q-26 0 -26 26v360q0 26 26 26t26 -26v-360q0 -26 -26 -26zM26 464q-26 0 -26 26v343q0 26 26 26t26 -26v-343q0 -26 -26 -26z" />
    <glyph glyph-name="degree" unicode="&#xb0;" horiz-adv-x="384" 
d="M115 593q-44 0 -78 32q-32 32 -32 79q0 45 32 77q33 33 78 33q47 0 79 -33q32 -32 32 -77q0 -48 -31.5 -79.5t-79.5 -31.5zM115 768q-25 0 -44.5 -19.5t-19.5 -44.5q0 -13 5.5 -25t14.5 -21t20.5 -14.5t23.5 -5.5q27 0 46.5 20t19.5 46q0 25 -19.5 44.5t-46.5 19.5z" />
    <glyph glyph-name="thorn" unicode="&#xfe;" horiz-adv-x="601" 
d="M37 3q-27 0 -27 27v755q0 27 27 27q26 0 26 -27v-163q61 73 160 73h22q87 0 148 -61t61 -146v-157q0 -87 -61 -148q-60 -61 -148 -61h-22q-99 0 -160 75v-167q0 -27 -26 -27zM67 331q0 -64 45 -110q45 -45 111 -45h22q65 0 110 45q46 46 46 110v157q0 63 -46 109t-110 46
h-22q-66 0 -111 -46q-45 -45 -45 -109v-157z" />
    <glyph glyph-name="registered" unicode="&#xae;" horiz-adv-x="816" 
d="M392 776q111 0 190 -79q79 -78 79 -190v-207q0 -111 -79 -190q-80 -78 -190 -78h-123q-112 0 -191 78q-78 78 -78 190v207q0 112 78 190q79 79 191 79h123zM607 507q0 89 -63 152t-152 63h-123q-89 0 -152 -63t-63 -152v-207q0 -89 63 -152t152 -63h123q89 0 152 63
t63 152v207zM483 235q5 -11 0.5 -23t-15.5 -17q-6 -3 -12 -3q-20 0 -28 18l-70 152h-10h-92v-140q0 -12 -8.5 -20.5t-20.5 -8.5t-20.5 8.5t-8.5 20.5v366q0 12 8.5 20.5t20.5 8.5h121q55 0 93 -36q34 -34 34 -86v-12q0 -51 -34 -85q-11 -11 -24 -19zM256 420h92
q32 0 50.5 17t18.5 46v12q0 29 -18.5 46.5t-50.5 17.5h-92v-139z" />
    <glyph glyph-name="minus" unicode="&#x2212;" horiz-adv-x="511" 
d="M312 412q30 0 30 -30t-30 -30h-283q-30 0 -30 30t30 30h283v0z" />
    <glyph glyph-name="eth" unicode="&#xf0;" horiz-adv-x="603" 
d="M247 641q-18 21 3 37l58 49q-35 26 -79 26q-24 0 -24 27q0 26 24 26q67 0 120 -44l53 45q19 16 36 -3q16 -20 -3 -36l-51 -44q51 -66 51 -143l-4 -412q-41 -173 -202 -173h-21q-86 0 -147 61t-61 146v155q0 84 61 145t147 61h21q103 0 155 -82v99q0 59 -39 109l-61 -52
q-20 -17 -37 3zM208 511q-64 0 -110 -46q-45 -45 -45 -107v-155q0 -64 45 -109q46 -45 110 -45h21q64 0 109 45q46 45 46 109v155q0 61 -46 107t-109 46h-21z" />
    <glyph glyph-name="multiply" unicode="&#xd7;" horiz-adv-x="518" 
d="M339 253q19 -20 0 -39t-38 1l-115 116l-117 -116q-19 -19 -38 1q-19 18 0 37l117 117l-116 115q-19 19 0 38t39 0l115 -115l116 114q19 19 38 0q19 -18 0 -37l-116 -116l115 -116v0z" />
    <glyph glyph-name="copyright" unicode="&#xa9;" horiz-adv-x="816" 
d="M392 776q111 0 190 -79q79 -78 79 -190v-207q0 -111 -79 -190q-80 -78 -190 -78h-123q-112 0 -191 78q-78 78 -78 190v207q0 112 78 190q79 79 191 79h123zM607 507q0 89 -63 152t-152 63h-123q-89 0 -152 -63t-63 -152v-207q0 -89 63 -152t152 -63h123q89 0 152 63
t63 152v207zM457 340q26 0 26 -27q0 -47 -54 -84q-49 -34 -97 -34h-16q-65 0 -111 45q-46 46 -46 111v111q0 65 46 110q46 46 111 46h16q48 0 87 -26t58 -69q2 -6 2 -11q0 -17 -16 -24q-26 -11 -36 14q-27 62 -95 62h-16q-21 0 -39.5 -8t-32.5 -21.5t-22 -32.5t-8 -40v-111
q0 -21 8 -39.5t22 -32.5t32.5 -22t39.5 -8h16q35 0 62.5 20t36.5 52q6 19 26 19z" />
    <glyph glyph-name="Aacute" unicode="&#xc1;" horiz-adv-x="754" 
d="M617 37q2 -6 2 -11q0 -26 -26 -26q-19 0 -25 17l-74 197h-370l-72 -197q-6 -17 -26 -17q-26 0 -26 26q0 4 2 10l282 758q6 19 25 17q18 0 24 -17zM473 267l-164 443l-165 -443h329zM413 1000q9 -10 8 -21.5t-10 -20.5l-3 -3l-68 -61l-6 -5q-11 -8 -22.5 -8t-19.5 10
q-9 10 -8 21t10 20l3 3l75 68q9 8 21 7.5t20 -10.5z" />
    <glyph glyph-name="Acircumflex" unicode="&#xc2;" horiz-adv-x="754" 
d="M309 911q-16 -16 -31.5 -31t-31.5 -31q-9 -9 -18 -9q-8 0 -17 7.5t-9 20.5q0 12 7 19l81 81q10 10 19 10q7 0 19 -10l81 -81q7 -7 7 -19q0 -14 -9 -21t-17 -7q-9 0 -18 9q-16 16 -31.5 31t-31.5 31zM617 37q2 -6 2 -11q0 -26 -26 -26q-19 0 -25 17l-74 197h-370l-72 -197
q-6 -17 -26 -17q-26 0 -26 26q0 4 2 10l282 758q6 19 25 17q18 0 24 -17zM473 267l-164 443l-165 -443h329z" />
    <glyph glyph-name="Adieresis" unicode="&#xc4;" horiz-adv-x="773" 
d="M637 37q1 -3 1 -9q0 -18 -17 -26q-26 -9 -35 15l-78 198h-382l-73 -197q-6 -17 -25 -17q-28 0 -28 27q0 2 2 8l283 760q6 17 26 17q19 0 25 -16zM487 268l-175 444l-165 -444h340zM190 884q-23 0 -39 15.5t-16 38.5q0 22 16 38t39 16q22 0 38.5 -16t16.5 -38
q0 -23 -16.5 -38.5t-38.5 -15.5zM434 884q-23 0 -39 15.5t-16 38.5q0 22 16 38t39 16t39 -16t16 -38q0 -23 -16 -38.5t-39 -15.5z" />
    <glyph glyph-name="Agrave" unicode="&#xc0;" horiz-adv-x="754" 
d="M617 37q2 -6 2 -11q0 -26 -26 -26q-19 0 -25 17l-74 197h-370l-72 -197q-6 -17 -26 -17q-26 0 -26 26q0 4 2 10l282 758q6 19 25 17q18 0 24 -17zM473 267l-164 443l-165 -443h329zM205 1000q8 10 20 10.5t21 -7.5l75 -68l3 -3q9 -9 10 -20t-8 -21q-8 -10 -19.5 -10
t-22.5 8l-6 5l-68 61l-3 3q-9 9 -10 20.5t8 21.5z" />
    <glyph glyph-name="Aring" unicode="&#xc5;" horiz-adv-x="759" 
d="M622 34q2 -6 2 -9q0 -26 -27 -26q-18 0 -24 17l-76 196h-369l-72 -196q-6 -17 -24 -17q-27 0 -27 26q0 3 2 9l274 757q7 19 24 19q18 0 26 -18zM477 265l-171 443l-159 -443h330zM303 863q-44 0 -78 32q-32 32 -32 79q0 45 32 77q33 33 78 33q47 0 79 -33q32 -32 32 -77
q0 -48 -31.5 -79.5t-79.5 -31.5zM303 1036q-25 0 -43.5 -18.5t-18.5 -43.5q0 -26 18.5 -45t43.5 -19q27 0 45.5 19t18.5 45q0 25 -18.5 43.5t-45.5 18.5z" />
    <glyph glyph-name="Atilde" unicode="&#xc3;" horiz-adv-x="754" 
d="M617 37q2 -6 2 -11q0 -26 -26 -26q-19 0 -25 17l-74 197h-370l-72 -197q-6 -17 -26 -17q-26 0 -26 26q0 4 2 10l282 758q6 19 25 17q18 0 24 -17zM473 267l-164 443l-165 -443h329zM413 972q0 11 7.5 19t18.5 8t19 -8t8 -19q-2 -26 -9.5 -43.5t-18.5 -28t-25 -15
t-27 -4.5q-21 0 -39.5 7.5t-46.5 28.5q-23 17 -35 26t-25 9q-12 0 -22 -9t-12 -35q0 -11 -7.5 -19t-18.5 -8t-19 8t-8 19q2 54 26 76t57 22q23 0 40.5 -8t44.5 -28q23 -17 36.5 -24.5t25.5 -7.5t20 7t10 27z" />
    <glyph glyph-name="Ccedilla" unicode="&#xc7;" horiz-adv-x="675" 
d="M161 -105q12 8 23.5 4.5t18 -13t5.5 -21.5t-14 -19q-11 -6 -22.5 -4.5t-18.5 12.5q-8 11 -5.5 22t13.5 19zM288 -55q8 -12 5.5 -23t-13.5 -19q-12 -8 -23.5 -4.5t-17.5 13t-5 21.5t14 21q9 6 21 4t19 -13zM248 -46l32 -51l-86 -57l-33 49zM528 256q27 -2 24 -30
q-9 -100 -85 -168q-73 -67 -176 -67h-29q-110 0 -186 76t-76 185v303q0 109 76 185q77 77 186 77h29q103 0 177 -70q75 -69 84 -170q2 -28 -25 -29q-25 -1 -28 25q-6 79 -67 135q-59 55 -141 55h-29q-87 0 -148 -61q-60 -62 -60 -147v-303q0 -86 60 -147q61 -61 148 -61h29
q81 0 140 53q60 55 67 135q3 27 30 24z" />
    <glyph glyph-name="Eacute" unicode="&#xc9;" horiz-adv-x="642" 
d="M321 986q8 -11 5.5 -22.5t-13.5 -18.5l-82 -56l-4 -2q-11 -6 -22.5 -4.5t-18.5 12.5q-8 11 -5.5 22t13.5 19l87 59q9 6 21 4t19 -13zM481 53q26 0 26 -27q0 -26 -26 -26h-455q-26 0 -26 26v759q0 27 26 27h455q26 0 26 -27q0 -26 -26 -26h-427v-322h339q25 0 25 -27
q0 -25 -25 -25h-339v-332h427z" />
    <glyph glyph-name="Ecircumflex" unicode="&#xca;" horiz-adv-x="642" 
d="M481 53q26 0 26 -27q0 -26 -26 -26h-455q-26 0 -26 26v759q0 27 26 27h455q26 0 26 -27q0 -26 -26 -26h-427v-322h339q25 0 25 -27q0 -25 -25 -25h-339v-332h427zM253 912q-16 -16 -31.5 -31t-31.5 -31q-9 -9 -18 -9q-8 0 -17 7.5t-9 20.5q0 12 7 19l81 81q10 10 19 10
q7 0 19 -10l81 -81q7 -7 7 -19q0 -14 -9 -21t-17 -7q-9 0 -18 9q-16 16 -31.5 31t-31.5 31z" />
    <glyph glyph-name="Edieresis" unicode="&#xcb;" horiz-adv-x="601" 
d="M480 52q26 0 26 -27q0 -26 -26 -26h-455q-26 0 -26 26v759q0 27 26 27h455q26 0 26 -27q0 -26 -26 -26h-427v-322h339q25 0 25 -27q0 -25 -25 -25h-339v-332h427zM136 865q-21 0 -37 15t-16 37q0 21 16 36t37 15t36 -15t15 -36q0 -22 -15 -37t-36 -15zM363 865
q-21 0 -36 15t-15 37q0 21 15 36t36 15t36.5 -15t15.5 -36q0 -22 -15.5 -37t-36.5 -15z" />
    <glyph glyph-name="Egrave" unicode="&#xc8;" horiz-adv-x="642" 
d="M481 53q26 0 26 -27q0 -26 -26 -26h-455q-26 0 -26 26v759q0 27 26 27h455q26 0 26 -27q0 -26 -26 -26h-427v-322h339q25 0 25 -27q0 -25 -25 -25h-339v-332h427zM189 994q8 10 20 11.5t22 -6.5l82 -63q11 -8 12 -20t-7 -22q-8 -11 -20 -12.5t-22 6.5l-82 64
q-10 8 -11.5 19.5t6.5 22.5z" />
    <glyph glyph-name="Icircumflex" unicode="&#xce;" horiz-adv-x="245" 
d="M128 848q-11 0 -18 7l-63 62l-63 -62q-18 -18 -37 0q-7 7 -7 19t7 19l81 81q19 19 38 0l81 -81q18 -18 0 -38q-7 -7 -19 -7zM46 0q-26 0 -26 26v758q0 26 26 26q27 0 27 -26v-758q0 -26 -27 -26z" />
    <glyph glyph-name="Idieresis" unicode="&#xcf;" horiz-adv-x="225" 
d="M26 0q-26 0 -26 26v758q0 26 26 26q27 0 27 -26v-758q0 -26 -27 -26zM-85 884q-21 0 -37 15t-16 37q0 21 16 36t37 15t36 -15t15 -36q0 -22 -15 -37t-36 -15zM142 884q-21 0 -36 15t-15 37q0 21 15 36t36 15t36.5 -15t15.5 -36q0 -22 -15.5 -37t-36.5 -15z" />
    <glyph glyph-name="Ntilde" unicode="&#xd1;" horiz-adv-x="728" 
d="M143 837q-5 -3 -11 -2q-13 1 -15 19q2 11 10 17q37 31 84 31q43 0 75 -32q25 -24 57 -24q38 0 69 25q8 4 19 1q8 -5 8 -17q-1 -12 -11 -18q-37 -31 -85 -31q-39 0 -74 32q-26 24 -58 24q-39 0 -68 -25zM531 809q25 0 25 -25v-759q0 -25 -25 -25q-14 0 -22 11l-458 689
v-673q0 -27 -26 -27q-25 0 -25 27v757q0 19 18 24q19 4 29 -10l459 -689v675q0 25 25 25z" />
    <glyph glyph-name="Oacute" unicode="&#xd3;" horiz-adv-x="684" 
d="M290 822q108 0 183 -77q76 -76 76 -184v-300q0 -109 -76 -185q-75 -76 -183 -76h-29q-109 0 -185 76t-76 185v300q0 108 76 184q77 77 185 77h29zM495 561q0 84 -60 146q-60 61 -145 61h-29q-86 0 -147 -61q-60 -60 -60 -146v-300q0 -87 60 -147t147 -60h29q86 0 145 60
q60 61 60 147v300zM373 1011q9 -10 8 -21.5t-10 -20.5l-3 -3l-68 -61l-6 -5q-11 -8 -22.5 -8t-19.5 10q-9 10 -8 21t10 20l3 3l75 68q9 8 21 7.5t20 -10.5z" />
    <glyph glyph-name="Ocircumflex" unicode="&#xd4;" horiz-adv-x="684" 
d="M290 822q108 0 183 -77q76 -76 76 -184v-300q0 -109 -76 -185q-75 -76 -183 -76h-29q-109 0 -185 76t-76 185v300q0 108 76 184q77 77 185 77h29zM495 561q0 84 -60 146q-60 61 -145 61h-29q-86 0 -147 -61q-60 -60 -60 -146v-300q0 -87 60 -147t147 -60h29q86 0 145 60
q60 61 60 147v300zM274 922q-16 -16 -31.5 -31t-31.5 -31q-9 -9 -18 -9q-8 0 -17 7.5t-9 20.5q0 12 7 19l81 81q10 10 19 10q7 0 19 -10l81 -81q7 -7 7 -19q0 -14 -9 -21t-17 -7q-9 0 -18 9q-16 16 -31.5 31t-31.5 31z" />
    <glyph glyph-name="Odieresis" unicode="&#xd6;" horiz-adv-x="715" 
d="M288 814q108 0 184 -76q77 -77 77 -184v-301q0 -106 -77 -183q-76 -76 -184 -76h-29q-107 0 -183 76t-76 183v301q0 108 76 184t183 76h29zM495 554q0 85 -61 145q-62 60 -146 60h-29q-84 0 -145 -60q-60 -59 -60 -145v-301q0 -85 60 -145t145 -60h29q86 0 146 60
q61 61 61 145v301zM155 884q-23 0 -39 16t-16 38q0 23 16 39t39 16q22 0 38 -16t16 -39q0 -22 -16 -38t-38 -16zM393 884q-22 0 -37.5 16t-15.5 38q0 23 15.5 39t37.5 16q24 0 39.5 -16t15.5 -39q0 -22 -15.5 -38t-39.5 -16z" />
    <glyph glyph-name="Ograve" unicode="&#xd2;" horiz-adv-x="684" 
d="M290 822q108 0 183 -77q76 -76 76 -184v-300q0 -109 -76 -185q-75 -76 -183 -76h-29q-109 0 -185 76t-76 185v300q0 108 76 184q77 77 185 77h29zM495 561q0 84 -60 146q-60 61 -145 61h-29q-86 0 -147 -61q-60 -60 -60 -146v-300q0 -87 60 -147t147 -60h29q86 0 145 60
q60 61 60 147v300zM168 1005q8 10 20 11.5t22 -6.5l82 -63q11 -8 12 -20t-7 -22q-8 -11 -20 -12.5t-22 6.5l-82 64q-10 8 -11.5 19.5t6.5 22.5z" />
    <glyph glyph-name="Otilde" unicode="&#xd5;" horiz-adv-x="684" 
d="M290 822q108 0 183 -77q76 -76 76 -184v-300q0 -109 -76 -185q-75 -76 -183 -76h-29q-109 0 -185 76t-76 185v300q0 108 76 184q77 77 185 77h29zM495 561q0 84 -60 146q-60 61 -145 61h-29q-86 0 -147 -61q-60 -60 -60 -146v-300q0 -87 60 -147t147 -60h29q86 0 145 60
q60 61 60 147v300zM378 983q0 11 7.5 19t18.5 8t19 -8t8 -19q-2 -26 -9.5 -43.5t-18.5 -28t-25 -15t-27 -4.5q-21 0 -39.5 7.5t-46.5 28.5q-23 17 -35 26t-25 9q-12 0 -22 -9t-12 -35q0 -11 -7.5 -19t-18.5 -8t-19 8t-8 19q2 54 26 76t57 22q23 0 40.5 -8t44.5 -28
q23 -17 36.5 -24.5t25.5 -7.5t20 7t10 27z" />
    <glyph glyph-name="Uacute" unicode="&#xda;" horiz-adv-x="712" 
d="M524 818q26 0 26 -27v-530q0 -108 -77 -185q-76 -76 -184 -76h-28q-108 0 -184 76q-77 77 -77 185v530q0 27 27 27q28 0 28 -27v-530q0 -87 60 -147t146 -60h28q86 0 146 60q61 61 61 147v530q0 27 28 27zM336 1007q9 -10 8 -21.5t-10 -20.5l-3 -3l-68 -61l-6 -5
q-11 -8 -22.5 -8t-19.5 10q-9 10 -8 21t10 20l3 3l75 68q9 8 21 7.5t20 -10.5z" />
    <glyph glyph-name="Ucircumflex" unicode="&#xdb;" horiz-adv-x="719" 
d="M524 810q26 0 26 -27v-530q0 -108 -77 -185q-76 -76 -184 -76h-28q-108 0 -184 76q-77 77 -77 185v530q0 27 27 27q28 0 28 -27v-530q0 -87 60 -147t146 -60h28q86 0 146 60q61 61 61 147v530q0 27 28 27zM357 852q-11 0 -18 7l-62 62l-62 -62q-18 -18 -37 0q-7 7 -7 19
t7 19l80 80q19 19 38 0l80 -80q7 -7 7 -19q0 -26 -26 -26z" />
    <glyph glyph-name="Udieresis" unicode="&#xdc;" horiz-adv-x="719" 
d="M153 884q-23 0 -39 16t-16 38q0 23 16 39t39 16q22 0 38 -16t16 -39q0 -22 -16 -38t-38 -16zM391 884q-22 0 -37.5 16t-15.5 38q0 23 15.5 39t37.5 16q24 0 39.5 -16t15.5 -39q0 -22 -15.5 -38t-39.5 -16zM524 810q26 0 26 -27v-530q0 -108 -77 -185q-76 -76 -184 -76
h-28q-108 0 -184 76q-77 77 -77 185v530q0 27 27 27q28 0 28 -27v-530q0 -87 60 -147t146 -60h28q86 0 146 60q61 61 61 147v530q0 27 28 27z" />
    <glyph glyph-name="Ugrave" unicode="&#xd9;" horiz-adv-x="685" 
d="M524 818q26 0 26 -27v-530q0 -108 -77 -185q-76 -76 -184 -76h-28q-108 0 -184 76q-77 77 -77 185v530q0 27 27 27q28 0 28 -27v-530q0 -87 60 -147t146 -60h28q86 0 146 60q61 61 61 147v530q0 27 28 27zM211 1000q8 10 20 11.5t22 -6.5l82 -63q11 -8 12 -20t-7 -22
q-8 -11 -20 -12.5t-22 6.5l-82 64q-10 8 -11.5 19.5t6.5 22.5z" />
    <glyph glyph-name="Yacute" unicode="&#xdd;" horiz-adv-x="635" 
d="M488 806q23 -12 12 -35l-215 -426v-319q0 -26 -25 -26q-28 0 -28 26v319l-228 425q-12 23 11 35q23 14 36 -10l208 -386l192 385q13 25 37 12zM327 984q8 -11 5.5 -22.5t-13.5 -18.5l-82 -56l-4 -2q-11 -6 -22.5 -4.5t-18.5 12.5q-8 11 -5.5 22t13.5 19l87 59q9 6 21 4
t19 -13z" />
    <glyph glyph-name="Ydieresis" unicode="&#x178;" horiz-adv-x="635" 
d="M488 806q23 -12 12 -35l-215 -426v-319q0 -26 -25 -26q-28 0 -28 26v319l-228 425q-12 23 11 35q23 14 36 -10l208 -386l192 385q13 25 37 12zM145 913q-21 0 -37 15t-16 37q0 21 16 36t37 15t36 -15t15 -36q0 -22 -15 -37t-36 -15zM372 913q-21 0 -36 15t-15 37
q0 21 15 36t36 15t36.5 -15t15.5 -36q0 -22 -15.5 -37t-36.5 -15z" />
    <glyph glyph-name="aacute" unicode="&#xe1;" horiz-adv-x="576" 
d="M441 34q0 -26 -27 -26q-26 0 -26 26v51q-70 -85 -168 -85h-23q-197 0 -197 171q0 65 40 102q44 43 124 43h224v48q0 64 -46 109q-46 46 -110 46h-23q-94 0 -138 -83q-12 -23 -36 -11q-23 13 -11 36q28 52 76.5 81.5t108.5 29.5h23q86 0 147 -61q62 -62 62 -147v-330z
M388 263h-225h-3q-52 0 -83 -28q-25 -25 -25 -64q0 -119 145 -119h23q69 0 121 61q47 53 47 95v55zM324 761q9 -10 8 -21.5t-10 -20.5l-3 -3l-68 -61l-6 -5q-11 -8 -22.5 -8t-19.5 10q-9 10 -8 21t10 20l3 3l75 68q9 8 21 7.5t20 -10.5z" />
    <glyph glyph-name="acircumflex" unicode="&#xe2;" horiz-adv-x="576" 
d="M441 335v-13v-288q0 -26 -27 -26q-26 0 -26 26v51q-70 -85 -168 -85h-23q-197 0 -197 171q0 65 40 102q44 43 124 43h224v48q0 64 -46 109q-46 46 -110 46h-23q-94 0 -138 -83q-12 -23 -36 -11q-23 13 -11 36q28 52 76.5 81.5t108.5 29.5h23q86 0 147 -61q62 -62 62 -147
v-29zM388 263h-225h-3q-52 0 -83 -28q-25 -25 -25 -64q0 -119 145 -119h23q69 0 121 61q47 53 47 95v55zM220 672q-16 -16 -31.5 -31t-31.5 -31q-9 -9 -18 -9q-8 0 -17 7.5t-9 20.5q0 12 7 19l81 81q10 10 19 10q7 0 19 -10l81 -81q7 -7 7 -19q0 -14 -9 -21t-17 -7
q-9 0 -18 9q-16 16 -31.5 31t-31.5 31z" />
    <glyph glyph-name="adieresis" unicode="&#xe4;" horiz-adv-x="589" 
d="M432 316q1 -1 1 -2v-288q0 -26 -27 -26q-26 0 -26 26v51q-70 -85 -168 -85h-23q-197 0 -197 171q0 65 40 102q44 43 124 43h224v48q0 64 -46 109q-46 46 -110 46h-23q-94 0 -138 -83q-12 -23 -36 -11q-23 13 -11 36q28 52 76.5 81.5t108.5 29.5h23q86 0 147 -61t61 -147
v-40zM380 255h-225h-3q-52 0 -83 -28q-25 -25 -25 -64q0 -119 145 -119h23q69 0 121 61q47 53 47 95v55zM98 668q-21 0 -37 15t-16 37q0 21 16 36t37 15t36 -15t15 -36q0 -22 -15 -37t-36 -15zM325 668q-21 0 -36 15t-15 37q0 21 15 36t36 15t36.5 -15t15.5 -36
q0 -22 -15.5 -37t-36.5 -15z" />
    <glyph glyph-name="agrave" unicode="&#xe0;" horiz-adv-x="576" 
d="M441 34q0 -26 -27 -26q-26 0 -26 26v51q-70 -85 -168 -85h-23q-197 0 -197 171q0 65 40 102q44 43 124 43h224v48q0 64 -46 109q-46 46 -110 46h-23q-94 0 -138 -83q-12 -23 -36 -11q-23 13 -11 36q28 52 76.5 81.5t108.5 29.5h23q86 0 147 -61q62 -62 62 -147v-330z
M388 263h-225h-3q-52 0 -83 -28q-25 -25 -25 -64q0 -119 145 -119h23q69 0 121 61q47 53 47 95v55zM160 761q8 10 20 10.5t21 -7.5l75 -68l3 -3q9 -9 10 -20t-8 -21q-8 -10 -19.5 -10t-22.5 8l-6 5l-68 61l-3 3q-9 9 -10 20.5t8 21.5z" />
    <glyph glyph-name="aring" unicode="&#xe5;" horiz-adv-x="591" 
d="M432 316q1 -1 1 -2v-288q0 -26 -27 -26q-26 0 -26 26v51q-70 -85 -168 -85h-23q-197 0 -197 171q0 65 40 102q44 43 124 43h224v48q0 64 -46 109q-46 46 -110 46h-23q-94 0 -138 -83q-12 -23 -36 -11q-23 13 -11 36q28 52 76.5 81.5t108.5 29.5h23q86 0 147 -61t61 -147
v-40zM380 255h-225h-3q-52 0 -83 -28q-25 -25 -25 -64q0 -119 145 -119h23q69 0 121 61q47 53 47 95v55zM211 630q-44 0 -78 32q-32 32 -32 79q0 45 32 77q33 33 78 33q47 0 79 -33q32 -32 32 -77q0 -48 -31.5 -79.5t-79.5 -31.5zM211 803q-25 0 -43.5 -18.5t-18.5 -43.5
q0 -26 18.5 -45t43.5 -19q27 0 45.5 19t18.5 45q0 25 -18.5 43.5t-45.5 18.5z" />
    <glyph glyph-name="ccedilla" unicode="&#xe7;" horiz-adv-x="563" 
d="M407 174q25 0 25 -26q0 -60 -72 -109q-65 -45 -128 -45h-23q-86 0 -147 61q-62 62 -62 147v156q0 85 62 147q61 61 147 61h23q64 0 116 -34t77 -94q2 -6 2 -10q0 -25 -26 -25q-18 0 -25 16q-19 43 -57.5 68.5t-86.5 25.5h-23q-65 0 -110 -45t-45 -110v-156q0 -65 45 -110
t110 -45h23q51 0 93 30t57 79q6 18 25 18zM251 -58q8 -12 5.5 -23.5t-13.5 -18.5l-82 -54l-4 -3q-10 -8 -22 -5.5t-19 13.5q-8 11 -5.5 22t13.5 19l87 59q9 6 21 4t19 -13z" />
    <glyph glyph-name="eacute" unicode="&#xe9;" 
d="M234 575q85 0 147 -62q61 -61 61 -147v-62q0 -26 -26 -26h-362v-68q0 -66 45 -111t111 -45h24q51 0 90.5 28.5t55.5 76.5q6 18 26 18q27 0 27 -28q0 -5 -1 -8q-12 -32 -32 -57.5t-46 -44.5t-56.5 -29t-63.5 -10h-24q-87 0 -148 61q-62 62 -62 149v156q0 85 62 147t148 62
h24zM388 366q0 65 -45 110t-109 45h-24q-66 0 -111 -45t-45 -110v-35h334v35zM325 764q9 -10 8 -21.5t-10 -20.5l-3 -3l-68 -61l-6 -5q-11 -8 -22.5 -8t-19.5 10q-9 10 -8 21t10 20l3 3l75 68q9 8 21 7.5t20 -10.5z" />
    <glyph glyph-name="ecircumflex" unicode="&#xea;" horiz-adv-x="589" 
d="M234 575q85 0 147 -62q61 -61 61 -147v-62q0 -26 -26 -26h-362v-68q0 -66 45 -111t111 -45h24q51 0 90.5 28.5t55.5 76.5q6 18 26 18q27 0 27 -28q0 -5 -1 -8q-12 -32 -32 -57.5t-46 -44.5t-56.5 -29t-63.5 -10h-24q-87 0 -148 61q-62 62 -62 149v156q0 85 62 147t148 62
h24zM388 366q0 65 -45 110t-109 45h-24q-66 0 -111 -45t-45 -110v-35h334v35zM221 675q-16 -16 -31.5 -31t-31.5 -31q-9 -9 -18 -9q-8 0 -17 7.5t-9 20.5q0 12 7 19l81 81q10 10 19 10q7 0 19 -10l81 -81q7 -7 7 -19q0 -14 -9 -21t-17 -7q-9 0 -18 9q-16 16 -31.5 31
t-31.5 31z" />
    <glyph glyph-name="edieresis" unicode="&#xeb;" horiz-adv-x="589" 
d="M100 665q-21 0 -37 15t-16 37q0 21 16 36t37 15t36 -15t15 -36q0 -22 -15 -37t-36 -15zM327 665q-21 0 -36 15t-15 37q0 21 15 36t36 15t36.5 -15t15.5 -36q0 -22 -15.5 -37t-36.5 -15zM234 567q85 0 147 -62q61 -61 61 -147v-62q0 -26 -26 -26h-362v-68q0 -66 45 -111
t111 -45h24q51 0 90.5 28.5t55.5 76.5q6 18 26 18q27 0 27 -28q0 -5 -1 -8q-12 -32 -32 -57.5t-46 -44.5t-56.5 -29t-63.5 -10h-24q-87 0 -148 61q-62 62 -62 149v156q0 85 62 147t148 62h24zM388 358q0 65 -45 110t-109 45h-24q-66 0 -111 -45t-45 -110v-35h334v35z" />
    <glyph glyph-name="egrave" unicode="&#xe8;" 
d="M234 575q85 0 147 -62q61 -61 61 -147v-62q0 -26 -26 -26h-362v-68q0 -66 45 -111t111 -45h24q51 0 90.5 28.5t55.5 76.5q6 18 26 18q27 0 27 -28q0 -5 -1 -8q-12 -32 -32 -57.5t-46 -44.5t-56.5 -29t-63.5 -10h-24q-87 0 -148 61q-62 62 -62 149v156q0 85 62 147t148 62
h24zM388 366q0 65 -45 110t-109 45h-24q-66 0 -111 -45t-45 -110v-35h334v35zM161 764q8 10 20 10.5t21 -7.5l75 -68l3 -3q9 -9 10 -20t-8 -21q-8 -10 -19.5 -10t-22.5 8l-6 5l-68 61l-3 3q-9 9 -10 20.5t8 21.5z" />
    <glyph glyph-name="iacute" unicode="&#xed;" horiz-adv-x="188" 
d="M26 561q27 0 27 -27v-508q0 -26 -27 -26q-26 0 -26 26v508q0 27 26 27zM129 750q9 -10 8 -21.5t-10 -20.5l-3 -3l-68 -61l-6 -5q-11 -8 -22.5 -8t-19.5 10q-9 10 -8 21t10 20l3 3l75 68q9 8 21 7.5t20 -10.5z" />
    <glyph glyph-name="icircumflex" unicode="&#xee;" horiz-adv-x="226" 
d="M103 633q-11 0 -18 7l-63 62l-63 -62q-18 -18 -37 0q-7 7 -7 19t7 19l81 81q19 19 38 0l81 -81q18 -18 0 -38q-7 -7 -19 -7zM26 561q27 0 27 -27v-508q0 -26 -27 -26q-26 0 -26 26v508q0 27 26 27z" />
    <glyph glyph-name="idieresis" unicode="&#xef;" horiz-adv-x="328" 
d="M-84 665q-21 0 -37 15t-16 37q0 21 16 36t37 15t36 -15t15 -36q0 -22 -15 -37t-36 -15zM143 665q-21 0 -36 15t-15 37q0 21 15 36t36 15t36.5 -15t15.5 -36q0 -22 -15.5 -37t-36.5 -15zM26 561q27 0 27 -27v-508q0 -26 -27 -26q-26 0 -26 26v508q0 27 26 27z" />
    <glyph glyph-name="igrave" unicode="&#xec;" horiz-adv-x="188" 
d="M26 561q27 0 27 -27v-508q0 -26 -27 -26q-26 0 -26 26v508q0 27 26 27zM-83 743q8 10 20 11.5t22 -6.5l82 -63q11 -8 12 -20t-7 -22q-8 -11 -20 -12.5t-22 6.5l-82 64q-10 8 -11.5 19.5t6.5 22.5z" />
    <glyph glyph-name="ntilde" unicode="&#xf1;" horiz-adv-x="599" 
d="M89 676q-5 -3 -11 -2q-13 1 -15 19q2 11 10 17q37 31 84 31q43 0 75 -32q25 -24 57 -24q38 0 69 25q8 4 19 1q8 -5 8 -17q-1 -12 -11 -18q-37 -31 -85 -31q-39 0 -74 32q-26 24 -58 24q-39 0 -68 -25zM232 565q87 0 148 -61q62 -62 62 -147v-330q0 -27 -28 -27
q-26 0 -26 27v330q0 63 -46 108q-46 46 -110 46h-23q-64 0 -110 -46q-45 -45 -45 -108v-330q0 -27 -28 -27q-26 0 -26 27v507q0 26 26 26q28 0 28 -26v-39q61 70 155 70h23z" />
    <glyph glyph-name="oacute" unicode="&#xf3;" 
d="M232 574q86 0 148 -62t62 -147v-156q0 -86 -62 -148q-61 -61 -148 -61h-22q-87 0 -148 61q-62 62 -62 148v156q0 85 62 147t148 62h22zM388 365q0 64 -46 110t-110 46h-22q-65 0 -111 -46q-45 -45 -45 -110v-156q0 -66 45 -111t111 -45h22q65 0 110 45q46 46 46 111v156z
M325 763q9 -10 8 -21.5t-10 -20.5l-3 -3l-68 -61l-6 -5q-11 -8 -22.5 -8t-19.5 10q-9 10 -8 21t10 20l3 3l75 68q9 8 21 7.5t20 -10.5z" />
    <glyph glyph-name="ocircumflex" unicode="&#xf4;" 
d="M232 574q86 0 148 -62t62 -147v-156q0 -86 -62 -148q-61 -61 -148 -61h-22q-87 0 -148 61q-62 62 -62 148v156q0 85 62 147t148 62h22zM388 365q0 64 -46 110t-110 46h-22q-65 0 -111 -46q-45 -45 -45 -110v-156q0 -66 45 -111t111 -45h22q65 0 110 45q46 46 46 111v156z
M221 674q-16 -16 -31.5 -31t-31.5 -31q-9 -9 -18 -9q-8 0 -17 7.5t-9 20.5q0 12 7 19l81 81q10 10 19 10q7 0 19 -10l81 -81q7 -7 7 -19q0 -14 -9 -21t-17 -7q-9 0 -18 9q-16 16 -31.5 31t-31.5 31z" />
    <glyph glyph-name="odieresis" unicode="&#xf6;" horiz-adv-x="598" 
d="M211 -6q-87 0 -148 61t-61 147v156q0 87 61 148t148 61h23q86 0 147 -61q62 -62 62 -148v-156q0 -85 -62 -147q-61 -61 -147 -61h-23zM211 514q-65 0 -111 -46q-45 -45 -45 -110v-156q0 -65 45 -110t111 -45h23q65 0 110 45q46 46 46 110v156q0 64 -46 110t-110 46h-23z
M104 674q-22 0 -38.5 15.5t-16.5 38.5q0 22 16.5 37.5t38.5 15.5t37.5 -15.5t15.5 -37.5q0 -23 -15.5 -38.5t-37.5 -15.5zM341 674q-22 0 -37.5 15.5t-15.5 38.5q0 22 15.5 37.5t37.5 15.5t38 -15.5t16 -37.5q0 -23 -16 -38.5t-38 -15.5z" />
    <glyph glyph-name="ograve" unicode="&#xf2;" 
d="M232 574q86 0 148 -62t62 -147v-156q0 -86 -62 -148q-61 -61 -148 -61h-22q-87 0 -148 61q-62 62 -62 148v156q0 85 62 147t148 62h22zM388 365q0 64 -46 110t-110 46h-22q-65 0 -111 -46q-45 -45 -45 -110v-156q0 -66 45 -111t111 -45h22q65 0 110 45q46 46 46 111v156z
M161 763q8 10 20 10.5t21 -7.5l75 -68l3 -3q9 -9 10 -20t-8 -21q-8 -10 -19.5 -10t-22.5 8l-6 5l-68 61l-3 3q-9 9 -10 20.5t8 21.5z" />
    <glyph glyph-name="otilde" unicode="&#xf5;" 
d="M232 574q86 0 148 -62t62 -147v-156q0 -86 -62 -148q-61 -61 -148 -61h-22q-87 0 -148 61q-62 62 -62 148v156q0 85 62 147t148 62h22zM388 365q0 64 -46 110t-110 46h-22q-65 0 -111 -46q-45 -45 -45 -110v-156q0 -66 45 -111t111 -45h22q65 0 110 45q46 46 46 111v156z
M325 735q0 11 7.5 19t18.5 8t19 -8t8 -19q-2 -26 -9.5 -43.5t-18.5 -28t-25 -15t-27 -4.5q-21 0 -39.5 7.5t-46.5 28.5q-23 17 -35 26t-25 9q-12 0 -22 -9t-12 -35q0 -11 -7.5 -19t-18.5 -8t-19 8t-8 19q2 54 26 76t57 22q23 0 40.5 -8t44.5 -28q23 -17 36.5 -24.5
t25.5 -7.5t20 7t10 27z" />
    <glyph glyph-name="uacute" unicode="&#xfa;" horiz-adv-x="573" 
d="M412 568q26 0 26 -26v-510q0 -27 -26 -27q-27 0 -27 27v37q-62 -69 -154 -69h-24q-85 0 -146 60q-61 61 -61 146v336q0 26 27 26q26 0 26 -26v-336q0 -64 45 -109t109 -45h24q64 0 109 45t45 109v336q0 26 27 26zM323 757q9 -10 8 -21.5t-10 -20.5l-3 -3l-68 -61l-6 -5
q-11 -8 -22.5 -8t-19.5 10q-9 10 -8 21t10 20l3 3l75 68q9 8 21 7.5t20 -10.5z" />
    <glyph glyph-name="ucircumflex" unicode="&#xfb;" horiz-adv-x="597" 
d="M300 632q-11 0 -18 7l-63 62l-63 -62q-18 -18 -37 0q-7 7 -7 19t7 19l81 81q19 19 38 0l81 -81q18 -18 0 -38q-7 -7 -19 -7zM411 562q26 0 26 -26v-510q0 -27 -26 -27q-27 0 -27 27v37q-62 -69 -154 -69h-24q-85 0 -146 60q-61 61 -61 146v336q0 26 27 26q26 0 26 -26
v-336q0 -64 45 -109t109 -45h24q64 0 109 45t45 109v336q0 26 27 26z" />
    <glyph glyph-name="udieresis" unicode="&#xfc;" horiz-adv-x="597" 
d="M100 665q-21 0 -37 15t-16 37q0 21 16 36t37 15t36 -15t15 -36q0 -22 -15 -37t-36 -15zM327 665q-21 0 -36 15t-15 37q0 21 15 36t36 15t36.5 -15t15.5 -36q0 -22 -15.5 -37t-36.5 -15zM411 562q26 0 26 -26v-510q0 -27 -26 -27q-27 0 -27 27v37q-62 -69 -154 -69h-24
q-85 0 -146 60q-61 61 -61 146v336q0 26 27 26q26 0 26 -26v-336q0 -64 45 -109t109 -45h24q64 0 109 45t45 109v336q0 26 27 26z" />
    <glyph glyph-name="ugrave" unicode="&#xf9;" horiz-adv-x="573" 
d="M412 568q26 0 26 -26v-510q0 -27 -26 -27q-27 0 -27 27v37q-62 -69 -154 -69h-24q-85 0 -146 60q-61 61 -61 146v336q0 26 27 26q26 0 26 -26v-336q0 -64 45 -109t109 -45h24q64 0 109 45t45 109v336q0 26 27 26zM159 757q8 10 20 10.5t21 -7.5l75 -68l3 -3q9 -9 10 -20
t-8 -21q-8 -10 -19.5 -10t-22.5 8l-6 5l-68 61l-3 3q-9 9 -10 20.5t8 21.5z" />
    <glyph glyph-name="yacute" unicode="&#xfd;" horiz-adv-x="580" 
d="M327 748q9 -10 8 -21.5t-10 -20.5l-3 -3l-68 -61l-6 -5q-11 -8 -22.5 -8t-19.5 10q-9 10 -8 21t10 20l3 3l75 68q9 8 21 7.5t20 -10.5zM417 559q13 0 21 -7t6 -20q-1 -5 -3 -11q-79 -222 -131.5 -369t-78.5 -223q-34 -98 -103 -143q-44 -27 -90 -27q-11 0 -15 1
q-14 2 -18.5 12t-3.5 18q1 14 9.5 19t20.5 5q13 0 27 2t30 10q31 15 53 45.5t39 75.5l20 54l-3 6l-189 515q-3 7 -3 14q1 20 27 23q8 1 14.5 -3t11.5 -16l169 -462l162 459l2 5q7 17 26 17z" />
    <glyph glyph-name="ydieresis" unicode="&#xff;" horiz-adv-x="581" 
d="M414 563q26 0 26 -27q0 -3 -2 -9v-2q-79 -222 -131.5 -369t-78.5 -223q-34 -98 -103 -143q-44 -27 -90 -27q-11 0 -15 1q-26 5 -22 30q4 27 30 24q25 -5 57 12q31 15 53 45.5t39 75.5l20 54l-3 6l-189 513q-2 6 -2 9q0 28 26 28q19 0 26 -19l169 -460l163 460l1 4
q6 17 26 17zM111 664q-21 0 -37 15t-16 37q0 21 16 36t37 15t36 -15t15 -36q0 -22 -15 -37t-36 -15zM338 664q-21 0 -36 15t-15 37q0 21 15 36t36 15t36.5 -15t15.5 -36q0 -22 -15.5 -37t-36.5 -15z" />
    <glyph glyph-name="Euro" unicode="&#x20ac;" horiz-adv-x="675" 
d="M517 226q24 -5 18 -30q-20 -81 -77 -129q-59 -50 -131 -50h-24q-90 0 -153 71q-63 70 -63 173v38h-46q-25 0 -25 25t25 25h46v69h-46q-25 0 -25 25t25 25h46v74q0 101 63 172q65 71 153 71h24q63 0 114.5 -36t79.5 -99q9 -23 -14 -34t-32 13q-21 49 -60.5 77.5
t-87.5 28.5h-24q-69 0 -118 -57q-48 -56 -48 -136v-74h244q25 0 25 -25t-25 -25h-244v-69h244q25 0 25 -25t-25 -25h-244v-38q0 -83 48 -138q48 -56 118 -56h24q57 0 100.5 39t58.5 102q6 24 31 18z" />
    <glyph glyph-name="_45" unicode="-" horiz-adv-x="437" 
d="M243 371q30 0 30 -30t-30 -30h-212q-30 0 -30 30t30 30h212v0z" />
    <glyph glyph-name="quotedbl" unicode="&#x22;" horiz-adv-x="349" 
d="M30 800q30 0 30 -30v-114q0 -30 -30 -30t-30 30v114q0 30 30 30zM157 800q30 0 30 -30v-114q0 -30 -30 -30t-30 30v114q0 30 30 30z" />
    <glyph glyph-name="exclam" unicode="!" horiz-adv-x="223" 
d="M26 798q26 0 26 -26v-563q0 -26 -26 -26t-26 26v563q0 26 26 26zM26 85q26 0 26 -26v-35q0 -26 -26 -26t-26 26v35q0 26 26 26z" />
    <glyph glyph-name="infinity" unicode="&#x221e;" horiz-adv-x="880" 
d="M556 529q66 0 114 -48t48 -114q0 -67 -48 -115q-47 -47 -114 -47q-102 0 -174 91q-10 10 -22 25q-6 -8 -12 -14l-11 -11q-70 -91 -174 -91q-68 0 -115 47t-47 115q0 67 47 114q48 48 115 48q104 0 174 -91l23 -25q6 7 11.5 13.5t10.5 11.5q72 91 174 91zM163 258
q56 0 95 30q24 19 63 75l4 4q-44 58 -66 78q-38 31 -96 31q-23 0 -42.5 -8.5t-34.5 -23.5t-23.5 -35t-8.5 -42q0 -23 8.5 -42.5t23.5 -34.5t34.5 -23.5t42.5 -8.5zM398 363q41 -56 64 -75q37 -30 94 -30q22 0 42 8.5t35 23.5t23.5 34.5t8.5 42.5q0 22 -8.5 42t-23.5 35
t-35 23.5t-42 8.5q-57 0 -95 -31q-24 -20 -66 -78z" />
    <glyph glyph-name="approxequal" unicode="&#x2248;" horiz-adv-x="772" 
d="M45 422q-7 -4 -15 -4q-31 0 -31 31q0 16 14 25q80 47 172 47q85 0 153 -48q50 -37 117 -37q76 0 141 38q7 4 16 4q29 0 29 -29q0 -18 -14 -27q-79 -47 -172 -47q-86 0 -153 48q-52 37 -117 37q-76 0 -140 -38zM599 282q7 4 16 4q29 0 29 -30q0 -17 -14 -26
q-79 -47 -172 -47q-84 0 -153 48q-51 36 -117 36q-78 0 -140 -37q-7 -4 -15 -4q-31 0 -31 30q0 18 14 26q80 47 172 47q85 0 153 -48q51 -36 117 -36q77 0 141 37z" />
    <glyph glyph-name="notequal" unicode="&#x2260;" horiz-adv-x="667" 
d="M136 152q-14 -21 -36 -7q-22 15 -8 36l288 437q15 22 37 7q22 -13 7 -36zM31 459q-26 0 -26 26q0 27 26 27h478q26 0 26 -27q0 -26 -26 -26h-478zM509 312q26 0 26 -27q0 -26 -26 -26h-478q-26 0 -26 26q0 27 26 27h478z" />
    <glyph glyph-name="lessequal" unicode="&#x2264;" horiz-adv-x="427" 
d="M225 201q-12 0 -19 7l-188 188q-7 7 -7 19t7 19l188 188q7 7 19 7q11 0 18 -7q19 -19 0 -38l-169 -169l169 -169q19 -19 0 -38q-7 -7 -18 -7zM258 121q30 0 30 -27t-30 -27h-221q-30 0 -30 27t30 27h221z" />
    <glyph glyph-name="Delta" unicode="&#x2206;" horiz-adv-x="640" 
d="M2 184q7 13 19 14.5t22.5 -4t15 -16.5t-3.5 -23t-19.5 -15t-22.5 4t-14 18t3 22zM261 622q11 -8 13.5 -18.5t-2.5 -20.5q-8 -13 -20 -15t-21.5 4t-13.5 17t4 25q5 10 17 12.5t23 -4.5zM221 614l51 -31l-217 -428l-53 29zM27 199h436v-60h-436v60zM477 194
q11 -8 13.5 -18.5t-2.5 -20.5q-8 -13 -20 -15t-21.5 4t-13.5 17t4 25q5 10 17 12.5t23 -4.5zM219 584l52 30l216 -428l-51 -33z" />
    <glyph glyph-name="greaterequal" unicode="&#x2265;" horiz-adv-x="444" 
d="M70 201q-11 0 -18 7q-19 19 0 38l169 169l-169 169q-19 19 0 38q7 7 18 7q12 0 19 -7l188 -188q7 -7 7 -19t-7 -19l-188 -188q-7 -7 -19 -7zM258 121q30 0 30 -27t-30 -27h-221q-30 0 -30 27t30 27h221z" />
    <glyph glyph-name="pi" unicode="&#x3c0;" horiz-adv-x="568" 
d="M-145 375q0 51 63 90q55 23 107 23h377q26 0 26 -26q0 -27 -26 -27h-117v-274q0 -65 31 -97q16 -16 35 -21q25 -6 19 -32q-5 -20 -25 -20q-51 0 -85 64q-28 52 -28 106v274h-167h-53q-53 0 -85 -29q-15 -18 -20 -37q-6 -25 -32 -19q-20 5 -20 25zM-46 -5q-21 0 -29 20
q-4 22 21 28q20 5 38 23q28 31 28 74v295h53v-295q0 -25 -6.5 -49t-22.5 -48q-35 -50 -82 -48z" />
    <glyph glyph-name="uni22F2" unicode="&#x22f2;" horiz-adv-x="772" 
d="M45 422q-7 -4 -15 -4q-31 0 -31 31q0 16 14 25q80 47 172 47q85 0 153 -48q50 -37 117 -37q76 0 141 38q7 4 16 4q29 0 29 -29q0 -18 -14 -27q-79 -47 -172 -47q-86 0 -153 48q-52 37 -117 37q-76 0 -140 -38zM599 282q7 4 16 4q29 0 29 -30q0 -17 -14 -26
q-79 -47 -172 -47q-84 0 -153 48q-51 36 -117 36q-78 0 -140 -37q-7 -4 -15 -4q-31 0 -31 30q0 18 14 26q80 47 172 47q85 0 153 -48q51 -36 117 -36q77 0 141 37z" />
    <glyph glyph-name="Abreve" unicode="&#x102;" horiz-adv-x="754" 
d="M617 37q2 -6 2 -11q0 -26 -26 -26q-19 0 -25 17l-74 197h-370l-72 -197q-6 -17 -26 -17q-26 0 -26 26q0 4 2 10l282 758q6 19 25 17q18 0 24 -17zM473 267l-164 443l-165 -443h329zM216 952q0 11 6.5 18.5t17.5 7.5q20 0 25 -19q5 -17 16 -27t28 -10t28.5 10t15.5 27
q2 8 9.5 13.5t16.5 5.5q10 0 17 -7.5t7 -18.5l-1 -6q-8 -33 -32.5 -55t-60.5 -22q-35 0 -59.5 21.5t-32.5 55.5z" />
    <glyph glyph-name="uni1EA2" unicode="&#x1ea2;" horiz-adv-x="754" 
d="M617 37q2 -6 2 -11q0 -26 -26 -26q-19 0 -25 17l-74 197h-370l-72 -197q-6 -17 -26 -17q-26 0 -26 26q0 4 2 10l282 758q6 19 25 17q18 0 24 -17zM473 267l-164 443l-165 -443h329zM309 1097q34 0 57.5 -23.5t23.5 -57.5q0 -20 -10 -38q-13 -22 -37 -35q-14 -7 -14 -22
v-20q0 -8 -6 -14t-14 -6q-4 0 -6 1q-5 2 -9.5 7.5t-4.5 11.5v8v12q0 7 2 17q1 2 1 3t1 3q9 24 32 35q8 4 13 9q12 12 12 28q0 18 -12 30q-14 12 -29 12q-19 0 -29 -12q-12 -12 -12 -30q0 -8 -6 -13.5t-14 -5.5t-14 5.5t-6 13.5q0 34 23.5 57.5t57.5 23.5z" />
    <glyph glyph-name="uni1EA0" unicode="&#x1ea0;" horiz-adv-x="754" 
d="M617 37q2 -6 2 -11q0 -26 -26 -26q-19 0 -25 17l-74 197h-370l-72 -197q-6 -17 -26 -17q-26 0 -26 26q0 4 2 10l282 758q6 19 25 17q18 0 24 -17zM473 267l-164 443l-165 -443h329zM309 -50q30 0 30 -30v-15q0 -30 -30 -30t-30 30v15q0 30 30 30z" />
    <glyph glyph-name="uni1EAE" unicode="&#x1eae;" horiz-adv-x="754" 
d="M617 37q2 -6 2 -11q0 -26 -26 -26q-19 0 -25 17l-74 197h-370l-72 -197q-6 -17 -26 -17q-26 0 -26 26q0 4 2 10l280 758q6 19 25 17q18 0 24 -17zM473 267l-166 443l-163 -443h329zM214 928q0 11 6.5 18.5t17.5 7.5q20 0 25 -19q5 -17 16 -27t28 -10t28.5 10t15.5 27
q2 8 9.5 13.5t16.5 5.5q10 0 17 -7.5t7 -18.5l-1 -6q-8 -33 -32.5 -55t-60.5 -22q-35 0 -59.5 21.5t-32.5 55.5zM407 1094q9 -10 8 -21.5t-10 -20.5l-3 -3l-68 -61l-6 -5q-11 -8 -22.5 -8t-19.5 10q-9 10 -8 21t10 20l3 3l75 68q9 8 21 7.5t20 -10.5z" />
    <glyph glyph-name="uni1EB0" unicode="&#x1eb0;" horiz-adv-x="754" 
d="M617 37q2 -6 2 -11q0 -26 -26 -26q-19 0 -25 17l-74 197h-370l-72 -197q-6 -17 -26 -17q-26 0 -26 26q0 4 2 10l282 758q6 19 25 17q18 0 24 -17zM473 267l-164 443l-165 -443h329zM204 1087q8 10 20 11.5t22 -6.5l82 -63q11 -8 12 -20t-7 -22q-8 -11 -20 -12.5t-22 6.5
l-82 64q-10 8 -11.5 19.5t6.5 22.5zM216 928q0 11 6.5 18.5t17.5 7.5q20 0 25 -19q5 -17 16 -27t28 -10t28.5 10t15.5 27q2 8 9.5 13.5t16.5 5.5q10 0 17 -7.5t7 -18.5l-1 -6q-8 -33 -32.5 -55t-60.5 -22q-35 0 -59.5 21.5t-32.5 55.5z" />
    <glyph glyph-name="uni1EB2" unicode="&#x1eb2;" horiz-adv-x="754" 
d="M617 37q2 -6 2 -11q0 -26 -26 -26q-19 0 -25 17l-74 197h-370l-72 -197q-6 -17 -26 -17q-26 0 -26 26q0 4 2 10l282 758q6 19 25 17q18 0 24 -17zM473 267l-164 443l-165 -443h329zM216 928q0 11 6.5 18.5t17.5 7.5q20 0 25 -19q5 -17 16 -27t28 -10t28.5 10t15.5 27
q2 8 9.5 13.5t16.5 5.5q10 0 17 -7.5t7 -18.5l-1 -6q-8 -33 -32.5 -55t-60.5 -22q-35 0 -60.5 21t-31.5 56zM309 1191q34 0 57.5 -23.5t23.5 -57.5q0 -20 -10 -38q-13 -22 -37 -35q-14 -7 -14 -22v-20q0 -8 -6 -14t-14 -6q-4 0 -6 1q-5 2 -9.5 7.5t-4.5 11.5v8v12q0 7 2 17
q1 2 1 3t1 3q9 24 32 35q8 4 13 9q12 12 12 28q0 18 -12 30q-14 12 -29 12q-19 0 -29 -12q-12 -12 -12 -30q0 -8 -6 -13.5t-14 -5.5t-14 5.5t-6 13.5q0 34 23.5 57.5t57.5 23.5z" />
    <glyph glyph-name="uni1EB4" unicode="&#x1eb4;" horiz-adv-x="754" 
d="M617 37q2 -6 2 -11q0 -26 -26 -26q-19 0 -25 17l-74 197h-370l-72 -197q-6 -17 -26 -17q-26 0 -26 26q0 4 2 10l282 758q6 19 25 17q18 0 24 -17zM473 267l-164 443l-165 -443h329zM216 928q0 11 6.5 18.5t17.5 7.5q20 0 25 -19q5 -17 16 -27t28 -10t28.5 10t15.5 27
q2 8 9.5 13.5t16.5 5.5q10 0 17 -7.5t7 -18.5l-1 -6q-8 -33 -32.5 -55t-60.5 -22q-35 0 -59.5 21.5t-32.5 55.5zM413 1066q0 11 7.5 19t18.5 8t19 -8t8 -19q-2 -26 -9.5 -43.5t-18.5 -28t-25 -15t-27 -4.5q-21 0 -39.5 7.5t-46.5 28.5q-23 17 -35 26t-25 9q-12 0 -22 -9
t-12 -35q0 -11 -7.5 -19t-18.5 -8t-19 8t-8 19q2 54 26 76t57 22q23 0 40.5 -8t44.5 -28q23 -17 36.5 -24.5t25.5 -7.5t20 7t10 27z" />
    <glyph glyph-name="uni1EB6" unicode="&#x1eb6;" horiz-adv-x="754" 
d="M617 37q2 -6 2 -11q0 -26 -26 -26q-19 0 -25 17l-74 197h-370l-72 -197q-6 -17 -26 -17q-26 0 -26 26q0 4 2 10l282 758q6 19 25 17q18 0 24 -17zM473 267l-164 443l-165 -443h329zM309 -50q30 0 30 -30v-15q0 -30 -30 -30t-30 30v15q0 30 30 30zM216 928q0 11 6.5 18.5
t17.5 7.5q20 0 25 -19q5 -17 16 -27t28 -10t28.5 10t15.5 27q2 8 9.5 13.5t16.5 5.5q10 0 17 -7.5t7 -18.5l-1 -6q-8 -33 -32.5 -55t-60.5 -22q-35 0 -59.5 21.5t-32.5 55.5z" />
    <glyph glyph-name="uni1EA4" unicode="&#x1ea4;" horiz-adv-x="754" 
d="M309 901q-16 -16 -31.5 -31t-31.5 -31q-9 -9 -18 -9q-8 0 -17 7.5t-9 20.5q0 12 7 19l81 81q10 10 19 10q7 0 19 -10l81 -81q7 -7 7 -19q0 -14 -9 -21t-17 -7q-9 0 -18 9q-16 16 -31.5 31t-31.5 31zM617 37q2 -6 2 -11q0 -26 -26 -26q-19 0 -25 17l-74 197h-370l-72 -197
q-6 -17 -26 -17q-26 0 -26 26q0 4 2 10l282 758q6 19 25 17q18 0 24 -17zM473 267l-164 443l-165 -443h329zM516 1054q9 -10 8 -21.5t-10 -20.5l-3 -3l-68 -61l-6 -5q-11 -8 -22.5 -8t-19.5 10q-9 10 -8 21t10 20l3 3l75 68q9 8 21 7.5t20 -10.5z" />
    <glyph glyph-name="uni1EA6" unicode="&#x1ea6;" horiz-adv-x="754" 
d="M309 901q-16 -16 -31.5 -31t-31.5 -31q-9 -9 -18 -9q-8 0 -17 7.5t-9 20.5q0 12 7 19l81 81q10 10 19 10q7 0 19 -10l81 -81q7 -7 7 -19q0 -14 -9 -21t-17 -7q-9 0 -18 9q-16 16 -31.5 31t-31.5 31zM617 37q2 -6 2 -11q0 -26 -26 -26q-19 0 -25 17l-74 197h-370l-72 -197
q-6 -17 -26 -17q-26 0 -26 26q0 4 2 10l282 758q6 19 25 17q18 0 24 -17zM473 267l-164 443l-165 -443h329zM95 1047q8 10 20 11.5t22 -6.5l82 -63q11 -8 12 -20t-7 -22q-8 -11 -20 -12.5t-22 6.5l-82 64q-10 8 -11.5 19.5t6.5 22.5z" />
    <glyph glyph-name="uni1EA8" unicode="&#x1ea8;" horiz-adv-x="754" 
d="M309 901q-16 -16 -31.5 -31t-31.5 -31q-9 -9 -18 -9q-8 0 -17 7.5t-9 20.5q0 12 7 19l81 81q10 10 19 10q7 0 19 -10l81 -81q7 -7 7 -19q0 -14 -9 -21t-17 -7q-9 0 -18 9q-16 16 -31.5 31t-31.5 31zM617 37q2 -6 2 -11q0 -26 -26 -26q-19 0 -25 17l-74 197h-370l-72 -197
q-6 -17 -26 -17q-26 0 -26 26q0 4 2 10l282 758q6 19 25 17q18 0 24 -17zM473 267l-164 443l-165 -443h329zM407 1151q34 0 57.5 -23.5t23.5 -57.5q0 -20 -10 -38q-13 -22 -37 -35q-14 -7 -14 -22v-20q0 -8 -6 -14t-14 -6q-4 0 -6 1q-5 2 -9.5 7.5t-4.5 11.5v8v12q0 7 2 17
q1 2 1 3t1 3q9 24 32 35q8 4 13 9q12 12 12 28q0 18 -12 30q-14 12 -29 12q-19 0 -29 -12q-12 -12 -12 -30q0 -8 -6 -13.5t-14 -5.5t-14 5.5t-6 13.5q0 34 23.5 57.5t57.5 23.5z" />
    <glyph glyph-name="uni1EAA" unicode="&#x1eaa;" horiz-adv-x="754" 
d="M413 1084q0 11 7.5 19t18.5 8t19 -8t8 -19q-2 -26 -9.5 -43.5t-18.5 -28t-25 -15t-27 -4.5q-21 0 -39.5 7.5t-46.5 28.5q-23 17 -35 26t-25 9q-12 0 -22 -9t-12 -35q0 -11 -7.5 -19t-18.5 -8t-19 8t-8 19q2 54 26 76t57 22q23 0 40.5 -8t44.5 -28q23 -17 36.5 -24.5
t25.5 -7.5t20 7t10 27zM309 901q-16 -16 -31.5 -31t-31.5 -31q-9 -9 -18 -9q-8 0 -17 7.5t-9 20.5q0 12 7 19l81 81q10 10 19 10q7 0 19 -10l81 -81q7 -7 7 -19q0 -14 -9 -21t-17 -7q-9 0 -18 9q-16 16 -31.5 31t-31.5 31zM617 37q2 -6 2 -11q0 -26 -26 -26q-19 0 -25 17
l-74 197h-370l-72 -197q-6 -17 -26 -17q-26 0 -26 26q0 4 2 10l282 758q6 19 25 17q18 0 24 -17zM473 267l-164 443l-165 -443h329z" />
    <glyph glyph-name="uni1EAC" unicode="&#x1eac;" horiz-adv-x="754" 
d="M617 37q2 -6 2 -11q0 -26 -26 -26q-19 0 -25 17l-74 197h-370l-72 -197q-6 -17 -26 -17q-26 0 -26 26q0 4 2 10l282 758q6 19 25 17q18 0 24 -17zM473 267l-164 443l-165 -443h329zM309 -50q30 0 30 -30v-15q0 -30 -30 -30t-30 30v15q0 30 30 30zM309 901
q-16 -16 -31.5 -31t-31.5 -31q-9 -9 -18 -9q-8 0 -17 7.5t-9 20.5q0 12 7 19l81 81q10 10 19 10q7 0 19 -10l81 -81q7 -7 7 -19q0 -14 -9 -21t-17 -7q-9 0 -18 9q-16 16 -31.5 31t-31.5 31z" />
    <glyph glyph-name="uni1EBA" unicode="&#x1eba;" horiz-adv-x="642" 
d="M481 53q26 0 26 -27q0 -26 -26 -26h-455q-26 0 -26 26v759q0 27 26 27h455q26 0 26 -27q0 -26 -26 -26h-427v-322h339q25 0 25 -27q0 -25 -25 -25h-339v-332h427zM253 1098q34 0 57.5 -23.5t23.5 -57.5q0 -20 -10 -38q-13 -22 -37 -35q-14 -7 -14 -22v-20q0 -8 -6 -14
t-14 -6q-4 0 -6 1q-5 2 -9.5 7.5t-4.5 11.5v8v12q0 7 2 17q1 2 1 3t1 3q9 24 32 35q8 4 13 9q12 12 12 28q0 18 -12 30q-14 12 -29 12q-19 0 -29 -12q-12 -12 -12 -30q0 -8 -6 -13.5t-14 -5.5t-14 5.5t-6 13.5q0 34 23.5 57.5t57.5 23.5z" />
    <glyph glyph-name="uni1EBC" unicode="&#x1ebc;" horiz-adv-x="642" 
d="M481 53q26 0 26 -27q0 -26 -26 -26h-455q-26 0 -26 26v759q0 27 26 27h455q26 0 26 -27q0 -26 -26 -26h-427v-322h339q25 0 25 -27q0 -25 -25 -25h-339v-332h427zM357 973q0 11 7.5 19t18.5 8t19 -8t8 -19q-2 -26 -9.5 -43.5t-18.5 -28t-25 -15t-27 -4.5q-21 0 -39.5 7.5
t-46.5 28.5q-23 17 -35 26t-25 9q-12 0 -22 -9t-12 -35q0 -11 -7.5 -19t-18.5 -8t-19 8t-8 19q2 54 26 76t57 22q23 0 40.5 -8t44.5 -28q23 -17 36.5 -24.5t25.5 -7.5t20 7t10 27z" />
    <glyph glyph-name="uni1EB8" unicode="&#x1eb8;" horiz-adv-x="642" 
d="M481 53q26 0 26 -27q0 -26 -26 -26h-455q-26 0 -26 26v759q0 27 26 27h455q26 0 26 -27q0 -26 -26 -26h-427v-322h339q25 0 25 -27q0 -25 -25 -25h-339v-332h427zM253 -50q30 0 30 -30v-15q0 -30 -30 -30t-30 30v15q0 30 30 30z" />
    <glyph glyph-name="uni1EBE" unicode="&#x1ebe;" horiz-adv-x="642" 
d="M481 53q26 0 26 -27q0 -26 -26 -26h-455q-26 0 -26 26v759q0 27 26 27h455q26 0 26 -27q0 -26 -26 -26h-427v-322h339q25 0 25 -27q0 -25 -25 -25h-339v-332h427zM253 902q-16 -16 -31.5 -31t-31.5 -31q-9 -9 -18 -9q-8 0 -17 7.5t-9 20.5q0 12 7 19l81 81q10 10 19 10
q7 0 19 -10l81 -81q7 -7 7 -19q0 -14 -9 -21t-17 -7q-9 0 -18 9q-16 16 -31.5 31t-31.5 31zM460 1054q9 -10 8 -21.5t-10 -20.5l-3 -3l-68 -60l-6 -5q-11 -8 -22.5 -8t-19.5 10q-9 10 -8 21t10 20l3 3l75 68q9 8 21 7t20 -11z" />
    <glyph glyph-name="uni1EC0" unicode="&#x1ec0;" horiz-adv-x="642" 
d="M481 53q26 0 26 -27q0 -26 -26 -26h-455q-26 0 -26 26v759q0 27 26 27h455q26 0 26 -27q0 -26 -26 -26h-427v-322h339q25 0 25 -27q0 -25 -25 -25h-339v-332h427zM253 902q-16 -16 -31.5 -31t-31.5 -31q-9 -9 -18 -9q-8 0 -17 7.5t-9 20.5q0 12 7 19l81 81q10 10 19 10
q7 0 19 -10l81 -81q7 -7 7 -19q0 -14 -9 -21t-17 -7q-9 0 -18 9q-16 16 -31.5 31t-31.5 31zM39 1048q8 10 20 11.5t22 -6.5l82 -63q11 -8 12 -20t-7 -22q-8 -11 -20 -12.5t-22 6.5l-82 64q-10 8 -11.5 19.5t6.5 22.5z" />
    <glyph glyph-name="uni1EC2" unicode="&#x1ec2;" horiz-adv-x="642" 
d="M481 53q26 0 26 -27q0 -26 -26 -26h-455q-26 0 -26 26v759q0 27 26 27h455q26 0 26 -27q0 -26 -26 -26h-427v-322h339q25 0 25 -27q0 -25 -25 -25h-339v-332h427zM253 902q-16 -16 -31.5 -31t-31.5 -31q-9 -9 -18 -9q-8 0 -17 7.5t-9 20.5q0 12 7 19l81 81q10 10 19 10
q7 0 19 -10l81 -81q7 -7 7 -19q0 -14 -9 -21t-17 -7q-9 0 -18 9q-16 16 -31.5 31t-31.5 31zM351 1152q34 0 57.5 -23.5t23.5 -57.5q0 -20 -10 -38q-13 -22 -37 -35q-14 -7 -14 -22v-20q0 -8 -6 -14t-14 -6q-4 0 -6 1q-5 2 -9.5 7.5t-4.5 11.5v8v12q0 7 2 17q1 2 1 3t1 3
q9 24 32 35q8 4 13 9q12 12 12 28q0 18 -12 30q-14 12 -29 12q-19 0 -29 -12q-12 -12 -12 -30q0 -8 -6 -13.5t-14 -5.5t-14 5.5t-6 13.5q0 34 23.5 57.5t57.5 23.5z" />
    <glyph glyph-name="uni1EC4" unicode="&#x1ec4;" horiz-adv-x="642" 
d="M481 53q26 0 26 -27q0 -26 -26 -26h-455q-26 0 -26 26v759q0 27 26 27h455q26 0 26 -27q0 -26 -26 -26h-427v-322h339q25 0 25 -27q0 -25 -25 -25h-339v-332h427zM357 1085q0 11 7.5 19t18.5 8t19 -8t8 -19q-2 -26 -9.5 -43.5t-18.5 -28t-25 -15t-27 -4.5
q-21 0 -39.5 7.5t-46.5 28.5q-23 17 -35 26t-25 9q-12 0 -22 -9t-12 -35q0 -11 -7.5 -19t-18.5 -8t-19 8t-8 19q2 54 26 76t57 22q23 0 40.5 -8t44.5 -28q23 -17 36.5 -24.5t25.5 -7.5t20 7t10 27zM253 902q-16 -16 -31.5 -31t-31.5 -31q-9 -9 -18 -9q-8 0 -17 7.5t-9 20.5
q0 12 7 19l81 81q10 10 19 10q7 0 19 -10l81 -81q7 -7 7 -19q0 -14 -9 -21t-17 -7q-9 0 -18 9q-16 16 -31.5 31t-31.5 31z" />
    <glyph glyph-name="uni1EC6" unicode="&#x1ec6;" horiz-adv-x="642" 
d="M481 53q26 0 26 -27q0 -26 -26 -26h-455q-26 0 -26 26v759q0 27 26 27h455q26 0 26 -27q0 -26 -26 -26h-427v-322h339q25 0 25 -27q0 -25 -25 -25h-339v-332h427zM253 -50q30 0 30 -30v-15q0 -30 -30 -30t-30 30v15q0 30 30 30zM253 902q-16 -16 -31.5 -31t-31.5 -31
q-9 -9 -18 -9q-8 0 -17 7.5t-9 20.5q0 12 7 19l81 81q10 10 19 10q7 0 19 -10l81 -81q7 -7 7 -19q0 -14 -9 -21t-17 -7q-9 0 -18 9q-16 16 -31.5 31t-31.5 31z" />
    <glyph glyph-name="Ygrave" unicode="&#x1ef2;" horiz-adv-x="640" 
d="M196 992q8 10 20 11.5t22 -6.5l82 -63q11 -8 12 -20t-7 -22q-8 -11 -20 -12.5t-22 6.5l-82 64q-10 8 -11.5 19.5t6.5 22.5zM489 806q23 -12 12 -35l-215 -426v-319q0 -26 -25 -26q-28 0 -28 26v319l-228 425q-12 23 11 35q23 14 36 -10l208 -386l192 385q13 25 37 12z
" />
    <glyph glyph-name="uni1EF6" unicode="&#x1ef6;" horiz-adv-x="640" 
d="M260 1096q34 0 57.5 -23.5t23.5 -57.5q0 -20 -10 -38q-13 -22 -37 -35q-14 -7 -14 -22v-20q0 -8 -6 -14t-14 -6q-4 0 -6 1q-5 2 -9.5 7.5t-4.5 11.5v8v12q0 7 2 17q1 2 1 3t1 3q9 24 32 35q8 4 13 9q12 12 12 28q0 18 -12 30q-14 12 -29 12q-19 0 -29 -12
q-12 -12 -12 -30q0 -8 -6 -13.5t-14 -5.5t-14 5.5t-6 13.5q0 34 23.5 57.5t57.5 23.5zM489 806q23 -12 12 -35l-215 -426v-319q0 -26 -25 -26q-28 0 -28 26v319l-228 425q-12 23 11 35q23 14 36 -10l208 -386l192 385q13 25 37 12z" />
    <glyph glyph-name="uni1EF8" unicode="&#x1ef8;" horiz-adv-x="640" 
d="M364 971q0 11 7.5 19t18.5 8t19 -8t8 -19q-2 -26 -9.5 -43.5t-18.5 -28t-25 -15t-27 -4.5q-21 0 -39.5 7.5t-46.5 28.5q-23 17 -35 26t-25 9q-12 0 -22 -9t-12 -35q0 -11 -7.5 -19t-18.5 -8t-19 8t-8 19q2 54 26 76t57 22q23 0 40.5 -8t44.5 -28q23 -17 36.5 -24.5
t25.5 -7.5t20 7t10 27zM489 806q23 -12 12 -35l-215 -426v-319q0 -26 -25 -26q-28 0 -28 26v319l-228 425q-12 23 11 35q23 14 36 -10l208 -386l192 385q13 25 37 12z" />
    <glyph glyph-name="uni1EF4" unicode="&#x1ef4;" horiz-adv-x="640" 
d="M260 -50q30 0 30 -30v-15q0 -30 -30 -30t-30 30v15q0 30 30 30zM489 806q23 -12 12 -35l-215 -426v-319q0 -26 -25 -26q-28 0 -28 26v319l-228 425q-12 23 11 35q23 14 36 -10l208 -386l192 385q13 25 37 12z" />
    <glyph glyph-name="uni1EE6" unicode="&#x1ee6;" horiz-adv-x="685" 
d="M275 1104q34 0 57.5 -23.5t23.5 -57.5q0 -20 -10 -38q-13 -22 -37 -35q-14 -7 -14 -22v-20q0 -8 -6 -14t-14 -6q-4 0 -6 1q-5 2 -9.5 7.5t-4.5 11.5v8v12q0 7 2 17q1 2 1 3t1 3q9 24 32 35q8 4 13 9q12 12 12 28q0 18 -12 30q-14 12 -29 12q-19 0 -29 -12
q-12 -12 -12 -30q0 -8 -6 -13.5t-14 -5.5t-14 5.5t-6 13.5q0 34 23.5 57.5t57.5 23.5zM524 818q26 0 26 -27v-530q0 -108 -77 -185q-76 -76 -184 -76h-28q-108 0 -184 76q-77 77 -77 185v530q0 27 27 27q28 0 28 -27v-530q0 -87 60 -147t146 -60h28q86 0 146 60
q61 61 61 147v530q0 27 28 27z" />
    <glyph glyph-name="Utilde" unicode="&#x168;" horiz-adv-x="685" 
d="M379 979q0 11 7.5 19t18.5 8t19 -8t8 -19q-2 -26 -9.5 -43.5t-18.5 -28t-25 -15t-27 -4.5q-21 0 -39.5 7.5t-46.5 28.5q-23 17 -35 26t-25 9q-12 0 -22 -9t-12 -35q0 -11 -7.5 -19t-18.5 -8t-19 8t-8 19q2 54 26 76t57 22q23 0 40.5 -8t44.5 -28q23 -17 36.5 -24.5
t25.5 -7.5t20 7t10 27zM524 818q26 0 26 -27v-530q0 -108 -77 -185q-76 -76 -184 -76h-28q-108 0 -184 76q-77 77 -77 185v530q0 27 27 27q28 0 28 -27v-530q0 -87 60 -147t146 -60h28q86 0 146 60q61 61 61 147v530q0 27 28 27z" />
    <glyph glyph-name="uni1EE4" unicode="&#x1ee4;" horiz-adv-x="685" 
d="M275 -50q30 0 30 -30v-15q0 -30 -30 -30t-30 30v15q0 30 30 30zM524 818q26 0 26 -27v-530q0 -108 -77 -185q-76 -76 -184 -76h-28q-108 0 -184 76q-77 77 -77 185v530q0 27 27 27q28 0 28 -27v-530q0 -87 60 -147t146 -60h28q86 0 146 60q61 61 61 147v530q0 27 28 27z
" />
    <glyph glyph-name="Uhorn" unicode="&#x1af;" horiz-adv-x="685" 
d="M550 261q0 -108 -77 -185q-76 -76 -184 -76h-28q-108 0 -184 76q-77 77 -77 185v530q0 27 27 27q28 0 28 -27v-530q0 -87 60 -147t146 -60h28q86 0 146 60q61 61 61 147v530q0 27 28 27q26 0 26 -27v-13q15 0 26.5 11t11.5 25t-10.5 24.5t-24.5 12.5q-11 0 -18.5 8
t-7.5 19t8 19t19 8h3q36 -2 60 -28.5t24 -62.5q0 -19 -7 -35.5t-19.5 -28.5t-29 -19t-35.5 -7v-463z" />
    <glyph glyph-name="uni1EE8" unicode="&#x1ee8;" horiz-adv-x="686" 
d="M550 261q0 -108 -77 -185q-76 -76 -184 -76h-28q-108 0 -184 76q-77 77 -77 185v530q0 27 27 27q28 0 28 -27v-530q0 -87 60 -147t146 -60h28q86 0 146 60q61 61 61 147v530q0 27 28 27q26 0 26 -27v-13q15 0 26.5 11t11.5 25t-10.5 24.5t-24.5 12.5q-11 0 -18.5 8
t-7.5 19t8 19t19 8h3q36 -2 60 -28.5t24 -62.5q0 -19 -7 -35.5t-19.5 -28.5t-29 -19t-35.5 -7v-463zM343 992q8 -11 5.5 -22.5t-13.5 -18.5l-82 -56l-4 -2q-11 -6 -22.5 -4.5t-18.5 12.5q-8 11 -5.5 22t13.5 19l87 59q9 6 21 4t19 -13z" />
    <glyph glyph-name="uni1EEA" unicode="&#x1eea;" horiz-adv-x="686" 
d="M211 1001q8 10 20 11.5t22 -6.5l82 -63q11 -8 12 -20t-7 -22q-8 -11 -20 -12.5t-22 6.5l-82 64q-10 8 -11.5 19.5t6.5 22.5zM550 261q0 -108 -77 -185q-76 -76 -184 -76h-28q-108 0 -184 76q-77 77 -77 185v530q0 27 27 27q28 0 28 -27v-530q0 -87 60 -147t146 -60h28
q86 0 146 60q61 61 61 147v530q0 27 28 27q26 0 26 -27v-13q15 0 26.5 11t11.5 25t-10.5 24.5t-24.5 12.5q-11 0 -18.5 8t-7.5 19t8 19t19 8h3q36 -2 60 -28.5t24 -62.5q0 -19 -7 -35.5t-19.5 -28.5t-29 -19t-35.5 -7v-463z" />
    <glyph glyph-name="uni1EEC" unicode="&#x1eec;" horiz-adv-x="686" 
d="M275 1104q34 0 57.5 -23.5t23.5 -57.5q0 -20 -10 -38q-13 -22 -37 -35q-14 -7 -14 -22v-20q0 -8 -6 -14t-14 -6q-4 0 -6 1q-5 2 -9.5 7.5t-4.5 11.5v8v12q0 7 2 17q1 2 1 3t1 3q9 24 32 35q8 4 13 9q12 12 12 28q0 18 -12 30q-14 12 -29 12q-19 0 -29 -12
q-12 -12 -12 -30q0 -8 -6 -13.5t-14 -5.5t-14 5.5t-6 13.5q0 34 23.5 57.5t57.5 23.5zM550 261q0 -108 -77 -185q-76 -76 -184 -76h-28q-108 0 -184 76q-77 77 -77 185v530q0 27 27 27q28 0 28 -27v-530q0 -87 60 -147t146 -60h28q86 0 146 60q61 61 61 147v530q0 27 28 27
q26 0 26 -27v-13q15 0 26.5 11t11.5 25t-10.5 24.5t-24.5 12.5q-11 0 -18.5 8t-7.5 19t8 19t19 8h3q36 -2 60 -28.5t24 -62.5q0 -19 -7 -35.5t-19.5 -28.5t-29 -19t-35.5 -7v-463z" />
    <glyph glyph-name="uni1EEE" unicode="&#x1eee;" horiz-adv-x="686" 
d="M379 979q0 11 7.5 19t18.5 8t19 -8t8 -19q-2 -26 -9.5 -43.5t-18.5 -28t-25 -15t-27 -4.5q-21 0 -39.5 7.5t-46.5 28.5q-23 17 -35 26t-25 9q-12 0 -22 -9t-12 -35q0 -11 -7.5 -19t-18.5 -8t-19 8t-8 19q2 54 26 76t57 22q23 0 40.5 -8t44.5 -28q23 -17 36.5 -24.5
t25.5 -7.5t20 7t10 27zM550 261q0 -108 -77 -185q-76 -76 -184 -76h-28q-108 0 -184 76q-77 77 -77 185v530q0 27 27 27q28 0 28 -27v-530q0 -87 60 -147t146 -60h28q86 0 146 60q61 61 61 147v530q0 27 28 27q26 0 26 -27v-13q15 0 26.5 11t11.5 25t-10.5 24.5t-24.5 12.5
q-11 0 -18.5 8t-7.5 19t8 19t19 8h3q36 -2 60 -28.5t24 -62.5q0 -19 -7 -35.5t-19.5 -28.5t-29 -19t-35.5 -7v-463z" />
    <glyph glyph-name="uni1EF0" unicode="&#x1ef0;" horiz-adv-x="686" 
d="M275 -50q30 0 30 -30v-15q0 -30 -30 -30t-30 30v15q0 30 30 30zM550 261q0 -108 -77 -185q-76 -76 -184 -76h-28q-108 0 -184 76q-77 77 -77 185v530q0 27 27 27q28 0 28 -27v-530q0 -87 60 -147t146 -60h28q86 0 146 60q61 61 61 147v530q0 27 28 27q26 0 26 -27v-13
q15 0 26.5 11t11.5 25t-10.5 24.5t-24.5 12.5q-11 0 -18.5 8t-7.5 19t8 19t19 8h3q36 -2 60 -28.5t24 -62.5q0 -19 -7 -35.5t-19.5 -28.5t-29 -19t-35.5 -7v-463z" />
    <glyph glyph-name="uni1EC8" unicode="&#x1ec8;" horiz-adv-x="188" 
d="M26 0q-26 0 -26 26v758q0 26 26 26q27 0 27 -26v-758q0 -26 -27 -26zM27 1096q34 0 57.5 -23.5t23.5 -57.5q0 -20 -10 -38q-13 -22 -37 -35q-14 -7 -14 -22v-20q0 -8 -6 -14t-14 -6q-4 0 -6 1q-5 2 -9.5 7.5t-4.5 11.5v8v12q0 7 2 17q1 2 1 3t1 3q9 24 32 35q8 4 13 9
q12 12 12 28q0 18 -12 30q-14 12 -29 12q-19 0 -29 -12q-12 -12 -12 -30q0 -8 -6 -13.5t-14 -5.5t-14 5.5t-6 13.5q0 34 23.5 57.5t57.5 23.5z" />
    <glyph glyph-name="Iacute" unicode="&#xcd;" horiz-adv-x="189" 
d="M130 1000q9 -10 8 -21.5t-10 -20.5l-3 -3l-68 -61l-6 -5q-11 -8 -22.5 -8t-19.5 10q-9 10 -8 21t10 20l3 3l75 68q9 8 21 7.5t20 -10.5zM27 0q-26 0 -26 26v758q0 26 26 26q27 0 27 -26v-758q0 -26 -27 -26z" />
    <glyph glyph-name="Igrave" unicode="&#xcc;" horiz-adv-x="188" 
d="M26 0q-26 0 -26 26v758q0 26 26 26q27 0 27 -26v-758q0 -26 -27 -26zM-83 993q8 10 20 11.5t22 -6.5l82 -63q11 -8 12 -20t-7 -22q-8 -11 -20 -12.5t-22 6.5l-82 64q-10 8 -11.5 19.5t6.5 22.5z" />
    <glyph glyph-name="Itilde" unicode="&#x128;" horiz-adv-x="188" 
d="M26 0q-26 0 -26 26v758q0 26 26 26q27 0 27 -26v-758q0 -26 -27 -26zM130 971q0 11 7.5 19t18.5 8t19 -8t8 -19q-2 -26 -9.5 -43.5t-18.5 -28t-25 -15t-27 -4.5q-21 0 -39.5 7.5t-46.5 28.5q-23 17 -35 26t-25 9q-12 0 -22 -9t-12 -35q0 -11 -7.5 -19t-18.5 -8t-19 8
t-8 19q2 54 26 76t57 22q23 0 40.5 -8t44.5 -28q23 -17 36.5 -24.5t25.5 -7.5t20 7t10 27z" />
    <glyph glyph-name="uni1ECA" unicode="&#x1eca;" horiz-adv-x="188" 
d="M26 0q-26 0 -26 26v758q0 26 26 26q27 0 27 -26v-758q0 -26 -27 -26zM26 -50q30 0 30 -30v-15q0 -30 -30 -30t-30 30v15q0 30 30 30z" />
    <glyph glyph-name="uni1ECE" unicode="&#x1ece;" horiz-adv-x="684" 
d="M290 822q108 0 183 -77q76 -76 76 -184v-300q0 -109 -76 -185q-75 -76 -183 -76h-29q-109 0 -185 76t-76 185v300q0 108 76 184q77 77 185 77h29zM495 561q0 84 -60 146q-60 61 -145 61h-29q-86 0 -147 -61q-60 -60 -60 -146v-300q0 -87 60 -147t147 -60h29q86 0 145 60
q60 61 60 147v300zM274 1108q34 0 57.5 -23.5t23.5 -57.5q0 -20 -10 -38q-13 -22 -37 -35q-14 -7 -14 -22v-20q0 -8 -6 -14t-14 -6q-4 0 -6 1q-5 2 -9.5 7.5t-4.5 11.5v8v12q0 7 2 17q1 2 1 3t1 3q9 24 32 35q8 4 13 9q12 12 12 28q0 18 -12 30q-14 12 -29 12q-19 0 -29 -12
q-12 -12 -12 -30q0 -8 -6 -13.5t-14 -5.5t-14 5.5t-6 13.5q0 34 23.5 57.5t57.5 23.5z" />
    <glyph glyph-name="uni1ECC" unicode="&#x1ecc;" horiz-adv-x="684" 
d="M274 -50q30 0 30 -30v-15q0 -30 -30 -30t-30 30v15q0 30 30 30zM290 822q108 0 183 -77q76 -76 76 -184v-300q0 -109 -76 -185q-75 -76 -183 -76h-29q-109 0 -185 76t-76 185v300q0 108 76 184q77 77 185 77h29zM495 561q0 84 -60 146q-60 61 -145 61h-29q-86 0 -147 -61
q-60 -60 -60 -146v-300q0 -87 60 -147t147 -60h29q86 0 145 60q60 61 60 147v300z" />
    <glyph glyph-name="uni1ED0" unicode="&#x1ed0;" horiz-adv-x="684" 
d="M290 822q108 0 183 -77q76 -76 76 -184v-300q0 -109 -76 -185q-75 -76 -183 -76h-29q-109 0 -185 76t-76 185v300q0 108 76 184q77 77 185 77h29zM495 561q0 84 -60 146q-60 61 -145 61h-29q-86 0 -147 -61q-60 -60 -60 -146v-300q0 -87 60 -147t147 -60h29q86 0 145 60
q60 61 60 147v300zM274 912q-16 -16 -31.5 -31t-31.5 -31q-9 -9 -18 -9q-8 0 -17 7.5t-9 20.5q0 12 7 19l81 81q10 10 19 10q7 0 19 -10l81 -81q7 -7 7 -19q0 -14 -9 -21t-17 -7q-9 0 -18 9q-16 16 -31.5 31t-31.5 31zM481 1065q9 -10 8 -21.5t-10 -20.5l-3 -3l-68 -61
l-6 -5q-11 -8 -22.5 -8t-19.5 10q-9 10 -8 21t10 20l3 3l75 68q9 8 21 7.5t20 -10.5z" />
    <glyph glyph-name="uni1ED2" unicode="&#x1ed2;" horiz-adv-x="684" 
d="M290 822q108 0 183 -77q76 -76 76 -184v-300q0 -109 -76 -185q-75 -76 -183 -76h-29q-109 0 -185 76t-76 185v300q0 108 76 184q77 77 185 77h29zM495 561q0 84 -60 146q-60 61 -145 61h-29q-86 0 -147 -61q-60 -60 -60 -146v-300q0 -87 60 -147t147 -60h29q86 0 145 60
q60 61 60 147v300zM274 912q-16 -16 -31.5 -31t-31.5 -31q-9 -9 -18 -9q-8 0 -17 7.5t-9 20.5q0 12 7 19l81 81q10 10 19 10q7 0 19 -10l81 -81q7 -7 7 -19q0 -14 -9 -21t-17 -7q-9 0 -18 9q-16 16 -31.5 31t-31.5 31zM60 1058q8 10 20 11.5t22 -6.5l82 -63q11 -8 12 -20
t-7 -22q-8 -11 -20 -12.5t-22 6.5l-82 64q-10 8 -11.5 19.5t6.5 22.5z" />
    <glyph glyph-name="uni1ED4" unicode="&#x1ed4;" horiz-adv-x="684" 
d="M290 822q108 0 183 -77q76 -76 76 -184v-300q0 -109 -76 -185q-75 -76 -183 -76h-29q-109 0 -185 76t-76 185v300q0 108 76 184q77 77 185 77h29zM495 561q0 84 -60 146q-60 61 -145 61h-29q-86 0 -147 -61q-60 -60 -60 -146v-300q0 -87 60 -147t147 -60h29q86 0 145 60
q60 61 60 147v300zM274 912q-16 -16 -31.5 -31t-31.5 -31q-9 -9 -18 -9q-8 0 -17 7.5t-9 20.5q0 12 7 19l81 81q10 10 19 10q7 0 19 -10l81 -81q7 -7 7 -19q0 -14 -9 -21t-17 -7q-9 0 -18 9q-16 16 -31.5 31t-31.5 31zM372 1162q34 0 57.5 -23.5t23.5 -57.5q0 -20 -10 -38
q-13 -22 -37 -35q-14 -7 -14 -22v-20q0 -8 -6 -14t-14 -6q-4 0 -6 1q-5 2 -9.5 7.5t-4.5 11.5v8v12q0 7 2 17q1 2 1 3t1 3q9 24 32 35q8 4 13 9q12 12 12 28q0 18 -12 30q-14 12 -29 12q-19 0 -29 -12q-12 -12 -12 -30q0 -8 -6 -13.5t-14 -5.5t-14 5.5t-6 13.5
q0 34 23.5 57.5t57.5 23.5z" />
    <glyph glyph-name="uni1ED6" unicode="&#x1ed6;" horiz-adv-x="684" 
d="M290 822q108 0 183 -77q76 -76 76 -184v-300q0 -109 -76 -185q-75 -76 -183 -76h-29q-109 0 -185 76t-76 185v300q0 108 76 184q77 77 185 77h29zM495 561q0 84 -60 146q-60 61 -145 61h-29q-86 0 -147 -61q-60 -60 -60 -146v-300q0 -87 60 -147t147 -60h29q86 0 145 60
q60 61 60 147v300zM378 1095q0 11 7.5 19t18.5 8t19 -8t8 -19q-2 -26 -9.5 -43.5t-18.5 -28t-25 -15t-27 -4.5q-21 0 -39.5 7.5t-46.5 28.5q-23 17 -35 26t-25 9q-12 0 -22 -9t-12 -35q0 -11 -7.5 -19t-18.5 -8t-19 8t-8 19q2 54 26 76t57 22q23 0 40.5 -8t44.5 -28
q23 -17 36.5 -24.5t25.5 -7.5t20 7t10 27zM274 912q-16 -16 -31.5 -31t-31.5 -31q-9 -9 -18 -9q-8 0 -17 7.5t-9 20.5q0 12 7 19l81 81q10 10 19 10q7 0 19 -10l81 -81q7 -7 7 -19q0 -14 -9 -21t-17 -7q-9 0 -18 9q-16 16 -31.5 31t-31.5 31z" />
    <glyph glyph-name="uni1ED8" unicode="&#x1ed8;" horiz-adv-x="684" 
d="M290 822q108 0 183 -77q76 -76 76 -184v-300q0 -109 -76 -185q-75 -76 -183 -76h-29q-109 0 -185 76t-76 185v300q0 108 76 184q77 77 185 77h29zM495 561q0 84 -60 146q-60 61 -145 61h-29q-86 0 -147 -61q-60 -60 -60 -146v-300q0 -87 60 -147t147 -60h29q86 0 145 60
q60 61 60 147v300zM274 922q-16 -16 -31.5 -31t-31.5 -31q-9 -9 -18 -9q-8 0 -17 7.5t-9 20.5q0 12 7 19l81 81q10 10 19 10q7 0 19 -10l81 -81q7 -7 7 -19q0 -14 -9 -21t-17 -7q-9 0 -18 9q-16 16 -31.5 31t-31.5 31zM274 -50q30 0 30 -30v-15q0 -30 -30 -30t-30 30v15
q0 30 30 30z" />
    <glyph glyph-name="Ohorn" unicode="&#x1a0;" horiz-adv-x="684" 
d="M491 779q15 0 26.5 11t11.5 25t-10.5 24.5t-24.5 12.5q-11 0 -18.5 8t-7.5 19t8 19t19 8h3q36 -2 60 -28.5t24 -62.5q0 -19 -7 -35.5t-19.5 -28.5t-29 -19t-35.5 -7q58 -70 58 -164v-300q0 -109 -76 -185q-75 -76 -183 -76h-29q-109 0 -185 76t-76 185v300q0 108 76 184
q77 77 185 77h29q81 0 143 -43h58zM495 561q0 84 -60 146q-60 61 -145 61h-29q-86 0 -147 -61q-60 -60 -60 -146v-300q0 -87 60 -147t147 -60h29q86 0 145 60q60 61 60 147v300z" />
    <glyph glyph-name="uni1EDA" unicode="&#x1eda;" horiz-adv-x="684" 
d="M342 996q8 -11 5.5 -22.5t-13.5 -18.5l-82 -56l-4 -2q-11 -6 -22.5 -4.5t-18.5 12.5q-8 11 -5.5 22t13.5 19l87 59q9 6 21 4t19 -13zM491 779q15 0 26.5 11t11.5 25t-10.5 24.5t-24.5 12.5q-11 0 -18.5 8t-7.5 19t8 19t19 8h3q36 -2 60 -28.5t24 -62.5q0 -19 -7 -35.5
t-19.5 -28.5t-29 -19t-35.5 -7q58 -70 58 -164v-300q0 -109 -76 -185q-75 -76 -183 -76h-29q-109 0 -185 76t-76 185v300q0 108 76 184q77 77 185 77h29q81 0 143 -43h58zM495 561q0 84 -60 146q-60 61 -145 61h-29q-86 0 -147 -61q-60 -60 -60 -146v-300q0 -87 60 -147
t147 -60h29q86 0 145 60q60 61 60 147v300z" />
    <glyph glyph-name="uni1EDC" unicode="&#x1edc;" horiz-adv-x="684" 
d="M210 1004q8 10 20 11.5t22 -6.5l82 -63q11 -8 12 -20t-7 -22q-8 -11 -20 -12.5t-22 6.5l-82 64q-10 8 -11.5 19.5t6.5 22.5zM491 779q15 0 26.5 11t11.5 25t-10.5 24.5t-24.5 12.5q-11 0 -18.5 8t-7.5 19t8 19t19 8h3q36 -2 60 -28.5t24 -62.5q0 -19 -7 -35.5
t-19.5 -28.5t-29 -19t-35.5 -7q58 -70 58 -164v-300q0 -109 -76 -185q-75 -76 -183 -76h-29q-109 0 -185 76t-76 185v300q0 108 76 184q77 77 185 77h29q81 0 143 -43h58zM495 561q0 84 -60 146q-60 61 -145 61h-29q-86 0 -147 -61q-60 -60 -60 -146v-300q0 -87 60 -147
t147 -60h29q86 0 145 60q60 61 60 147v300z" />
    <glyph glyph-name="uni1EDE" unicode="&#x1ede;" horiz-adv-x="684" 
d="M274 1108q34 0 57.5 -23.5t23.5 -57.5q0 -20 -10 -38q-13 -22 -37 -35q-14 -7 -14 -22v-20q0 -8 -6 -14t-14 -6q-4 0 -6 1q-5 2 -9.5 7.5t-4.5 11.5v8v12q0 7 2 17q1 2 1 3t1 3q9 24 32 35q8 4 13 9q12 12 12 28q0 18 -12 30q-14 12 -29 12q-19 0 -29 -12
q-12 -12 -12 -30q0 -8 -6 -13.5t-14 -5.5t-14 5.5t-6 13.5q0 34 23.5 57.5t57.5 23.5zM491 779q15 0 26.5 11t11.5 25t-10.5 24.5t-24.5 12.5q-11 0 -18.5 8t-7.5 19t8 19t19 8h3q36 -2 60 -28.5t24 -62.5q0 -19 -7 -35.5t-19.5 -28.5t-29 -19t-35.5 -7q58 -70 58 -164v-300
q0 -109 -76 -185q-75 -76 -183 -76h-29q-109 0 -185 76t-76 185v300q0 108 76 184q77 77 185 77h29q81 0 143 -43h58zM495 561q0 84 -60 146q-60 61 -145 61h-29q-86 0 -147 -61q-60 -60 -60 -146v-300q0 -87 60 -147t147 -60h29q86 0 145 60q60 61 60 147v300z" />
    <glyph glyph-name="uni1EE0" unicode="&#x1ee0;" horiz-adv-x="684" 
d="M378 983q0 11 7.5 19t18.5 8t19 -8t8 -19q-2 -26 -9.5 -43.5t-18.5 -28t-25 -15t-27 -4.5q-21 0 -39.5 7.5t-46.5 28.5q-23 17 -35 26t-25 9q-12 0 -22 -9t-12 -35q0 -11 -7.5 -19t-18.5 -8t-19 8t-8 19q2 54 26 76t57 22q23 0 40.5 -8t44.5 -28q23 -17 36.5 -24.5
t25.5 -7.5t20 7t10 27zM491 779q15 0 26.5 11t11.5 25t-10.5 24.5t-24.5 12.5q-11 0 -18.5 8t-7.5 19t8 19t19 8h3q36 -2 60 -28.5t24 -62.5q0 -19 -7 -35.5t-19.5 -28.5t-29 -19t-35.5 -7q58 -70 58 -164v-300q0 -109 -76 -185q-75 -76 -183 -76h-29q-109 0 -185 76
t-76 185v300q0 108 76 184q77 77 185 77h29q81 0 143 -43h58zM495 561q0 84 -60 146q-60 61 -145 61h-29q-86 0 -147 -61q-60 -60 -60 -146v-300q0 -87 60 -147t147 -60h29q86 0 145 60q60 61 60 147v300z" />
    <glyph glyph-name="uni1EE2" unicode="&#x1ee2;" horiz-adv-x="684" 
d="M274 -50q30 0 30 -30v-15q0 -30 -30 -30t-30 30v15q0 30 30 30zM491 779q15 0 26.5 11t11.5 25t-10.5 24.5t-24.5 12.5q-11 0 -18.5 8t-7.5 19t8 19t19 8h3q36 -2 60 -28.5t24 -62.5q0 -19 -7 -35.5t-19.5 -28.5t-29 -19t-35.5 -7q58 -70 58 -164v-300q0 -109 -76 -185
q-75 -76 -183 -76h-29q-109 0 -185 76t-76 185v300q0 108 76 184q77 77 185 77h29q81 0 143 -43h58zM495 561q0 84 -60 146q-60 61 -145 61h-29q-86 0 -147 -61q-60 -60 -60 -146v-300q0 -87 60 -147t147 -60h29q86 0 145 60q60 61 60 147v300z" />
    <glyph glyph-name="Dcroat" unicode="&#x110;" horiz-adv-x="673" 
d="M-47 375q-30 0 -30 30t30 30h47v351q0 26 26 26h254q106 0 182 -76t76 -182v-297q0 -107 -76 -182q-75 -75 -182 -75h-254q-26 0 -26 26v349h-47zM236 435q30 0 30 -30t-30 -30h-183v-322h227q85 0 145 60t60 144v297q0 86 -60 145q-60 60 -145 60h-227v-324h183z" />
    <glyph glyph-name="uni1EA3" unicode="&#x1ea3;" horiz-adv-x="576" 
d="M220 858q34 0 57.5 -23.5t23.5 -57.5q0 -20 -10 -38q-13 -22 -37 -35q-14 -7 -14 -22v-20q0 -8 -6 -14t-14 -6q-4 0 -6 1q-5 2 -9.5 7.5t-4.5 11.5v8v12q0 7 2 17q1 2 1 3t1 3q9 24 32 35q8 4 13 9q12 12 12 28q0 18 -12 30q-14 12 -29 12q-19 0 -29 -12q-12 -12 -12 -30
q0 -8 -6 -13.5t-14 -5.5t-14 5.5t-6 13.5q0 34 23.5 57.5t57.5 23.5zM440 323q1 -1 1 -2v-292q0 -25 -27 -25t-27 25v55q-69 -84 -167 -84h-23q-197 0 -197 170q0 65 41 103q43 42 123 42h223v49q0 64 -46 109q-45 45 -109 45h-23q-95 0 -138 -82q-12 -23 -36 -11
q-23 13 -11 36q29 51 77 81t108 30h23q86 0 147 -61q31 -31 45.5 -67.5t15.5 -79.5l1 -41h-1zM387 263h-224h-3q-55 0 -83 -28q-24 -23 -24 -65q0 -118 144 -118h23q69 0 121 61q46 52 46 95v55z" />
    <glyph glyph-name="atilde" unicode="&#xe3;" horiz-adv-x="576" 
d="M324 733q0 11 7.5 19t18.5 8t19 -8t8 -19q-2 -26 -9.5 -43.5t-18.5 -28t-25 -15t-27 -4.5q-21 0 -39.5 7.5t-46.5 28.5q-23 17 -35 26t-25 9q-12 0 -22 -9t-12 -35q0 -11 -7.5 -19t-18.5 -8t-19 8t-8 19q2 54 26 76t57 22q23 0 40.5 -8t44.5 -28q23 -17 36.5 -24.5
t25.5 -7.5t20 7t10 27zM440 323q1 -1 1 -2v-292q0 -25 -27 -25t-27 25v55q-69 -84 -167 -84h-23q-197 0 -197 170q0 65 41 103q43 42 123 42h223v49q0 64 -46 109q-45 45 -109 45h-23q-95 0 -138 -82q-12 -23 -36 -11q-23 13 -11 36q29 51 77 81t108 30h23q86 0 147 -61
q31 -31 45.5 -67.5t15.5 -79.5l1 -41h-1zM387 263h-224h-3q-55 0 -83 -28q-24 -23 -24 -65q0 -118 144 -118h23q69 0 121 61q46 52 46 95v55z" />
    <glyph glyph-name="uni1EA1" unicode="&#x1ea1;" horiz-adv-x="576" 
d="M220 -50q30 0 30 -30v-15q0 -30 -30 -30t-30 30v15q0 30 30 30zM440 323q1 -1 1 -2v-292q0 -25 -27 -25t-27 25v55q-69 -84 -167 -84h-23q-197 0 -197 170q0 65 41 103q43 42 123 42h223v49q0 64 -46 109q-45 45 -109 45h-23q-95 0 -138 -82q-12 -23 -36 -11
q-23 13 -11 36q29 51 77 81t108 30h23q86 0 147 -61q31 -31 45.5 -67.5t15.5 -79.5l1 -41h-1zM387 263h-224h-3q-55 0 -83 -28q-24 -23 -24 -65q0 -118 144 -118h23q69 0 121 61q46 52 46 95v55z" />
    <glyph glyph-name="abreve" unicode="&#x103;" horiz-adv-x="576" 
d="M127 725q0 11 6.5 18.5t17.5 7.5q20 0 25 -19q5 -17 16 -27t28 -10t28.5 10t15.5 27q2 8 9.5 13.5t16.5 5.5q10 0 17 -7.5t7 -18.5l-1 -6q-8 -33 -32.5 -55t-60.5 -22q-35 0 -59.5 21.5t-32.5 55.5zM440 323q1 -1 1 -2v-292q0 -25 -27 -25t-27 25v55q-69 -84 -167 -84
h-23q-197 0 -197 170q0 65 41 103q43 42 123 42h223v49q0 64 -46 109q-45 45 -109 45h-23q-95 0 -138 -82q-12 -23 -36 -11q-23 13 -11 36q29 51 77 81t108 30h23q86 0 147 -61q31 -31 45.5 -67.5t15.5 -79.5l1 -41h-1zM387 263h-224h-3q-55 0 -83 -28q-24 -23 -24 -65
q0 -118 144 -118h23q69 0 121 61q46 52 46 95v55z" />
    <glyph glyph-name="uni1EAF" unicode="&#x1eaf;" horiz-adv-x="576" 
d="M440 323q1 -1 1 -2v-292q0 -25 -27 -25t-27 25v55q-69 -84 -167 -84h-23q-197 0 -197 170q0 65 41 103q43 42 123 42h223v49q0 64 -46 109q-45 45 -109 45h-23q-95 0 -138 -82q-12 -23 -36 -11q-23 13 -11 36q29 51 77 81t108 30h23q86 0 147 -61q31 -31 45.5 -67.5
t15.5 -79.5l1 -41h-1zM387 263h-224h-3q-55 0 -83 -28q-24 -23 -24 -65q0 -118 144 -118h23q69 0 121 61q46 52 46 95v55zM127 689q0 11 6.5 18.5t17.5 7.5q20 0 25 -19q5 -17 16 -27t28 -10t28.5 10t15.5 27q2 8 9.5 13.5t16.5 5.5q10 0 17 -7.5t7 -18.5l-1 -6
q-8 -33 -32.5 -55t-60.5 -22q-35 0 -59.5 21.5t-32.5 55.5zM320 855q9 -10 8 -21.5t-10 -20.5l-3 -3l-68 -61l-6 -5q-11 -8 -22.5 -8t-19.5 10q-9 10 -8 21t10 20l3 3l75 68q9 8 21 7.5t20 -10.5z" />
    <glyph glyph-name="uni1EB1" unicode="&#x1eb1;" horiz-adv-x="576" 
d="M440 323q1 -1 1 -2v-292q0 -25 -27 -25t-27 25v55q-69 -84 -167 -84h-23q-197 0 -197 170q0 65 41 103q43 42 123 42h223v49q0 64 -46 109q-45 45 -109 45h-23q-95 0 -138 -82q-12 -23 -36 -11q-23 13 -11 36q29 51 77 81t108 30h23q86 0 147 -61q31 -31 45.5 -67.5
t15.5 -79.5l1 -41h-1zM387 263h-224h-3q-55 0 -83 -28q-24 -23 -24 -65q0 -118 144 -118h23q69 0 121 61q46 52 46 95v55zM115 848q8 10 20 11.5t22 -6.5l82 -63q11 -8 12 -20t-7 -22q-8 -11 -20 -12.5t-22 6.5l-82 64q-10 8 -11.5 19.5t6.5 22.5zM127 689q0 11 6.5 18.5
t17.5 7.5q20 0 25 -19q5 -17 16 -27t28 -10t28.5 10t15.5 27q2 8 9.5 13.5t16.5 5.5q10 0 17 -7.5t7 -18.5l-1 -6q-8 -33 -32.5 -55t-60.5 -22q-35 0 -59.5 21.5t-32.5 55.5z" />
    <glyph glyph-name="uni1EB3" unicode="&#x1eb3;" horiz-adv-x="576" 
d="M440 323q1 -1 1 -2v-292q0 -25 -27 -25t-27 25v55q-69 -84 -167 -84h-23q-197 0 -197 170q0 65 41 103q43 42 123 42h223v49q0 64 -46 109q-45 45 -109 45h-23q-95 0 -138 -82q-12 -23 -36 -11q-23 13 -11 36q29 51 77 81t108 30h23q86 0 147 -61q31 -31 45.5 -67.5
t15.5 -79.5l1 -41h-1zM387 263h-224h-3q-55 0 -83 -28q-24 -23 -24 -65q0 -118 144 -118h23q69 0 121 61q46 52 46 95v55zM127 689q0 11 6.5 18.5t17.5 7.5q20 0 25 -19q5 -17 16 -27t28 -10t28.5 10t15.5 27q2 8 9.5 13.5t16.5 5.5q10 0 17 -7.5t7 -18.5l-1 -6
q-8 -33 -32.5 -55t-60.5 -22q-35 0 -60.5 21t-31.5 56zM220 952q34 0 57.5 -23.5t23.5 -57.5q0 -20 -10 -38q-13 -22 -37 -35q-14 -7 -14 -22v-20q0 -8 -6 -14t-14 -6q-4 0 -6 1q-5 2 -9.5 7.5t-4.5 11.5v8v12q0 7 2 17q1 2 1 3t1 3q9 24 32 35q8 4 13 9q12 12 12 28
q0 18 -12 30q-14 12 -29 12q-19 0 -29 -12q-12 -12 -12 -30q0 -8 -6 -13.5t-14 -5.5t-14 5.5t-6 13.5q0 34 23.5 57.5t57.5 23.5z" />
    <glyph glyph-name="uni1EB5" unicode="&#x1eb5;" horiz-adv-x="576" 
d="M440 323q1 -1 1 -2v-292q0 -25 -27 -25t-27 25v55q-69 -84 -167 -84h-23q-197 0 -197 170q0 65 41 103q43 42 123 42h223v49q0 64 -46 109q-45 45 -109 45h-23q-95 0 -138 -82q-12 -23 -36 -11q-23 13 -11 36q29 51 77 81t108 30h23q86 0 147 -61q31 -31 45.5 -67.5
t15.5 -79.5l1 -41h-1zM387 263h-224h-3q-55 0 -83 -28q-24 -23 -24 -65q0 -118 144 -118h23q69 0 121 61q46 52 46 95v55zM127 689q0 11 6.5 18.5t17.5 7.5q20 0 25 -19q5 -17 16 -27t28 -10t28.5 10t15.5 27q2 8 9.5 13.5t16.5 5.5q10 0 17 -7.5t7 -18.5l-1 -6
q-8 -33 -32.5 -55t-60.5 -22q-35 0 -59.5 21.5t-32.5 55.5zM324 827q0 11 7.5 19t18.5 8t19 -8t8 -19q-2 -26 -9.5 -43.5t-18.5 -28t-25 -15t-27 -4.5q-21 0 -39.5 7.5t-46.5 28.5q-23 17 -35 26t-25 9q-12 0 -22 -9t-12 -35q0 -11 -7.5 -19t-18.5 -8t-19 8t-8 19
q2 54 26 76t57 22q23 0 40.5 -8t44.5 -28q23 -17 36.5 -24.5t25.5 -7.5t20 7t10 27z" />
    <glyph glyph-name="uni1EB7" unicode="&#x1eb7;" horiz-adv-x="576" 
d="M440 323q1 -1 1 -2v-292q0 -25 -27 -25t-27 25v55q-69 -84 -167 -84h-23q-197 0 -197 170q0 65 41 103q43 42 123 42h223v49q0 64 -46 109q-45 45 -109 45h-23q-95 0 -138 -82q-12 -23 -36 -11q-23 13 -11 36q29 51 77 81t108 30h23q86 0 147 -61q31 -31 45.5 -67.5
t15.5 -79.5l1 -41h-1zM387 263h-224h-3q-55 0 -83 -28q-24 -23 -24 -65q0 -118 144 -118h23q69 0 121 61q46 52 46 95v55zM127 689q0 11 6.5 18.5t17.5 7.5q20 0 25 -19q5 -17 16 -27t28 -10t28.5 10t15.5 27q2 8 9.5 13.5t16.5 5.5q10 0 17 -7.5t7 -18.5l-1 -6
q-8 -33 -32.5 -55t-60.5 -22q-35 0 -59.5 21.5t-32.5 55.5zM220 -50q30 0 30 -30v-15q0 -30 -30 -30t-30 30v15q0 30 30 30z" />
    <glyph glyph-name="uni1EA5" unicode="&#x1ea5;" horiz-adv-x="576" 
d="M218 662q-16 -16 -31.5 -31t-31.5 -31q-9 -9 -18 -9q-8 0 -17 7.5t-9 20.5q0 12 7 19l81 81q10 10 19 10q7 0 19 -10l81 -81q7 -7 7 -19q0 -14 -9 -21t-17 -7q-9 0 -18 9q-16 16 -31.5 31t-31.5 31zM425 815q9 -10 8 -21.5t-10 -20.5l-3 -3l-68 -61l-6 -5
q-11 -8 -22.5 -8t-19.5 10q-9 10 -8 21t10 20l3 3l75 68q9 8 21 7.5t20 -10.5zM441 335v-13v-288q0 -26 -27 -26q-26 0 -26 26v51q-70 -85 -168 -85h-23q-197 0 -197 171q0 65 40 102q44 43 124 43h224v48q0 64 -46 109q-46 46 -110 46h-23q-94 0 -138 -83q-12 -23 -36 -11
q-23 13 -11 36q28 52 76.5 81.5t108.5 29.5h23q86 0 147 -61q62 -62 62 -147v-29zM388 263h-225h-3q-52 0 -83 -28q-25 -25 -25 -64q0 -119 145 -119h23q69 0 121 61q47 53 47 95v55z" />
    <glyph glyph-name="uni1EA7" unicode="&#x1ea7;" horiz-adv-x="576" 
d="M221 662q-16 -16 -31.5 -31t-31.5 -31q-9 -9 -18 -9q-8 0 -17 7.5t-9 20.5q0 12 7 19l81 81q10 10 19 10q7 0 19 -10l81 -81q7 -7 7 -19q0 -14 -9 -21t-17 -7q-9 0 -18 9q-16 16 -31.5 31t-31.5 31zM7 808q8 10 20 11.5t22 -6.5l82 -63q11 -8 12 -20t-7 -22
q-8 -11 -20 -12.5t-22 6.5l-82 64q-10 8 -11.5 19.5t6.5 22.5zM441 335v-13v-288q0 -26 -27 -26q-26 0 -26 26v51q-70 -85 -168 -85h-23q-197 0 -197 171q0 65 40 102q44 43 124 43h224v48q0 64 -46 109q-46 46 -110 46h-23q-94 0 -138 -83q-12 -23 -36 -11q-23 13 -11 36
q28 52 76.5 81.5t108.5 29.5h23q86 0 147 -61q62 -62 62 -147v-29zM388 263h-225h-3q-52 0 -83 -28q-25 -25 -25 -64q0 -119 145 -119h23q69 0 121 61q47 53 47 95v55z" />
    <glyph glyph-name="uni1EA9" unicode="&#x1ea9;" horiz-adv-x="576" 
d="M220 662q-16 -16 -31.5 -31t-31.5 -31q-9 -9 -18 -9q-8 0 -17 7.5t-9 20.5q0 12 7 19l81 81q10 10 19 10q7 0 19 -10l81 -81q7 -7 7 -19q0 -14 -9 -21t-17 -7q-9 0 -18 9q-16 16 -31.5 31t-31.5 31zM318 912q34 0 57.5 -23.5t23.5 -57.5q0 -20 -10 -38q-13 -22 -37 -35
q-14 -7 -14 -22v-20q0 -8 -6 -14t-14 -6q-4 0 -6 1q-5 2 -9.5 7.5t-4.5 11.5v8v12q0 7 2 17q1 2 1 3t1 3q9 24 32 35q8 4 13 9q12 12 12 28q0 18 -12 30q-14 12 -29 12q-19 0 -29 -12q-12 -12 -12 -30q0 -8 -6 -13.5t-14 -5.5t-14 5.5t-6 13.5q0 34 23.5 57.5t57.5 23.5z
M441 335v-13v-288q0 -26 -27 -26q-26 0 -26 26v51q-70 -85 -168 -85h-23q-197 0 -197 171q0 65 40 102q44 43 124 43h224v48q0 64 -46 109q-46 46 -110 46h-23q-94 0 -138 -83q-12 -23 -36 -11q-23 13 -11 36q28 52 76.5 81.5t108.5 29.5h23q86 0 147 -61q62 -62 62 -147
v-29zM388 263h-225h-3q-52 0 -83 -28q-25 -25 -25 -64q0 -119 145 -119h23q69 0 121 61q47 53 47 95v55z" />
    <glyph glyph-name="uni1EAB" unicode="&#x1eab;" horiz-adv-x="576" 
d="M324 845q0 11 7.5 19t18.5 8t19 -8t8 -19q-2 -26 -9.5 -43.5t-18.5 -28t-25 -15t-27 -4.5q-21 0 -39.5 7.5t-46.5 28.5q-23 17 -35 26t-25 9q-12 0 -22 -9t-12 -35q0 -11 -7.5 -19t-18.5 -8t-19 8t-8 19q2 54 26 76t57 22q23 0 40.5 -8t44.5 -28q23 -17 36.5 -24.5
t25.5 -7.5t20 7t10 27zM220 662q-16 -16 -31.5 -31t-31.5 -31q-9 -9 -18 -9q-8 0 -17 7.5t-9 20.5q0 12 7 19l81 81q10 10 19 10q7 0 19 -10l81 -81q7 -7 7 -19q0 -14 -9 -21t-17 -7q-9 0 -18 9q-16 16 -31.5 31t-31.5 31zM441 335v-13v-288q0 -26 -27 -26q-26 0 -26 26v51
q-70 -85 -168 -85h-23q-197 0 -197 171q0 65 40 102q44 43 124 43h224v48q0 64 -46 109q-46 46 -110 46h-23q-94 0 -138 -83q-12 -23 -36 -11q-23 13 -11 36q28 52 76.5 81.5t108.5 29.5h23q86 0 147 -61q62 -62 62 -147v-29zM388 263h-225h-3q-52 0 -83 -28
q-25 -25 -25 -64q0 -119 145 -119h23q69 0 121 61q47 53 47 95v55z" />
    <glyph glyph-name="uni1EAD" unicode="&#x1ead;" horiz-adv-x="576" 
d="M220 662q-16 -16 -31.5 -31t-31.5 -31q-9 -9 -18 -9q-8 0 -17 7.5t-9 20.5q0 12 7 19l81 81q10 10 19 10q7 0 19 -10l81 -81q7 -7 7 -19q0 -14 -9 -21t-17 -7q-9 0 -18 9q-16 16 -31.5 31t-31.5 31zM441 335v-13v-288q0 -26 -27 -26q-26 0 -26 26v51q-70 -85 -168 -85
h-23q-197 0 -197 171q0 65 40 102q44 43 124 43h224v48q0 64 -46 109q-46 46 -110 46h-23q-94 0 -138 -83q-12 -23 -36 -11q-23 13 -11 36q28 52 76.5 81.5t108.5 29.5h23q86 0 147 -61q62 -62 62 -147v-29zM388 263h-225h-3q-52 0 -83 -28q-25 -25 -25 -64q0 -119 145 -119
h23q69 0 121 61q47 53 47 95v55zM220 -50q30 0 30 -30v-15q0 -30 -30 -30t-30 30v15q0 30 30 30z" />
    <glyph glyph-name="uni1EBB" unicode="&#x1ebb;" 
d="M234 575q85 0 147 -62q61 -61 61 -147v-62q0 -26 -26 -26h-362v-68q0 -66 45 -111t111 -45h24q51 0 90.5 28.5t55.5 76.5q6 18 26 18q27 0 27 -28q0 -5 -1 -8q-12 -32 -32 -57.5t-46 -44.5t-56.5 -29t-63.5 -10h-24q-87 0 -148 61q-62 62 -62 149v156q0 85 62 147t148 62
h24zM388 366q0 65 -45 110t-109 45h-24q-66 0 -111 -45t-45 -110v-35h334v35zM221 861q34 0 57.5 -23.5t23.5 -57.5q0 -20 -10 -38q-13 -22 -37 -35q-14 -7 -14 -22v-20q0 -8 -6 -14t-14 -6q-4 0 -6 1q-5 2 -9.5 7.5t-4.5 11.5v8v12q0 7 2 17q1 2 1 3t1 3q9 24 32 35
q8 4 13 9q12 12 12 28q0 18 -12 30q-14 12 -29 12q-19 0 -29 -12q-12 -12 -12 -30q0 -8 -6 -13.5t-14 -5.5t-14 5.5t-6 13.5q0 34 23.5 57.5t57.5 23.5z" />
    <glyph glyph-name="uni1EBD" unicode="&#x1ebd;" 
d="M325 736q0 11 7.5 19t18.5 8t19 -8t8 -19q-2 -26 -9.5 -43.5t-18.5 -28t-25 -15t-27 -4.5q-21 0 -39.5 7.5t-46.5 28.5q-23 17 -35 26t-25 9q-12 0 -22 -9t-12 -35q0 -11 -7.5 -19t-18.5 -8t-19 8t-8 19q2 54 26 76t57 22q23 0 40.5 -8t44.5 -28q23 -17 36.5 -24.5
t25.5 -7.5t20 7t10 27zM234 575q85 0 147 -62q61 -61 61 -147v-62q0 -26 -26 -26h-362v-68q0 -66 45 -111t111 -45h24q51 0 90.5 28.5t55.5 76.5q6 18 26 18q27 0 27 -28q0 -5 -1 -8q-12 -32 -32 -57.5t-46 -44.5t-56.5 -29t-63.5 -10h-24q-87 0 -148 61q-62 62 -62 149v156
q0 85 62 147t148 62h24zM388 366q0 65 -45 110t-109 45h-24q-66 0 -111 -45t-45 -110v-35h334v35z" />
    <glyph glyph-name="uni1EB9" unicode="&#x1eb9;" 
d="M221 -50q30 0 30 -30v-15q0 -30 -30 -30t-30 30v15q0 30 30 30zM234 575q85 0 147 -62q61 -61 61 -147v-62q0 -26 -26 -26h-362v-68q0 -66 45 -111t111 -45h24q51 0 90.5 28.5t55.5 76.5q6 18 26 18q27 0 27 -28q0 -5 -1 -8q-12 -32 -32 -57.5t-46 -44.5t-56.5 -29
t-63.5 -10h-24q-87 0 -148 61q-62 62 -62 149v156q0 85 62 147t148 62h24zM388 366q0 65 -45 110t-109 45h-24q-66 0 -111 -45t-45 -110v-35h334v35z" />
    <glyph glyph-name="uni1EBF" unicode="&#x1ebf;" 
d="M234 575q85 0 147 -62q61 -61 61 -147v-62q0 -26 -26 -26h-362v-68q0 -66 45 -111t111 -45h24q51 0 90.5 28.5t55.5 76.5q6 18 26 18q27 0 27 -28q0 -5 -1 -8q-12 -32 -32 -57.5t-46 -44.5t-56.5 -29t-63.5 -10h-24q-87 0 -148 61q-62 62 -62 149v156q0 85 62 147t148 62
h24zM388 366q0 65 -45 110t-109 45h-24q-66 0 -111 -45t-45 -110v-35h334v35zM221 665q-16 -16 -31.5 -31t-31.5 -31q-9 -9 -18 -9q-8 0 -17 7.5t-9 20.5q0 12 7 19l81 81q10 10 19 10q7 0 19 -10l81 -81q7 -7 7 -19q0 -14 -9 -21t-17 -7q-9 0 -18 9q-16 16 -31.5 31
t-31.5 31zM428 818q9 -10 8 -21.5t-10 -20.5l-3 -3l-68 -61l-6 -5q-11 -8 -22.5 -8t-19.5 10q-9 10 -8 21t10 20l3 3l75 68q9 8 21 7.5t20 -10.5z" />
    <glyph glyph-name="uni1EC1" unicode="&#x1ec1;" 
d="M234 575q85 0 147 -62q61 -61 61 -147v-62q0 -26 -26 -26h-362v-68q0 -66 45 -111t111 -45h24q51 0 90.5 28.5t55.5 76.5q6 18 26 18q27 0 27 -28q0 -5 -1 -8q-12 -32 -32 -57.5t-46 -44.5t-56.5 -29t-63.5 -10h-24q-87 0 -148 61q-62 62 -62 149v156q0 85 62 147t148 62
h24zM388 366q0 65 -45 110t-109 45h-24q-66 0 -111 -45t-45 -110v-35h334v35zM221 665q-16 -16 -31.5 -31t-31.5 -31q-9 -9 -18 -9q-8 0 -17 7.5t-9 20.5q0 12 7 19l81 81q10 10 19 10q7 0 19 -10l81 -81q7 -7 7 -19q0 -14 -9 -21t-17 -7q-9 0 -18 9q-16 16 -31.5 31
t-31.5 31zM7 811q8 10 20 11.5t22 -6.5l82 -63q11 -8 12 -20t-7 -22q-8 -11 -20 -12.5t-22 6.5l-82 64q-10 8 -11.5 19.5t6.5 22.5z" />
    <glyph glyph-name="uni1EC3" unicode="&#x1ec3;" 
d="M234 575q85 0 147 -62q61 -61 61 -147v-62q0 -26 -26 -26h-362v-68q0 -66 45 -111t111 -45h24q51 0 90.5 28.5t55.5 76.5q6 18 26 18q27 0 27 -28q0 -5 -1 -8q-12 -32 -32 -57.5t-46 -44.5t-56.5 -29t-63.5 -10h-24q-87 0 -148 61q-62 62 -62 149v156q0 85 62 147t148 62
h24zM388 366q0 65 -45 110t-109 45h-24q-66 0 -111 -45t-45 -110v-35h334v35zM221 665q-16 -16 -31.5 -31t-31.5 -31q-9 -9 -18 -9q-8 0 -17 7.5t-9 20.5q0 12 7 19l81 81q10 10 19 10q7 0 19 -10l81 -81q7 -7 7 -19q0 -14 -9 -21t-17 -7q-9 0 -18 9q-16 16 -31.5 31
t-31.5 31zM319 915q34 0 57.5 -23.5t23.5 -57.5q0 -20 -10 -38q-13 -22 -37 -35q-14 -7 -14 -22v-20q0 -8 -6 -14t-14 -6q-4 0 -6 1q-5 2 -9.5 7.5t-4.5 11.5v8v12q0 7 2 17q1 2 1 3t1 3q9 24 32 35q8 4 13 9q12 12 12 28q0 18 -12 30q-14 12 -29 12q-19 0 -29 -12
q-12 -12 -12 -30q0 -8 -6 -13.5t-14 -5.5t-14 5.5t-6 13.5q0 34 23.5 57.5t57.5 23.5z" />
    <glyph glyph-name="uni1EC5" unicode="&#x1ec5;" 
d="M234 575q85 0 147 -62q61 -61 61 -147v-62q0 -26 -26 -26h-362v-68q0 -66 45 -111t111 -45h24q51 0 90.5 28.5t55.5 76.5q6 18 26 18q27 0 27 -28q0 -5 -1 -8q-12 -32 -32 -57.5t-46 -44.5t-56.5 -29t-63.5 -10h-24q-87 0 -148 61q-62 62 -62 149v156q0 85 62 147t148 62
h24zM388 366q0 65 -45 110t-109 45h-24q-66 0 -111 -45t-45 -110v-35h334v35zM325 845q0 11 7.5 19t18.5 8t19 -8t8 -19q-2 -26 -9.5 -43.5t-18.5 -28t-25 -15t-27 -4.5q-21 0 -39.5 7.5t-46.5 28.5q-23 17 -35 26t-25 9q-12 0 -22 -9t-12 -35q0 -11 -7.5 -19t-18.5 -8
t-19 8t-8 19q2 54 26 76t57 22q23 0 40.5 -8t44.5 -28q23 -17 36.5 -24.5t25.5 -7.5t20 7t10 27zM221 662q-16 -16 -31.5 -31t-31.5 -31q-9 -9 -18 -9q-8 0 -17 7.5t-9 20.5q0 12 7 19l81 81q10 10 19 10q7 0 19 -10l81 -81q7 -7 7 -19q0 -14 -9 -21t-17 -7q-9 0 -18 9
q-16 16 -31.5 31t-31.5 31z" />
    <glyph glyph-name="uni1EC7" unicode="&#x1ec7;" 
d="M234 575q85 0 147 -62q61 -61 61 -147v-62q0 -26 -26 -26h-362v-68q0 -66 45 -111t111 -45h24q51 0 90.5 28.5t55.5 76.5q6 18 26 18q27 0 27 -28q0 -5 -1 -8q-12 -32 -32 -57.5t-46 -44.5t-56.5 -29t-63.5 -10h-24q-87 0 -148 61q-62 62 -62 149v156q0 85 62 147t148 62
h24zM388 366q0 65 -45 110t-109 45h-24q-66 0 -111 -45t-45 -110v-35h334v35zM221 662q-16 -16 -31.5 -31t-31.5 -31q-9 -9 -18 -9q-8 0 -17 7.5t-9 20.5q0 12 7 19l81 81q10 10 19 10q7 0 19 -10l81 -81q7 -7 7 -19q0 -14 -9 -21t-17 -7q-9 0 -18 9q-16 16 -31.5 31
t-31.5 31zM221 -50q30 0 30 -30v-15q0 -30 -30 -30t-30 30v15q0 30 30 30z" />
    <glyph glyph-name="ygrave" unicode="&#x1ef3;" horiz-adv-x="580" 
d="M417 559q13 0 21 -7t6 -20q-1 -5 -3 -11q-79 -222 -131.5 -369t-78.5 -223q-34 -98 -103 -143q-44 -27 -90 -27q-11 0 -15 1q-14 2 -18.5 12t-3.5 18q1 14 9.5 19t20.5 5q13 0 27 2t30 10q31 15 53 45.5t39 75.5l20 54l-3 6l-189 515q-3 7 -3 14q1 20 27 23q8 1 14.5 -3
t11.5 -16l169 -462l162 459l2 5q7 17 26 17zM159 742q8 10 20 11.5t22 -6.5l82 -63q11 -8 12 -20t-7 -22q-8 -11 -20 -12.5t-22 6.5l-82 64q-10 8 -11.5 19.5t6.5 22.5z" />
    <glyph glyph-name="uni1EF7" unicode="&#x1ef7;" horiz-adv-x="580" 
d="M417 559q13 0 21 -7t6 -20q-1 -5 -3 -11q-79 -222 -131.5 -369t-78.5 -223q-34 -98 -103 -143q-44 -27 -90 -27q-11 0 -15 1q-14 2 -18.5 12t-3.5 18q1 14 9.5 19t20.5 5q13 0 27 2t30 10q31 15 53 45.5t39 75.5l20 54l-3 6l-189 515q-3 7 -3 14q1 20 27 23q8 1 14.5 -3
t11.5 -16l169 -462l162 459l2 5q7 17 26 17zM223 845q34 0 57.5 -23.5t23.5 -57.5q0 -20 -10 -38q-13 -22 -37 -35q-14 -7 -14 -22v-20q0 -8 -6 -14t-14 -6q-4 0 -6 1q-5 2 -9.5 7.5t-4.5 11.5v8v12q0 7 2 17q1 2 1 3t1 3q9 24 32 35q8 4 13 9q12 12 12 28q0 18 -12 30
q-14 12 -29 12q-19 0 -29 -12q-12 -12 -12 -30q0 -8 -6 -13.5t-14 -5.5t-14 5.5t-6 13.5q0 34 23.5 57.5t57.5 23.5z" />
    <glyph glyph-name="uni1EF9" unicode="&#x1ef9;" horiz-adv-x="580" 
d="M327 720q0 11 7.5 19t18.5 8t19 -8t8 -19q-2 -26 -9.5 -43.5t-18.5 -28t-25 -15t-27 -4.5q-21 0 -39.5 7.5t-46.5 28.5q-23 17 -35 26t-25 9q-12 0 -22 -9t-12 -35q0 -11 -7.5 -19t-18.5 -8t-19 8t-8 19q2 54 26 76t57 22q23 0 40.5 -8t44.5 -28q23 -17 36.5 -24.5
t25.5 -7.5t20 7t10 27zM417 559q13 0 21 -7t6 -20q-1 -5 -3 -11q-79 -222 -131.5 -369t-78.5 -223q-34 -98 -103 -143q-44 -27 -90 -27q-11 0 -15 1q-14 2 -18.5 12t-3.5 18q1 14 9.5 19t20.5 5q13 0 27 2t30 10q31 15 53 45.5t39 75.5l20 54l-3 6l-189 515q-3 7 -3 14
q1 20 27 23q8 1 14.5 -3t11.5 -16l169 -462l162 459l2 5q7 17 26 17z" />
    <glyph glyph-name="uni1EF5" unicode="&#x1ef5;" horiz-adv-x="580" 
d="M223 -291q30 0 30 -30v-15q0 -30 -30 -30t-30 30v15q0 30 30 30zM417 559q13 0 21 -7t6 -20q-1 -5 -3 -11q-79 -222 -131.5 -369t-78.5 -223q-34 -98 -103 -143q-44 -27 -90 -27q-11 0 -15 1q-14 2 -18.5 12t-3.5 18q1 14 9.5 19t20.5 5q13 0 27 2t30 10q31 15 53 45.5
t39 75.5l20 54l-3 6l-189 515q-3 7 -3 14q1 20 27 23q8 1 14.5 -3t11.5 -16l169 -462l162 459l2 5q7 17 26 17z" />
    <glyph glyph-name="uni1EE7" unicode="&#x1ee7;" horiz-adv-x="573" 
d="M219 854q34 0 57.5 -23.5t23.5 -57.5q0 -20 -10 -38q-13 -22 -37 -35q-14 -7 -14 -22v-20q0 -8 -6 -14t-14 -6q-4 0 -6 1q-5 2 -9.5 7.5t-4.5 11.5v8v12q0 7 2 17q1 2 1 3t1 3q9 24 32 35q8 4 13 9q12 12 12 28q0 18 -12 30q-14 12 -29 12q-19 0 -29 -12q-12 -12 -12 -30
q0 -8 -6 -13.5t-14 -5.5t-14 5.5t-6 13.5q0 34 23.5 57.5t57.5 23.5zM412 568q26 0 26 -26v-510q0 -27 -26 -27q-27 0 -27 27v37q-62 -69 -154 -69h-24q-85 0 -146 60q-61 61 -61 146v336q0 26 27 26q26 0 26 -26v-336q0 -64 45 -109t109 -45h24q64 0 109 45t45 109v336
q0 26 27 26z" />
    <glyph glyph-name="utilde" unicode="&#x169;" horiz-adv-x="573" 
d="M323 729q0 11 7.5 19t18.5 8t19 -8t8 -19q-2 -26 -9.5 -43.5t-18.5 -28t-25 -15t-27 -4.5q-21 0 -39.5 7.5t-46.5 28.5q-23 17 -35 26t-25 9q-12 0 -22 -9t-12 -35q0 -11 -7.5 -19t-18.5 -8t-19 8t-8 19q2 54 26 76t57 22q23 0 40.5 -8t44.5 -28q23 -17 36.5 -24.5
t25.5 -7.5t20 7t10 27zM412 568q26 0 26 -26v-510q0 -27 -26 -27q-27 0 -27 27v37q-62 -69 -154 -69h-24q-85 0 -146 60q-61 61 -61 146v336q0 26 27 26q26 0 26 -26v-336q0 -64 45 -109t109 -45h24q64 0 109 45t45 109v336q0 26 27 26z" />
    <glyph glyph-name="uni1EE5" unicode="&#x1ee5;" horiz-adv-x="573" 
d="M219 -50q30 0 30 -30v-15q0 -30 -30 -30t-30 30v15q0 30 30 30zM412 568q26 0 26 -26v-510q0 -27 -26 -27q-27 0 -27 27v37q-62 -69 -154 -69h-24q-85 0 -146 60q-61 61 -61 146v336q0 26 27 26q26 0 26 -26v-336q0 -64 45 -109t109 -45h24q64 0 109 45t45 109v336
q0 26 27 26z" />
    <glyph glyph-name="uhorn" unicode="&#x1b0;" horiz-adv-x="573" 
d="M438 528q15 0 26.5 11t11.5 25t-10.5 24.5t-24.5 12.5q-11 0 -18.5 8t-7.5 19t8 19t19 8h3q36 -2 60 -28.5t24 -62.5q0 -19 -7 -35.5t-19.5 -28.5t-29 -19t-35.5 -7v-442q0 -27 -26 -27q-27 0 -27 27v37q-62 -69 -154 -69h-24q-85 0 -146 60q-61 61 -61 146v336
q0 26 27 26q26 0 26 -26v-336q0 -64 45 -109t109 -45h24q64 0 109 45t45 109v336q0 26 27 26q26 0 26 -26v-14z" />
    <glyph glyph-name="uni1EE9" unicode="&#x1ee9;" horiz-adv-x="573" 
d="M287 742q8 -11 5.5 -22.5t-13.5 -18.5l-82 -56l-4 -2q-11 -6 -22.5 -4.5t-18.5 12.5q-8 11 -5.5 22t13.5 19l87 59q9 6 21 4t19 -13zM438 528q15 0 26.5 11t11.5 25t-10.5 24.5t-24.5 12.5q-11 0 -18.5 8t-7.5 19t8 19t19 8h3q36 -2 60 -28.5t24 -62.5q0 -19 -7 -35.5
t-19.5 -28.5t-29 -19t-35.5 -7v-442q0 -27 -26 -27q-27 0 -27 27v37q-62 -69 -154 -69h-24q-85 0 -146 60q-61 61 -61 146v336q0 26 27 26q26 0 26 -26v-336q0 -64 45 -109t109 -45h24q64 0 109 45t45 109v336q0 26 27 26q26 0 26 -26v-14z" />
    <glyph glyph-name="uni1EEB" unicode="&#x1eeb;" horiz-adv-x="573" 
d="M155 750q8 10 20 11.5t22 -6.5l82 -63q11 -8 12 -20t-7 -22q-8 -11 -20 -12.5t-22 6.5l-82 64q-10 8 -11.5 19.5t6.5 22.5zM438 528q15 0 26.5 11t11.5 25t-10.5 24.5t-24.5 12.5q-11 0 -18.5 8t-7.5 19t8 19t19 8h3q36 -2 60 -28.5t24 -62.5q0 -19 -7 -35.5t-19.5 -28.5
t-29 -19t-35.5 -7v-442q0 -27 -26 -27q-27 0 -27 27v37q-62 -69 -154 -69h-24q-85 0 -146 60q-61 61 -61 146v336q0 26 27 26q26 0 26 -26v-336q0 -64 45 -109t109 -45h24q64 0 109 45t45 109v336q0 26 27 26q26 0 26 -26v-14z" />
    <glyph glyph-name="uni1EED" unicode="&#x1eed;" horiz-adv-x="573" 
d="M219 854q34 0 57.5 -23.5t23.5 -57.5q0 -20 -10 -38q-13 -22 -37 -35q-14 -7 -14 -22v-20q0 -8 -6 -14t-14 -6q-4 0 -6 1q-5 2 -9.5 7.5t-4.5 11.5v8v12q0 7 2 17q1 2 1 3t1 3q9 24 32 35q8 4 13 9q12 12 12 28q0 18 -12 30q-14 12 -29 12q-19 0 -29 -12q-12 -12 -12 -30
q0 -8 -6 -13.5t-14 -5.5t-14 5.5t-6 13.5q0 34 23.5 57.5t57.5 23.5zM438 528q15 0 26.5 11t11.5 25t-10.5 24.5t-24.5 12.5q-11 0 -18.5 8t-7.5 19t8 19t19 8h3q36 -2 60 -28.5t24 -62.5q0 -19 -7 -35.5t-19.5 -28.5t-29 -19t-35.5 -7v-442q0 -27 -26 -27q-27 0 -27 27v37
q-62 -69 -154 -69h-24q-85 0 -146 60q-61 61 -61 146v336q0 26 27 26q26 0 26 -26v-336q0 -64 45 -109t109 -45h24q64 0 109 45t45 109v336q0 26 27 26q26 0 26 -26v-14z" />
    <glyph glyph-name="uni1EEF" unicode="&#x1eef;" horiz-adv-x="573" 
d="M323 729q0 11 7.5 19t18.5 8t19 -8t8 -19q-2 -26 -9.5 -43.5t-18.5 -28t-25 -15t-27 -4.5q-21 0 -39.5 7.5t-46.5 28.5q-23 17 -35 26t-25 9q-12 0 -22 -9t-12 -35q0 -11 -7.5 -19t-18.5 -8t-19 8t-8 19q2 54 26 76t57 22q23 0 40.5 -8t44.5 -28q23 -17 36.5 -24.5
t25.5 -7.5t20 7t10 27zM438 528q15 0 26.5 11t11.5 25t-10.5 24.5t-24.5 12.5q-11 0 -18.5 8t-7.5 19t8 19t19 8h3q36 -2 60 -28.5t24 -62.5q0 -19 -7 -35.5t-19.5 -28.5t-29 -19t-35.5 -7v-442q0 -27 -26 -27q-27 0 -27 27v37q-62 -69 -154 -69h-24q-85 0 -146 60
q-61 61 -61 146v336q0 26 27 26q26 0 26 -26v-336q0 -64 45 -109t109 -45h24q64 0 109 45t45 109v336q0 26 27 26q26 0 26 -26v-14z" />
    <glyph glyph-name="uni1EF1" unicode="&#x1ef1;" horiz-adv-x="573" 
d="M219 -50q30 0 30 -30v-15q0 -30 -30 -30t-30 30v15q0 30 30 30zM438 528q15 0 26.5 11t11.5 25t-10.5 24.5t-24.5 12.5q-11 0 -18.5 8t-7.5 19t8 19t19 8h3q36 -2 60 -28.5t24 -62.5q0 -19 -7 -35.5t-19.5 -28.5t-29 -19t-35.5 -7v-442q0 -27 -26 -27q-27 0 -27 27v37
q-62 -69 -154 -69h-24q-85 0 -146 60q-61 61 -61 146v336q0 26 27 26q26 0 26 -26v-336q0 -64 45 -109t109 -45h24q64 0 109 45t45 109v336q0 26 27 26q26 0 26 -26v-14z" />
    <glyph glyph-name="uni1EC9" unicode="&#x1ec9;" horiz-adv-x="188" 
d="M27 561q27 0 27 -27v-508q0 -26 -27 -26q-26 0 -26 26v508q0 27 26 27zM27 848q34 0 57.5 -23.5t23.5 -57.5q0 -20 -10 -38q-13 -22 -37 -35q-14 -7 -14 -22v-20q0 -8 -6 -14t-14 -6q-4 0 -6 1q-5 2 -9.5 7.5t-4.5 11.5v8v12q0 7 2 17q1 2 1 3t1 3q9 24 32 35q8 4 13 9
q12 12 12 28q0 18 -12 30q-14 12 -29 12q-19 0 -29 -12q-12 -12 -12 -30q0 -8 -6 -13.5t-14 -5.5t-14 5.5t-6 13.5q0 34 23.5 57.5t57.5 23.5z" />
    <glyph glyph-name="itilde" unicode="&#x129;" horiz-adv-x="188" 
d="M26 561q27 0 27 -27v-508q0 -26 -27 -26q-26 0 -26 26v508q0 27 26 27zM130 722q0 11 7.5 19t18.5 8t19 -8t8 -19q-2 -26 -9.5 -43.5t-18.5 -28t-25 -15t-27 -4.5q-21 0 -39.5 7.5t-46.5 28.5q-23 17 -35 26t-25 9q-12 0 -22 -9t-12 -35q0 -11 -7.5 -19t-18.5 -8t-19 8
t-8 19q2 54 26 76t57 22q23 0 40.5 -8t44.5 -28q23 -17 36.5 -24.5t25.5 -7.5t20 7t10 27z" />
    <glyph glyph-name="uni1ECB" unicode="&#x1ecb;" horiz-adv-x="181" 
d="M22 561q27 0 27 -27v-508q0 -26 -27 -26q-26 0 -26 26v508q0 27 26 27zM22 -50q30 0 30 -30v-15q0 -30 -30 -30t-30 30v15q0 30 30 30z" />
    <glyph glyph-name="uni1ECF" unicode="&#x1ecf;" 
d="M221 860q34 0 57.5 -23.5t23.5 -57.5q0 -20 -10 -38q-13 -22 -37 -35q-14 -7 -14 -22v-20q0 -8 -6 -14t-14 -6q-4 0 -6 1q-5 2 -9.5 7.5t-4.5 11.5v8v12q0 7 2 17q1 2 1 3t1 3q9 24 32 35q8 4 13 9q12 12 12 28q0 18 -12 30q-14 12 -29 12q-19 0 -29 -12q-12 -12 -12 -30
q0 -8 -6 -13.5t-14 -5.5t-14 5.5t-6 13.5q0 34 23.5 57.5t57.5 23.5zM232 574q86 0 148 -62t62 -147v-156q0 -86 -62 -148q-61 -61 -148 -61h-22q-87 0 -148 61q-62 62 -62 148v156q0 85 62 147t148 62h22zM388 365q0 64 -46 110t-110 46h-22q-65 0 -111 -46
q-45 -45 -45 -110v-156q0 -66 45 -111t111 -45h22q65 0 110 45q46 46 46 111v156z" />
    <glyph glyph-name="uni1ECD" unicode="&#x1ecd;" 
d="M221 -50q30 0 30 -30v-15q0 -30 -30 -30t-30 30v15q0 30 30 30zM232 574q86 0 148 -62t62 -147v-156q0 -86 -62 -148q-61 -61 -148 -61h-22q-87 0 -148 61q-62 62 -62 148v156q0 85 62 147t148 62h22zM388 365q0 64 -46 110t-110 46h-22q-65 0 -111 -46q-45 -45 -45 -110
v-156q0 -66 45 -111t111 -45h22q65 0 110 45q46 46 46 111v156z" />
    <glyph glyph-name="uni1ED1" unicode="&#x1ed1;" 
d="M232 574q86 0 148 -62t62 -147v-156q0 -86 -62 -148q-61 -61 -148 -61h-22q-87 0 -148 61q-62 62 -62 148v156q0 85 62 147t148 62h22zM388 365q0 64 -46 110t-110 46h-22q-65 0 -111 -46q-45 -45 -45 -110v-156q0 -66 45 -111t111 -45h22q65 0 110 45q46 46 46 111v156z
M221 664q-16 -16 -31.5 -31t-31.5 -31q-9 -9 -18 -9q-8 0 -17 7.5t-9 20.5q0 12 7 19l81 81q10 10 19 10q7 0 19 -10l81 -81q7 -7 7 -19q0 -14 -9 -21t-17 -7q-9 0 -18 9q-16 16 -31.5 31t-31.5 31zM428 817q9 -10 8 -21.5t-10 -20.5l-3 -3l-68 -61l-6 -5q-11 -8 -22.5 -8
t-19.5 10q-9 10 -8 21t10 20l3 3l75 68q9 8 21 7.5t20 -10.5z" />
    <glyph glyph-name="uni1ED3" unicode="&#x1ed3;" 
d="M232 574q86 0 148 -62t62 -147v-156q0 -86 -62 -148q-61 -61 -148 -61h-22q-87 0 -148 61q-62 62 -62 148v156q0 85 62 147t148 62h22zM388 365q0 64 -46 110t-110 46h-22q-65 0 -111 -46q-45 -45 -45 -110v-156q0 -66 45 -111t111 -45h22q65 0 110 45q46 46 46 111v156z
M221 664q-16 -16 -31.5 -31t-31.5 -31q-9 -9 -18 -9q-8 0 -17 7.5t-9 20.5q0 12 7 19l81 81q10 10 19 10q7 0 19 -10l81 -81q7 -7 7 -19q0 -14 -9 -21t-17 -7q-9 0 -18 9q-16 16 -31.5 31t-31.5 31zM7 810q8 10 20 11.5t22 -6.5l82 -63q11 -8 12 -20t-7 -22
q-8 -11 -20 -12.5t-22 6.5l-82 64q-10 8 -11.5 19.5t6.5 22.5z" />
    <glyph glyph-name="uni1ED5" unicode="&#x1ed5;" 
d="M232 574q86 0 148 -62t62 -147v-156q0 -86 -62 -148q-61 -61 -148 -61h-22q-87 0 -148 61q-62 62 -62 148v156q0 85 62 147t148 62h22zM388 365q0 64 -46 110t-110 46h-22q-65 0 -111 -46q-45 -45 -45 -110v-156q0 -66 45 -111t111 -45h22q65 0 110 45q46 46 46 111v156z
M221 664q-16 -16 -31.5 -31t-31.5 -31q-9 -9 -18 -9q-8 0 -17 7.5t-9 20.5q0 12 7 19l81 81q10 10 19 10q7 0 19 -10l81 -81q7 -7 7 -19q0 -14 -9 -21t-17 -7q-9 0 -18 9q-16 16 -31.5 31t-31.5 31zM319 914q34 0 57.5 -23.5t23.5 -57.5q0 -20 -10 -38q-13 -22 -37 -35
q-14 -7 -14 -22v-20q0 -8 -6 -14t-14 -6q-4 0 -6 1q-5 2 -9.5 7.5t-4.5 11.5v8v12q0 7 2 17q1 2 1 3t1 3q9 24 32 35q8 4 13 9q12 12 12 28q0 18 -12 30q-14 12 -29 12q-19 0 -29 -12q-12 -12 -12 -30q0 -8 -6 -13.5t-14 -5.5t-14 5.5t-6 13.5q0 34 23.5 57.5t57.5 23.5z
" />
    <glyph glyph-name="uni1ED7" unicode="&#x1ed7;" 
d="M232 574q86 0 148 -62t62 -147v-156q0 -86 -62 -148q-61 -61 -148 -61h-22q-87 0 -148 61q-62 62 -62 148v156q0 85 62 147t148 62h22zM388 365q0 64 -46 110t-110 46h-22q-65 0 -111 -46q-45 -45 -45 -110v-156q0 -66 45 -111t111 -45h22q65 0 110 45q46 46 46 111v156z
M325 847q0 11 7.5 19t18.5 8t19 -8t8 -19q-2 -26 -9.5 -43.5t-18.5 -28t-25 -15t-27 -4.5q-21 0 -39.5 7.5t-46.5 28.5q-23 17 -35 26t-25 9q-12 0 -22 -9t-12 -35q0 -11 -7.5 -19t-18.5 -8t-19 8t-8 19q2 54 26 76t57 22q23 0 40.5 -8t44.5 -28q23 -17 36.5 -24.5
t25.5 -7.5t20 7t10 27zM221 664q-16 -16 -31.5 -31t-31.5 -31q-9 -9 -18 -9q-8 0 -17 7.5t-9 20.5q0 12 7 19l81 81q10 10 19 10q7 0 19 -10l81 -81q7 -7 7 -19q0 -14 -9 -21t-17 -7q-9 0 -18 9q-16 16 -31.5 31t-31.5 31z" />
    <glyph glyph-name="uni1ED9" unicode="&#x1ed9;" 
d="M232 574q86 0 148 -62t62 -147v-156q0 -86 -62 -148q-61 -61 -148 -61h-22q-87 0 -148 61q-62 62 -62 148v156q0 85 62 147t148 62h22zM388 365q0 64 -46 110t-110 46h-22q-65 0 -111 -46q-45 -45 -45 -110v-156q0 -66 45 -111t111 -45h22q65 0 110 45q46 46 46 111v156z
M221 664q-16 -16 -31.5 -31t-31.5 -31q-9 -9 -18 -9q-8 0 -17 7.5t-9 20.5q0 12 7 19l81 81q10 10 19 10q7 0 19 -10l81 -81q7 -7 7 -19q0 -14 -9 -21t-17 -7q-9 0 -18 9q-16 16 -31.5 31t-31.5 31zM221 -50q30 0 30 -30v-15q0 -30 -30 -30t-30 30v15q0 30 30 30z" />
    <glyph glyph-name="ohorn" unicode="&#x1a1;" 
d="M407 480q35 -52 35 -115v-156q0 -86 -62 -148q-61 -61 -148 -61h-22q-87 0 -148 61q-62 62 -62 148v156q0 85 62 147t148 62h22q72 0 127 -43h25q15 0 26.5 11t11.5 25t-10.5 24.5t-24.5 12.5q-11 0 -18.5 8t-7.5 19t8 19t19 8h3q36 -2 60 -28.5t24 -62.5
q0 -32 -19 -55.5t-49 -31.5zM388 365q0 64 -46 110t-110 46h-22q-65 0 -111 -46q-45 -45 -45 -110v-156q0 -66 45 -111t111 -45h22q65 0 110 45q46 46 46 111v156z" />
    <glyph glyph-name="uni1EDB" unicode="&#x1edb;" 
d="M289 748q8 -11 5.5 -22.5t-13.5 -18.5l-82 -56l-4 -2q-11 -6 -22.5 -4.5t-18.5 12.5q-8 11 -5.5 22t13.5 19l87 59q9 6 21 4t19 -13zM407 480q35 -52 35 -115v-156q0 -86 -62 -148q-61 -61 -148 -61h-22q-87 0 -148 61q-62 62 -62 148v156q0 85 62 147t148 62h22
q72 0 127 -43h25q15 0 26.5 11t11.5 25t-10.5 24.5t-24.5 12.5q-11 0 -18.5 8t-7.5 19t8 19t19 8h3q36 -2 60 -28.5t24 -62.5q0 -32 -19 -55.5t-49 -31.5zM388 365q0 64 -46 110t-110 46h-22q-65 0 -111 -46q-45 -45 -45 -110v-156q0 -66 45 -111t111 -45h22q65 0 110 45
q46 46 46 111v156z" />
    <glyph glyph-name="uni1EDD" unicode="&#x1edd;" 
d="M157 756q8 10 20 11.5t22 -6.5l82 -63q11 -8 12 -20t-7 -22q-8 -11 -20 -12.5t-22 6.5l-82 64q-10 8 -11.5 19.5t6.5 22.5zM407 480q35 -52 35 -115v-156q0 -86 -62 -148q-61 -61 -148 -61h-22q-87 0 -148 61q-62 62 -62 148v156q0 85 62 147t148 62h22q72 0 127 -43h25
q15 0 26.5 11t11.5 25t-10.5 24.5t-24.5 12.5q-11 0 -18.5 8t-7.5 19t8 19t19 8h3q36 -2 60 -28.5t24 -62.5q0 -32 -19 -55.5t-49 -31.5zM388 365q0 64 -46 110t-110 46h-22q-65 0 -111 -46q-45 -45 -45 -110v-156q0 -66 45 -111t111 -45h22q65 0 110 45q46 46 46 111v156z
" />
    <glyph glyph-name="uni1EDF" unicode="&#x1edf;" 
d="M221 860q34 0 57.5 -23.5t23.5 -57.5q0 -20 -10 -38q-13 -22 -37 -35q-14 -7 -14 -22v-20q0 -8 -6 -14t-14 -6q-4 0 -6 1q-5 2 -9.5 7.5t-4.5 11.5v8v12q0 7 2 17q1 2 1 3t1 3q9 24 32 35q8 4 13 9q12 12 12 28q0 18 -12 30q-14 12 -29 12q-19 0 -29 -12q-12 -12 -12 -30
q0 -8 -6 -13.5t-14 -5.5t-14 5.5t-6 13.5q0 34 23.5 57.5t57.5 23.5zM407 480q35 -52 35 -115v-156q0 -86 -62 -148q-61 -61 -148 -61h-22q-87 0 -148 61q-62 62 -62 148v156q0 85 62 147t148 62h22q72 0 127 -43h25q15 0 26.5 11t11.5 25t-10.5 24.5t-24.5 12.5
q-11 0 -18.5 8t-7.5 19t8 19t19 8h3q36 -2 60 -28.5t24 -62.5q0 -32 -19 -55.5t-49 -31.5zM388 365q0 64 -46 110t-110 46h-22q-65 0 -111 -46q-45 -45 -45 -110v-156q0 -66 45 -111t111 -45h22q65 0 110 45q46 46 46 111v156z" />
    <glyph glyph-name="uni1EE1" unicode="&#x1ee1;" 
d="M325 735q0 11 7.5 19t18.5 8t19 -8t8 -19q-2 -26 -9.5 -43.5t-18.5 -28t-25 -15t-27 -4.5q-21 0 -39.5 7.5t-46.5 28.5q-23 17 -35 26t-25 9q-12 0 -22 -9t-12 -35q0 -11 -7.5 -19t-18.5 -8t-19 8t-8 19q2 54 26 76t57 22q23 0 40.5 -8t44.5 -28q23 -17 36.5 -24.5
t25.5 -7.5t20 7t10 27zM407 480q35 -52 35 -115v-156q0 -86 -62 -148q-61 -61 -148 -61h-22q-87 0 -148 61q-62 62 -62 148v156q0 85 62 147t148 62h22q72 0 127 -43h25q15 0 26.5 11t11.5 25t-10.5 24.5t-24.5 12.5q-11 0 -18.5 8t-7.5 19t8 19t19 8h3q36 -2 60 -28.5
t24 -62.5q0 -32 -19 -55.5t-49 -31.5zM388 365q0 64 -46 110t-110 46h-22q-65 0 -111 -46q-45 -45 -45 -110v-156q0 -66 45 -111t111 -45h22q65 0 110 45q46 46 46 111v156z" />
    <glyph glyph-name="uni1EE3" unicode="&#x1ee3;" 
d="M221 -50q30 0 30 -30v-15q0 -30 -30 -30t-30 30v15q0 30 30 30zM407 480q35 -52 35 -115v-156q0 -86 -62 -148q-61 -61 -148 -61h-22q-87 0 -148 61q-62 62 -62 148v156q0 85 62 147t148 62h22q72 0 127 -43h25q15 0 26.5 11t11.5 25t-10.5 24.5t-24.5 12.5
q-11 0 -18.5 8t-7.5 19t8 19t19 8h3q36 -2 60 -28.5t24 -62.5q0 -32 -19 -55.5t-49 -31.5zM388 365q0 64 -46 110t-110 46h-22q-65 0 -111 -46q-45 -45 -45 -110v-156q0 -66 45 -111t111 -45h22q65 0 110 45q46 46 46 111v156z" />
    <glyph glyph-name="dcroat" unicode="&#x111;" horiz-adv-x="579" 
d="M417 816q27 0 27 -27v-755q0 -27 -27 -27q-26 0 -26 27v39q-61 -73 -160 -73h-22q-89 0 -149 60t-60 147v157q0 86 60 148q61 61 149 61h22q98 0 160 -75v291q0 27 26 27zM387 364q0 64 -45 109q-45 46 -111 46h-22q-65 0 -111 -46q-45 -45 -45 -109v-157q0 -65 45 -110
t111 -45h22q66 0 111 45q45 46 45 110v157zM486 700q30 0 30 -30t-30 -30h-283q-30 0 -30 30t30 30h283z" />
  </font>
</defs>
</svg>
