<?xml version="1.0" standalone="no"?>
<!DOCTYPE svg PUBLIC "-//W3C//DTD SVG 1.1//EN" "http://www.w3.org/Graphics/SVG/1.1/DTD/svg11.dtd" >
<svg xmlns="http://www.w3.org/2000/svg" xmlns:xlink="http://www.w3.org/1999/xlink" version="1.1">
<metadata>
Created by FontForge 20150913 at Wed Apr 27 06:16:02 2016
 By Jimmy Wärting
Copyright \(c\) 2013 by Jan Tonellato. All rights reserved.
</metadata>
<defs>
<font id="iCielNovecentosans-Medium" horiz-adv-x="623" >
  <font-face 
    font-family="iCiel Novecento sans"
    font-weight="500"
    font-stretch="normal"
    units-per-em="1000"
    panose-1="0 0 7 0 0 0 0 0 0 0"
    ascent="821"
    descent="-179"
    x-height="560"
    cap-height="700"
    bbox="-371 -215 1080 1074"
    underline-thickness="95"
    underline-position="-160"
    stemh="93"
    stemv="107"
    unicode-range="U+0020-F8FF"
  />
<missing-glyph horiz-adv-x="607" 
d="M63 85v530c0 26 8 47 24 62s36 23 61 23h311c25 0 45 -8 61 -23s24 -36 24 -62v-530c0 -27 -8 -48 -24 -63c-15 -15 -36 -22 -61 -22h-311c-25 0 -46 7 -61 22c-16 15 -24 36 -24 63zM160 22h287c49 0 74 25 74 76v504c0 51 -28 76 -84 76h-267c-31 0 -53 -6 -66 -17
c-12 -11 -18 -31 -18 -59v-504c0 -51 25 -76 74 -76zM365 352l112 -119l-64 -62l-109 116l-109 -115l-65 61l113 119l-113 120l65 60l109 -115l109 115l64 -61z" />
    <glyph glyph-name=".notdef" horiz-adv-x="607" 
d="M63 85v530c0 26 8 47 24 62s36 23 61 23h311c25 0 45 -8 61 -23s24 -36 24 -62v-530c0 -27 -8 -48 -24 -63c-15 -15 -36 -22 -61 -22h-311c-25 0 -46 7 -61 22c-16 15 -24 36 -24 63zM160 22h287c49 0 74 25 74 76v504c0 51 -28 76 -84 76h-267c-31 0 -53 -6 -66 -17
c-12 -11 -18 -31 -18 -59v-504c0 -51 25 -76 74 -76zM365 352l112 -119l-64 -62l-109 116l-109 -115l-65 61l113 119l-113 120l65 60l109 -115l109 115l64 -61z" />
    <glyph glyph-name="A" unicode="A" horiz-adv-x="655" 
d="M470 162h-288l-54 -162h-110l246 700h127l246 -700h-112zM438 259l-110 328h-3l-110 -328h223z" />
    <glyph glyph-name="Aacute" unicode="&#xc1;" horiz-adv-x="655" 
d="M365 754h-95l98 166l86 -25zM470 162h-288l-54 -162h-110l246 700h127l246 -700h-112zM438 259l-110 328h-3l-110 -328h223z" />
    <glyph glyph-name="Abreve" unicode="&#x102;" horiz-adv-x="655" 
d="M327 743c-45 0 -82 12 -109 37s-42 58 -43 100h78c1 -45 26 -67 74 -67c49 0 74 22 75 67h77c-1 -41 -16 -74 -43 -99s-64 -38 -109 -38zM470 162h-288l-54 -162h-110l246 700h127l246 -700h-112zM438 259l-110 328h-3l-110 -328h223z" />
    <glyph glyph-name="Acircumflex" unicode="&#xc2;" horiz-adv-x="655" 
d="M229 728l-49 57l145 121l145 -121l-49 -57l-96 80zM470 162h-288l-54 -162h-110l246 700h127l246 -700h-112zM438 259l-110 328h-3l-110 -328h223z" />
    <glyph glyph-name="Adieresis" unicode="&#xc4;" horiz-adv-x="655" 
d="M236 772c-15 0 -28 5 -38 15c-10 11 -15 24 -15 39s5 28 15 39c11 11 23 16 38 16s27 -5 37 -16s15 -24 15 -39s-5 -28 -15 -39c-10 -10 -22 -15 -37 -15zM419 772c-15 0 -28 5 -38 15c-10 11 -15 24 -15 39s5 28 15 39c11 11 23 16 38 16s27 -5 37 -16s15 -24 15 -39
s-5 -28 -15 -39c-10 -10 -22 -15 -37 -15zM470 162h-288l-54 -162h-110l246 700h127l246 -700h-112zM438 259l-110 328h-3l-110 -328h223z" />
    <glyph glyph-name="Agrave" unicode="&#xc0;" horiz-adv-x="655" 
d="M286 754l-88 141l86 25l97 -166h-95zM470 162h-288l-54 -162h-110l246 700h127l246 -700h-112zM438 259l-110 328h-3l-110 -328h223z" />
    <glyph glyph-name="Amacron" unicode="&#x100;" horiz-adv-x="655" 
d="M470 771h-285v90h285v-90zM470 162h-288l-54 -162h-110l246 700h127l246 -700h-112zM438 259l-110 328h-3l-110 -328h223z" />
    <glyph glyph-name="Aogonek" unicode="&#x104;" horiz-adv-x="655" 
d="M469 -52c0 -27 21 -41 63 -41c36 0 64 6 85 17v-81c-24 -11 -56 -17 -96 -17s-72 9 -97 28c-28 21 -42 50 -42 89c0 67 40 108 120 125l-32 94h-288l-54 -162h-110l246 700h127l246 -700h-53c-77 -1 -115 -18 -115 -52zM438 259l-110 328h-3l-110 -328h223z" />
    <glyph glyph-name="Aring" unicode="&#xc5;" horiz-adv-x="655" 
d="M327 737c-33 0 -59 9 -78 27c-20 18 -30 42 -30 73s10 56 30 74c19 18 45 27 78 27s59 -9 78 -27c20 -18 30 -43 30 -74s-10 -55 -30 -73c-19 -18 -45 -27 -78 -27zM327 879c-28 0 -42 -14 -42 -42s14 -42 42 -42s42 14 42 42s-14 42 -42 42zM470 162h-288l-54 -162h-110
l246 700h127l246 -700h-112zM438 259l-110 328h-3l-110 -328h223z" />
    <glyph glyph-name="Atilde" unicode="&#xc3;" horiz-adv-x="655" 
d="M260 805c-31 0 -55 -9 -71 -26l-20 77c16 21 43 32 81 32c18 0 42 -5 71 -15s52 -15 71 -15c29 0 52 8 70 25l20 -77c-15 -21 -42 -31 -81 -31c-19 0 -42 5 -71 15s-52 15 -70 15zM470 162h-288l-54 -162h-110l246 700h127l246 -700h-112zM438 259l-110 328h-3l-110 -328
h223z" />
    <glyph glyph-name="AE" unicode="&#xc6;" horiz-adv-x="886" 
d="M844 96v-96h-438v168h-221l-57 -168h-110l246 700h577v-96h-332v-195h259v-92h-259v-221h335zM406 259v345h-73l-117 -345h190z" />
    <glyph glyph-name="B" unicode="B" horiz-adv-x="569" 
d="M399 376v-3c37 -8 68 -25 93 -50c31 -33 47 -75 47 -128c0 -60 -19 -107 -57 -141c-40 -36 -97 -54 -170 -54h-249v700h235c61 0 111 -17 148 -50c36 -32 54 -74 54 -125c0 -42 -11 -77 -34 -104c-18 -23 -40 -38 -67 -45zM169 407h118c33 0 59 9 79 26
c20 19 30 44 30 77c0 31 -10 55 -30 73c-21 18 -49 27 -85 27h-112v-203zM169 90h137c39 0 70 10 91 30c22 20 33 48 33 84c0 37 -12 67 -36 89c-23 21 -54 32 -91 32h-134v-235z" />
    <glyph glyph-name="C" unicode="C" horiz-adv-x="675" 
d="M538 224l103 -27c-23 -65 -59 -116 -108 -153c-51 -38 -113 -57 -184 -57c-95 0 -170 32 -227 95c-60 65 -90 155 -90 270c0 114 30 203 89 268c57 62 134 93 230 93c73 0 134 -19 185 -56c47 -35 79 -80 98 -137l-103 -28c-32 81 -93 121 -184 121
c-65 0 -115 -22 -152 -67c-37 -46 -56 -111 -56 -194c0 -85 19 -150 58 -197c37 -45 86 -67 149 -67c93 0 157 45 192 136z" />
    <glyph glyph-name="Cacute" unicode="&#x106;" horiz-adv-x="675" 
d="M387 754h-95l97 166l86 -25zM538 224l103 -27c-23 -65 -59 -116 -108 -153c-51 -38 -113 -57 -184 -57c-95 0 -170 32 -227 95c-60 65 -90 155 -90 270c0 114 30 203 89 268c57 62 134 93 230 93c73 0 134 -19 185 -56c47 -35 79 -80 98 -137l-103 -28
c-32 81 -93 121 -184 121c-65 0 -115 -22 -152 -67c-37 -46 -56 -111 -56 -194c0 -85 19 -150 58 -197c37 -45 86 -67 149 -67c93 0 157 45 192 136z" />
    <glyph glyph-name="Cacute.loclPLK" horiz-adv-x="675" 
d="M387 754h-86l54 179l85 -16zM538 224l103 -27c-23 -65 -59 -116 -108 -153c-51 -38 -113 -57 -184 -57c-95 0 -170 32 -227 95c-60 65 -90 155 -90 270c0 114 30 203 89 268c57 62 134 93 230 93c73 0 134 -19 185 -56c47 -35 79 -80 98 -137l-103 -28
c-32 81 -93 121 -184 121c-65 0 -115 -22 -152 -67c-37 -46 -56 -111 -56 -194c0 -85 19 -150 58 -197c37 -45 86 -67 149 -67c93 0 157 45 192 136z" />
    <glyph glyph-name="Ccaron" unicode="&#x10c;" horiz-adv-x="675" 
d="M204 867l49 56l96 -78l96 78l49 -56l-145 -118zM538 224l103 -27c-23 -65 -59 -116 -108 -153c-51 -38 -113 -57 -184 -57c-95 0 -170 32 -227 95c-60 65 -90 155 -90 270c0 114 30 203 89 268c57 62 134 93 230 93c73 0 134 -19 185 -56c47 -35 79 -80 98 -137l-103 -28
c-32 81 -93 121 -184 121c-65 0 -115 -22 -152 -67c-37 -46 -56 -111 -56 -194c0 -85 19 -150 58 -197c37 -45 86 -67 149 -67c93 0 157 45 192 136z" />
    <glyph glyph-name="Ccedilla" unicode="&#xc7;" horiz-adv-x="675" 
d="M538 224l103 -27c-39 -114 -114 -182 -225 -203c35 -15 52 -41 52 -78c0 -60 -40 -90 -121 -90c-35 0 -62 5 -79 14v69c14 -8 35 -12 62 -12c41 0 61 11 61 34c0 26 -34 39 -103 39v23c-78 13 -140 51 -185 112c-47 63 -71 146 -71 247c0 114 30 203 89 268
c57 62 134 93 230 93c73 0 134 -19 185 -56c47 -35 79 -80 98 -137l-103 -28c-32 81 -93 121 -184 121c-65 0 -115 -22 -152 -67c-37 -46 -56 -111 -56 -194c0 -85 19 -150 58 -197c37 -45 86 -67 149 -67c93 0 157 45 192 136z" />
    <glyph glyph-name="Ccircumflex" unicode="&#x108;" horiz-adv-x="675" 
d="M491 806l-49 -57l-96 80l-95 -80l-50 57l145 121zM538 224l103 -27c-23 -65 -59 -116 -108 -153c-51 -38 -113 -57 -184 -57c-95 0 -170 32 -227 95c-60 65 -90 155 -90 270c0 114 30 203 89 268c57 62 134 93 230 93c73 0 134 -19 185 -56c47 -35 79 -80 98 -137
l-103 -28c-32 81 -93 121 -184 121c-65 0 -115 -22 -152 -67c-37 -46 -56 -111 -56 -194c0 -85 19 -150 58 -197c37 -45 86 -67 149 -67c93 0 157 45 192 136z" />
    <glyph glyph-name="Cdotaccent" unicode="&#x10a;" horiz-adv-x="675" 
d="M348 772c-15 0 -28 5 -38 15c-10 11 -15 24 -15 39s5 28 15 39c11 11 23 16 38 16s27 -5 37 -16s15 -24 15 -39s-5 -28 -15 -39c-10 -10 -22 -15 -37 -15zM538 224l103 -27c-23 -65 -59 -116 -108 -153c-51 -38 -113 -57 -184 -57c-95 0 -170 32 -227 95
c-60 65 -90 155 -90 270c0 114 30 203 89 268c57 62 134 93 230 93c73 0 134 -19 185 -56c47 -35 79 -80 98 -137l-103 -28c-32 81 -93 121 -184 121c-65 0 -115 -22 -152 -67c-37 -46 -56 -111 -56 -194c0 -85 19 -150 58 -197c37 -45 86 -67 149 -67c93 0 157 45 192 136z
" />
    <glyph glyph-name="D" unicode="D" horiz-adv-x="658" 
d="M63 700h233c101 0 182 -32 241 -95c59 -64 89 -150 89 -259c0 -107 -30 -192 -89 -254c-58 -61 -137 -92 -236 -92h-238v700zM169 99h124c68 0 122 20 162 60c43 43 64 105 64 186c0 85 -22 149 -65 194c-40 41 -95 62 -164 62h-121v-502z" />
    <glyph glyph-name="Eth" unicode="&#xd0;" horiz-adv-x="660" 
d="M64 700h233c101 0 182 -32 241 -95c60 -64 90 -150 90 -259c0 -107 -30 -192 -89 -254c-58 -61 -137 -92 -236 -92h-239v314h-53v95h53v291zM170 99h125c68 0 122 20 161 60c43 43 65 105 65 186c0 85 -22 149 -65 194c-41 41 -96 62 -165 62h-121v-192h143v-95h-143
v-215z" />
    <glyph glyph-name="Dcaron" unicode="&#x10e;" horiz-adv-x="658" 
d="M171 867l49 56l97 -78l96 78l49 -56l-145 -118zM63 700h233c101 0 182 -32 241 -95c59 -64 89 -150 89 -259c0 -107 -30 -192 -89 -254c-58 -61 -137 -92 -236 -92h-238v700zM169 99h124c68 0 122 20 162 60c43 43 64 105 64 186c0 85 -22 149 -65 194
c-40 41 -95 62 -164 62h-121v-502z" />
    <glyph glyph-name="Dcroat" unicode="&#x110;" horiz-adv-x="660" 
d="M64 700h233c101 0 182 -32 241 -95c60 -64 90 -150 90 -259c0 -107 -30 -192 -89 -254c-58 -61 -137 -92 -236 -92h-239v314h-53v95h53v291zM170 99h125c68 0 122 20 161 60c43 43 65 105 65 186c0 85 -22 149 -65 194c-41 41 -96 62 -165 62h-121v-192h143v-95h-143
v-215z" />
    <glyph glyph-name="E" unicode="E" horiz-adv-x="545" 
d="M63 0v700h437v-99h-331v-188h255v-100h-255v-214h334v-99h-440z" />
    <glyph glyph-name="Eacute" unicode="&#xc9;" horiz-adv-x="545" 
d="M322 754h-95l97 166l86 -25zM63 0v700h437v-99h-331v-188h255v-100h-255v-214h334v-99h-440z" />
    <glyph glyph-name="Ecaron" unicode="&#x11a;" horiz-adv-x="545" 
d="M139 867l49 56l96 -78l96 78l49 -56l-145 -118zM63 0v700h437v-99h-331v-188h255v-100h-255v-214h334v-99h-440z" />
    <glyph glyph-name="Ecircumflex" unicode="&#xca;" horiz-adv-x="545" 
d="M426 806l-49 -57l-96 80l-95 -80l-50 57l145 121zM63 0v700h437v-99h-331v-188h255v-100h-255v-214h334v-99h-440z" />
    <glyph glyph-name="Edieresis" unicode="&#xcb;" horiz-adv-x="545" 
d="M192 772c-15 0 -27 5 -37 15c-10 11 -15 24 -15 39s5 28 15 39s23 16 38 16s27 -5 36 -16c10 -11 15 -24 15 -39s-5 -28 -15 -39c-10 -10 -22 -15 -37 -15zM375 772c-15 0 -28 5 -38 15c-10 11 -15 24 -15 39s5 28 15 39c11 11 23 16 38 16s27 -5 38 -16
c10 -11 15 -24 15 -39s-5 -28 -15 -39c-10 -10 -23 -15 -38 -15zM63 0v700h437v-99h-331v-188h255v-100h-255v-214h334v-99h-440z" />
    <glyph glyph-name="Edotaccent" unicode="&#x116;" horiz-adv-x="545" 
d="M283 772c-15 0 -28 5 -38 15c-10 11 -15 24 -15 39s5 28 15 39c11 11 23 16 38 16s27 -5 38 -16c10 -11 15 -24 15 -39s-5 -28 -15 -39c-10 -10 -23 -15 -38 -15zM63 0v700h437v-99h-331v-188h255v-100h-255v-214h334v-99h-440z" />
    <glyph glyph-name="Egrave" unicode="&#xc8;" horiz-adv-x="545" 
d="M240 920l98 -166h-95l-89 141zM63 0v700h437v-99h-331v-188h255v-100h-255v-214h334v-99h-440z" />
    <glyph glyph-name="Emacron" unicode="&#x112;" horiz-adv-x="545" 
d="M426 771h-285v90h285v-90zM63 0v700h437v-99h-331v-188h255v-100h-255v-214h334v-99h-440z" />
    <glyph glyph-name="Eogonek" unicode="&#x118;" horiz-adv-x="545" 
d="M440 -94c27 0 51 6 70 17v-80c-19 -11 -47 -17 -82 -17c-37 0 -67 10 -90 30c-24 20 -36 46 -36 78c0 24 7 46 21 66h-260v700h437v-99h-331v-188h255v-100h-255v-214h334v-99h-32c-55 -3 -82 -20 -82 -51c0 -29 17 -43 51 -43z" />
    <glyph glyph-name="F" unicode="F" horiz-adv-x="528" 
d="M496 601h-327v-206h256v-99h-256v-296h-106v700h433v-99z" />
    <glyph glyph-name="G" unicode="G" horiz-adv-x="697" 
d="M647 0h-96l1 78h-2c-51 -60 -119 -90 -206 -90c-91 0 -164 31 -221 94c-61 66 -91 156 -91 269c0 114 30 204 90 269c57 62 134 93 229 93c73 0 135 -19 186 -56c47 -35 79 -80 98 -137l-103 -28c-29 81 -91 121 -184 121c-65 0 -115 -23 -152 -68
c-38 -45 -57 -109 -57 -191c0 -85 20 -151 60 -198c39 -45 91 -68 158 -68c48 0 90 12 127 35c30 19 51 42 64 68v88h-171v99h270v-378z" />
    <glyph glyph-name="Gbreve" unicode="&#x11e;" horiz-adv-x="697" 
d="M197 880h78c3 -45 28 -67 75 -67c48 0 73 22 74 67h78c-1 -41 -16 -74 -43 -99s-64 -38 -109 -38c-46 0 -82 12 -109 37s-42 58 -44 100zM647 0h-96l1 78h-2c-51 -60 -119 -90 -206 -90c-91 0 -164 31 -221 94c-61 66 -91 156 -91 269c0 114 30 204 90 269
c57 62 134 93 229 93c73 0 135 -19 186 -56c47 -35 79 -80 98 -137l-103 -28c-29 81 -91 121 -184 121c-65 0 -115 -23 -152 -68c-38 -45 -57 -109 -57 -191c0 -85 20 -151 60 -198c39 -45 91 -68 158 -68c48 0 90 12 127 35c30 19 51 42 64 68v88h-171v99h270v-378z" />
    <glyph glyph-name="Gcircumflex" unicode="&#x11c;" horiz-adv-x="697" 
d="M493 806l-50 -57l-95 80l-96 -80l-50 57l146 121zM647 0h-96l1 78h-2c-51 -60 -119 -90 -206 -90c-91 0 -164 31 -221 94c-61 66 -91 156 -91 269c0 114 30 204 90 269c57 62 134 93 229 93c73 0 135 -19 186 -56c47 -35 79 -80 98 -137l-103 -28
c-29 81 -91 121 -184 121c-65 0 -115 -23 -152 -68c-38 -45 -57 -109 -57 -191c0 -85 20 -151 60 -198c39 -45 91 -68 158 -68c48 0 90 12 127 35c30 19 51 42 64 68v88h-171v99h270v-378z" />
    <glyph glyph-name="uni0122" unicode="&#x122;" horiz-adv-x="697" 
d="M647 0h-96l1 78h-2c-51 -60 -119 -90 -206 -90c-91 0 -164 31 -221 94c-61 66 -91 156 -91 269c0 114 30 204 90 269c57 62 134 93 229 93c73 0 135 -19 186 -56c47 -35 79 -80 98 -137l-103 -28c-29 81 -91 121 -184 121c-65 0 -115 -23 -152 -68
c-38 -45 -57 -109 -57 -191c0 -85 20 -151 60 -198c39 -45 91 -68 158 -68c48 0 90 12 127 35c30 19 51 42 64 68v88h-171v99h270v-378zM348 -115c-13 -1 -24 2 -33 10c-8 7 -12 17 -12 30c0 31 19 47 56 47c39 0 59 -20 59 -60c0 -54 -29 -91 -87 -111l-33 38
c27 9 43 24 50 46z" />
    <glyph glyph-name="Gdotaccent" unicode="&#x120;" horiz-adv-x="697" 
d="M349 772c-15 0 -27 5 -37 15c-10 11 -15 24 -15 39s5 28 15 39s22 16 37 16s27 -5 38 -16c10 -11 15 -24 15 -39s-5 -28 -15 -39c-10 -10 -23 -15 -38 -15zM647 0h-96l1 78h-2c-51 -60 -119 -90 -206 -90c-91 0 -164 31 -221 94c-61 66 -91 156 -91 269
c0 114 30 204 90 269c57 62 134 93 229 93c73 0 135 -19 186 -56c47 -35 79 -80 98 -137l-103 -28c-29 81 -91 121 -184 121c-65 0 -115 -23 -152 -68c-38 -45 -57 -109 -57 -191c0 -85 20 -151 60 -198c39 -45 91 -68 158 -68c48 0 90 12 127 35c30 19 51 42 64 68v88h-171
v99h270v-378z" />
    <glyph glyph-name="H" unicode="H" horiz-adv-x="637" 
d="M468 0v311h-299v-311h-106v700h106v-286h299v286h106v-700h-106z" />
    <glyph glyph-name="Hbar" unicode="&#x126;" horiz-adv-x="676" 
d="M658 491h-65v-491h-105v289h-300v-289h-105v491h-65v89h65v120h105v-120h300v120h105v-120h65v-89zM488 491h-300v-99h300v99z" />
    <glyph glyph-name="Hcircumflex" unicode="&#x124;" horiz-adv-x="637" 
d="M462 806l-49 -57l-96 80l-95 -80l-50 57l145 121zM468 0v311h-299v-311h-106v700h106v-286h299v286h106v-700h-106z" />
    <glyph glyph-name="I" unicode="I" horiz-adv-x="232" 
d="M63 0v700h106v-700h-106z" />
    <glyph glyph-name="I.ss03" horiz-adv-x="455" 
d="M280 98h120v-98h-345v98h119v504h-119v98h345v-98h-120v-504z" />
    <glyph glyph-name="IJ" unicode="&#x132;" horiz-adv-x="700" 
d="M63 0v700h106v-700h-106zM643 700v-435c0 -185 -77 -278 -231 -278c-73 0 -130 26 -169 78l65 77c27 -36 61 -54 103 -54c47 0 80 16 99 47c18 29 27 74 27 136v429h106z" />
    <glyph glyph-name="IJ.ss03" horiz-adv-x="916" 
d="M280 98h120v-98h-345v98h119v504h-119v98h345v-98h-120v-504zM858 700v-435c0 -185 -77 -278 -230 -278c-73 0 -130 26 -170 78l66 77c26 -36 60 -54 103 -54c46 0 79 16 99 47c17 29 26 74 26 136v429h106z" />
    <glyph glyph-name="IJ.ss03.ss04" horiz-adv-x="916" 
d="M55 700h345v-98h-120v-504h120v-98h-345v98h120v504h-120v98zM858 700v-435c0 -185 -77 -278 -230 -278c-73 0 -130 26 -170 78l66 77c26 -36 60 -54 103 -54c46 0 79 16 99 47c17 29 26 74 26 136v330h-241v99h347z" />
    <glyph glyph-name="IJ.ss04" horiz-adv-x="693" 
d="M63 700h106v-700h-106v700zM636 700v-435c0 -185 -77 -278 -231 -278c-73 0 -129 26 -169 78l65 77c26 -36 60 -54 103 -54c46 0 79 16 99 47c18 29 27 74 27 136v330h-241v99h347z" />
    <glyph glyph-name="Iacute" unicode="&#xcd;" horiz-adv-x="232" 
d="M154 754h-95l98 166l85 -25zM63 0v700h106v-700h-106z" />
    <glyph glyph-name="Iacute.ss03" horiz-adv-x="455" 
d="M266 754h-95l98 166l85 -25zM280 98h120v-98h-345v98h119v504h-119v98h345v-98h-120v-504z" />
    <glyph glyph-name="Iacute_J.loclNLD" horiz-adv-x="700" 
d="M631 754h-95l98 166l85 -25zM154 754h-95l98 166l85 -25zM63 0v700h106v-700h-106zM643 700v-435c0 -185 -77 -278 -231 -278c-73 0 -130 26 -169 78l65 77c27 -36 61 -54 103 -54c47 0 80 16 99 47c18 29 27 74 27 136v429h106z" />
    <glyph glyph-name="Icircumflex" unicode="&#xce;" horiz-adv-x="232" 
d="M233 810l-52 -54l-65 68l-66 -68l-51 54l117 117zM63 0v700h106v-700h-106z" />
    <glyph glyph-name="Icircumflex.ss03" horiz-adv-x="455" 
d="M371 806l-50 -57l-95 80l-96 -80l-50 57l146 121zM280 98h120v-98h-345v98h119v504h-119v98h345v-98h-120v-504z" />
    <glyph glyph-name="Idieresis" unicode="&#xcf;" horiz-adv-x="232" 
d="M52 772c-15 0 -27 5 -37 15c-9 11 -14 24 -14 39s5 28 15 39s22 16 37 16s27 -5 36 -16s14 -24 14 -39s-5 -28 -14 -39c-10 -10 -22 -15 -37 -15zM180 772c-35 0 -52 18 -52 54c0 16 5 29 14 39c10 11 23 16 38 16s27 -5 36 -16c10 -11 15 -24 15 -39s-5 -28 -14 -39
c-10 -10 -22 -15 -37 -15zM63 0v700h106v-700h-106z" />
    <glyph glyph-name="Idieresis.ss03" horiz-adv-x="455" 
d="M136 772c-15 0 -27 5 -37 15c-10 11 -15 24 -15 39s5 28 15 39c11 11 23 16 38 16s27 -5 37 -16s15 -24 15 -39s-5 -28 -15 -39c-10 -10 -23 -15 -38 -15zM319 772c-15 0 -27 5 -37 15c-10 11 -15 24 -15 39s5 28 15 39s22 16 37 16s27 -5 38 -16c10 -11 15 -24 15 -39
s-5 -28 -15 -39c-10 -10 -23 -15 -38 -15zM280 98h120v-98h-345v98h119v504h-119v98h345v-98h-120v-504z" />
    <glyph glyph-name="Idotaccent" unicode="&#x130;" horiz-adv-x="232" 
d="M115 772c-15 0 -27 5 -37 15c-10 11 -15 24 -15 39s5 28 15 39s22 16 37 16s28 -5 38 -16s15 -24 15 -39s-5 -28 -15 -39c-10 -10 -23 -15 -38 -15zM63 0v700h106v-700h-106z" />
    <glyph glyph-name="Idotaccent.ss03" horiz-adv-x="455" 
d="M227 772c-15 0 -27 5 -37 15c-10 11 -15 24 -15 39s5 28 15 39s22 16 37 16s27 -5 38 -16c10 -11 15 -24 15 -39s-5 -28 -15 -39c-10 -10 -23 -15 -38 -15zM280 98h120v-98h-345v98h119v504h-119v98h345v-98h-120v-504z" />
    <glyph glyph-name="Igrave" unicode="&#xcc;" horiz-adv-x="232" 
d="M72 920l98 -166h-95l-88 141zM63 0v700h106v-700h-106z" />
    <glyph glyph-name="Igrave.ss03" horiz-adv-x="455" 
d="M184 920l98 -166h-95l-89 141zM280 98h120v-98h-345v98h119v504h-119v98h345v-98h-120v-504z" />
    <glyph glyph-name="Imacron" unicode="&#x12a;" horiz-adv-x="232" 
d="M224 771h-216v89h216v-89zM63 0v700h106v-700h-106z" />
    <glyph glyph-name="Imacron.ss03" horiz-adv-x="471" 
d="M408 775h-345v85h345v-85zM288 98h120v-98h-345v98h120v504h-120v98h345v-98h-120v-504z" />
    <glyph glyph-name="Iogonek" unicode="&#x12e;" horiz-adv-x="232" 
d="M142 -96c23 0 43 6 62 17v-78c-17 -11 -42 -17 -77 -17c-34 0 -62 10 -83 30c-22 20 -33 47 -33 80c0 45 17 80 52 104v660h106v-700c-49 -3 -74 -21 -74 -53c0 -29 16 -43 47 -43z" />
    <glyph glyph-name="Iogonek.ss03" horiz-adv-x="455" 
d="M336 -94c28 0 51 6 69 17v-80c-18 -11 -45 -17 -81 -17c-37 0 -67 10 -91 30s-36 46 -36 78c0 24 7 46 21 66h-163v98h119v504h-119v98h345v-98h-120v-504h120v-98h-33c-55 -3 -82 -20 -82 -51c0 -29 17 -43 51 -43z" />
    <glyph glyph-name="J" unicode="J" horiz-adv-x="461" 
d="M404 700v-435c0 -185 -77 -278 -231 -278c-73 0 -130 26 -169 78l65 77c27 -36 61 -54 103 -54c47 0 80 16 99 47c18 29 27 74 27 136v429h106z" />
    <glyph glyph-name="J.ss04" horiz-adv-x="461" 
d="M404 700v-435c0 -185 -77 -278 -231 -278c-73 0 -129 26 -169 78l65 77c27 -36 61 -54 103 -54c47 0 80 16 99 47c18 29 27 74 27 136v330h-241v99h347z" />
    <glyph glyph-name="Jcircumflex" unicode="&#x134;" horiz-adv-x="461" 
d="M496 806l-49 -57l-96 80l-95 -80l-50 57l145 121zM404 700v-435c0 -185 -77 -278 -231 -278c-73 0 -130 26 -169 78l65 77c27 -36 61 -54 103 -54c47 0 80 16 99 47c18 29 27 74 27 136v429h106z" />
    <glyph glyph-name="Jcircumflex.ss04" horiz-adv-x="461" 
d="M135 749l-49 57l145 121l145 -121l-50 -57l-95 80zM404 700v-435c0 -185 -77 -278 -231 -278c-73 0 -129 26 -169 78l65 77c27 -36 61 -54 103 -54c47 0 80 16 99 47c18 29 27 74 27 136v330h-241v99h347z" />
    <glyph glyph-name="K" unicode="K" horiz-adv-x="609" 
d="M470 0l-200 337l-101 -122v-215h-106v700h106l-1 -349h3c2 5 33 43 92 115l189 234h125l-229 -282l244 -418h-122z" />
    <glyph glyph-name="uni0136" unicode="&#x136;" horiz-adv-x="609" 
d="M592 0h-122l-200 337l-101 -122v-215h-106v700h106l-1 -349h3c2 5 33 43 92 115l189 234h125l-229 -282zM303 -28c39 0 59 -20 59 -60c0 -54 -29 -91 -87 -111l-33 38c27 9 43 24 50 46c-13 -1 -24 2 -33 10c-8 7 -12 17 -12 30c0 31 19 47 56 47z" />
    <glyph glyph-name="L" unicode="L" horiz-adv-x="511" 
d="M63 0v700h106v-601h311v-99h-417z" />
    <glyph glyph-name="Lacute" unicode="&#x139;" horiz-adv-x="511" 
d="M153 754h-95l98 166l86 -25zM63 0v700h106v-601h311v-99h-417z" />
    <glyph glyph-name="Lcaron" unicode="&#x13d;" horiz-adv-x="511" 
d="M63 0v700h106v-601h311v-99h-417zM339 700h86c1 -69 -12 -135 -41 -196h-78c23 53 34 119 33 196z" />
    <glyph glyph-name="uni013B" unicode="&#x13b;" horiz-adv-x="511" 
d="M63 0v700h106v-601h311v-99h-417zM250 -115c-13 -1 -23 2 -32 10c-9 7 -13 17 -13 30c0 31 19 47 56 47c39 0 59 -20 59 -60c0 -54 -29 -91 -87 -111l-33 38c26 9 43 24 50 46z" />
    <glyph glyph-name="Ldot" unicode="&#x13f;" horiz-adv-x="511" 
d="M63 0v700h106v-601h311v-99h-417zM361 322c-41 0 -62 20 -62 60c0 41 21 61 62 61c42 0 63 -20 63 -61c0 -40 -21 -60 -63 -60z" />
    <glyph glyph-name="Lslash" unicode="&#x141;" horiz-adv-x="511" 
d="M480 99v-99h-417v700h106v-319l232 114v-104l-232 -113v-179h311z" />
    <glyph glyph-name="M" unicode="M" horiz-adv-x="739" 
d="M570 0v263c0 59 0 121 1 185l1 79h-2c4 4 -20 -48 -72 -157l-96 -199h-66l-95 197c-53 110 -77 163 -73 159h-3l1 -79c1 -64 1 -126 1 -185v-263h-104v700h120l188 -384h3l186 384h116v-700h-106z" />
    <glyph glyph-name="N" unicode="N" horiz-adv-x="664" 
d="M491 0l-323 514h-3l1 -53c1 -43 1 -82 1 -118v-343h-104v700h109l323 -513h3l-1 53c-1 41 -1 79 -1 114v346h104v-700h-109z" />
    <glyph glyph-name="N.ss02" horiz-adv-x="664" 
d="M600 0h-105v262l-324 294h-3c1 -52 1 -116 1 -191v-365h-106v700h108l321 -292h3v292h105v-700z" />
    <glyph glyph-name="Nacute" unicode="&#x143;" horiz-adv-x="664" 
d="M371 754h-95l98 166l86 -25zM491 0l-323 514h-3l1 -53c1 -43 1 -82 1 -118v-343h-104v700h109l323 -513h3l-1 53c-1 41 -1 79 -1 114v346h104v-700h-109z" />
    <glyph glyph-name="Nacute.loclPLK" horiz-adv-x="664" 
d="M371 754h-86l55 179l85 -16zM491 0l-323 514h-3l1 -53c1 -43 1 -82 1 -118v-343h-104v700h109l323 -513h3l-1 53c-1 41 -1 79 -1 114v346h104v-700h-109z" />
    <glyph glyph-name="Nacute.loclPLK.ss02" horiz-adv-x="664" 
d="M371 754h-86l55 179l85 -16zM600 0h-105v262l-324 294h-3c1 -52 1 -116 1 -191v-365h-106v700h108l321 -292h3v292h105v-700z" />
    <glyph glyph-name="Nacute.ss02" horiz-adv-x="664" 
d="M371 754h-95l98 166l85 -25zM600 0h-105v262l-324 294h-3c1 -52 1 -116 1 -191v-365h-106v700h108l321 -292h3v292h105v-700z" />
    <glyph glyph-name="Ncaron" unicode="&#x147;" horiz-adv-x="664" 
d="M188 867l49 56l97 -78l96 78l49 -56l-145 -118zM491 0l-323 514h-3l1 -53c1 -43 1 -82 1 -118v-343h-104v700h109l323 -513h3l-1 53c-1 41 -1 79 -1 114v346h104v-700h-109z" />
    <glyph glyph-name="Ncaron.ss02" horiz-adv-x="664" 
d="M188 867l49 56l96 -78l97 78l49 -56l-146 -118zM600 0h-105v262l-324 294h-3c1 -52 1 -116 1 -191v-365h-106v700h108l321 -292h3v292h105v-700z" />
    <glyph glyph-name="uni0145" unicode="&#x145;" horiz-adv-x="664" 
d="M491 0l-323 514h-3l1 -53c1 -43 1 -82 1 -118v-343h-104v700h109l323 -513h3l-1 53c-1 41 -1 79 -1 114v346h104v-700h-109zM315 -115c-13 -1 -24 2 -33 10c-8 7 -12 17 -12 30c0 31 19 47 56 47c39 0 59 -20 59 -60c0 -54 -29 -91 -87 -111l-33 38c27 9 43 24 50 46z
" />
    <glyph glyph-name="Ncommaaccent.ss02" horiz-adv-x="664" 
d="M600 0h-105v262l-324 294h-3c1 -52 1 -116 1 -191v-365h-106v700h108l321 -292h3v292h105v-700zM316 -115c-13 -1 -24 2 -33 10c-8 7 -12 17 -12 30c0 31 19 47 56 47c39 0 59 -20 59 -60c0 -54 -29 -91 -87 -111l-33 38c27 9 43 24 50 46z" />
    <glyph glyph-name="Eng" unicode="&#x14a;" horiz-adv-x="664" 
d="M600 700v-700c0 -61 -14 -104 -42 -129c-23 -21 -59 -32 -108 -32h-42v80h31c43 0 60 27 52 81l-323 514h-3l1 -53c1 -43 1 -82 1 -118v-343h-104v700h109l323 -513h3l-1 53c-1 41 -1 79 -1 114v346h104z" />
    <glyph glyph-name="Eng.ss02" horiz-adv-x="664" 
d="M600 700v-700c0 -61 -15 -103 -45 -128c-26 -22 -66 -33 -120 -33h-27v80h29c41 0 62 27 62 81v279l-167 144c-109 95 -162 142 -161 142h-3l1 -59v-506h-106v700h108l200 -177l121 -101h3v278h105z" />
    <glyph glyph-name="Ntilde" unicode="&#xd1;" horiz-adv-x="664" 
d="M468 883l19 -77c-13 -21 -40 -31 -80 -31c-19 0 -42 5 -71 15s-52 15 -70 15c-31 0 -55 -9 -71 -26l-20 77c16 21 43 32 81 32c18 0 42 -5 71 -15s52 -15 71 -15c29 0 52 8 70 25zM491 0l-323 514h-3l1 -53c1 -43 1 -82 1 -118v-343h-104v700h109l323 -513h3l-1 53
c-1 41 -1 79 -1 114v346h104v-700h-109z" />
    <glyph glyph-name="Ntilde.ss02" horiz-adv-x="664" 
d="M468 883l19 -77c-13 -21 -40 -31 -80 -31c-19 0 -42 5 -71 15s-52 15 -70 15c-31 0 -55 -9 -71 -26l-20 77c16 21 43 32 81 32c18 0 42 -5 71 -15s52 -15 71 -15c29 0 52 8 70 25zM600 0h-105v262l-324 294h-3c1 -52 1 -116 1 -191v-365h-106v700h108l321 -292h3v292h105
v-700z" />
    <glyph glyph-name="O" unicode="O" horiz-adv-x="708" 
d="M32 350c0 113 30 203 90 268c58 63 135 95 232 95s174 -31 232 -94c60 -65 90 -155 90 -269c0 -113 -30 -203 -90 -268c-59 -63 -136 -95 -232 -95c-97 0 -174 32 -232 95c-60 65 -90 155 -90 268zM139 351c0 -85 20 -150 60 -196c38 -45 90 -67 155 -67s116 22 155 66
c40 47 60 112 60 196c0 85 -20 150 -60 197c-38 44 -90 66 -155 66s-117 -22 -155 -66c-40 -47 -60 -112 -60 -196z" />
    <glyph glyph-name="Oacute" unicode="&#xd3;" horiz-adv-x="708" 
d="M393 754h-95l98 166l85 -25zM32 350c0 113 30 203 90 268c58 63 135 95 232 95s174 -31 232 -94c60 -65 90 -155 90 -269c0 -113 -30 -203 -90 -268c-59 -63 -136 -95 -232 -95c-97 0 -174 32 -232 95c-60 65 -90 155 -90 268zM139 351c0 -85 20 -150 60 -196
c38 -45 90 -67 155 -67s116 22 155 66c40 47 60 112 60 196c0 85 -20 150 -60 197c-38 44 -90 66 -155 66s-117 -22 -155 -66c-40 -47 -60 -112 -60 -196z" />
    <glyph glyph-name="Oacute.loclPLK" horiz-adv-x="708" 
d="M393 754h-86l55 179l84 -16zM32 350c0 113 30 203 90 268c58 63 135 95 232 95s174 -31 232 -94c60 -65 90 -155 90 -269c0 -113 -30 -203 -90 -268c-59 -63 -136 -95 -232 -95c-97 0 -174 32 -232 95c-60 65 -90 155 -90 268zM139 351c0 -85 20 -150 60 -196
c38 -45 90 -67 155 -67s116 22 155 66c40 47 60 112 60 196c0 85 -20 150 -60 197c-38 44 -90 66 -155 66s-117 -22 -155 -66c-40 -47 -60 -112 -60 -196z" />
    <glyph glyph-name="Ocircumflex" unicode="&#xd4;" horiz-adv-x="708" 
d="M498 806l-50 -57l-95 80l-96 -80l-50 57l146 121zM32 350c0 113 30 203 90 268c58 63 135 95 232 95s174 -31 232 -94c60 -65 90 -155 90 -269c0 -113 -30 -203 -90 -268c-59 -63 -136 -95 -232 -95c-97 0 -174 32 -232 95c-60 65 -90 155 -90 268zM139 351
c0 -85 20 -150 60 -196c38 -45 90 -67 155 -67s116 22 155 66c40 47 60 112 60 196c0 85 -20 150 -60 197c-38 44 -90 66 -155 66s-117 -22 -155 -66c-40 -47 -60 -112 -60 -196z" />
    <glyph glyph-name="Odieresis" unicode="&#xd6;" horiz-adv-x="708" 
d="M263 772c-15 0 -27 5 -37 15c-10 11 -15 24 -15 39s5 28 15 39c11 11 23 16 38 16s27 -5 37 -16s15 -24 15 -39s-5 -28 -15 -39c-10 -10 -23 -15 -38 -15zM446 772c-15 0 -27 5 -37 15c-10 11 -15 24 -15 39s5 28 15 39s22 16 37 16s27 -5 38 -16c10 -11 15 -24 15 -39
s-5 -28 -15 -39c-10 -10 -23 -15 -38 -15zM32 350c0 113 30 203 90 268c58 63 135 95 232 95s174 -31 232 -94c60 -65 90 -155 90 -269c0 -113 -30 -203 -90 -268c-59 -63 -136 -95 -232 -95c-97 0 -174 32 -232 95c-60 65 -90 155 -90 268zM139 351c0 -85 20 -150 60 -196
c38 -45 90 -67 155 -67s116 22 155 66c40 47 60 112 60 196c0 85 -20 150 -60 197c-38 44 -90 66 -155 66s-117 -22 -155 -66c-40 -47 -60 -112 -60 -196z" />
    <glyph glyph-name="Ograve" unicode="&#xd2;" horiz-adv-x="708" 
d="M311 920l98 -166h-95l-89 141zM32 350c0 113 30 203 90 268c58 63 135 95 232 95s174 -31 232 -94c60 -65 90 -155 90 -269c0 -113 -30 -203 -90 -268c-59 -63 -136 -95 -232 -95c-97 0 -174 32 -232 95c-60 65 -90 155 -90 268zM139 351c0 -85 20 -150 60 -196
c38 -45 90 -67 155 -67s116 22 155 66c40 47 60 112 60 196c0 85 -20 150 -60 197c-38 44 -90 66 -155 66s-117 -22 -155 -66c-40 -47 -60 -112 -60 -196z" />
    <glyph glyph-name="Ohungarumlaut" unicode="&#x150;" horiz-adv-x="708" 
d="M301 754h-95l97 166l86 -25zM479 754h-95l97 166l86 -25zM32 350c0 113 30 203 90 268c58 63 135 95 232 95s174 -31 232 -94c60 -65 90 -155 90 -269c0 -113 -30 -203 -90 -268c-59 -63 -136 -95 -232 -95c-97 0 -174 32 -232 95c-60 65 -90 155 -90 268zM139 351
c0 -85 20 -150 60 -196c38 -45 90 -67 155 -67s116 22 155 66c40 47 60 112 60 196c0 85 -20 150 -60 197c-38 44 -90 66 -155 66s-117 -22 -155 -66c-40 -47 -60 -112 -60 -196z" />
    <glyph glyph-name="Omacron" unicode="&#x14c;" horiz-adv-x="708" 
d="M497 771h-285v90h285v-90zM32 350c0 113 30 203 90 268c58 63 135 95 232 95s174 -31 232 -94c60 -65 90 -155 90 -269c0 -113 -30 -203 -90 -268c-59 -63 -136 -95 -232 -95c-97 0 -174 32 -232 95c-60 65 -90 155 -90 268zM139 351c0 -85 20 -150 60 -196
c38 -45 90 -67 155 -67s116 22 155 66c40 47 60 112 60 196c0 85 -20 150 -60 197c-38 44 -90 66 -155 66s-117 -22 -155 -66c-40 -47 -60 -112 -60 -196z" />
    <glyph glyph-name="Oslash" unicode="&#xd8;" horiz-adv-x="708" 
d="M658 719l-69 -104c58 -65 87 -154 87 -265c0 -113 -30 -203 -90 -268c-59 -63 -136 -95 -232 -95c-59 0 -111 13 -158 38l-65 -97l-80 55l68 102c-58 65 -87 154 -87 265c0 113 30 203 90 268c58 63 135 95 232 95c59 0 112 -13 159 -38l64 97zM139 351
c0 -71 14 -129 42 -172l274 410c-29 16 -62 24 -101 24c-65 0 -117 -22 -155 -66c-40 -47 -60 -112 -60 -196zM354 88c65 0 116 22 155 66c40 47 60 112 60 196c0 70 -14 127 -42 172l-274 -411c31 -15 64 -23 101 -23z" />
    <glyph glyph-name="Otilde" unicode="&#xd5;" horiz-adv-x="708" 
d="M490 883l19 -77c-13 -21 -40 -31 -80 -31c-19 0 -42 5 -71 15s-52 15 -70 15c-31 0 -55 -9 -72 -26l-19 77c14 21 41 32 80 32c19 0 42 -5 71 -15s53 -15 71 -15c29 0 53 8 71 25zM32 350c0 113 30 203 90 268c58 63 135 95 232 95s174 -31 232 -94
c60 -65 90 -155 90 -269c0 -113 -30 -203 -90 -268c-59 -63 -136 -95 -232 -95c-97 0 -174 32 -232 95c-60 65 -90 155 -90 268zM139 351c0 -85 20 -150 60 -196c38 -45 90 -67 155 -67s116 22 155 66c40 47 60 112 60 196c0 85 -20 150 -60 197c-38 44 -90 66 -155 66
s-117 -22 -155 -66c-40 -47 -60 -112 -60 -196z" />
    <glyph glyph-name="OE" unicode="&#x152;" horiz-adv-x="900" 
d="M856 0h-427c-19 -3 -43 -4 -72 -4c-97 0 -174 30 -233 90c-61 63 -92 151 -92 264s31 201 92 264c58 60 136 90 233 90c29 0 53 -1 71 -4h425v-99h-332v-187h259v-99h-259v-216h335v-99zM139 350c0 -85 20 -150 60 -195c37 -42 90 -63 159 -63c25 0 45 3 61 9v500
c-19 5 -39 7 -61 7c-69 0 -122 -21 -160 -64c-39 -44 -59 -109 -59 -194z" />
    <glyph glyph-name="P" unicode="P" horiz-adv-x="537" 
d="M63 700h206c78 0 138 -19 181 -58s65 -94 65 -167c0 -70 -22 -125 -65 -164s-104 -59 -181 -59h-100v-252h-106v700zM169 346h100c93 0 140 43 140 128s-47 128 -140 128h-100v-256z" />
    <glyph glyph-name="Thorn" unicode="&#xde;" horiz-adv-x="526" 
d="M169 569h92c77 0 136 -19 178 -56c43 -38 64 -92 64 -162c0 -69 -21 -122 -64 -159c-41 -36 -101 -54 -178 -54h-92v-138h-106v700h106v-131zM169 233h94c89 0 134 39 135 118c0 79 -45 118 -135 118h-94v-236z" />
    <glyph glyph-name="Q" unicode="Q" horiz-adv-x="708" 
d="M676 350c0 -102 -25 -185 -74 -249c-48 -61 -113 -98 -195 -110v-127h-106v127c-82 12 -147 49 -195 110c-49 64 -74 147 -74 249c0 113 30 203 90 268c58 63 135 95 232 95s174 -31 232 -94c60 -65 90 -155 90 -269zM354 88c65 0 116 22 155 66c40 47 60 112 60 196
c0 85 -20 150 -60 197c-38 44 -90 66 -155 66s-117 -22 -155 -66c-40 -47 -60 -112 -60 -196c0 -85 20 -150 60 -196c38 -45 90 -67 155 -67z" />
    <glyph glyph-name="Q.ss01" horiz-adv-x="744" 
d="M704 0h-351c-94 0 -170 32 -229 95c-61 65 -92 153 -92 262c0 112 31 200 92 265c59 61 135 92 229 92s171 -31 230 -93c61 -65 92 -152 92 -262c0 -130 -42 -217 -125 -261l2 -3l26 2c21 1 42 2 64 2h62v-99zM139 358c0 -81 20 -145 59 -191c39 -44 90 -66 155 -66
s117 22 156 67c39 46 59 109 59 189c0 81 -20 145 -60 191c-38 43 -90 65 -155 65s-117 -22 -155 -66c-39 -45 -59 -108 -59 -189z" />
    <glyph glyph-name="R" unicode="R" horiz-adv-x="563" 
d="M410 0l-135 266h-106v-266h-106v700h211c77 0 138 -20 181 -60c43 -39 64 -93 64 -161c0 -101 -46 -165 -138 -192l153 -287h-124zM169 353h111c88 0 132 41 132 122c0 85 -46 127 -138 127h-105v-249z" />
    <glyph glyph-name="Racute" unicode="&#x154;" horiz-adv-x="563" 
d="M303 754h-95l98 166l86 -25zM410 0l-135 266h-106v-266h-106v700h211c77 0 138 -20 181 -60c43 -39 64 -93 64 -161c0 -101 -46 -165 -138 -192l153 -287h-124zM169 353h111c88 0 132 41 132 122c0 85 -46 127 -138 127h-105v-249z" />
    <glyph glyph-name="Rcaron" unicode="&#x158;" horiz-adv-x="563" 
d="M120 867l49 56l97 -78l96 78l49 -56l-145 -118zM410 0l-135 266h-106v-266h-106v700h211c77 0 138 -20 181 -60c43 -39 64 -93 64 -161c0 -101 -46 -165 -138 -192l153 -287h-124zM169 353h111c88 0 132 41 132 122c0 85 -46 127 -138 127h-105v-249z" />
    <glyph glyph-name="uni0156" unicode="&#x156;" horiz-adv-x="563" 
d="M410 0l-135 266h-106v-266h-106v700h211c77 0 138 -20 181 -60c43 -39 64 -93 64 -161c0 -101 -46 -165 -138 -192l153 -287h-124zM169 353h111c88 0 132 41 132 122c0 85 -46 127 -138 127h-105v-249zM292 -115c-13 -1 -24 2 -33 10c-9 7 -13 17 -13 30
c0 31 19 47 57 47c39 0 59 -20 59 -60c0 -54 -29 -91 -87 -111l-34 38c27 9 44 24 51 46z" />
    <glyph glyph-name="S" unicode="S" horiz-adv-x="549" 
d="M29 177l101 27c9 -81 61 -121 155 -121c85 0 127 34 127 102c0 40 -18 70 -54 89c-5 3 -44 16 -115 40c-61 20 -105 41 -132 63c-43 35 -65 84 -65 146c0 60 20 107 60 140c39 33 94 50 165 50c137 0 218 -58 243 -175l-101 -27c-16 71 -63 107 -142 107
c-78 0 -117 -31 -117 -93c0 -35 15 -62 46 -81c19 -11 57 -26 116 -44c64 -19 110 -40 138 -63c43 -36 65 -86 65 -151s-20 -114 -61 -149c-40 -33 -97 -50 -172 -50c-151 0 -237 63 -257 190z" />
    <glyph glyph-name="Sacute" unicode="&#x15a;" horiz-adv-x="549" 
d="M312 754h-95l98 166l85 -25zM29 177l101 27c9 -81 61 -121 155 -121c85 0 127 34 127 102c0 40 -18 70 -54 89c-5 3 -44 16 -115 40c-61 20 -105 41 -132 63c-43 35 -65 84 -65 146c0 60 20 107 60 140c39 33 94 50 165 50c137 0 218 -58 243 -175l-101 -27
c-16 71 -63 107 -142 107c-78 0 -117 -31 -117 -93c0 -35 15 -62 46 -81c19 -11 57 -26 116 -44c64 -19 110 -40 138 -63c43 -36 65 -86 65 -151s-20 -114 -61 -149c-40 -33 -97 -50 -172 -50c-151 0 -237 63 -257 190z" />
    <glyph glyph-name="Sacute.loclPLK" horiz-adv-x="549" 
d="M312 754h-86l55 179l85 -16zM29 177l101 27c9 -81 61 -121 155 -121c85 0 127 34 127 102c0 40 -18 70 -54 89c-5 3 -44 16 -115 40c-61 20 -105 41 -132 63c-43 35 -65 84 -65 146c0 60 20 107 60 140c39 33 94 50 165 50c137 0 218 -58 243 -175l-101 -27
c-16 71 -63 107 -142 107c-78 0 -117 -31 -117 -93c0 -35 15 -62 46 -81c19 -11 57 -26 116 -44c64 -19 110 -40 138 -63c43 -36 65 -86 65 -151s-20 -114 -61 -149c-40 -33 -97 -50 -172 -50c-151 0 -237 63 -257 190z" />
    <glyph glyph-name="Scaron" unicode="&#x160;" horiz-adv-x="549" 
d="M129 867l49 56l96 -78l97 78l49 -56l-146 -118zM29 177l101 27c9 -81 61 -121 155 -121c85 0 127 34 127 102c0 40 -18 70 -54 89c-5 3 -44 16 -115 40c-61 20 -105 41 -132 63c-43 35 -65 84 -65 146c0 60 20 107 60 140c39 33 94 50 165 50c137 0 218 -58 243 -175
l-101 -27c-16 71 -63 107 -142 107c-78 0 -117 -31 -117 -93c0 -35 15 -62 46 -81c19 -11 57 -26 116 -44c64 -19 110 -40 138 -63c43 -36 65 -86 65 -151s-20 -114 -61 -149c-40 -33 -97 -50 -172 -50c-151 0 -237 63 -257 190z" />
    <glyph glyph-name="Scedilla" unicode="&#x15e;" horiz-adv-x="549" 
d="M519 186c0 -111 -56 -175 -168 -194c33 -15 50 -40 50 -76c0 -60 -40 -90 -121 -90c-36 0 -63 5 -80 14v69c15 -8 35 -12 62 -12c41 0 61 11 61 34c0 26 -34 39 -102 39v22c-112 18 -176 80 -192 185l101 27c9 -81 61 -121 155 -121c85 0 127 34 127 102
c0 40 -18 70 -54 89c-5 3 -44 16 -115 40c-61 20 -105 41 -132 63c-43 35 -65 84 -65 146c0 60 20 107 60 140c39 33 94 50 165 50c137 0 218 -58 243 -175l-101 -27c-16 71 -63 107 -142 107c-78 0 -117 -31 -117 -93c0 -35 15 -62 46 -81c19 -11 57 -26 116 -44
c64 -19 110 -40 138 -63c43 -36 65 -86 65 -151z" />
    <glyph glyph-name="Scircumflex" unicode="&#x15c;" horiz-adv-x="549" 
d="M417 806l-50 -57l-95 80l-96 -80l-50 57l146 121zM29 177l101 27c9 -81 61 -121 155 -121c85 0 127 34 127 102c0 40 -18 70 -54 89c-5 3 -44 16 -115 40c-61 20 -105 41 -132 63c-43 35 -65 84 -65 146c0 60 20 107 60 140c39 33 94 50 165 50c137 0 218 -58 243 -175
l-101 -27c-16 71 -63 107 -142 107c-78 0 -117 -31 -117 -93c0 -35 15 -62 46 -81c19 -11 57 -26 116 -44c64 -19 110 -40 138 -63c43 -36 65 -86 65 -151s-20 -114 -61 -149c-40 -33 -97 -50 -172 -50c-151 0 -237 63 -257 190z" />
    <glyph glyph-name="uni0218" unicode="&#x218;" horiz-adv-x="549" 
d="M29 177l101 27c9 -81 61 -121 155 -121c85 0 127 34 127 102c0 40 -18 70 -54 89c-5 3 -44 16 -115 40c-61 20 -105 41 -132 63c-43 35 -65 84 -65 146c0 60 20 107 60 140c39 33 94 50 165 50c137 0 218 -58 243 -175l-101 -27c-16 71 -63 107 -142 107
c-78 0 -117 -31 -117 -93c0 -35 15 -62 46 -81c19 -11 57 -26 116 -44c64 -19 110 -40 138 -63c43 -36 65 -86 65 -151s-20 -114 -61 -149c-40 -33 -97 -50 -172 -50c-151 0 -237 63 -257 190zM263 -115c-13 -1 -24 2 -33 10c-9 7 -13 17 -13 30c0 31 19 47 57 47
c39 0 59 -20 59 -60c0 -55 -29 -92 -88 -111l-33 38c27 9 44 24 51 46z" />
    <glyph glyph-name="uni1E9E" unicode="&#x1e9e;" horiz-adv-x="625" 
d="M401 431h5c57 0 103 -20 139 -59c37 -40 55 -93 55 -158s-18 -119 -53 -160c-39 -45 -93 -67 -162 -67c-62 0 -113 19 -152 57l45 81c27 -27 59 -40 96 -40s67 11 89 34c21 23 31 53 31 90c0 39 -11 70 -33 93c-23 22 -54 33 -93 33h-83v93l86 171l-2 2h-200v-601h-106
v700h472l-136 -266z" />
    <glyph glyph-name="T" unicode="T" horiz-adv-x="575" 
d="M545 601h-205v-601h-105v601h-205v99h515v-99z" />
    <glyph glyph-name="Tbar" unicode="&#x166;" horiz-adv-x="575" 
d="M340 399h111v-100h-111v-299h-105v299h-111v100h111v202h-205v99h515v-99h-205v-202z" />
    <glyph glyph-name="Tcaron" unicode="&#x164;" horiz-adv-x="575" 
d="M143 867l49 56l97 -78l96 78l49 -56l-145 -118zM545 601h-205v-601h-105v601h-205v99h515v-99z" />
    <glyph glyph-name="uni0162" unicode="&#x162;" horiz-adv-x="575" 
d="M340 601v-600c50 -12 75 -40 75 -85c0 -60 -40 -90 -121 -90c-36 0 -62 5 -79 14v69c14 -8 35 -12 62 -12c40 0 60 11 60 34c0 26 -34 39 -102 39v631h-205v99h515v-99h-205z" />
    <glyph glyph-name="uni021A" unicode="&#x21a;" horiz-adv-x="575" 
d="M545 601h-205v-601h-105v601h-205v99h515v-99zM277 -115c-13 -1 -24 2 -33 10c-8 7 -12 17 -12 30c0 31 19 47 56 47c39 0 59 -20 59 -60c0 -54 -29 -91 -87 -111l-34 38c27 9 44 24 51 46z" />
    <glyph glyph-name="U" unicode="U" horiz-adv-x="629" 
d="M573 700v-429c0 -93 -23 -163 -68 -212c-44 -48 -108 -72 -191 -72s-147 24 -192 72c-45 49 -67 119 -67 212v429h107v-428c0 -123 51 -184 153 -184c103 0 155 61 155 184v428h103z" />
    <glyph glyph-name="Uacute" unicode="&#xda;" horiz-adv-x="629" 
d="M356 754h-95l97 166l86 -25zM573 700v-429c0 -93 -23 -163 -68 -212c-44 -48 -108 -72 -191 -72s-147 24 -192 72c-45 49 -67 119 -67 212v429h107v-428c0 -123 51 -184 153 -184c103 0 155 61 155 184v428h103z" />
    <glyph glyph-name="Ubreve" unicode="&#x16c;" horiz-adv-x="629" 
d="M165 880h78c3 -45 27 -67 74 -67c49 0 74 22 75 67h78c-1 -41 -16 -74 -43 -99c-28 -25 -65 -38 -110 -38s-82 12 -109 37s-41 58 -43 100zM573 700v-429c0 -93 -23 -163 -68 -212c-44 -48 -108 -72 -191 -72s-147 24 -192 72c-45 49 -67 119 -67 212v429h107v-428
c0 -123 51 -184 153 -184c103 0 155 61 155 184v428h103z" />
    <glyph glyph-name="Ucircumflex" unicode="&#xdb;" horiz-adv-x="629" 
d="M461 806l-50 -57l-95 80l-96 -80l-50 57l146 121zM573 700v-429c0 -93 -23 -163 -68 -212c-44 -48 -108 -72 -191 -72s-147 24 -192 72c-45 49 -67 119 -67 212v429h107v-428c0 -123 51 -184 153 -184c103 0 155 61 155 184v428h103z" />
    <glyph glyph-name="Udieresis" unicode="&#xdc;" horiz-adv-x="629" 
d="M226 772c-15 0 -27 5 -37 15c-10 11 -15 24 -15 39s5 28 15 39c11 11 23 16 38 16s27 -5 37 -16s15 -24 15 -39s-5 -28 -15 -39c-10 -10 -23 -15 -38 -15zM409 772c-15 0 -28 5 -38 15c-10 11 -15 24 -15 39s5 28 15 39c11 11 23 16 38 16s27 -5 38 -16
c10 -11 15 -24 15 -39s-5 -28 -15 -39c-10 -10 -23 -15 -38 -15zM573 700v-429c0 -93 -23 -163 -68 -212c-44 -48 -108 -72 -191 -72s-147 24 -192 72c-45 49 -67 119 -67 212v429h107v-428c0 -123 51 -184 153 -184c103 0 155 61 155 184v428h103z" />
    <glyph glyph-name="Ugrave" unicode="&#xd9;" horiz-adv-x="629" 
d="M274 920l98 -166h-95l-89 141zM573 700v-429c0 -93 -23 -163 -68 -212c-44 -48 -108 -72 -191 -72s-147 24 -192 72c-45 49 -67 119 -67 212v429h107v-428c0 -123 51 -184 153 -184c103 0 155 61 155 184v428h103z" />
    <glyph glyph-name="Uhungarumlaut" unicode="&#x170;" horiz-adv-x="629" 
d="M264 754h-95l97 166l86 -25zM442 754h-95l97 166l86 -25zM573 700v-429c0 -93 -23 -163 -68 -212c-44 -48 -108 -72 -191 -72s-147 24 -192 72c-45 49 -67 119 -67 212v429h107v-428c0 -123 51 -184 153 -184c103 0 155 61 155 184v428h103z" />
    <glyph glyph-name="Umacron" unicode="&#x16a;" horiz-adv-x="629" 
d="M460 771h-285v90h285v-90zM573 700v-429c0 -93 -23 -163 -68 -212c-44 -48 -108 -72 -191 -72s-147 24 -192 72c-45 49 -67 119 -67 212v429h107v-428c0 -123 51 -184 153 -184c103 0 155 61 155 184v428h103z" />
    <glyph glyph-name="Uogonek" unicode="&#x172;" horiz-adv-x="625" 
d="M573 700v-429c0 -165 -68 -258 -203 -279c-29 -10 -43 -25 -43 -45c0 -27 19 -40 56 -40c29 0 52 5 69 15v-80c-21 -11 -50 -16 -87 -16s-68 10 -91 30c-24 20 -36 46 -36 78c0 20 6 39 17 58c-133 22 -200 115 -200 279v429h107v-428c0 -123 51 -184 153 -184
c103 0 155 61 155 184v428h103z" />
    <glyph glyph-name="Uring" unicode="&#x16e;" horiz-adv-x="629" 
d="M318 737c-33 0 -59 9 -79 27s-30 42 -30 73s10 56 30 74s46 27 79 27s59 -9 78 -27c20 -18 30 -43 30 -74s-10 -55 -30 -73c-19 -18 -45 -27 -78 -27zM318 795c28 0 42 14 42 42s-14 42 -42 42c-29 0 -43 -14 -43 -42s14 -42 43 -42zM573 700v-429
c0 -93 -23 -163 -68 -212c-44 -48 -108 -72 -191 -72s-147 24 -192 72c-45 49 -67 119 -67 212v429h107v-428c0 -123 51 -184 153 -184c103 0 155 61 155 184v428h103z" />
    <glyph glyph-name="V" unicode="V" horiz-adv-x="633" 
d="M386 0h-139l-231 700h118l184 -589h3c-2 -4 21 70 69 223l114 366h113z" />
    <glyph glyph-name="W" unicode="W" horiz-adv-x="918" 
d="M587 0l-82 309c-36 139 -51 202 -45 191h-3c5 10 -11 -56 -46 -197l-78 -303h-128l-185 700h117l80 -329c39 -155 58 -234 58 -237h3c1 1 18 71 51 210l70 279h130l69 -280c33 -138 50 -208 50 -209h3c-1 -3 18 75 57 232l85 334h105l-185 -700h-126z" />
    <glyph glyph-name="Wacute" unicode="&#x1e82;" horiz-adv-x="918" 
d="M507 754h-95l98 166l86 -25zM587 0l-82 309c-36 139 -51 202 -45 191h-3c5 10 -11 -56 -46 -197l-78 -303h-128l-185 700h117l80 -329c39 -155 58 -234 58 -237h3c1 1 18 71 51 210l70 279h130l69 -280c33 -138 50 -208 50 -209h3c-1 -3 18 75 57 232l85 334h105
l-185 -700h-126z" />
    <glyph glyph-name="Wcircumflex" unicode="&#x174;" horiz-adv-x="918" 
d="M612 806l-49 -57l-96 80l-95 -80l-50 57l145 121zM587 0l-82 309c-36 139 -51 202 -45 191h-3c5 10 -11 -56 -46 -197l-78 -303h-128l-185 700h117l80 -329c39 -155 58 -234 58 -237h3c1 1 18 71 51 210l70 279h130l69 -280c33 -138 50 -208 50 -209h3
c-1 -3 18 75 57 232l85 334h105l-185 -700h-126z" />
    <glyph glyph-name="Wdieresis" unicode="&#x1e84;" horiz-adv-x="918" 
d="M378 772c-15 0 -28 5 -38 15c-10 11 -15 24 -15 39s5 28 15 39c11 11 23 16 38 16s27 -5 37 -16s15 -24 15 -39s-5 -28 -15 -39c-10 -10 -22 -15 -37 -15zM561 772c-15 0 -28 5 -38 15c-10 11 -15 24 -15 39s5 28 15 39c11 11 23 16 38 16s27 -5 37 -16s15 -24 15 -39
s-5 -28 -15 -39c-10 -10 -22 -15 -37 -15zM587 0l-82 309c-36 139 -51 202 -45 191h-3c5 10 -11 -56 -46 -197l-78 -303h-128l-185 700h117l80 -329c39 -155 58 -234 58 -237h3c1 1 18 71 51 210l70 279h130l69 -280c33 -138 50 -208 50 -209h3c-1 -3 18 75 57 232l85 334
h105l-185 -700h-126z" />
    <glyph glyph-name="Wgrave" unicode="&#x1e80;" horiz-adv-x="918" 
d="M426 920l97 -166h-95l-88 141zM587 0l-82 309c-36 139 -51 202 -45 191h-3c5 10 -11 -56 -46 -197l-78 -303h-128l-185 700h117l80 -329c39 -155 58 -234 58 -237h3c1 1 18 71 51 210l70 279h130l69 -280c33 -138 50 -208 50 -209h3c-1 -3 18 75 57 232l85 334h105
l-185 -700h-126z" />
    <glyph glyph-name="X" unicode="X" horiz-adv-x="631" 
d="M483 0l-98 159c-50 81 -74 122 -72 122h-1c1 0 -23 -41 -73 -124l-95 -157h-125l229 363l-212 337h127l93 -151c45 -73 66 -110 65 -110h2c-2 0 19 37 62 110l89 151h123l-212 -339l227 -361h-129z" />
    <glyph glyph-name="Y" unicode="Y" horiz-adv-x="613" 
d="M359 289v-289h-105v289l-238 411h121l122 -216c35 -62 52 -92 50 -90h2c-5 -5 12 25 49 89l124 217h113z" />
    <glyph glyph-name="Y.ss05" horiz-adv-x="613" 
d="M398 356h101v-98h-140v-258h-105v258h-139v98h100l-199 344h121l122 -216c35 -62 52 -92 50 -90h2c-5 -5 12 25 49 89l124 217h113z" />
    <glyph glyph-name="Yacute" unicode="&#xdd;" horiz-adv-x="613" 
d="M354 754h-95l97 166l86 -25zM359 289v-289h-105v289l-238 411h121l122 -216c35 -62 52 -92 50 -90h2c-5 -5 12 25 49 89l124 217h113z" />
    <glyph glyph-name="Yacute.ss05" horiz-adv-x="613" 
d="M351 754h-95l98 166l85 -25zM398 356h101v-98h-140v-258h-105v258h-139v98h100l-199 344h121l122 -216c35 -62 52 -92 50 -90h2c-5 -5 12 25 49 89l124 217h113z" />
    <glyph glyph-name="Ycircumflex" unicode="&#x176;" horiz-adv-x="613" 
d="M458 806l-49 -57l-96 80l-95 -80l-50 57l145 121zM359 289v-289h-105v289l-238 411h121l122 -216c35 -62 52 -92 50 -90h2c-5 -5 12 25 49 89l124 217h113z" />
    <glyph glyph-name="Ycircumflex.ss05" horiz-adv-x="613" 
d="M215 749l-49 57l145 121l145 -121l-50 -57l-95 80zM398 356h101v-98h-140v-258h-105v258h-139v98h100l-199 344h121l122 -216c35 -62 52 -92 50 -90h2c-5 -5 12 25 49 89l124 217h113z" />
    <glyph glyph-name="Ydieresis" unicode="&#x178;" horiz-adv-x="613" 
d="M224 772c-15 0 -27 5 -37 15c-10 11 -15 24 -15 39s5 28 15 39s23 16 38 16s27 -5 36 -16c10 -11 15 -24 15 -39s-5 -28 -15 -39c-10 -10 -22 -15 -37 -15zM407 772c-15 0 -28 5 -38 15c-10 11 -15 24 -15 39s5 28 15 39c11 11 23 16 38 16s27 -5 38 -16
c10 -11 15 -24 15 -39s-5 -28 -15 -39c-10 -10 -23 -15 -38 -15zM359 289v-289h-105v289l-238 411h121l122 -216c35 -62 52 -92 50 -90h2c-5 -5 12 25 49 89l124 217h113z" />
    <glyph glyph-name="Ydieresis.ss05" horiz-adv-x="613" 
d="M221 772c-15 0 -27 5 -37 15c-10 11 -15 24 -15 39s5 28 15 39c11 11 23 16 38 16s27 -5 37 -16s15 -24 15 -39s-5 -28 -15 -39c-10 -10 -23 -15 -38 -15zM404 772c-15 0 -27 5 -37 15c-10 11 -15 24 -15 39s5 28 15 39s22 16 37 16s27 -5 38 -16c10 -11 15 -24 15 -39
s-5 -28 -15 -39c-10 -10 -23 -15 -38 -15zM398 356h101v-98h-140v-258h-105v258h-139v98h100l-199 344h121l122 -216c35 -62 52 -92 50 -90h2c-5 -5 12 25 49 89l124 217h113z" />
    <glyph glyph-name="Ygrave" unicode="&#x1ef2;" horiz-adv-x="613" 
d="M272 920l98 -166h-95l-89 141zM359 289v-289h-105v289l-238 411h121l122 -216c35 -62 52 -92 50 -90h2c-5 -5 12 25 49 89l124 217h113z" />
    <glyph glyph-name="Ygrave.ss05" horiz-adv-x="613" 
d="M272 754l-88 141l85 25l98 -166h-95zM398 356h101v-98h-140v-258h-105v258h-139v98h100l-199 344h121l122 -216c35 -62 52 -92 50 -90h2c-5 -5 12 25 49 89l124 217h113z" />
    <glyph glyph-name="Z" unicode="Z" horiz-adv-x="584" 
d="M546 597l-308 -406c-48 -63 -72 -93 -72 -90l2 -3l25 1h354v-99h-510v99l319 417c43 57 65 85 65 83l-1 3l-374 -1v99h500v-103z" />
    <glyph glyph-name="Zacute" unicode="&#x179;" horiz-adv-x="584" 
d="M336 754h-95l97 166l86 -25zM546 597l-308 -406c-48 -63 -72 -93 -72 -90l2 -3l25 1h354v-99h-510v99l319 417c43 57 65 85 65 83l-1 3l-374 -1v99h500v-103z" />
    <glyph glyph-name="Zacute.loclPLK" horiz-adv-x="584" 
d="M336 754h-86l55 179l84 -16zM546 597l-308 -406c-48 -63 -72 -93 -72 -90l2 -3l25 1h354v-99h-510v99l319 417c43 57 65 85 65 83l-1 3l-374 -1v99h500v-103z" />
    <glyph glyph-name="Zcaron" unicode="&#x17d;" horiz-adv-x="584" 
d="M153 867l49 56l96 -78l97 78l49 -56l-146 -118zM546 597l-308 -406c-48 -63 -72 -93 -72 -90l2 -3l25 1h354v-99h-510v99l319 417c43 57 65 85 65 83l-1 3l-374 -1v99h500v-103z" />
    <glyph glyph-name="Zdotaccent" unicode="&#x17b;" horiz-adv-x="584" 
d="M297 772c-15 0 -27 5 -37 15c-10 11 -15 24 -15 39s5 28 15 39s22 16 37 16s27 -5 38 -16c10 -11 15 -24 15 -39s-5 -28 -15 -39c-10 -10 -23 -15 -38 -15zM546 597l-308 -406c-48 -63 -72 -93 -72 -90l2 -3l25 1h354v-99h-510v99l319 417c43 57 65 85 65 83l-1 3
l-374 -1v99h500v-103z" />
    <glyph glyph-name="a" unicode="a" horiz-adv-x="542" 
d="M380 130h-220l-41 -130h-101l189 560h128l189 -560h-103zM352 216l-35 112c-35 109 -51 159 -46 150h-3l-47 -155l-34 -107h165z" />
    <glyph glyph-name="aacute" unicode="&#xe1;" horiz-adv-x="542" 
d="M310 614h-95l98 166l86 -25zM380 130h-220l-41 -130h-101l189 560h128l189 -560h-103zM352 216l-35 112c-35 109 -51 159 -46 150h-3l-47 -155l-34 -107h165z" />
    <glyph glyph-name="abreve" unicode="&#x103;" horiz-adv-x="542" 
d="M272 603c-45 0 -82 12 -109 37s-42 58 -43 100h78c1 -45 26 -67 74 -67c49 0 74 22 75 67h77c-1 -41 -16 -74 -43 -99s-64 -38 -109 -38zM380 130h-220l-41 -130h-101l189 560h128l189 -560h-103zM352 216l-35 112c-35 109 -51 159 -46 150h-3l-47 -155l-34 -107h165z
" />
    <glyph glyph-name="acircumflex" unicode="&#xe2;" horiz-adv-x="542" 
d="M207 616l-52 54l117 117l117 -117l-51 -54l-66 68zM380 130h-220l-41 -130h-101l189 560h128l189 -560h-103zM352 216l-35 112c-35 109 -51 159 -46 150h-3l-47 -155l-34 -107h165z" />
    <glyph glyph-name="adieresis" unicode="&#xe4;" horiz-adv-x="542" 
d="M181 632c-15 0 -28 5 -38 15c-10 11 -15 24 -15 39s5 28 15 39c11 11 23 16 38 16s27 -5 37 -16s15 -24 15 -39s-5 -28 -15 -39c-10 -10 -22 -15 -37 -15zM364 632c-15 0 -28 5 -38 15c-10 11 -15 24 -15 39s5 28 15 39c11 11 23 16 38 16s27 -5 37 -16s15 -24 15 -39
s-5 -28 -15 -39c-10 -10 -22 -15 -37 -15zM380 130h-220l-41 -130h-101l189 560h128l189 -560h-103zM352 216l-35 112c-35 109 -51 159 -46 150h-3l-47 -155l-34 -107h165z" />
    <glyph glyph-name="agrave" unicode="&#xe0;" horiz-adv-x="542" 
d="M231 614l-88 141l86 25l97 -166h-95zM380 130h-220l-41 -130h-101l189 560h128l189 -560h-103zM352 216l-35 112c-35 109 -51 159 -46 150h-3l-47 -155l-34 -107h165z" />
    <glyph glyph-name="amacron" unicode="&#x101;" horiz-adv-x="542" 
d="M415 631h-285v90h285v-90zM380 130h-220l-41 -130h-101l189 560h128l189 -560h-103zM352 216l-35 112c-35 109 -51 159 -46 150h-3l-47 -155l-34 -107h165z" />
    <glyph glyph-name="aogonek" unicode="&#x105;" horiz-adv-x="542" 
d="M364 -52c0 -27 21 -41 62 -41c37 0 65 6 86 17v-81c-25 -11 -57 -17 -96 -17c-40 0 -73 9 -98 28c-27 21 -41 50 -41 89c0 68 41 110 122 125l-19 62h-220l-41 -130h-101l189 560h128l189 -560h-45c-77 -1 -115 -18 -115 -52zM352 216l-35 112c-35 109 -51 159 -46 150
h-3l-47 -155l-34 -107h165z" />
    <glyph glyph-name="aring" unicode="&#xe5;" horiz-adv-x="542" 
d="M272 597c-33 0 -59 9 -78 27c-20 18 -30 42 -30 73s10 56 30 74c19 18 45 27 78 27s59 -9 78 -27c20 -18 30 -43 30 -74s-10 -55 -30 -73c-19 -18 -45 -27 -78 -27zM272 739c-28 0 -42 -14 -42 -42s14 -42 42 -42s42 14 42 42s-14 42 -42 42zM380 130h-220l-41 -130h-101
l189 560h128l189 -560h-103zM352 216l-35 112c-35 109 -51 159 -46 150h-3l-47 -155l-34 -107h165z" />
    <glyph glyph-name="atilde" unicode="&#xe3;" horiz-adv-x="542" 
d="M211 665c-27 0 -47 -9 -62 -26l-20 78c15 21 39 31 72 31c17 0 38 -5 64 -15s47 -15 63 -15c25 0 46 8 63 25l19 -78c-11 -20 -34 -30 -71 -30c-17 0 -38 5 -65 15c-26 10 -47 15 -63 15zM380 130h-220l-41 -130h-101l189 560h128l189 -560h-103zM352 216l-35 112
c-35 109 -51 159 -46 150h-3l-47 -155l-34 -107h165z" />
    <glyph glyph-name="ae" unicode="&#xe6;" horiz-adv-x="742" 
d="M700 94v-94h-371v129h-170l-40 -129h-101l190 560h487v-94h-271v-134h203v-90h-203v-148h276zM329 214v254h-63l-80 -254h143z" />
    <glyph glyph-name="b" unicode="b" horiz-adv-x="498" 
d="M354 299v-4c77 -16 115 -62 115 -137c0 -47 -16 -85 -47 -113c-33 -30 -81 -45 -143 -45h-216v560h209c49 0 90 -14 121 -42c30 -27 45 -61 45 -102c0 -63 -28 -102 -84 -117zM163 329h94c24 0 43 6 58 19c17 13 25 32 25 55c0 48 -28 72 -83 72h-94v-146zM163 85h112
c61 0 91 27 91 81c0 27 -9 47 -26 62s-40 22 -69 22h-108v-165z" />
    <glyph glyph-name="c" unicode="c" horiz-adv-x="569" 
d="M439 176l95 -25c-43 -108 -122 -162 -237 -162c-80 0 -144 26 -191 77c-49 53 -74 124 -74 214s24 161 73 214c48 51 112 77 191 77c122 0 201 -55 236 -166l-94 -25c-29 65 -76 98 -141 98c-50 0 -90 -17 -119 -52s-44 -83 -44 -144c0 -64 15 -114 45 -149
c29 -34 68 -51 118 -51c67 0 115 31 142 94z" />
    <glyph glyph-name="cacute" unicode="&#x107;" horiz-adv-x="569" 
d="M332 614h-95l97 166l86 -25zM439 176l95 -25c-43 -108 -122 -162 -237 -162c-80 0 -144 26 -191 77c-49 53 -74 124 -74 214s24 161 73 214c48 51 112 77 191 77c122 0 201 -55 236 -166l-94 -25c-29 65 -76 98 -141 98c-50 0 -90 -17 -119 -52s-44 -83 -44 -144
c0 -64 15 -114 45 -149c29 -34 68 -51 118 -51c67 0 115 31 142 94z" />
    <glyph glyph-name="cacute.loclPLK" horiz-adv-x="569" 
d="M332 614h-86l55 179l84 -16zM439 176l95 -25c-43 -108 -122 -162 -237 -162c-80 0 -144 26 -191 77c-49 53 -74 124 -74 214s24 161 73 214c48 51 112 77 191 77c122 0 201 -55 236 -166l-94 -25c-29 65 -76 98 -141 98c-50 0 -90 -17 -119 -52s-44 -83 -44 -144
c0 -64 15 -114 45 -149c29 -34 68 -51 118 -51c67 0 115 31 142 94z" />
    <glyph glyph-name="ccaron" unicode="&#x10d;" horiz-adv-x="569" 
d="M149 727l49 56l96 -78l96 78l49 -56l-145 -118zM439 176l95 -25c-43 -108 -122 -162 -237 -162c-80 0 -144 26 -191 77c-49 53 -74 124 -74 214s24 161 73 214c48 51 112 77 191 77c122 0 201 -55 236 -166l-94 -25c-29 65 -76 98 -141 98c-50 0 -90 -17 -119 -52
s-44 -83 -44 -144c0 -64 15 -114 45 -149c29 -34 68 -51 118 -51c67 0 115 31 142 94z" />
    <glyph glyph-name="ccedilla" unicode="&#xe7;" horiz-adv-x="569" 
d="M439 176l95 -25c-35 -87 -93 -139 -176 -156c39 -15 58 -41 58 -80c0 -60 -40 -90 -121 -90c-36 0 -63 5 -80 14v70c13 -9 34 -13 62 -13c41 0 61 11 61 34c0 26 -34 39 -102 39v26c-63 13 -112 44 -148 93c-37 50 -56 114 -56 192c0 90 24 161 73 214
c48 51 112 77 191 77c122 0 201 -55 236 -166l-94 -25c-29 65 -76 98 -141 98c-50 0 -90 -17 -119 -52s-44 -83 -44 -144c0 -64 15 -114 45 -149c29 -34 68 -51 118 -51c67 0 115 31 142 94z" />
    <glyph glyph-name="ccircumflex" unicode="&#x109;" horiz-adv-x="569" 
d="M437 666l-50 -57l-95 80l-96 -80l-50 57l146 121zM439 176l95 -25c-43 -108 -122 -162 -237 -162c-80 0 -144 26 -191 77c-49 53 -74 124 -74 214s24 161 73 214c48 51 112 77 191 77c122 0 201 -55 236 -166l-94 -25c-29 65 -76 98 -141 98c-50 0 -90 -17 -119 -52
s-44 -83 -44 -144c0 -64 15 -114 45 -149c29 -34 68 -51 118 -51c67 0 115 31 142 94z" />
    <glyph glyph-name="cdotaccent" unicode="&#x10b;" horiz-adv-x="569" 
d="M293 632c-15 0 -27 5 -37 15c-10 11 -15 24 -15 39s5 28 15 39s22 16 37 16s27 -5 38 -16c10 -11 15 -24 15 -39s-5 -28 -15 -39c-10 -10 -23 -15 -38 -15zM439 176l95 -25c-43 -108 -122 -162 -237 -162c-80 0 -144 26 -191 77c-49 53 -74 124 -74 214s24 161 73 214
c48 51 112 77 191 77c122 0 201 -55 236 -166l-94 -25c-29 65 -76 98 -141 98c-50 0 -90 -17 -119 -52s-44 -83 -44 -144c0 -64 15 -114 45 -149c29 -34 68 -51 118 -51c67 0 115 31 142 94z" />
    <glyph glyph-name="d" unicode="d" horiz-adv-x="559" 
d="M63 560h185c85 0 153 -25 203 -75c51 -50 76 -119 76 -207c0 -87 -25 -156 -75 -205c-49 -49 -115 -73 -200 -73h-189v560zM163 94h87c117 0 176 61 176 182c0 127 -59 190 -178 190h-85v-372z" />
    <glyph glyph-name="eth" unicode="&#xf0;" horiz-adv-x="559" 
d="M63 560h185c85 0 153 -25 203 -75c51 -50 76 -119 76 -207c0 -87 -25 -156 -75 -205c-49 -49 -115 -73 -200 -73h-189v240h-52v90h52v230zM163 94h87c117 0 176 61 176 182c0 127 -59 190 -178 190h-85v-136h136v-90h-136v-146z" />
    <glyph glyph-name="dcaron" unicode="&#x10f;" horiz-adv-x="559" 
d="M119 727l49 56l96 -78l96 78l49 -56l-145 -118zM63 560h185c85 0 153 -25 203 -75c51 -50 76 -119 76 -207c0 -87 -25 -156 -75 -205c-49 -49 -115 -73 -200 -73h-189v560zM163 94h87c117 0 176 61 176 182c0 127 -59 190 -178 190h-85v-372z" />
    <glyph glyph-name="dslash" unicode="&#x111;" horiz-adv-x="559" 
d="M63 560h185c85 0 153 -25 203 -75c51 -50 76 -119 76 -207c0 -87 -25 -156 -75 -205c-49 -49 -115 -73 -200 -73h-189v240h-52v90h52v230zM163 94h87c117 0 176 61 176 182c0 127 -59 190 -178 190h-85v-136h136v-90h-136v-146z" />
    <glyph glyph-name="e" unicode="e" horiz-adv-x="480" 
d="M63 0v560h370v-94h-270v-133h204v-91h-204v-148h275v-94h-375z" />
    <glyph glyph-name="eacute" unicode="&#xe9;" horiz-adv-x="480" 
d="M287 614h-95l98 166l85 -25zM63 0v560h370v-94h-270v-133h204v-91h-204v-148h275v-94h-375z" />
    <glyph glyph-name="ecaron" unicode="&#x11b;" horiz-adv-x="480" 
d="M104 727l49 56l96 -78l97 78l49 -56l-146 -118zM63 0v560h370v-94h-270v-133h204v-91h-204v-148h275v-94h-375z" />
    <glyph glyph-name="ecircumflex" unicode="&#xea;" horiz-adv-x="480" 
d="M392 666l-50 -57l-95 80l-96 -80l-49 57l145 121zM63 0v560h370v-94h-270v-133h204v-91h-204v-148h275v-94h-375z" />
    <glyph glyph-name="edieresis" unicode="&#xeb;" horiz-adv-x="480" 
d="M157 632c-15 0 -27 5 -37 15c-10 11 -15 24 -15 39s5 28 15 39c11 11 23 16 38 16s27 -5 37 -16s15 -24 15 -39s-5 -28 -15 -39c-10 -10 -23 -15 -38 -15zM340 632c-15 0 -27 5 -37 15c-10 11 -15 24 -15 39s5 28 15 39s22 16 37 16s27 -5 38 -16c10 -11 15 -24 15 -39
s-5 -28 -15 -39c-10 -10 -23 -15 -38 -15zM63 0v560h370v-94h-270v-133h204v-91h-204v-148h275v-94h-375z" />
    <glyph glyph-name="edotaccent" unicode="&#x117;" horiz-adv-x="480" 
d="M248 632c-15 0 -27 5 -37 15c-10 11 -15 24 -15 39s5 28 15 39s22 16 37 16s27 -5 38 -16c10 -11 15 -24 15 -39s-5 -28 -15 -39c-10 -10 -23 -15 -38 -15zM63 0v560h370v-94h-270v-133h204v-91h-204v-148h275v-94h-375z" />
    <glyph glyph-name="egrave" unicode="&#xe8;" horiz-adv-x="480" 
d="M205 780l98 -166h-95l-88 141zM63 0v560h370v-94h-270v-133h204v-91h-204v-148h275v-94h-375z" />
    <glyph glyph-name="emacron" unicode="&#x113;" horiz-adv-x="480" 
d="M391 631h-285v90h285v-90zM63 0v560h370v-94h-270v-133h204v-91h-204v-148h275v-94h-375z" />
    <glyph glyph-name="eogonek" unicode="&#x119;" horiz-adv-x="480" 
d="M370 -94c28 0 51 6 69 17v-80c-18 -11 -45 -17 -81 -17c-37 0 -67 10 -91 30s-36 46 -36 78c0 24 7 46 21 66h-189v560h370v-94h-270v-133h204v-91h-204v-148h275v-94h-37c-55 -3 -82 -20 -82 -51c0 -29 17 -43 51 -43z" />
    <glyph glyph-name="f" unicode="f" horiz-adv-x="455" 
d="M422 466h-259v-157h191v-94h-191v-215h-100v560h359v-94z" />
    <glyph glyph-name="g" unicode="g" horiz-adv-x="598" 
d="M548 0h-90l1 64h-2c-39 -49 -96 -74 -170 -74c-75 0 -135 26 -182 77c-49 53 -73 125 -73 214c0 91 25 162 74 214c47 51 111 76 190 76c122 0 202 -55 239 -166l-92 -25c-28 65 -76 98 -145 98c-51 0 -91 -17 -120 -50c-29 -35 -44 -83 -44 -144c0 -65 16 -115 47 -151
c30 -35 72 -52 127 -52c72 0 122 23 150 69v63h-140v89h230v-302z" />
    <glyph glyph-name="gbreve" unicode="&#x11f;" horiz-adv-x="598" 
d="M140 740h78c1 -45 26 -67 74 -67c49 0 74 22 75 67h77c-1 -41 -16 -74 -43 -99s-64 -38 -109 -38s-82 12 -109 37s-42 58 -43 100zM548 0h-90l1 64h-2c-39 -49 -96 -74 -170 -74c-75 0 -135 26 -182 77c-49 53 -73 125 -73 214c0 91 25 162 74 214c47 51 111 76 190 76
c122 0 202 -55 239 -166l-92 -25c-28 65 -76 98 -145 98c-51 0 -91 -17 -120 -50c-29 -35 -44 -83 -44 -144c0 -65 16 -115 47 -151c30 -35 72 -52 127 -52c72 0 122 23 150 69v63h-140v89h230v-302z" />
    <glyph glyph-name="gcircumflex" unicode="&#x11d;" horiz-adv-x="598" 
d="M435 666l-49 -57l-96 80l-96 -80l-49 57l145 121zM548 0h-90l1 64h-2c-39 -49 -96 -74 -170 -74c-75 0 -135 26 -182 77c-49 53 -73 125 -73 214c0 91 25 162 74 214c47 51 111 76 190 76c122 0 202 -55 239 -166l-92 -25c-28 65 -76 98 -145 98c-51 0 -91 -17 -120 -50
c-29 -35 -44 -83 -44 -144c0 -65 16 -115 47 -151c30 -35 72 -52 127 -52c72 0 122 23 150 69v63h-140v89h230v-302z" />
    <glyph glyph-name="uni0123" unicode="&#x123;" horiz-adv-x="598" 
d="M548 0h-90l1 64h-2c-39 -49 -96 -74 -170 -74c-75 0 -135 26 -182 77c-49 53 -73 125 -73 214c0 91 25 162 74 214c47 51 111 76 190 76c122 0 202 -55 239 -166l-92 -25c-28 65 -76 98 -145 98c-51 0 -91 -17 -120 -50c-29 -35 -44 -83 -44 -144c0 -65 16 -115 47 -151
c30 -35 72 -52 127 -52c72 0 122 23 150 69v63h-140v89h230v-302zM298 -115c-13 -1 -24 2 -33 10c-8 7 -12 17 -12 30c0 31 19 47 56 47c39 0 59 -20 59 -60c0 -54 -29 -91 -87 -111l-33 38c27 9 43 24 50 46z" />
    <glyph glyph-name="gdotaccent" unicode="&#x121;" horiz-adv-x="598" 
d="M292 632c-15 0 -28 5 -38 15c-10 11 -15 24 -15 39s5 28 15 39c11 11 23 16 38 16s27 -5 37 -16s15 -24 15 -39s-5 -28 -15 -39c-10 -10 -22 -15 -37 -15zM548 0h-90l1 64h-2c-39 -49 -96 -74 -170 -74c-75 0 -135 26 -182 77c-49 53 -73 125 -73 214c0 91 25 162 74 214
c47 51 111 76 190 76c122 0 202 -55 239 -166l-92 -25c-28 65 -76 98 -145 98c-51 0 -91 -17 -120 -50c-29 -35 -44 -83 -44 -144c0 -65 16 -115 47 -151c30 -35 72 -52 127 -52c72 0 122 23 150 69v63h-140v89h230v-302z" />
    <glyph glyph-name="h" unicode="h" horiz-adv-x="561" 
d="M497 0h-100v238h-234v-238h-100v560h100v-228h234v228h100v-560z" />
    <glyph glyph-name="hbar" unicode="&#x127;" horiz-adv-x="583" 
d="M563 398h-54v-398h-101v240h-233v-240h-101v398h-54v79h54v83h101v-83h233v83h101v-83h54v-79zM408 398h-233v-67h233v67z" />
    <glyph glyph-name="hcircumflex" unicode="&#x125;" horiz-adv-x="561" 
d="M424 666l-50 -57l-95 80l-96 -80l-49 57l145 121zM497 0h-100v238h-234v-238h-100v560h100v-228h234v228h100v-560z" />
    <glyph glyph-name="i" unicode="i" horiz-adv-x="227" 
d="M63 0v560h100v-560h-100z" />
    <glyph glyph-name="i.ss03" horiz-adv-x="407" 
d="M254 93h98v-93h-297v93h98v374h-98v93h297v-93h-98v-374z" />
    <glyph glyph-name="dotlessi" unicode="&#x131;" horiz-adv-x="227" 
d="M63 0v560h100v-560h-100z" />
    <glyph glyph-name="dotlessi.ss03" horiz-adv-x="407" 
d="M254 93h98v-93h-297v93h98v374h-98v93h297v-93h-98v-374z" />
    <glyph glyph-name="iacute" unicode="&#xed;" horiz-adv-x="227" 
d="M152 614h-95l98 166l86 -25zM63 0v560h100v-560h-100z" />
    <glyph glyph-name="iacute.ss03" horiz-adv-x="407" 
d="M239 614h-95l98 166l85 -25zM254 93h98v-93h-297v93h98v374h-98v93h297v-93h-98v-374z" />
    <glyph glyph-name="iacute_j.loclNLD" horiz-adv-x="635" 
d="M152 614h-95l98 166l86 -25zM566 614h-95l98 166l86 -25zM63 560h100v-560h-100v560zM578 560v-343c0 -152 -66 -228 -199 -228c-63 0 -112 21 -145 62l60 69c21 -25 49 -38 84 -38c37 0 64 12 79 36c14 21 21 56 21 103v339h100z" />
    <glyph glyph-name="icircumflex" unicode="&#xee;" horiz-adv-x="227" 
d="M231 670l-51 -54l-66 68l-65 -68l-52 54l117 117zM63 0v560h100v-560h-100z" />
    <glyph glyph-name="icircumflex.ss03" horiz-adv-x="407" 
d="M344 666l-50 -57l-95 80l-96 -80l-50 57l146 121zM254 93h98v-93h-297v93h98v374h-98v93h297v-93h-98v-374z" />
    <glyph glyph-name="idieresis" unicode="&#xef;" horiz-adv-x="227" 
d="M50 632c-15 0 -27 5 -36 15c-9 11 -14 24 -14 39s5 28 14 39c10 11 22 16 37 16s27 -5 36 -16c9 -10 14 -23 14 -39c0 -15 -5 -28 -14 -39c-10 -10 -22 -15 -37 -15zM178 632c-15 0 -27 5 -37 15c-9 11 -14 24 -14 39s5 28 14 39c10 11 22 16 37 16s27 -5 37 -16
c9 -11 14 -24 14 -39s-5 -28 -14 -39c-10 -10 -22 -15 -37 -15zM63 0v560h100v-560h-100z" />
    <glyph glyph-name="idieresis.ss03" horiz-adv-x="407" 
d="M109 632c-15 0 -27 5 -37 15c-10 11 -15 24 -15 39s5 28 15 39c11 11 23 16 38 16s27 -5 37 -16s15 -24 15 -39s-5 -28 -15 -39c-10 -10 -23 -15 -38 -15zM292 632c-15 0 -27 5 -37 15c-10 11 -15 24 -15 39s5 28 15 39s22 16 37 16s27 -5 38 -16c10 -11 15 -24 15 -39
s-5 -28 -15 -39c-10 -10 -23 -15 -38 -15zM254 93h98v-93h-297v93h98v374h-98v93h297v-93h-98v-374z" />
    <glyph glyph-name="i.loclTRK" horiz-adv-x="227" 
d="M114 632c-15 0 -28 5 -38 15c-10 11 -15 24 -15 39s5 28 15 39c11 11 23 16 38 16s27 -5 37 -16s15 -24 15 -39s-5 -28 -15 -39c-10 -10 -22 -15 -37 -15zM63 0v560h100v-560h-100z" />
    <glyph glyph-name="i.loclTRK.ss03" horiz-adv-x="407" 
d="M200 632c-15 0 -27 5 -37 15c-10 11 -15 24 -15 39s5 28 15 39s22 16 37 16s27 -5 38 -16c10 -11 15 -24 15 -39s-5 -28 -15 -39c-10 -10 -23 -15 -38 -15zM254 93h98v-93h-297v93h98v374h-98v93h297v-93h-98v-374z" />
    <glyph glyph-name="igrave" unicode="&#xec;" horiz-adv-x="227" 
d="M71 780l97 -166h-95l-88 141zM63 0v560h100v-560h-100z" />
    <glyph glyph-name="igrave.ss03" horiz-adv-x="407" 
d="M157 780l98 -166h-95l-88 141zM254 93h98v-93h-297v93h98v374h-98v93h297v-93h-98v-374z" />
    <glyph glyph-name="ij" unicode="&#x133;" horiz-adv-x="635" 
d="M63 0v560h100v-560h-100zM578 560v-343c0 -152 -66 -228 -199 -228c-63 0 -112 21 -145 62l60 69c21 -25 49 -38 84 -38c37 0 64 12 79 36c14 21 21 56 21 103v339h100z" />
    <glyph glyph-name="ij.ss03" horiz-adv-x="807" 
d="M254 93h98v-93h-297v93h98v374h-98v93h297v-93h-98v-374zM750 560v-343c0 -152 -66 -228 -198 -228c-63 0 -112 21 -145 62l60 69c21 -25 49 -38 84 -38c37 0 63 12 78 36c14 21 21 56 21 103v339h100z" />
    <glyph glyph-name="ij.ss03.ss04" horiz-adv-x="811" 
d="M55 560h297v-93h-98v-374h98v-93h-297v93h98v374h-98v93zM754 560v-343c0 -152 -66 -228 -198 -228c-63 0 -112 20 -145 61l60 70c21 -25 49 -38 84 -38c37 0 63 12 78 36c14 21 21 56 21 103v245h-188v94h288z" />
    <glyph glyph-name="ij.ss04" horiz-adv-x="631" 
d="M63 560h100v-560h-100v560zM574 560v-343c0 -152 -66 -228 -199 -228c-63 0 -112 20 -145 61l60 70c22 -25 50 -38 84 -38c37 0 64 12 79 36c14 21 21 56 21 103v245h-189v94h289z" />
    <glyph glyph-name="imacron" unicode="&#x12b;" horiz-adv-x="227" 
d="M222 631h-216v89h216v-89zM63 0v560h100v-560h-100z" />
    <glyph glyph-name="imacron.ss03" horiz-adv-x="423" 
d="M360 631h-297v90h297v-90zM262 93h98v-93h-297v93h99v374h-99v93h297v-93h-98v-374z" />
    <glyph glyph-name="iogonek" unicode="&#x12f;" horiz-adv-x="227" 
d="M128 -96c23 0 44 6 63 17v-78c-18 -11 -44 -17 -77 -17c-34 0 -62 10 -83 30c-22 20 -33 47 -33 80c0 52 22 90 65 113v511h100v-560h-8c-49 -3 -74 -21 -74 -53c0 -29 16 -43 47 -43z" />
    <glyph glyph-name="iogonek.ss03" horiz-adv-x="407" 
d="M284 -94c28 0 51 6 69 17v-80c-19 -11 -46 -17 -81 -17c-37 0 -68 10 -91 30c-24 20 -36 46 -36 78c0 24 7 46 21 66h-111v93h98v374h-98v93h297v-93h-98v-374h98v-93h-37c-55 -3 -83 -20 -83 -51c0 -29 17 -43 52 -43z" />
    <glyph glyph-name="j" unicode="j" horiz-adv-x="404" 
d="M347 560v-343c0 -152 -66 -228 -198 -228c-65 0 -113 21 -145 62l60 69c21 -25 49 -38 84 -38c37 0 63 12 78 36c14 21 21 56 21 103v339h100z" />
    <glyph glyph-name="j.ss04" horiz-adv-x="404" 
d="M347 560v-343c0 -152 -66 -228 -198 -228c-65 0 -113 20 -145 61l60 70c21 -25 49 -38 84 -38c37 0 63 12 78 36c14 21 21 56 21 103v245h-188v94h288z" />
    <glyph glyph-name="uni0237" unicode="&#x237;" horiz-adv-x="404" 
d="M347 560v-343c0 -152 -66 -228 -198 -228c-65 0 -113 21 -145 62l60 69c21 -25 49 -38 84 -38c37 0 63 12 78 36c14 21 21 56 21 103v339h100z" />
    <glyph glyph-name="dotlessj.ss04" horiz-adv-x="404" 
d="M347 560v-343c0 -152 -66 -228 -198 -228c-65 0 -113 20 -145 61l60 70c21 -25 49 -38 84 -38c37 0 63 12 78 36c14 21 21 56 21 103v245h-188v94h288z" />
    <glyph glyph-name="jcircumflex" unicode="&#x135;" horiz-adv-x="404" 
d="M441 666l-50 -57l-95 80l-96 -80l-50 57l146 121zM347 560v-343c0 -152 -66 -228 -198 -228c-65 0 -113 21 -145 62l60 69c21 -25 49 -38 84 -38c37 0 63 12 78 36c14 21 21 56 21 103v339h100z" />
    <glyph glyph-name="jcircumflex.ss04" horiz-adv-x="404" 
d="M103 609l-50 57l146 121l145 -121l-50 -57l-95 80zM347 560v-343c0 -152 -66 -228 -198 -228c-65 0 -113 20 -145 61l60 70c21 -25 49 -38 84 -38c37 0 63 12 78 36c14 21 21 56 21 103v245h-188v94h288z" />
    <glyph glyph-name="k" unicode="k" horiz-adv-x="538" 
d="M251 265l-88 -104v-161h-100v560h100v-273h3l60 75l165 198h120l-188 -223l199 -337h-114z" />
    <glyph glyph-name="uni0137" unicode="&#x137;" horiz-adv-x="538" 
d="M522 0h-114l-157 265l-88 -104v-161h-100v560h100v-273h3l60 75l165 198h120l-188 -223zM278 -28c40 0 60 -20 60 -60c0 -55 -29 -92 -88 -111l-33 38c27 9 44 24 51 46c-13 -1 -24 2 -33 10c-9 7 -13 17 -13 30c0 31 19 47 56 47z" />
    <glyph glyph-name="l" unicode="l" horiz-adv-x="441" 
d="M63 0v560h100v-466h247v-94h-347z" />
    <glyph glyph-name="lacute" unicode="&#x13a;" horiz-adv-x="441" 
d="M168 614h-95l98 166l85 -25zM63 0v560h100v-466h247v-94h-347z" />
    <glyph glyph-name="lcaron" unicode="&#x13e;" horiz-adv-x="441" 
d="M63 0v560h100v-466h247v-94h-347zM276 560h85c2 -71 -12 -137 -41 -196h-77c22 53 33 119 33 196z" />
    <glyph glyph-name="uni013C" unicode="&#x13c;" horiz-adv-x="441" 
d="M63 0v560h100v-466h247v-94h-347zM224 -115c-13 -1 -24 2 -33 10c-8 7 -12 17 -12 30c0 31 19 47 56 47c39 0 59 -20 59 -60c0 -54 -29 -91 -87 -111l-33 38c27 9 43 24 50 46z" />
    <glyph glyph-name="ldot" unicode="&#x140;" horiz-adv-x="441" 
d="M63 0v560h100v-466h247v-94h-347zM332 240c-39 0 -59 20 -59 60c0 39 20 59 59 59s58 -20 58 -59c0 -40 -19 -60 -58 -60z" />
    <glyph glyph-name="lslash" unicode="&#x142;" horiz-adv-x="441" 
d="M410 94v-94h-347v560h100v-246l172 86v-98l-172 -86v-122h247z" />
    <glyph glyph-name="m" unicode="m" horiz-adv-x="647" 
d="M484 0l1 412h-3l-127 -277h-67l-127 282h-3l1 -57v-360h-96v560h124l90 -189c34 -71 50 -106 49 -106h3c-1 0 16 36 51 107l89 188h115v-560h-100z" />
    <glyph glyph-name="n" unicode="n" horiz-adv-x="580" 
d="M517 0h-105l-249 399h-3l1 -40v-359h-98v560h105l249 -391h2l-1 391h99v-560z" />
    <glyph glyph-name="n.ss02" horiz-adv-x="580" 
d="M517 0h-101v206l-251 229h-3c1 1 1 -47 1 -143v-292h-100v560h105l246 -222h2v222h101v-560z" />
    <glyph glyph-name="nacute" unicode="&#x144;" horiz-adv-x="580" 
d="M326 614h-95l98 166l86 -25zM517 0h-105l-249 399h-3l1 -40v-359h-98v560h105l249 -391h2l-1 391h99v-560z" />
    <glyph glyph-name="nacute.loclPLK" horiz-adv-x="580" 
d="M326 614h-86l55 179l85 -16zM517 0h-105l-249 399h-3l1 -40v-359h-98v560h105l249 -391h2l-1 391h99v-560z" />
    <glyph glyph-name="nacute.loclPLK.ss02" horiz-adv-x="580" 
d="M326 614h-86l55 179l84 -16zM517 0h-101v206l-251 229h-3c1 1 1 -47 1 -143v-292h-100v560h105l246 -222h2v222h101v-560z" />
    <glyph glyph-name="nacute.ss02" horiz-adv-x="580" 
d="M326 614h-95l97 166l86 -25zM517 0h-101v206l-251 229h-3c1 1 1 -47 1 -143v-292h-100v560h105l246 -222h2v222h101v-560z" />
    <glyph glyph-name="ncaron" unicode="&#x148;" horiz-adv-x="580" 
d="M143 727l49 56l97 -78l96 78l49 -56l-145 -118zM517 0h-105l-249 399h-3l1 -40v-359h-98v560h105l249 -391h2l-1 391h99v-560z" />
    <glyph glyph-name="ncaron.ss02" horiz-adv-x="580" 
d="M143 727l49 56l96 -78l97 78l49 -56l-146 -118zM517 0h-101v206l-251 229h-3c1 1 1 -47 1 -143v-292h-100v560h105l246 -222h2v222h101v-560z" />
    <glyph glyph-name="uni0146" unicode="&#x146;" horiz-adv-x="580" 
d="M517 0h-105l-249 399h-3l1 -40v-359h-98v560h105l249 -391h2l-1 391h99v-560zM275 -115c-13 -1 -24 2 -33 10c-9 7 -13 17 -13 30c0 31 19 47 56 47c40 0 60 -20 60 -60c0 -55 -29 -92 -88 -111l-33 38c27 9 44 24 51 46z" />
    <glyph glyph-name="ncommaaccent.ss02" horiz-adv-x="580" 
d="M517 0h-101v206l-251 229h-3c1 1 1 -47 1 -143v-292h-100v560h105l246 -222h2v222h101v-560zM280 -115c-13 -1 -24 2 -33 10c-8 7 -12 17 -12 30c0 31 19 47 56 47c39 0 59 -20 59 -60c0 -54 -29 -91 -87 -111l-34 38c27 9 44 24 51 46z" />
    <glyph glyph-name="eng" unicode="&#x14b;" horiz-adv-x="580" 
d="M517 560v-560c-1 -107 -52 -161 -155 -161h-37v81h34c41 0 59 27 53 80l-249 399h-3l1 -40v-359h-98v560h105l249 -391h2l-1 391h99z" />
    <glyph glyph-name="eng.ss02" horiz-adv-x="580" 
d="M517 560v-560c0 -59 -13 -101 -39 -126c-24 -23 -61 -35 -112 -35h-30v77h19c41 0 61 28 61 84v206l-251 229h-3c1 1 1 -47 1 -143v-292h-100v560h105l246 -222h2v222h101z" />
    <glyph glyph-name="ntilde" unicode="&#xf1;" horiz-adv-x="580" 
d="M407 743l19 -78c-13 -20 -36 -30 -71 -30c-17 0 -39 5 -65 15s-47 15 -63 15c-27 0 -47 -9 -62 -26l-20 78c15 21 39 31 72 31c17 0 38 -5 64 -15s47 -15 63 -15c24 0 45 8 63 25zM517 0h-105l-249 399h-3l1 -40v-359h-98v560h105l249 -391h2l-1 391h99v-560z" />
    <glyph glyph-name="ntilde.ss02" horiz-adv-x="580" 
d="M406 743l19 -78c-11 -20 -34 -30 -71 -30c-17 0 -38 5 -64 15s-47 15 -63 15c-26 0 -47 -9 -63 -26l-19 78c13 21 37 31 71 31c17 0 38 -5 64 -15c27 -10 48 -15 64 -15c25 0 45 8 62 25zM517 0h-101v206l-251 229h-3c1 1 1 -47 1 -143v-292h-100v560h105l246 -222h2v222
h101v-560z" />
    <glyph glyph-name="o" unicode="o" horiz-adv-x="591" 
d="M32 280c0 91 25 162 74 215c48 51 111 76 190 76s142 -25 189 -76c49 -53 74 -124 74 -215c0 -90 -25 -161 -74 -214c-47 -51 -110 -77 -189 -77s-142 26 -190 77c-49 53 -74 124 -74 214zM134 280c0 -63 15 -112 45 -147c29 -34 68 -51 117 -51s88 17 117 51
c29 35 44 84 44 147s-15 112 -44 147c-29 34 -68 51 -117 51s-88 -17 -117 -51c-30 -35 -45 -84 -45 -147z" />
    <glyph glyph-name="oacute" unicode="&#xf3;" horiz-adv-x="591" 
d="M334 614h-95l98 166l86 -25zM32 280c0 91 25 162 74 215c48 51 111 76 190 76s142 -25 189 -76c49 -53 74 -124 74 -215c0 -90 -25 -161 -74 -214c-47 -51 -110 -77 -189 -77s-142 26 -190 77c-49 53 -74 124 -74 214zM134 280c0 -63 15 -112 45 -147
c29 -34 68 -51 117 -51s88 17 117 51c29 35 44 84 44 147s-15 112 -44 147c-29 34 -68 51 -117 51s-88 -17 -117 -51c-30 -35 -45 -84 -45 -147z" />
    <glyph glyph-name="oacute.loclPLK" horiz-adv-x="591" 
d="M334 614h-86l55 179l85 -16zM32 280c0 91 25 162 74 215c48 51 111 76 190 76s142 -25 189 -76c49 -53 74 -124 74 -215c0 -90 -25 -161 -74 -214c-47 -51 -110 -77 -189 -77s-142 26 -190 77c-49 53 -74 124 -74 214zM134 280c0 -63 15 -112 45 -147
c29 -34 68 -51 117 -51s88 17 117 51c29 35 44 84 44 147s-15 112 -44 147c-29 34 -68 51 -117 51s-88 -17 -117 -51c-30 -35 -45 -84 -45 -147z" />
    <glyph glyph-name="ocircumflex" unicode="&#xf4;" horiz-adv-x="591" 
d="M439 666l-50 -57l-95 80l-96 -80l-49 57l145 121zM32 280c0 91 25 162 74 215c48 51 111 76 190 76s142 -25 189 -76c49 -53 74 -124 74 -215c0 -90 -25 -161 -74 -214c-47 -51 -110 -77 -189 -77s-142 26 -190 77c-49 53 -74 124 -74 214zM134 280
c0 -63 15 -112 45 -147c29 -34 68 -51 117 -51s88 17 117 51c29 35 44 84 44 147s-15 112 -44 147c-29 34 -68 51 -117 51s-88 -17 -117 -51c-30 -35 -45 -84 -45 -147z" />
    <glyph glyph-name="odieresis" unicode="&#xf6;" horiz-adv-x="591" 
d="M204 632c-15 0 -27 5 -37 15c-10 11 -15 24 -15 39s5 28 15 39c11 11 23 16 38 16s27 -5 37 -16s15 -24 15 -39s-5 -28 -15 -39c-10 -10 -23 -15 -38 -15zM388 632c-15 0 -28 5 -38 15c-10 11 -15 24 -15 39s5 28 15 39s23 16 38 16s27 -5 37 -16s15 -24 15 -39
s-5 -28 -15 -39c-10 -10 -22 -15 -37 -15zM32 280c0 91 25 162 74 215c48 51 111 76 190 76s142 -25 189 -76c49 -53 74 -124 74 -215c0 -90 -25 -161 -74 -214c-47 -51 -110 -77 -189 -77s-142 26 -190 77c-49 53 -74 124 -74 214zM134 280c0 -63 15 -112 45 -147
c29 -34 68 -51 117 -51s88 17 117 51c29 35 44 84 44 147s-15 112 -44 147c-29 34 -68 51 -117 51s-88 -17 -117 -51c-30 -35 -45 -84 -45 -147z" />
    <glyph glyph-name="ograve" unicode="&#xf2;" horiz-adv-x="591" 
d="M252 780l98 -166h-95l-88 141zM32 280c0 91 25 162 74 215c48 51 111 76 190 76s142 -25 189 -76c49 -53 74 -124 74 -215c0 -90 -25 -161 -74 -214c-47 -51 -110 -77 -189 -77s-142 26 -190 77c-49 53 -74 124 -74 214zM134 280c0 -63 15 -112 45 -147
c29 -34 68 -51 117 -51s88 17 117 51c29 35 44 84 44 147s-15 112 -44 147c-29 34 -68 51 -117 51s-88 -17 -117 -51c-30 -35 -45 -84 -45 -147z" />
    <glyph glyph-name="ohungarumlaut" unicode="&#x151;" horiz-adv-x="591" 
d="M242 614h-95l98 166l85 -25zM420 614h-95l98 166l85 -25zM32 280c0 91 25 162 74 215c48 51 111 76 190 76s142 -25 189 -76c49 -53 74 -124 74 -215c0 -90 -25 -161 -74 -214c-47 -51 -110 -77 -189 -77s-142 26 -190 77c-49 53 -74 124 -74 214zM134 280
c0 -63 15 -112 45 -147c29 -34 68 -51 117 -51s88 17 117 51c29 35 44 84 44 147s-15 112 -44 147c-29 34 -68 51 -117 51s-88 -17 -117 -51c-30 -35 -45 -84 -45 -147z" />
    <glyph glyph-name="omacron" unicode="&#x14d;" horiz-adv-x="591" 
d="M438 631h-285v90h285v-90zM32 280c0 91 25 162 74 215c48 51 111 76 190 76s142 -25 189 -76c49 -53 74 -124 74 -215c0 -90 -25 -161 -74 -214c-47 -51 -110 -77 -189 -77s-142 26 -190 77c-49 53 -74 124 -74 214zM134 280c0 -63 15 -112 45 -147
c29 -34 68 -51 117 -51s88 17 117 51c29 35 44 84 44 147s-15 112 -44 147c-29 34 -68 51 -117 51s-88 -17 -117 -51c-30 -35 -45 -84 -45 -147z" />
    <glyph glyph-name="oslash" unicode="&#xf8;" horiz-adv-x="591" 
d="M539 567l-51 -76c47 -51 71 -122 71 -211c0 -90 -25 -161 -74 -214c-47 -51 -110 -77 -189 -77c-47 0 -88 9 -124 27l-46 -69l-75 50l50 75c-46 51 -69 121 -69 208c0 91 25 162 74 215c48 51 111 76 190 76c44 0 84 -9 120 -26l48 71zM134 280c0 -49 9 -89 26 -120
l203 304c-21 9 -43 14 -67 14c-49 0 -88 -17 -117 -51c-30 -35 -45 -84 -45 -147zM296 82c49 0 88 17 117 51c29 35 44 84 44 147c0 49 -9 90 -28 123l-204 -307c22 -9 46 -14 71 -14z" />
    <glyph glyph-name="otilde" unicode="&#xf5;" horiz-adv-x="591" 
d="M414 743l19 -78c-12 -20 -35 -30 -70 -30c-17 0 -39 5 -65 15s-47 15 -63 15c-27 0 -47 -9 -62 -26l-20 78c15 21 39 31 71 31c17 0 38 -5 64 -15c27 -10 48 -15 64 -15c25 0 45 8 62 25zM32 280c0 91 25 162 74 215c48 51 111 76 190 76s142 -25 189 -76
c49 -53 74 -124 74 -215c0 -90 -25 -161 -74 -214c-47 -51 -110 -77 -189 -77s-142 26 -190 77c-49 53 -74 124 -74 214zM134 280c0 -63 15 -112 45 -147c29 -34 68 -51 117 -51s88 17 117 51c29 35 44 84 44 147s-15 112 -44 147c-29 34 -68 51 -117 51s-88 -17 -117 -51
c-30 -35 -45 -84 -45 -147z" />
    <glyph glyph-name="oe" unicode="&#x153;" horiz-adv-x="763" 
d="M719 0h-365c-18 -2 -37 -3 -58 -3c-79 0 -143 25 -190 74c-49 51 -74 120 -74 209s25 159 74 210c47 49 110 73 190 73c25 0 45 -1 60 -3h358v-94h-271v-134h203v-90h-203v-148h276v-94zM134 280c0 -62 14 -110 43 -143s69 -49 121 -49c17 0 33 2 50 5v374
c-17 3 -33 5 -50 5c-52 0 -92 -17 -121 -50s-43 -81 -43 -142z" />
    <glyph glyph-name="p" unicode="p" horiz-adv-x="472" 
d="M63 560h179c65 0 116 -16 153 -49c36 -32 54 -77 54 -134s-18 -101 -54 -133c-37 -32 -88 -48 -153 -48h-79v-196h-100v560zM163 280h81c70 0 105 32 105 95s-35 95 -105 95h-81v-190z" />
    <glyph glyph-name="thorn" unicode="&#xfe;" horiz-adv-x="453" 
d="M163 450h62c137 0 205 -57 205 -171c0 -110 -68 -165 -204 -165h-63v-114h-100v560h100v-110zM163 196h64c69 0 103 27 103 82c0 54 -34 81 -103 81h-64v-163z" />
    <glyph glyph-name="q" unicode="q" horiz-adv-x="590" 
d="M559 280c0 -80 -20 -146 -59 -197c-38 -50 -90 -80 -155 -90v-109h-100v109c-65 11 -116 41 -154 91c-39 51 -59 117 -59 196c0 91 25 162 74 215c48 51 111 76 190 76s142 -25 189 -76c49 -53 74 -124 74 -215zM296 82c49 0 88 17 117 51c29 35 44 84 44 147
s-15 112 -44 147c-29 34 -68 51 -117 51s-88 -17 -117 -51c-30 -35 -45 -84 -45 -147s15 -112 45 -147c29 -34 68 -51 117 -51z" />
    <glyph glyph-name="q.ss01" horiz-adv-x="614" 
d="M582 0h-289c-77 0 -139 25 -186 75c-50 52 -75 122 -75 211s25 160 75 211c47 49 110 73 188 73c77 0 140 -24 188 -72c49 -51 74 -120 74 -207c0 -97 -33 -163 -99 -199l2 -2l24 2c19 1 37 2 55 2h43v-94zM134 285c0 -61 15 -108 45 -142c29 -33 68 -50 117 -50
s88 17 117 51s44 81 44 141c0 61 -15 108 -45 143c-29 33 -67 49 -116 49s-88 -17 -117 -50c-30 -34 -45 -81 -45 -142z" />
    <glyph glyph-name="r" unicode="r" horiz-adv-x="501" 
d="M365 0l-110 210c-11 -1 -27 -1 -50 -1h-42v-209h-100v560h184c66 0 117 -16 154 -47c36 -31 54 -74 54 -129c0 -81 -36 -132 -107 -153l124 -231h-107zM163 288h86c69 0 104 30 104 90s-35 90 -105 90h-85v-180z" />
    <glyph glyph-name="racute" unicode="&#x155;" horiz-adv-x="501" 
d="M278 614h-95l98 166l86 -25zM365 0l-110 210c-11 -1 -27 -1 -50 -1h-42v-209h-100v560h184c66 0 117 -16 154 -47c36 -31 54 -74 54 -129c0 -81 -36 -132 -107 -153l124 -231h-107zM163 288h86c69 0 104 30 104 90s-35 90 -105 90h-85v-180z" />
    <glyph glyph-name="rcaron" unicode="&#x159;" horiz-adv-x="501" 
d="M95 727l49 56l97 -78l96 78l49 -56l-145 -118zM365 0l-110 210c-11 -1 -27 -1 -50 -1h-42v-209h-100v560h184c66 0 117 -16 154 -47c36 -31 54 -74 54 -129c0 -81 -36 -132 -107 -153l124 -231h-107zM163 288h86c69 0 104 30 104 90s-35 90 -105 90h-85v-180z" />
    <glyph glyph-name="uni0157" unicode="&#x157;" horiz-adv-x="501" 
d="M365 0l-110 210c-11 -1 -27 -1 -50 -1h-42v-209h-100v560h184c66 0 117 -16 154 -47c36 -31 54 -74 54 -129c0 -81 -36 -132 -107 -153l124 -231h-107zM163 288h86c69 0 104 30 104 90s-35 90 -105 90h-85v-180zM251 -115c-13 -1 -24 2 -33 10c-9 7 -13 17 -13 30
c0 31 19 47 56 47c40 0 60 -20 60 -60c0 -54 -29 -91 -88 -111l-33 38c27 9 44 24 51 46z" />
    <glyph glyph-name="s" unicode="s" horiz-adv-x="467" 
d="M29 137l91 25c7 -61 47 -91 120 -91c65 0 97 26 97 78c0 31 -14 54 -43 69c-12 6 -48 18 -108 35c-97 29 -146 82 -146 161c0 51 17 90 51 117c33 27 80 40 140 40c115 0 183 -46 202 -139l-88 -23c-11 53 -48 79 -109 79c-63 0 -94 -24 -94 -71c0 -26 12 -46 35 -60
c15 -9 47 -20 96 -33c49 -14 85 -30 108 -49c38 -30 57 -71 57 -124c0 -54 -18 -95 -55 -123c-35 -26 -82 -39 -143 -39c-125 0 -195 49 -211 148z" />
    <glyph glyph-name="sacute" unicode="&#x15b;" horiz-adv-x="467" 
d="M273 614h-95l97 166l86 -25zM29 137l91 25c7 -61 47 -91 120 -91c65 0 97 26 97 78c0 31 -14 54 -43 69c-12 6 -48 18 -108 35c-97 29 -146 82 -146 161c0 51 17 90 51 117c33 27 80 40 140 40c115 0 183 -46 202 -139l-88 -23c-11 53 -48 79 -109 79
c-63 0 -94 -24 -94 -71c0 -26 12 -46 35 -60c15 -9 47 -20 96 -33c49 -14 85 -30 108 -49c38 -30 57 -71 57 -124c0 -54 -18 -95 -55 -123c-35 -26 -82 -39 -143 -39c-125 0 -195 49 -211 148z" />
    <glyph glyph-name="sacute.loclPLK" horiz-adv-x="467" 
d="M273 614h-87l55 179l85 -16zM29 137l91 25c7 -61 47 -91 120 -91c65 0 97 26 97 78c0 31 -14 54 -43 69c-12 6 -48 18 -108 35c-97 29 -146 82 -146 161c0 51 17 90 51 117c33 27 80 40 140 40c115 0 183 -46 202 -139l-88 -23c-11 53 -48 79 -109 79
c-63 0 -94 -24 -94 -71c0 -26 12 -46 35 -60c15 -9 47 -20 96 -33c49 -14 85 -30 108 -49c38 -30 57 -71 57 -124c0 -54 -18 -95 -55 -123c-35 -26 -82 -39 -143 -39c-125 0 -195 49 -211 148z" />
    <glyph glyph-name="scaron" unicode="&#x161;" horiz-adv-x="467" 
d="M90 727l49 56l96 -78l96 78l49 -56l-145 -118zM29 137l91 25c7 -61 47 -91 120 -91c65 0 97 26 97 78c0 31 -14 54 -43 69c-12 6 -48 18 -108 35c-97 29 -146 82 -146 161c0 51 17 90 51 117c33 27 80 40 140 40c115 0 183 -46 202 -139l-88 -23c-11 53 -48 79 -109 79
c-63 0 -94 -24 -94 -71c0 -26 12 -46 35 -60c15 -9 47 -20 96 -33c49 -14 85 -30 108 -49c38 -30 57 -71 57 -124c0 -54 -18 -95 -55 -123c-35 -26 -82 -39 -143 -39c-125 0 -195 49 -211 148z" />
    <glyph glyph-name="scedilla" unicode="&#x15f;" horiz-adv-x="467" 
d="M438 151c0 -85 -44 -137 -131 -156c38 -15 57 -41 57 -79c0 -60 -40 -90 -121 -90c-36 0 -63 5 -80 14v69c14 -8 35 -12 62 -12c41 0 61 11 61 34c0 26 -34 39 -102 39v23c-91 15 -142 63 -155 144l91 25c7 -61 47 -91 120 -91c65 0 97 26 97 78c0 31 -14 54 -43 69
c-12 6 -48 18 -108 35c-97 29 -146 82 -146 161c0 51 17 90 51 117c33 27 80 40 140 40c115 0 183 -46 202 -139l-88 -23c-11 53 -48 79 -109 79c-63 0 -94 -24 -94 -71c0 -26 12 -46 35 -60c15 -9 47 -20 96 -33c49 -14 85 -30 108 -49c38 -30 57 -71 57 -124z" />
    <glyph glyph-name="scircumflex" unicode="&#x15d;" horiz-adv-x="467" 
d="M377 666l-49 -57l-96 80l-95 -80l-50 57l145 121zM29 137l91 25c7 -61 47 -91 120 -91c65 0 97 26 97 78c0 31 -14 54 -43 69c-12 6 -48 18 -108 35c-97 29 -146 82 -146 161c0 51 17 90 51 117c33 27 80 40 140 40c115 0 183 -46 202 -139l-88 -23
c-11 53 -48 79 -109 79c-63 0 -94 -24 -94 -71c0 -26 12 -46 35 -60c15 -9 47 -20 96 -33c49 -14 85 -30 108 -49c38 -30 57 -71 57 -124c0 -54 -18 -95 -55 -123c-35 -26 -82 -39 -143 -39c-125 0 -195 49 -211 148z" />
    <glyph glyph-name="uni0219" unicode="&#x219;" horiz-adv-x="467" 
d="M29 137l91 25c7 -61 47 -91 120 -91c65 0 97 26 97 78c0 31 -14 54 -43 69c-12 6 -48 18 -108 35c-97 29 -146 82 -146 161c0 51 17 90 51 117c33 27 80 40 140 40c115 0 183 -46 202 -139l-88 -23c-11 53 -48 79 -109 79c-63 0 -94 -24 -94 -71c0 -26 12 -46 35 -60
c15 -9 47 -20 96 -33c49 -14 85 -30 108 -49c38 -30 57 -71 57 -124c0 -54 -18 -95 -55 -123c-35 -26 -82 -39 -143 -39c-125 0 -195 49 -211 148zM226 -115c-13 -1 -24 2 -33 10c-9 7 -13 17 -13 30c0 31 19 47 56 47c40 0 60 -20 60 -60c0 -54 -29 -91 -88 -111l-33 38
c26 8 43 23 51 46z" />
    <glyph glyph-name="germandbls" unicode="&#xdf;" horiz-adv-x="544" 
d="M356 343h4c45 0 83 -16 113 -48c31 -33 46 -76 46 -130c0 -52 -15 -94 -44 -126c-32 -35 -75 -52 -129 -52c-58 0 -101 16 -128 48l42 71c20 -23 45 -34 75 -34c27 0 49 9 65 26c15 17 23 39 23 66c0 29 -8 51 -25 68s-41 26 -71 26h-74v87l62 119l-2 2h-150v-466h-100
v560h406l-114 -214z" />
    <glyph glyph-name="germandbls.calt" horiz-adv-x="625" 
d="M401 431h5c57 0 103 -20 139 -59c37 -40 55 -93 55 -158s-18 -119 -53 -160c-39 -45 -93 -67 -162 -67c-62 0 -113 19 -152 57l45 81c27 -27 59 -40 96 -40s67 11 89 34c21 23 31 53 31 90c0 39 -11 70 -33 93c-23 22 -54 33 -93 33h-83v93l86 171l-2 2h-200v-601h-106
v700h472l-136 -266z" />
    <glyph glyph-name="t" unicode="t" horiz-adv-x="499" 
d="M469 466h-170v-466h-100v466h-169v94h439v-94z" />
    <glyph glyph-name="tbar" unicode="&#x167;" horiz-adv-x="499" 
d="M299 466v-143h91v-90h-91v-233h-100v233h-90v90h90v143h-169v94h439v-94h-170z" />
    <glyph glyph-name="tcaron" unicode="&#x165;" horiz-adv-x="499" 
d="M102 727l49 56l96 -78l97 78l49 -56l-146 -118zM469 466h-170v-466h-100v466h-169v94h439v-94z" />
    <glyph glyph-name="uni0163" unicode="&#x163;" horiz-adv-x="499" 
d="M299 466v-464c53 -11 80 -40 80 -86c0 -60 -40 -90 -121 -90c-36 0 -62 5 -79 14v69c14 -8 35 -12 62 -12c40 0 60 11 60 34c0 26 -34 39 -102 39v496h-169v94h439v-94h-170z" />
    <glyph glyph-name="uni021B" unicode="&#x21b;" horiz-adv-x="499" 
d="M469 466h-170v-466h-100v466h-169v94h439v-94zM241 -115c-13 -1 -24 2 -33 10c-8 7 -12 17 -12 30c0 31 19 47 56 47c39 0 59 -20 59 -60c0 -54 -29 -91 -87 -111l-33 38c27 9 43 24 50 46z" />
    <glyph glyph-name="u" unicode="u" horiz-adv-x="556" 
d="M500 560v-333c0 -159 -74 -238 -222 -238c-149 0 -223 79 -223 238v333h102v-341c0 -91 41 -137 122 -137s122 46 122 137v341h99z" />
    <glyph glyph-name="uacute" unicode="&#xfa;" horiz-adv-x="556" 
d="M318 614h-95l98 166l86 -25zM500 560v-333c0 -159 -74 -238 -222 -238c-149 0 -223 79 -223 238v333h102v-341c0 -91 41 -137 122 -137s122 46 122 137v341h99z" />
    <glyph glyph-name="ubreve" unicode="&#x16d;" horiz-adv-x="556" 
d="M128 740h78c1 -45 26 -67 74 -67c49 0 74 22 75 67h77c-1 -41 -16 -74 -43 -99s-64 -38 -109 -38s-82 12 -109 37s-42 58 -43 100zM500 560v-333c0 -159 -74 -238 -222 -238c-149 0 -223 79 -223 238v333h102v-341c0 -91 41 -137 122 -137s122 46 122 137v341h99z" />
    <glyph glyph-name="ucircumflex" unicode="&#xfb;" horiz-adv-x="556" 
d="M423 666l-49 -57l-96 80l-96 -80l-49 57l145 121zM500 560v-333c0 -159 -74 -238 -222 -238c-149 0 -223 79 -223 238v333h102v-341c0 -91 41 -137 122 -137s122 46 122 137v341h99z" />
    <glyph glyph-name="udieresis" unicode="&#xfc;" horiz-adv-x="556" 
d="M189 632c-15 0 -28 5 -38 15c-10 11 -15 24 -15 39s5 28 15 39c11 11 23 16 38 16s27 -5 37 -16s15 -24 15 -39s-5 -28 -15 -39c-10 -10 -22 -15 -37 -15zM372 632c-15 0 -28 5 -38 15c-10 11 -15 24 -15 39s5 28 15 39s23 16 38 16s27 -5 37 -16s15 -24 15 -39
s-5 -28 -15 -39c-10 -10 -22 -15 -37 -15zM500 560v-333c0 -159 -74 -238 -222 -238c-149 0 -223 79 -223 238v333h102v-341c0 -91 41 -137 122 -137s122 46 122 137v341h99z" />
    <glyph glyph-name="ugrave" unicode="&#xf9;" horiz-adv-x="556" 
d="M237 780l97 -166h-95l-88 141zM500 560v-333c0 -159 -74 -238 -222 -238c-149 0 -223 79 -223 238v333h102v-341c0 -91 41 -137 122 -137s122 46 122 137v341h99z" />
    <glyph glyph-name="uhungarumlaut" unicode="&#x171;" horiz-adv-x="556" 
d="M226 614h-95l98 166l86 -25zM404 614h-95l98 166l86 -25zM500 560v-333c0 -159 -74 -238 -222 -238c-149 0 -223 79 -223 238v333h102v-341c0 -91 41 -137 122 -137s122 46 122 137v341h99z" />
    <glyph glyph-name="umacron" unicode="&#x16b;" horiz-adv-x="556" 
d="M423 631h-285v90h285v-90zM500 560v-333c0 -159 -74 -238 -222 -238c-149 0 -223 79 -223 238v333h102v-341c0 -91 41 -137 122 -137s122 46 122 137v341h99z" />
    <glyph glyph-name="uogonek" unicode="&#x173;" horiz-adv-x="552" 
d="M500 560v-333c0 -139 -58 -217 -173 -235c-29 -9 -43 -24 -43 -45c0 -27 19 -41 56 -41c31 0 56 6 75 17v-80c-21 -11 -49 -17 -86 -17c-39 0 -71 10 -96 30s-38 46 -38 78c0 22 6 42 19 61c-106 21 -159 98 -159 232v333h102v-341c0 -91 41 -137 122 -137
s122 46 122 137v341h99z" />
    <glyph glyph-name="uring" unicode="&#x16f;" horiz-adv-x="556" 
d="M280 597c-33 0 -59 9 -78 27c-20 18 -30 42 -30 73s10 56 30 74c19 18 45 27 78 27s59 -9 78 -27c20 -18 30 -43 30 -74s-10 -55 -30 -73c-19 -18 -45 -27 -78 -27zM280 655c28 0 42 14 42 42s-14 42 -42 42s-42 -14 -42 -42s14 -42 42 -42zM500 560v-333
c0 -159 -74 -238 -222 -238c-149 0 -223 79 -223 238v333h102v-341c0 -91 41 -137 122 -137s122 46 122 137v341h99z" />
    <glyph glyph-name="v" unicode="v" horiz-adv-x="556" 
d="M341 0h-126l-199 560h111l153 -456h3l15 49l137 407h104z" />
    <glyph glyph-name="w" unicode="w" horiz-adv-x="774" 
d="M488 0l-57 217c-30 113 -45 169 -44 168h-2c1 1 -13 -55 -44 -168l-57 -217h-112l-152 560h106l63 -242c35 -135 51 -201 48 -198h2c-3 -3 12 56 45 179l53 203h111l52 -203c31 -122 45 -182 42 -179h2c-4 -4 12 62 49 198l64 242h97l-152 -560h-114z" />
    <glyph glyph-name="wacute" unicode="&#x1e83;" horiz-adv-x="774" 
d="M431 614h-95l98 166l85 -25zM488 0l-57 217c-30 113 -45 169 -44 168h-2c1 1 -13 -55 -44 -168l-57 -217h-112l-152 560h106l63 -242c35 -135 51 -201 48 -198h2c-3 -3 12 56 45 179l53 203h111l52 -203c31 -122 45 -182 42 -179h2c-4 -4 12 62 49 198l64 242h97
l-152 -560h-114z" />
    <glyph glyph-name="wcircumflex" unicode="&#x175;" horiz-adv-x="774" 
d="M536 666l-50 -57l-95 80l-96 -80l-50 57l146 121zM488 0l-57 217c-30 113 -45 169 -44 168h-2c1 1 -13 -55 -44 -168l-57 -217h-112l-152 560h106l63 -242c35 -135 51 -201 48 -198h2c-3 -3 12 56 45 179l53 203h111l52 -203c31 -122 45 -182 42 -179h2
c-4 -4 12 62 49 198l64 242h97l-152 -560h-114z" />
    <glyph glyph-name="wdieresis" unicode="&#x1e85;" horiz-adv-x="774" 
d="M301 632c-15 0 -27 5 -37 15c-10 11 -15 24 -15 39s5 28 15 39c11 11 23 16 38 16s27 -5 37 -16s15 -24 15 -39s-5 -28 -15 -39c-10 -10 -23 -15 -38 -15zM484 632c-15 0 -27 5 -37 15c-10 11 -15 24 -15 39s5 28 15 39s22 16 37 16s27 -5 38 -16c10 -11 15 -24 15 -39
s-5 -28 -15 -39c-10 -10 -23 -15 -38 -15zM488 0l-57 217c-30 113 -45 169 -44 168h-2c1 1 -13 -55 -44 -168l-57 -217h-112l-152 560h106l63 -242c35 -135 51 -201 48 -198h2c-3 -3 12 56 45 179l53 203h111l52 -203c31 -122 45 -182 42 -179h2c-4 -4 12 62 49 198l64 242
h97l-152 -560h-114z" />
    <glyph glyph-name="wgrave" unicode="&#x1e81;" horiz-adv-x="774" 
d="M349 780l98 -166h-95l-89 141zM488 0l-57 217c-30 113 -45 169 -44 168h-2c1 1 -13 -55 -44 -168l-57 -217h-112l-152 560h106l63 -242c35 -135 51 -201 48 -198h2c-3 -3 12 56 45 179l53 203h111l52 -203c31 -122 45 -182 42 -179h2c-4 -4 12 62 49 198l64 242h97
l-152 -560h-114z" />
    <glyph glyph-name="x" unicode="x" horiz-adv-x="538" 
d="M401 0l-76 117c-43 66 -63 99 -62 99h-1c1 0 -19 -33 -60 -100l-72 -116h-111l182 288l-168 272h118l62 -103c41 -67 62 -101 61 -101h2l121 204h107l-170 -275l185 -285h-118z" />
    <glyph glyph-name="y" unicode="y" horiz-adv-x="515" 
d="M308 0h-101v214l-191 346h113l70 -128c46 -84 67 -124 62 -119h3c-2 -2 19 38 63 119l69 128h102l-190 -346v-214z" />
    <glyph glyph-name="y.ss05" horiz-adv-x="515" 
d="M341 275h93v-95h-126v-180h-101v180h-122v95h89l-158 285h113l70 -128c46 -84 67 -124 62 -119h3c-2 -2 19 38 63 119l69 128h102z" />
    <glyph glyph-name="yacute" unicode="&#xfd;" horiz-adv-x="515" 
d="M303 614h-95l98 166l86 -25zM308 0h-101v214l-191 346h113l70 -128c46 -84 67 -124 62 -119h3c-2 -2 19 38 63 119l69 128h102l-190 -346v-214z" />
    <glyph glyph-name="yacute.ss05" horiz-adv-x="515" 
d="M305 614h-95l98 166l85 -25zM341 275h93v-95h-126v-180h-101v180h-122v95h89l-158 285h113l70 -128c46 -84 67 -124 62 -119h3c-2 -2 19 38 63 119l69 128h102z" />
    <glyph glyph-name="ycircumflex" unicode="&#x177;" horiz-adv-x="515" 
d="M408 666l-49 -57l-96 80l-95 -80l-50 57l145 121zM308 0h-101v214l-191 346h113l70 -128c46 -84 67 -124 62 -119h3c-2 -2 19 38 63 119l69 128h102l-190 -346v-214z" />
    <glyph glyph-name="ycircumflex.ss05" horiz-adv-x="515" 
d="M169 609l-50 57l146 121l145 -121l-50 -57l-95 80zM341 275h93v-95h-126v-180h-101v180h-122v95h89l-158 285h113l70 -128c46 -84 67 -124 62 -119h3c-2 -2 19 38 63 119l69 128h102z" />
    <glyph glyph-name="ydieresis" unicode="&#xff;" horiz-adv-x="515" 
d="M174 632c-15 0 -28 5 -38 15c-10 11 -15 24 -15 39s5 28 15 39c11 11 23 16 38 16s27 -5 37 -16s15 -24 15 -39s-5 -28 -15 -39c-10 -10 -22 -15 -37 -15zM357 632c-15 0 -28 5 -38 15c-10 11 -15 24 -15 39s5 28 15 39c11 11 23 16 38 16s27 -5 37 -16s15 -24 15 -39
s-5 -28 -15 -39c-10 -10 -22 -15 -37 -15zM308 0h-101v214l-191 346h113l70 -128c46 -84 67 -124 62 -119h3c-2 -2 19 38 63 119l69 128h102l-190 -346v-214z" />
    <glyph glyph-name="ydieresis.ss05" horiz-adv-x="515" 
d="M175 632c-15 0 -27 5 -37 15c-10 11 -15 24 -15 39s5 28 15 39c11 11 23 16 38 16s27 -5 37 -16s15 -24 15 -39s-5 -28 -15 -39c-10 -10 -23 -15 -38 -15zM358 632c-15 0 -27 5 -37 15c-10 11 -15 24 -15 39s5 28 15 39s22 16 37 16s27 -5 38 -16c10 -11 15 -24 15 -39
s-5 -28 -15 -39c-10 -10 -23 -15 -38 -15zM341 275h93v-95h-126v-180h-101v180h-122v95h89l-158 285h113l70 -128c46 -84 67 -124 62 -119h3c-2 -2 19 38 63 119l69 128h102z" />
    <glyph glyph-name="ygrave" unicode="&#x1ef3;" horiz-adv-x="515" 
d="M222 780l97 -166h-95l-88 141zM308 0h-101v214l-191 346h113l70 -128c46 -84 67 -124 62 -119h3c-2 -2 19 38 63 119l69 128h102l-190 -346v-214z" />
    <glyph glyph-name="ygrave.ss05" horiz-adv-x="515" 
d="M226 614l-89 141l86 25l98 -166h-95zM341 275h93v-95h-126v-180h-101v180h-122v95h89l-158 285h113l70 -128c46 -84 67 -124 62 -119h3c-2 -2 19 38 63 119l69 128h102z" />
    <glyph glyph-name="z" unicode="z" horiz-adv-x="504" 
d="M467 460l-216 -260c-61 -73 -91 -108 -91 -104l2 -3c21 1 46 1 76 1h229v-94h-430v100l228 271c52 63 78 93 78 92l-1 3h-297v94h422v-100z" />
    <glyph glyph-name="zacute" unicode="&#x17a;" horiz-adv-x="504" 
d="M292 614h-95l97 166l86 -25zM467 460l-216 -260c-61 -73 -91 -108 -91 -104l2 -3c21 1 46 1 76 1h229v-94h-430v100l228 271c52 63 78 93 78 92l-1 3h-297v94h422v-100z" />
    <glyph glyph-name="zacute.loclPLK" horiz-adv-x="504" 
d="M292 614h-86l54 179l85 -16zM467 460l-216 -260c-61 -73 -91 -108 -91 -104l2 -3c21 1 46 1 76 1h229v-94h-430v100l228 271c52 63 78 93 78 92l-1 3h-297v94h422v-100z" />
    <glyph glyph-name="zcaron" unicode="&#x17e;" horiz-adv-x="504" 
d="M109 727l49 56l96 -78l96 78l49 -56l-145 -118zM467 460l-216 -260c-61 -73 -91 -108 -91 -104l2 -3c21 1 46 1 76 1h229v-94h-430v100l228 271c52 63 78 93 78 92l-1 3h-297v94h422v-100z" />
    <glyph glyph-name="zdotaccent" unicode="&#x17c;" horiz-adv-x="504" 
d="M253 632c-15 0 -28 5 -38 15c-10 11 -15 24 -15 39s5 28 15 39c11 11 23 16 38 16s27 -5 38 -16c10 -11 15 -24 15 -39s-5 -28 -15 -39c-10 -10 -23 -15 -38 -15zM467 460l-216 -260c-61 -73 -91 -108 -91 -104l2 -3c21 1 46 1 76 1h229v-94h-430v100l228 271
c52 63 78 93 78 92l-1 3h-297v94h422v-100z" />
    <glyph glyph-name="Iacute.ss03_J.loclNLD" horiz-adv-x="916" 
d="M266 754h-95l98 166l85 -25zM846 754h-95l98 166l86 -25zM280 98h120v-98h-345v98h119v504h-119v98h345v-98h-120v-504zM858 700v-435c0 -185 -77 -278 -230 -278c-73 0 -130 26 -170 78l66 77c26 -36 60 -54 103 -54c46 0 79 16 99 47c17 29 26 74 26 136v429h106z" />
    <glyph glyph-name="Iacute.ss03_J.ss04.loclNLD" horiz-adv-x="916" 
d="M266 754h-95l98 166l85 -25zM726 754h-95l98 166l85 -25zM55 700h345v-98h-120v-504h120v-98h-345v98h119v504h-119v98zM858 700v-435c0 -185 -77 -278 -230 -278c-73 0 -130 26 -170 78l66 77c26 -36 60 -54 103 -54c46 0 79 16 99 47c17 29 26 74 26 136v330h-241v99
h347z" />
    <glyph glyph-name="uni00CD004A.ss04.loclNLD" horiz-adv-x="693" 
d="M154 754h-95l98 166l85 -25zM503 754h-95l98 166l85 -25zM63 700h106v-700h-106v700zM636 700v-435c0 -185 -77 -278 -231 -278c-73 0 -129 26 -169 78l65 77c26 -36 60 -54 103 -54c46 0 79 16 99 47c18 29 27 74 27 136v330h-241v99h347z" />
    <glyph glyph-name="iacute.ss03_j.loclNLD" horiz-adv-x="807" 
d="M239 614h-95l98 166l85 -25zM739 614h-95l98 166l86 -25zM254 93h98v-93h-297v93h98v374h-98v93h297v-93h-98v-374zM750 560v-343c0 -152 -66 -228 -198 -228c-63 0 -112 21 -145 62l60 69c21 -25 49 -38 84 -38c37 0 63 12 78 36c14 21 21 56 21 103v339h100z" />
    <glyph glyph-name="iacute.ss03_j.ss04.loclNLD" horiz-adv-x="811" 
d="M239 614h-95l98 166l85 -25zM646 614h-95l98 166l85 -25zM55 560h297v-93h-98v-374h98v-93h-297v93h98v374h-98v93zM754 560v-343c0 -152 -66 -228 -198 -228c-63 0 -112 20 -145 61l60 70c21 -25 49 -38 84 -38c37 0 63 12 78 36c14 21 21 56 21 103v245h-188v94h288z
" />
    <glyph glyph-name="uni00ED006A.ss04.loclNLD" horiz-adv-x="631" 
d="M152 614h-95l98 166l86 -25zM466 614h-96l98 166l86 -25zM63 560h100v-560h-100v560zM574 560v-343c0 -152 -66 -228 -199 -228c-63 0 -112 20 -145 61l60 70c22 -25 50 -38 84 -38c37 0 64 12 79 36c14 21 21 56 21 103v245h-189v94h289z" />
    <glyph glyph-name="ordfeminine" unicode="&#xaa;" horiz-adv-x="377" 
d="M102 235h-67l111 325h86l109 -325h-69l-21 68h-128zM140 356h94l-20 62c-18 54 -27 81 -26 81h-2c1 0 -8 -27 -26 -81zM342 169v-69h-307v69h307z" />
    <glyph glyph-name="ordfeminine.case" horiz-adv-x="377" 
d="M102 375h-67l111 325h86l109 -325h-69l-21 68h-128zM140 496h94l-20 62c-18 54 -27 81 -26 81h-2c1 0 -8 -27 -26 -81zM342 309v-69h-307v69h307z" />
    <glyph glyph-name="ordmasculine" unicode="&#xba;" horiz-adv-x="385" 
d="M35 398c0 52 15 94 44 126c29 31 67 47 113 47s84 -16 113 -47c30 -32 45 -74 45 -126c0 -51 -15 -93 -45 -124c-29 -31 -67 -47 -113 -47s-84 16 -113 47s-44 73 -44 124zM102 398c0 -71 30 -107 90 -107c28 0 50 10 66 29s24 45 24 78c0 72 -30 108 -90 108
c-28 0 -50 -10 -66 -29s-24 -46 -24 -79zM340 99h-295v69h295v-69z" />
    <glyph glyph-name="ordmasculine.case" horiz-adv-x="385" 
d="M35 538c0 52 15 94 44 126c29 31 67 47 113 47s84 -16 113 -47c30 -32 45 -74 45 -126c0 -51 -15 -93 -45 -124c-29 -31 -67 -47 -113 -47s-84 16 -113 47s-44 73 -44 124zM102 538c0 -71 30 -107 90 -107c28 0 50 10 66 29s24 45 24 78c0 72 -30 108 -90 108
c-28 0 -50 -10 -66 -29s-24 -46 -24 -79zM340 239h-295v69h295v-69z" />
    <glyph glyph-name="zero" unicode="0" horiz-adv-x="487" 
d="M243 571c139 0 209 -97 209 -291s-70 -291 -209 -291s-208 97 -208 291s69 291 208 291zM243 478c-38 0 -66 -16 -83 -48s-25 -82 -25 -150c0 -69 8 -119 25 -150c17 -32 45 -48 83 -48s66 16 83 48c17 31 25 81 25 150c0 68 -8 118 -25 150s-45 48 -83 48z" />
    <glyph glyph-name="one" unicode="1" horiz-adv-x="338" 
d="M168 0v337c0 33 1 69 4 109h-3l-14 -16c-10 -12 -17 -20 -22 -24l-45 -44l-59 71l143 127h96v-560h-100z" />
    <glyph glyph-name="two" unicode="2" horiz-adv-x="462" 
d="M45 0v113l176 143c66 55 99 103 99 143c0 57 -31 85 -94 85c-57 0 -88 -28 -95 -84l-93 26c15 97 80 145 195 145c59 0 105 -15 138 -44s50 -71 50 -124c0 -67 -45 -135 -134 -204l-131 -106l1 -3l26 1h240v-91h-378z" />
    <glyph glyph-name="three" unicode="3" horiz-adv-x="465" 
d="M321 293v-4c30 -3 55 -15 75 -37c23 -25 34 -57 34 -98c0 -50 -17 -90 -51 -120c-35 -30 -82 -45 -141 -45c-56 0 -102 14 -137 41s-57 65 -66 114l89 25c10 -61 47 -92 110 -92c65 0 98 30 98 89c0 57 -34 86 -101 86h-50v75h47c65 0 97 27 97 81c0 52 -31 78 -92 78
c-59 0 -91 -28 -98 -84l-90 24c16 96 82 144 197 144c121 0 182 -48 182 -145c0 -40 -12 -72 -35 -96c-19 -21 -41 -33 -68 -36z" />
    <glyph glyph-name="four" unicode="4" horiz-adv-x="496" 
d="M383 0h-100v137h-251v91l199 332h152v-335h74v-88h-74v-137zM283 225l1 256h-4l-156 -254l2 -3z" />
    <glyph glyph-name="five" unicode="5" horiz-adv-x="469" 
d="M148 327l3 -2c22 25 56 38 103 38c55 0 99 -17 130 -52c31 -33 46 -78 46 -133c0 -57 -18 -103 -53 -138c-35 -34 -83 -51 -142 -51c-54 0 -98 14 -133 42c-34 26 -55 62 -64 107l87 23c11 -57 47 -86 106 -86c32 0 57 9 76 28c18 19 27 44 27 77s-9 59 -28 78
s-44 28 -77 28c-45 0 -76 -17 -94 -51l-83 22l50 303h296v-94h-226l-12 -73c-4 -28 -8 -50 -12 -66z" />
    <glyph glyph-name="six" unicode="6" horiz-adv-x="470" 
d="M168 325l3 -2c23 24 54 36 95 36c49 0 90 -16 122 -49c33 -33 49 -76 49 -128c0 -59 -19 -106 -56 -141s-86 -52 -147 -52c-60 0 -108 17 -144 50c-38 35 -57 85 -57 149c0 68 26 138 79 209l119 163h106zM236 76c69 0 105 36 106 108c0 33 -9 58 -28 77s-45 28 -78 28
c-70 0 -105 -35 -105 -106c0 -33 9 -60 28 -79s44 -28 77 -28z" />
    <glyph glyph-name="seven" unicode="7" horiz-adv-x="447" 
d="M426 480l-249 -480h-103l186 358c39 75 58 110 58 106l-2 2h-287v94h397v-80z" />
    <glyph glyph-name="eight" unicode="8" horiz-adv-x="474" 
d="M35 151c0 41 12 75 37 102c21 21 46 35 76 42v2c-20 5 -39 16 -56 35c-23 25 -34 55 -34 91c0 43 16 78 47 105c33 29 77 43 132 43s99 -14 132 -43c31 -28 47 -63 47 -105c0 -36 -11 -66 -34 -91c-17 -19 -36 -30 -56 -35v-2c29 -6 54 -20 75 -41c25 -27 38 -61 38 -103
c0 -48 -17 -87 -52 -116c-36 -31 -86 -47 -149 -47s-113 15 -149 46c-36 29 -54 68 -54 117zM145 417c0 -25 9 -45 26 -60c17 -14 39 -21 66 -21c28 0 50 8 67 23c16 15 24 34 24 58c0 53 -30 80 -91 80s-92 -27 -92 -80zM131 159c0 -29 10 -52 29 -68s44 -24 77 -24
s58 8 77 24c19 17 29 39 29 68c0 28 -10 50 -29 66s-44 24 -77 24c-71 0 -106 -30 -106 -90z" />
    <glyph glyph-name="nine" unicode="9" horiz-adv-x="474" 
d="M305 231l-2 2c-22 -23 -54 -35 -96 -35c-53 0 -95 17 -126 51c-31 33 -47 76 -47 129c0 59 19 107 57 142c37 34 86 51 146 51c59 0 107 -16 144 -49c39 -35 59 -85 59 -149c0 -70 -34 -151 -103 -242l-104 -131h-110zM235 483c-71 0 -106 -36 -106 -107
c0 -72 35 -108 106 -108s106 36 106 109c0 71 -35 106 -106 106z" />
    <glyph glyph-name="zero.slsh.dnom" horiz-adv-x="323" 
d="M162 398c91 0 137 -68 137 -203s-46 -202 -137 -202c-93 0 -139 67 -139 202s46 203 139 203zM162 329c-43 0 -65 -45 -65 -134c0 -15 1 -33 2 -53l99 175c-10 8 -22 12 -36 12zM162 61c43 0 64 45 64 134c0 20 -1 38 -3 54l-98 -175c9 -9 22 -13 37 -13z" />
    <glyph glyph-name="zero.lf" horiz-adv-x="578" 
d="M289 713c169 0 254 -121 254 -363s-85 -363 -254 -363s-254 121 -254 363s85 363 254 363zM289 613c-55 0 -94 -24 -117 -73c-20 -41 -30 -104 -30 -190s10 -150 30 -191c23 -48 62 -72 117 -72s94 24 117 72c20 41 30 105 30 191s-10 149 -30 190c-23 49 -62 73 -117 73
z" />
    <glyph glyph-name="one.lf" horiz-adv-x="400" 
d="M205 0v424c0 102 1 153 4 153h-3c3 0 -11 -15 -44 -44l-63 -62l-61 71l171 158h102v-700h-106z" />
    <glyph glyph-name="two.lf" horiz-adv-x="546" 
d="M47 0v122l215 188c51 47 84 79 98 97c23 29 34 61 34 94c0 36 -11 65 -32 86c-23 22 -54 33 -95 33s-73 -13 -96 -38c-19 -21 -31 -47 -34 -78l-97 26c18 122 96 183 233 183c73 0 130 -18 170 -55c39 -35 59 -86 59 -151c0 -51 -14 -97 -43 -138
c-23 -33 -66 -76 -128 -127l-163 -142l1 -2l27 1h308v-99h-457z" />
    <glyph glyph-name="three.lf" horiz-adv-x="554" 
d="M381 369v-3c38 -5 69 -21 93 -48c27 -31 41 -73 41 -126c0 -63 -21 -112 -62 -149c-42 -37 -99 -56 -170 -56c-68 0 -124 18 -167 53c-42 34 -68 81 -77 140l97 28c12 -81 60 -122 143 -122c41 0 73 11 96 34c22 22 33 50 33 85c0 78 -44 117 -133 117h-58v88h56
c41 0 72 10 94 29c23 19 34 46 34 80c0 69 -40 103 -121 103c-79 0 -124 -39 -134 -118l-98 26c21 122 99 183 234 183c73 0 130 -17 170 -52c37 -33 56 -76 56 -130c0 -47 -14 -86 -42 -117c-24 -26 -52 -41 -85 -45z" />
    <glyph glyph-name="four.lf" horiz-adv-x="574" 
d="M450 0h-106v174h-310v97l255 429h161v-430h89v-96h-89v-174zM344 270l1 338h-4l-208 -336l3 -3z" />
    <glyph glyph-name="five.lf" horiz-adv-x="550" 
d="M163 404l3 -1c28 33 71 50 128 50c65 0 116 -21 155 -62c39 -42 59 -98 59 -167c0 -71 -21 -128 -63 -171c-43 -44 -100 -66 -171 -66c-63 0 -115 17 -157 52c-41 34 -66 79 -77 136l98 26c6 -35 21 -63 44 -84c24 -22 54 -33 90 -33c41 0 73 14 97 41
c23 26 34 60 34 103s-12 78 -35 103c-24 26 -57 39 -99 39c-61 0 -101 -24 -120 -71l-92 24l61 377h365v-99h-287l-15 -98c-3 -20 -7 -42 -12 -66z" />
    <glyph glyph-name="six.lf" horiz-adv-x="558" 
d="M189 408l3 -3c28 31 68 46 120 46c62 0 113 -21 152 -62c40 -42 60 -96 60 -161c0 -73 -23 -131 -68 -175c-45 -43 -104 -65 -177 -65c-72 0 -130 21 -174 64c-46 44 -69 105 -69 184c0 83 32 168 95 255l147 209h118zM281 85c42 0 75 13 100 39c25 27 38 62 38 106
s-12 79 -36 104c-25 26 -58 39 -101 39s-76 -13 -101 -39s-37 -61 -37 -105c0 -45 12 -80 37 -105c25 -26 58 -39 100 -39z" />
    <glyph glyph-name="seven.lf" horiz-adv-x="526" 
d="M508 612l-290 -612h-114l221 472c43 93 64 135 64 127l-2 3l-346 -1v99h467v-88z" />
    <glyph glyph-name="eight.lf" horiz-adv-x="567" 
d="M39 189c0 52 15 95 46 129c26 28 57 45 94 52v3c-25 7 -48 21 -69 44c-29 31 -43 68 -43 113c0 53 19 97 57 131c39 35 92 52 159 52s121 -18 160 -53c38 -33 57 -77 57 -130c0 -45 -14 -83 -43 -114c-21 -23 -44 -37 -69 -43v-3c36 -7 67 -24 93 -51
c31 -34 47 -77 47 -130c0 -59 -21 -107 -63 -144c-44 -39 -104 -58 -180 -58s-136 19 -181 57c-43 37 -65 85 -65 145zM164 524c0 -33 11 -60 33 -79s51 -29 86 -29c37 1 66 11 87 30c22 20 33 46 33 79s-11 59 -32 78s-51 29 -88 29s-67 -10 -88 -29s-31 -46 -31 -79z
M144 198c0 -38 13 -68 38 -91c25 -22 59 -33 101 -33c43 0 78 11 103 34c25 22 37 52 37 90s-13 68 -38 90s-59 33 -102 33s-77 -11 -102 -33s-37 -52 -37 -90z" />
    <glyph glyph-name="nine.lf" horiz-adv-x="564" 
d="M372 291l-3 2c-30 -30 -71 -45 -122 -45c-65 0 -117 21 -156 63c-38 41 -57 95 -57 162c0 73 23 132 69 176c45 43 104 64 177 64c72 0 130 -20 174 -61c47 -45 71 -106 71 -185c0 -87 -42 -187 -127 -299l-129 -168h-120zM278 616c-41 0 -74 -12 -99 -36
c-27 -25 -40 -61 -40 -108s13 -83 40 -108c25 -24 57 -36 98 -36c42 0 75 12 100 37c27 26 40 62 40 108s-13 82 -40 108c-25 23 -58 35 -99 35z" />
    <glyph glyph-name="zero.slsh.lf" horiz-adv-x="578" 
d="M289 713c169 0 254 -121 254 -363s-85 -363 -254 -363s-254 121 -254 363s85 363 254 363zM289 613c-55 0 -94 -24 -117 -73c-20 -41 -30 -104 -30 -190c0 -64 5 -115 15 -152l216 387c-22 19 -50 28 -84 28zM289 87c55 0 94 24 117 72c20 41 30 105 30 191
c0 63 -5 111 -14 146l-214 -384c22 -17 49 -25 81 -25z" />
    <glyph glyph-name="zero.slsh.numr" horiz-adv-x="323" 
d="M162 708c91 0 137 -68 137 -203s-46 -202 -137 -202c-93 0 -139 67 -139 202s46 203 139 203zM162 639c-43 0 -65 -45 -65 -134c0 -15 1 -33 2 -53l99 175c-10 8 -22 12 -36 12zM162 371c43 0 64 45 64 134c0 20 -1 38 -3 54l-98 -175c9 -9 22 -13 37 -13z" />
    <glyph glyph-name="zero.slsh" horiz-adv-x="487" 
d="M243 571c139 0 209 -97 209 -291s-70 -291 -209 -291s-208 97 -208 291s69 291 208 291zM243 478c-38 0 -66 -16 -83 -48s-25 -82 -25 -150c0 -37 3 -70 8 -100l157 281c-15 11 -34 17 -57 17zM243 82c38 0 66 16 83 48c17 31 25 81 25 150c0 34 -2 64 -6 90l-153 -275
c13 -9 30 -13 51 -13z" />
    <glyph glyph-name="zero.tf.slsh" 
d="M312 714c170 0 255 -121 255 -364s-85 -364 -255 -364c-171 0 -256 121 -256 364s85 364 256 364zM312 614c-55 0 -95 -24 -118 -73c-21 -41 -31 -105 -31 -191c0 -62 5 -111 15 -148l216 386c-21 17 -49 26 -82 26zM312 86c55 0 95 24 118 72c20 41 30 105 30 192
c0 64 -5 115 -16 152l-217 -388c23 -19 51 -28 85 -28z" />
    <glyph glyph-name="zero.sups" horiz-adv-x="323" 
d="M162 465c-93 0 -139 67 -139 202s46 203 139 203c91 0 137 -68 137 -203s-46 -202 -137 -202zM162 533c43 0 64 45 64 134s-21 134 -64 134s-65 -45 -65 -134s22 -134 65 -134z" />
    <glyph glyph-name="four.sups" horiz-adv-x="323" 
d="M251 473h-68v90h-167v65l134 234h101v-234h56v-65h-56v-90zM183 628v81c0 20 1 41 2 63l1 30h-4c-8 0 -41 -57 -98 -171l2 -3h97z" />
    <glyph glyph-name="five.sups" horiz-adv-x="323" 
d="M96 696l4 -2c17 19 42 29 75 29c35 0 64 -11 86 -33c23 -23 34 -54 34 -93c0 -40 -12 -72 -35 -96s-55 -36 -96 -36s-73 12 -98 35c-21 20 -33 46 -38 77l63 16c5 -45 29 -67 70 -67c45 0 67 24 67 72s-22 72 -67 72c-29 0 -50 -12 -63 -35l-62 16l34 211h207v-65h-160
l-9 -50c-2 -12 -5 -24 -8 -36z" />
    <glyph glyph-name="six.sups" horiz-adv-x="323" 
d="M110 690l3 -3c21 23 47 35 76 35c31 0 58 -11 79 -32c23 -23 35 -54 35 -92c0 -41 -13 -73 -38 -97s-58 -36 -99 -36s-75 12 -100 36c-27 25 -41 61 -41 106c0 47 15 91 45 134l87 121h79zM165 525c47 0 71 25 71 74c1 49 -22 73 -71 73c-47 0 -71 -24 -71 -73
s24 -74 71 -74z" />
    <glyph glyph-name="seven.sups" horiz-adv-x="323" 
d="M295 794l-156 -321h-73l119 248c7 16 16 33 25 51c3 5 6 11 9 17l4 7l-2 3c-8 -1 -26 -2 -55 -2h-132v65h261v-68z" />
    <glyph glyph-name="eight.sups" horiz-adv-x="323" 
d="M23 578c0 53 25 87 76 100v3c-14 3 -27 12 -39 25c-15 17 -22 37 -22 62c0 31 11 55 34 74c22 19 52 28 89 28s67 -9 90 -28s34 -43 34 -74c0 -24 -8 -45 -23 -62c-11 -13 -24 -22 -38 -25v-3c19 -4 35 -14 50 -29c17 -19 26 -43 26 -71c0 -35 -13 -62 -38 -82
c-25 -21 -58 -31 -101 -31c-42 0 -75 10 -100 31c-25 20 -38 47 -38 82zM99 763c0 -36 21 -54 62 -54c42 0 63 18 63 54c0 35 -21 53 -63 53c-41 0 -62 -18 -62 -53zM90 584c0 -40 24 -61 71 -62c48 1 72 22 72 62c0 41 -24 61 -72 61c-47 0 -71 -20 -71 -61z" />
    <glyph glyph-name="nine.sups" horiz-adv-x="323" 
d="M211 638l-3 3c-19 -21 -43 -31 -70 -31c-36 0 -65 12 -86 35s-32 54 -32 91c0 41 13 74 40 99c25 23 58 35 99 35c40 0 73 -12 98 -35c27 -25 41 -60 41 -105c0 -51 -20 -104 -61 -158l-75 -99h-80zM157 809c-21 0 -38 -7 -51 -20s-20 -31 -20 -53c0 -49 24 -73 71 -73
s70 24 70 72c0 49 -23 74 -70 74z" />
    <glyph glyph-name="zero.slsh.sups" horiz-adv-x="323" 
d="M162 870c91 0 137 -68 137 -203s-46 -202 -137 -202c-93 0 -139 67 -139 202s46 203 139 203zM162 801c-43 0 -65 -45 -65 -134c0 -15 1 -33 2 -53l99 175c-10 8 -22 12 -36 12zM162 533c43 0 64 45 64 134c0 20 -1 38 -3 54l-98 -175c9 -9 22 -13 37 -13z" />
    <glyph glyph-name="zero.tf" 
d="M312 714c170 0 255 -121 255 -364s-85 -364 -255 -364c-171 0 -256 121 -256 364s85 364 256 364zM312 614c-55 0 -95 -24 -118 -73c-21 -41 -31 -105 -31 -191c0 -87 10 -151 31 -192c23 -48 63 -72 118 -72s95 24 118 72c20 41 30 105 30 192c0 86 -10 150 -30 191
c-23 49 -63 73 -118 73z" />
    <glyph glyph-name="one.tf" 
d="M550 0h-431v99h163v352c0 90 1 135 3 135h-2c2 0 -19 -19 -64 -57l-80 -77l-57 74l194 174h112v-601h162v-99z" />
    <glyph glyph-name="two.tf" 
d="M89 0v122l215 188c52 47 85 80 99 97c23 29 34 61 34 94c0 36 -11 65 -33 86c-23 22 -54 33 -94 33c-41 0 -73 -13 -97 -38c-19 -21 -31 -47 -34 -78l-96 26c18 122 96 183 233 183c73 0 129 -18 169 -55c39 -36 59 -86 59 -151c0 -51 -14 -97 -43 -138
c-23 -33 -66 -76 -127 -127l-164 -142l1 -2l27 1h308v-99h-457z" />
    <glyph glyph-name="three.tf" 
d="M413 369v-3c38 -5 69 -21 93 -48c27 -31 41 -73 41 -126c0 -63 -21 -112 -62 -149c-42 -37 -99 -56 -170 -56c-68 0 -124 18 -167 53c-42 33 -68 80 -78 140l98 28c12 -81 59 -122 142 -122c41 0 74 11 97 34c22 22 33 50 33 85c0 78 -44 117 -133 117h-58v88h56
c41 0 72 10 94 29c23 19 34 46 34 80c0 69 -40 103 -121 103c-79 0 -124 -39 -134 -118l-98 26c21 122 99 183 234 183c73 0 130 -17 170 -52c37 -33 56 -76 56 -130c0 -47 -14 -86 -42 -117c-24 -26 -52 -41 -85 -45z" />
    <glyph glyph-name="four.tf" 
d="M465 0h-105v174h-310v97l255 429h160v-430h90v-96h-90v-174zM360 270l1 338h-4l-208 -336l2 -3z" />
    <glyph glyph-name="five.tf" 
d="M201 404l3 -1c28 33 71 50 128 50c65 0 116 -21 155 -62c39 -42 59 -98 59 -167c0 -71 -21 -128 -62 -171c-43 -44 -100 -66 -171 -66c-63 0 -116 17 -158 52c-41 34 -66 79 -76 136l97 26c6 -35 21 -63 44 -84c24 -22 54 -33 90 -33c41 0 74 14 98 41
c23 26 34 60 34 103s-12 78 -36 103c-24 26 -57 39 -99 39c-59 0 -99 -24 -120 -71l-92 24l61 377h366v-99h-288l-15 -98c-3 -21 -7 -43 -12 -66z" />
    <glyph glyph-name="six.tf" 
d="M217 408l3 -3c28 31 68 46 121 46c62 0 113 -21 152 -62c40 -42 60 -96 60 -161c0 -73 -23 -131 -68 -175c-45 -43 -105 -65 -178 -65c-72 0 -130 21 -174 64c-46 44 -69 105 -69 184c0 81 32 166 95 255l148 209h117zM309 85c42 0 76 13 101 39s37 61 37 106
c1 43 -11 78 -36 104c-24 26 -57 39 -100 39s-77 -13 -102 -39s-37 -61 -37 -105s12 -79 37 -105s58 -39 100 -39z" />
    <glyph glyph-name="seven.tf" 
d="M549 612l-293 -612h-113l223 472c44 92 66 135 66 130l-2 4l-31 -1c-23 -1 -43 -1 -60 -1h-266v96h476v-88z" />
    <glyph glyph-name="eight.tf" 
d="M64 189c0 53 16 96 47 129c25 28 57 45 94 52v3c-25 7 -49 21 -70 44c-29 31 -43 68 -43 113c0 53 19 97 57 131c40 35 93 52 160 52s120 -18 159 -53c38 -33 57 -77 57 -130c0 -45 -14 -83 -43 -114c-21 -23 -44 -38 -69 -43v-3c36 -7 67 -24 93 -51
c31 -34 47 -77 47 -130c0 -59 -21 -107 -63 -144c-44 -39 -104 -58 -180 -58s-136 19 -181 57c-43 37 -65 85 -65 145zM189 524c0 -33 11 -60 33 -79s51 -29 87 -29c37 1 66 11 87 30c22 20 33 46 33 79s-11 59 -32 78s-51 29 -88 29s-67 -10 -88 -29s-32 -46 -32 -79z
M169 198c0 -38 13 -68 38 -91c25 -22 59 -33 102 -33s77 11 102 34c25 22 37 52 37 90s-13 68 -38 90s-58 33 -101 33s-78 -11 -103 -33s-37 -52 -37 -90z" />
    <glyph glyph-name="nine.tf" 
d="M411 291l-3 2c-29 -30 -69 -45 -122 -45c-65 0 -116 21 -155 63c-38 41 -57 95 -57 162c0 73 23 132 69 176c45 43 103 64 176 64c72 0 130 -20 174 -61c48 -45 72 -106 72 -185c0 -87 -43 -186 -128 -299l-129 -168h-120zM317 616c-41 0 -74 -12 -99 -36
c-27 -26 -40 -62 -40 -108c0 -47 13 -83 40 -108c25 -24 58 -36 99 -36c42 0 75 12 100 37c27 26 40 62 40 108s-14 82 -41 108c-25 23 -58 35 -99 35z" />
    <glyph glyph-name="zero.tosf" 
d="M310 571c139 0 208 -97 208 -291s-69 -291 -208 -291s-209 97 -209 291s70 291 209 291zM310 478c-39 0 -66 -16 -83 -48c-17 -31 -25 -81 -25 -150s8 -119 25 -150c17 -32 44 -48 83 -48c38 0 66 16 83 48c17 31 25 81 25 150c0 132 -36 198 -108 198z" />
    <glyph glyph-name="one.tosf" 
d="M504 0h-358v94h131v241c0 40 1 79 4 116h-3c1 0 -11 -13 -36 -38l-67 -66l-56 65l161 146h96v-464h128v-94z" />
    <glyph glyph-name="two.tosf" 
d="M135 0v113l176 143c66 55 99 103 99 143c0 57 -31 85 -94 85c-57 0 -88 -28 -95 -84l-93 26c15 97 80 145 195 145c59 0 105 -15 138 -44s50 -71 50 -124c0 -67 -45 -135 -134 -204l-131 -106l1 -3l26 1h240v-91h-378z" />
    <glyph glyph-name="three.tosf" 
d="M395 293v-4c30 -3 55 -15 75 -37c23 -25 34 -57 34 -98c0 -50 -17 -90 -51 -120c-35 -30 -82 -45 -141 -45c-56 0 -102 14 -137 41s-57 65 -66 114l89 25c10 -61 47 -92 110 -92c65 0 98 30 98 89c0 57 -34 86 -101 86h-50v75h47c65 0 97 27 97 81c0 52 -31 78 -92 78
c-59 0 -91 -28 -98 -84l-90 24c16 96 82 144 197 144c121 0 182 -48 182 -145c0 -40 -12 -72 -35 -96c-19 -21 -41 -33 -68 -36z" />
    <glyph glyph-name="four.tosf" 
d="M445 0h-100v137h-251v91l200 332h151v-335h75v-88h-75v-137zM345 225l1 256h-3l-157 -254l2 -3z" />
    <glyph glyph-name="five.tosf" 
d="M230 327l3 -2c22 25 56 38 103 38c55 0 99 -17 130 -52c31 -33 46 -77 46 -133c0 -57 -17 -103 -52 -138c-35 -34 -83 -51 -143 -51c-54 0 -98 14 -133 42c-34 26 -55 62 -64 107l87 23c11 -57 47 -86 106 -86c32 0 57 9 76 28c18 19 27 44 27 77c0 71 -35 106 -105 106
c-46 0 -77 -17 -93 -51l-83 22l50 303h296v-94h-227l-11 -73c-5 -30 -10 -52 -13 -66z" />
    <glyph glyph-name="six.tosf" 
d="M242 325l3 -2c23 24 54 36 95 36c49 0 90 -16 122 -49c33 -33 49 -76 49 -128c0 -59 -19 -106 -56 -141s-86 -52 -146 -52s-108 17 -144 50c-39 35 -58 85 -58 149c0 68 26 138 79 209l119 163h106zM310 76c69 0 105 36 106 108c0 33 -9 58 -28 77s-45 28 -78 28
c-70 0 -105 -35 -105 -106c0 -33 9 -60 28 -79s44 -28 77 -28z" />
    <glyph glyph-name="seven.tosf" 
d="M514 480l-249 -480h-103l186 358c12 23 25 48 40 73l18 33l-2 2h-287v94h397v-80z" />
    <glyph glyph-name="eight.tosf" 
d="M108 151c0 41 12 75 37 102c21 21 46 35 76 42v2c-21 5 -39 16 -56 35c-23 25 -35 55 -35 91c0 43 16 78 47 105c33 29 78 43 133 43s99 -14 132 -43c31 -28 47 -63 47 -105c0 -36 -12 -66 -35 -91c-17 -19 -36 -30 -56 -35v-2c29 -6 54 -20 75 -41
c26 -27 39 -61 39 -103c0 -48 -17 -87 -52 -116c-36 -31 -86 -47 -149 -47s-113 15 -149 46c-36 29 -54 68 -54 117zM218 417c0 -25 9 -45 26 -60c17 -14 39 -21 66 -21c28 0 50 8 67 23c16 15 24 34 24 58c0 53 -30 80 -91 80s-92 -27 -92 -80zM204 159
c0 -29 10 -52 29 -68s44 -24 77 -24s58 8 77 24c19 17 29 39 29 68c0 28 -10 50 -29 66s-44 24 -77 24c-71 0 -106 -30 -106 -90z" />
    <glyph glyph-name="nine.tosf" 
d="M386 231l-2 2c-22 -23 -54 -35 -96 -35c-53 0 -95 17 -126 51c-31 33 -47 76 -47 129c0 59 19 107 57 142c37 34 86 51 146 51c59 0 107 -16 144 -49c39 -35 59 -85 59 -149c0 -70 -34 -151 -103 -242l-104 -131h-110zM316 483c-71 0 -106 -36 -106 -107
c0 -72 35 -108 106 -108s106 36 106 109c0 71 -35 106 -106 106z" />
    <glyph glyph-name="zero.slsh.tosf" 
d="M306 571c139 0 209 -97 209 -291s-70 -291 -209 -291s-208 97 -208 291s69 291 208 291zM306 478c-38 0 -66 -16 -83 -48s-25 -82 -25 -150c0 -37 3 -70 8 -99l156 280c-15 11 -34 17 -56 17zM306 82c38 0 66 16 83 48c17 31 25 81 25 150c0 35 -2 64 -6 89l-153 -274
c13 -9 30 -13 51 -13z" />
    <glyph glyph-name="fraction" unicode="&#x2044;" horiz-adv-x="136" 
d="M211 700l-209 -700h-77l209 700h77z" />
    <glyph glyph-name="uni215F" unicode="&#x215f;" horiz-adv-x="459" 
d="M290 311h-231v65h80v156c0 41 1 70 4 86h-3c1 0 -7 -9 -24 -26l-35 -34l-45 46l103 96h71v-324h80v-65zM534 700l-210 -700h-77l209 700h78z" />
    <glyph glyph-name="onehalf" unicode="&#xbd;" horiz-adv-x="781" 
d="M290 311h-231v65h80v156c0 41 1 70 4 86h-3c1 0 -7 -9 -24 -26l-35 -34l-45 46l103 96h71v-324h80v-65zM534 700l-210 -700h-77l209 700h78zM491 1v82l135 107c35 27 53 55 53 86c0 38 -20 57 -61 57c-37 0 -60 -19 -68 -58l-60 16c15 71 59 106 134 106
c84 0 126 -39 126 -116c0 -43 -22 -84 -66 -123c-19 -17 -44 -37 -74 -60l-40 -31l2 -4c13 1 34 2 62 2h119v-64h-262z" />
    <glyph glyph-name="uni2189" unicode="&#x2189;" horiz-adv-x="765" 
d="M162 303c-93 0 -139 67 -139 202s46 203 139 203c91 0 137 -68 137 -203s-46 -202 -137 -202zM518 700l-210 -700h-77l209 700h78zM162 371c43 0 64 45 64 134s-21 134 -64 134s-65 -45 -65 -134s22 -134 65 -134zM663 203v-4c21 -2 38 -11 53 -27c16 -17 24 -40 24 -68
c0 -32 -12 -58 -35 -79c-24 -21 -55 -32 -93 -32c-43 0 -77 11 -102 34c-23 20 -36 46 -41 78l63 18c5 -45 29 -67 74 -67c43 0 65 20 65 60s-23 60 -69 60h-27v50h25c44 0 66 20 66 59c0 35 -21 52 -63 52c-38 0 -60 -21 -66 -62l-60 16c9 71 53 106 131 106
c84 0 126 -34 126 -103c0 -27 -8 -49 -23 -66c-13 -15 -29 -24 -48 -25z" />
    <glyph glyph-name="onethird" unicode="&#x2153;" horiz-adv-x="781" 
d="M290 311h-231v65h80v156c0 41 1 70 4 86h-3c1 0 -7 -9 -24 -26l-35 -34l-45 46l103 96h71v-324h80v-65zM534 700l-210 -700h-77l209 700h78zM679 203v-4c21 -2 38 -11 53 -27c16 -17 24 -40 24 -68c0 -32 -12 -58 -35 -79c-24 -21 -55 -32 -93 -32c-43 0 -77 11 -102 34
c-23 20 -36 46 -41 78l63 18c5 -45 29 -67 74 -67c43 0 65 20 65 60s-23 60 -69 60h-27v50h25c44 0 66 20 66 59c0 35 -21 52 -63 52c-38 0 -60 -21 -66 -62l-60 16c9 71 53 106 131 106c84 0 126 -34 126 -103c0 -27 -8 -49 -23 -66c-13 -15 -29 -24 -48 -25z" />
    <glyph glyph-name="twothirds" unicode="&#x2154;" horiz-adv-x="781" 
d="M32 311v82l136 107c35 29 53 58 53 87c0 37 -21 56 -62 56c-37 0 -59 -19 -67 -58l-60 17c13 71 58 106 133 106c84 0 126 -39 126 -116c0 -45 -22 -86 -66 -123c-19 -17 -43 -38 -73 -61l-40 -31l1 -3l63 2h119v-65h-263zM534 700l-210 -700h-77l209 700h78zM679 203v-4
c21 -2 38 -11 53 -27c16 -17 24 -40 24 -68c0 -32 -12 -58 -35 -79c-24 -21 -55 -32 -93 -32c-43 0 -77 11 -102 34c-23 20 -36 46 -41 78l63 18c5 -45 29 -67 74 -67c43 0 65 20 65 60s-23 60 -68 60h-28v50h25c44 0 66 20 66 59c0 35 -21 52 -63 52c-38 0 -60 -21 -66 -62
l-60 16c9 71 53 106 131 106c84 0 126 -34 126 -103c0 -27 -8 -49 -23 -66c-13 -15 -29 -24 -48 -25z" />
    <glyph glyph-name="onequarter" unicode="&#xbc;" horiz-adv-x="781" 
d="M290 311h-231v65h80v156c0 41 1 70 4 86h-3c1 0 -7 -9 -24 -26l-35 -34l-45 46l103 96h71v-324h80v-65zM534 700l-210 -700h-77l209 700h78zM709 1h-67v90h-168v64l134 234h101v-233h56v-65h-56v-90zM642 156v81c0 54 1 85 3 93h-5c-1 0 -17 -28 -49 -85l-49 -87l3 -3z
" />
    <glyph glyph-name="threequarters" unicode="&#xbe;" horiz-adv-x="781" 
d="M221 513v-3c21 -2 38 -11 52 -27c16 -18 24 -41 24 -68c0 -33 -12 -59 -35 -80c-24 -21 -55 -32 -93 -32c-42 0 -76 11 -101 34c-23 21 -37 47 -42 79l64 18c3 -45 28 -68 73 -68c43 0 65 20 65 60s-23 60 -68 60h-27v51h25c44 0 66 19 66 58c0 35 -21 53 -64 53
c-37 0 -59 -21 -66 -63l-60 16c11 71 54 107 131 107c84 0 126 -34 126 -103c0 -27 -8 -49 -23 -66c-13 -15 -28 -24 -47 -26zM534 700l-210 -700h-77l209 700h78zM709 1h-67v90h-168v64l134 234h101v-233h56v-65h-56v-90zM642 156v81c0 54 1 85 3 93h-5
c-1 0 -17 -28 -49 -85l-49 -87l3 -3z" />
    <glyph glyph-name="uni2155" unicode="&#x2155;" horiz-adv-x="781" 
d="M290 311h-231v65h80v156c0 41 1 70 4 86h-3c1 0 -7 -9 -24 -26l-35 -34l-45 46l103 96h71v-324h80v-65zM534 700l-210 -700h-77l209 700h78zM555 223l3 -1c17 19 43 28 76 28c35 0 64 -11 86 -33c23 -23 34 -54 34 -93c0 -40 -12 -72 -35 -95c-23 -24 -56 -36 -97 -36
c-40 0 -72 11 -97 34c-21 20 -34 46 -39 77l63 17c5 -45 29 -68 70 -68c45 0 67 24 67 73c0 47 -22 71 -67 71c-30 0 -51 -11 -62 -34l-62 15l34 211h207v-64h-160l-9 -50c-2 -12 -5 -24 -8 -37z" />
    <glyph glyph-name="uni2156" unicode="&#x2156;" horiz-adv-x="781" 
d="M32 311v82l136 107c35 29 53 58 53 87c0 37 -21 56 -62 56c-37 0 -59 -19 -67 -58l-60 17c13 71 58 106 133 106c84 0 126 -39 126 -116c0 -45 -22 -86 -66 -123c-19 -17 -43 -38 -73 -61l-40 -31l1 -3l63 2h119v-65h-263zM534 700l-210 -700h-77l209 700h78zM555 223
l3 -1c17 19 43 28 76 28c35 0 64 -11 86 -33c23 -23 34 -54 34 -93s-12 -71 -35 -95c-24 -24 -56 -36 -97 -36c-40 0 -72 11 -97 34c-21 20 -34 46 -39 77l63 17c5 -45 29 -68 70 -68c45 0 67 24 67 73c0 47 -22 71 -67 71c-30 0 -51 -11 -62 -34l-62 15l34 211h207v-64
h-160l-9 -50c-2 -12 -5 -24 -8 -37z" />
    <glyph glyph-name="uni2157" unicode="&#x2157;" horiz-adv-x="781" 
d="M221 513v-3c21 -2 38 -11 52 -27c16 -18 24 -41 24 -68c0 -33 -12 -59 -35 -80c-24 -21 -55 -32 -93 -32c-42 0 -76 11 -101 34c-23 21 -37 47 -42 79l64 18c3 -45 28 -68 73 -68c43 0 65 20 65 60s-23 60 -68 60h-27v51h25c44 0 66 19 66 58c0 35 -21 53 -64 53
c-37 0 -59 -21 -66 -63l-60 16c11 71 54 107 131 107c84 0 126 -34 126 -103c0 -27 -8 -49 -23 -66c-13 -15 -28 -24 -47 -26zM534 700l-210 -700h-77l209 700h78zM555 223l3 -1c17 19 43 28 76 28c35 0 64 -11 86 -33c23 -23 34 -54 34 -93s-12 -71 -35 -95
c-24 -24 -56 -36 -97 -36c-40 0 -72 11 -97 34c-21 20 -34 46 -39 77l63 17c5 -45 29 -68 70 -68c45 0 67 24 67 73c0 47 -22 71 -67 71c-30 0 -51 -11 -62 -34l-62 15l34 211h207v-64h-160l-9 -50c-2 -12 -5 -24 -8 -37z" />
    <glyph glyph-name="uni2158" unicode="&#x2158;" horiz-adv-x="781" 
d="M534 700l-210 -700h-77l209 700h78zM251 311h-68v90h-167v65l134 234h101v-234h56v-65h-56v-90zM183 466v81c0 20 1 41 2 63l1 30h-4c-8 0 -41 -57 -98 -171l2 -3h97zM555 223l3 -1c17 19 43 28 76 28c35 0 64 -11 86 -33c23 -23 34 -54 34 -93c0 -40 -12 -72 -35 -95
c-23 -24 -56 -36 -97 -36c-40 0 -72 11 -97 34c-21 20 -34 46 -39 77l63 17c5 -45 29 -68 70 -68c45 0 67 24 67 73c0 47 -22 71 -67 71c-30 0 -51 -11 -62 -34l-62 15l34 211h207v-64h-160l-9 -50c-2 -12 -5 -24 -8 -37z" />
    <glyph glyph-name="uni2159" unicode="&#x2159;" horiz-adv-x="781" 
d="M290 311h-231v65h80v156c0 41 1 70 4 86h-3c1 0 -7 -9 -24 -26l-35 -34l-45 46l103 96h71v-324h80v-65zM534 700l-210 -700h-77l209 700h78zM568 217l4 -2c19 23 44 34 75 34s58 -11 80 -32c23 -23 34 -53 34 -91c0 -41 -13 -73 -38 -98c-25 -23 -58 -35 -99 -35
s-75 12 -100 36c-27 25 -41 61 -41 106s15 90 45 134l88 120h79zM624 53c46 0 70 24 71 73c0 49 -24 74 -71 74s-71 -25 -71 -74s24 -73 71 -73z" />
    <glyph glyph-name="uni215A" unicode="&#x215a;" horiz-adv-x="781" 
d="M96 534l4 -2c17 19 42 29 75 29c35 0 64 -11 86 -33c23 -23 34 -54 34 -93c0 -40 -12 -72 -35 -96s-55 -36 -96 -36s-73 12 -98 35c-21 20 -33 46 -38 77l63 16c5 -45 29 -67 70 -67c45 0 67 24 67 72s-22 72 -67 72c-29 0 -50 -12 -63 -35l-62 16l34 211h207v-65h-160
l-9 -50c-2 -12 -5 -24 -8 -36zM534 700l-210 -700h-77l209 700h78zM568 217l4 -2c19 23 44 34 75 34s58 -11 80 -32c23 -23 34 -53 34 -91c0 -41 -13 -73 -38 -98c-25 -23 -58 -35 -99 -35s-75 12 -100 36c-27 25 -41 61 -41 106s15 90 45 134l88 120h79zM624 53
c46 0 70 24 71 73c0 49 -24 74 -71 74s-71 -25 -71 -74s24 -73 71 -73z" />
    <glyph glyph-name="uni2150" unicode="&#x2150;" horiz-adv-x="781" 
d="M290 311h-231v65h80v156c0 41 1 70 4 86h-3c1 0 -7 -9 -24 -26l-35 -34l-45 46l103 96h71v-324h80v-65zM534 700l-210 -700h-77l209 700h78zM753 321l-155 -320h-74l120 247c7 16 16 33 25 51c3 5 6 11 9 17l4 7l-2 3l-188 -1v64h261v-68z" />
    <glyph glyph-name="oneeighth" unicode="&#x215b;" horiz-adv-x="781" 
d="M290 311h-231v65h80v156c0 41 1 70 4 86h-3c1 0 -7 -9 -24 -26l-35 -34l-45 46l103 96h71v-324h80v-65zM534 700l-210 -700h-77l209 700h78zM481 106c0 28 9 51 27 70c14 15 31 24 50 29v3c-41 11 -61 40 -61 87c0 31 11 56 34 75c22 18 52 27 89 27s67 -9 89 -27
c23 -19 34 -43 34 -74c0 -47 -20 -76 -60 -88v-3c51 -12 76 -45 76 -99c0 -35 -13 -62 -38 -83c-25 -20 -58 -30 -101 -30s-76 10 -101 30c-25 21 -38 48 -38 83zM558 291c0 -36 21 -54 62 -54s62 18 62 53c0 36 -21 54 -62 54s-62 -18 -62 -53zM549 111
c0 -41 24 -61 71 -61s71 20 71 61s-24 61 -71 61s-71 -20 -71 -61z" />
    <glyph glyph-name="threeeighths" unicode="&#x215c;" horiz-adv-x="781" 
d="M221 513v-3c21 -2 38 -11 52 -27c16 -18 24 -41 24 -68c0 -33 -12 -59 -35 -80c-24 -21 -55 -32 -93 -32c-42 0 -76 11 -101 34c-23 21 -37 47 -42 79l64 18c3 -45 28 -68 73 -68c43 0 65 20 65 60s-23 60 -68 60h-27v51h25c44 0 66 19 66 58c0 35 -21 53 -64 53
c-37 0 -59 -21 -66 -63l-60 16c11 71 54 107 131 107c84 0 126 -34 126 -103c0 -27 -8 -49 -23 -66c-13 -15 -28 -24 -47 -26zM534 700l-210 -700h-77l209 700h78zM481 106c0 28 9 51 27 70c14 15 31 24 50 29v3c-41 11 -61 40 -61 87c0 31 11 56 34 75c22 18 52 27 89 27
s67 -9 89 -27c23 -19 34 -43 34 -74c0 -47 -20 -76 -60 -88v-3c51 -12 76 -45 76 -99c0 -35 -13 -62 -38 -83c-25 -20 -58 -30 -101 -30s-76 10 -101 30c-25 21 -38 48 -38 83zM558 291c0 -36 21 -54 62 -54s62 18 62 53c0 36 -21 54 -62 54s-62 -18 -62 -53zM549 111
c0 -41 24 -61 71 -61s71 20 71 61s-24 61 -71 61s-71 -20 -71 -61z" />
    <glyph glyph-name="fiveeighths" unicode="&#x215d;" horiz-adv-x="781" 
d="M96 534l4 -2c17 19 42 29 75 29c35 0 64 -11 86 -33c23 -23 34 -54 34 -93c0 -40 -12 -72 -35 -96s-55 -36 -96 -36s-73 12 -98 35c-21 20 -33 46 -38 77l63 16c5 -45 29 -67 70 -67c45 0 67 24 67 72s-22 72 -67 72c-29 0 -50 -12 -63 -35l-62 16l34 211h207v-65h-160
l-9 -50c-2 -12 -5 -24 -8 -36zM534 700l-210 -700h-77l209 700h78zM481 106c0 28 9 51 27 70c14 15 31 24 50 29v3c-41 11 -61 40 -61 87c0 31 11 56 34 75c22 18 52 27 89 27s67 -9 89 -27c23 -19 34 -43 34 -74c0 -47 -20 -76 -60 -88v-3c51 -12 76 -45 76 -99
c0 -35 -13 -62 -38 -83c-25 -20 -58 -30 -101 -30s-76 10 -101 30c-25 21 -38 48 -38 83zM558 291c0 -36 21 -54 62 -54s62 18 62 53c0 36 -21 54 -62 54s-62 -18 -62 -53zM549 111c0 -41 24 -61 71 -61s71 20 71 61s-24 61 -71 61s-71 -20 -71 -61z" />
    <glyph glyph-name="seveneighths" unicode="&#x215e;" horiz-adv-x="781" 
d="M295 632l-156 -321h-73l119 248c7 16 16 33 25 51c3 5 6 11 9 17l4 7l-2 3c-8 -1 -26 -2 -55 -2h-132v65h261v-68zM534 700l-210 -700h-77l209 700h78zM481 106c0 28 9 51 27 70c14 15 31 24 50 29v3c-41 11 -61 40 -61 87c0 31 11 56 34 75c22 18 52 27 89 27
s67 -9 89 -27c23 -19 34 -43 34 -74c0 -47 -20 -76 -60 -88v-3c51 -12 76 -45 76 -99c0 -35 -13 -62 -38 -83c-25 -20 -58 -30 -101 -30s-76 10 -101 30c-25 21 -38 48 -38 83zM558 291c0 -36 21 -54 62 -54s62 18 62 53c0 36 -21 54 -62 54s-62 -18 -62 -53zM549 111
c0 -41 24 -61 71 -61s71 20 71 61s-24 61 -71 61s-71 -20 -71 -61z" />
    <glyph glyph-name="uni2151" unicode="&#x2151;" horiz-adv-x="781" 
d="M290 311h-231v65h80v156c0 41 1 70 4 86h-3c1 0 -7 -9 -24 -26l-35 -34l-45 46l103 96h71v-324h80v-65zM534 700l-210 -700h-77l209 700h78zM669 166l-3 2c-17 -20 -40 -30 -69 -30c-36 0 -65 12 -86 35s-32 53 -32 90c0 42 13 75 39 99c25 23 59 35 100 35
c40 0 73 -12 98 -35c27 -25 40 -60 40 -104c0 -51 -20 -104 -60 -159l-76 -98h-79zM616 336c-47 0 -71 -24 -71 -73c-1 -48 22 -72 70 -72c47 0 71 24 71 72c0 49 -23 73 -70 73z" />
    <glyph glyph-name="uni2152" unicode="&#x2152;" horiz-adv-x="1104" 
d="M290 311h-231v65h80v156c0 41 1 70 4 86h-3c1 0 -7 -9 -24 -26l-35 -34l-45 46l103 96h71v-324h80v-65zM534 700l-210 -700h-77l209 700h78zM943 -7c-93 0 -139 67 -139 202s46 202 139 202c91 0 137 -67 137 -202s-46 -202 -137 -202zM748 1h-231v64h80v156
c0 35 2 64 5 87h-3c2 0 -6 -9 -25 -26l-35 -35l-45 46l104 96h70v-324h80v-64zM943 61c43 0 64 45 64 134s-21 134 -64 134s-65 -45 -65 -134s22 -134 65 -134z" />
    <glyph glyph-name="zero.dnom" horiz-adv-x="323" 
d="M162 -7c-93 0 -139 67 -139 202s46 202 139 202c91 0 137 -67 137 -202s-46 -202 -137 -202zM162 61c43 0 64 45 64 134s-21 134 -64 134s-65 -45 -65 -134s22 -134 65 -134z" />
    <glyph glyph-name="one.dnom" horiz-adv-x="323" 
d="M290 1h-231v64h80v156c0 39 1 68 4 87h-3c1 0 -7 -9 -24 -26l-35 -35l-45 46l103 96h71v-324h80v-64z" />
    <glyph glyph-name="two.dnom" horiz-adv-x="323" 
d="M32 1v82l136 107c35 27 53 56 53 86c0 38 -21 57 -62 57c-37 0 -59 -19 -67 -58l-60 16c13 71 58 106 133 106c84 0 126 -39 126 -116c0 -44 -22 -85 -66 -123c-19 -17 -43 -37 -73 -60l-40 -31l1 -4c13 1 34 2 63 2h119v-64h-263z" />
    <glyph glyph-name="three.dnom" horiz-adv-x="323" 
d="M221 203v-4c21 -2 38 -11 52 -27c16 -17 24 -40 24 -68c0 -32 -12 -58 -35 -79c-24 -21 -55 -32 -93 -32c-42 0 -76 11 -101 34c-23 20 -37 46 -42 78l64 18c3 -45 28 -67 73 -67c43 0 65 20 65 60s-23 60 -68 60h-27v50h25c44 0 66 20 66 59c0 35 -21 52 -64 52
c-37 0 -59 -21 -66 -62l-60 16c11 71 54 106 131 106c84 0 126 -34 126 -103c0 -27 -8 -49 -23 -66c-13 -15 -29 -24 -47 -25z" />
    <glyph glyph-name="four.dnom" horiz-adv-x="323" 
d="M251 1h-68v90h-167v64l134 234h101v-233h56v-65h-56v-90zM183 156v81c0 19 1 40 2 63l1 30h-4c-1 0 -17 -28 -49 -85l-49 -87l2 -3z" />
    <glyph glyph-name="five.dnom" horiz-adv-x="323" 
d="M96 223l4 -1c17 19 42 28 75 28c35 0 64 -11 86 -33c23 -23 34 -54 34 -93s-12 -71 -35 -95s-55 -36 -96 -36s-73 11 -98 34c-21 20 -33 46 -38 77l63 17c5 -45 29 -68 70 -68c45 0 67 24 67 73c0 47 -22 71 -67 71c-29 0 -50 -11 -63 -34l-62 15l34 211h207v-64h-160
l-9 -50c-2 -12 -5 -24 -8 -37z" />
    <glyph glyph-name="six.dnom" horiz-adv-x="323" 
d="M110 217l3 -2c21 23 46 34 76 34c31 0 58 -11 79 -32c23 -23 35 -53 35 -91c0 -41 -13 -73 -38 -98c-25 -23 -58 -35 -99 -35s-75 12 -100 36c-27 25 -41 61 -41 106c0 47 15 91 45 134l87 120h79zM165 53c47 0 71 24 71 73c1 49 -22 74 -71 74c-47 0 -71 -25 -71 -74
s24 -73 71 -73z" />
    <glyph glyph-name="seven.dnom" horiz-adv-x="323" 
d="M295 321l-156 -320h-73l119 247c7 16 16 33 25 51c3 5 6 11 9 17l4 7l-2 3l-187 -1v64h261v-68z" />
    <glyph glyph-name="eight.dnom" horiz-adv-x="323" 
d="M23 106c0 28 9 51 27 70c14 15 30 24 49 29v3c-41 11 -61 40 -61 87c0 31 11 56 34 75c22 18 52 27 89 27s67 -9 90 -27c23 -19 34 -43 34 -74c0 -47 -20 -77 -61 -88v-3c51 -11 76 -44 76 -99c0 -35 -13 -62 -38 -83c-25 -20 -58 -30 -101 -30c-42 0 -75 10 -100 30
c-25 21 -38 48 -38 83zM99 291c0 -36 21 -54 62 -54c42 0 63 18 63 53c0 36 -21 54 -63 54c-41 0 -62 -18 -62 -53zM90 111c0 -41 24 -61 71 -61c48 0 72 20 72 61s-24 61 -72 61c-47 0 -71 -20 -71 -61z" />
    <glyph glyph-name="nine.dnom" horiz-adv-x="323" 
d="M211 166l-3 2c-19 -20 -42 -30 -70 -30c-36 0 -65 12 -86 35s-32 53 -32 90c0 41 13 74 40 99c25 23 58 35 99 35c40 0 73 -12 98 -35c27 -25 41 -60 41 -104c0 -51 -20 -104 -61 -159l-75 -98h-80zM157 336c-47 0 -71 -24 -71 -73c0 -48 24 -72 71 -72s70 24 70 72
c0 49 -23 73 -70 73z" />
    <glyph glyph-name="zero.numr" horiz-adv-x="323" 
d="M162 303c-93 0 -139 67 -139 202s46 203 139 203c91 0 137 -68 137 -203s-46 -202 -137 -202zM162 371c43 0 64 45 64 134s-21 134 -64 134s-65 -45 -65 -134s22 -134 65 -134z" />
    <glyph glyph-name="one.numr" horiz-adv-x="323" 
d="M290 311h-231v65h80v156c0 41 1 70 4 86h-3c1 0 -7 -9 -24 -26l-35 -34l-45 46l103 96h71v-324h80v-65z" />
    <glyph glyph-name="two.numr" horiz-adv-x="323" 
d="M32 311v82l136 107c35 29 53 58 53 87c0 37 -21 56 -62 56c-37 0 -59 -19 -67 -58l-60 17c13 71 58 106 133 106c84 0 126 -39 126 -116c0 -45 -22 -86 -66 -123c-19 -17 -43 -38 -73 -61l-40 -31l1 -3l63 2h119v-65h-263z" />
    <glyph glyph-name="three.numr" horiz-adv-x="323" 
d="M221 513v-3c21 -2 38 -11 52 -27c16 -18 24 -41 24 -68c0 -33 -12 -59 -35 -80c-24 -21 -55 -32 -93 -32c-42 0 -76 11 -101 34c-23 21 -37 47 -42 79l64 18c3 -45 28 -68 73 -68c43 0 65 20 65 60s-23 60 -68 60h-27v51h25c44 0 66 19 66 58c0 35 -21 53 -64 53
c-37 0 -59 -21 -66 -63l-60 16c11 71 54 107 131 107c84 0 126 -34 126 -103c0 -27 -8 -49 -23 -66c-13 -15 -28 -24 -47 -26z" />
    <glyph glyph-name="four.numr" horiz-adv-x="323" 
d="M251 311h-68v90h-167v65l134 234h101v-234h56v-65h-56v-90zM183 466v81c0 20 1 41 2 63l1 30h-4c-8 0 -41 -57 -98 -171l2 -3h97z" />
    <glyph glyph-name="five.numr" horiz-adv-x="323" 
d="M96 534l4 -2c17 19 42 29 75 29c35 0 64 -11 86 -33c23 -23 34 -54 34 -93c0 -40 -12 -72 -35 -96s-55 -36 -96 -36s-73 12 -98 35c-21 20 -33 46 -38 77l63 16c5 -45 29 -67 70 -67c45 0 67 24 67 72s-22 72 -67 72c-29 0 -50 -12 -63 -35l-62 16l34 211h207v-65h-160
l-9 -50c-2 -12 -5 -24 -8 -36z" />
    <glyph glyph-name="six.numr" horiz-adv-x="323" 
d="M110 528l3 -3c21 23 47 35 76 35c31 0 58 -11 79 -32c23 -23 35 -54 35 -92c0 -41 -13 -73 -38 -97s-58 -36 -99 -36s-75 12 -100 36c-27 25 -41 61 -41 106c0 47 15 91 45 134l87 121h79zM165 363c47 0 71 25 71 74c1 49 -22 73 -71 73c-47 0 -71 -24 -71 -73
s24 -74 71 -74z" />
    <glyph glyph-name="seven.numr" horiz-adv-x="323" 
d="M295 632l-156 -321h-73l119 248c7 16 16 33 25 51c3 5 6 11 9 17l4 7l-2 3c-8 -1 -26 -2 -55 -2h-132v65h261v-68z" />
    <glyph glyph-name="eight.numr" horiz-adv-x="323" 
d="M23 416c0 53 25 87 76 100v3c-14 3 -27 12 -39 25c-15 17 -22 37 -22 62c0 31 11 55 34 74c22 19 52 28 89 28s67 -9 90 -28s34 -43 34 -74c0 -24 -8 -45 -23 -62c-11 -13 -24 -22 -38 -25v-3c19 -4 35 -14 50 -29c17 -19 26 -43 26 -71c0 -35 -13 -62 -38 -82
c-25 -21 -58 -31 -101 -31c-42 0 -75 10 -100 31c-25 20 -38 47 -38 82zM99 601c0 -36 21 -54 62 -54c42 0 63 18 63 54c0 35 -21 53 -63 53c-41 0 -62 -18 -62 -53zM90 422c0 -40 24 -61 71 -62c48 1 72 22 72 62c0 41 -24 61 -72 61c-47 0 -71 -20 -71 -61z" />
    <glyph glyph-name="nine.numr" horiz-adv-x="323" 
d="M211 476l-3 3c-19 -21 -43 -31 -70 -31c-36 0 -65 12 -86 35s-32 54 -32 91c0 41 13 74 40 99c25 23 58 35 99 35c40 0 73 -12 98 -35c27 -25 41 -60 41 -105c0 -51 -20 -104 -61 -158l-75 -99h-80zM157 647c-21 0 -38 -7 -51 -20s-20 -31 -20 -53c0 -49 24 -73 71 -73
s70 24 70 72c0 49 -23 74 -70 74z" />
    <glyph glyph-name="uni00B9" unicode="&#xb9;" horiz-adv-x="323" 
d="M290 473h-231v65h80v156c0 41 1 70 4 86h-3c1 0 -7 -9 -24 -26l-35 -34l-45 46l103 96h71v-324h80v-65z" />
    <glyph glyph-name="uni00B2" unicode="&#xb2;" horiz-adv-x="323" 
d="M32 473v82l136 107c35 29 53 58 53 87c0 37 -21 56 -62 56c-37 0 -59 -19 -67 -58l-60 17c13 71 58 106 133 106c84 0 126 -39 126 -116c0 -45 -22 -86 -66 -123c-19 -17 -43 -38 -73 -61l-40 -31l1 -3l63 2h119v-65h-263z" />
    <glyph glyph-name="uni00B3" unicode="&#xb3;" horiz-adv-x="323" 
d="M221 675v-3c21 -2 38 -11 52 -27c16 -18 24 -41 24 -68c0 -33 -12 -59 -35 -80c-24 -21 -55 -32 -93 -32c-42 0 -76 11 -101 34c-23 21 -37 47 -42 79l64 18c3 -45 28 -68 73 -68c43 0 65 20 65 60s-23 60 -68 60h-27v51h25c44 0 66 19 66 58c0 35 -21 53 -64 53
c-37 0 -59 -21 -66 -63l-60 16c11 71 54 107 131 107c84 0 126 -34 126 -103c0 -27 -8 -49 -23 -66c-13 -15 -28 -24 -47 -26z" />
    <glyph glyph-name="braceleft" unicode="{" horiz-adv-x="401" 
d="M232 551v-100c0 -54 -12 -96 -36 -126c-14 -18 -28 -29 -43 -34c14 -4 28 -16 43 -35c24 -32 36 -74 36 -126v-100c0 -99 43 -150 128 -151v-93c-72 1 -128 21 -167 62s-59 99 -59 174v108c1 47 -10 79 -32 98c-7 6 -20 11 -39 16v94c47 6 71 44 71 114v107
c0 75 20 133 59 174s95 61 167 62v-94c-86 -1 -129 -51 -128 -150z" />
    <glyph glyph-name="braceright" unicode="}" horiz-adv-x="401" 
d="M170 30v100c0 54 12 96 35 127c15 18 29 29 44 33c-14 4 -29 16 -44 36c-23 31 -35 73 -35 125v100c0 99 -43 150 -129 151v93c72 0 128 -21 167 -62s59 -99 59 -174v-107c0 -65 24 -103 71 -115v-94c-47 -6 -71 -44 -71 -114v-107c0 -75 -20 -133 -59 -174
s-95 -61 -167 -62v94c86 1 129 51 129 150z" />
    <glyph glyph-name="bracketleft" unicode="[" horiz-adv-x="370" 
d="M331 -116v-96h-238v1006h238v-95h-136v-815h136z" />
    <glyph glyph-name="bracketright" unicode="]" horiz-adv-x="370" 
d="M39 701v95h238v-1006h-238v95h136v816h-136z" />
    <glyph glyph-name="braceleft.case" horiz-adv-x="403" 
d="M235 614v-99c0 -53 -12 -95 -35 -126c-15 -19 -29 -30 -44 -34c14 -4 29 -16 44 -36c23 -31 35 -73 35 -125v-98c0 -99 42 -149 127 -149v-97c-74 0 -131 20 -170 61c-39 40 -59 98 -59 173v109c0 68 -23 106 -70 114v96c47 8 70 46 70 114v108c0 75 20 133 59 173
c39 41 96 61 170 61v-96c-85 0 -127 -50 -127 -149z" />
    <glyph glyph-name="braceright.case" horiz-adv-x="403" 
d="M169 95v99c0 53 12 95 35 126c14 19 28 30 43 34c-14 4 -28 16 -43 36c-23 32 -35 74 -35 125v98c0 99 -43 149 -128 149v97c74 0 131 -20 171 -61c39 -40 59 -98 59 -173v-109c-1 -66 22 -104 69 -113v-97c-46 -9 -69 -47 -69 -113v-109c0 -75 -20 -133 -59 -173
c-40 -41 -97 -61 -171 -61v97c85 0 128 49 128 148z" />
    <glyph glyph-name="bracketleft.case" horiz-adv-x="370" 
d="M331 -49v-99h-238v1005h238v-100h-132v-806h132z" />
    <glyph glyph-name="bracketright.case" horiz-adv-x="370" 
d="M39 757v100h238v-1005h-238v99h132v806h-132z" />
    <glyph glyph-name="parenleft.case" horiz-adv-x="362" 
d="M313 862l30 -102c-122 -41 -183 -175 -183 -404c0 -228 61 -362 183 -403l-30 -101c-173 62 -260 230 -260 505c0 273 87 442 260 505z" />
    <glyph glyph-name="parenright.case" horiz-adv-x="362" 
d="M50 -145l-31 101c123 40 184 175 184 404s-61 363 -184 403l31 102c173 -63 259 -232 259 -505c0 -275 -86 -443 -259 -505z" />
    <glyph glyph-name="parenleft" unicode="(" horiz-adv-x="362" 
d="M313 790l29 -96c-124 -41 -186 -176 -186 -406c0 -231 62 -366 186 -406l-29 -97c-173 61 -260 228 -260 503c0 274 87 441 260 502z" />
    <glyph glyph-name="parenright" unicode=")" horiz-adv-x="362" 
d="M49 -214l-30 96c125 41 187 176 187 406s-62 365 -187 406l30 96c173 -61 259 -228 259 -502c0 -273 -86 -441 -259 -502z" />
    <glyph glyph-name="emdash.case" horiz-adv-x="910" 
d="M831 313h-741v89h741v-89z" />
    <glyph glyph-name="endash.case" 
d="M539 312h-455v90h455v-90z" />
    <glyph glyph-name="hyphen.case" horiz-adv-x="521" 
d="M448 313h-364v88h364v-88z" />
    <glyph glyph-name="softhyphen.case" horiz-adv-x="532" 
d="M444 313h-364v88h364v-88z" />
    <glyph glyph-name="emdash" unicode="&#x2014;" horiz-adv-x="910" 
d="M825 242h-741v89h741v-89z" />
    <glyph glyph-name="endash" unicode="&#x2013;" 
d="M539 242h-455v89h455v-89z" />
    <glyph glyph-name="hyphen" unicode="-" horiz-adv-x="532" 
d="M448 242h-364v89h364v-89z" />
    <glyph glyph-name="uni00AD" unicode="&#xad;" horiz-adv-x="532" 
d="M448 242h-364v89h364v-89z" />
    <glyph glyph-name="guillemotleft.case" horiz-adv-x="637" 
d="M514 584l63 -57l-162 -174v-3l162 -175l-63 -57l-213 233zM273 584l62 -57l-161 -174v-3l162 -175l-63 -57l-213 233z" />
    <glyph glyph-name="guillemotright.case" horiz-adv-x="637" 
d="M123 118l-63 57l162 175v3l-162 174l63 57l213 -233zM365 118l-64 57l163 175v3l-162 174l62 57l213 -233z" />
    <glyph glyph-name="guilsinglleft.case" horiz-adv-x="396" 
d="M273 584l62 -57l-161 -174v-3l162 -175l-63 -57l-213 233z" />
    <glyph glyph-name="guilsinglright.case" horiz-adv-x="396" 
d="M123 118l-63 57l162 175v3l-162 174l63 57l213 -233z" />
    <glyph glyph-name="guillemotleft" unicode="&#xab;" horiz-adv-x="637" 
d="M514 512l63 -57l-162 -175v-3l162 -174l-63 -57l-213 233zM273 512l62 -57l-161 -175v-3l162 -174l-63 -57l-213 233z" />
    <glyph glyph-name="guillemotright" unicode="&#xbb;" horiz-adv-x="637" 
d="M123 46l-63 57l162 174v3l-162 175l63 57l213 -233zM365 46l-64 57l163 174v3l-162 175l62 57l213 -233z" />
    <glyph glyph-name="guilsinglleft" unicode="&#x2039;" horiz-adv-x="396" 
d="M273 512l62 -57l-161 -175v-3l162 -174l-63 -57l-213 233z" />
    <glyph glyph-name="guilsinglright" unicode="&#x203a;" horiz-adv-x="396" 
d="M123 46l-63 57l162 174v3l-162 175l63 57l213 -233z" />
    <glyph glyph-name="quotedblbase" unicode="&#x201e;" horiz-adv-x="419" 
d="M107 3c-33 -2 -49 14 -49 48c0 16 5 29 16 39c11 11 26 16 44 16c45 0 68 -25 68 -76c0 -28 -9 -54 -26 -79c-18 -27 -42 -45 -71 -56l-41 46c31 11 51 32 59 62zM290 3c-33 -2 -49 14 -49 48c0 16 6 29 17 39c11 11 25 16 43 16c21 0 37 -7 50 -20c13 -14 19 -33 19 -56
c0 -28 -9 -54 -26 -79c-18 -27 -42 -45 -72 -56l-41 46c33 11 52 32 59 62z" />
    <glyph glyph-name="quotedblleft" unicode="&#x201c;" horiz-adv-x="424" 
d="M127 603c33 2 49 -14 49 -48c0 -16 -5 -29 -16 -39c-11 -11 -26 -16 -44 -16c-45 0 -68 25 -68 76c0 28 9 55 26 80c18 26 42 44 71 55l41 -46c-32 -11 -52 -32 -59 -62zM314 603c33 2 49 -14 49 -48c0 -16 -5 -29 -16 -39c-11 -11 -25 -16 -43 -16c-46 0 -69 25 -69 76
c0 28 9 55 26 80c18 26 42 44 71 55l42 -46c-31 -11 -51 -31 -60 -62z" />
    <glyph glyph-name="quotedblright" unicode="&#x201d;" horiz-adv-x="423" 
d="M107 609c-33 -2 -49 14 -49 48c0 16 5 29 16 39c11 11 26 16 44 16c45 0 68 -25 68 -76c0 -28 -9 -54 -26 -79c-18 -27 -42 -45 -71 -56l-41 47c31 10 50 30 59 61zM294 609c-33 -2 -49 14 -49 48c0 16 6 29 17 39c11 11 25 16 43 16c46 0 69 -25 69 -76
c0 -28 -9 -54 -26 -79c-18 -27 -42 -45 -72 -56l-41 47c32 10 52 30 59 61z" />
    <glyph glyph-name="quoteleft" unicode="&#x2018;" horiz-adv-x="236" 
d="M129 603c33 2 49 -14 49 -48c0 -16 -5 -29 -16 -39c-11 -11 -26 -16 -44 -16c-45 0 -68 25 -68 76c0 28 9 55 26 80c18 26 42 44 71 55l42 -47c-31 -10 -51 -30 -60 -61z" />
    <glyph glyph-name="quoteright" unicode="&#x2019;" horiz-adv-x="236" 
d="M107 609c-33 -2 -49 14 -49 48c0 16 5 29 16 39c11 11 26 16 44 16c45 0 68 -25 68 -76c0 -28 -9 -54 -26 -79c-18 -27 -42 -45 -71 -56l-41 46c31 11 50 32 59 62z" />
    <glyph glyph-name="quotesinglbase" unicode="&#x201a;" horiz-adv-x="236" 
d="M107 3c-33 -2 -49 14 -49 48c0 16 5 29 16 39c11 11 26 16 44 16c45 0 68 -25 68 -76c0 -28 -9 -54 -26 -79c-18 -27 -42 -45 -71 -56l-41 46c31 11 50 32 59 62z" />
    <glyph glyph-name="asterisk" unicode="*" horiz-adv-x="445" 
d="M277 518l65 -101l-57 -38l-62 98l-63 -98l-57 37l65 102l-105 31l20 66l105 -32v117h69v-117l105 32l20 -66z" />
    <glyph glyph-name="backslash" unicode="\" horiz-adv-x="464" 
d="M446 0h-110l-318 700h108z" />
    <glyph glyph-name="bullet" unicode="&#x2022;" horiz-adv-x="301" 
d="M151 197c-26 0 -47 8 -63 24c-17 17 -25 38 -25 65s8 48 25 64c17 17 38 25 63 25s46 -8 63 -25c16 -16 24 -37 24 -64s-8 -48 -24 -65c-16 -16 -37 -24 -63 -24z" />
    <glyph glyph-name="bullet.case" horiz-adv-x="319" 
d="M160 256c-29 0 -52 9 -70 27s-27 42 -27 72c0 29 9 53 27 71s41 27 70 27c28 0 51 -9 69 -27s27 -42 27 -71c0 -30 -9 -54 -27 -72s-41 -27 -69 -27z" />
    <glyph glyph-name="colon.case" horiz-adv-x="236" 
d="M118 451c-41 0 -62 20 -62 60s21 60 62 60s62 -20 62 -60s-21 -60 -62 -60zM118 118c-41 0 -62 20 -62 61c0 40 21 60 62 60s62 -20 62 -60c0 -41 -21 -61 -62 -61z" />
    <glyph glyph-name="numbersign.case" horiz-adv-x="620" 
d="M441 246h69l-25 -98h-70l-38 -148h-93l38 148h-126l-38 -148h-94l38 148h-70l25 98h70l52 204h-69l25 98h70l38 152h94l-38 -152h125l39 152h94l-39 -152h69l-25 -98h-69zM272 450l-53 -204h130l52 204h-129z" />
    <glyph glyph-name="periodcentered.case" horiz-adv-x="236" 
d="M118 290c-41 0 -62 20 -62 60c0 41 21 61 62 61s62 -20 62 -61c0 -40 -21 -60 -62 -60z" />
    <glyph glyph-name="semicolon.case" horiz-adv-x="236" 
d="M118 451c-41 0 -62 20 -62 60s21 60 62 60s62 -20 62 -60s-21 -60 -62 -60zM107 128c-33 -2 -49 14 -49 49c0 16 6 29 17 40s25 16 43 16c45 0 68 -26 68 -77c0 -27 -9 -54 -26 -79c-18 -26 -42 -44 -71 -55l-41 44c32 11 52 31 59 62z" />
    <glyph glyph-name="colon" unicode=":" horiz-adv-x="236" 
d="M118 328c-41 0 -62 20 -62 61c0 40 21 60 62 60s62 -20 62 -60c0 -41 -21 -61 -62 -61zM118 -9c-41 0 -62 20 -62 60s21 60 62 60s62 -20 62 -60s-21 -60 -62 -60z" />
    <glyph glyph-name="comma" unicode="," horiz-adv-x="236" 
d="M107 5c-33 -3 -49 13 -49 48c0 17 6 30 17 41s25 16 43 16c45 0 68 -26 68 -77c0 -28 -9 -54 -26 -79c-18 -26 -42 -44 -71 -55l-41 44c32 11 52 31 59 62z" />
    <glyph glyph-name="ellipsis" unicode="&#x2026;" horiz-adv-x="667" 
d="M107 -11c-34 0 -51 17 -51 50s17 50 51 50s51 -17 51 -50s-17 -50 -51 -50zM330 -11c-34 0 -51 17 -51 50s17 50 51 50s51 -17 51 -50s-17 -50 -51 -50zM560 -11c-34 0 -51 17 -51 50s17 50 51 50s51 -17 51 -50s-17 -50 -51 -50z" />
    <glyph glyph-name="exclam" unicode="!" horiz-adv-x="286" 
d="M196 700v-524h-106v524h106zM143 -9c-41 0 -62 20 -63 60c0 40 21 60 63 60c41 0 62 -20 62 -60s-21 -60 -62 -60z" />
    <glyph glyph-name="exclamdown" unicode="&#xa1;" horiz-adv-x="286" 
d="M143 709c41 0 62 -20 62 -60s-21 -60 -62 -60s-62 20 -62 60s21 60 62 60zM90 0v524h106v-524h-106z" />
    <glyph glyph-name="numbersign" unicode="#" horiz-adv-x="620" 
d="M436 191h81l-24 -93h-81l-25 -98h-87l25 98h-125l-24 -98h-87l25 98h-82l24 93h82l45 179h-81l24 93h81l24 97h87l-24 -97h124l25 97h87l-25 -97h82l-24 -93h-81zM270 370l-45 -179h124l45 179h-124z" />
    <glyph glyph-name="period" unicode="." horiz-adv-x="236" 
d="M118 -9c-41 0 -62 20 -62 60s21 60 62 60s62 -20 62 -60s-21 -60 -62 -60z" />
    <glyph glyph-name="middot" unicode="&#xb7;" horiz-adv-x="236" 
d="M118 223c-41 0 -62 20 -62 61c0 40 21 60 62 60s62 -20 62 -60c0 -41 -21 -61 -62 -61z" />
    <glyph glyph-name="question" unicode="?" horiz-adv-x="526" 
d="M198 174v174c69 24 118 49 147 74c27 24 41 53 41 86c0 69 -39 104 -118 104c-71 0 -117 -35 -136 -105l-100 27c29 119 109 179 240 179c71 0 127 -19 167 -58c37 -35 55 -81 55 -136c0 -99 -63 -173 -190 -220v-125h-106zM251 -9c-42 0 -63 20 -63 60s21 60 63 60
c41 0 62 -20 62 -60s-21 -60 -62 -60z" />
    <glyph glyph-name="questiondown" unicode="&#xbf;" horiz-adv-x="526" 
d="M275 709c41 0 62 -20 63 -60c0 -40 -21 -60 -63 -60c-41 0 -62 20 -62 60s21 60 62 60zM328 526v-174c-69 -24 -118 -49 -147 -74c-27 -23 -41 -52 -41 -86c0 -69 39 -104 118 -104c70 0 115 35 136 105l100 -27c-29 -119 -110 -179 -241 -179c-71 0 -126 19 -166 58
c-37 35 -55 81 -55 136c0 99 63 173 189 220v125h107z" />
    <glyph glyph-name="quotedbl" unicode="&#x22;" horiz-adv-x="356" 
d="M147 700l-6 -235h-87l-6 235h99zM307 700l-6 -235h-88l-6 235h100z" />
    <glyph glyph-name="quotesingle" unicode="'" horiz-adv-x="197" 
d="M147 700l-6 -235h-87l-6 235h99z" />
    <glyph glyph-name="semicolon" unicode=";" horiz-adv-x="236" 
d="M118 328c-41 0 -62 20 -62 61c0 40 21 60 62 60s62 -20 62 -60c0 -41 -21 -61 -62 -61zM107 5c-33 -2 -49 14 -49 49c0 16 6 29 17 40s25 16 43 16c45 0 68 -25 68 -76c0 -28 -9 -54 -26 -79c-18 -27 -42 -45 -71 -56l-41 45c31 9 51 30 59 61z" />
    <glyph glyph-name="slash" unicode="/" horiz-adv-x="464" 
d="M446 700l-318 -700h-110l320 700h108z" />
    <glyph glyph-name="underscore" unicode="_" horiz-adv-x="684" 
d="M621 -86h-558v86h558v-86z" />
    <glyph glyph-name="space.dnom" horiz-adv-x="109" 
 />
    <glyph glyph-name="uni2003" unicode="&#x2003;" horiz-adv-x="579" 
 />
    <glyph glyph-name="uni2002" unicode="&#x2002;" horiz-adv-x="318" 
 />
    <glyph glyph-name="uni2007" unicode="&#x2007;" 
 />
    <glyph glyph-name="uni200A" unicode="&#x200a;" horiz-adv-x="38" 
 />
    <glyph glyph-name="space.numr" horiz-adv-x="109" 
 />
    <glyph glyph-name="uni2008" unicode="&#x2008;" horiz-adv-x="236" 
 />
    <glyph glyph-name="nonmarkingreturn" unicode=" " horiz-adv-x="228" 
 />
    <glyph glyph-name="space.sups" horiz-adv-x="109" 
 />
    <glyph glyph-name="uni2009" unicode="&#x2009;" horiz-adv-x="114" 
 />
    <glyph glyph-name="uni200B" unicode="&#x200b;" horiz-adv-x="0" 
 />
    <glyph glyph-name="cent" unicode="&#xa2;" horiz-adv-x="522" 
d="M269 105c60 0 102 30 125 91l91 -26c-30 -87 -88 -138 -175 -153v-98h-84v98c-58 9 -104 36 -139 81c-37 48 -55 110 -55 185c0 76 18 137 53 182c34 44 81 70 141 79v102h84v-102c93 -15 153 -68 178 -159l-91 -26c-20 67 -62 100 -125 100c-95 0 -142 -59 -142 -176
c0 -57 13 -101 38 -132s58 -46 101 -46z" />
    <glyph glyph-name="currency" unicode="&#xa4;" horiz-adv-x="592" 
d="M553 518l-66 -69c32 -45 48 -101 48 -169c0 -65 -15 -120 -46 -167l67 -70l-54 -52l-66 67c-40 -31 -87 -46 -141 -46c-53 0 -100 15 -140 46l-66 -67l-53 52l66 70c-31 45 -46 101 -46 167c0 67 16 124 49 169l-67 69l54 53l66 -67c41 29 86 43 137 43
c53 0 99 -14 139 -43l65 67zM295 454c-42 0 -76 -15 -103 -46c-27 -32 -40 -75 -40 -128c0 -55 13 -98 40 -129c26 -31 60 -46 103 -46s78 15 104 46c27 31 40 74 40 129c0 54 -13 97 -40 128c-26 31 -61 46 -104 46z" />
    <glyph glyph-name="dollar" unicode="$" horiz-adv-x="444" 
d="M415 151c0 -93 -49 -147 -148 -160v-80h-83v81c-90 11 -142 60 -155 145l91 25c7 -61 43 -92 108 -92c59 0 89 25 89 76c0 31 -14 54 -41 70c-11 6 -42 17 -93 34c-44 15 -76 32 -97 50c-31 29 -47 67 -47 116c0 87 46 138 138 152v81h84v-81c85 -11 134 -57 149 -136
l-87 -23c-11 54 -44 81 -101 81c-59 0 -88 -24 -88 -72c0 -26 11 -46 32 -60c14 -10 42 -21 84 -34c52 -17 89 -35 111 -52c36 -29 54 -70 54 -121z" />
    <glyph glyph-name="Euro" unicode="&#x20ac;" horiz-adv-x="548" 
d="M417 165l97 -26c-31 -100 -101 -150 -210 -150c-123 0 -198 63 -223 190h-49v77h40v47h-39v77h46c22 127 96 191 222 191c121 0 192 -55 211 -164l-96 -26c-13 65 -52 98 -115 98c-61 0 -99 -33 -114 -99h133v-77h-141v-47h141v-77h-131c16 -65 56 -97 119 -97
c55 0 92 28 109 83z" />
    <glyph glyph-name="cent.lf" horiz-adv-x="522" 
d="M269 172c60 0 102 30 125 91l91 -25c-29 -87 -88 -138 -175 -154v-98h-84v98c-58 9 -104 37 -139 82c-37 47 -55 109 -55 185s18 137 53 182c34 44 81 70 141 78v103h84v-103c93 -13 153 -66 178 -159l-91 -25c-20 67 -62 100 -125 100c-45 0 -80 -15 -105 -46
s-37 -74 -37 -130c0 -57 13 -101 38 -133c24 -31 58 -46 101 -46z" />
    <glyph glyph-name="currency.lf" horiz-adv-x="592" 
d="M553 580l-66 -70c32 -45 48 -101 48 -169c0 -65 -15 -120 -46 -167l67 -70l-54 -52l-66 68c-41 -31 -88 -47 -141 -47s-100 15 -140 46l-66 -67l-53 52l66 70c-31 47 -46 102 -46 167c0 68 16 125 49 170l-67 69l54 52l66 -67c40 29 86 44 137 44s98 -14 139 -43l65 66z
M295 516c-42 0 -76 -16 -103 -47c-27 -32 -40 -75 -40 -128c0 -55 13 -98 40 -129c26 -31 60 -46 103 -46s78 15 104 46c27 31 40 74 40 129c0 54 -13 97 -40 128c-26 31 -61 47 -104 47z" />
    <glyph glyph-name="dollar.lf" horiz-adv-x="522" 
d="M295 404c64 -23 109 -47 136 -70c40 -36 60 -85 60 -146c0 -57 -16 -103 -47 -138c-32 -34 -77 -54 -134 -60v-80h-87v81c-113 14 -177 76 -194 186l100 27c3 -39 18 -69 44 -90c25 -21 57 -31 96 -31c77 0 115 33 115 100c0 39 -16 68 -49 89c-14 9 -51 23 -110 43
c-55 21 -94 43 -118 64c-41 37 -61 85 -61 145c0 112 59 174 177 187v84h87v-85c103 -15 163 -74 181 -177l-99 -28c-13 75 -57 113 -131 113c-72 0 -108 -30 -108 -91c0 -33 14 -59 41 -78c16 -11 50 -26 101 -45z" />
    <glyph glyph-name="Euro.lf" horiz-adv-x="614" 
d="M482 199l98 -27c-36 -123 -115 -184 -238 -184c-144 0 -231 78 -260 235h-50v95h40v63h-39v95h48c25 157 110 236 255 236c136 0 217 -65 242 -194l-100 -27c-17 85 -64 127 -142 127c-83 0 -132 -47 -149 -142h190v-95h-198l-1 -21l1 -42h198v-95h-188
c19 -91 69 -137 151 -137c71 0 119 38 142 113z" />
    <glyph glyph-name="uni20BA.lf" horiz-adv-x="595" 
d="M462 256l97 -27c-29 -153 -125 -229 -286 -229h-144v255l-66 -18v93l66 17v65l-66 -17v92l66 18v195h106v-167l124 32v-92l-124 -33v-65l124 33v-93l-124 -32v-187h36c105 0 169 53 191 160z" />
    <glyph glyph-name="uni20B9.lf" horiz-adv-x="523" 
d="M358 606l-2 -3c16 -17 27 -37 34 -60h104v-94h-92c-3 -113 -63 -178 -181 -195l172 -254h-124l-177 269v71h68c86 0 133 36 141 109h-238v94h228c-18 42 -57 63 -116 63h-112v94h431v-94h-136z" />
    <glyph glyph-name="sterling.lf" horiz-adv-x="547" 
d="M38 0v96c46 9 69 47 69 113c0 16 -2 46 -6 90h-64v89h55c-7 52 -10 96 -10 131c0 63 18 112 53 145s84 49 147 49c129 0 203 -65 220 -196l-97 -26c-11 85 -51 127 -118 127c-71 0 -106 -40 -106 -120c0 -19 3 -55 10 -110h202v-89h-191c5 -39 7 -68 7 -87
c0 -61 -14 -100 -43 -116l2 -3c-8 0 8 1 49 2s84 1 127 1h167v-96h-473z" />
    <glyph glyph-name="yen.lf" horiz-adv-x="549" 
d="M421 475h88v-94h-133l-30 -63h163v-94h-182v-224h-105v224h-174v94h155l-30 63h-125v94h80l-108 225h116l106 -234l35 -83h3l138 317h111z" />
    <glyph glyph-name="uni20BA" unicode="&#x20ba;" horiz-adv-x="524" 
d="M400 211l94 -25c-24 -124 -106 -186 -245 -186h-136v191l-55 -15v78l55 15v46l-55 -14v78l55 14v167h101v-140l102 26v-77l-102 -27v-47l102 27v-78l-102 -27v-123h32c84 0 135 39 154 117z" />
    <glyph glyph-name="uni20B9" unicode="&#x20b9;" horiz-adv-x="463" 
d="M317 483l-2 -3c7 -9 14 -24 21 -45h98v-78h-91c-4 -40 -20 -74 -49 -101c-27 -25 -60 -41 -100 -48l127 -208h-115l-121 209v81h64c55 0 86 22 95 67h-181v78h175c-14 32 -45 48 -94 48h-81v77h371v-77h-117z" />
    <glyph glyph-name="sterling" unicode="&#xa3;" horiz-adv-x="479" 
d="M443 94v-94h-409v94c37 7 55 34 55 81c0 17 -1 35 -3 55h-53v82h44c-6 45 -9 79 -9 103c0 49 15 88 46 115s74 41 129 41c113 0 178 -54 193 -161l-93 -25c-11 63 -43 95 -96 95s-80 -30 -80 -89c0 -17 2 -44 7 -79h167v-82h-156c3 -19 4 -36 4 -53
c0 -43 -10 -70 -31 -81l2 -3l42 1h241z" />
    <glyph glyph-name="cent.tf" 
d="M320 172c60 0 102 30 125 91l91 -25c-29 -87 -88 -138 -175 -154v-98h-83v98c-59 9 -105 37 -139 82c-37 47 -55 109 -55 185s18 137 53 182c33 44 80 70 140 78v103h85v-103c93 -13 152 -66 177 -159l-90 -25c-20 67 -62 100 -126 100c-45 0 -79 -15 -104 -46
s-37 -74 -37 -130c0 -57 12 -101 37 -133c25 -31 58 -46 101 -46z" />
    <glyph glyph-name="currency.tf" 
d="M569 580l-67 -70c33 -45 49 -102 49 -169c0 -65 -16 -121 -47 -167l67 -70l-53 -52l-66 68c-42 -31 -89 -47 -141 -47c-53 0 -100 15 -140 46l-66 -67l-54 52l67 70c-31 47 -46 102 -46 167c0 67 16 124 48 170l-66 69l54 52l66 -67c40 29 86 44 137 44s97 -14 138 -43
l66 66zM311 516c-42 0 -76 -16 -103 -47c-27 -32 -41 -75 -41 -128c0 -54 14 -97 41 -129c26 -31 60 -46 103 -46s78 15 104 46c27 31 40 74 40 129c0 54 -13 97 -40 128c-26 31 -61 47 -104 47z" />
    <glyph glyph-name="dollar.tf" 
d="M343 404c64 -23 109 -47 136 -70c40 -36 60 -85 60 -146c0 -57 -16 -103 -47 -138c-32 -34 -77 -54 -135 -60v-80h-87v81c-112 14 -176 76 -193 186l100 27c3 -39 17 -69 43 -90c25 -21 57 -31 97 -31c77 0 115 33 115 100c0 39 -17 68 -50 89c-13 8 -50 22 -109 43
c-55 21 -94 43 -118 64c-41 37 -61 85 -61 145c0 112 59 174 176 187v84h88v-85c102 -14 162 -73 181 -177l-100 -28c-13 75 -57 113 -131 113c-71 0 -107 -30 -107 -91c0 -33 13 -59 40 -78c17 -12 51 -27 102 -45z" />
    <glyph glyph-name="Euro.tf" 
d="M480 199l98 -27c-36 -123 -115 -184 -238 -184c-144 0 -231 78 -260 235h-50v95h40l-1 33l1 30h-40v95h48c26 157 111 236 256 236c137 0 217 -65 241 -194l-99 -27c-17 85 -64 127 -142 127c-83 0 -133 -47 -149 -142h190v-95h-198l-1 -21l1 -42h198v-95h-188
c19 -91 69 -137 151 -137c71 0 119 38 142 113z" />
    <glyph glyph-name="uni20BA.tf" 
d="M480 256l96 -27c-28 -153 -123 -229 -286 -229h-143v255l-66 -18v93l66 17v65l-66 -17v92l66 18v195h105v-167l125 32v-92l-125 -33v-65l125 33v-93l-125 -32v-187h36c106 0 170 53 192 160z" />
    <glyph glyph-name="uni20B9.tf" 
d="M413 606l-2 -3c15 -16 26 -36 34 -60h104v-94h-92c-4 -113 -64 -178 -181 -195l172 -254h-124l-177 269v71h68c86 0 133 36 141 109h-238v94h227c-17 42 -55 63 -115 63h-112v94h431v-94h-136z" />
    <glyph glyph-name="sterling.tf" 
d="M79 0v96c45 9 68 47 68 113c0 23 -2 53 -5 90h-64v89h54c-6 57 -9 100 -9 131c0 63 18 112 53 145s83 49 146 49c129 0 203 -65 221 -196l-97 -26c-12 85 -51 127 -118 127c-71 0 -106 -40 -106 -120c0 -24 3 -61 9 -110h203v-89h-191c5 -39 7 -68 7 -87
c0 -61 -14 -100 -43 -116l1 -3c-8 0 9 1 50 2s84 1 127 1h167v-96h-473z" />
    <glyph glyph-name="yen.tf" 
d="M458 475h89v-94h-133l-31 -63h164v-94h-182v-224h-106v224h-174v94h156l-30 63h-126v94h81l-109 225h117l141 -317h3l138 317h110z" />
    <glyph glyph-name="cent.tosf" 
d="M320 105c60 0 102 30 125 91l91 -26c-30 -87 -88 -138 -175 -153v-98h-83v98c-59 9 -105 36 -139 81c-37 47 -55 109 -55 185s18 137 53 182c33 44 80 70 140 79v102h85v-102c93 -15 152 -68 177 -159l-90 -26c-20 67 -62 100 -126 100c-94 0 -141 -59 -141 -176
c0 -57 12 -101 37 -132s58 -46 101 -46z" />
    <glyph glyph-name="currency.tosf" 
d="M569 518l-67 -69c33 -45 49 -102 49 -169c0 -65 -16 -121 -47 -167l67 -70l-53 -52l-66 67c-41 -31 -88 -46 -141 -46s-100 15 -140 46l-66 -67l-54 52l67 70c-31 45 -46 101 -46 167c0 67 16 123 48 169l-66 69l54 53l66 -67c41 29 86 43 137 43c53 0 99 -14 138 -43
l66 67zM311 454c-43 0 -77 -15 -103 -46c-27 -32 -41 -75 -41 -128c0 -55 14 -98 41 -129c26 -31 60 -46 103 -46s78 15 104 46c27 31 40 74 40 129c0 54 -13 97 -40 128c-26 31 -61 46 -104 46z" />
    <glyph glyph-name="dollar.tosf" 
d="M504 151c0 -93 -49 -147 -148 -160v-80h-83v81c-90 11 -142 60 -155 145l91 25c7 -61 43 -92 108 -92c59 0 89 25 89 76c0 31 -14 54 -41 70c-11 6 -42 17 -93 34c-44 15 -76 32 -97 50c-31 29 -47 67 -47 116c0 87 46 138 138 152v81h84v-81c85 -11 134 -57 149 -136
l-87 -23c-11 54 -44 81 -101 81c-59 0 -88 -24 -88 -72c0 -26 11 -46 32 -60c14 -10 42 -21 83 -34c52 -17 89 -35 112 -52c36 -29 54 -70 54 -121z" />
    <glyph glyph-name="Euro.tosf" 
d="M446 165l97 -26c-29 -100 -99 -150 -209 -150c-124 0 -198 63 -223 190h-49v77h40l-1 29c0 8 0 14 1 18h-40v77h47c22 127 96 191 221 191c122 0 193 -55 212 -164l-97 -26c-13 65 -51 98 -114 98c-62 0 -100 -33 -114 -99h132v-77h-140l-1 -17l1 -30h140v-77h-130
c16 -65 55 -97 118 -97c55 0 92 28 109 83z" />
    <glyph glyph-name="uni20BA.tosf" 
d="M470 211l94 -25c-24 -124 -106 -186 -245 -186h-135v191l-56 -15v78l56 15v46l-56 -14v78l56 14v167h100v-140l103 26v-77l-103 -27v-47l103 27v-78l-103 -27v-123h32c84 0 135 39 154 117z" />
    <glyph glyph-name="uni20B9.tosf" 
d="M409 483l-2 -3c9 -12 15 -27 20 -45h99v-78h-91c-4 -40 -20 -74 -49 -101c-27 -25 -61 -41 -101 -48l127 -208h-114l-121 209v81h63c54 0 86 22 96 67h-181v78h175c-14 32 -45 48 -94 48h-81v77h371v-77h-117z" />
    <glyph glyph-name="sterling.tosf" 
d="M523 94v-94h-408v94c37 7 55 34 55 81c0 10 -1 28 -4 55h-53v82h44c-6 45 -9 79 -9 103c0 49 15 88 46 115s74 41 129 41c113 0 178 -54 193 -161l-93 -25c-11 63 -43 95 -96 95s-80 -30 -80 -89c0 -17 2 -44 7 -79h167v-82h-156c3 -19 4 -36 4 -53
c0 -43 -10 -70 -31 -81l2 -3l42 1h241z" />
    <glyph glyph-name="yen.tosf" 
d="M381 256h119v-77h-139v-179h-100v179h-137v77h117l-22 47h-95v77h57l-86 180h109l74 -172c24 -56 35 -81 33 -75h3l34 75l73 172h106l-86 -180h59v-77h-96z" />
    <glyph glyph-name="yen" unicode="&#xa5;" horiz-adv-x="469" 
d="M305 256h118v-77h-138v-179h-100v179h-137v77h117l-23 47h-94v77h57l-86 180h109l73 -172l34 -75h2l13 28c9 20 16 36 21 47l73 172h106l-86 -180h59v-77h-96z" />
    <glyph glyph-name="asciitilde" unicode="~" 
d="M498 350l17 -86c-17 -29 -53 -44 -106 -44c-23 0 -53 7 -92 20s-70 19 -93 19c-39 0 -72 -14 -98 -41l-18 85c23 31 58 46 107 46c23 0 53 -6 92 -19s70 -20 93 -20c37 0 70 13 98 40z" />
    <glyph glyph-name="asciitilde.case" 
d="M498 420l17 -86c-17 -29 -53 -43 -106 -43c-23 0 -53 6 -92 19s-70 19 -93 19c-39 0 -72 -14 -98 -41l-18 85c23 31 58 46 107 46c23 0 53 -6 92 -19s70 -20 93 -20c37 0 70 13 98 40z" />
    <glyph glyph-name="divide.case" 
d="M312 480c-41 0 -62 20 -62 61c0 40 21 60 62 60s62 -20 62 -60c0 -41 -21 -61 -62 -61zM493 314h-364v88h364v-88zM312 117c-41 0 -62 20 -62 60s21 60 62 60s62 -20 62 -60s-21 -60 -62 -60z" />
    <glyph glyph-name="equal.case" 
d="M493 410h-364v88h364v-88zM493 215h-364v89h364v-89z" />
    <glyph glyph-name="greater.case" 
d="M416 354v3l-290 149v98l399 -209v-79l-399 -208v98z" />
    <glyph glyph-name="greaterequal.case" 
d="M423 408v3l-315 123v93l408 -164v-107l-408 -165v93zM516 0h-408v88h408v-88z" />
    <glyph glyph-name="less.case" 
d="M497 110l-399 209v79l399 208v-97l-290 -149v-3l290 -149v-98z" />
    <glyph glyph-name="lessequal.case" 
d="M516 191l-409 165v107l409 164v-93l-315 -123v-3l315 -124v-93zM516 88v-88h-409v88h409z" />
    <glyph glyph-name="minus.case" 
d="M493 313h-364v89h364v-89z" />
    <glyph glyph-name="multiply.case" 
d="M373 355l113 -119l-65 -62l-109 116l-109 -115l-65 61l113 119l-113 120l65 61l109 -116l109 115l65 -60z" />
    <glyph glyph-name="notequal.case" 
d="M376 412l-39 -106h156v-88h-189l-42 -112h-90l42 112h-85v88h119l40 106h-159v89h192l43 112h88l-43 -112h84v-89h-117z" />
    <glyph glyph-name="plus.case" 
d="M493 313h-135v-147h-92v147h-137v89h137v146h92v-146h135v-89z" />
    <glyph glyph-name="plusminus.case" 
d="M493 449v-88h-134v-154h-94v154h-136v88h136l-1 153h95v-153h134zM129 89h364v-88h-364v88z" />
    <glyph glyph-name="divide" unicode="&#xf7;" 
d="M312 406c-41 0 -62 20 -62 61c0 40 21 60 62 60s62 -20 62 -60c0 -41 -21 -61 -62 -61zM493 240h-364v88h364v-88zM312 42c-41 0 -62 20 -62 61c0 40 21 60 62 60s62 -20 62 -60c0 -41 -21 -61 -62 -61z" />
    <glyph glyph-name="equal" unicode="=" 
d="M493 340h-364v89h364v-89zM493 146h-364v88h364v-88z" />
    <glyph glyph-name="greater" unicode="&#x3e;" 
d="M416 286v3l-290 148v98l399 -208v-79l-399 -209v98z" />
    <glyph glyph-name="greaterequal" unicode="&#x2265;" 
d="M423 340v3l-315 119v95l408 -162v-107l-408 -163v95zM516 0h-408v88h408v-88z" />
    <glyph glyph-name="less" unicode="&#x3c;" 
d="M497 39l-399 209v79l399 208v-98l-290 -148v-3l290 -149v-98z" />
    <glyph glyph-name="lessequal" unicode="&#x2264;" 
d="M516 125l-409 163v107l409 162v-95l-315 -119v-3l315 -120v-95zM516 88v-88h-409v88h409z" />
    <glyph glyph-name="percent.lf" horiz-adv-x="772" 
d="M172 303c-92 0 -138 67 -138 202s46 203 138 203c91 0 137 -68 137 -203s-46 -202 -137 -202zM529 700l-210 -700h-76l209 700h77zM172 371c43 0 64 45 64 134s-21 134 -64 134s-65 -45 -65 -134s22 -134 65 -134zM600 -7c-92 0 -138 67 -138 202s46 202 138 202
s138 -67 138 -202s-46 -202 -138 -202zM600 61c43 0 65 45 65 134s-22 134 -65 134s-65 -45 -65 -134s22 -134 65 -134z" />
    <glyph glyph-name="perthousand.lf" horiz-adv-x="1105" 
d="M172 303c-92 0 -138 67 -138 202s46 203 138 203c91 0 137 -68 137 -203s-46 -202 -137 -202zM529 700l-210 -700h-76l209 700h77zM172 371c43 0 64 45 64 134s-21 134 -64 134s-65 -45 -65 -134s22 -134 65 -134zM600 -7c-92 0 -138 67 -138 202s46 202 138 202
s138 -67 138 -202s-46 -202 -138 -202zM934 -7c-92 0 -138 67 -138 202s46 202 138 202s138 -67 138 -202s-46 -202 -138 -202zM934 61c43 0 64 45 64 134s-21 134 -64 134s-65 -45 -65 -134s22 -134 65 -134zM600 61c43 0 65 45 65 134s-22 134 -65 134s-65 -45 -65 -134
s22 -134 65 -134z" />
    <glyph glyph-name="minus" unicode="&#x2212;" 
d="M493 242h-364v89h364v-89z" />
    <glyph glyph-name="multiply" unicode="&#xd7;" 
d="M373 286l113 -119l-65 -62l-109 116l-109 -116l-65 62l113 119l-113 120l65 60l109 -115l109 115l65 -61z" />
    <glyph glyph-name="notequal" unicode="&#x2260;" 
d="M376 340l-39 -106h156v-88h-189l-42 -112h-90l42 112h-85v88h119l40 106h-159v89h192l43 112h88l-43 -112h84v-89h-117z" />
    <glyph glyph-name="percent" unicode="%" horiz-adv-x="679" 
d="M157 221c-82 0 -123 58 -123 175s41 175 123 175c81 0 122 -58 122 -175s-41 -175 -122 -175zM462 560l-178 -560h-68l178 560h68zM157 292c36 0 54 35 54 104s-18 103 -54 103c-19 0 -33 -7 -41 -21c-9 -16 -14 -43 -14 -82c0 -69 18 -104 55 -104zM523 -6
c-82 0 -123 58 -123 175s41 175 123 175s123 -58 123 -175s-41 -175 -123 -175zM523 65c36 0 54 35 54 104s-18 103 -54 103c-37 0 -55 -34 -55 -103s18 -104 55 -104z" />
    <glyph glyph-name="perthousand" unicode="&#x2030;" horiz-adv-x="958" 
d="M157 221c-82 0 -123 58 -123 175s41 175 123 175c81 0 122 -58 122 -175s-41 -175 -122 -175zM462 560l-178 -560h-68l178 560h68zM157 292c36 0 54 35 54 104s-18 103 -54 103c-19 0 -33 -7 -41 -21c-9 -16 -14 -43 -14 -82c0 -69 18 -104 55 -104zM523 -6
c-82 0 -123 58 -123 175s41 175 123 175s123 -58 123 -175s-41 -175 -123 -175zM802 -6c-82 0 -123 58 -123 175s41 175 123 175c81 0 122 -58 122 -175s-41 -175 -122 -175zM523 65c36 0 54 35 54 104s-18 103 -54 103c-37 0 -55 -34 -55 -103s18 -104 55 -104zM802 65
c36 0 54 35 54 104s-18 103 -54 103c-19 0 -33 -7 -41 -21c-9 -16 -14 -43 -14 -82c0 -69 18 -104 55 -104z" />
    <glyph glyph-name="plus" unicode="+" 
d="M493 242h-135v-147h-92v147h-137v89h137v146h92v-146h135v-89z" />
    <glyph glyph-name="plusminus" unicode="&#xb1;" 
d="M493 400v-89h-135v-140h-92l-1 140h-136v89h136v143h93v-143h135zM129 89h364v-89h-364v89z" />
    <glyph glyph-name="percent.tf" 
d="M149 303c-86 0 -129 67 -129 202s43 203 129 203s129 -68 129 -203s-43 -202 -129 -202zM503 700l-319 -700h-64l319 700h64zM150 382c20 0 34 10 42 29s12 50 12 94c0 45 -4 76 -12 95s-22 29 -42 29c-37 0 -55 -41 -55 -124c0 -82 18 -123 55 -123zM475 -7
c-87 0 -130 67 -130 202s43 202 130 202c85 0 128 -67 128 -202s-43 -202 -128 -202zM475 71c20 0 34 10 42 30c8 19 12 50 12 94s-4 75 -12 94s-22 29 -42 29c-21 0 -35 -10 -43 -29s-12 -50 -12 -94s4 -75 12 -94c8 -20 22 -30 43 -30z" />
    <glyph glyph-name="percent.tosf" 
d="M152 220c-75 0 -113 59 -113 176s38 175 113 175c41 0 70 -15 88 -45c16 -28 24 -71 24 -130s-8 -103 -24 -131c-18 -30 -47 -45 -88 -45zM431 560l-179 -560h-61l178 560h62zM152 291c17 0 30 8 37 25c7 15 10 42 10 80s-3 65 -10 80c-7 17 -20 25 -37 25
c-31 0 -46 -35 -46 -105s15 -105 46 -105zM471 -6c-41 0 -70 15 -87 45c-17 27 -25 71 -25 130s8 102 25 130c17 30 46 45 87 45c75 0 113 -58 113 -175c0 -59 -8 -103 -25 -130c-18 -30 -47 -45 -88 -45zM471 64c17 0 30 8 37 25c7 15 10 42 10 80s-3 65 -10 80
c-7 17 -20 25 -37 25c-31 0 -47 -35 -47 -105s16 -105 47 -105z" />
    <glyph glyph-name="lozenge" unicode="&#x25ca;" horiz-adv-x="710" 
d="M355 714l337 -364l-337 -363l-337 363zM355 114l218 236l-218 238l-218 -238z" />
    <glyph glyph-name="ampersand" unicode="&#x26;" horiz-adv-x="571" 
d="M464 240v-65c0 -124 -71 -186 -213 -186c-67 0 -119 15 -155 45c-34 29 -51 68 -51 117c0 39 10 71 31 96c18 22 41 36 68 41v3c-25 5 -45 17 -62 37c-21 24 -32 55 -32 94c0 99 63 149 189 149c121 0 195 -48 221 -145l-93 -25c-16 56 -56 84 -119 84s-95 -24 -95 -73
c0 -54 35 -81 104 -81h287v-90zM364 241h-111c-71 0 -107 -28 -107 -84c0 -55 36 -83 107 -83c74 0 111 35 111 106v61z" />
    <glyph glyph-name="uniF8FF" unicode="&#xf8ff;" horiz-adv-x="744" 
d="M681 127v-45h-44c-134 1 -209 9 -226 24l-40 33l-38 -33c-17 -16 -93 -24 -227 -24h-43v43c0 135 8 210 23 227l34 39l-34 38c-15 19 -23 94 -23 227v44h43c135 -1 212 -8 229 -23l38 -35l37 33c18 17 94 25 227 25h44v-44c-1 -135 -9 -211 -25 -227l-33 -38l36 -42
c14 -19 21 -93 22 -222zM157 480l79 -89l-79 -89c-2 -14 -4 -58 -7 -132c71 1 115 4 132 7l89 79l90 -79c18 -3 62 -6 133 -7c-2 63 -4 106 -7 130l-81 91l81 89c2 14 4 58 7 133c-65 -1 -109 -4 -132 -7l-91 -81l-88 81c-23 3 -68 6 -133 7c3 -75 5 -120 7 -133zM63 2l4 12
c8 -3 13 -4 14 -4c5 0 7 2 7 5c0 2 -3 4 -9 6c-10 3 -15 9 -15 16c0 11 7 17 21 17c7 0 12 -1 15 -3l-3 -12c-5 3 -9 4 -12 4c-5 0 -7 -1 -7 -4c0 -2 4 -4 11 -7c9 -3 14 -9 14 -16c0 -11 -8 -17 -24 -17c-7 0 -12 1 -16 3zM542 13l3 -12c-4 -1 -9 -2 -14 -2
c-19 0 -28 9 -28 26c0 19 10 29 29 29c7 0 11 -1 14 -2l-4 -12c-2 2 -5 3 -9 3c-10 0 -15 -6 -15 -17s5 -16 15 -16c4 0 7 1 9 3zM601 26c0 -18 -9 -27 -27 -27s-27 9 -27 27c0 19 9 28 27 28s27 -9 27 -28zM135 20v-20h-14v20l-17 33h17l7 -23l8 23h16zM170 35l1 -35h-14
v53h18l16 -32v32h13v-53h-15zM236 0h-13v42h-14v11h41v-11h-14v-42zM255 0v53h15v-20h18v20h14v-53h-14v21h-18v-21h-15zM357 53l-17 -53h-16l-17 53h16l9 -39l10 39h15zM362 0v53h15v-53h-15zM400 32h19v-11h-19v-10h21v-11h-36v53h36v-11h-21v-10zM460 35l-7 -35h-15
l-13 53h15l7 -36l6 36h15l6 -36l7 36h14l-13 -53h-16zM664 53l2 -53h-14v40l-11 -39h-10l-11 39l-1 -40h-14l4 53h19l8 -34l9 34h19zM562 26c0 -11 4 -16 12 -16c7 0 11 5 11 16s-4 17 -11 17c-8 0 -12 -6 -12 -17zM496 -1c4 0 6 2 6 6s-2 6 -6 6s-6 -2 -6 -6s2 -6 6 -6z
" />
    <glyph glyph-name="asciicircum" unicode="^" 
d="M312 612l-166 -247l-80 46l201 292h91l199 -292l-80 -46z" />
    <glyph glyph-name="at" unicode="@" horiz-adv-x="726" 
d="M444 133h-2c-19 -45 -55 -68 -109 -68c-45 0 -80 15 -107 45c-29 33 -43 80 -43 141c0 62 13 110 40 143c25 31 60 47 105 47c43 0 75 -16 95 -48h3v-129c0 65 -25 97 -74 97s-73 -36 -73 -108c0 -71 24 -107 72 -107c47 0 72 32 75 96v187h97v-204c0 -31 2 -52 7 -63
c5 -15 16 -22 33 -22c37 0 55 44 55 131c0 93 -22 165 -66 216c-43 50 -106 75 -187 75s-143 -26 -188 -77c-46 -53 -69 -127 -69 -222c0 -101 23 -176 68 -226c40 -45 97 -68 170 -68c66 0 124 20 175 59l58 -45c-57 -56 -134 -84 -231 -84c-98 0 -174 30 -228 89
c-59 63 -88 155 -88 277c0 111 30 201 91 268c61 66 141 99 240 99c103 0 184 -33 244 -99c58 -65 87 -152 87 -262c0 -63 -11 -112 -33 -148c-25 -39 -61 -59 -109 -59c-56 0 -92 23 -108 69z" />
    <glyph glyph-name="bar" unicode="|" horiz-adv-x="207" 
d="M60 775h87v-849h-87v849z" />
    <glyph glyph-name="brokenbar" unicode="&#xa6;" horiz-adv-x="207" 
d="M147 490h-87v285h87v-285zM147 -74h-87v285h87v-285z" />
    <glyph glyph-name="ampersand.case" horiz-adv-x="661" 
d="M536 318v-112c0 -146 -83 -219 -248 -219c-79 0 -140 18 -183 55c-40 35 -60 83 -60 145c0 50 13 92 40 125c24 29 54 46 89 52v3c-31 6 -58 22 -80 47c-26 31 -39 70 -39 118c0 57 19 102 57 133c39 32 94 48 167 48c139 0 222 -61 251 -182l-97 -26
c-17 78 -67 117 -150 117c-81 0 -121 -35 -121 -104c0 -72 44 -108 131 -108h347v-92h-104zM433 318h-145c-90 0 -135 -40 -135 -119c0 -78 46 -117 139 -117c94 0 141 46 141 139v97z" />
    <glyph glyph-name="at.case" horiz-adv-x="726" 
d="M444 216h-2c-19 -45 -55 -68 -109 -68c-45 0 -80 15 -107 46c-29 33 -43 80 -43 141s13 109 40 142c25 31 60 47 105 47c43 0 75 -16 95 -48h3v-129c0 65 -25 97 -74 97s-73 -36 -73 -108c0 -71 24 -107 72 -107c47 0 72 32 75 96v187h97v-204c0 -31 2 -52 7 -63
c5 -15 16 -22 33 -22c37 0 55 44 55 131c0 93 -22 165 -66 216c-43 50 -106 75 -187 75s-143 -26 -188 -77c-46 -53 -69 -126 -69 -221c0 -101 23 -177 68 -227c40 -45 97 -68 170 -68c69 0 127 20 175 60l58 -46c-57 -56 -134 -84 -231 -84c-98 0 -174 30 -228 89
c-59 63 -88 155 -88 277c0 111 30 201 91 268c61 66 141 99 240 99c103 0 184 -33 244 -99c58 -65 87 -152 87 -262c0 -63 -11 -112 -33 -148c-25 -39 -61 -59 -109 -59c-56 0 -92 23 -108 69z" />
    <glyph glyph-name="copyright.case" horiz-adv-x="724" 
d="M362 714c97 0 175 -32 236 -97c63 -67 94 -156 94 -267s-31 -200 -94 -267c-61 -65 -139 -97 -236 -97s-175 32 -236 97c-63 67 -94 156 -94 267s31 200 94 267c61 65 139 97 236 97zM362 656c-82 0 -147 -27 -196 -80c-50 -55 -75 -130 -75 -225c0 -96 25 -172 75 -227
c49 -54 114 -81 196 -81s147 27 196 81c50 55 75 131 75 227c0 95 -25 170 -75 225c-49 53 -114 80 -196 80zM449 284l65 -21c-27 -69 -79 -104 -156 -104c-52 0 -93 17 -124 50c-31 34 -47 81 -47 141s16 107 48 141c31 33 72 50 124 50c82 0 133 -38 154 -113l-66 -18
c-11 42 -40 63 -86 63c-68 0 -102 -41 -102 -122c0 -83 34 -124 102 -124c41 0 70 19 88 57z" />
    <glyph glyph-name="uni2116.case" horiz-adv-x="1048" 
d="M699 538c0 52 15 94 44 126c29 31 67 47 113 47s84 -16 113 -47c29 -32 44 -74 44 -126c0 -51 -15 -93 -45 -124c-29 -31 -67 -47 -112 -47c-46 0 -84 16 -113 47s-44 73 -44 124zM491 0l-323 514h-3l1 -53c1 -43 1 -82 1 -118v-343h-104v700h109l323 -513h3l-1 53
c-1 41 -1 79 -1 114v346h104v-700h-109zM766 538c0 -71 30 -107 90 -107c28 0 50 10 66 29s24 45 24 78c0 72 -30 108 -90 108c-28 0 -50 -10 -66 -29s-24 -46 -24 -79zM1004 239h-295v69h295v-69z" />
    <glyph glyph-name="paragraph.case" horiz-adv-x="575" 
d="M408 0v600h-76v-600h-104v349c-131 0 -196 59 -196 177c0 116 65 174 196 174h283l1 -700h-104z" />
    <glyph glyph-name="uni2117.case" horiz-adv-x="724" 
d="M362 714c97 0 175 -32 236 -97c63 -67 94 -156 94 -267s-31 -200 -94 -267c-61 -65 -139 -97 -236 -97s-175 32 -236 97c-63 67 -94 156 -94 267s31 200 94 267c61 65 139 97 236 97zM362 656c-82 0 -147 -27 -196 -80c-50 -55 -75 -130 -75 -225c0 -96 25 -172 75 -227
c49 -54 114 -81 196 -81s147 27 196 81c50 55 75 131 75 227c0 95 -25 170 -75 225c-49 53 -114 80 -196 80zM252 536h125c43 0 76 -11 100 -33c24 -23 36 -54 36 -93c0 -80 -48 -120 -145 -120h-44v-123h-72v369zM324 351h51c44 0 66 19 66 58c0 38 -22 57 -66 57h-51v-115
z" />
    <glyph glyph-name="registered.case" horiz-adv-x="724" 
d="M362 714c97 0 175 -32 236 -97c63 -67 94 -156 94 -267s-31 -200 -94 -267c-61 -65 -139 -97 -236 -97s-175 32 -236 97c-63 67 -94 156 -94 267s31 200 94 267c61 65 139 97 236 97zM362 656c-82 0 -147 -27 -196 -80c-50 -55 -75 -130 -75 -225c0 -96 25 -172 75 -227
c49 -54 114 -81 196 -81s147 27 196 81c50 55 75 131 75 227c0 95 -25 170 -75 225c-49 53 -114 80 -196 80zM431 167l-70 141c-6 -1 -15 -1 -28 -1h-25v-140h-73v369h128c44 0 78 -11 103 -32c24 -21 36 -49 36 -86c0 -50 -23 -82 -70 -97l79 -154h-80zM308 363h56
c42 0 63 18 63 54c0 35 -21 53 -64 53h-55v-107z" />
    <glyph glyph-name="copyright" unicode="&#xa9;" horiz-adv-x="724" 
d="M362 631c97 0 175 -32 236 -96c63 -67 94 -156 94 -268c0 -111 -31 -200 -94 -267c-61 -65 -139 -97 -236 -97s-175 32 -236 97c-63 67 -94 156 -94 267c0 112 31 201 94 268c60 64 139 96 236 96zM362 574c-82 0 -147 -27 -196 -80c-50 -55 -75 -130 -75 -226
s25 -171 75 -226c49 -54 114 -81 196 -81s147 27 196 81c50 55 75 131 75 226s-25 171 -75 226c-49 53 -114 80 -196 80zM449 201l65 -21c-27 -69 -79 -104 -156 -104c-52 0 -93 17 -124 50c-31 35 -47 82 -47 142s16 107 48 141c31 33 72 50 124 50c82 0 133 -38 154 -113
l-66 -18c-12 42 -41 63 -86 63c-68 0 -102 -41 -102 -123c0 -83 34 -124 102 -124c41 0 70 19 88 57z" />
    <glyph glyph-name="dagger" unicode="&#x2020;" 
d="M365 524h154v-94h-154v-125c0 -194 -5 -296 -14 -305h-78c-9 9 -14 111 -14 305v125h-154v94h154v176h106v-176z" />
    <glyph glyph-name="daggerdbl" unicode="&#x2021;" 
d="M519 207h-156c-3 -133 -7 -202 -12 -207h-78c-4 4 -8 73 -13 207h-155v93h154v130h-154v94h154v176h106v-176h154v-94h-154v-130h154v-93z" />
    <glyph glyph-name="degree" unicode="&#xb0;" horiz-adv-x="264" 
d="M132 582c-35 0 -62 11 -83 32c-22 21 -33 50 -33 87s11 66 33 87c21 21 48 32 83 32s63 -11 84 -32s32 -50 32 -87s-11 -66 -32 -87s-49 -32 -84 -32zM132 645c33 0 50 19 50 56s-17 56 -50 56s-50 -19 -50 -56s17 -56 50 -56z" />
    <glyph glyph-name="uni2116" unicode="&#x2116;" horiz-adv-x="964" 
d="M615 398c0 52 15 94 44 126c29 31 67 47 113 47s84 -16 113 -47c29 -32 44 -74 44 -126c0 -51 -15 -93 -45 -124c-29 -31 -67 -47 -112 -47c-46 0 -84 16 -113 47s-44 73 -44 124zM517 0h-105l-249 399h-3l1 -40v-359h-98v560h105l249 -391h2l-1 391h99v-560zM682 398
c0 -71 30 -107 90 -107c28 0 50 10 66 29s24 45 24 78c0 72 -30 108 -90 108c-28 0 -50 -10 -66 -29s-24 -46 -24 -79zM920 99h-295v69h295v-69z" />
    <glyph glyph-name="paragraph" unicode="&#xb6;" horiz-adv-x="575" 
d="M408 -140v600h-76v-600h-104v349c-131 0 -196 59 -196 177c0 116 65 174 196 174h283l1 -700h-104z" />
    <glyph glyph-name="uni2117" unicode="&#x2117;" horiz-adv-x="724" 
d="M362 631c97 0 175 -32 236 -96c63 -67 94 -156 94 -268c0 -111 -31 -200 -94 -267c-61 -65 -139 -97 -236 -97s-175 32 -236 97c-63 67 -94 156 -94 267c0 112 31 201 94 268c60 64 139 96 236 96zM362 574c-82 0 -147 -27 -196 -80c-50 -55 -75 -130 -75 -226
s25 -171 75 -226c49 -54 114 -81 196 -81s147 27 196 81c50 55 75 131 75 226s-25 171 -75 226c-49 53 -114 80 -196 80zM252 453h125c43 0 76 -11 100 -33s36 -53 36 -92c0 -80 -48 -120 -145 -120h-44v-124h-72v369zM324 269h51c44 0 66 19 66 58c0 38 -22 57 -66 57h-51
v-115z" />
    <glyph glyph-name="registered" unicode="&#xae;" horiz-adv-x="724" 
d="M362 631c97 0 175 -32 236 -96c63 -67 94 -156 94 -268c0 -111 -31 -200 -94 -267c-61 -65 -139 -97 -236 -97s-175 32 -236 97c-63 67 -94 156 -94 267c0 112 31 201 94 268c60 64 139 96 236 96zM362 574c-82 0 -147 -27 -196 -80c-50 -55 -75 -130 -75 -226
s25 -171 75 -226c49 -54 114 -81 196 -81s147 27 196 81c50 55 75 131 75 226s-25 171 -75 226c-49 53 -114 80 -196 80zM431 84l-70 141c-6 -1 -15 -1 -28 -1h-25v-140h-73v369h128c44 0 78 -10 103 -31c24 -21 36 -49 36 -86c0 -51 -23 -84 -70 -97l79 -155h-80zM308 280
h56c42 0 63 18 63 54s-21 54 -64 54h-55v-108z" />
    <glyph glyph-name="section" unicode="&#xa7;" 
d="M459 253c55 -25 82 -65 82 -120c0 -97 -73 -146 -218 -146c-65 0 -119 11 -161 33c-49 25 -77 61 -84 110l95 25c7 -60 54 -90 143 -90c79 0 119 24 119 73c0 25 -15 44 -46 56c-16 6 -63 17 -142 33c-109 24 -164 69 -164 134c0 54 29 91 86 112c-50 24 -75 61 -75 110
c0 87 68 131 204 131c133 0 210 -46 231 -137l-87 -24c-15 58 -63 87 -143 87c-67 0 -101 -19 -101 -56c0 -23 14 -39 41 -50c15 -6 53 -16 116 -29c65 -14 110 -29 136 -45c35 -22 53 -54 53 -95c0 -54 -28 -91 -85 -112zM177 375c0 -27 19 -47 56 -62
c17 -6 57 -16 122 -29l18 -4c49 10 74 33 74 69c0 28 -17 49 -50 63c-15 7 -53 16 -113 28l-22 5c-57 -9 -85 -33 -85 -70z" />
    <glyph glyph-name="trademark" unicode="&#x2122;" horiz-adv-x="729" 
d="M666 375h-66l1 238h-1l-11 -27c-8 -21 -15 -37 -21 -49l-41 -90h-38l-41 90c-29 57 -40 83 -35 78h-1l1 -42v-198h-63v325h80l55 -119c17 -35 26 -52 25 -51h1l75 170h80v-325zM295 700v-63h-99v-262h-67v262h-99v63h265z" />
    <glyph glyph-name="acute" unicode="&#xb4;" horiz-adv-x="498" 
d="M252 604h-95l98 166l86 -25z" />
    <glyph glyph-name="breve" unicode="&#x2d8;" horiz-adv-x="498" 
d="M95 753h78c1 -45 26 -67 74 -67c49 0 74 22 75 67h78c-2 -41 -17 -74 -44 -99s-64 -38 -109 -38s-82 12 -109 37s-42 58 -43 100z" />
    <glyph glyph-name="tilde.cap" horiz-adv-x="498" 
d="M385 883l20 -77c-15 -21 -42 -31 -81 -31c-19 0 -42 5 -71 15s-52 15 -70 15c-31 0 -55 -9 -71 -26l-20 77c16 21 43 32 81 32c18 0 42 -5 71 -15s52 -15 71 -15c29 0 52 8 70 25z" />
    <glyph glyph-name="caron" unicode="&#x2c7;" horiz-adv-x="498" 
d="M104 867l49 56l96 -78l96 78l49 -56l-145 -118z" />
    <glyph glyph-name="cedilla" unicode="&#xb8;" horiz-adv-x="498" 
d="M355 -84c0 -60 -40 -90 -121 -90c-36 0 -62 5 -79 14v69c14 -8 35 -12 62 -12c40 0 60 11 60 34c0 26 -34 39 -102 39v63l77 -1v-27c69 -6 103 -36 103 -89z" />
    <glyph glyph-name="circumflex" unicode="&#x2c6;" horiz-adv-x="498" 
d="M394 643l-50 -57l-95 80l-96 -80l-49 57l145 121z" />
    <glyph glyph-name="dieresis" unicode="&#xa8;" horiz-adv-x="498" 
d="M157 772c-15 0 -27 5 -37 15c-10 11 -15 24 -15 39s5 28 15 39c11 11 23 16 38 16s27 -5 37 -16s15 -24 15 -39s-5 -28 -15 -39c-10 -10 -23 -15 -38 -15zM340 772c-15 0 -27 5 -37 15c-10 11 -15 24 -15 39s5 28 15 39s22 16 37 16s27 -5 38 -16c10 -11 15 -24 15 -39
s-5 -28 -15 -39c-10 -10 -23 -15 -38 -15z" />
    <glyph glyph-name="dotaccent" unicode="&#x2d9;" horiz-adv-x="498" 
d="M249 772c-15 0 -28 5 -38 15c-10 11 -15 24 -15 39s5 28 15 39c11 11 23 16 38 16s27 -5 38 -16c10 -11 15 -24 15 -39s-5 -28 -15 -39c-10 -10 -23 -15 -38 -15z" />
    <glyph glyph-name="grave" unicode="`" horiz-adv-x="498" 
d="M243 767l98 -166h-95l-89 141z" />
    <glyph glyph-name="hungarumlaut" unicode="&#x2dd;" horiz-adv-x="498" 
d="M380 754h-95l98 166l86 -25zM202 754h-95l98 166l85 -25z" />
    <glyph glyph-name="caron.l" horiz-adv-x="498" 
d="M218 700h86c1 -69 -12 -135 -41 -196h-78c23 53 34 119 33 196z" />
    <glyph glyph-name="overscore" unicode="&#xaf;" horiz-adv-x="498" 
d="M392 771h-286v90h286v-90z" />
    <glyph glyph-name="ogonek" unicode="&#x2db;" horiz-adv-x="498" 
d="M284 59l30 -59c-55 -3 -82 -20 -82 -51c0 -29 17 -43 51 -43c27 0 51 6 70 17v-80c-19 -11 -47 -17 -82 -17c-37 0 -67 10 -90 30c-24 20 -36 46 -36 78c0 31 11 58 33 81c25 25 60 39 106 44z" />
    <glyph glyph-name="ring" unicode="&#x2da;" horiz-adv-x="498" 
d="M249 737c-33 0 -59 9 -78 27c-20 19 -30 43 -30 74s10 55 30 74c19 18 45 27 78 27s59 -9 78 -27c20 -19 30 -43 30 -74s-10 -55 -30 -74c-19 -18 -45 -27 -78 -27zM249 796c28 0 42 14 42 42s-14 42 -42 42s-42 -14 -42 -42s14 -42 42 -42z" />
    <glyph glyph-name="tilde" unicode="&#x2dc;" horiz-adv-x="498" 
d="M369 714l19 -78c-11 -20 -34 -30 -71 -30c-17 0 -38 5 -64 15s-47 15 -63 15c-26 0 -47 -9 -63 -26l-19 78c13 21 37 31 71 31c17 0 38 -5 64 -15c27 -10 48 -15 64 -15c25 0 45 8 62 25z" />
    <glyph glyph-name="uni0326" unicode="&#x326;" horiz-adv-x="0" 
d="M240 -115c-13 -1 -24 2 -33 10c-9 7 -13 17 -13 30c0 31 19 47 56 47c40 0 60 -20 60 -60c0 -54 -29 -91 -88 -111l-33 38c26 8 43 23 51 46z" />
    <glyph glyph-name="Itilde" unicode="&#x128;" horiz-adv-x="232" 
d="M63 0v700h106v-700h-106zM237 854l19 -78c-11 -20 -34 -30 -71 -30c-17 0 -38 5 -64 15s-47 15 -63 15c-26 0 -47 -9 -63 -26l-19 78c13 21 37 31 71 31c17 0 38 -5 64 -15c27 -10 48 -15 64 -15c25 0 45 8 62 25z" />
    <glyph glyph-name="Utilde" unicode="&#x168;" horiz-adv-x="629" 
d="M573 700v-429c0 -93 -23 -163 -68 -212c-44 -48 -108 -72 -191 -72s-147 24 -192 72c-45 49 -67 119 -67 212v429h107v-428c0 -123 51 -184 153 -184c103 0 155 61 155 184v428h103zM435 854l19 -78c-11 -20 -34 -30 -71 -30c-17 0 -38 5 -64 15s-47 15 -63 15
c-26 0 -47 -9 -63 -26l-19 78c13 21 37 31 71 31c17 0 38 -5 64 -15c27 -10 48 -15 64 -15c25 0 45 8 62 25z" />
    <glyph glyph-name="utilde" unicode="&#x169;" horiz-adv-x="556" 
d="M500 560v-333c0 -159 -74 -238 -222 -238c-149 0 -223 79 -223 238v333h102v-341c0 -91 41 -137 122 -137s122 46 122 137v341h99zM399 714l19 -78c-11 -20 -34 -30 -71 -30c-17 0 -38 5 -64 15s-47 15 -63 15c-26 0 -47 -9 -63 -26l-19 78c13 21 37 31 71 31
c17 0 38 -5 64 -15c27 -10 48 -15 64 -15c25 0 45 8 62 25z" />
    <glyph glyph-name="Ohorn" unicode="&#x1a0;" horiz-adv-x="708" 
d="M199 155c38 -45 90 -67 155 -67s116 22 155 66c40 47 60 112 60 196c0 85 -20 150 -60 197c-38 44 -90 66 -155 66s-117 -22 -155 -66c-40 -47 -60 -112 -60 -196c0 -85 20 -150 60 -196zM633 552c29 -56 43 -123 43 -202c0 -113 -30 -203 -90 -268
c-59 -63 -136 -95 -232 -95c-97 0 -174 32 -232 95c-60 65 -90 155 -90 268s30 203 90 268c58 63 135 95 232 95s174 -31 232 -94l2 -2c16 11 24 27 24 50v32h72v-34c-1 -53 -18 -90 -51 -113z" />
    <glyph glyph-name="ohorn" unicode="&#x1a1;" horiz-adv-x="591" 
d="M179 133c29 -34 68 -51 117 -51s88 17 117 51c29 35 44 84 44 147s-15 112 -44 147c-29 34 -68 51 -117 51s-88 -17 -117 -51c-30 -35 -45 -84 -45 -147s15 -112 45 -147zM538 410c14 -38 21 -81 21 -130c0 -90 -25 -161 -74 -214c-47 -51 -110 -77 -189 -77
s-142 26 -190 77c-49 53 -74 124 -74 214c0 91 25 162 74 215c48 51 111 76 190 76s142 -25 189 -76c5 -5 9 -10 13 -15c15 10 23 26 23 48v32h72v-34c-1 -55 -19 -93 -55 -116z" />
    <glyph glyph-name="Uhorn" unicode="&#x1af;" horiz-adv-x="629" 
d="M573 530v-259c0 -93 -23 -163 -68 -212c-44 -48 -108 -72 -191 -72s-147 24 -192 72c-45 49 -67 119 -67 212v429h107v-428c0 -123 51 -184 153 -184c103 0 155 61 155 184v428h103v-88c23 10 34 28 34 55v32h72v-34c-1 -76 -36 -121 -106 -135z" />
    <glyph glyph-name="uhorn" unicode="&#x1b0;" horiz-adv-x="556" 
d="M500 391v-164c0 -159 -74 -238 -222 -238c-149 0 -223 79 -223 238v333h102v-341c0 -91 41 -137 122 -137s122 46 122 137v341h99v-87c23 9 35 28 35 55v32h72v-34c-1 -77 -36 -122 -107 -135z" />
    <glyph glyph-name="uni1EA0" unicode="&#x1ea0;" horiz-adv-x="655" 
d="M470 162h-288l-54 -162h-110l246 700h127l246 -700h-112zM438 259l-110 328h-3l-110 -328h223zM328 -180c-41 0 -62 20 -62 61c0 40 21 60 62 60s62 -20 62 -60c0 -41 -21 -61 -62 -61z" />
    <glyph glyph-name="uni1EA1" unicode="&#x1ea1;" horiz-adv-x="542" 
d="M380 130h-220l-41 -130h-101l189 560h128l189 -560h-103zM352 216l-35 112c-35 109 -51 159 -46 150h-3l-47 -155l-34 -107h165zM271 -180c-41 0 -62 20 -62 61c0 40 21 60 62 60s62 -20 62 -60c0 -41 -21 -61 -62 -61z" />
    <glyph glyph-name="uni1EA2" unicode="&#x1ea2;" horiz-adv-x="655" 
d="M470 162h-288l-54 -162h-110l246 700h127l246 -700h-112zM438 259l-110 328h-3l-110 -328h223zM400 895c24 -43 11 -80 -40 -112c-23 -15 -45 -22 -64 -22l-33 57c24 0 43 5 57 14c20 13 27 25 22 34c-7 12 -31 6 -72 -19l-29 54l52 30c51 13 86 1 107 -36z" />
    <glyph glyph-name="uni1EA3" unicode="&#x1ea3;" horiz-adv-x="542" 
d="M380 130h-220l-41 -130h-101l189 560h128l189 -560h-103zM352 216l-35 112c-35 109 -51 159 -46 150h-3l-47 -155l-34 -107h165zM344 755c24 -43 11 -80 -40 -112c-23 -15 -45 -22 -64 -22l-33 57c24 0 43 5 57 14c20 13 27 25 22 34c-7 12 -31 6 -72 -19l-29 54l52 30
c51 13 86 1 107 -36z" />
    <glyph glyph-name="uni1EA4" unicode="&#x1ea4;" horiz-adv-x="655" 
d="M470 162h-288l-54 -162h-110l246 700h127l246 -700h-112zM438 259l-110 328h-3l-110 -328h223zM474 786l-50 -57l-95 80l-96 -80l-49 57l145 121zM489 891h-95l98 166l86 -25z" />
    <glyph glyph-name="uni1EA5" unicode="&#x1ea5;" horiz-adv-x="542" 
d="M380 130h-220l-41 -130h-101l189 560h128l189 -560h-103zM352 216l-35 112c-35 109 -51 159 -46 150h-3l-47 -155l-34 -107h165zM416 643l-50 -57l-95 80l-96 -80l-49 57l145 121zM438 730h-95l98 166l86 -25z" />
    <glyph glyph-name="uni1EA6" unicode="&#x1ea6;" horiz-adv-x="655" 
d="M470 162h-288l-54 -162h-110l246 700h127l246 -700h-112zM438 259l-110 328h-3l-110 -328h223zM473 786l-50 -57l-95 80l-96 -80l-49 57l145 121zM420 1050l98 -166h-95l-89 141z" />
    <glyph glyph-name="uni1EA7" unicode="&#x1ea7;" horiz-adv-x="542" 
d="M380 130h-220l-41 -130h-101l189 560h128l189 -560h-103zM352 216l-35 112c-35 109 -51 159 -46 150h-3l-47 -155l-34 -107h165zM416 643l-50 -57l-95 80l-96 -80l-49 57l145 121zM377 896l98 -166h-95l-89 141z" />
    <glyph glyph-name="uni1EA8" unicode="&#x1ea8;" horiz-adv-x="655" 
d="M470 162h-288l-54 -162h-110l246 700h127l246 -700h-112zM438 259l-110 328h-3l-110 -328h223zM473 786l-50 -57l-95 80l-96 -80l-49 57l145 121zM538 985c24 -43 11 -80 -40 -112c-23 -15 -45 -22 -64 -22l-33 57c24 0 43 5 57 14c20 13 27 25 22 34
c-7 12 -31 6 -72 -19l-29 54l52 30c51 13 86 1 107 -36z" />
    <glyph glyph-name="uni1EA9" unicode="&#x1ea9;" horiz-adv-x="542" 
d="M380 130h-220l-41 -130h-101l189 560h128l189 -560h-103zM352 216l-35 112c-35 109 -51 159 -46 150h-3l-47 -155l-34 -107h165zM416 643l-50 -57l-95 80l-96 -80l-49 57l145 121zM488 864c24 -43 11 -80 -40 -112c-23 -15 -45 -22 -64 -22l-33 57c24 0 43 5 57 14
c20 13 27 25 22 34c-7 12 -31 6 -72 -19l-29 54l52 30c51 13 86 1 107 -36z" />
    <glyph glyph-name="uni1EAA" unicode="&#x1eaa;" horiz-adv-x="655" 
d="M470 162h-288l-54 -162h-110l246 700h127l246 -700h-112zM438 259l-110 328h-3l-110 -328h223zM473 787l-50 -57l-95 80l-96 -80l-49 57l145 121zM473 1025l19 -78c-11 -20 -34 -30 -71 -30c-17 0 -38 5 -64 15s-47 15 -63 15c-26 0 -47 -9 -63 -26l-19 78
c13 21 37 31 71 31c17 0 38 -5 64 -15c27 -10 48 -15 64 -15c25 0 45 8 62 25z" />
    <glyph glyph-name="uni1EAB" unicode="&#x1eab;" horiz-adv-x="542" 
d="M380 130h-220l-41 -130h-101l189 560h128l189 -560h-103zM352 216l-35 112c-35 109 -51 159 -46 150h-3l-47 -155l-34 -107h165zM416 643l-50 -57l-95 80l-96 -80l-49 57l145 121zM392 900l19 -78c-11 -20 -34 -30 -71 -30c-17 0 -38 5 -64 15s-47 15 -63 15
c-26 0 -47 -9 -63 -26l-19 78c13 21 37 31 71 31c17 0 38 -5 64 -15c27 -10 48 -15 64 -15c25 0 45 8 62 25z" />
    <glyph glyph-name="uni1EAC" unicode="&#x1eac;" horiz-adv-x="655" 
d="M470 162h-288l-54 -162h-110l246 700h127l246 -700h-112zM438 259l-110 328h-3l-110 -328h223zM473 783l-50 -57l-95 80l-96 -80l-49 57l145 121zM328 -180c-41 0 -62 20 -62 61c0 40 21 60 62 60s62 -20 62 -60c0 -41 -21 -61 -62 -61z" />
    <glyph glyph-name="uni1EAD" unicode="&#x1ead;" horiz-adv-x="542" 
d="M380 130h-220l-41 -130h-101l189 560h128l189 -560h-103zM352 216l-35 112c-35 109 -51 159 -46 150h-3l-47 -155l-34 -107h165zM416 643l-50 -57l-95 80l-96 -80l-49 57l145 121zM271 -180c-41 0 -62 20 -62 61c0 40 21 60 62 60s62 -20 62 -60c0 -41 -21 -61 -62 -61z
" />
    <glyph glyph-name="uni1EAE" unicode="&#x1eae;" horiz-adv-x="655" 
d="M470 162h-288l-54 -162h-110l246 700h127l246 -700h-112zM438 259l-110 328h-3l-110 -328h223zM175 896h78c1 -45 26 -67 74 -67c49 0 74 22 75 67h78c-2 -41 -17 -74 -44 -99s-64 -38 -109 -38s-82 12 -109 37s-42 58 -43 100zM374 908h-95l98 166l86 -25z" />
    <glyph glyph-name="uni1EAF" unicode="&#x1eaf;" horiz-adv-x="542" 
d="M380 130h-220l-41 -130h-101l189 560h128l189 -560h-103zM352 216l-35 112c-35 109 -51 159 -46 150h-3l-47 -155l-34 -107h165zM119 753h78c1 -45 26 -67 74 -67c49 0 74 22 75 67h78c-2 -41 -17 -74 -44 -99s-64 -38 -109 -38s-82 12 -109 37s-42 58 -43 100zM305 795
h-95l98 166l86 -25z" />
    <glyph glyph-name="uni1EB0" unicode="&#x1eb0;" horiz-adv-x="655" 
d="M470 162h-288l-54 -162h-110l246 700h127l246 -700h-112zM438 259l-110 328h-3l-110 -328h223zM175 894h78c1 -45 26 -67 74 -67c49 0 74 22 75 67h78c-2 -41 -17 -74 -44 -99s-64 -38 -109 -38s-82 12 -109 37s-42 58 -43 100zM279 1071l98 -166h-95l-89 141z" />
    <glyph glyph-name="uni1EB1" unicode="&#x1eb1;" horiz-adv-x="542" 
d="M380 130h-220l-41 -130h-101l189 560h128l189 -560h-103zM352 216l-35 112c-35 109 -51 159 -46 150h-3l-47 -155l-34 -107h165zM119 753h78c1 -45 26 -67 74 -67c49 0 74 22 75 67h78c-2 -41 -17 -74 -44 -99s-64 -38 -109 -38s-82 12 -109 37s-42 58 -43 100zM234 961
l98 -166h-95l-89 141z" />
    <glyph glyph-name="uni1EB2" unicode="&#x1eb2;" horiz-adv-x="655" 
d="M470 162h-288l-54 -162h-110l246 700h127l246 -700h-112zM438 259l-110 328h-3l-110 -328h223zM175 889h78c1 -45 26 -67 74 -67c49 0 74 22 75 67h78c-2 -41 -17 -74 -44 -99s-64 -38 -109 -38s-82 12 -109 37s-42 58 -43 100zM418 985c24 -32 11 -60 -40 -84
c-23 -11 -45 -16 -64 -16l-33 43c24 0 43 3 57 10c20 10 27 19 22 26c-7 9 -31 4 -72 -15l-29 41l52 22c51 10 86 1 107 -27z" />
    <glyph glyph-name="uni1EB3" unicode="&#x1eb3;" horiz-adv-x="542" 
d="M380 130h-220l-41 -130h-101l189 560h128l189 -560h-103zM352 216l-35 112c-35 109 -51 159 -46 150h-3l-47 -155l-34 -107h165zM119 753h78c1 -45 26 -67 74 -67c49 0 74 22 75 67h78c-2 -41 -17 -74 -44 -99s-64 -38 -109 -38s-82 12 -109 37s-42 58 -43 100zM344 923
c24 -43 11 -80 -40 -112c-23 -15 -45 -22 -64 -22l-33 57c24 0 43 5 57 14c20 13 27 25 22 34c-7 12 -31 6 -72 -19l-29 54l52 30c51 13 86 1 107 -36z" />
    <glyph glyph-name="uni1EB4" unicode="&#x1eb4;" horiz-adv-x="655" 
d="M470 162h-288l-54 -162h-110l246 700h127l246 -700h-112zM438 259l-110 328h-3l-110 -328h223zM175 899h78c1 -45 26 -67 74 -67c49 0 74 22 75 67h78c-2 -41 -17 -74 -44 -99s-64 -38 -109 -38s-82 12 -109 37s-42 58 -43 100zM452 1038l19 -78c-11 -20 -34 -30 -71 -30
c-17 0 -38 5 -64 15s-47 15 -63 15c-26 0 -47 -9 -63 -26l-19 78c13 21 37 31 71 31c17 0 38 -5 64 -15c27 -10 48 -15 64 -15c25 0 45 8 62 25z" />
    <glyph glyph-name="uni1EB5" unicode="&#x1eb5;" horiz-adv-x="542" 
d="M380 130h-220l-41 -130h-101l189 560h128l189 -560h-103zM352 216l-35 112c-35 109 -51 159 -46 150h-3l-47 -155l-34 -107h165zM119 753h78c1 -45 26 -67 74 -67c49 0 74 22 75 67h78c-2 -41 -17 -74 -44 -99s-64 -38 -109 -38s-82 12 -109 37s-42 58 -43 100zM392 889
l19 -78c-11 -20 -34 -30 -71 -30c-17 0 -38 5 -64 15s-47 15 -63 15c-26 0 -47 -9 -63 -26l-19 78c13 21 37 31 71 31c17 0 38 -5 64 -15c27 -10 48 -15 64 -15c25 0 45 8 62 25z" />
    <glyph glyph-name="uni1EB6" unicode="&#x1eb6;" horiz-adv-x="655" 
d="M470 162h-288l-54 -162h-110l246 700h127l246 -700h-112zM438 259l-110 328h-3l-110 -328h223zM175 893h78c1 -45 26 -67 74 -67c49 0 74 22 75 67h78c-2 -41 -17 -74 -44 -99s-64 -38 -109 -38s-82 12 -109 37s-42 58 -43 100zM328 -180c-41 0 -62 20 -62 61
c0 40 21 60 62 60s62 -20 62 -60c0 -41 -21 -61 -62 -61z" />
    <glyph glyph-name="uni1EB7" unicode="&#x1eb7;" horiz-adv-x="542" 
d="M380 130h-220l-41 -130h-101l189 560h128l189 -560h-103zM352 216l-35 112c-35 109 -51 159 -46 150h-3l-47 -155l-34 -107h165zM119 753h78c1 -45 26 -67 74 -67c49 0 74 22 75 67h78c-2 -41 -17 -74 -44 -99s-64 -38 -109 -38s-82 12 -109 37s-42 58 -43 100zM271 -180
c-41 0 -62 20 -62 61c0 40 21 60 62 60s62 -20 62 -60c0 -41 -21 -61 -62 -61z" />
    <glyph glyph-name="uni1EB8" unicode="&#x1eb8;" horiz-adv-x="545" 
d="M63 0v700h437v-99h-331v-188h255v-100h-255v-214h334v-99h-440zM283 -180c-41 0 -62 20 -62 61c0 40 21 60 62 60s62 -20 62 -60c0 -41 -21 -61 -62 -61z" />
    <glyph glyph-name="uni1EB9" unicode="&#x1eb9;" horiz-adv-x="480" 
d="M63 0v560h370v-94h-270v-133h204v-91h-204v-148h275v-94h-375zM251 -180c-41 0 -62 20 -62 61c0 40 21 60 62 60s62 -20 62 -60c0 -41 -21 -61 -62 -61z" />
    <glyph glyph-name="uni1EBA" unicode="&#x1eba;" horiz-adv-x="545" 
d="M63 0v700h437v-99h-331v-188h255v-100h-255v-214h334v-99h-440zM356 895c24 -43 11 -80 -40 -112c-23 -15 -45 -22 -64 -22l-33 57c24 0 43 5 57 14c20 13 27 25 22 34c-7 12 -31 6 -72 -19l-29 54l52 30c51 13 86 1 107 -36z" />
    <glyph glyph-name="uni1EBB" unicode="&#x1ebb;" horiz-adv-x="480" 
d="M63 0v560h370v-94h-270v-133h204v-91h-204v-148h275v-94h-375zM323 755c24 -43 11 -80 -40 -112c-23 -15 -45 -22 -64 -22l-33 57c24 0 43 5 57 14c20 13 27 25 22 34c-7 12 -31 6 -72 -19l-29 54l52 30c51 13 86 1 107 -36z" />
    <glyph glyph-name="uni1EBC" unicode="&#x1ebc;" horiz-adv-x="545" 
d="M63 0v700h437v-99h-331v-188h255v-100h-255v-214h334v-99h-440zM404 854l19 -78c-11 -20 -34 -30 -71 -30c-17 0 -38 5 -64 15s-47 15 -63 15c-26 0 -47 -9 -63 -26l-19 78c13 21 37 31 71 31c17 0 38 -5 64 -15c27 -10 48 -15 64 -15c25 0 45 8 62 25z" />
    <glyph glyph-name="uni1EBD" unicode="&#x1ebd;" horiz-adv-x="480" 
d="M63 0v560h370v-94h-270v-133h204v-91h-204v-148h275v-94h-375zM372 714l19 -78c-11 -20 -34 -30 -71 -30c-17 0 -38 5 -64 15s-47 15 -63 15c-26 0 -47 -9 -63 -26l-19 78c13 21 37 31 71 31c17 0 38 -5 64 -15c27 -10 48 -15 64 -15c25 0 45 8 62 25z" />
    <glyph glyph-name="uni1EBE" unicode="&#x1ebe;" horiz-adv-x="545" 
d="M63 0v700h437v-99h-331v-188h255v-100h-255v-214h334v-99h-440zM429 786l-50 -57l-95 80l-96 -80l-49 57l145 121zM444 891h-95l98 166l86 -25z" />
    <glyph glyph-name="uni1EBF" unicode="&#x1ebf;" horiz-adv-x="480" 
d="M63 0v560h370v-94h-270v-133h204v-91h-204v-148h275v-94h-375zM396 643l-50 -57l-95 80l-96 -80l-49 57l145 121zM428 730h-95l98 166l86 -25z" />
    <glyph glyph-name="uni1EC0" unicode="&#x1ec0;" horiz-adv-x="545" 
d="M63 0v700h437v-99h-331v-188h255v-100h-255v-214h334v-99h-440zM428 786l-50 -57l-95 80l-96 -80l-49 57l145 121zM375 1050l98 -166h-95l-89 141z" />
    <glyph glyph-name="uni1EC1" unicode="&#x1ec1;" horiz-adv-x="480" 
d="M63 0v560h370v-94h-270v-133h204v-91h-204v-148h275v-94h-375zM396 643l-50 -57l-95 80l-96 -80l-49 57l145 121zM337 896l98 -166h-95l-89 141z" />
    <glyph glyph-name="uni1EC2" unicode="&#x1ec2;" horiz-adv-x="545" 
d="M63 0v700h437v-99h-331v-188h255v-100h-255v-214h334v-99h-440zM428 786l-50 -57l-95 80l-96 -80l-49 57l145 121zM493 985c24 -43 11 -80 -40 -112c-23 -15 -45 -22 -64 -22l-33 57c24 0 43 5 57 14c20 13 27 25 22 34c-7 12 -31 6 -72 -19l-29 54l52 30
c51 13 86 1 107 -36z" />
    <glyph glyph-name="uni1EC3" unicode="&#x1ec3;" horiz-adv-x="480" 
d="M63 0v560h370v-94h-270v-133h204v-91h-204v-148h275v-94h-375zM396 643l-50 -57l-95 80l-96 -80l-49 57l145 121zM467 864c24 -43 11 -80 -40 -112c-23 -15 -45 -22 -64 -22l-33 57c24 0 43 5 57 14c20 13 27 25 22 34c-7 12 -31 6 -72 -19l-29 54l52 30
c51 13 86 1 107 -36z" />
    <glyph glyph-name="uni1EC4" unicode="&#x1ec4;" horiz-adv-x="545" 
d="M63 0v700h437v-99h-331v-188h255v-100h-255v-214h334v-99h-440zM428 787l-50 -57l-95 80l-96 -80l-49 57l145 121zM428 1025l19 -78c-11 -20 -34 -30 -71 -30c-17 0 -38 5 -64 15s-47 15 -63 15c-26 0 -47 -9 -63 -26l-19 78c13 21 37 31 71 31c17 0 38 -5 64 -15
c27 -10 48 -15 64 -15c25 0 45 8 62 25z" />
    <glyph glyph-name="uni1EC5" unicode="&#x1ec5;" horiz-adv-x="480" 
d="M63 0v560h370v-94h-270v-133h204v-91h-204v-148h275v-94h-375zM396 643l-50 -57l-95 80l-96 -80l-49 57l145 121zM372 900l19 -78c-11 -20 -34 -30 -71 -30c-17 0 -38 5 -64 15s-47 15 -63 15c-26 0 -47 -9 -63 -26l-19 78c13 21 37 31 71 31c17 0 38 -5 64 -15
c27 -10 48 -15 64 -15c25 0 45 8 62 25z" />
    <glyph glyph-name="uni1EC6" unicode="&#x1ec6;" horiz-adv-x="545" 
d="M63 0v700h437v-99h-331v-188h255v-100h-255v-214h334v-99h-440zM428 783l-50 -57l-95 80l-96 -80l-49 57l145 121zM283 -180c-41 0 -62 20 -62 61c0 40 21 60 62 60s62 -20 62 -60c0 -41 -21 -61 -62 -61z" />
    <glyph glyph-name="uni1EC7" unicode="&#x1ec7;" horiz-adv-x="480" 
d="M63 0v560h370v-94h-270v-133h204v-91h-204v-148h275v-94h-375zM396 643l-50 -57l-95 80l-96 -80l-49 57l145 121zM251 -180c-41 0 -62 20 -62 61c0 40 21 60 62 60s62 -20 62 -60c0 -41 -21 -61 -62 -61z" />
    <glyph glyph-name="uni1EC8" unicode="&#x1ec8;" horiz-adv-x="232" 
d="M63 0v700h106v-700h-106zM189 895c24 -43 11 -80 -40 -112c-23 -15 -45 -22 -64 -22l-33 57c24 0 43 5 57 14c20 13 27 25 22 34c-7 12 -31 6 -72 -19l-29 54l52 30c51 13 86 1 107 -36z" />
    <glyph glyph-name="uni1EC9" unicode="&#x1ec9;" horiz-adv-x="227" 
d="M63 0v560h100v-560h-100zM186 755c24 -43 11 -80 -40 -112c-23 -15 -45 -22 -64 -22l-33 57c24 0 43 5 57 14c20 13 27 25 22 34c-7 12 -31 6 -72 -19l-29 54l52 30c51 13 86 1 107 -36z" />
    <glyph glyph-name="uni1ECA" unicode="&#x1eca;" horiz-adv-x="232" 
d="M63 0v700h106v-700h-106zM116 -180c-41 0 -62 20 -62 61c0 40 21 60 62 60s62 -20 62 -60c0 -41 -21 -61 -62 -61z" />
    <glyph glyph-name="uni1ECB" unicode="&#x1ecb;" horiz-adv-x="227" 
d="M63 0v560h100v-560h-100zM113 -180c-41 0 -62 20 -62 61c0 40 21 60 62 60s62 -20 62 -60c0 -41 -21 -61 -62 -61z" />
    <glyph glyph-name="uni1ECC" unicode="&#x1ecc;" horiz-adv-x="708" 
d="M32 350c0 113 30 203 90 268c58 63 135 95 232 95s174 -31 232 -94c60 -65 90 -155 90 -269c0 -113 -30 -203 -90 -268c-59 -63 -136 -95 -232 -95c-97 0 -174 32 -232 95c-60 65 -90 155 -90 268zM139 351c0 -85 20 -150 60 -196c38 -45 90 -67 155 -67s116 22 155 66
c40 47 60 112 60 196c0 85 -20 150 -60 197c-38 44 -90 66 -155 66s-117 -22 -155 -66c-40 -47 -60 -112 -60 -196zM354 -180c-41 0 -62 20 -62 61c0 40 21 60 62 60s62 -20 62 -60c0 -41 -21 -61 -62 -61z" />
    <glyph glyph-name="uni1ECD" unicode="&#x1ecd;" horiz-adv-x="591" 
d="M32 280c0 91 25 162 74 215c48 51 111 76 190 76s142 -25 189 -76c49 -53 74 -124 74 -215c0 -90 -25 -161 -74 -214c-47 -51 -110 -77 -189 -77s-142 26 -190 77c-49 53 -74 124 -74 214zM134 280c0 -63 15 -112 45 -147c29 -34 68 -51 117 -51s88 17 117 51
c29 35 44 84 44 147s-15 112 -44 147c-29 34 -68 51 -117 51s-88 -17 -117 -51c-30 -35 -45 -84 -45 -147zM296 -180c-41 0 -62 20 -62 61c0 40 21 60 62 60s62 -20 62 -60c0 -41 -21 -61 -62 -61z" />
    <glyph glyph-name="uni1ECE" unicode="&#x1ece;" horiz-adv-x="708" 
d="M32 350c0 113 30 203 90 268c58 63 135 95 232 95s174 -31 232 -94c60 -65 90 -155 90 -269c0 -113 -30 -203 -90 -268c-59 -63 -136 -95 -232 -95c-97 0 -174 32 -232 95c-60 65 -90 155 -90 268zM139 351c0 -85 20 -150 60 -196c38 -45 90 -67 155 -67s116 22 155 66
c40 47 60 112 60 196c0 85 -20 150 -60 197c-38 44 -90 66 -155 66s-117 -22 -155 -66c-40 -47 -60 -112 -60 -196zM427 895c24 -43 11 -80 -40 -112c-23 -15 -45 -22 -64 -22l-33 57c24 0 43 5 57 14c20 13 27 25 22 34c-7 12 -31 6 -72 -19l-29 54l52 30
c51 13 86 1 107 -36z" />
    <glyph glyph-name="uni1ECF" unicode="&#x1ecf;" horiz-adv-x="591" 
d="M32 280c0 91 25 162 74 215c48 51 111 76 190 76s142 -25 189 -76c49 -53 74 -124 74 -215c0 -90 -25 -161 -74 -214c-47 -51 -110 -77 -189 -77s-142 26 -190 77c-49 53 -74 124 -74 214zM134 280c0 -63 15 -112 45 -147c29 -34 68 -51 117 -51s88 17 117 51
c29 35 44 84 44 147s-15 112 -44 147c-29 34 -68 51 -117 51s-88 -17 -117 -51c-30 -35 -45 -84 -45 -147zM368 755c24 -43 11 -80 -40 -112c-23 -15 -45 -22 -64 -22l-33 57c24 0 43 5 57 14c20 13 27 25 22 34c-7 12 -31 6 -72 -19l-29 54l52 30c51 13 86 1 107 -36z" />
    <glyph glyph-name="uni1ED0" unicode="&#x1ed0;" horiz-adv-x="708" 
d="M32 350c0 113 30 203 90 268c58 63 135 95 232 95s174 -31 232 -94c60 -65 90 -155 90 -269c0 -113 -30 -203 -90 -268c-59 -63 -136 -95 -232 -95c-97 0 -174 32 -232 95c-60 65 -90 155 -90 268zM139 351c0 -85 20 -150 60 -196c38 -45 90 -67 155 -67s116 22 155 66
c40 47 60 112 60 196c0 85 -20 150 -60 197c-38 44 -90 66 -155 66s-117 -22 -155 -66c-40 -47 -60 -112 -60 -196zM500 786l-50 -57l-95 80l-96 -80l-49 57l145 121zM515 891h-95l98 166l86 -25z" />
    <glyph glyph-name="uni1ED1" unicode="&#x1ed1;" horiz-adv-x="591" 
d="M32 280c0 91 25 162 74 215c48 51 111 76 190 76s142 -25 189 -76c49 -53 74 -124 74 -215c0 -90 -25 -161 -74 -214c-47 -51 -110 -77 -189 -77s-142 26 -190 77c-49 53 -74 124 -74 214zM134 280c0 -63 15 -112 45 -147c29 -34 68 -51 117 -51s88 17 117 51
c29 35 44 84 44 147s-15 112 -44 147c-29 34 -68 51 -117 51s-88 -17 -117 -51c-30 -35 -45 -84 -45 -147zM441 643l-50 -57l-95 80l-96 -80l-49 57l145 121zM467 730h-95l98 166l86 -25z" />
    <glyph glyph-name="uni1ED2" unicode="&#x1ed2;" horiz-adv-x="708" 
d="M32 350c0 113 30 203 90 268c58 63 135 95 232 95s174 -31 232 -94c60 -65 90 -155 90 -269c0 -113 -30 -203 -90 -268c-59 -63 -136 -95 -232 -95c-97 0 -174 32 -232 95c-60 65 -90 155 -90 268zM139 351c0 -85 20 -150 60 -196c38 -45 90 -67 155 -67s116 22 155 66
c40 47 60 112 60 196c0 85 -20 150 -60 197c-38 44 -90 66 -155 66s-117 -22 -155 -66c-40 -47 -60 -112 -60 -196zM499 786l-50 -57l-95 80l-96 -80l-49 57l145 121zM446 1050l98 -166h-95l-89 141z" />
    <glyph glyph-name="uni1ED3" unicode="&#x1ed3;" horiz-adv-x="591" 
d="M32 280c0 91 25 162 74 215c48 51 111 76 190 76s142 -25 189 -76c49 -53 74 -124 74 -215c0 -90 -25 -161 -74 -214c-47 -51 -110 -77 -189 -77s-142 26 -190 77c-49 53 -74 124 -74 214zM134 280c0 -63 15 -112 45 -147c29 -34 68 -51 117 -51s88 17 117 51
c29 35 44 84 44 147s-15 112 -44 147c-29 34 -68 51 -117 51s-88 -17 -117 -51c-30 -35 -45 -84 -45 -147zM441 643l-50 -57l-95 80l-96 -80l-49 57l145 121zM392 896l98 -166h-95l-89 141z" />
    <glyph glyph-name="uni1ED4" unicode="&#x1ed4;" horiz-adv-x="708" 
d="M32 350c0 113 30 203 90 268c58 63 135 95 232 95s174 -31 232 -94c60 -65 90 -155 90 -269c0 -113 -30 -203 -90 -268c-59 -63 -136 -95 -232 -95c-97 0 -174 32 -232 95c-60 65 -90 155 -90 268zM139 351c0 -85 20 -150 60 -196c38 -45 90 -67 155 -67s116 22 155 66
c40 47 60 112 60 196c0 85 -20 150 -60 197c-38 44 -90 66 -155 66s-117 -22 -155 -66c-40 -47 -60 -112 -60 -196zM499 786l-50 -57l-95 80l-96 -80l-49 57l145 121zM564 985c24 -43 11 -80 -40 -112c-23 -15 -45 -22 -64 -22l-33 57c24 0 43 5 57 14c20 13 27 25 22 34
c-7 12 -31 6 -72 -19l-29 54l52 30c51 13 86 1 107 -36z" />
    <glyph glyph-name="uni1ED5" unicode="&#x1ed5;" horiz-adv-x="591" 
d="M32 280c0 91 25 162 74 215c48 51 111 76 190 76s142 -25 189 -76c49 -53 74 -124 74 -215c0 -90 -25 -161 -74 -214c-47 -51 -110 -77 -189 -77s-142 26 -190 77c-49 53 -74 124 -74 214zM134 280c0 -63 15 -112 45 -147c29 -34 68 -51 117 -51s88 17 117 51
c29 35 44 84 44 147s-15 112 -44 147c-29 34 -68 51 -117 51s-88 -17 -117 -51c-30 -35 -45 -84 -45 -147zM441 643l-50 -57l-95 80l-96 -80l-49 57l145 121zM511 864c24 -43 11 -80 -40 -112c-23 -15 -45 -22 -64 -22l-33 57c24 0 43 5 57 14c20 13 27 25 22 34
c-7 12 -31 6 -72 -19l-29 54l52 30c51 13 86 1 107 -36z" />
    <glyph glyph-name="uni1ED6" unicode="&#x1ed6;" horiz-adv-x="708" 
d="M32 350c0 113 30 203 90 268c58 63 135 95 232 95s174 -31 232 -94c60 -65 90 -155 90 -269c0 -113 -30 -203 -90 -268c-59 -63 -136 -95 -232 -95c-97 0 -174 32 -232 95c-60 65 -90 155 -90 268zM139 351c0 -85 20 -150 60 -196c38 -45 90 -67 155 -67s116 22 155 66
c40 47 60 112 60 196c0 85 -20 150 -60 197c-38 44 -90 66 -155 66s-117 -22 -155 -66c-40 -47 -60 -112 -60 -196zM499 787l-50 -57l-95 80l-96 -80l-49 57l145 121zM499 1025l19 -78c-11 -20 -34 -30 -71 -30c-17 0 -38 5 -64 15s-47 15 -63 15c-26 0 -47 -9 -63 -26
l-19 78c13 21 37 31 71 31c17 0 38 -5 64 -15c27 -10 48 -15 64 -15c25 0 45 8 62 25z" />
    <glyph glyph-name="uni1ED7" unicode="&#x1ed7;" horiz-adv-x="591" 
d="M32 280c0 91 25 162 74 215c48 51 111 76 190 76s142 -25 189 -76c49 -53 74 -124 74 -215c0 -90 -25 -161 -74 -214c-47 -51 -110 -77 -189 -77s-142 26 -190 77c-49 53 -74 124 -74 214zM134 280c0 -63 15 -112 45 -147c29 -34 68 -51 117 -51s88 17 117 51
c29 35 44 84 44 147s-15 112 -44 147c-29 34 -68 51 -117 51s-88 -17 -117 -51c-30 -35 -45 -84 -45 -147zM441 643l-50 -57l-95 80l-96 -80l-49 57l145 121zM417 900l19 -78c-11 -20 -34 -30 -71 -30c-17 0 -38 5 -64 15s-47 15 -63 15c-26 0 -47 -9 -63 -26l-19 78
c13 21 37 31 71 31c17 0 38 -5 64 -15c27 -10 48 -15 64 -15c25 0 45 8 62 25z" />
    <glyph glyph-name="uni1ED8" unicode="&#x1ed8;" horiz-adv-x="708" 
d="M32 350c0 113 30 203 90 268c58 63 135 95 232 95s174 -31 232 -94c60 -65 90 -155 90 -269c0 -113 -30 -203 -90 -268c-59 -63 -136 -95 -232 -95c-97 0 -174 32 -232 95c-60 65 -90 155 -90 268zM139 351c0 -85 20 -150 60 -196c38 -45 90 -67 155 -67s116 22 155 66
c40 47 60 112 60 196c0 85 -20 150 -60 197c-38 44 -90 66 -155 66s-117 -22 -155 -66c-40 -47 -60 -112 -60 -196zM499 783l-50 -57l-95 80l-96 -80l-49 57l145 121zM354 -180c-41 0 -62 20 -62 61c0 40 21 60 62 60s62 -20 62 -60c0 -41 -21 -61 -62 -61z" />
    <glyph glyph-name="uni1ED9" unicode="&#x1ed9;" horiz-adv-x="591" 
d="M32 280c0 91 25 162 74 215c48 51 111 76 190 76s142 -25 189 -76c49 -53 74 -124 74 -215c0 -90 -25 -161 -74 -214c-47 -51 -110 -77 -189 -77s-142 26 -190 77c-49 53 -74 124 -74 214zM134 280c0 -63 15 -112 45 -147c29 -34 68 -51 117 -51s88 17 117 51
c29 35 44 84 44 147s-15 112 -44 147c-29 34 -68 51 -117 51s-88 -17 -117 -51c-30 -35 -45 -84 -45 -147zM441 643l-50 -57l-95 80l-96 -80l-49 57l145 121zM296 -180c-41 0 -62 20 -62 61c0 40 21 60 62 60s62 -20 62 -60c0 -41 -21 -61 -62 -61z" />
    </font>
</defs>
</svg>
